<?xml version="1.0" encoding="UTF-8" standalone="no"?><svg xmlns="http://www.w3.org/2000/svg" xmlns:xlink="http://www.w3.org/1999/xlink" contentScriptType="application/ecmascript" contentStyleType="text/css" height="541px" preserveAspectRatio="none" style="width:587px;height:541px;" version="1.1" viewBox="0 0 587 541" width="587px" zoomAndPan="magnify"><defs><filter height="300%" id="f972dvstwxdnh" width="300%" x="-1" y="-1"><feGaussianBlur result="blurOut" stdDeviation="2.0"/><feColorMatrix in="blurOut" result="blurOut2" type="matrix" values="0 0 0 0 0 0 0 0 0 0 0 0 0 0 0 0 0 0 .4 0"/><feOffset dx="4.0" dy="4.0" in="blurOut2" result="blurOut3"/><feBlend in="SourceGraphic" in2="blurOut3" mode="normal"/></filter></defs><g><!--MD5=[2ef883c7bda54365519191918ae31df7]
entity UNR--><ellipse cx="93.5" cy="463" fill="#FEFECE" filter="url(#f972dvstwxdnh)" rx="8" ry="8" style="stroke:#A80036;stroke-width:1.5;"/><path d="M93.5,471 L93.5,498 M80.5,479 L106.5,479 M93.5,498 L80.5,513 M93.5,498 L106.5,513 " fill="none" filter="url(#f972dvstwxdnh)" style="stroke:#A80036;stroke-width:1.5;"/><text fill="#000000" font-family="sans-serif" font-size="14" lengthAdjust="spacing" textLength="175" x="6" y="531.4951">Utilizador Não Registado</text><!--MD5=[ee0fec323975fbe97ba28321ad4c4bf3]
entity U--><ellipse cx="93.5" cy="233" fill="#FEFECE" filter="url(#f972dvstwxdnh)" rx="8" ry="8" style="stroke:#A80036;stroke-width:1.5;"/><path d="M93.5,241 L93.5,268 M80.5,249 L106.5,249 M93.5,268 L80.5,283 M93.5,268 L106.5,283 " fill="none" filter="url(#f972dvstwxdnh)" style="stroke:#A80036;stroke-width:1.5;"/><text fill="#000000" font-family="sans-serif" font-size="14" lengthAdjust="spacing" textLength="68" x="59.5" y="301.4951">Utilizador</text><!--MD5=[8b944653c655024075d894af29a33c78]
entity SC--><ellipse cx="93.5" cy="14" fill="#FEFECE" filter="url(#f972dvstwxdnh)" rx="8" ry="8" style="stroke:#A80036;stroke-width:1.5;"/><path d="M93.5,22 L93.5,49 M80.5,30 L106.5,30 M93.5,49 L80.5,64 M93.5,49 L106.5,64 " fill="none" filter="url(#f972dvstwxdnh)" style="stroke:#A80036;stroke-width:1.5;"/><text fill="#000000" font-family="sans-serif" font-size="14" lengthAdjust="spacing" textLength="115" x="36" y="82.4951">Sistema Central</text><ellipse cx="408.1522" cy="493.8304" fill="#FEFECE" filter="url(#f972dvstwxdnh)" rx="167.1522" ry="35.8304" style="stroke:#A80036;stroke-width:1.5;"/><text fill="#000000" font-family="sans-serif" font-size="14" lengthAdjust="spacing" textLength="28" x="394.1522" y="488.5287">UC1</text><text fill="#000000" font-family="sans-serif" font-size="14" lengthAdjust="spacing" textLength="273" x="271.6522" y="504.8256">Registar Utilizador no Sistema Central</text><ellipse cx="407.767" cy="132.0473" fill="#FEFECE" filter="url(#f972dvstwxdnh)" rx="89.267" ry="26.0473" style="stroke:#A80036;stroke-width:1.5;"/><text fill="#000000" font-family="sans-serif" font-size="14" lengthAdjust="spacing" textLength="27" x="394.267" y="126.7455">UC2</text><text fill="#000000" font-family="sans-serif" font-size="14" lengthAdjust="spacing" textLength="110" x="352.767" y="143.0424">Efetuar reserva</text><ellipse cx="408.131" cy="219.0473" fill="#FEFECE" filter="url(#f972dvstwxdnh)" rx="95.631" ry="26.0473" style="stroke:#A80036;stroke-width:1.5;"/><text fill="#000000" font-family="sans-serif" font-size="14" lengthAdjust="spacing" textLength="28" x="394.131" y="213.7455">UC3</text><text fill="#000000" font-family="sans-serif" font-size="14" lengthAdjust="spacing" textLength="119" x="348.631" y="230.0424">Cancelar reserva</text><ellipse cx="407.9194" cy="308.1839" fill="#FEFECE" filter="url(#f972dvstwxdnh)" rx="128.9194" ry="28.1839" style="stroke:#A80036;stroke-width:1.5;"/><text fill="#000000" font-family="sans-serif" font-size="14" lengthAdjust="spacing" textLength="27" x="394.4194" y="302.8821">UC4</text><text fill="#000000" font-family="sans-serif" font-size="14" lengthAdjust="spacing" textLength="180" x="317.9194" y="319.179">Pesquisar disponibilidade</text><ellipse cx="408.0305" cy="397.0473" fill="#FEFECE" filter="url(#f972dvstwxdnh)" rx="105.5305" ry="26.0473" style="stroke:#A80036;stroke-width:1.5;"/><text fill="#000000" font-family="sans-serif" font-size="14" lengthAdjust="spacing" textLength="28" x="394.0305" y="391.7455">UC5</text><text fill="#000000" font-family="sans-serif" font-size="14" lengthAdjust="spacing" textLength="133" x="341.5305" y="408.0424">Sub-alugar reserva</text><ellipse cx="407.93" cy="45.0473" fill="#FEFECE" filter="url(#f972dvstwxdnh)" rx="115.43" ry="26.0473" style="stroke:#A80036;stroke-width:1.5;"/><text fill="#000000" font-family="sans-serif" font-size="14" lengthAdjust="spacing" textLength="28" x="393.93" y="39.7455">UC6</text><text fill="#000000" font-family="sans-serif" font-size="14" lengthAdjust="spacing" textLength="147" x="334.43" y="56.0424">Enviar Confirmações</text><!--MD5=[7b21f0941fa32888f6ae813cc64547f3]
link UNR to UC1--><path d="M181.134,494 C198.222,494 216.707,494 235.489,494 " fill="none" id="UNR-to-UC1" style="stroke:#A80036;stroke-width:1.0;"/><polygon fill="#A80036" points="240.794,494,231.794,490,235.794,494,231.794,498,240.794,494" style="stroke:#A80036;stroke-width:1.0;"/><!--MD5=[d339eafd5e513c6cfb3f1117410f9a34]
link U to UC2--><path d="M127.614,239.993 C156.362,220.125 199.742,192.429 241,175 C268.366,163.44 299.621,154.358 327.574,147.579 " fill="none" id="U-to-UC2" style="stroke:#A80036;stroke-width:1.0;"/><polygon fill="#A80036" points="332.753,146.34,323.0695,144.5428,327.8901,147.5029,324.9301,152.3235,332.753,146.34" style="stroke:#A80036;stroke-width:1.0;"/><!--MD5=[f77f2acdb179da8ec684e67fcfe8d851]
link U to UC3--><path d="M127.647,259.227 C172.566,252.758 254.451,240.967 317.997,231.816 " fill="none" id="U-to-UC3" style="stroke:#A80036;stroke-width:1.0;"/><polygon fill="#A80036" points="323.312,231.051,313.8336,228.3751,318.3631,231.7639,314.9743,236.2934,323.312,231.051" style="stroke:#A80036;stroke-width:1.0;"/><!--MD5=[9b7be194ae6f0694e7ee7df55d9413e7]
link U to UC4--><path d="M127.647,268.667 C167.142,274.228 235.215,283.813 294.273,292.128 " fill="none" id="U-to-UC4" style="stroke:#A80036;stroke-width:1.0;"/><polygon fill="#A80036" points="299.232,292.826,290.8776,287.6103,294.2808,292.1289,289.7622,295.5321,299.232,292.826" style="stroke:#A80036;stroke-width:1.0;"/><!--MD5=[c18dcaead6e75b42460ecacb700e33ef]
link U to UC5--><path d="M127.572,288.298 C156.294,308.401 199.66,336.415 241,354 C265.784,364.542 293.782,373.004 319.628,379.538 " fill="none" id="U-to-UC5" style="stroke:#A80036;stroke-width:1.0;"/><polygon fill="#A80036" points="324.767,380.819,317.0025,374.7599,319.9156,379.609,315.0665,382.5221,324.767,380.819" style="stroke:#A80036;stroke-width:1.0;"/><!--MD5=[43840b4a220d19ff2004ce2f1ac7930e]
link SC to UC6--><path d="M151.091,45 C189.02,45 240.395,45 287.161,45 " fill="none" id="SC-to-UC6" style="stroke:#A80036;stroke-width:1.0;"/><polygon fill="#A80036" points="292.254,45,283.254,41,287.254,45,283.254,49,292.254,45" style="stroke:#A80036;stroke-width:1.0;"/><!--MD5=[5f46c12b90ae0c4d6b79356aaf56df3e]
@startuml
left to right direction

actor "Utilizador Não Registado" as UNR
actor "Utilizador" as U
actor "Sistema Central" as SC

usecase "UC1\nRegistar Utilizador no Sistema Central" as UC1
usecase "UC2\nEfetuar reserva" as UC2
usecase "UC3\nCancelar reserva" as UC3
usecase "UC4\nPesquisar disponibilidade" as UC4
usecase "UC5\nSub-alugar reserva" as UC5
usecase "UC6\nEnviar Confirmações" as UC6

UNR - -> UC1
U - -> UC2
U - -> UC3
U - -> UC4
U - -> UC5
SC - -> UC6
@enduml

PlantUML version 1.2021.2beta6(Unknown compile time)
(GPL source distribution)
Java Runtime: Java(TM) SE Runtime Environment
JVM: Java HotSpot(TM) 64-Bit Server VM
Default Encoding: UTF-8
Language: en
Country: US
--></g></svg>