<?xml version="1.0" encoding="UTF-8" standalone="no"?><svg xmlns="http://www.w3.org/2000/svg" xmlns:xlink="http://www.w3.org/1999/xlink" contentScriptType="application/ecmascript" contentStyleType="text/css" height="441px" preserveAspectRatio="none" style="width:587px;height:441px;" version="1.1" viewBox="0 0 587 441" width="587px" zoomAndPan="magnify"><defs><filter height="300%" id="f1vdz165qyegld" width="300%" x="-1" y="-1"><feGaussianBlur result="blurOut" stdDeviation="2.0"/><feColorMatrix in="blurOut" result="blurOut2" type="matrix" values="0 0 0 0 0 0 0 0 0 0 0 0 0 0 0 0 0 0 .4 0"/><feOffset dx="4.0" dy="4.0" in="blurOut2" result="blurOut3"/><feBlend in="SourceGraphic" in2="blurOut3" mode="normal"/></filter></defs><g><!--MD5=[2ef883c7bda54365519191918ae31df7]
entity UNR--><ellipse cx="93.5" cy="363" fill="#FEFECE" filter="url(#f1vdz165qyegld)" rx="8" ry="8" style="stroke:#A80036;stroke-width:1.5;"/><path d="M93.5,371 L93.5,398 M80.5,379 L106.5,379 M93.5,398 L80.5,413 M93.5,398 L106.5,413 " fill="none" filter="url(#f1vdz165qyegld)" style="stroke:#A80036;stroke-width:1.5;"/><text fill="#000000" font-family="sans-serif" font-size="14" lengthAdjust="spacing" textLength="175" x="6" y="431.4951">Utilizador Não Registado</text><!--MD5=[ee0fec323975fbe97ba28321ad4c4bf3]
entity U--><ellipse cx="93.5" cy="133" fill="#FEFECE" filter="url(#f1vdz165qyegld)" rx="8" ry="8" style="stroke:#A80036;stroke-width:1.5;"/><path d="M93.5,141 L93.5,168 M80.5,149 L106.5,149 M93.5,168 L80.5,183 M93.5,168 L106.5,183 " fill="none" filter="url(#f1vdz165qyegld)" style="stroke:#A80036;stroke-width:1.5;"/><text fill="#000000" font-family="sans-serif" font-size="14" lengthAdjust="spacing" textLength="68" x="59.5" y="201.4951">Utilizador</text><ellipse cx="408.1522" cy="393.8304" fill="#FEFECE" filter="url(#f1vdz165qyegld)" rx="167.1522" ry="35.8304" style="stroke:#A80036;stroke-width:1.5;"/><text fill="#000000" font-family="sans-serif" font-size="14" lengthAdjust="spacing" textLength="28" x="394.1522" y="388.5287">UC1</text><text fill="#000000" font-family="sans-serif" font-size="14" lengthAdjust="spacing" textLength="273" x="271.6522" y="404.8256">Registar Utilizador no Sistema Central</text><ellipse cx="407.767" cy="32.0473" fill="#FEFECE" filter="url(#f1vdz165qyegld)" rx="89.267" ry="26.0473" style="stroke:#A80036;stroke-width:1.5;"/><text fill="#000000" font-family="sans-serif" font-size="14" lengthAdjust="spacing" textLength="27" x="394.267" y="26.7455">UC2</text><text fill="#000000" font-family="sans-serif" font-size="14" lengthAdjust="spacing" textLength="110" x="352.767" y="43.0424">Efetuar reserva</text><ellipse cx="408.131" cy="119.0473" fill="#FEFECE" filter="url(#f1vdz165qyegld)" rx="95.631" ry="26.0473" style="stroke:#A80036;stroke-width:1.5;"/><text fill="#000000" font-family="sans-serif" font-size="14" lengthAdjust="spacing" textLength="28" x="394.131" y="113.7455">UC3</text><text fill="#000000" font-family="sans-serif" font-size="14" lengthAdjust="spacing" textLength="119" x="348.631" y="130.0424">Cancelar reserva</text><ellipse cx="407.9194" cy="208.1839" fill="#FEFECE" filter="url(#f1vdz165qyegld)" rx="128.9194" ry="28.1839" style="stroke:#A80036;stroke-width:1.5;"/><text fill="#000000" font-family="sans-serif" font-size="14" lengthAdjust="spacing" textLength="27" x="394.4194" y="202.8821">UC4</text><text fill="#000000" font-family="sans-serif" font-size="14" lengthAdjust="spacing" textLength="180" x="317.9194" y="219.179">Pesquisar disponibilidade</text><ellipse cx="408.0305" cy="297.0473" fill="#FEFECE" filter="url(#f1vdz165qyegld)" rx="105.5305" ry="26.0473" style="stroke:#A80036;stroke-width:1.5;"/><text fill="#000000" font-family="sans-serif" font-size="14" lengthAdjust="spacing" textLength="28" x="394.0305" y="291.7455">UC5</text><text fill="#000000" font-family="sans-serif" font-size="14" lengthAdjust="spacing" textLength="133" x="341.5305" y="308.0424">Sub-alugar reserva</text><!--MD5=[7b21f0941fa32888f6ae813cc64547f3]
link UNR to UC1--><path d="M181.134,394 C198.222,394 216.707,394 235.489,394 " fill="none" id="UNR-to-UC1" style="stroke:#A80036;stroke-width:1.0;"/><polygon fill="#A80036" points="240.794,394,231.794,390,235.794,394,231.794,398,240.794,394" style="stroke:#A80036;stroke-width:1.0;"/><!--MD5=[d339eafd5e513c6cfb3f1117410f9a34]
link U to UC2--><path d="M127.614,139.993 C156.362,120.125 199.742,92.429 241,75 C268.366,63.44 299.621,54.358 327.574,47.579 " fill="none" id="U-to-UC2" style="stroke:#A80036;stroke-width:1.0;"/><polygon fill="#A80036" points="332.753,46.34,323.0695,44.5428,327.8901,47.5029,324.9301,52.3235,332.753,46.34" style="stroke:#A80036;stroke-width:1.0;"/><!--MD5=[f77f2acdb179da8ec684e67fcfe8d851]
link U to UC3--><path d="M127.647,159.227 C172.566,152.758 254.451,140.967 317.997,131.816 " fill="none" id="U-to-UC3" style="stroke:#A80036;stroke-width:1.0;"/><polygon fill="#A80036" points="323.312,131.051,313.8336,128.3751,318.3631,131.7639,314.9743,136.2934,323.312,131.051" style="stroke:#A80036;stroke-width:1.0;"/><!--MD5=[9b7be194ae6f0694e7ee7df55d9413e7]
link U to UC4--><path d="M127.647,168.667 C167.142,174.228 235.215,183.813 294.273,192.128 " fill="none" id="U-to-UC4" style="stroke:#A80036;stroke-width:1.0;"/><polygon fill="#A80036" points="299.232,192.826,290.8776,187.6103,294.2808,192.1289,289.7622,195.5321,299.232,192.826" style="stroke:#A80036;stroke-width:1.0;"/><!--MD5=[c18dcaead6e75b42460ecacb700e33ef]
link U to UC5--><path d="M127.639,187.948 C156.402,207.779 199.791,235.455 241,253 C266.308,263.775 294.934,272.498 321.2,279.249 " fill="none" id="U-to-UC5" style="stroke:#A80036;stroke-width:1.0;"/><polygon fill="#A80036" points="326.076,280.487,318.3363,274.3962,321.2296,279.2572,316.3686,282.1505,326.076,280.487" style="stroke:#A80036;stroke-width:1.0;"/><!--MD5=[be640a7812590fb53f0c92a6b7de9b96]
@startuml
left to right direction

actor "Utilizador Não Registado" as UNR
actor "Utilizador" as U

usecase "UC1\nRegistar Utilizador no Sistema Central" as UC1
usecase "UC2\nEfetuar reserva" as UC2
usecase "UC3\nCancelar reserva" as UC3
usecase "UC4\nPesquisar disponibilidade" as UC4
usecase "UC5\nSub-alugar reserva" as UC5

UNR - -> UC1
U - -> UC2
U - -> UC3
U - -> UC4
U - -> UC5
@enduml

PlantUML version 1.2021.2beta6(Unknown compile time)
(GPL source distribution)
Java Runtime: Java(TM) SE Runtime Environment
JVM: Java HotSpot(TM) 64-Bit Server VM
Default Encoding: UTF-8
Language: en
Country: US
--></g></svg>