<?xml version="1.0" encoding="UTF-8" standalone="no"?><svg xmlns="http://www.w3.org/2000/svg" xmlns:xlink="http://www.w3.org/1999/xlink" contentScriptType="application/ecmascript" contentStyleType="text/css" height="522px" preserveAspectRatio="none" style="width:1627px;height:522px;" version="1.1" viewBox="0 0 1627 522" width="1627px" zoomAndPan="magnify"><defs><filter height="300%" id="f1f5sgj1anka99" width="300%" x="-1" y="-1"><feGaussianBlur result="blurOut" stdDeviation="2.0"/><feColorMatrix in="blurOut" result="blurOut2" type="matrix" values="0 0 0 0 0 0 0 0 0 0 0 0 0 0 0 0 0 0 .4 0"/><feOffset dx="4.0" dy="4.0" in="blurOut2" result="blurOut3"/><feBlend in="SourceGraphic" in2="blurOut3" mode="normal"/></filter></defs><g><!--MD5=[cdfd548b3455e70392372b1f27091970]
cluster Services--><polygon fill="#FFFFFF" filter="url(#f1f5sgj1anka99)" points="16,244,89,244,96,266.2969,1185,266.2969,1185,515,16,515,16,244" style="stroke:#000000;stroke-width:1.5;"/><line style="stroke:#000000;stroke-width:1.5;" x1="16" x2="96" y1="266.2969" y2="266.2969"/><text fill="#000000" font-family="sans-serif" font-size="14" font-weight="bold" lengthAdjust="spacing" textLength="67" x="20" y="258.9951">Services</text><!--MD5=[ed1d20ea533a2a0e7df5ba3c35e56ced]
cluster Controllers--><polygon fill="#FFFFFF" filter="url(#f1f5sgj1anka99)" points="150,6,246,6,253,28.2969,909,28.2969,909,220,150,220,150,6" style="stroke:#000000;stroke-width:1.5;"/><line style="stroke:#000000;stroke-width:1.5;" x1="150" x2="253" y1="28.2969" y2="28.2969"/><text fill="#000000" font-family="sans-serif" font-size="14" font-weight="bold" lengthAdjust="spacing" textLength="90" x="154" y="20.9951">Controllers</text><!--MD5=[027ebfd53c01aea08f474edbf35d0797]
cluster Models--><polygon fill="#FFFFFF" filter="url(#f1f5sgj1anka99)" points="933,44.5,996,44.5,1003,66.7969,1131,66.7969,1131,181.5,933,181.5,933,44.5" style="stroke:#000000;stroke-width:1.5;"/><line style="stroke:#000000;stroke-width:1.5;" x1="933" x2="1003" y1="66.7969" y2="66.7969"/><text fill="#000000" font-family="sans-serif" font-size="14" font-weight="bold" lengthAdjust="spacing" textLength="57" x="937" y="59.4951">Models</text><!--MD5=[1447cef49520ca2f928eb42d06eb682a]
cluster Identity--><polygon fill="#FFFFFF" filter="url(#f1f5sgj1anka99)" points="1155,63.5,1225,63.5,1232,85.7969,1610,85.7969,1610,162.5,1155,162.5,1155,63.5" style="stroke:#000000;stroke-width:1.5;"/><line style="stroke:#000000;stroke-width:1.5;" x1="1155" x2="1232" y1="85.7969" y2="85.7969"/><text fill="#000000" font-family="sans-serif" font-size="14" font-weight="bold" lengthAdjust="spacing" textLength="64" x="1159" y="78.4951">Identity</text><!--MD5=[01498327e5f84ff3503863380b2b4dc7]
class ReservaService:IReservaService--><rect codeLine="5" fill="#FEFECE" filter="url(#f1f5sgj1anka99)" height="112.0234" id="ReservaService:IReservaService" style="stroke:#A80036;stroke-width:1.5;" width="282" x="887" y="387"/><ellipse cx="925.85" cy="403" fill="#ADD1B2" rx="11" ry="11" style="stroke:#A80036;stroke-width:1.0;"/><path d="M928.1938,398.6719 C927.2563,398.2344 926.6625,398.0938 925.7875,398.0938 C923.1625,398.0938 921.1625,400.1719 921.1625,402.8906 L921.1625,404.0156 C921.1625,406.5938 923.2719,408.4844 926.1625,408.4844 C927.3813,408.4844 928.5375,408.1875 929.2875,407.6406 C929.8656,407.2344 930.1938,406.7813 930.1938,406.3906 C930.1938,405.9375 929.8031,405.5469 929.3344,405.5469 C929.1156,405.5469 928.9125,405.625 928.725,405.8125 C928.2719,406.2969 928.2719,406.2969 928.0844,406.3906 C927.6625,406.6563 926.975,406.7813 926.2094,406.7813 C924.1625,406.7813 922.8656,405.6875 922.8656,403.9844 L922.8656,402.8906 C922.8656,401.1094 924.1156,399.7969 925.85,399.7969 C926.4281,399.7969 927.0375,399.9531 927.5063,400.2031 C927.9906,400.4844 928.1625,400.7031 928.2563,401.1094 C928.3188,401.5156 928.35,401.6406 928.4906,401.7656 C928.6313,401.9063 928.8656,402.0156 929.0844,402.0156 C929.35,402.0156 929.6156,401.875 929.7875,401.6563 C929.8969,401.5 929.9281,401.3125 929.9281,400.8906 L929.9281,399.4688 C929.9281,399.0313 929.9125,398.9063 929.8188,398.75 C929.6625,398.4844 929.3813,398.3438 929.0844,398.3438 C928.7875,398.3438 928.5844,398.4375 928.3656,398.75 L928.1938,398.6719 Z " fill="#000000"/><text fill="#000000" font-family="sans-serif" font-size="12" lengthAdjust="spacing" textLength="197" x="945.15" y="407.1543">ReservaService:IReservaService</text><line style="stroke:#A80036;stroke-width:1.5;" x1="888" x2="1168" y1="419" y2="419"/><line style="stroke:#A80036;stroke-width:1.5;" x1="888" x2="1168" y1="427" y2="427"/><text fill="#000000" font-family="sans-serif" font-size="11" lengthAdjust="spacing" textLength="270" x="893" y="441.2104">-GetDisponibilidade(nomeFreguesia, inicio, fim)</text><text fill="#000000" font-family="sans-serif" font-size="11" lengthAdjust="spacing" textLength="126" x="893" y="454.0151">-PostReserva(reserva)</text><text fill="#000000" font-family="sans-serif" font-size="11" lengthAdjust="spacing" textLength="144" x="893" y="466.8198">-GetAllReservasByNif(nif)</text><text fill="#000000" font-family="sans-serif" font-size="11" lengthAdjust="spacing" textLength="109" x="893" y="479.6245">-DeleteReserva(id)</text><text fill="#000000" font-family="sans-serif" font-size="11" lengthAdjust="spacing" textLength="115" x="893" y="492.4292">-GetReservaById(id)</text><!--MD5=[ee4c4471522f14aba4dc72b5d312932f]
class IReservaService--><rect codeLine="12" fill="#FEFECE" filter="url(#f1f5sgj1anka99)" height="48" id="IReservaService" style="stroke:#A80036;stroke-width:1.5;" width="127" x="895.5" y="279"/><ellipse cx="910.5" cy="295" fill="#B4A7E5" rx="11" ry="11" style="stroke:#A80036;stroke-width:1.0;"/><path d="M911.4531,291.7813 L913.1719,291.7813 C913.5625,291.7813 913.75,291.75 913.875,291.6719 C914.1406,291.5156 914.2813,291.2344 914.2813,290.9375 C914.2813,290.6719 914.1719,290.4063 913.9375,290.2344 C913.7656,290.125 913.625,290.0938 913.1719,290.0938 L908.0313,290.0938 C907.5938,290.0938 907.4688,290.1094 907.3125,290.2031 C907.0625,290.3594 906.9063,290.6563 906.9063,290.9375 C906.9063,291.2188 907.0469,291.4688 907.2656,291.6406 C907.4219,291.75 907.6094,291.7813 908.0313,291.7813 L909.75,291.7813 L909.75,298.2969 L908.0313,298.2969 C907.5938,298.2969 907.4688,298.3125 907.3125,298.4219 C907.0625,298.5781 906.9063,298.8594 906.9063,299.1563 C906.9063,299.4063 907.0469,299.6719 907.2656,299.8281 C907.4219,299.9531 907.625,300 908.0313,300 L913.1719,300 C913.9219,300 914.2813,299.7188 914.2813,299.1563 C914.2813,298.875 914.1719,298.625 913.9375,298.4531 C913.7656,298.3281 913.625,298.2969 913.1719,298.2969 L911.4531,298.2969 L911.4531,291.7813 Z " fill="#000000"/><text fill="#000000" font-family="sans-serif" font-size="12" font-style="italic" lengthAdjust="spacing" textLength="95" x="924.5" y="299.1543">IReservaService</text><line style="stroke:#A80036;stroke-width:1.5;" x1="896.5" x2="1021.5" y1="311" y2="311"/><line style="stroke:#A80036;stroke-width:1.5;" x1="896.5" x2="1021.5" y1="319" y2="319"/><!--MD5=[1656d5d80f092ff232ee2f948655e0af]
class SubAluguerService:ISubAluguerService--><rect codeLine="14" fill="#FEFECE" filter="url(#f1f5sgj1anka99)" height="99.2188" id="SubAluguerService:ISubAluguerService" style="stroke:#A80036;stroke-width:1.5;" width="269" x="582.5" y="393.5"/><ellipse cx="597.5" cy="409.5" fill="#ADD1B2" rx="11" ry="11" style="stroke:#A80036;stroke-width:1.0;"/><path d="M599.8438,405.1719 C598.9063,404.7344 598.3125,404.5938 597.4375,404.5938 C594.8125,404.5938 592.8125,406.6719 592.8125,409.3906 L592.8125,410.5156 C592.8125,413.0938 594.9219,414.9844 597.8125,414.9844 C599.0313,414.9844 600.1875,414.6875 600.9375,414.1406 C601.5156,413.7344 601.8438,413.2813 601.8438,412.8906 C601.8438,412.4375 601.4531,412.0469 600.9844,412.0469 C600.7656,412.0469 600.5625,412.125 600.375,412.3125 C599.9219,412.7969 599.9219,412.7969 599.7344,412.8906 C599.3125,413.1563 598.625,413.2813 597.8594,413.2813 C595.8125,413.2813 594.5156,412.1875 594.5156,410.4844 L594.5156,409.3906 C594.5156,407.6094 595.7656,406.2969 597.5,406.2969 C598.0781,406.2969 598.6875,406.4531 599.1563,406.7031 C599.6406,406.9844 599.8125,407.2031 599.9063,407.6094 C599.9688,408.0156 600,408.1406 600.1406,408.2656 C600.2813,408.4063 600.5156,408.5156 600.7344,408.5156 C601,408.5156 601.2656,408.375 601.4375,408.1563 C601.5469,408 601.5781,407.8125 601.5781,407.3906 L601.5781,405.9688 C601.5781,405.5313 601.5625,405.4063 601.4688,405.25 C601.3125,404.9844 601.0313,404.8438 600.7344,404.8438 C600.4375,404.8438 600.2344,404.9375 600.0156,405.25 L599.8438,405.1719 Z " fill="#000000"/><text fill="#000000" font-family="sans-serif" font-size="12" lengthAdjust="spacing" textLength="237" x="611.5" y="413.6543">SubAluguerService:ISubAluguerService</text><line style="stroke:#A80036;stroke-width:1.5;" x1="583.5" x2="850.5" y1="425.5" y2="425.5"/><line style="stroke:#A80036;stroke-width:1.5;" x1="583.5" x2="850.5" y1="433.5" y2="433.5"/><text fill="#000000" font-family="sans-serif" font-size="11" lengthAdjust="spacing" textLength="171" x="588.5" y="447.7104">-GetAllSubAlugueresByNif(nif)</text><text fill="#000000" font-family="sans-serif" font-size="11" lengthAdjust="spacing" textLength="165" x="588.5" y="460.5151">-PostSubAluguer(subAluguer)</text><text fill="#000000" font-family="sans-serif" font-size="11" lengthAdjust="spacing" textLength="128" x="588.5" y="473.3198">-DeleteSubAluguer(id)</text><text fill="#000000" font-family="sans-serif" font-size="11" lengthAdjust="spacing" textLength="134" x="588.5" y="486.1245">-GetSubAluguerById(id)</text><!--MD5=[bbeee9cba97c8cdf530d5a7a53e14fbb]
class ISubAluguerService--><rect codeLine="20" fill="#FEFECE" filter="url(#f1f5sgj1anka99)" height="48" id="ISubAluguerService" style="stroke:#A80036;stroke-width:1.5;" width="151" x="641.5" y="279"/><ellipse cx="656.5" cy="295" fill="#B4A7E5" rx="11" ry="11" style="stroke:#A80036;stroke-width:1.0;"/><path d="M657.4531,291.7813 L659.1719,291.7813 C659.5625,291.7813 659.75,291.75 659.875,291.6719 C660.1406,291.5156 660.2813,291.2344 660.2813,290.9375 C660.2813,290.6719 660.1719,290.4063 659.9375,290.2344 C659.7656,290.125 659.625,290.0938 659.1719,290.0938 L654.0313,290.0938 C653.5938,290.0938 653.4688,290.1094 653.3125,290.2031 C653.0625,290.3594 652.9063,290.6563 652.9063,290.9375 C652.9063,291.2188 653.0469,291.4688 653.2656,291.6406 C653.4219,291.75 653.6094,291.7813 654.0313,291.7813 L655.75,291.7813 L655.75,298.2969 L654.0313,298.2969 C653.5938,298.2969 653.4688,298.3125 653.3125,298.4219 C653.0625,298.5781 652.9063,298.8594 652.9063,299.1563 C652.9063,299.4063 653.0469,299.6719 653.2656,299.8281 C653.4219,299.9531 653.625,300 654.0313,300 L659.1719,300 C659.9219,300 660.2813,299.7188 660.2813,299.1563 C660.2813,298.875 660.1719,298.625 659.9375,298.4531 C659.7656,298.3281 659.625,298.2969 659.1719,298.2969 L657.4531,298.2969 L657.4531,291.7813 Z " fill="#000000"/><text fill="#000000" font-family="sans-serif" font-size="12" font-style="italic" lengthAdjust="spacing" textLength="119" x="670.5" y="299.1543">ISubAluguerService</text><line style="stroke:#A80036;stroke-width:1.5;" x1="642.5" x2="791.5" y1="311" y2="311"/><line style="stroke:#A80036;stroke-width:1.5;" x1="642.5" x2="791.5" y1="319" y2="319"/><!--MD5=[b27beebb928fc37173f7a3042d83d489]
class TransacaoService:ITransacaoService--><rect codeLine="22" fill="#FEFECE" filter="url(#f1f5sgj1anka99)" height="60.8047" id="TransacaoService:ITransacaoService" style="stroke:#A80036;stroke-width:1.5;" width="255" x="292.5" y="412.5"/><ellipse cx="307.5" cy="428.5" fill="#ADD1B2" rx="11" ry="11" style="stroke:#A80036;stroke-width:1.0;"/><path d="M309.8438,424.1719 C308.9063,423.7344 308.3125,423.5938 307.4375,423.5938 C304.8125,423.5938 302.8125,425.6719 302.8125,428.3906 L302.8125,429.5156 C302.8125,432.0938 304.9219,433.9844 307.8125,433.9844 C309.0313,433.9844 310.1875,433.6875 310.9375,433.1406 C311.5156,432.7344 311.8438,432.2813 311.8438,431.8906 C311.8438,431.4375 311.4531,431.0469 310.9844,431.0469 C310.7656,431.0469 310.5625,431.125 310.375,431.3125 C309.9219,431.7969 309.9219,431.7969 309.7344,431.8906 C309.3125,432.1563 308.625,432.2813 307.8594,432.2813 C305.8125,432.2813 304.5156,431.1875 304.5156,429.4844 L304.5156,428.3906 C304.5156,426.6094 305.7656,425.2969 307.5,425.2969 C308.0781,425.2969 308.6875,425.4531 309.1563,425.7031 C309.6406,425.9844 309.8125,426.2031 309.9063,426.6094 C309.9688,427.0156 310,427.1406 310.1406,427.2656 C310.2813,427.4063 310.5156,427.5156 310.7344,427.5156 C311,427.5156 311.2656,427.375 311.4375,427.1563 C311.5469,427 311.5781,426.8125 311.5781,426.3906 L311.5781,424.9688 C311.5781,424.5313 311.5625,424.4063 311.4688,424.25 C311.3125,423.9844 311.0313,423.8438 310.7344,423.8438 C310.4375,423.8438 310.2344,423.9375 310.0156,424.25 L309.8438,424.1719 Z " fill="#000000"/><text fill="#000000" font-family="sans-serif" font-size="12" lengthAdjust="spacing" textLength="223" x="321.5" y="432.6543">TransacaoService:ITransacaoService</text><line style="stroke:#A80036;stroke-width:1.5;" x1="293.5" x2="546.5" y1="444.5" y2="444.5"/><line style="stroke:#A80036;stroke-width:1.5;" x1="293.5" x2="546.5" y1="452.5" y2="452.5"/><text fill="#000000" font-family="sans-serif" font-size="11" lengthAdjust="spacing" textLength="156" x="298.5" y="466.7104">-GetAllTransacoesByNif(nif)</text><!--MD5=[fdb78f300853586fe36911abfcd46422]
class ITransacaoService--><rect codeLine="25" fill="#FEFECE" filter="url(#f1f5sgj1anka99)" height="48" id="ITransacaoService" style="stroke:#A80036;stroke-width:1.5;" width="141" x="349.5" y="279"/><ellipse cx="364.5" cy="295" fill="#B4A7E5" rx="11" ry="11" style="stroke:#A80036;stroke-width:1.0;"/><path d="M365.4531,291.7813 L367.1719,291.7813 C367.5625,291.7813 367.75,291.75 367.875,291.6719 C368.1406,291.5156 368.2813,291.2344 368.2813,290.9375 C368.2813,290.6719 368.1719,290.4063 367.9375,290.2344 C367.7656,290.125 367.625,290.0938 367.1719,290.0938 L362.0313,290.0938 C361.5938,290.0938 361.4688,290.1094 361.3125,290.2031 C361.0625,290.3594 360.9063,290.6563 360.9063,290.9375 C360.9063,291.2188 361.0469,291.4688 361.2656,291.6406 C361.4219,291.75 361.6094,291.7813 362.0313,291.7813 L363.75,291.7813 L363.75,298.2969 L362.0313,298.2969 C361.5938,298.2969 361.4688,298.3125 361.3125,298.4219 C361.0625,298.5781 360.9063,298.8594 360.9063,299.1563 C360.9063,299.4063 361.0469,299.6719 361.2656,299.8281 C361.4219,299.9531 361.625,300 362.0313,300 L367.1719,300 C367.9219,300 368.2813,299.7188 368.2813,299.1563 C368.2813,298.875 368.1719,298.625 367.9375,298.4531 C367.7656,298.3281 367.625,298.2969 367.1719,298.2969 L365.4531,298.2969 L365.4531,291.7813 Z " fill="#000000"/><text fill="#000000" font-family="sans-serif" font-size="12" font-style="italic" lengthAdjust="spacing" textLength="109" x="378.5" y="299.1543">ITransacaoService</text><line style="stroke:#A80036;stroke-width:1.5;" x1="350.5" x2="489.5" y1="311" y2="311"/><line style="stroke:#A80036;stroke-width:1.5;" x1="350.5" x2="489.5" y1="319" y2="319"/><!--MD5=[bcfc6c984efdd78f523d3b6b54e49cf4]
class CarteiraService:ICarteiraService--><rect codeLine="27" fill="#FEFECE" filter="url(#f1f5sgj1anka99)" height="73.6094" id="CarteiraService:ICarteiraService" style="stroke:#A80036;stroke-width:1.5;" width="225" x="32.5" y="406"/><ellipse cx="47.5" cy="422" fill="#ADD1B2" rx="11" ry="11" style="stroke:#A80036;stroke-width:1.0;"/><path d="M49.8438,417.6719 C48.9063,417.2344 48.3125,417.0938 47.4375,417.0938 C44.8125,417.0938 42.8125,419.1719 42.8125,421.8906 L42.8125,423.0156 C42.8125,425.5938 44.9219,427.4844 47.8125,427.4844 C49.0313,427.4844 50.1875,427.1875 50.9375,426.6406 C51.5156,426.2344 51.8438,425.7813 51.8438,425.3906 C51.8438,424.9375 51.4531,424.5469 50.9844,424.5469 C50.7656,424.5469 50.5625,424.625 50.375,424.8125 C49.9219,425.2969 49.9219,425.2969 49.7344,425.3906 C49.3125,425.6563 48.625,425.7813 47.8594,425.7813 C45.8125,425.7813 44.5156,424.6875 44.5156,422.9844 L44.5156,421.8906 C44.5156,420.1094 45.7656,418.7969 47.5,418.7969 C48.0781,418.7969 48.6875,418.9531 49.1563,419.2031 C49.6406,419.4844 49.8125,419.7031 49.9063,420.1094 C49.9688,420.5156 50,420.6406 50.1406,420.7656 C50.2813,420.9063 50.5156,421.0156 50.7344,421.0156 C51,421.0156 51.2656,420.875 51.4375,420.6563 C51.5469,420.5 51.5781,420.3125 51.5781,419.8906 L51.5781,418.4688 C51.5781,418.0313 51.5625,417.9063 51.4688,417.75 C51.3125,417.4844 51.0313,417.3438 50.7344,417.3438 C50.4375,417.3438 50.2344,417.4375 50.0156,417.75 L49.8438,417.6719 Z " fill="#000000"/><text fill="#000000" font-family="sans-serif" font-size="12" lengthAdjust="spacing" textLength="193" x="61.5" y="426.1543">CarteiraService:ICarteiraService</text><line style="stroke:#A80036;stroke-width:1.5;" x1="33.5" x2="256.5" y1="438" y2="438"/><line style="stroke:#A80036;stroke-width:1.5;" x1="33.5" x2="256.5" y1="446" y2="446"/><text fill="#000000" font-family="sans-serif" font-size="11" lengthAdjust="spacing" textLength="109" x="38.5" y="460.2104">-GetSaldoByNif(nif)</text><text fill="#000000" font-family="sans-serif" font-size="11" lengthAdjust="spacing" textLength="164" x="38.5" y="473.0151">-UpdateSaldoByNif(nif, valor)</text><!--MD5=[d5129fdcf43d9449c03ef43da00e24ce]
class ICarteiraService--><rect codeLine="31" fill="#FEFECE" filter="url(#f1f5sgj1anka99)" height="48" id="ICarteiraService" style="stroke:#A80036;stroke-width:1.5;" width="127" x="126.5" y="279"/><ellipse cx="141.5" cy="295" fill="#B4A7E5" rx="11" ry="11" style="stroke:#A80036;stroke-width:1.0;"/><path d="M142.4531,291.7813 L144.1719,291.7813 C144.5625,291.7813 144.75,291.75 144.875,291.6719 C145.1406,291.5156 145.2813,291.2344 145.2813,290.9375 C145.2813,290.6719 145.1719,290.4063 144.9375,290.2344 C144.7656,290.125 144.625,290.0938 144.1719,290.0938 L139.0313,290.0938 C138.5938,290.0938 138.4688,290.1094 138.3125,290.2031 C138.0625,290.3594 137.9063,290.6563 137.9063,290.9375 C137.9063,291.2188 138.0469,291.4688 138.2656,291.6406 C138.4219,291.75 138.6094,291.7813 139.0313,291.7813 L140.75,291.7813 L140.75,298.2969 L139.0313,298.2969 C138.5938,298.2969 138.4688,298.3125 138.3125,298.4219 C138.0625,298.5781 137.9063,298.8594 137.9063,299.1563 C137.9063,299.4063 138.0469,299.6719 138.2656,299.8281 C138.4219,299.9531 138.625,300 139.0313,300 L144.1719,300 C144.9219,300 145.2813,299.7188 145.2813,299.1563 C145.2813,298.875 145.1719,298.625 144.9375,298.4531 C144.7656,298.3281 144.625,298.2969 144.1719,298.2969 L142.4531,298.2969 L142.4531,291.7813 Z " fill="#000000"/><text fill="#000000" font-family="sans-serif" font-size="12" font-style="italic" lengthAdjust="spacing" textLength="95" x="155.5" y="299.1543">ICarteiraService</text><line style="stroke:#A80036;stroke-width:1.5;" x1="127.5" x2="252.5" y1="311" y2="311"/><line style="stroke:#A80036;stroke-width:1.5;" x1="127.5" x2="252.5" y1="319" y2="319"/><!--MD5=[884d341d7584b75b159fb4abcbb8e424]
class ReservasController--><rect codeLine="37" fill="#FEFECE" filter="url(#f1f5sgj1anka99)" height="163.2422" id="ReservasController" style="stroke:#A80036;stroke-width:1.5;" width="147" x="745.5" y="41"/><ellipse cx="760.5" cy="57" fill="#ADD1B2" rx="11" ry="11" style="stroke:#A80036;stroke-width:1.0;"/><path d="M762.8438,52.6719 C761.9063,52.2344 761.3125,52.0938 760.4375,52.0938 C757.8125,52.0938 755.8125,54.1719 755.8125,56.8906 L755.8125,58.0156 C755.8125,60.5938 757.9219,62.4844 760.8125,62.4844 C762.0313,62.4844 763.1875,62.1875 763.9375,61.6406 C764.5156,61.2344 764.8438,60.7813 764.8438,60.3906 C764.8438,59.9375 764.4531,59.5469 763.9844,59.5469 C763.7656,59.5469 763.5625,59.625 763.375,59.8125 C762.9219,60.2969 762.9219,60.2969 762.7344,60.3906 C762.3125,60.6563 761.625,60.7813 760.8594,60.7813 C758.8125,60.7813 757.5156,59.6875 757.5156,57.9844 L757.5156,56.8906 C757.5156,55.1094 758.7656,53.7969 760.5,53.7969 C761.0781,53.7969 761.6875,53.9531 762.1563,54.2031 C762.6406,54.4844 762.8125,54.7031 762.9063,55.1094 C762.9688,55.5156 763,55.6406 763.1406,55.7656 C763.2813,55.9063 763.5156,56.0156 763.7344,56.0156 C764,56.0156 764.2656,55.875 764.4375,55.6563 C764.5469,55.5 764.5781,55.3125 764.5781,54.8906 L764.5781,53.4688 C764.5781,53.0313 764.5625,52.9063 764.4688,52.75 C764.3125,52.4844 764.0313,52.3438 763.7344,52.3438 C763.4375,52.3438 763.2344,52.4375 763.0156,52.75 L762.8438,52.6719 Z " fill="#000000"/><text fill="#000000" font-family="sans-serif" font-size="12" lengthAdjust="spacing" textLength="115" x="774.5" y="61.1543">ReservasController</text><line style="stroke:#A80036;stroke-width:1.5;" x1="746.5" x2="891.5" y1="73" y2="73"/><text fill="#000000" font-family="sans-serif" font-size="11" lengthAdjust="spacing" textLength="121" x="751.5" y="87.2104">+Get Disponibilidade</text><text fill="#000000" font-family="sans-serif" font-size="11" lengthAdjust="spacing" textLength="85" x="751.5" y="100.0151">+Get Reservar</text><text fill="#000000" font-family="sans-serif" font-size="11" lengthAdjust="spacing" textLength="87" x="751.5" y="112.8198">+Post Reservar</text><text fill="#000000" font-family="sans-serif" font-size="11" lengthAdjust="spacing" textLength="66" x="751.5" y="125.6245">+Get Index</text><text fill="#000000" font-family="sans-serif" font-size="11" lengthAdjust="spacing" textLength="92" x="751.5" y="138.4292">+Get SubAlugar</text><text fill="#000000" font-family="sans-serif" font-size="11" lengthAdjust="spacing" textLength="94" x="751.5" y="151.2339">+Post SubAlugar</text><text fill="#000000" font-family="sans-serif" font-size="11" lengthAdjust="spacing" textLength="84" x="751.5" y="164.0386">+Get Cancelar</text><text fill="#000000" font-family="sans-serif" font-size="11" lengthAdjust="spacing" textLength="103" x="751.5" y="176.8433">+Delete Cancelar</text><text fill="#000000" font-family="sans-serif" font-size="11" lengthAdjust="spacing" textLength="86" x="751.5" y="189.6479">+Get Detalhes</text><line style="stroke:#A80036;stroke-width:1.5;" x1="746.5" x2="891.5" y1="196.2422" y2="196.2422"/><!--MD5=[1b1c26a227c88e92a815abdd8c06f597]
class SubAlugueresController--><rect codeLine="49" fill="#FEFECE" filter="url(#f1f5sgj1anka99)" height="99.2188" id="SubAlugueresController" style="stroke:#A80036;stroke-width:1.5;" width="175" x="535.5" y="73"/><ellipse cx="550.5" cy="89" fill="#ADD1B2" rx="11" ry="11" style="stroke:#A80036;stroke-width:1.0;"/><path d="M552.8438,84.6719 C551.9063,84.2344 551.3125,84.0938 550.4375,84.0938 C547.8125,84.0938 545.8125,86.1719 545.8125,88.8906 L545.8125,90.0156 C545.8125,92.5938 547.9219,94.4844 550.8125,94.4844 C552.0313,94.4844 553.1875,94.1875 553.9375,93.6406 C554.5156,93.2344 554.8438,92.7813 554.8438,92.3906 C554.8438,91.9375 554.4531,91.5469 553.9844,91.5469 C553.7656,91.5469 553.5625,91.625 553.375,91.8125 C552.9219,92.2969 552.9219,92.2969 552.7344,92.3906 C552.3125,92.6563 551.625,92.7813 550.8594,92.7813 C548.8125,92.7813 547.5156,91.6875 547.5156,89.9844 L547.5156,88.8906 C547.5156,87.1094 548.7656,85.7969 550.5,85.7969 C551.0781,85.7969 551.6875,85.9531 552.1563,86.2031 C552.6406,86.4844 552.8125,86.7031 552.9063,87.1094 C552.9688,87.5156 553,87.6406 553.1406,87.7656 C553.2813,87.9063 553.5156,88.0156 553.7344,88.0156 C554,88.0156 554.2656,87.875 554.4375,87.6563 C554.5469,87.5 554.5781,87.3125 554.5781,86.8906 L554.5781,85.4688 C554.5781,85.0313 554.5625,84.9063 554.4688,84.75 C554.3125,84.4844 554.0313,84.3438 553.7344,84.3438 C553.4375,84.3438 553.2344,84.4375 553.0156,84.75 L552.8438,84.6719 Z " fill="#000000"/><text fill="#000000" font-family="sans-serif" font-size="12" lengthAdjust="spacing" textLength="143" x="564.5" y="93.1543">SubAlugueresController</text><line style="stroke:#A80036;stroke-width:1.5;" x1="536.5" x2="709.5" y1="105" y2="105"/><text fill="#000000" font-family="sans-serif" font-size="11" lengthAdjust="spacing" textLength="66" x="541.5" y="119.2104">+Get Index</text><text fill="#000000" font-family="sans-serif" font-size="11" lengthAdjust="spacing" textLength="84" x="541.5" y="132.0151">+Get Cancelar</text><text fill="#000000" font-family="sans-serif" font-size="11" lengthAdjust="spacing" textLength="103" x="541.5" y="144.8198">+Delete Cancelar</text><text fill="#000000" font-family="sans-serif" font-size="11" lengthAdjust="spacing" textLength="86" x="541.5" y="157.6245">+Get Detalhes</text><line style="stroke:#A80036;stroke-width:1.5;" x1="536.5" x2="709.5" y1="164.2188" y2="164.2188"/><!--MD5=[5497ff8c96f50abd293e35e15183e187]
class TransacoesController--><rect codeLine="56" fill="#FEFECE" filter="url(#f1f5sgj1anka99)" height="60.8047" id="TransacoesController" style="stroke:#A80036;stroke-width:1.5;" width="161" x="339.5" y="92"/><ellipse cx="354.5" cy="108" fill="#ADD1B2" rx="11" ry="11" style="stroke:#A80036;stroke-width:1.0;"/><path d="M356.8438,103.6719 C355.9063,103.2344 355.3125,103.0938 354.4375,103.0938 C351.8125,103.0938 349.8125,105.1719 349.8125,107.8906 L349.8125,109.0156 C349.8125,111.5938 351.9219,113.4844 354.8125,113.4844 C356.0313,113.4844 357.1875,113.1875 357.9375,112.6406 C358.5156,112.2344 358.8438,111.7813 358.8438,111.3906 C358.8438,110.9375 358.4531,110.5469 357.9844,110.5469 C357.7656,110.5469 357.5625,110.625 357.375,110.8125 C356.9219,111.2969 356.9219,111.2969 356.7344,111.3906 C356.3125,111.6563 355.625,111.7813 354.8594,111.7813 C352.8125,111.7813 351.5156,110.6875 351.5156,108.9844 L351.5156,107.8906 C351.5156,106.1094 352.7656,104.7969 354.5,104.7969 C355.0781,104.7969 355.6875,104.9531 356.1563,105.2031 C356.6406,105.4844 356.8125,105.7031 356.9063,106.1094 C356.9688,106.5156 357,106.6406 357.1406,106.7656 C357.2813,106.9063 357.5156,107.0156 357.7344,107.0156 C358,107.0156 358.2656,106.875 358.4375,106.6563 C358.5469,106.5 358.5781,106.3125 358.5781,105.8906 L358.5781,104.4688 C358.5781,104.0313 358.5625,103.9063 358.4688,103.75 C358.3125,103.4844 358.0313,103.3438 357.7344,103.3438 C357.4375,103.3438 357.2344,103.4375 357.0156,103.75 L356.8438,103.6719 Z " fill="#000000"/><text fill="#000000" font-family="sans-serif" font-size="12" lengthAdjust="spacing" textLength="129" x="368.5" y="112.1543">TransacoesController</text><line style="stroke:#A80036;stroke-width:1.5;" x1="340.5" x2="499.5" y1="124" y2="124"/><text fill="#000000" font-family="sans-serif" font-size="11" lengthAdjust="spacing" textLength="66" x="345.5" y="138.2104">+Get Index</text><line style="stroke:#A80036;stroke-width:1.5;" x1="340.5" x2="499.5" y1="144.8047" y2="144.8047"/><!--MD5=[665addfbb0fb0f6ca784a10b7f9f89cf]
class CarteiraController--><rect codeLine="60" fill="#FEFECE" filter="url(#f1f5sgj1anka99)" height="73.6094" id="CarteiraController" style="stroke:#A80036;stroke-width:1.5;" width="138" x="166" y="85.5"/><ellipse cx="181" cy="101.5" fill="#ADD1B2" rx="11" ry="11" style="stroke:#A80036;stroke-width:1.0;"/><path d="M183.3438,97.1719 C182.4063,96.7344 181.8125,96.5938 180.9375,96.5938 C178.3125,96.5938 176.3125,98.6719 176.3125,101.3906 L176.3125,102.5156 C176.3125,105.0938 178.4219,106.9844 181.3125,106.9844 C182.5313,106.9844 183.6875,106.6875 184.4375,106.1406 C185.0156,105.7344 185.3438,105.2813 185.3438,104.8906 C185.3438,104.4375 184.9531,104.0469 184.4844,104.0469 C184.2656,104.0469 184.0625,104.125 183.875,104.3125 C183.4219,104.7969 183.4219,104.7969 183.2344,104.8906 C182.8125,105.1563 182.125,105.2813 181.3594,105.2813 C179.3125,105.2813 178.0156,104.1875 178.0156,102.4844 L178.0156,101.3906 C178.0156,99.6094 179.2656,98.2969 181,98.2969 C181.5781,98.2969 182.1875,98.4531 182.6563,98.7031 C183.1406,98.9844 183.3125,99.2031 183.4063,99.6094 C183.4688,100.0156 183.5,100.1406 183.6406,100.2656 C183.7813,100.4063 184.0156,100.5156 184.2344,100.5156 C184.5,100.5156 184.7656,100.375 184.9375,100.1563 C185.0469,100 185.0781,99.8125 185.0781,99.3906 L185.0781,97.9688 C185.0781,97.5313 185.0625,97.4063 184.9688,97.25 C184.8125,96.9844 184.5313,96.8438 184.2344,96.8438 C183.9375,96.8438 183.7344,96.9375 183.5156,97.25 L183.3438,97.1719 Z " fill="#000000"/><text fill="#000000" font-family="sans-serif" font-size="12" lengthAdjust="spacing" textLength="106" x="195" y="105.6543">CarteiraController</text><line style="stroke:#A80036;stroke-width:1.5;" x1="167" x2="303" y1="117.5" y2="117.5"/><text fill="#000000" font-family="sans-serif" font-size="11" lengthAdjust="spacing" textLength="89" x="172" y="131.7104">+Get Depositar</text><text fill="#000000" font-family="sans-serif" font-size="11" lengthAdjust="spacing" textLength="91" x="172" y="144.5151">+Post Depositar</text><line style="stroke:#A80036;stroke-width:1.5;" x1="167" x2="303" y1="151.1094" y2="151.1094"/><!--MD5=[6ba8f7c8b21b231e36ca04649652f184]
class Utilizador:IdentityUser--><rect codeLine="69" fill="#FEFECE" filter="url(#f1f5sgj1anka99)" height="86.4141" id="Utilizador:IdentityUser" style="stroke:#A80036;stroke-width:1.5;" width="166" x="949" y="79.5"/><ellipse cx="964" cy="95.5" fill="#ADD1B2" rx="11" ry="11" style="stroke:#A80036;stroke-width:1.0;"/><path d="M966.3438,91.1719 C965.4063,90.7344 964.8125,90.5938 963.9375,90.5938 C961.3125,90.5938 959.3125,92.6719 959.3125,95.3906 L959.3125,96.5156 C959.3125,99.0938 961.4219,100.9844 964.3125,100.9844 C965.5313,100.9844 966.6875,100.6875 967.4375,100.1406 C968.0156,99.7344 968.3438,99.2813 968.3438,98.8906 C968.3438,98.4375 967.9531,98.0469 967.4844,98.0469 C967.2656,98.0469 967.0625,98.125 966.875,98.3125 C966.4219,98.7969 966.4219,98.7969 966.2344,98.8906 C965.8125,99.1563 965.125,99.2813 964.3594,99.2813 C962.3125,99.2813 961.0156,98.1875 961.0156,96.4844 L961.0156,95.3906 C961.0156,93.6094 962.2656,92.2969 964,92.2969 C964.5781,92.2969 965.1875,92.4531 965.6563,92.7031 C966.1406,92.9844 966.3125,93.2031 966.4063,93.6094 C966.4688,94.0156 966.5,94.1406 966.6406,94.2656 C966.7813,94.4063 967.0156,94.5156 967.2344,94.5156 C967.5,94.5156 967.7656,94.375 967.9375,94.1563 C968.0469,94 968.0781,93.8125 968.0781,93.3906 L968.0781,91.9688 C968.0781,91.5313 968.0625,91.4063 967.9688,91.25 C967.8125,90.9844 967.5313,90.8438 967.2344,90.8438 C966.9375,90.8438 966.7344,90.9375 966.5156,91.25 L966.3438,91.1719 Z " fill="#000000"/><text fill="#000000" font-family="sans-serif" font-size="12" lengthAdjust="spacing" textLength="134" x="978" y="99.6543">Utilizador:IdentityUser</text><line style="stroke:#A80036;stroke-width:1.5;" x1="950" x2="1114" y1="111.5" y2="111.5"/><text fill="#000000" font-family="sans-serif" font-size="11" lengthAdjust="spacing" textLength="74" x="955" y="125.7104">-String nome</text><text fill="#000000" font-family="sans-serif" font-size="11" lengthAdjust="spacing" textLength="92" x="955" y="138.5151">-Double carteira</text><text fill="#000000" font-family="sans-serif" font-size="11" lengthAdjust="spacing" textLength="108" x="955" y="151.3198">-Int credencialId FK</text><line style="stroke:#A80036;stroke-width:1.5;" x1="950" x2="1114" y1="157.9141" y2="157.9141"/><!--MD5=[d9f04b1f46a3b028b0f117e685ac8726]
class SignInManager<Utilizador>--><rect codeLine="79" fill="#FEFECE" filter="url(#f1f5sgj1anka99)" height="48" id="SignInManager&lt;Utilizador&gt;" style="stroke:#A80036;stroke-width:1.5;" width="197" x="1396.5" y="98.5"/><ellipse cx="1411.5" cy="114.5" fill="#ADD1B2" rx="11" ry="11" style="stroke:#A80036;stroke-width:1.0;"/><path d="M1413.8438,110.1719 C1412.9063,109.7344 1412.3125,109.5938 1411.4375,109.5938 C1408.8125,109.5938 1406.8125,111.6719 1406.8125,114.3906 L1406.8125,115.5156 C1406.8125,118.0938 1408.9219,119.9844 1411.8125,119.9844 C1413.0313,119.9844 1414.1875,119.6875 1414.9375,119.1406 C1415.5156,118.7344 1415.8438,118.2813 1415.8438,117.8906 C1415.8438,117.4375 1415.4531,117.0469 1414.9844,117.0469 C1414.7656,117.0469 1414.5625,117.125 1414.375,117.3125 C1413.9219,117.7969 1413.9219,117.7969 1413.7344,117.8906 C1413.3125,118.1563 1412.625,118.2813 1411.8594,118.2813 C1409.8125,118.2813 1408.5156,117.1875 1408.5156,115.4844 L1408.5156,114.3906 C1408.5156,112.6094 1409.7656,111.2969 1411.5,111.2969 C1412.0781,111.2969 1412.6875,111.4531 1413.1563,111.7031 C1413.6406,111.9844 1413.8125,112.2031 1413.9063,112.6094 C1413.9688,113.0156 1414,113.1406 1414.1406,113.2656 C1414.2813,113.4063 1414.5156,113.5156 1414.7344,113.5156 C1415,113.5156 1415.2656,113.375 1415.4375,113.1563 C1415.5469,113 1415.5781,112.8125 1415.5781,112.3906 L1415.5781,110.9688 C1415.5781,110.5313 1415.5625,110.4063 1415.4688,110.25 C1415.3125,109.9844 1415.0313,109.8438 1414.7344,109.8438 C1414.4375,109.8438 1414.2344,109.9375 1414.0156,110.25 L1413.8438,110.1719 Z " fill="#000000"/><text fill="#000000" font-family="sans-serif" font-size="12" lengthAdjust="spacing" textLength="165" x="1425.5" y="118.6543">SignInManager&lt;Utilizador&gt;</text><line style="stroke:#A80036;stroke-width:1.5;" x1="1397.5" x2="1592.5" y1="130.5" y2="130.5"/><line style="stroke:#A80036;stroke-width:1.5;" x1="1397.5" x2="1592.5" y1="138.5" y2="138.5"/><!--MD5=[d9b5d2d92bdf16fd3c7fcf1f031f0948]
class UserManager<Utilizador>--><rect codeLine="81" fill="#FEFECE" filter="url(#f1f5sgj1anka99)" height="48" id="UserManager&lt;Utilizador&gt;" style="stroke:#A80036;stroke-width:1.5;" width="190" x="1171" y="98.5"/><ellipse cx="1186" cy="114.5" fill="#ADD1B2" rx="11" ry="11" style="stroke:#A80036;stroke-width:1.0;"/><path d="M1188.3438,110.1719 C1187.4063,109.7344 1186.8125,109.5938 1185.9375,109.5938 C1183.3125,109.5938 1181.3125,111.6719 1181.3125,114.3906 L1181.3125,115.5156 C1181.3125,118.0938 1183.4219,119.9844 1186.3125,119.9844 C1187.5313,119.9844 1188.6875,119.6875 1189.4375,119.1406 C1190.0156,118.7344 1190.3438,118.2813 1190.3438,117.8906 C1190.3438,117.4375 1189.9531,117.0469 1189.4844,117.0469 C1189.2656,117.0469 1189.0625,117.125 1188.875,117.3125 C1188.4219,117.7969 1188.4219,117.7969 1188.2344,117.8906 C1187.8125,118.1563 1187.125,118.2813 1186.3594,118.2813 C1184.3125,118.2813 1183.0156,117.1875 1183.0156,115.4844 L1183.0156,114.3906 C1183.0156,112.6094 1184.2656,111.2969 1186,111.2969 C1186.5781,111.2969 1187.1875,111.4531 1187.6563,111.7031 C1188.1406,111.9844 1188.3125,112.2031 1188.4063,112.6094 C1188.4688,113.0156 1188.5,113.1406 1188.6406,113.2656 C1188.7813,113.4063 1189.0156,113.5156 1189.2344,113.5156 C1189.5,113.5156 1189.7656,113.375 1189.9375,113.1563 C1190.0469,113 1190.0781,112.8125 1190.0781,112.3906 L1190.0781,110.9688 C1190.0781,110.5313 1190.0625,110.4063 1189.9688,110.25 C1189.8125,109.9844 1189.5313,109.8438 1189.2344,109.8438 C1188.9375,109.8438 1188.7344,109.9375 1188.5156,110.25 L1188.3438,110.1719 Z " fill="#000000"/><text fill="#000000" font-family="sans-serif" font-size="12" lengthAdjust="spacing" textLength="158" x="1200" y="118.6543">UserManager&lt;Utilizador&gt;</text><line style="stroke:#A80036;stroke-width:1.5;" x1="1172" x2="1360" y1="130.5" y2="130.5"/><line style="stroke:#A80036;stroke-width:1.5;" x1="1172" x2="1360" y1="138.5" y2="138.5"/><!--MD5=[ac9a3168098d85c9d80483f22756b263]
link ReservasController to IReservaService--><path codeLine="85" d="M882.242,204.133 C902.048,229.386 922.583,255.568 937.423,274.49 " fill="none" id="ReservasController-to-IReservaService" style="stroke:#A80036;stroke-width:1.0;"/><polygon fill="#A80036" points="940.69,278.655,938.2832,269.1048,937.6043,274.7207,931.9883,274.0419,940.69,278.655" style="stroke:#A80036;stroke-width:1.0;"/><!--MD5=[4a64f99632d79c5467be1c34143ebd44]
link ReservasController to ISubAluguerService--><path codeLine="86" d="M772.924,204.133 C758.615,229.174 743.784,255.128 732.994,274.011 " fill="none" id="ReservasController-to-ISubAluguerService" style="stroke:#A80036;stroke-width:1.0;"/><polygon fill="#A80036" points="730.34,278.655,738.2788,272.8262,732.8212,274.314,731.3333,268.8564,730.34,278.655" style="stroke:#A80036;stroke-width:1.0;"/><!--MD5=[7c99a47c7e78c8a67889a3dd0c6819e4]
link SubAlugueresController to ISubAluguerService--><path codeLine="87" d="M648.686,172.276 C665.952,205.062 688.086,247.094 702.404,274.282 " fill="none" id="SubAlugueresController-to-ISubAluguerService" style="stroke:#A80036;stroke-width:1.0;"/><polygon fill="#A80036" points="704.808,278.847,704.1535,269.0199,702.4781,274.423,697.0751,272.7477,704.808,278.847" style="stroke:#A80036;stroke-width:1.0;"/><!--MD5=[1a76673b4b27f65789f57e35818b74fd]
link TransacoesController to ITransacaoService--><path codeLine="88" d="M420,153.377 C420,186.915 420,240.923 420,273.772 " fill="none" id="TransacoesController-to-ITransacaoService" style="stroke:#A80036;stroke-width:1.0;"/><polygon fill="#A80036" points="420,278.856,424,269.856,420,273.856,416,269.856,420,278.856" style="stroke:#A80036;stroke-width:1.0;"/><!--MD5=[f980b60c02fb965b292e0d71a37ca242]
link CarteiraController to ICarteiraService--><path codeLine="89" d="M225.894,159.622 C217.396,193.327 204.893,242.926 197.108,273.803 " fill="none" id="CarteiraController-to-ICarteiraService" style="stroke:#A80036;stroke-width:1.0;"/><polygon fill="#A80036" points="195.807,278.967,201.8865,271.2185,197.0298,274.1188,194.1294,269.2621,195.807,278.967" style="stroke:#A80036;stroke-width:1.0;"/><!--MD5=[2f3f0bc00cde43b1651e43f16a1a584e]
link IReservaService to ReservaService:IReservaService--><path codeLine="91" d="M970.549,327.098 C978.082,342.165 988.287,362.575 998.007,382.014 " fill="none" id="IReservaService-to-ReservaService:IReservaService" style="stroke:#A80036;stroke-width:1.0;stroke-dasharray:7.0,7.0;"/><polygon fill="#A80036" points="1000.47,386.931,1000.0215,377.0924,998.2334,382.4591,992.8666,380.671,1000.47,386.931" style="stroke:#A80036;stroke-width:1.0;"/><!--MD5=[f1700a94a033203a666dec1a7ab5f418]
link ISubAluguerService to SubAluguerService:ISubAluguerService--><path codeLine="92" d="M717,327.098 C717,343.791 717,367.044 717,388.268 " fill="none" id="ISubAluguerService-to-SubAluguerService:ISubAluguerService" style="stroke:#A80036;stroke-width:1.0;stroke-dasharray:7.0,7.0;"/><polygon fill="#A80036" points="717,393.329,721,384.329,717,388.329,713,384.329,717,393.329" style="stroke:#A80036;stroke-width:1.0;"/><!--MD5=[72c9fa80380726c9134b96e5c6918908]
link ITransacaoService to TransacaoService:ITransacaoService--><path codeLine="93" d="M420,327.098 C420,348.875 420,381.815 420,406.851 " fill="none" id="ITransacaoService-to-TransacaoService:ITransacaoService" style="stroke:#A80036;stroke-width:1.0;stroke-dasharray:7.0,7.0;"/><polygon fill="#A80036" points="420,412.067,424,403.067,420,407.067,416,403.067,420,412.067" style="stroke:#A80036;stroke-width:1.0;"/><!--MD5=[6619a0dd13b2f3552119beb35b78bc4b]
link ICarteiraService to CarteiraService:ICarteiraService--><path codeLine="94" d="M182.468,327.098 C175.928,347.156 166.299,376.683 158.44,400.783 " fill="none" id="ICarteiraService-to-CarteiraService:ICarteiraService" style="stroke:#A80036;stroke-width:1.0;stroke-dasharray:7.0,7.0;"/><polygon fill="#A80036" points="156.792,405.838,163.3847,398.5211,158.3418,401.0843,155.7787,396.0414,156.792,405.838" style="stroke:#A80036;stroke-width:1.0;"/><!--MD5=[90d89e420486794a8b5589a3dd2379d4]
@startuml
skinparam classAttributeIconSize 0

package Services <<Folder>> {

class ReservaService:IReservaService {
  - GetDisponibilidade(nomeFreguesia, inicio, fim)
  - PostReserva(reserva)
  - GetAllReservasByNif(nif)
  - DeleteReserva(id)
  - GetReservaById(id)
}
interface IReservaService {}

class SubAluguerService:ISubAluguerService {
  - GetAllSubAlugueresByNif(nif)
  - PostSubAluguer(subAluguer)
  - DeleteSubAluguer(id)
  - GetSubAluguerById(id)
}
interface ISubAluguerService {}

class TransacaoService:ITransacaoService {
  - GetAllTransacoesByNif(nif)
}
interface ITransacaoService {}

class CarteiraService:ICarteiraService {
  - GetSaldoByNif(nif)
  - UpdateSaldoByNif(nif, valor)
}
interface ICarteiraService {}

}

package Controllers <<Folder>> {

class ReservasController {
  +Get Disponibilidade
  +Get Reservar
  +Post Reservar
  +Get Index
  +Get SubAlugar
  +Post SubAlugar
  +Get Cancelar
  +Delete Cancelar
  +Get Detalhes
}

class SubAlugueresController {
  +Get Index
  +Get Cancelar
  +Delete Cancelar
  +Get Detalhes
}

class TransacoesController {
  +Get Index
}

class CarteiraController {
  +Get Depositar
  +Post Depositar
}

}

package Models <<Folder>> {

class Utilizador:IdentityUser{
  -String nome
  -Double carteira
  -Int credencialId FK
}

}

package Identity <<Folder>> {

class "SignInManager<Utilizador>" {}

class "UserManager<Utilizador>" {}

}

ReservasController - -> "IReservaService"
ReservasController - -> "ISubAluguerService"
SubAlugueresController - -> "ISubAluguerService"
TransacoesController - -> "ITransacaoService"
CarteiraController - -> "ICarteiraService"

"IReservaService" ..> "ReservaService:IReservaService"
"ISubAluguerService" ..> "SubAluguerService:ISubAluguerService"
"ITransacaoService" ..> "TransacaoService:ITransacaoService"
"ICarteiraService" ..> "CarteiraService:ICarteiraService"
@enduml

PlantUML version 1.2021.2beta9(Unknown compile time)
(GPL source distribution)
Java Runtime: Java(TM) SE Runtime Environment
JVM: Java HotSpot(TM) 64-Bit Server VM
Default Encoding: UTF-8
Language: en
Country: US
--></g></svg>