<?xml version="1.0" encoding="UTF-8" standalone="no"?><svg xmlns="http://www.w3.org/2000/svg" xmlns:xlink="http://www.w3.org/1999/xlink" contentScriptType="application/ecmascript" contentStyleType="text/css" height="1256px" preserveAspectRatio="none" style="width:2569px;height:1256px;" version="1.1" viewBox="0 0 2569 1256" width="2569px" zoomAndPan="magnify"><defs><filter height="300%" id="f17xwerkp9we9j" width="300%" x="-1" y="-1"><feGaussianBlur result="blurOut" stdDeviation="2.0"/><feColorMatrix in="blurOut" result="blurOut2" type="matrix" values="0 0 0 0 0 0 0 0 0 0 0 0 0 0 0 0 0 0 .4 0"/><feOffset dx="4.0" dy="4.0" in="blurOut2" result="blurOut3"/><feBlend in="SourceGraphic" in2="blurOut3" mode="normal"/></filter></defs><g><!--MD5=[cdfd548b3455e70392372b1f27091970]
cluster Services--><polygon fill="#FFFFFF" filter="url(#f17xwerkp9we9j)" points="795,569,868,569,875,591.2969,1986,591.2969,1986,961.5,795,961.5,795,569" style="stroke:#000000;stroke-width:1.5;"/><line style="stroke:#000000;stroke-width:1.5;" x1="795" x2="875" y1="591.2969" y2="591.2969"/><text fill="#000000" font-family="sans-serif" font-size="14" font-weight="bold" lengthAdjust="spacing" textLength="67" x="799" y="583.9951">Services</text><!--MD5=[ed1d20ea533a2a0e7df5ba3c35e56ced]
cluster Controllers--><polygon fill="#FFFFFF" filter="url(#f17xwerkp9we9j)" points="934,153.5,1030,153.5,1037,175.7969,2073,175.7969,2073,367.5,934,367.5,934,153.5" style="stroke:#000000;stroke-width:1.5;"/><line style="stroke:#000000;stroke-width:1.5;" x1="934" x2="1037" y1="175.7969" y2="175.7969"/><text fill="#000000" font-family="sans-serif" font-size="14" font-weight="bold" lengthAdjust="spacing" textLength="90" x="938" y="168.4951">Controllers</text><!--MD5=[027ebfd53c01aea08f474edbf35d0797]
cluster Models--><polygon fill="#FFFFFF" filter="url(#f17xwerkp9we9j)" points="16,6,79,6,86,28.2969,771,28.2969,771,1249,16,1249,16,6" style="stroke:#000000;stroke-width:1.5;"/><line style="stroke:#000000;stroke-width:1.5;" x1="16" x2="86" y1="28.2969" y2="28.2969"/><text fill="#000000" font-family="sans-serif" font-size="14" font-weight="bold" lengthAdjust="spacing" textLength="57" x="20" y="20.9951">Models</text><!--MD5=[1447cef49520ca2f928eb42d06eb682a]
cluster Identity--><polygon fill="#FFFFFF" filter="url(#f17xwerkp9we9j)" points="2097,211,2167,211,2174,233.2969,2552,233.2969,2552,310,2097,310,2097,211" style="stroke:#000000;stroke-width:1.5;"/><line style="stroke:#000000;stroke-width:1.5;" x1="2097" x2="2174" y1="233.2969" y2="233.2969"/><text fill="#000000" font-family="sans-serif" font-size="14" font-weight="bold" lengthAdjust="spacing" textLength="64" x="2101" y="225.9951">Identity</text><!--MD5=[01498327e5f84ff3503863380b2b4dc7]
class ReservaService:IReservaService--><rect codeLine="5" fill="#FEFECE" filter="url(#f17xwerkp9we9j)" height="112.0234" id="ReservaService:IReservaService" style="stroke:#A80036;stroke-width:1.5;" width="284" x="1686" y="604"/><ellipse cx="1725.75" cy="620" fill="#ADD1B2" rx="11" ry="11" style="stroke:#A80036;stroke-width:1.0;"/><path d="M1728.0938,615.6719 C1727.1563,615.2344 1726.5625,615.0938 1725.6875,615.0938 C1723.0625,615.0938 1721.0625,617.1719 1721.0625,619.8906 L1721.0625,621.0156 C1721.0625,623.5938 1723.1719,625.4844 1726.0625,625.4844 C1727.2813,625.4844 1728.4375,625.1875 1729.1875,624.6406 C1729.7656,624.2344 1730.0938,623.7813 1730.0938,623.3906 C1730.0938,622.9375 1729.7031,622.5469 1729.2344,622.5469 C1729.0156,622.5469 1728.8125,622.625 1728.625,622.8125 C1728.1719,623.2969 1728.1719,623.2969 1727.9844,623.3906 C1727.5625,623.6563 1726.875,623.7813 1726.1094,623.7813 C1724.0625,623.7813 1722.7656,622.6875 1722.7656,620.9844 L1722.7656,619.8906 C1722.7656,618.1094 1724.0156,616.7969 1725.75,616.7969 C1726.3281,616.7969 1726.9375,616.9531 1727.4063,617.2031 C1727.8906,617.4844 1728.0625,617.7031 1728.1563,618.1094 C1728.2188,618.5156 1728.25,618.6406 1728.3906,618.7656 C1728.5313,618.9063 1728.7656,619.0156 1728.9844,619.0156 C1729.25,619.0156 1729.5156,618.875 1729.6875,618.6563 C1729.7969,618.5 1729.8281,618.3125 1729.8281,617.8906 L1729.8281,616.4688 C1729.8281,616.0313 1729.8125,615.9063 1729.7188,615.75 C1729.5625,615.4844 1729.2813,615.3438 1728.9844,615.3438 C1728.6875,615.3438 1728.4844,615.4375 1728.2656,615.75 L1728.0938,615.6719 Z " fill="#000000"/><text fill="#000000" font-family="sans-serif" font-size="12" lengthAdjust="spacing" textLength="197" x="1745.25" y="624.1543">ReservaService:IReservaService</text><line style="stroke:#A80036;stroke-width:1.5;" x1="1687" x2="1969" y1="636" y2="636"/><line style="stroke:#A80036;stroke-width:1.5;" x1="1687" x2="1969" y1="644" y2="644"/><text fill="#000000" font-family="sans-serif" font-size="11" lengthAdjust="spacing" textLength="272" x="1692" y="658.2104">-FindAvailableAsync(nomeFreguesia, inicio, fim)</text><text fill="#000000" font-family="sans-serif" font-size="11" lengthAdjust="spacing" textLength="138" x="1692" y="671.0151">-PostAsync(reservaDTO)</text><text fill="#000000" font-family="sans-serif" font-size="11" lengthAdjust="spacing" textLength="97" x="1692" y="683.8198">-GetByNifAsync()</text><text fill="#000000" font-family="sans-serif" font-size="11" lengthAdjust="spacing" textLength="96" x="1692" y="696.6245">-DeleteAsync(id)</text><text fill="#000000" font-family="sans-serif" font-size="11" lengthAdjust="spacing" textLength="102" x="1692" y="709.4292">-GetByIdAsync(id)</text><!--MD5=[1656d5d80f092ff232ee2f948655e0af]
class SubAluguerService:ISubAluguerService--><rect codeLine="13" fill="#FEFECE" filter="url(#f17xwerkp9we9j)" height="99.2188" id="SubAluguerService:ISubAluguerService" style="stroke:#A80036;stroke-width:1.5;" width="269" x="1381.5" y="610.5"/><ellipse cx="1396.5" cy="626.5" fill="#ADD1B2" rx="11" ry="11" style="stroke:#A80036;stroke-width:1.0;"/><path d="M1398.8438,622.1719 C1397.9063,621.7344 1397.3125,621.5938 1396.4375,621.5938 C1393.8125,621.5938 1391.8125,623.6719 1391.8125,626.3906 L1391.8125,627.5156 C1391.8125,630.0938 1393.9219,631.9844 1396.8125,631.9844 C1398.0313,631.9844 1399.1875,631.6875 1399.9375,631.1406 C1400.5156,630.7344 1400.8438,630.2813 1400.8438,629.8906 C1400.8438,629.4375 1400.4531,629.0469 1399.9844,629.0469 C1399.7656,629.0469 1399.5625,629.125 1399.375,629.3125 C1398.9219,629.7969 1398.9219,629.7969 1398.7344,629.8906 C1398.3125,630.1563 1397.625,630.2813 1396.8594,630.2813 C1394.8125,630.2813 1393.5156,629.1875 1393.5156,627.4844 L1393.5156,626.3906 C1393.5156,624.6094 1394.7656,623.2969 1396.5,623.2969 C1397.0781,623.2969 1397.6875,623.4531 1398.1563,623.7031 C1398.6406,623.9844 1398.8125,624.2031 1398.9063,624.6094 C1398.9688,625.0156 1399,625.1406 1399.1406,625.2656 C1399.2813,625.4063 1399.5156,625.5156 1399.7344,625.5156 C1400,625.5156 1400.2656,625.375 1400.4375,625.1563 C1400.5469,625 1400.5781,624.8125 1400.5781,624.3906 L1400.5781,622.9688 C1400.5781,622.5313 1400.5625,622.4063 1400.4688,622.25 C1400.3125,621.9844 1400.0313,621.8438 1399.7344,621.8438 C1399.4375,621.8438 1399.2344,621.9375 1399.0156,622.25 L1398.8438,622.1719 Z " fill="#000000"/><text fill="#000000" font-family="sans-serif" font-size="12" lengthAdjust="spacing" textLength="237" x="1410.5" y="630.6543">SubAluguerService:ISubAluguerService</text><line style="stroke:#A80036;stroke-width:1.5;" x1="1382.5" x2="1649.5" y1="642.5" y2="642.5"/><line style="stroke:#A80036;stroke-width:1.5;" x1="1382.5" x2="1649.5" y1="650.5" y2="650.5"/><text fill="#000000" font-family="sans-serif" font-size="11" lengthAdjust="spacing" textLength="143" x="1387.5" y="664.7104">-GetAllSubAluguerByNif()</text><text fill="#000000" font-family="sans-serif" font-size="11" lengthAdjust="spacing" textLength="224" x="1387.5" y="677.5151">-PostSubAluguerAsync(subAluguerDTO)</text><text fill="#000000" font-family="sans-serif" font-size="11" lengthAdjust="spacing" textLength="162" x="1387.5" y="690.3198">-DeleteSubAluguerAsync(id)</text><text fill="#000000" font-family="sans-serif" font-size="11" lengthAdjust="spacing" textLength="134" x="1387.5" y="703.1245">-GetSubAluguerById(id)</text><!--MD5=[13ffafbc7aba074b8fe681438ed81bdc]
class TokenService:ITokenService--><rect codeLine="20" fill="#FEFECE" filter="url(#f17xwerkp9we9j)" height="99.2188" id="TokenService:ITokenService" style="stroke:#A80036;stroke-width:1.5;" width="271" x="1231.5" y="846.5"/><ellipse cx="1276.25" cy="862.5" fill="#ADD1B2" rx="11" ry="11" style="stroke:#A80036;stroke-width:1.0;"/><path d="M1278.5938,858.1719 C1277.6563,857.7344 1277.0625,857.5938 1276.1875,857.5938 C1273.5625,857.5938 1271.5625,859.6719 1271.5625,862.3906 L1271.5625,863.5156 C1271.5625,866.0938 1273.6719,867.9844 1276.5625,867.9844 C1277.7813,867.9844 1278.9375,867.6875 1279.6875,867.1406 C1280.2656,866.7344 1280.5938,866.2813 1280.5938,865.8906 C1280.5938,865.4375 1280.2031,865.0469 1279.7344,865.0469 C1279.5156,865.0469 1279.3125,865.125 1279.125,865.3125 C1278.6719,865.7969 1278.6719,865.7969 1278.4844,865.8906 C1278.0625,866.1563 1277.375,866.2813 1276.6094,866.2813 C1274.5625,866.2813 1273.2656,865.1875 1273.2656,863.4844 L1273.2656,862.3906 C1273.2656,860.6094 1274.5156,859.2969 1276.25,859.2969 C1276.8281,859.2969 1277.4375,859.4531 1277.9063,859.7031 C1278.3906,859.9844 1278.5625,860.2031 1278.6563,860.6094 C1278.7188,861.0156 1278.75,861.1406 1278.8906,861.2656 C1279.0313,861.4063 1279.2656,861.5156 1279.4844,861.5156 C1279.75,861.5156 1280.0156,861.375 1280.1875,861.1563 C1280.2969,861 1280.3281,860.8125 1280.3281,860.3906 L1280.3281,858.9688 C1280.3281,858.5313 1280.3125,858.4063 1280.2188,858.25 C1280.0625,857.9844 1279.7813,857.8438 1279.4844,857.8438 C1279.1875,857.8438 1278.9844,857.9375 1278.7656,858.25 L1278.5938,858.1719 Z " fill="#000000"/><text fill="#000000" font-family="sans-serif" font-size="12" lengthAdjust="spacing" textLength="173" x="1296.75" y="866.6543">TokenService:ITokenService</text><line style="stroke:#A80036;stroke-width:1.5;" x1="1232.5" x2="1501.5" y1="878.5" y2="878.5"/><line style="stroke:#A80036;stroke-width:1.5;" x1="1232.5" x2="1501.5" y1="886.5" y2="886.5"/><text fill="#000000" font-family="sans-serif" font-size="11" lengthAdjust="spacing" textLength="102" x="1237.5" y="900.7104">-GetTokenAsync()</text><text fill="#000000" font-family="sans-serif" font-size="11" lengthAdjust="spacing" textLength="109" x="1237.5" y="913.5151">-SaveToken(token)</text><text fill="#000000" font-family="sans-serif" font-size="11" lengthAdjust="spacing" textLength="259" x="1237.5" y="926.3198">-GetTokenFromLoginAsync(infoUtilizadorDTO)</text><text fill="#000000" font-family="sans-serif" font-size="11" lengthAdjust="spacing" textLength="157" x="1237.5" y="939.1245">-SaveCookie(refreshToken)</text><!--MD5=[b27beebb928fc37173f7a3042d83d489]
class TransacaoService:ITransacaoService--><rect codeLine="27" fill="#FEFECE" filter="url(#f17xwerkp9we9j)" height="60.8047" id="TransacaoService:ITransacaoService" style="stroke:#A80036;stroke-width:1.5;" width="255" x="1091.5" y="629.5"/><ellipse cx="1106.5" cy="645.5" fill="#ADD1B2" rx="11" ry="11" style="stroke:#A80036;stroke-width:1.0;"/><path d="M1108.8438,641.1719 C1107.9063,640.7344 1107.3125,640.5938 1106.4375,640.5938 C1103.8125,640.5938 1101.8125,642.6719 1101.8125,645.3906 L1101.8125,646.5156 C1101.8125,649.0938 1103.9219,650.9844 1106.8125,650.9844 C1108.0313,650.9844 1109.1875,650.6875 1109.9375,650.1406 C1110.5156,649.7344 1110.8438,649.2813 1110.8438,648.8906 C1110.8438,648.4375 1110.4531,648.0469 1109.9844,648.0469 C1109.7656,648.0469 1109.5625,648.125 1109.375,648.3125 C1108.9219,648.7969 1108.9219,648.7969 1108.7344,648.8906 C1108.3125,649.1563 1107.625,649.2813 1106.8594,649.2813 C1104.8125,649.2813 1103.5156,648.1875 1103.5156,646.4844 L1103.5156,645.3906 C1103.5156,643.6094 1104.7656,642.2969 1106.5,642.2969 C1107.0781,642.2969 1107.6875,642.4531 1108.1563,642.7031 C1108.6406,642.9844 1108.8125,643.2031 1108.9063,643.6094 C1108.9688,644.0156 1109,644.1406 1109.1406,644.2656 C1109.2813,644.4063 1109.5156,644.5156 1109.7344,644.5156 C1110,644.5156 1110.2656,644.375 1110.4375,644.1563 C1110.5469,644 1110.5781,643.8125 1110.5781,643.3906 L1110.5781,641.9688 C1110.5781,641.5313 1110.5625,641.4063 1110.4688,641.25 C1110.3125,640.9844 1110.0313,640.8438 1109.7344,640.8438 C1109.4375,640.8438 1109.2344,640.9375 1109.0156,641.25 L1108.8438,641.1719 Z " fill="#000000"/><text fill="#000000" font-family="sans-serif" font-size="12" lengthAdjust="spacing" textLength="223" x="1120.5" y="649.6543">TransacaoService:ITransacaoService</text><line style="stroke:#A80036;stroke-width:1.5;" x1="1092.5" x2="1345.5" y1="661.5" y2="661.5"/><line style="stroke:#A80036;stroke-width:1.5;" x1="1092.5" x2="1345.5" y1="669.5" y2="669.5"/><text fill="#000000" font-family="sans-serif" font-size="11" lengthAdjust="spacing" textLength="142" x="1097.5" y="683.7104">-GetAllTransacoesByNif()</text><!--MD5=[4529ee2e6a3a1db77bd65a9863312be8]
class UtilizadorService:IUtilizadorService--><rect codeLine="31" fill="#FEFECE" filter="url(#f17xwerkp9we9j)" height="73.6094" id="UtilizadorService:IUtilizadorService" style="stroke:#A80036;stroke-width:1.5;" width="245" x="811.5" y="623"/><ellipse cx="826.5" cy="639" fill="#ADD1B2" rx="11" ry="11" style="stroke:#A80036;stroke-width:1.0;"/><path d="M828.8438,634.6719 C827.9063,634.2344 827.3125,634.0938 826.4375,634.0938 C823.8125,634.0938 821.8125,636.1719 821.8125,638.8906 L821.8125,640.0156 C821.8125,642.5938 823.9219,644.4844 826.8125,644.4844 C828.0313,644.4844 829.1875,644.1875 829.9375,643.6406 C830.5156,643.2344 830.8438,642.7813 830.8438,642.3906 C830.8438,641.9375 830.4531,641.5469 829.9844,641.5469 C829.7656,641.5469 829.5625,641.625 829.375,641.8125 C828.9219,642.2969 828.9219,642.2969 828.7344,642.3906 C828.3125,642.6563 827.625,642.7813 826.8594,642.7813 C824.8125,642.7813 823.5156,641.6875 823.5156,639.9844 L823.5156,638.8906 C823.5156,637.1094 824.7656,635.7969 826.5,635.7969 C827.0781,635.7969 827.6875,635.9531 828.1563,636.2031 C828.6406,636.4844 828.8125,636.7031 828.9063,637.1094 C828.9688,637.5156 829,637.6406 829.1406,637.7656 C829.2813,637.9063 829.5156,638.0156 829.7344,638.0156 C830,638.0156 830.2656,637.875 830.4375,637.6563 C830.5469,637.5 830.5781,637.3125 830.5781,636.8906 L830.5781,635.4688 C830.5781,635.0313 830.5625,634.9063 830.4688,634.75 C830.3125,634.4844 830.0313,634.3438 829.7344,634.3438 C829.4375,634.3438 829.2344,634.4375 829.0156,634.75 L828.8438,634.6719 Z " fill="#000000"/><text fill="#000000" font-family="sans-serif" font-size="12" lengthAdjust="spacing" textLength="213" x="840.5" y="643.1543">UtilizadorService:IUtilizadorService</text><line style="stroke:#A80036;stroke-width:1.5;" x1="812.5" x2="1055.5" y1="655" y2="655"/><line style="stroke:#A80036;stroke-width:1.5;" x1="812.5" x2="1055.5" y1="663" y2="663"/><text fill="#000000" font-family="sans-serif" font-size="11" lengthAdjust="spacing" textLength="99" x="817.5" y="677.2104">-GetSaldoAsync()</text><text fill="#000000" font-family="sans-serif" font-size="11" lengthAdjust="spacing" textLength="211" x="817.5" y="690.0151">-DepositarSaldoAsync(depositarDTO)</text><!--MD5=[3f908ccd3a2056432adfb9e2b53696ab]
class HomeController--><rect codeLine="40" fill="#FEFECE" filter="url(#f17xwerkp9we9j)" height="86.4141" id="HomeController" style="stroke:#A80036;stroke-width:1.5;" width="182" x="1875" y="227"/><ellipse cx="1914.75" cy="243" fill="#ADD1B2" rx="11" ry="11" style="stroke:#A80036;stroke-width:1.0;"/><path d="M1917.0938,238.6719 C1916.1563,238.2344 1915.5625,238.0938 1914.6875,238.0938 C1912.0625,238.0938 1910.0625,240.1719 1910.0625,242.8906 L1910.0625,244.0156 C1910.0625,246.5938 1912.1719,248.4844 1915.0625,248.4844 C1916.2813,248.4844 1917.4375,248.1875 1918.1875,247.6406 C1918.7656,247.2344 1919.0938,246.7813 1919.0938,246.3906 C1919.0938,245.9375 1918.7031,245.5469 1918.2344,245.5469 C1918.0156,245.5469 1917.8125,245.625 1917.625,245.8125 C1917.1719,246.2969 1917.1719,246.2969 1916.9844,246.3906 C1916.5625,246.6563 1915.875,246.7813 1915.1094,246.7813 C1913.0625,246.7813 1911.7656,245.6875 1911.7656,243.9844 L1911.7656,242.8906 C1911.7656,241.1094 1913.0156,239.7969 1914.75,239.7969 C1915.3281,239.7969 1915.9375,239.9531 1916.4063,240.2031 C1916.8906,240.4844 1917.0625,240.7031 1917.1563,241.1094 C1917.2188,241.5156 1917.25,241.6406 1917.3906,241.7656 C1917.5313,241.9063 1917.7656,242.0156 1917.9844,242.0156 C1918.25,242.0156 1918.5156,241.875 1918.6875,241.6563 C1918.7969,241.5 1918.8281,241.3125 1918.8281,240.8906 L1918.8281,239.4688 C1918.8281,239.0313 1918.8125,238.9063 1918.7188,238.75 C1918.5625,238.4844 1918.2813,238.3438 1917.9844,238.3438 C1917.6875,238.3438 1917.4844,238.4375 1917.2656,238.75 L1917.0938,238.6719 Z " fill="#000000"/><text fill="#000000" font-family="sans-serif" font-size="12" lengthAdjust="spacing" textLength="95" x="1934.25" y="247.1543">HomeController</text><line style="stroke:#A80036;stroke-width:1.5;" x1="1876" x2="2056" y1="259" y2="259"/><line style="stroke:#A80036;stroke-width:1.5;" x1="1876" x2="2056" y1="267" y2="267"/><text fill="#000000" font-family="sans-serif" font-size="11" lengthAdjust="spacing" textLength="74" x="1881" y="281.2104">+Get Index()</text><text fill="#000000" font-family="sans-serif" font-size="11" lengthAdjust="spacing" textLength="170" x="1881" y="294.0151">+Post Pesquisa(pesquisaDTO)</text><text fill="#000000" font-family="sans-serif" font-size="11" lengthAdjust="spacing" textLength="82" x="1881" y="306.8198">+Get Privacy()</text><!--MD5=[884d341d7584b75b159fb4abcbb8e424]
class ReservasController--><rect codeLine="46" fill="#FEFECE" filter="url(#f17xwerkp9we9j)" height="163.2422" id="ReservasController" style="stroke:#A80036;stroke-width:1.5;" width="217" x="1622.5" y="188.5"/><ellipse cx="1669.25" cy="204.5" fill="#ADD1B2" rx="11" ry="11" style="stroke:#A80036;stroke-width:1.0;"/><path d="M1671.5938,200.1719 C1670.6563,199.7344 1670.0625,199.5938 1669.1875,199.5938 C1666.5625,199.5938 1664.5625,201.6719 1664.5625,204.3906 L1664.5625,205.5156 C1664.5625,208.0938 1666.6719,209.9844 1669.5625,209.9844 C1670.7813,209.9844 1671.9375,209.6875 1672.6875,209.1406 C1673.2656,208.7344 1673.5938,208.2813 1673.5938,207.8906 C1673.5938,207.4375 1673.2031,207.0469 1672.7344,207.0469 C1672.5156,207.0469 1672.3125,207.125 1672.125,207.3125 C1671.6719,207.7969 1671.6719,207.7969 1671.4844,207.8906 C1671.0625,208.1563 1670.375,208.2813 1669.6094,208.2813 C1667.5625,208.2813 1666.2656,207.1875 1666.2656,205.4844 L1666.2656,204.3906 C1666.2656,202.6094 1667.5156,201.2969 1669.25,201.2969 C1669.8281,201.2969 1670.4375,201.4531 1670.9063,201.7031 C1671.3906,201.9844 1671.5625,202.2031 1671.6563,202.6094 C1671.7188,203.0156 1671.75,203.1406 1671.8906,203.2656 C1672.0313,203.4063 1672.2656,203.5156 1672.4844,203.5156 C1672.75,203.5156 1673.0156,203.375 1673.1875,203.1563 C1673.2969,203 1673.3281,202.8125 1673.3281,202.3906 L1673.3281,200.9688 C1673.3281,200.5313 1673.3125,200.4063 1673.2188,200.25 C1673.0625,199.9844 1672.7813,199.8438 1672.4844,199.8438 C1672.1875,199.8438 1671.9844,199.9375 1671.7656,200.25 L1671.5938,200.1719 Z " fill="#000000"/><text fill="#000000" font-family="sans-serif" font-size="12" lengthAdjust="spacing" textLength="115" x="1689.75" y="208.6543">ReservasController</text><line style="stroke:#A80036;stroke-width:1.5;" x1="1623.5" x2="1838.5" y1="220.5" y2="220.5"/><line style="stroke:#A80036;stroke-width:1.5;" x1="1623.5" x2="1838.5" y1="228.5" y2="228.5"/><text fill="#000000" font-family="sans-serif" font-size="11" lengthAdjust="spacing" textLength="74" x="1628.5" y="242.7104">+Get Index()</text><text fill="#000000" font-family="sans-serif" font-size="11" lengthAdjust="spacing" textLength="205" x="1628.5" y="255.5151">+Get Disponibilidade(pesquisaDTO)</text><text fill="#000000" font-family="sans-serif" font-size="11" lengthAdjust="spacing" textLength="104" x="1628.5" y="268.3198">+Get Detalhes(id)</text><text fill="#000000" font-family="sans-serif" font-size="11" lengthAdjust="spacing" textLength="109" x="1628.5" y="281.1245">+Get Subalugar(id)</text><text fill="#000000" font-family="sans-serif" font-size="11" lengthAdjust="spacing" textLength="146" x="1628.5" y="293.9292">+Get Reservar(lugarDTO)</text><text fill="#000000" font-family="sans-serif" font-size="11" lengthAdjust="spacing" textLength="164" x="1628.5" y="306.7339">+Post Reservar(reservaDTO)</text><text fill="#000000" font-family="sans-serif" font-size="11" lengthAdjust="spacing" textLength="102" x="1628.5" y="319.5386">+Get Cancelar(id)</text><text fill="#000000" font-family="sans-serif" font-size="11" lengthAdjust="spacing" textLength="167" x="1628.5" y="332.3433">+Get CancelarConfirmado(id)</text><text fill="#000000" font-family="sans-serif" font-size="11" lengthAdjust="spacing" textLength="146" x="1628.5" y="345.1479">+Get VoltarAHomepage()</text><!--MD5=[1b1c26a227c88e92a815abdd8c06f597]
class SubAlugueresController--><rect codeLine="58" fill="#FEFECE" filter="url(#f17xwerkp9we9j)" height="137.6328" id="SubAlugueresController" style="stroke:#A80036;stroke-width:1.5;" width="216" x="1371" y="201"/><ellipse cx="1404.45" cy="217" fill="#ADD1B2" rx="11" ry="11" style="stroke:#A80036;stroke-width:1.0;"/><path d="M1406.7938,212.6719 C1405.8563,212.2344 1405.2625,212.0938 1404.3875,212.0938 C1401.7625,212.0938 1399.7625,214.1719 1399.7625,216.8906 L1399.7625,218.0156 C1399.7625,220.5938 1401.8719,222.4844 1404.7625,222.4844 C1405.9813,222.4844 1407.1375,222.1875 1407.8875,221.6406 C1408.4656,221.2344 1408.7938,220.7813 1408.7938,220.3906 C1408.7938,219.9375 1408.4031,219.5469 1407.9344,219.5469 C1407.7156,219.5469 1407.5125,219.625 1407.325,219.8125 C1406.8719,220.2969 1406.8719,220.2969 1406.6844,220.3906 C1406.2625,220.6563 1405.575,220.7813 1404.8094,220.7813 C1402.7625,220.7813 1401.4656,219.6875 1401.4656,217.9844 L1401.4656,216.8906 C1401.4656,215.1094 1402.7156,213.7969 1404.45,213.7969 C1405.0281,213.7969 1405.6375,213.9531 1406.1063,214.2031 C1406.5906,214.4844 1406.7625,214.7031 1406.8563,215.1094 C1406.9188,215.5156 1406.95,215.6406 1407.0906,215.7656 C1407.2313,215.9063 1407.4656,216.0156 1407.6844,216.0156 C1407.95,216.0156 1408.2156,215.875 1408.3875,215.6563 C1408.4969,215.5 1408.5281,215.3125 1408.5281,214.8906 L1408.5281,213.4688 C1408.5281,213.0313 1408.5125,212.9063 1408.4188,212.75 C1408.2625,212.4844 1407.9813,212.3438 1407.6844,212.3438 C1407.3875,212.3438 1407.1844,212.4375 1406.9656,212.75 L1406.7938,212.6719 Z " fill="#000000"/><text fill="#000000" font-family="sans-serif" font-size="12" lengthAdjust="spacing" textLength="143" x="1422.55" y="221.1543">SubAlugueresController</text><line style="stroke:#A80036;stroke-width:1.5;" x1="1372" x2="1586" y1="233" y2="233"/><line style="stroke:#A80036;stroke-width:1.5;" x1="1372" x2="1586" y1="241" y2="241"/><text fill="#000000" font-family="sans-serif" font-size="11" lengthAdjust="spacing" textLength="74" x="1377" y="255.2104">+Get Index()</text><text fill="#000000" font-family="sans-serif" font-size="11" lengthAdjust="spacing" textLength="104" x="1377" y="268.0151">+Get Detalhes(id)</text><text fill="#000000" font-family="sans-serif" font-size="11" lengthAdjust="spacing" textLength="204" x="1377" y="280.8198">+Get Registar(detalheReservaDTO)</text><text fill="#000000" font-family="sans-serif" font-size="11" lengthAdjust="spacing" textLength="179" x="1377" y="293.6245">+Post Registar(subAluguerDTO)</text><text fill="#000000" font-family="sans-serif" font-size="11" lengthAdjust="spacing" textLength="102" x="1377" y="306.4292">+Get Cancelar(id)</text><text fill="#000000" font-family="sans-serif" font-size="11" lengthAdjust="spacing" textLength="167" x="1377" y="319.2339">+Get CancelarConfirmado(id)</text><text fill="#000000" font-family="sans-serif" font-size="11" lengthAdjust="spacing" textLength="142" x="1377" y="332.0386">+Get VoltarAsReservas()</text><!--MD5=[5497ff8c96f50abd293e35e15183e187]
class TransacoesController--><rect codeLine="68" fill="#FEFECE" filter="url(#f17xwerkp9we9j)" height="60.8047" id="TransacoesController" style="stroke:#A80036;stroke-width:1.5;" width="161" x="1174.5" y="239.5"/><ellipse cx="1189.5" cy="255.5" fill="#ADD1B2" rx="11" ry="11" style="stroke:#A80036;stroke-width:1.0;"/><path d="M1191.8438,251.1719 C1190.9063,250.7344 1190.3125,250.5938 1189.4375,250.5938 C1186.8125,250.5938 1184.8125,252.6719 1184.8125,255.3906 L1184.8125,256.5156 C1184.8125,259.0938 1186.9219,260.9844 1189.8125,260.9844 C1191.0313,260.9844 1192.1875,260.6875 1192.9375,260.1406 C1193.5156,259.7344 1193.8438,259.2813 1193.8438,258.8906 C1193.8438,258.4375 1193.4531,258.0469 1192.9844,258.0469 C1192.7656,258.0469 1192.5625,258.125 1192.375,258.3125 C1191.9219,258.7969 1191.9219,258.7969 1191.7344,258.8906 C1191.3125,259.1563 1190.625,259.2813 1189.8594,259.2813 C1187.8125,259.2813 1186.5156,258.1875 1186.5156,256.4844 L1186.5156,255.3906 C1186.5156,253.6094 1187.7656,252.2969 1189.5,252.2969 C1190.0781,252.2969 1190.6875,252.4531 1191.1563,252.7031 C1191.6406,252.9844 1191.8125,253.2031 1191.9063,253.6094 C1191.9688,254.0156 1192,254.1406 1192.1406,254.2656 C1192.2813,254.4063 1192.5156,254.5156 1192.7344,254.5156 C1193,254.5156 1193.2656,254.375 1193.4375,254.1563 C1193.5469,254 1193.5781,253.8125 1193.5781,253.3906 L1193.5781,251.9688 C1193.5781,251.5313 1193.5625,251.4063 1193.4688,251.25 C1193.3125,250.9844 1193.0313,250.8438 1192.7344,250.8438 C1192.4375,250.8438 1192.2344,250.9375 1192.0156,251.25 L1191.8438,251.1719 Z " fill="#000000"/><text fill="#000000" font-family="sans-serif" font-size="12" lengthAdjust="spacing" textLength="129" x="1203.5" y="259.6543">TransacoesController</text><line style="stroke:#A80036;stroke-width:1.5;" x1="1175.5" x2="1334.5" y1="271.5" y2="271.5"/><line style="stroke:#A80036;stroke-width:1.5;" x1="1175.5" x2="1334.5" y1="279.5" y2="279.5"/><text fill="#000000" font-family="sans-serif" font-size="11" lengthAdjust="spacing" textLength="74" x="1180.5" y="293.7104">+Get Index()</text><!--MD5=[f9eb12be9a4c6578c6c59b6b87282445]
class UtilizadoresController--><rect codeLine="72" fill="#FEFECE" filter="url(#f17xwerkp9we9j)" height="86.4141" id="UtilizadoresController" style="stroke:#A80036;stroke-width:1.5;" width="189" x="950.5" y="227"/><ellipse cx="977.2" cy="243" fill="#ADD1B2" rx="11" ry="11" style="stroke:#A80036;stroke-width:1.0;"/><path d="M979.5438,238.6719 C978.6063,238.2344 978.0125,238.0938 977.1375,238.0938 C974.5125,238.0938 972.5125,240.1719 972.5125,242.8906 L972.5125,244.0156 C972.5125,246.5938 974.6219,248.4844 977.5125,248.4844 C978.7313,248.4844 979.8875,248.1875 980.6375,247.6406 C981.2156,247.2344 981.5438,246.7813 981.5438,246.3906 C981.5438,245.9375 981.1531,245.5469 980.6844,245.5469 C980.4656,245.5469 980.2625,245.625 980.075,245.8125 C979.6219,246.2969 979.6219,246.2969 979.4344,246.3906 C979.0125,246.6563 978.325,246.7813 977.5594,246.7813 C975.5125,246.7813 974.2156,245.6875 974.2156,243.9844 L974.2156,242.8906 C974.2156,241.1094 975.4656,239.7969 977.2,239.7969 C977.7781,239.7969 978.3875,239.9531 978.8563,240.2031 C979.3406,240.4844 979.5125,240.7031 979.6063,241.1094 C979.6688,241.5156 979.7,241.6406 979.8406,241.7656 C979.9813,241.9063 980.2156,242.0156 980.4344,242.0156 C980.7,242.0156 980.9656,241.875 981.1375,241.6563 C981.2469,241.5 981.2781,241.3125 981.2781,240.8906 L981.2781,239.4688 C981.2781,239.0313 981.2625,238.9063 981.1688,238.75 C981.0125,238.4844 980.7313,238.3438 980.4344,238.3438 C980.1375,238.3438 979.9344,238.4375 979.7156,238.75 L979.5438,238.6719 Z " fill="#000000"/><text fill="#000000" font-family="sans-serif" font-size="12" lengthAdjust="spacing" textLength="131" x="993.8" y="247.1543">UtilizadoresController</text><line style="stroke:#A80036;stroke-width:1.5;" x1="951.5" x2="1138.5" y1="259" y2="259"/><line style="stroke:#A80036;stroke-width:1.5;" x1="951.5" x2="1138.5" y1="267" y2="267"/><text fill="#000000" font-family="sans-serif" font-size="11" lengthAdjust="spacing" textLength="74" x="956.5" y="281.2104">+Get Saldo()</text><text fill="#000000" font-family="sans-serif" font-size="11" lengthAdjust="spacing" textLength="97" x="956.5" y="294.0151">+Get Depositar()</text><text fill="#000000" font-family="sans-serif" font-size="11" lengthAdjust="spacing" textLength="177" x="956.5" y="306.8198">+Post Depositar(depositarDTO)</text><!--MD5=[71888a0b4b4d301b85242da383bda3f6]
class AlterarMetodoPagamentoDTO--><rect codeLine="158" fill="#FEFECE" filter="url(#f17xwerkp9we9j)" height="457.75" id="AlterarMetodoPagamentoDTO" style="stroke:#A80036;stroke-width:1.5;" width="210" x="32" y="41"/><ellipse cx="47" cy="57" fill="#ADD1B2" rx="11" ry="11" style="stroke:#A80036;stroke-width:1.0;"/><path d="M49.3438,52.6719 C48.4063,52.2344 47.8125,52.0938 46.9375,52.0938 C44.3125,52.0938 42.3125,54.1719 42.3125,56.8906 L42.3125,58.0156 C42.3125,60.5938 44.4219,62.4844 47.3125,62.4844 C48.5313,62.4844 49.6875,62.1875 50.4375,61.6406 C51.0156,61.2344 51.3438,60.7813 51.3438,60.3906 C51.3438,59.9375 50.9531,59.5469 50.4844,59.5469 C50.2656,59.5469 50.0625,59.625 49.875,59.8125 C49.4219,60.2969 49.4219,60.2969 49.2344,60.3906 C48.8125,60.6563 48.125,60.7813 47.3594,60.7813 C45.3125,60.7813 44.0156,59.6875 44.0156,57.9844 L44.0156,56.8906 C44.0156,55.1094 45.2656,53.7969 47,53.7969 C47.5781,53.7969 48.1875,53.9531 48.6563,54.2031 C49.1406,54.4844 49.3125,54.7031 49.4063,55.1094 C49.4688,55.5156 49.5,55.6406 49.6406,55.7656 C49.7813,55.9063 50.0156,56.0156 50.2344,56.0156 C50.5,56.0156 50.7656,55.875 50.9375,55.6563 C51.0469,55.5 51.0781,55.3125 51.0781,54.8906 L51.0781,53.4688 C51.0781,53.0313 51.0625,52.9063 50.9688,52.75 C50.8125,52.4844 50.5313,52.3438 50.2344,52.3438 C49.9375,52.3438 49.7344,52.4375 49.5156,52.75 L49.3438,52.6719 Z " fill="#000000"/><text fill="#000000" font-family="sans-serif" font-size="12" lengthAdjust="spacing" textLength="178" x="61" y="61.1543">AlterarMetodoPagamentoDTO</text><line style="stroke:#A80036;stroke-width:1.5;" x1="33" x2="241" y1="73" y2="73"/><text fill="#000000" font-family="sans-serif" font-size="11" lengthAdjust="spacing" textLength="71" x="38" y="87.2104">-string email</text><text fill="#000000" font-family="sans-serif" font-size="11" lengthAdjust="spacing" textLength="92" x="38" y="100.0151">-string password</text><text fill="#000000" font-family="sans-serif" font-size="11" lengthAdjust="spacing" textLength="76" x="38" y="112.8198">-int metodoId</text><text fill="#000000" font-family="sans-serif" font-size="11" lengthAdjust="spacing" textLength="83" x="38" y="125.6245">-string numero</text><text fill="#000000" font-family="sans-serif" font-size="11" lengthAdjust="spacing" textLength="109" x="38" y="138.4292">-string nomeCartao</text><text fill="#000000" font-family="sans-serif" font-size="11" lengthAdjust="spacing" textLength="114" x="38" y="151.2339">-string dataValidade</text><text fill="#000000" font-family="sans-serif" font-size="11" lengthAdjust="spacing" textLength="59" x="38" y="164.0386">-string cvv</text><text fill="#000000" font-family="sans-serif" font-size="11" lengthAdjust="spacing" textLength="63" x="38" y="176.8433">-string iban</text><text fill="#000000" font-family="sans-serif" font-size="11" lengthAdjust="spacing" textLength="145" x="38" y="189.6479">-string nomeDebitoDireto</text><text fill="#000000" font-family="sans-serif" font-size="11" lengthAdjust="spacing" textLength="57" x="38" y="202.4526">-string rua</text><text fill="#000000" font-family="sans-serif" font-size="11" lengthAdjust="spacing" textLength="109" x="38" y="215.2573">-string codigoPostal</text><text fill="#000000" font-family="sans-serif" font-size="11" lengthAdjust="spacing" textLength="93" x="38" y="228.062">-string freguesia</text><text fill="#000000" font-family="sans-serif" font-size="11" lengthAdjust="spacing" textLength="151" x="38" y="240.8667">-DateTime dataSubscricao</text><text fill="#000000" font-family="sans-serif" font-size="11" lengthAdjust="spacing" textLength="108" x="38" y="253.6714">-string emailPaypal</text><text fill="#000000" font-family="sans-serif" font-size="11" lengthAdjust="spacing" textLength="129" x="38" y="266.4761">-string passwordPaypal</text><text fill="#000000" font-family="sans-serif" font-size="11" lengthAdjust="spacing" textLength="53" x="38" y="279.2808">-string nif</text><text fill="#000000" font-family="sans-serif" font-size="11" lengthAdjust="spacing" textLength="125" x="38" y="292.0854">-string nomeUtilizador</text><text fill="#000000" font-family="sans-serif" font-size="11" lengthAdjust="spacing" textLength="124" x="38" y="304.8901">-string emailUtilizador</text><text fill="#000000" font-family="sans-serif" font-size="11" lengthAdjust="spacing" textLength="145" x="38" y="317.6948">-string passwordUtilizador</text><text fill="#000000" font-family="sans-serif" font-size="11" lengthAdjust="spacing" textLength="76" x="38" y="330.4995">-int metodoId</text><text fill="#000000" font-family="sans-serif" font-size="11" lengthAdjust="spacing" textLength="83" x="38" y="343.3042">-string numero</text><text fill="#000000" font-family="sans-serif" font-size="11" lengthAdjust="spacing" textLength="109" x="38" y="356.1089">-string nomeCartao</text><text fill="#000000" font-family="sans-serif" font-size="11" lengthAdjust="spacing" textLength="114" x="38" y="368.9136">-string dataValidade</text><text fill="#000000" font-family="sans-serif" font-size="11" lengthAdjust="spacing" textLength="59" x="38" y="381.7183">-string cvv</text><text fill="#000000" font-family="sans-serif" font-size="11" lengthAdjust="spacing" textLength="63" x="38" y="394.5229">-string iban</text><text fill="#000000" font-family="sans-serif" font-size="11" lengthAdjust="spacing" textLength="145" x="38" y="407.3276">-string nomeDebitoDireto</text><text fill="#000000" font-family="sans-serif" font-size="11" lengthAdjust="spacing" textLength="57" x="38" y="420.1323">-string rua</text><text fill="#000000" font-family="sans-serif" font-size="11" lengthAdjust="spacing" textLength="109" x="38" y="432.937">-string codigoPostal</text><text fill="#000000" font-family="sans-serif" font-size="11" lengthAdjust="spacing" textLength="93" x="38" y="445.7417">-string freguesia</text><text fill="#000000" font-family="sans-serif" font-size="11" lengthAdjust="spacing" textLength="151" x="38" y="458.5464">-DateTime dataSubscricao</text><text fill="#000000" font-family="sans-serif" font-size="11" lengthAdjust="spacing" textLength="108" x="38" y="471.3511">-string emailPaypal</text><text fill="#000000" font-family="sans-serif" font-size="11" lengthAdjust="spacing" textLength="129" x="38" y="484.1558">-string passwordPaypal</text><line style="stroke:#A80036;stroke-width:1.5;" x1="33" x2="241" y1="490.75" y2="490.75"/><!--MD5=[00bae559d8238b4995fb3cb3c7adeaa9]
class AlterarNomeDTO--><rect codeLine="100" fill="#FEFECE" filter="url(#f17xwerkp9we9j)" height="86.4141" id="AlterarNomeDTO" style="stroke:#A80036;stroke-width:1.5;" width="133" x="277.5" y="227"/><ellipse cx="292.5" cy="243" fill="#ADD1B2" rx="11" ry="11" style="stroke:#A80036;stroke-width:1.0;"/><path d="M294.8438,238.6719 C293.9063,238.2344 293.3125,238.0938 292.4375,238.0938 C289.8125,238.0938 287.8125,240.1719 287.8125,242.8906 L287.8125,244.0156 C287.8125,246.5938 289.9219,248.4844 292.8125,248.4844 C294.0313,248.4844 295.1875,248.1875 295.9375,247.6406 C296.5156,247.2344 296.8438,246.7813 296.8438,246.3906 C296.8438,245.9375 296.4531,245.5469 295.9844,245.5469 C295.7656,245.5469 295.5625,245.625 295.375,245.8125 C294.9219,246.2969 294.9219,246.2969 294.7344,246.3906 C294.3125,246.6563 293.625,246.7813 292.8594,246.7813 C290.8125,246.7813 289.5156,245.6875 289.5156,243.9844 L289.5156,242.8906 C289.5156,241.1094 290.7656,239.7969 292.5,239.7969 C293.0781,239.7969 293.6875,239.9531 294.1563,240.2031 C294.6406,240.4844 294.8125,240.7031 294.9063,241.1094 C294.9688,241.5156 295,241.6406 295.1406,241.7656 C295.2813,241.9063 295.5156,242.0156 295.7344,242.0156 C296,242.0156 296.2656,241.875 296.4375,241.6563 C296.5469,241.5 296.5781,241.3125 296.5781,240.8906 L296.5781,239.4688 C296.5781,239.0313 296.5625,238.9063 296.4688,238.75 C296.3125,238.4844 296.0313,238.3438 295.7344,238.3438 C295.4375,238.3438 295.2344,238.4375 295.0156,238.75 L294.8438,238.6719 Z " fill="#000000"/><text fill="#000000" font-family="sans-serif" font-size="12" lengthAdjust="spacing" textLength="101" x="306.5" y="247.1543">AlterarNomeDTO</text><line style="stroke:#A80036;stroke-width:1.5;" x1="278.5" x2="409.5" y1="259" y2="259"/><text fill="#000000" font-family="sans-serif" font-size="11" lengthAdjust="spacing" textLength="53" x="283.5" y="273.2104">-string nif</text><text fill="#000000" font-family="sans-serif" font-size="11" lengthAdjust="spacing" textLength="107" x="283.5" y="286.0151">-string nomeActual</text><text fill="#000000" font-family="sans-serif" font-size="11" lengthAdjust="spacing" textLength="101" x="283.5" y="298.8198">-string nomeNovo</text><line style="stroke:#A80036;stroke-width:1.5;" x1="278.5" x2="409.5" y1="305.4141" y2="305.4141"/><!--MD5=[d291d7d8da98bc4a9544ae25eeabeadb]
class AlterarPasswordDTO--><rect codeLine="106" fill="#FEFECE" filter="url(#f17xwerkp9we9j)" height="86.4141" id="AlterarPasswordDTO" style="stroke:#A80036;stroke-width:1.5;" width="156" x="446" y="227"/><ellipse cx="461" cy="243" fill="#ADD1B2" rx="11" ry="11" style="stroke:#A80036;stroke-width:1.0;"/><path d="M463.3438,238.6719 C462.4063,238.2344 461.8125,238.0938 460.9375,238.0938 C458.3125,238.0938 456.3125,240.1719 456.3125,242.8906 L456.3125,244.0156 C456.3125,246.5938 458.4219,248.4844 461.3125,248.4844 C462.5313,248.4844 463.6875,248.1875 464.4375,247.6406 C465.0156,247.2344 465.3438,246.7813 465.3438,246.3906 C465.3438,245.9375 464.9531,245.5469 464.4844,245.5469 C464.2656,245.5469 464.0625,245.625 463.875,245.8125 C463.4219,246.2969 463.4219,246.2969 463.2344,246.3906 C462.8125,246.6563 462.125,246.7813 461.3594,246.7813 C459.3125,246.7813 458.0156,245.6875 458.0156,243.9844 L458.0156,242.8906 C458.0156,241.1094 459.2656,239.7969 461,239.7969 C461.5781,239.7969 462.1875,239.9531 462.6563,240.2031 C463.1406,240.4844 463.3125,240.7031 463.4063,241.1094 C463.4688,241.5156 463.5,241.6406 463.6406,241.7656 C463.7813,241.9063 464.0156,242.0156 464.2344,242.0156 C464.5,242.0156 464.7656,241.875 464.9375,241.6563 C465.0469,241.5 465.0781,241.3125 465.0781,240.8906 L465.0781,239.4688 C465.0781,239.0313 465.0625,238.9063 464.9688,238.75 C464.8125,238.4844 464.5313,238.3438 464.2344,238.3438 C463.9375,238.3438 463.7344,238.4375 463.5156,238.75 L463.3438,238.6719 Z " fill="#000000"/><text fill="#000000" font-family="sans-serif" font-size="12" lengthAdjust="spacing" textLength="124" x="475" y="247.1543">AlterarPasswordDTO</text><line style="stroke:#A80036;stroke-width:1.5;" x1="447" x2="601" y1="259" y2="259"/><text fill="#000000" font-family="sans-serif" font-size="11" lengthAdjust="spacing" textLength="53" x="452" y="273.2104">-string nif</text><text fill="#000000" font-family="sans-serif" font-size="11" lengthAdjust="spacing" textLength="127" x="452" y="286.0151">-string passwordActual</text><text fill="#000000" font-family="sans-serif" font-size="11" lengthAdjust="spacing" textLength="121" x="452" y="298.8198">-string passwordNova</text><line style="stroke:#A80036;stroke-width:1.5;" x1="447" x2="601" y1="305.4141" y2="305.4141"/><!--MD5=[278a2be98adcf34b06bdca357a44707a]
class DepositarDTO--><rect codeLine="112" fill="#FEFECE" filter="url(#f17xwerkp9we9j)" height="73.6094" id="DepositarDTO" style="stroke:#A80036;stroke-width:1.5;" width="117" x="637.5" y="233"/><ellipse cx="652.5" cy="249" fill="#ADD1B2" rx="11" ry="11" style="stroke:#A80036;stroke-width:1.0;"/><path d="M654.8438,244.6719 C653.9063,244.2344 653.3125,244.0938 652.4375,244.0938 C649.8125,244.0938 647.8125,246.1719 647.8125,248.8906 L647.8125,250.0156 C647.8125,252.5938 649.9219,254.4844 652.8125,254.4844 C654.0313,254.4844 655.1875,254.1875 655.9375,253.6406 C656.5156,253.2344 656.8438,252.7813 656.8438,252.3906 C656.8438,251.9375 656.4531,251.5469 655.9844,251.5469 C655.7656,251.5469 655.5625,251.625 655.375,251.8125 C654.9219,252.2969 654.9219,252.2969 654.7344,252.3906 C654.3125,252.6563 653.625,252.7813 652.8594,252.7813 C650.8125,252.7813 649.5156,251.6875 649.5156,249.9844 L649.5156,248.8906 C649.5156,247.1094 650.7656,245.7969 652.5,245.7969 C653.0781,245.7969 653.6875,245.9531 654.1563,246.2031 C654.6406,246.4844 654.8125,246.7031 654.9063,247.1094 C654.9688,247.5156 655,247.6406 655.1406,247.7656 C655.2813,247.9063 655.5156,248.0156 655.7344,248.0156 C656,248.0156 656.2656,247.875 656.4375,247.6563 C656.5469,247.5 656.5781,247.3125 656.5781,246.8906 L656.5781,245.4688 C656.5781,245.0313 656.5625,244.9063 656.4688,244.75 C656.3125,244.4844 656.0313,244.3438 655.7344,244.3438 C655.4375,244.3438 655.2344,244.4375 655.0156,244.75 L654.8438,244.6719 Z " fill="#000000"/><text fill="#000000" font-family="sans-serif" font-size="12" lengthAdjust="spacing" textLength="85" x="666.5" y="253.1543">DepositarDTO</text><line style="stroke:#A80036;stroke-width:1.5;" x1="638.5" x2="753.5" y1="265" y2="265"/><text fill="#000000" font-family="sans-serif" font-size="11" lengthAdjust="spacing" textLength="53" x="643.5" y="279.2104">-string nif</text><text fill="#000000" font-family="sans-serif" font-size="11" lengthAdjust="spacing" textLength="75" x="643.5" y="292.0151">-double valor</text><line style="stroke:#A80036;stroke-width:1.5;" x1="638.5" x2="753.5" y1="298.6094" y2="298.6094"/><!--MD5=[83ba41305e5ff3f313a5f67adb039045]
class DetalheReservaDTO--><rect codeLine="117" fill="#FEFECE" filter="url(#f17xwerkp9we9j)" height="201.6563" id="DetalheReservaDTO" style="stroke:#A80036;stroke-width:1.5;" width="153" x="43.5" y="559"/><ellipse cx="58.5" cy="575" fill="#ADD1B2" rx="11" ry="11" style="stroke:#A80036;stroke-width:1.0;"/><path d="M60.8438,570.6719 C59.9063,570.2344 59.3125,570.0938 58.4375,570.0938 C55.8125,570.0938 53.8125,572.1719 53.8125,574.8906 L53.8125,576.0156 C53.8125,578.5938 55.9219,580.4844 58.8125,580.4844 C60.0313,580.4844 61.1875,580.1875 61.9375,579.6406 C62.5156,579.2344 62.8438,578.7813 62.8438,578.3906 C62.8438,577.9375 62.4531,577.5469 61.9844,577.5469 C61.7656,577.5469 61.5625,577.625 61.375,577.8125 C60.9219,578.2969 60.9219,578.2969 60.7344,578.3906 C60.3125,578.6563 59.625,578.7813 58.8594,578.7813 C56.8125,578.7813 55.5156,577.6875 55.5156,575.9844 L55.5156,574.8906 C55.5156,573.1094 56.7656,571.7969 58.5,571.7969 C59.0781,571.7969 59.6875,571.9531 60.1563,572.2031 C60.6406,572.4844 60.8125,572.7031 60.9063,573.1094 C60.9688,573.5156 61,573.6406 61.1406,573.7656 C61.2813,573.9063 61.5156,574.0156 61.7344,574.0156 C62,574.0156 62.2656,573.875 62.4375,573.6563 C62.5469,573.5 62.5781,573.3125 62.5781,572.8906 L62.5781,571.4688 C62.5781,571.0313 62.5625,570.9063 62.4688,570.75 C62.3125,570.4844 62.0313,570.3438 61.7344,570.3438 C61.4375,570.3438 61.2344,570.4375 61.0156,570.75 L60.8438,570.6719 Z " fill="#000000"/><text fill="#000000" font-family="sans-serif" font-size="12" lengthAdjust="spacing" textLength="121" x="72.5" y="579.1543">DetalheReservaDTO</text><line style="stroke:#A80036;stroke-width:1.5;" x1="44.5" x2="195.5" y1="591" y2="591"/><text fill="#000000" font-family="sans-serif" font-size="11" lengthAdjust="spacing" textLength="76" x="49.5" y="605.2104">-int reservaId</text><text fill="#000000" font-family="sans-serif" font-size="11" lengthAdjust="spacing" textLength="77" x="49.5" y="618.0151">-double custo</text><text fill="#000000" font-family="sans-serif" font-size="11" lengthAdjust="spacing" textLength="115" x="49.5" y="630.8198">-int reservaParqueId</text><text fill="#000000" font-family="sans-serif" font-size="11" lengthAdjust="spacing" textLength="128" x="49.5" y="643.6245">-string nomeFreguesia</text><text fill="#000000" font-family="sans-serif" font-size="11" lengthAdjust="spacing" textLength="111" x="49.5" y="656.4292">-string nomeParque</text><text fill="#000000" font-family="sans-serif" font-size="11" lengthAdjust="spacing" textLength="97" x="49.5" y="669.2339">-int numeroLugar</text><text fill="#000000" font-family="sans-serif" font-size="11" lengthAdjust="spacing" textLength="56" x="49.5" y="682.0386">-string fila</text><text fill="#000000" font-family="sans-serif" font-size="11" lengthAdjust="spacing" textLength="54" x="49.5" y="694.8433">-int andar</text><text fill="#000000" font-family="sans-serif" font-size="11" lengthAdjust="spacing" textLength="109" x="49.5" y="707.6479">-bool isSubAlugado</text><text fill="#000000" font-family="sans-serif" font-size="11" lengthAdjust="spacing" textLength="117" x="49.5" y="720.4526">-string nifProprietario</text><text fill="#000000" font-family="sans-serif" font-size="11" lengthAdjust="spacing" textLength="94" x="49.5" y="733.2573">-DateTime inicio</text><text fill="#000000" font-family="sans-serif" font-size="11" lengthAdjust="spacing" textLength="83" x="49.5" y="746.062">-DateTime fim</text><line style="stroke:#A80036;stroke-width:1.5;" x1="44.5" x2="195.5" y1="752.6563" y2="752.6563"/><!--MD5=[2e7cd089d6ae3523be36eecdef6b8d1f]
class InfoUtilizadorDTO--><rect codeLine="132" fill="#FEFECE" filter="url(#f17xwerkp9we9j)" height="73.6094" id="InfoUtilizadorDTO" style="stroke:#A80036;stroke-width:1.5;" width="137" x="231.5" y="623"/><ellipse cx="246.5" cy="639" fill="#ADD1B2" rx="11" ry="11" style="stroke:#A80036;stroke-width:1.0;"/><path d="M248.8438,634.6719 C247.9063,634.2344 247.3125,634.0938 246.4375,634.0938 C243.8125,634.0938 241.8125,636.1719 241.8125,638.8906 L241.8125,640.0156 C241.8125,642.5938 243.9219,644.4844 246.8125,644.4844 C248.0313,644.4844 249.1875,644.1875 249.9375,643.6406 C250.5156,643.2344 250.8438,642.7813 250.8438,642.3906 C250.8438,641.9375 250.4531,641.5469 249.9844,641.5469 C249.7656,641.5469 249.5625,641.625 249.375,641.8125 C248.9219,642.2969 248.9219,642.2969 248.7344,642.3906 C248.3125,642.6563 247.625,642.7813 246.8594,642.7813 C244.8125,642.7813 243.5156,641.6875 243.5156,639.9844 L243.5156,638.8906 C243.5156,637.1094 244.7656,635.7969 246.5,635.7969 C247.0781,635.7969 247.6875,635.9531 248.1563,636.2031 C248.6406,636.4844 248.8125,636.7031 248.9063,637.1094 C248.9688,637.5156 249,637.6406 249.1406,637.7656 C249.2813,637.9063 249.5156,638.0156 249.7344,638.0156 C250,638.0156 250.2656,637.875 250.4375,637.6563 C250.5469,637.5 250.5781,637.3125 250.5781,636.8906 L250.5781,635.4688 C250.5781,635.0313 250.5625,634.9063 250.4688,634.75 C250.3125,634.4844 250.0313,634.3438 249.7344,634.3438 C249.4375,634.3438 249.2344,634.4375 249.0156,634.75 L248.8438,634.6719 Z " fill="#000000"/><text fill="#000000" font-family="sans-serif" font-size="12" lengthAdjust="spacing" textLength="105" x="260.5" y="643.1543">InfoUtilizadorDTO</text><line style="stroke:#A80036;stroke-width:1.5;" x1="232.5" x2="367.5" y1="655" y2="655"/><text fill="#000000" font-family="sans-serif" font-size="11" lengthAdjust="spacing" textLength="71" x="237.5" y="669.2104">-string email</text><text fill="#000000" font-family="sans-serif" font-size="11" lengthAdjust="spacing" textLength="92" x="237.5" y="682.0151">-string password</text><line style="stroke:#A80036;stroke-width:1.5;" x1="232.5" x2="367.5" y1="688.6094" y2="688.6094"/><!--MD5=[f55b01cf9e1b785611c60685d5f9ff89]
class LugarDTO--><rect codeLine="137" fill="#FEFECE" filter="url(#f17xwerkp9we9j)" height="201.6563" id="LugarDTO" style="stroke:#A80036;stroke-width:1.5;" width="176" x="404" y="559"/><ellipse cx="458.25" cy="575" fill="#ADD1B2" rx="11" ry="11" style="stroke:#A80036;stroke-width:1.0;"/><path d="M460.5938,570.6719 C459.6563,570.2344 459.0625,570.0938 458.1875,570.0938 C455.5625,570.0938 453.5625,572.1719 453.5625,574.8906 L453.5625,576.0156 C453.5625,578.5938 455.6719,580.4844 458.5625,580.4844 C459.7813,580.4844 460.9375,580.1875 461.6875,579.6406 C462.2656,579.2344 462.5938,578.7813 462.5938,578.3906 C462.5938,577.9375 462.2031,577.5469 461.7344,577.5469 C461.5156,577.5469 461.3125,577.625 461.125,577.8125 C460.6719,578.2969 460.6719,578.2969 460.4844,578.3906 C460.0625,578.6563 459.375,578.7813 458.6094,578.7813 C456.5625,578.7813 455.2656,577.6875 455.2656,575.9844 L455.2656,574.8906 C455.2656,573.1094 456.5156,571.7969 458.25,571.7969 C458.8281,571.7969 459.4375,571.9531 459.9063,572.2031 C460.3906,572.4844 460.5625,572.7031 460.6563,573.1094 C460.7188,573.5156 460.75,573.6406 460.8906,573.7656 C461.0313,573.9063 461.2656,574.0156 461.4844,574.0156 C461.75,574.0156 462.0156,573.875 462.1875,573.6563 C462.2969,573.5 462.3281,573.3125 462.3281,572.8906 L462.3281,571.4688 C462.3281,571.0313 462.3125,570.9063 462.2188,570.75 C462.0625,570.4844 461.7813,570.3438 461.4844,570.3438 C461.1875,570.3438 460.9844,570.4375 460.7656,570.75 L460.5938,570.6719 Z " fill="#000000"/><text fill="#000000" font-family="sans-serif" font-size="12" lengthAdjust="spacing" textLength="59" x="478.75" y="579.1543">LugarDTO</text><line style="stroke:#A80036;stroke-width:1.5;" x1="405" x2="579" y1="591" y2="591"/><text fill="#000000" font-family="sans-serif" font-size="11" lengthAdjust="spacing" textLength="32" x="410" y="605.2104">-int id</text><text fill="#000000" font-family="sans-serif" font-size="11" lengthAdjust="spacing" textLength="72" x="410" y="618.0151">-int parqueId</text><text fill="#000000" font-family="sans-serif" font-size="11" lengthAdjust="spacing" textLength="111" x="410" y="630.8198">-string nomeParque</text><text fill="#000000" font-family="sans-serif" font-size="11" lengthAdjust="spacing" textLength="66" x="410" y="643.6245">-int numero</text><text fill="#000000" font-family="sans-serif" font-size="11" lengthAdjust="spacing" textLength="56" x="410" y="656.4292">-string fila</text><text fill="#000000" font-family="sans-serif" font-size="11" lengthAdjust="spacing" textLength="54" x="410" y="669.2339">-int andar</text><text fill="#000000" font-family="sans-serif" font-size="11" lengthAdjust="spacing" textLength="79" x="410" y="682.0386">-double preco</text><text fill="#000000" font-family="sans-serif" font-size="11" lengthAdjust="spacing" textLength="117" x="410" y="694.8433">-string nifProprietario</text><text fill="#000000" font-family="sans-serif" font-size="11" lengthAdjust="spacing" textLength="164" x="410" y="707.6479">-int reservaSistemaCentralId</text><text fill="#000000" font-family="sans-serif" font-size="11" lengthAdjust="spacing" textLength="88" x="410" y="720.4526">-int parqueIdSC</text><text fill="#000000" font-family="sans-serif" font-size="11" lengthAdjust="spacing" textLength="94" x="410" y="733.2573">-DateTime inicio</text><text fill="#000000" font-family="sans-serif" font-size="11" lengthAdjust="spacing" textLength="83" x="410" y="746.062">-DateTime fim</text><line style="stroke:#A80036;stroke-width:1.5;" x1="405" x2="579" y1="752.6563" y2="752.6563"/><!--MD5=[8a50b654b4966c8168ee5da66bedf72f]
class PesquisaDTO--><rect codeLine="152" fill="#FEFECE" filter="url(#f17xwerkp9we9j)" height="86.4141" id="PesquisaDTO" style="stroke:#A80036;stroke-width:1.5;" width="139" x="615.5" y="617"/><ellipse cx="643.1" cy="633" fill="#ADD1B2" rx="11" ry="11" style="stroke:#A80036;stroke-width:1.0;"/><path d="M645.4438,628.6719 C644.5063,628.2344 643.9125,628.0938 643.0375,628.0938 C640.4125,628.0938 638.4125,630.1719 638.4125,632.8906 L638.4125,634.0156 C638.4125,636.5938 640.5219,638.4844 643.4125,638.4844 C644.6313,638.4844 645.7875,638.1875 646.5375,637.6406 C647.1156,637.2344 647.4438,636.7813 647.4438,636.3906 C647.4438,635.9375 647.0531,635.5469 646.5844,635.5469 C646.3656,635.5469 646.1625,635.625 645.975,635.8125 C645.5219,636.2969 645.5219,636.2969 645.3344,636.3906 C644.9125,636.6563 644.225,636.7813 643.4594,636.7813 C641.4125,636.7813 640.1156,635.6875 640.1156,633.9844 L640.1156,632.8906 C640.1156,631.1094 641.3656,629.7969 643.1,629.7969 C643.6781,629.7969 644.2875,629.9531 644.7563,630.2031 C645.2406,630.4844 645.4125,630.7031 645.5063,631.1094 C645.5688,631.5156 645.6,631.6406 645.7406,631.7656 C645.8813,631.9063 646.1156,632.0156 646.3344,632.0156 C646.6,632.0156 646.8656,631.875 647.0375,631.6563 C647.1469,631.5 647.1781,631.3125 647.1781,630.8906 L647.1781,629.4688 C647.1781,629.0313 647.1625,628.9063 647.0688,628.75 C646.9125,628.4844 646.6313,628.3438 646.3344,628.3438 C646.0375,628.3438 645.8344,628.4375 645.6156,628.75 L645.4438,628.6719 Z " fill="#000000"/><text fill="#000000" font-family="sans-serif" font-size="12" lengthAdjust="spacing" textLength="79" x="659.9" y="637.1543">PesquisaDTO</text><line style="stroke:#A80036;stroke-width:1.5;" x1="616.5" x2="753.5" y1="649" y2="649"/><text fill="#000000" font-family="sans-serif" font-size="11" lengthAdjust="spacing" textLength="127" x="621.5" y="663.2104">-string freguesiaNome</text><text fill="#000000" font-family="sans-serif" font-size="11" lengthAdjust="spacing" textLength="94" x="621.5" y="676.0151">-DateTime inicio</text><text fill="#000000" font-family="sans-serif" font-size="11" lengthAdjust="spacing" textLength="83" x="621.5" y="688.8198">-DateTime fim</text><line style="stroke:#A80036;stroke-width:1.5;" x1="616.5" x2="753.5" y1="695.4141" y2="695.4141"/><!--MD5=[7e02c7349cbcec40ae1dd951aa82354c]
class ReservaDTO--><rect codeLine="178" fill="#FEFECE" filter="url(#f17xwerkp9we9j)" height="150.4375" id="ReservaDTO" style="stroke:#A80036;stroke-width:1.5;" width="176" x="32" y="821"/><ellipse cx="78.25" cy="837" fill="#ADD1B2" rx="11" ry="11" style="stroke:#A80036;stroke-width:1.0;"/><path d="M80.5938,832.6719 C79.6563,832.2344 79.0625,832.0938 78.1875,832.0938 C75.5625,832.0938 73.5625,834.1719 73.5625,836.8906 L73.5625,838.0156 C73.5625,840.5938 75.6719,842.4844 78.5625,842.4844 C79.7813,842.4844 80.9375,842.1875 81.6875,841.6406 C82.2656,841.2344 82.5938,840.7813 82.5938,840.3906 C82.5938,839.9375 82.2031,839.5469 81.7344,839.5469 C81.5156,839.5469 81.3125,839.625 81.125,839.8125 C80.6719,840.2969 80.6719,840.2969 80.4844,840.3906 C80.0625,840.6563 79.375,840.7813 78.6094,840.7813 C76.5625,840.7813 75.2656,839.6875 75.2656,837.9844 L75.2656,836.8906 C75.2656,835.1094 76.5156,833.7969 78.25,833.7969 C78.8281,833.7969 79.4375,833.9531 79.9063,834.2031 C80.3906,834.4844 80.5625,834.7031 80.6563,835.1094 C80.7188,835.5156 80.75,835.6406 80.8906,835.7656 C81.0313,835.9063 81.2656,836.0156 81.4844,836.0156 C81.75,836.0156 82.0156,835.875 82.1875,835.6563 C82.2969,835.5 82.3281,835.3125 82.3281,834.8906 L82.3281,833.4688 C82.3281,833.0313 82.3125,832.9063 82.2188,832.75 C82.0625,832.4844 81.7813,832.3438 81.4844,832.3438 C81.1875,832.3438 80.9844,832.4375 80.7656,832.75 L80.5938,832.6719 Z " fill="#000000"/><text fill="#000000" font-family="sans-serif" font-size="12" lengthAdjust="spacing" textLength="75" x="98.75" y="841.1543">ReservaDTO</text><line style="stroke:#A80036;stroke-width:1.5;" x1="33" x2="207" y1="853" y2="853"/><text fill="#000000" font-family="sans-serif" font-size="11" lengthAdjust="spacing" textLength="115" x="38" y="867.2104">-string nifComprador</text><text fill="#000000" font-family="sans-serif" font-size="11" lengthAdjust="spacing" textLength="109" x="38" y="880.0151">-string nifVendedor</text><text fill="#000000" font-family="sans-serif" font-size="11" lengthAdjust="spacing" textLength="88" x="38" y="892.8198">-int parqueIdSC</text><text fill="#000000" font-family="sans-serif" font-size="11" lengthAdjust="spacing" textLength="76" x="38" y="905.6245">-int metodoId</text><text fill="#000000" font-family="sans-serif" font-size="11" lengthAdjust="spacing" textLength="164" x="38" y="918.4292">-int reservaSistemaCentralId</text><text fill="#000000" font-family="sans-serif" font-size="11" lengthAdjust="spacing" textLength="60" x="38" y="931.2339">-int lugarId</text><text fill="#000000" font-family="sans-serif" font-size="11" lengthAdjust="spacing" textLength="94" x="38" y="944.0386">-DateTime inicio</text><text fill="#000000" font-family="sans-serif" font-size="11" lengthAdjust="spacing" textLength="83" x="38" y="956.8433">-DateTime fim</text><line style="stroke:#A80036;stroke-width:1.5;" x1="33" x2="207" y1="963.4375" y2="963.4375"/><!--MD5=[22cb582dec58d2378e59a778a42a045a]
class ResetPasswordDTO--><rect codeLine="189" fill="#FEFECE" filter="url(#f17xwerkp9we9j)" height="73.6094" id="ResetPasswordDTO" style="stroke:#A80036;stroke-width:1.5;" width="150" x="243" y="859"/><ellipse cx="258" cy="875" fill="#ADD1B2" rx="11" ry="11" style="stroke:#A80036;stroke-width:1.0;"/><path d="M260.3438,870.6719 C259.4063,870.2344 258.8125,870.0938 257.9375,870.0938 C255.3125,870.0938 253.3125,872.1719 253.3125,874.8906 L253.3125,876.0156 C253.3125,878.5938 255.4219,880.4844 258.3125,880.4844 C259.5313,880.4844 260.6875,880.1875 261.4375,879.6406 C262.0156,879.2344 262.3438,878.7813 262.3438,878.3906 C262.3438,877.9375 261.9531,877.5469 261.4844,877.5469 C261.2656,877.5469 261.0625,877.625 260.875,877.8125 C260.4219,878.2969 260.4219,878.2969 260.2344,878.3906 C259.8125,878.6563 259.125,878.7813 258.3594,878.7813 C256.3125,878.7813 255.0156,877.6875 255.0156,875.9844 L255.0156,874.8906 C255.0156,873.1094 256.2656,871.7969 258,871.7969 C258.5781,871.7969 259.1875,871.9531 259.6563,872.2031 C260.1406,872.4844 260.3125,872.7031 260.4063,873.1094 C260.4688,873.5156 260.5,873.6406 260.6406,873.7656 C260.7813,873.9063 261.0156,874.0156 261.2344,874.0156 C261.5,874.0156 261.7656,873.875 261.9375,873.6563 C262.0469,873.5 262.0781,873.3125 262.0781,872.8906 L262.0781,871.4688 C262.0781,871.0313 262.0625,870.9063 261.9688,870.75 C261.8125,870.4844 261.5313,870.3438 261.2344,870.3438 C260.9375,870.3438 260.7344,870.4375 260.5156,870.75 L260.3438,870.6719 Z " fill="#000000"/><text fill="#000000" font-family="sans-serif" font-size="12" lengthAdjust="spacing" textLength="118" x="272" y="879.1543">ResetPasswordDTO</text><line style="stroke:#A80036;stroke-width:1.5;" x1="244" x2="392" y1="891" y2="891"/><text fill="#000000" font-family="sans-serif" font-size="11" lengthAdjust="spacing" textLength="53" x="249" y="905.2104">-string nif</text><text fill="#000000" font-family="sans-serif" font-size="11" lengthAdjust="spacing" textLength="92" x="249" y="918.0151">-string password</text><line style="stroke:#A80036;stroke-width:1.5;" x1="244" x2="392" y1="924.6094" y2="924.6094"/><!--MD5=[c927a65d08cf77a0ba8fbbef456de49b]
class RevokeTokenRequest--><rect codeLine="194" fill="#FEFECE" filter="url(#f17xwerkp9we9j)" height="60.8047" id="RevokeTokenRequest" style="stroke:#A80036;stroke-width:1.5;" width="163" x="428.5" y="865.5"/><ellipse cx="443.5" cy="881.5" fill="#ADD1B2" rx="11" ry="11" style="stroke:#A80036;stroke-width:1.0;"/><path d="M445.8438,877.1719 C444.9063,876.7344 444.3125,876.5938 443.4375,876.5938 C440.8125,876.5938 438.8125,878.6719 438.8125,881.3906 L438.8125,882.5156 C438.8125,885.0938 440.9219,886.9844 443.8125,886.9844 C445.0313,886.9844 446.1875,886.6875 446.9375,886.1406 C447.5156,885.7344 447.8438,885.2813 447.8438,884.8906 C447.8438,884.4375 447.4531,884.0469 446.9844,884.0469 C446.7656,884.0469 446.5625,884.125 446.375,884.3125 C445.9219,884.7969 445.9219,884.7969 445.7344,884.8906 C445.3125,885.1563 444.625,885.2813 443.8594,885.2813 C441.8125,885.2813 440.5156,884.1875 440.5156,882.4844 L440.5156,881.3906 C440.5156,879.6094 441.7656,878.2969 443.5,878.2969 C444.0781,878.2969 444.6875,878.4531 445.1563,878.7031 C445.6406,878.9844 445.8125,879.2031 445.9063,879.6094 C445.9688,880.0156 446,880.1406 446.1406,880.2656 C446.2813,880.4063 446.5156,880.5156 446.7344,880.5156 C447,880.5156 447.2656,880.375 447.4375,880.1563 C447.5469,880 447.5781,879.8125 447.5781,879.3906 L447.5781,877.9688 C447.5781,877.5313 447.5625,877.4063 447.4688,877.25 C447.3125,876.9844 447.0313,876.8438 446.7344,876.8438 C446.4375,876.8438 446.2344,876.9375 446.0156,877.25 L445.8438,877.1719 Z " fill="#000000"/><text fill="#000000" font-family="sans-serif" font-size="12" lengthAdjust="spacing" textLength="131" x="457.5" y="885.6543">RevokeTokenRequest</text><line style="stroke:#A80036;stroke-width:1.5;" x1="429.5" x2="590.5" y1="897.5" y2="897.5"/><text fill="#000000" font-family="sans-serif" font-size="11" lengthAdjust="spacing" textLength="71" x="434.5" y="911.7104">-string token</text><line style="stroke:#A80036;stroke-width:1.5;" x1="429.5" x2="590.5" y1="918.3047" y2="918.3047"/><!--MD5=[db9380cc8ecbf24ee38d4942bbc5305f]
class SaldoDTO--><rect codeLine="198" fill="#FEFECE" filter="url(#f17xwerkp9we9j)" height="60.8047" id="SaldoDTO" style="stroke:#A80036;stroke-width:1.5;" width="92" x="627" y="865.5"/><ellipse cx="642" cy="881.5" fill="#ADD1B2" rx="11" ry="11" style="stroke:#A80036;stroke-width:1.0;"/><path d="M644.3438,877.1719 C643.4063,876.7344 642.8125,876.5938 641.9375,876.5938 C639.3125,876.5938 637.3125,878.6719 637.3125,881.3906 L637.3125,882.5156 C637.3125,885.0938 639.4219,886.9844 642.3125,886.9844 C643.5313,886.9844 644.6875,886.6875 645.4375,886.1406 C646.0156,885.7344 646.3438,885.2813 646.3438,884.8906 C646.3438,884.4375 645.9531,884.0469 645.4844,884.0469 C645.2656,884.0469 645.0625,884.125 644.875,884.3125 C644.4219,884.7969 644.4219,884.7969 644.2344,884.8906 C643.8125,885.1563 643.125,885.2813 642.3594,885.2813 C640.3125,885.2813 639.0156,884.1875 639.0156,882.4844 L639.0156,881.3906 C639.0156,879.6094 640.2656,878.2969 642,878.2969 C642.5781,878.2969 643.1875,878.4531 643.6563,878.7031 C644.1406,878.9844 644.3125,879.2031 644.4063,879.6094 C644.4688,880.0156 644.5,880.1406 644.6406,880.2656 C644.7813,880.4063 645.0156,880.5156 645.2344,880.5156 C645.5,880.5156 645.7656,880.375 645.9375,880.1563 C646.0469,880 646.0781,879.8125 646.0781,879.3906 L646.0781,877.9688 C646.0781,877.5313 646.0625,877.4063 645.9688,877.25 C645.8125,876.9844 645.5313,876.8438 645.2344,876.8438 C644.9375,876.8438 644.7344,876.9375 644.5156,877.25 L644.3438,877.1719 Z " fill="#000000"/><text fill="#000000" font-family="sans-serif" font-size="12" lengthAdjust="spacing" textLength="60" x="656" y="885.6543">SaldoDTO</text><line style="stroke:#A80036;stroke-width:1.5;" x1="628" x2="718" y1="897.5" y2="897.5"/><text fill="#000000" font-family="sans-serif" font-size="11" lengthAdjust="spacing" textLength="75" x="633" y="911.7104">-double valor</text><line style="stroke:#A80036;stroke-width:1.5;" x1="628" x2="718" y1="918.3047" y2="918.3047"/><!--MD5=[f542357d139066f7f6ca40e1d5daf340]
class SubAluguerDTO--><rect codeLine="202" fill="#FEFECE" filter="url(#f17xwerkp9we9j)" height="201.6563" id="SubAluguerDTO" style="stroke:#A80036;stroke-width:1.5;" width="176" x="32" y="1031"/><ellipse cx="69.05" cy="1047" fill="#ADD1B2" rx="11" ry="11" style="stroke:#A80036;stroke-width:1.0;"/><path d="M71.3938,1042.6719 C70.4563,1042.2344 69.8625,1042.0938 68.9875,1042.0938 C66.3625,1042.0938 64.3625,1044.1719 64.3625,1046.8906 L64.3625,1048.0156 C64.3625,1050.5938 66.4719,1052.4844 69.3625,1052.4844 C70.5813,1052.4844 71.7375,1052.1875 72.4875,1051.6406 C73.0656,1051.2344 73.3938,1050.7813 73.3938,1050.3906 C73.3938,1049.9375 73.0031,1049.5469 72.5344,1049.5469 C72.3156,1049.5469 72.1125,1049.625 71.925,1049.8125 C71.4719,1050.2969 71.4719,1050.2969 71.2844,1050.3906 C70.8625,1050.6563 70.175,1050.7813 69.4094,1050.7813 C67.3625,1050.7813 66.0656,1049.6875 66.0656,1047.9844 L66.0656,1046.8906 C66.0656,1045.1094 67.3156,1043.7969 69.05,1043.7969 C69.6281,1043.7969 70.2375,1043.9531 70.7063,1044.2031 C71.1906,1044.4844 71.3625,1044.7031 71.4563,1045.1094 C71.5188,1045.5156 71.55,1045.6406 71.6906,1045.7656 C71.8313,1045.9063 72.0656,1046.0156 72.2844,1046.0156 C72.55,1046.0156 72.8156,1045.875 72.9875,1045.6563 C73.0969,1045.5 73.1281,1045.3125 73.1281,1044.8906 L73.1281,1043.4688 C73.1281,1043.0313 73.1125,1042.9063 73.0188,1042.75 C72.8625,1042.4844 72.5813,1042.3438 72.2844,1042.3438 C71.9875,1042.3438 71.7844,1042.4375 71.5656,1042.75 L71.3938,1042.6719 Z " fill="#000000"/><text fill="#000000" font-family="sans-serif" font-size="12" lengthAdjust="spacing" textLength="95" x="87.95" y="1051.1543">SubAluguerDTO</text><line style="stroke:#A80036;stroke-width:1.5;" x1="33" x2="207" y1="1063" y2="1063"/><text fill="#000000" font-family="sans-serif" font-size="11" lengthAdjust="spacing" textLength="32" x="38" y="1077.2104">-int id</text><text fill="#000000" font-family="sans-serif" font-size="11" lengthAdjust="spacing" textLength="72" x="38" y="1090.0151">-int parqueId</text><text fill="#000000" font-family="sans-serif" font-size="11" lengthAdjust="spacing" textLength="111" x="38" y="1102.8198">-string nomeParque</text><text fill="#000000" font-family="sans-serif" font-size="11" lengthAdjust="spacing" textLength="66" x="38" y="1115.6245">-int numero</text><text fill="#000000" font-family="sans-serif" font-size="11" lengthAdjust="spacing" textLength="56" x="38" y="1128.4292">-string fila</text><text fill="#000000" font-family="sans-serif" font-size="11" lengthAdjust="spacing" textLength="54" x="38" y="1141.2339">-int andar</text><text fill="#000000" font-family="sans-serif" font-size="11" lengthAdjust="spacing" textLength="79" x="38" y="1154.0386">-double preco</text><text fill="#000000" font-family="sans-serif" font-size="11" lengthAdjust="spacing" textLength="117" x="38" y="1166.8433">-string nifProprietario</text><text fill="#000000" font-family="sans-serif" font-size="11" lengthAdjust="spacing" textLength="164" x="38" y="1179.6479">-int reservaSistemaCentralId</text><text fill="#000000" font-family="sans-serif" font-size="11" lengthAdjust="spacing" textLength="102" x="38" y="1192.4526">-bool isReservado</text><text fill="#000000" font-family="sans-serif" font-size="11" lengthAdjust="spacing" textLength="94" x="38" y="1205.2573">-DateTime inicio</text><text fill="#000000" font-family="sans-serif" font-size="11" lengthAdjust="spacing" textLength="83" x="38" y="1218.062">-DateTime fim</text><line style="stroke:#A80036;stroke-width:1.5;" x1="33" x2="207" y1="1224.6563" y2="1224.6563"/><!--MD5=[c35c4c1da225d98fed04078687fbe486]
class TokenResponse--><rect codeLine="217" fill="#FEFECE" filter="url(#f17xwerkp9we9j)" height="73.6094" id="TokenResponse" style="stroke:#A80036;stroke-width:1.5;" width="129" x="243.5" y="1095"/><ellipse cx="258.5" cy="1111" fill="#ADD1B2" rx="11" ry="11" style="stroke:#A80036;stroke-width:1.0;"/><path d="M260.8438,1106.6719 C259.9063,1106.2344 259.3125,1106.0938 258.4375,1106.0938 C255.8125,1106.0938 253.8125,1108.1719 253.8125,1110.8906 L253.8125,1112.0156 C253.8125,1114.5938 255.9219,1116.4844 258.8125,1116.4844 C260.0313,1116.4844 261.1875,1116.1875 261.9375,1115.6406 C262.5156,1115.2344 262.8438,1114.7813 262.8438,1114.3906 C262.8438,1113.9375 262.4531,1113.5469 261.9844,1113.5469 C261.7656,1113.5469 261.5625,1113.625 261.375,1113.8125 C260.9219,1114.2969 260.9219,1114.2969 260.7344,1114.3906 C260.3125,1114.6563 259.625,1114.7813 258.8594,1114.7813 C256.8125,1114.7813 255.5156,1113.6875 255.5156,1111.9844 L255.5156,1110.8906 C255.5156,1109.1094 256.7656,1107.7969 258.5,1107.7969 C259.0781,1107.7969 259.6875,1107.9531 260.1563,1108.2031 C260.6406,1108.4844 260.8125,1108.7031 260.9063,1109.1094 C260.9688,1109.5156 261,1109.6406 261.1406,1109.7656 C261.2813,1109.9063 261.5156,1110.0156 261.7344,1110.0156 C262,1110.0156 262.2656,1109.875 262.4375,1109.6563 C262.5469,1109.5 262.5781,1109.3125 262.5781,1108.8906 L262.5781,1107.4688 C262.5781,1107.0313 262.5625,1106.9063 262.4688,1106.75 C262.3125,1106.4844 262.0313,1106.3438 261.7344,1106.3438 C261.4375,1106.3438 261.2344,1106.4375 261.0156,1106.75 L260.8438,1106.6719 Z " fill="#000000"/><text fill="#000000" font-family="sans-serif" font-size="12" lengthAdjust="spacing" textLength="97" x="272.5" y="1115.1543">TokenResponse</text><line style="stroke:#A80036;stroke-width:1.5;" x1="244.5" x2="371.5" y1="1127" y2="1127"/><text fill="#000000" font-family="sans-serif" font-size="11" lengthAdjust="spacing" textLength="71" x="249.5" y="1141.2104">-string token</text><text fill="#000000" font-family="sans-serif" font-size="11" lengthAdjust="spacing" textLength="115" x="249.5" y="1154.0151">-string refreshToken</text><line style="stroke:#A80036;stroke-width:1.5;" x1="244.5" x2="371.5" y1="1160.6094" y2="1160.6094"/><!--MD5=[4d0d3465e8488f47510d349a63903d9c]
class TransacaoDTO--><rect codeLine="222" fill="#FEFECE" filter="url(#f17xwerkp9we9j)" height="112.0234" id="TransacaoDTO" style="stroke:#A80036;stroke-width:1.5;" width="134" x="408" y="1076"/><ellipse cx="429.3" cy="1092" fill="#ADD1B2" rx="11" ry="11" style="stroke:#A80036;stroke-width:1.0;"/><path d="M431.6438,1087.6719 C430.7063,1087.2344 430.1125,1087.0938 429.2375,1087.0938 C426.6125,1087.0938 424.6125,1089.1719 424.6125,1091.8906 L424.6125,1093.0156 C424.6125,1095.5938 426.7219,1097.4844 429.6125,1097.4844 C430.8313,1097.4844 431.9875,1097.1875 432.7375,1096.6406 C433.3156,1096.2344 433.6438,1095.7813 433.6438,1095.3906 C433.6438,1094.9375 433.2531,1094.5469 432.7844,1094.5469 C432.5656,1094.5469 432.3625,1094.625 432.175,1094.8125 C431.7219,1095.2969 431.7219,1095.2969 431.5344,1095.3906 C431.1125,1095.6563 430.425,1095.7813 429.6594,1095.7813 C427.6125,1095.7813 426.3156,1094.6875 426.3156,1092.9844 L426.3156,1091.8906 C426.3156,1090.1094 427.5656,1088.7969 429.3,1088.7969 C429.8781,1088.7969 430.4875,1088.9531 430.9563,1089.2031 C431.4406,1089.4844 431.6125,1089.7031 431.7063,1090.1094 C431.7688,1090.5156 431.8,1090.6406 431.9406,1090.7656 C432.0813,1090.9063 432.3156,1091.0156 432.5344,1091.0156 C432.8,1091.0156 433.0656,1090.875 433.2375,1090.6563 C433.3469,1090.5 433.3781,1090.3125 433.3781,1089.8906 L433.3781,1088.4688 C433.3781,1088.0313 433.3625,1087.9063 433.2688,1087.75 C433.1125,1087.4844 432.8313,1087.3438 432.5344,1087.3438 C432.2375,1087.3438 432.0344,1087.4375 431.8156,1087.75 L431.6438,1087.6719 Z " fill="#000000"/><text fill="#000000" font-family="sans-serif" font-size="12" lengthAdjust="spacing" textLength="88" x="444.7" y="1096.1543">TransacaoDTO</text><line style="stroke:#A80036;stroke-width:1.5;" x1="409" x2="541" y1="1108" y2="1108"/><text fill="#000000" font-family="sans-serif" font-size="11" lengthAdjust="spacing" textLength="60" x="414" y="1122.2104">-string tipo</text><text fill="#000000" font-family="sans-serif" font-size="11" lengthAdjust="spacing" textLength="122" x="414" y="1135.0151">-string nifDestinatario</text><text fill="#000000" font-family="sans-serif" font-size="11" lengthAdjust="spacing" textLength="75" x="414" y="1147.8198">-double valor</text><text fill="#000000" font-family="sans-serif" font-size="11" lengthAdjust="spacing" textLength="116" x="414" y="1160.6245">-DateTime dataHora</text><text fill="#000000" font-family="sans-serif" font-size="11" lengthAdjust="spacing" textLength="81" x="414" y="1173.4292">-string Metodo</text><line style="stroke:#A80036;stroke-width:1.5;" x1="409" x2="541" y1="1180.0234" y2="1180.0234"/><!--MD5=[6ba8f7c8b21b231e36ca04649652f184]
class Utilizador:IdentityUser--><rect codeLine="230" fill="#FEFECE" filter="url(#f17xwerkp9we9j)" height="73.6094" id="Utilizador:IdentityUser" style="stroke:#A80036;stroke-width:1.5;" width="166" x="577" y="1095"/><ellipse cx="592" cy="1111" fill="#ADD1B2" rx="11" ry="11" style="stroke:#A80036;stroke-width:1.0;"/><path d="M594.3438,1106.6719 C593.4063,1106.2344 592.8125,1106.0938 591.9375,1106.0938 C589.3125,1106.0938 587.3125,1108.1719 587.3125,1110.8906 L587.3125,1112.0156 C587.3125,1114.5938 589.4219,1116.4844 592.3125,1116.4844 C593.5313,1116.4844 594.6875,1116.1875 595.4375,1115.6406 C596.0156,1115.2344 596.3438,1114.7813 596.3438,1114.3906 C596.3438,1113.9375 595.9531,1113.5469 595.4844,1113.5469 C595.2656,1113.5469 595.0625,1113.625 594.875,1113.8125 C594.4219,1114.2969 594.4219,1114.2969 594.2344,1114.3906 C593.8125,1114.6563 593.125,1114.7813 592.3594,1114.7813 C590.3125,1114.7813 589.0156,1113.6875 589.0156,1111.9844 L589.0156,1110.8906 C589.0156,1109.1094 590.2656,1107.7969 592,1107.7969 C592.5781,1107.7969 593.1875,1107.9531 593.6563,1108.2031 C594.1406,1108.4844 594.3125,1108.7031 594.4063,1109.1094 C594.4688,1109.5156 594.5,1109.6406 594.6406,1109.7656 C594.7813,1109.9063 595.0156,1110.0156 595.2344,1110.0156 C595.5,1110.0156 595.7656,1109.875 595.9375,1109.6563 C596.0469,1109.5 596.0781,1109.3125 596.0781,1108.8906 L596.0781,1107.4688 C596.0781,1107.0313 596.0625,1106.9063 595.9688,1106.75 C595.8125,1106.4844 595.5313,1106.3438 595.2344,1106.3438 C594.9375,1106.3438 594.7344,1106.4375 594.5156,1106.75 L594.3438,1106.6719 Z " fill="#000000"/><text fill="#000000" font-family="sans-serif" font-size="12" lengthAdjust="spacing" textLength="134" x="606" y="1115.1543">Utilizador:IdentityUser</text><line style="stroke:#A80036;stroke-width:1.5;" x1="578" x2="742" y1="1127" y2="1127"/><text fill="#000000" font-family="sans-serif" font-size="11" lengthAdjust="spacing" textLength="76" x="583" y="1141.2104">-int metodoId</text><text fill="#000000" font-family="sans-serif" font-size="11" lengthAdjust="spacing" textLength="72" x="583" y="1154.0151">-string nome</text><line style="stroke:#A80036;stroke-width:1.5;" x1="578" x2="742" y1="1160.6094" y2="1160.6094"/><!--MD5=[d9f04b1f46a3b028b0f117e685ac8726]
class SignInManager<Utilizador>--><rect codeLine="239" fill="#FEFECE" filter="url(#f17xwerkp9we9j)" height="48" id="SignInManager&lt;Utilizador&gt;" style="stroke:#A80036;stroke-width:1.5;" width="197" x="2338.5" y="246"/><ellipse cx="2353.5" cy="262" fill="#ADD1B2" rx="11" ry="11" style="stroke:#A80036;stroke-width:1.0;"/><path d="M2355.8438,257.6719 C2354.9063,257.2344 2354.3125,257.0938 2353.4375,257.0938 C2350.8125,257.0938 2348.8125,259.1719 2348.8125,261.8906 L2348.8125,263.0156 C2348.8125,265.5938 2350.9219,267.4844 2353.8125,267.4844 C2355.0313,267.4844 2356.1875,267.1875 2356.9375,266.6406 C2357.5156,266.2344 2357.8438,265.7813 2357.8438,265.3906 C2357.8438,264.9375 2357.4531,264.5469 2356.9844,264.5469 C2356.7656,264.5469 2356.5625,264.625 2356.375,264.8125 C2355.9219,265.2969 2355.9219,265.2969 2355.7344,265.3906 C2355.3125,265.6563 2354.625,265.7813 2353.8594,265.7813 C2351.8125,265.7813 2350.5156,264.6875 2350.5156,262.9844 L2350.5156,261.8906 C2350.5156,260.1094 2351.7656,258.7969 2353.5,258.7969 C2354.0781,258.7969 2354.6875,258.9531 2355.1563,259.2031 C2355.6406,259.4844 2355.8125,259.7031 2355.9063,260.1094 C2355.9688,260.5156 2356,260.6406 2356.1406,260.7656 C2356.2813,260.9063 2356.5156,261.0156 2356.7344,261.0156 C2357,261.0156 2357.2656,260.875 2357.4375,260.6563 C2357.5469,260.5 2357.5781,260.3125 2357.5781,259.8906 L2357.5781,258.4688 C2357.5781,258.0313 2357.5625,257.9063 2357.4688,257.75 C2357.3125,257.4844 2357.0313,257.3438 2356.7344,257.3438 C2356.4375,257.3438 2356.2344,257.4375 2356.0156,257.75 L2355.8438,257.6719 Z " fill="#000000"/><text fill="#000000" font-family="sans-serif" font-size="12" lengthAdjust="spacing" textLength="165" x="2367.5" y="266.1543">SignInManager&lt;Utilizador&gt;</text><line style="stroke:#A80036;stroke-width:1.5;" x1="2339.5" x2="2534.5" y1="278" y2="278"/><line style="stroke:#A80036;stroke-width:1.5;" x1="2339.5" x2="2534.5" y1="286" y2="286"/><!--MD5=[d9b5d2d92bdf16fd3c7fcf1f031f0948]
class UserManager<Utilizador>--><rect codeLine="241" fill="#FEFECE" filter="url(#f17xwerkp9we9j)" height="48" id="UserManager&lt;Utilizador&gt;" style="stroke:#A80036;stroke-width:1.5;" width="190" x="2113" y="246"/><ellipse cx="2128" cy="262" fill="#ADD1B2" rx="11" ry="11" style="stroke:#A80036;stroke-width:1.0;"/><path d="M2130.3438,257.6719 C2129.4063,257.2344 2128.8125,257.0938 2127.9375,257.0938 C2125.3125,257.0938 2123.3125,259.1719 2123.3125,261.8906 L2123.3125,263.0156 C2123.3125,265.5938 2125.4219,267.4844 2128.3125,267.4844 C2129.5313,267.4844 2130.6875,267.1875 2131.4375,266.6406 C2132.0156,266.2344 2132.3438,265.7813 2132.3438,265.3906 C2132.3438,264.9375 2131.9531,264.5469 2131.4844,264.5469 C2131.2656,264.5469 2131.0625,264.625 2130.875,264.8125 C2130.4219,265.2969 2130.4219,265.2969 2130.2344,265.3906 C2129.8125,265.6563 2129.125,265.7813 2128.3594,265.7813 C2126.3125,265.7813 2125.0156,264.6875 2125.0156,262.9844 L2125.0156,261.8906 C2125.0156,260.1094 2126.2656,258.7969 2128,258.7969 C2128.5781,258.7969 2129.1875,258.9531 2129.6563,259.2031 C2130.1406,259.4844 2130.3125,259.7031 2130.4063,260.1094 C2130.4688,260.5156 2130.5,260.6406 2130.6406,260.7656 C2130.7813,260.9063 2131.0156,261.0156 2131.2344,261.0156 C2131.5,261.0156 2131.7656,260.875 2131.9375,260.6563 C2132.0469,260.5 2132.0781,260.3125 2132.0781,259.8906 L2132.0781,258.4688 C2132.0781,258.0313 2132.0625,257.9063 2131.9688,257.75 C2131.8125,257.4844 2131.5313,257.3438 2131.2344,257.3438 C2130.9375,257.3438 2130.7344,257.4375 2130.5156,257.75 L2130.3438,257.6719 Z " fill="#000000"/><text fill="#000000" font-family="sans-serif" font-size="12" lengthAdjust="spacing" textLength="158" x="2142" y="266.1543">UserManager&lt;Utilizador&gt;</text><line style="stroke:#A80036;stroke-width:1.5;" x1="2114" x2="2302" y1="278" y2="278"/><line style="stroke:#A80036;stroke-width:1.5;" x1="2114" x2="2302" y1="286" y2="286"/><!--MD5=[d3b5fd068543aa15f262ba8e71629e9d]
link ReservasController to ReservaService:IReservaService--><path codeLine="245" d="M1751.22,351.865 C1769.61,425.46 1796.36,532.443 1812.94,598.77 " fill="none" id="ReservasController-to-ReservaService:IReservaService" style="stroke:#A80036;stroke-width:1.0;"/><polygon fill="#A80036" points="1814.22,603.869,1815.9137,594.1669,1813.0053,599.0188,1808.1534,596.1104,1814.22,603.869" style="stroke:#A80036;stroke-width:1.0;"/><!--MD5=[7354d54cb7d69f800bf9b510af1b1598]
link SubAlugueresController to SubAluguerService:ISubAluguerService--><path codeLine="246" d="M1485.49,339.028 C1492.71,414.754 1504.23,535.593 1510.86,605.077 " fill="none" id="SubAlugueresController-to-SubAluguerService:ISubAluguerService" style="stroke:#A80036;stroke-width:1.0;"/><polygon fill="#A80036" points="1511.37,610.401,1514.4972,601.0618,1510.8951,605.4236,1506.5333,601.8216,1511.37,610.401" style="stroke:#A80036;stroke-width:1.0;"/><!--MD5=[2b825f068d9e93a4b8b7bd61a3f9d463]
link TransacoesController to TransacaoService:ITransacaoService--><path codeLine="247" d="M1252.23,300.801 C1245.68,371.418 1229.24,548.653 1222.24,624.109 " fill="none" id="TransacoesController-to-TransacaoService:ITransacaoService" style="stroke:#A80036;stroke-width:1.0;"/><polygon fill="#A80036" points="1221.75,629.363,1226.5647,620.7712,1222.2121,624.3844,1218.5989,620.0318,1221.75,629.363" style="stroke:#A80036;stroke-width:1.0;"/><!--MD5=[662c2ee84cb521ec91ea536957707465]
link UtilizadoresController to UtilizadorService:IUtilizadorService--><path codeLine="248" d="M1032.91,313.261 C1011.48,388.161 967.103,543.288 945.849,617.581 " fill="none" id="UtilizadoresController-to-UtilizadorService:IUtilizadorService" style="stroke:#A80036;stroke-width:1.0;"/><polygon fill="#A80036" points="944.359,622.789,950.6808,615.2369,945.7347,617.982,942.9896,613.0358,944.359,622.789" style="stroke:#A80036;stroke-width:1.0;"/><!--MD5=[66fbe67d5b465deece8791530a477b8c]
link ReservaService:IReservaService to TokenService:ITokenService--><path codeLine="250" d="M1744.6,716.189 C1720.31,731.421 1693.45,747.466 1668,761 C1611.14,791.236 1546.07,820.794 1491.02,844.423 " fill="none" id="ReservaService:IReservaService-to-TokenService:ITokenService" style="stroke:#A80036;stroke-width:1.0;"/><polygon fill="#A80036" points="1486.4,846.401,1496.248,846.529,1490.9951,844.4299,1493.0942,839.1769,1486.4,846.401" style="stroke:#A80036;stroke-width:1.0;"/><!--MD5=[83fedbbe37c313e557fbe9c02532821f]
link SubAluguerService:ISubAluguerService to TokenService:ITokenService--><path codeLine="251" d="M1484.95,709.769 C1460.34,748.41 1426.02,802.313 1400.74,842.012 " fill="none" id="SubAluguerService:ISubAluguerService-to-TokenService:ITokenService" style="stroke:#A80036;stroke-width:1.0;"/><polygon fill="#A80036" points="1398.01,846.294,1406.2118,840.8414,1400.6907,842.0733,1399.4587,836.5523,1398.01,846.294" style="stroke:#A80036;stroke-width:1.0;"/><!--MD5=[a31f2992b23af92a1ae7e724588f6c08]
link TransacaoService:ITransacaoService to TokenService:ITokenService--><path codeLine="252" d="M1237.74,690.636 C1261.78,728.641 1303.89,795.219 1333.5,842.032 " fill="none" id="TransacaoService:ITransacaoService-to-TokenService:ITokenService" style="stroke:#A80036;stroke-width:1.0;"/><polygon fill="#A80036" points="1336.32,846.5,1334.8924,836.7552,1333.6485,842.2735,1328.1301,841.0296,1336.32,846.5" style="stroke:#A80036;stroke-width:1.0;"/><!--MD5=[415a2fde2006ab2be74e5a757dc8d1be]
link UtilizadorService:IUtilizadorService to TokenService:ITokenService--><path codeLine="253" d="M979.809,697.113 C1006.46,717.241 1041.17,742 1074,761 C1127.46,791.934 1189.31,821.112 1242.37,844.294 " fill="none" id="UtilizadorService:IUtilizadorService-to-TokenService:ITokenService" style="stroke:#A80036;stroke-width:1.0;"/><polygon fill="#A80036" points="1247.15,846.377,1240.5004,839.1118,1242.5672,844.3776,1237.3014,846.4444,1247.15,846.377" style="stroke:#A80036;stroke-width:1.0;"/><!--MD5=[ff9866c913a7b81ae09617dc8effb15c]
link AlterarMetodoPagamentoDTO to AlterarNomeDTO--><!--MD5=[26aa2702532c4aa77cef253e7368abd1]
link AlterarNomeDTO to AlterarPasswordDTO--><!--MD5=[e553b7ca2787d8d6c6e73b6394e00aee]
link AlterarPasswordDTO to DepositarDTO--><!--MD5=[4a558ec82f3b45b1b3f7cf9fe29e20d0]
link AlterarMetodoPagamentoDTO to DetalheReservaDTO--><!--MD5=[68586c18de3d586f5a1eb8fe48aebd5a]
link DetalheReservaDTO to InfoUtilizadorDTO--><!--MD5=[77e324a3774b9f5cc0b9a209809923ed]
link InfoUtilizadorDTO to LugarDTO--><!--MD5=[e51e4b278578d5e31a1dd88a2e369063]
link LugarDTO to PesquisaDTO--><!--MD5=[bcb8a9b64dc9eb5a8627f6260e8a9b77]
link DetalheReservaDTO to ReservaDTO--><!--MD5=[feb77428e6cd7474ddc0110cbcb601e4]
link ReservaDTO to ResetPasswordDTO--><!--MD5=[d2687996f0667d8ee113c020b00e3938]
link ResetPasswordDTO to RevokeTokenRequest--><!--MD5=[4618587c37d1c5c3eae8c83651e77d51]
link RevokeTokenRequest to SaldoDTO--><!--MD5=[7c9659742b10c373c8538f5ee24db373]
link ReservaDTO to SubAluguerDTO--><!--MD5=[8d968bd2884a1431416840408e3a78bc]
link SubAluguerDTO to TokenResponse--><!--MD5=[4ae9224e3e62a835dca39eeca880c584]
link TokenResponse to TransacaoDTO--><!--MD5=[41a64f4c0abfe3913efd8057d66a8634]
link TransacaoDTO to Utilizador:IdentityUser--><!--MD5=[e255f2a39cb209fc9acd1da92f9882f4]
@startuml
skinparam classAttributeIconSize 0

package Services <<Folder>> {

class ReservaService:IReservaService {
  - FindAvailableAsync(nomeFreguesia, inicio, fim)
  - PostAsync(reservaDTO)
  - GetByNifAsync()
  - DeleteAsync(id)
  - GetByIdAsync(id)
}

class SubAluguerService:ISubAluguerService {
  - GetAllSubAluguerByNif()
  - PostSubAluguerAsync(subAluguerDTO)
  - DeleteSubAluguerAsync(id)
  - GetSubAluguerById(id)
}

class TokenService:ITokenService {
  - GetTokenAsync()
  - SaveToken(token)
  - GetTokenFromLoginAsync(infoUtilizadorDTO)
  - SaveCookie(refreshToken)
}

class TransacaoService:ITransacaoService {
  - GetAllTransacoesByNif()
}

class UtilizadorService:IUtilizadorService {
  - GetSaldoAsync()
  - DepositarSaldoAsync(depositarDTO)
}

}

package Controllers <<Folder>> {

class HomeController {
  +Get Index()
  +Post Pesquisa(pesquisaDTO)
  +Get Privacy()
}

class ReservasController {
  +Get Index()
  +Get Disponibilidade(pesquisaDTO)
  +Get Detalhes(id)
  +Get Subalugar(id)
  +Get Reservar(lugarDTO)
  +Post Reservar(reservaDTO)
  +Get Cancelar(id)
  +Get CancelarConfirmado(id)
  +Get VoltarAHomepage()
}

class SubAlugueresController {
  +Get Index()
  +Get Detalhes(id)
  +Get Registar(detalheReservaDTO)
  +Post Registar(subAluguerDTO)
  +Get Cancelar(id)
  +Get CancelarConfirmado(id)
  +Get VoltarAsReservas()
}

class TransacoesController {
  +Get Index()
}

class UtilizadoresController {
  +Get Saldo()
  +Get Depositar()
  +Post Depositar(depositarDTO)
}

}

package Models <<Folder>> {

class AlterarMetodoPagamentoDTO{
  -string email
  -string password
  -int metodoId
  -string numero
  -string nomeCartao
  -string dataValidade
  -string cvv
  -string iban
  -string nomeDebitoDireto
  -string rua
  -string codigoPostal
  -string freguesia
  -DateTime dataSubscricao
  -string emailPaypal
  -string passwordPaypal
}

class AlterarNomeDTO{
  -string nif
  -string nomeActual
  -string nomeNovo
}

class AlterarPasswordDTO{
  -string nif
  -string passwordActual
  -string passwordNova
}

class DepositarDTO{
  -string nif
  -double valor
}

class DetalheReservaDTO{
  -int reservaId
  -double custo
  -int reservaParqueId
  -string nomeFreguesia
  -string nomeParque
  -int numeroLugar
  -string fila
  -int andar
  -bool isSubAlugado
  -string nifProprietario
  -DateTime inicio
  -DateTime fim
}

class InfoUtilizadorDTO{
  -string email
  -string password
}

class LugarDTO{
  -int id
  -int parqueId
  -string nomeParque
  -int numero
  -string fila
  -int andar
  -double preco
  -string nifProprietario
  -int reservaSistemaCentralId
  -int parqueIdSC
  -DateTime inicio
  -DateTime fim
}

class PesquisaDTO{
  -string freguesiaNome
  -DateTime inicio
  -DateTime fim
}

class AlterarMetodoPagamentoDTO{
  -string nif
  -string nomeUtilizador
  -string emailUtilizador
  -string passwordUtilizador
  -int metodoId
  -string numero
  -string nomeCartao
  -string dataValidade
  -string cvv
  -string iban
  -string nomeDebitoDireto
  -string rua
  -string codigoPostal
  -string freguesia
  -DateTime dataSubscricao
  -string emailPaypal
  -string passwordPaypal
}

class ReservaDTO{
  -string nifComprador
  -string nifVendedor
  -int parqueIdSC
  -int metodoId
  -int reservaSistemaCentralId
  -int lugarId
  -DateTime inicio
  -DateTime fim
}

class ResetPasswordDTO{
  -string nif
  -string password
}

class RevokeTokenRequest{
  -string token
}

class SaldoDTO{
  -double valor
}

class SubAluguerDTO{
  -int id
  -int parqueId
  -string nomeParque
  -int numero
  -string fila
  -int andar
  -double preco
  -string nifProprietario
  -int reservaSistemaCentralId
  -bool isReservado
  -DateTime inicio
  -DateTime fim
}

class TokenResponse{
  -string token
  -string refreshToken
}

class TransacaoDTO{
  -string tipo
  -string nifDestinatario
  -double valor
  -DateTime dataHora
  -string Metodo
}

class Utilizador:IdentityUser{
  -int metodoId
  -string nome
}

}

package Identity <<Folder>> {

class "SignInManager<Utilizador>" {}

class "UserManager<Utilizador>" {}

}

ReservasController - -> "ReservaService:IReservaService"
SubAlugueresController - -> "SubAluguerService:ISubAluguerService"
TransacoesController - -> "TransacaoService:ITransacaoService"
UtilizadoresController - -> "UtilizadorService:IUtilizadorService"

"ReservaService:IReservaService" - -> "TokenService:ITokenService"
"SubAluguerService:ISubAluguerService" - -> "TokenService:ITokenService"
"TransacaoService:ITransacaoService" - -> "TokenService:ITokenService"
"UtilizadorService:IUtilizadorService" - -> "TokenService:ITokenService"
@enduml

PlantUML version 1.2021.3beta6(Unknown compile time)
(GPL source distribution)
Java Runtime: Java(TM) SE Runtime Environment
JVM: Java HotSpot(TM) 64-Bit Server VM
Default Encoding: UTF-8
Language: en
Country: US
--></g></svg>