<?xml version="1.0" standalone="no"?>
<!DOCTYPE svg PUBLIC "-//W3C//DTD SVG 20010904//EN"
 "http://www.w3.org/TR/2001/REC-SVG-20010904/DTD/svg10.dtd">
<svg version="1.0" xmlns="http://www.w3.org/2000/svg"
 width="469.000000pt" height="314.000000pt" viewBox="0 0 469.000000 314.000000"
 preserveAspectRatio="xMidYMid meet">

<g transform="translate(0.000000,314.000000) scale(0.100000,-0.100000)"
fill="#000000" stroke="none">
<path d="M2140 3129 c-19 -6 -59 -17 -89 -27 -91 -28 -164 -117 -191 -234 -6
-26 -10 -308 -10 -716 l0 -673 88 3 87 3 5 680 c5 733 4 709 57 757 30 28 101
48 165 48 l59 0 -3 83 -3 82 -65 2 c-36 1 -81 -3 -100 -8z"/>
<path d="M2668 2453 l-3 -688 -24 -39 c-33 -53 -105 -86 -188 -86 l-63 0 0
-80 0 -80 75 0 c140 0 225 29 289 100 46 51 72 111 86 193 6 37 10 325 10 715
l0 652 -90 0 -89 0 -3 -687z"/>
<path d="M1820 1075 l0 -65 495 0 495 0 0 65 0 65 -495 0 -495 0 0 -65z"/>
<path d="M137 664 c-4 -4 -7 -126 -7 -271 l0 -264 -25 -24 c-15 -16 -36 -25
-55 -25 -27 0 -30 -3 -30 -30 0 -28 3 -30 36 -30 50 0 102 27 122 64 15 27 17
66 17 306 l0 275 -25 3 c-14 2 -29 0 -33 -4z"/>
<path d="M381 648 c-5 -13 -11 -36 -14 -53 -15 -75 -97 -504 -103 -537 -6 -37
-5 -38 23 -38 28 0 30 3 44 63 l14 62 85 0 84 0 8 -40 c17 -85 17 -85 48 -85
36 0 36 1 11 128 -11 54 -36 183 -56 287 -20 105 -39 200 -42 213 -4 19 -12
22 -49 22 -37 0 -46 -4 -53 -22z m87 -256 c18 -92 33 -170 32 -174 0 -5 -31
-8 -70 -8 -83 0 -80 -10 -49 160 27 144 38 190 47 190 4 0 22 -75 40 -168z"/>
<path d="M677 663 c-4 -3 -7 -150 -7 -325 l0 -318 29 0 c38 0 42 14 40 127 -1
71 2 98 15 118 9 14 20 25 24 25 4 0 38 -61 75 -135 64 -128 68 -135 97 -135
16 0 30 4 30 9 0 5 -36 84 -81 175 l-81 167 76 136 c42 75 76 142 76 150 0 10
-9 13 -27 11 -25 -3 -38 -21 -108 -147 -44 -79 -84 -145 -90 -145 -6 -1 -8 48
-6 126 1 70 0 136 -4 147 -6 20 -43 29 -58 14z"/>
<path d="M1057 664 c-4 -4 -7 -151 -7 -326 l0 -318 35 0 35 0 -2 323 -3 322
-25 3 c-14 2 -29 0 -33 -4z"/>
<path d="M1207 663 c-4 -3 -7 -150 -7 -325 l0 -318 30 0 30 0 0 237 c0 146 4
233 9 227 5 -5 16 -45 25 -89 8 -44 29 -144 46 -223 16 -79 30 -145 30 -148 0
-8 59 -4 64 4 5 8 96 453 96 468 0 3 5 2 10 -1 6 -4 10 -95 10 -241 l0 -234
30 0 30 0 -2 323 -3 322 -43 3 c-29 2 -44 -1 -48 -11 -3 -8 -26 -119 -52 -247
-26 -129 -51 -233 -57 -232 -5 0 -19 50 -31 109 -42 207 -76 368 -81 376 -5 9
-77 9 -86 0z"/>
<path d="M1698 664 c-5 -4 -8 -151 -8 -326 l0 -318 96 0 c115 0 154 15 181 68
16 32 18 64 18 257 0 246 -5 269 -68 302 -34 18 -206 32 -219 17z m177 -68
c45 -19 47 -34 43 -279 -3 -195 -3 -199 -27 -218 -16 -13 -39 -19 -77 -19
l-54 0 0 258 c0 142 3 262 7 265 11 12 72 8 108 -7z"/>
<path d="M2173 658 c-5 -7 -24 -89 -42 -183 -18 -93 -36 -190 -42 -215 -21
-102 -39 -203 -39 -222 0 -15 6 -19 27 -16 23 2 28 9 35 43 18 93 9 85 102 85
l85 0 13 -62 c14 -60 16 -63 46 -66 18 -2 32 0 32 5 0 14 -110 586 -118 613
-6 21 -15 26 -48 28 -25 2 -45 -2 -51 -10z m82 -264 c18 -93 31 -172 29 -176
-8 -12 -144 -10 -144 3 0 5 6 40 14 77 8 37 22 108 31 157 19 103 23 120 31
113 3 -3 20 -82 39 -174z"/>
<path d="M2513 650 c-39 -23 -51 -46 -59 -104 -12 -84 8 -124 110 -223 101
-97 114 -125 96 -193 -12 -43 -50 -65 -93 -55 -37 10 -50 30 -57 84 -4 41 -8
46 -30 46 -22 0 -25 -5 -28 -42 -4 -51 18 -106 52 -128 34 -23 136 -24 169 -2
53 35 75 151 41 223 -9 19 -54 68 -99 109 -92 83 -112 124 -94 190 11 39 34
55 77 55 36 0 61 -27 69 -74 5 -32 9 -36 34 -36 27 0 29 3 29 35 0 44 -21 86
-56 114 -35 28 -116 29 -161 1z"/>
<path d="M2868 654 c-16 -8 -37 -32 -48 -54 -18 -36 -20 -59 -20 -254 0 -242
7 -278 62 -310 40 -24 128 -25 162 -2 40 26 59 73 60 146 l1 65 -30 0 -30 0
-3 -67 c-3 -59 -6 -70 -30 -88 -32 -25 -76 -21 -107 11 -18 18 -20 35 -23 201
-2 100 -1 201 3 224 8 53 36 84 78 84 53 0 71 -20 77 -87 5 -58 5 -58 39 -61
l34 -3 -6 59 c-9 104 -55 152 -144 152 -26 -1 -60 -8 -75 -16z"/>
<path d="M3223 650 c-59 -36 -63 -54 -63 -310 0 -255 3 -270 63 -305 34 -20
121 -24 154 -6 12 6 32 26 45 43 22 32 23 42 26 252 4 251 -4 289 -62 326 -44
26 -120 27 -163 0z m134 -62 c23 -21 23 -24 23 -244 0 -247 -3 -258 -67 -270
-27 -5 -37 -1 -63 25 l-31 31 3 219 c3 199 5 221 22 240 26 28 82 28 113 -1z"/>
<path d="M3525 648 c-3 -13 -4 -158 -3 -323 l3 -300 33 -3 32 -3 0 325 0 326
-30 0 c-22 0 -31 -5 -35 -22z"/>
<path d="M3660 652 c0 -10 11 -74 24 -143 14 -68 39 -200 56 -294 18 -94 33
-176 36 -183 2 -7 22 -12 53 -12 45 0 51 3 55 23 12 58 37 195 62 327 14 80
32 173 40 208 8 35 14 70 14 78 0 16 -45 20 -55 5 -6 -10 -49 -227 -80 -401
-24 -139 -25 -141 -35 -135 -5 3 -12 22 -15 43 -19 109 -84 459 -91 485 -7 25
-64 24 -64 -1z"/>
<path d="M4070 345 l0 -325 131 0 130 0 -3 28 c-3 27 -3 27 -98 32 l-95 5 0
115 0 115 78 3 78 3 -3 27 c-3 26 -5 27 -68 29 -36 1 -71 2 -77 2 -10 1 -13
30 -13 110 0 90 3 110 16 115 9 3 54 6 100 6 l85 0 -3 28 -3 27 -127 3 -128 3
0 -326z"/>
<path d="M4460 653 c-37 -25 -48 -43 -59 -93 -6 -30 -6 -61 1 -94 9 -44 21
-60 106 -142 94 -91 95 -93 100 -146 5 -63 -14 -94 -64 -104 -44 -8 -82 27
-92 86 -7 39 -11 45 -32 45 -23 0 -25 -4 -24 -45 1 -93 49 -143 138 -143 97 0
141 47 141 153 0 80 -21 118 -103 185 -88 72 -106 99 -107 161 0 66 22 94 76
94 43 0 65 -22 75 -77 5 -29 10 -33 36 -33 30 0 30 1 24 41 -9 58 -31 96 -66
114 -39 20 -119 19 -150 -2z"/>
</g>
</svg>
