<?xml version="1.0" encoding="UTF-8" standalone="no"?><svg xmlns="http://www.w3.org/2000/svg" xmlns:xlink="http://www.w3.org/1999/xlink" contentScriptType="application/ecmascript" contentStyleType="text/css" height="265px" preserveAspectRatio="none" style="width:328px;height:265px;" version="1.1" viewBox="0 0 328 265" width="328px" zoomAndPan="magnify"><defs><filter height="300%" id="fpfugr3ncc9d" width="300%" x="-1" y="-1"><feGaussianBlur result="blurOut" stdDeviation="2.0"/><feColorMatrix in="blurOut" result="blurOut2" type="matrix" values="0 0 0 0 0 0 0 0 0 0 0 0 0 0 0 0 0 0 .4 0"/><feOffset dx="4.0" dy="4.0" in="blurOut2" result="blurOut3"/><feBlend in="SourceGraphic" in2="blurOut3" mode="normal"/></filter></defs><g><rect fill="#FFFFFF" filter="url(#fpfugr3ncc9d)" height="65.3984" style="stroke:#A80036;stroke-width:1.0;" width="10" x="60.5" y="98.2969"/><rect fill="#FFFFFF" filter="url(#fpfugr3ncc9d)" height="44.2656" style="stroke:#A80036;stroke-width:1.0;" width="10" x="263.5" y="119.4297"/><line style="stroke:#A80036;stroke-width:1.0;stroke-dasharray:5.0,5.0;" x1="65" x2="65" y1="88.2969" y2="181.6953"/><line style="stroke:#A80036;stroke-width:1.0;stroke-dasharray:5.0,5.0;" x1="268.5" x2="268.5" y1="88.2969" y2="181.6953"/><text fill="#000000" font-family="sans-serif" font-size="14" lengthAdjust="spacing" textLength="115" x="5" y="84.9951">Sistema Central</text><ellipse cx="65.5" cy="15" fill="#FEFECE" filter="url(#fpfugr3ncc9d)" rx="8" ry="8" style="stroke:#A80036;stroke-width:2.0;"/><path d="M65.5,23 L65.5,50 M52.5,31 L78.5,31 M65.5,50 L52.5,65 M65.5,50 L78.5,65 " fill="none" filter="url(#fpfugr3ncc9d)" style="stroke:#A80036;stroke-width:2.0;"/><text fill="#000000" font-family="sans-serif" font-size="14" lengthAdjust="spacing" textLength="115" x="5" y="193.6904">Sistema Central</text><ellipse cx="65.5" cy="206.9922" fill="#FEFECE" filter="url(#fpfugr3ncc9d)" rx="8" ry="8" style="stroke:#A80036;stroke-width:2.0;"/><path d="M65.5,214.9922 L65.5,241.9922 M52.5,222.9922 L78.5,222.9922 M65.5,241.9922 L52.5,256.9922 M65.5,241.9922 L78.5,256.9922 " fill="none" filter="url(#fpfugr3ncc9d)" style="stroke:#A80036;stroke-width:2.0;"/><rect fill="#FEFECE" filter="url(#fpfugr3ncc9d)" height="30.2969" style="stroke:#A80036;stroke-width:1.5;" width="96" x="218.5" y="53"/><text fill="#000000" font-family="sans-serif" font-size="14" lengthAdjust="spacing" textLength="82" x="225.5" y="72.9951">:API.Parque</text><rect fill="#FEFECE" filter="url(#fpfugr3ncc9d)" height="30.2969" style="stroke:#A80036;stroke-width:1.5;" width="96" x="218.5" y="180.6953"/><text fill="#000000" font-family="sans-serif" font-size="14" lengthAdjust="spacing" textLength="82" x="225.5" y="200.6904">:API.Parque</text><rect fill="#FFFFFF" filter="url(#fpfugr3ncc9d)" height="65.3984" style="stroke:#A80036;stroke-width:1.0;" width="10" x="60.5" y="98.2969"/><rect fill="#FFFFFF" filter="url(#fpfugr3ncc9d)" height="44.2656" style="stroke:#A80036;stroke-width:1.0;" width="10" x="263.5" y="119.4297"/><polygon fill="#A80036" points="251.5,115.4297,261.5,119.4297,251.5,123.4297,255.5,119.4297" style="stroke:#A80036;stroke-width:1.0;"/><line style="stroke:#A80036;stroke-width:1.0;" x1="70.5" x2="257.5" y1="119.4297" y2="119.4297"/><text fill="#000000" font-family="sans-serif" font-size="13" font-weight="bold" lengthAdjust="spacing" textLength="9" x="77.5" y="114.3638">1</text><text fill="#000000" font-family="sans-serif" font-size="13" lengthAdjust="spacing" textLength="89" x="90.5" y="114.3638">Inicia Reserva</text><polygon fill="#A80036" points="76.5,159.6953,66.5,163.6953,76.5,167.6953,72.5,163.6953" style="stroke:#A80036;stroke-width:1.0;"/><line style="stroke:#A80036;stroke-width:1.0;stroke-dasharray:2.0,2.0;" x1="70.5" x2="267.5" y1="163.6953" y2="163.6953"/><text fill="#000000" font-family="sans-serif" font-size="13" font-weight="bold" lengthAdjust="spacing" textLength="9" x="82.5" y="151.063">2</text><text fill="#000000" font-family="sans-serif" font-size="13" lengthAdjust="spacing" textLength="156" x="95.5" y="143.4966">Operação bem sucedida</text><text fill="#000000" font-family="sans-serif" font-size="13" lengthAdjust="spacing" textLength="84" x="95.5" y="158.6294">cCia Reserva</text><!--MD5=[2421ddfe0aa044ca02df9465f73ab5c5]
@startuml
autonumber
actor "Sistema Central" as UserNR

activate UserNR
UserNR -> ":API.Parque" : Inicia Reserva
activate ":API.Parque"
":API.Parque" - -> UserNR : Operação bem sucedida\ncCia Reserva
deactivate ":API.Parque"

deactivate UserNR
@enduml

PlantUML version 1.2021.01beta3(Unknown compile time)
(GPL source distribution)
Java Runtime: Java(TM) SE Runtime Environment
JVM: Java HotSpot(TM) 64-Bit Server VM
Default Encoding: UTF-8
Language: en
Country: US
--></g></svg>