<?xml version="1.0" encoding="UTF-8" standalone="no"?><svg xmlns="http://www.w3.org/2000/svg" xmlns:xlink="http://www.w3.org/1999/xlink" contentScriptType="application/ecmascript" contentStyleType="text/css" height="382px" preserveAspectRatio="none" style="width:539px;height:382px;" version="1.1" viewBox="0 0 539 382" width="539px" zoomAndPan="magnify"><defs><filter height="300%" id="f1f7pspqh2x4jw" width="300%" x="-1" y="-1"><feGaussianBlur result="blurOut" stdDeviation="2.0"/><feColorMatrix in="blurOut" result="blurOut2" type="matrix" values="0 0 0 0 0 0 0 0 0 0 0 0 0 0 0 0 0 0 .4 0"/><feOffset dx="4.0" dy="4.0" in="blurOut2" result="blurOut3"/><feBlend in="SourceGraphic" in2="blurOut3" mode="normal"/></filter></defs><g><rect fill="#FFFFFF" filter="url(#f1f7pspqh2x4jw)" height="181.9297" style="stroke:#A80036;stroke-width:1.0;" width="10" x="29" y="98.2969"/><rect fill="#FFFFFF" filter="url(#f1f7pspqh2x4jw)" height="160.7969" style="stroke:#A80036;stroke-width:1.0;" width="10" x="230" y="119.4297"/><rect fill="#FFFFFF" filter="url(#f1f7pspqh2x4jw)" height="29.1328" style="stroke:#A80036;stroke-width:1.0;" width="10" x="383" y="148.5625"/><rect fill="#FFFFFF" filter="url(#f1f7pspqh2x4jw)" height="29.1328" style="stroke:#A80036;stroke-width:1.0;" width="10" x="484.5" y="206.8281"/><line style="stroke:#A80036;stroke-width:1.0;stroke-dasharray:5.0,5.0;" x1="34" x2="34" y1="88.2969" y2="298.2266"/><line style="stroke:#A80036;stroke-width:1.0;stroke-dasharray:5.0,5.0;" x1="234.5" x2="234.5" y1="88.2969" y2="298.2266"/><line style="stroke:#A80036;stroke-width:1.0;stroke-dasharray:5.0,5.0;" x1="387.5" x2="387.5" y1="88.2969" y2="298.2266"/><line style="stroke:#A80036;stroke-width:1.0;stroke-dasharray:5.0,5.0;" x1="489.5" x2="489.5" y1="88.2969" y2="298.2266"/><text fill="#000000" font-family="sans-serif" font-size="14" lengthAdjust="spacing" textLength="52" x="5" y="84.9951">Cliente</text><ellipse cx="34" cy="15" fill="#FEFECE" filter="url(#f1f7pspqh2x4jw)" rx="8" ry="8" style="stroke:#A80036;stroke-width:2.0;"/><path d="M34,23 L34,50 M21,31 L47,31 M34,50 L21,65 M34,50 L47,65 " fill="none" filter="url(#f1f7pspqh2x4jw)" style="stroke:#A80036;stroke-width:2.0;"/><text fill="#000000" font-family="sans-serif" font-size="14" lengthAdjust="spacing" textLength="52" x="5" y="310.2217">Cliente</text><ellipse cx="34" cy="323.5234" fill="#FEFECE" filter="url(#f1f7pspqh2x4jw)" rx="8" ry="8" style="stroke:#A80036;stroke-width:2.0;"/><path d="M34,331.5234 L34,358.5234 M21,339.5234 L47,339.5234 M34,358.5234 L21,373.5234 M34,358.5234 L47,373.5234 " fill="none" filter="url(#f1f7pspqh2x4jw)" style="stroke:#A80036;stroke-width:2.0;"/><rect fill="#FEFECE" filter="url(#f1f7pspqh2x4jw)" height="30.2969" style="stroke:#A80036;stroke-width:1.5;" width="179" x="143.5" y="53"/><text fill="#000000" font-family="sans-serif" font-size="14" lengthAdjust="spacing" textLength="165" x="150.5" y="72.9951">:api/reservasController</text><rect fill="#FEFECE" filter="url(#f1f7pspqh2x4jw)" height="30.2969" style="stroke:#A80036;stroke-width:1.5;" width="179" x="143.5" y="297.2266"/><text fill="#000000" font-family="sans-serif" font-size="14" lengthAdjust="spacing" textLength="165" x="150.5" y="317.2217">:api/reservasController</text><rect fill="#FEFECE" filter="url(#f1f7pspqh2x4jw)" height="30.2969" style="stroke:#A80036;stroke-width:1.5;" width="99" x="336.5" y="53"/><text fill="#000000" font-family="sans-serif" font-size="14" lengthAdjust="spacing" textLength="85" x="343.5" y="72.9951">:api/reserva</text><rect fill="#FEFECE" filter="url(#f1f7pspqh2x4jw)" height="30.2969" style="stroke:#A80036;stroke-width:1.5;" width="99" x="336.5" y="297.2266"/><text fill="#000000" font-family="sans-serif" font-size="14" lengthAdjust="spacing" textLength="85" x="343.5" y="317.2217">:api/reserva</text><rect fill="#FEFECE" filter="url(#f1f7pspqh2x4jw)" height="30.2969" style="stroke:#A80036;stroke-width:1.5;" width="76" x="449.5" y="53"/><text fill="#000000" font-family="sans-serif" font-size="14" lengthAdjust="spacing" textLength="62" x="456.5" y="72.9951">:context</text><rect fill="#FEFECE" filter="url(#f1f7pspqh2x4jw)" height="30.2969" style="stroke:#A80036;stroke-width:1.5;" width="76" x="449.5" y="297.2266"/><text fill="#000000" font-family="sans-serif" font-size="14" lengthAdjust="spacing" textLength="62" x="456.5" y="317.2217">:context</text><rect fill="#FFFFFF" filter="url(#f1f7pspqh2x4jw)" height="181.9297" style="stroke:#A80036;stroke-width:1.0;" width="10" x="29" y="98.2969"/><rect fill="#FFFFFF" filter="url(#f1f7pspqh2x4jw)" height="160.7969" style="stroke:#A80036;stroke-width:1.0;" width="10" x="230" y="119.4297"/><rect fill="#FFFFFF" filter="url(#f1f7pspqh2x4jw)" height="29.1328" style="stroke:#A80036;stroke-width:1.0;" width="10" x="383" y="148.5625"/><rect fill="#FFFFFF" filter="url(#f1f7pspqh2x4jw)" height="29.1328" style="stroke:#A80036;stroke-width:1.0;" width="10" x="484.5" y="206.8281"/><polygon fill="#A80036" points="218,115.4297,228,119.4297,218,123.4297,222,119.4297" style="stroke:#A80036;stroke-width:1.0;"/><line style="stroke:#A80036;stroke-width:1.0;stroke-dasharray:2.0,2.0;" x1="39" x2="224" y1="119.4297" y2="119.4297"/><text fill="#000000" font-family="sans-serif" font-size="13" font-weight="bold" lengthAdjust="spacing" textLength="9" x="46" y="114.3638">1</text><text fill="#000000" font-family="sans-serif" font-size="13" lengthAdjust="spacing" textLength="97" x="59" y="114.3638">solicita reserva</text><polygon fill="#A80036" points="371,144.5625,381,148.5625,371,152.5625,375,148.5625" style="stroke:#A80036;stroke-width:1.0;"/><line style="stroke:#A80036;stroke-width:1.0;stroke-dasharray:2.0,2.0;" x1="240" x2="377" y1="148.5625" y2="148.5625"/><text fill="#000000" font-family="sans-serif" font-size="13" font-weight="bold" lengthAdjust="spacing" textLength="9" x="247" y="143.4966">2</text><text fill="#000000" font-family="sans-serif" font-size="13" lengthAdjust="spacing" textLength="91" x="260" y="143.4966">valida reserva</text><polygon fill="#A80036" points="251,173.6953,241,177.6953,251,181.6953,247,177.6953" style="stroke:#A80036;stroke-width:1.0;"/><line style="stroke:#A80036;stroke-width:1.0;stroke-dasharray:2.0,2.0;" x1="245" x2="387" y1="177.6953" y2="177.6953"/><text fill="#000000" font-family="sans-serif" font-size="13" font-weight="bold" lengthAdjust="spacing" textLength="8" x="257" y="172.6294">3</text><text fill="#000000" font-family="sans-serif" font-size="13" lengthAdjust="spacing" textLength="107" x="269" y="172.6294">reserva validada</text><polygon fill="#A80036" points="472.5,202.8281,482.5,206.8281,472.5,210.8281,476.5,206.8281" style="stroke:#A80036;stroke-width:1.0;"/><line style="stroke:#A80036;stroke-width:1.0;stroke-dasharray:2.0,2.0;" x1="240" x2="478.5" y1="206.8281" y2="206.8281"/><text fill="#000000" font-family="sans-serif" font-size="13" font-weight="bold" lengthAdjust="spacing" textLength="9" x="247" y="201.7622">4</text><text fill="#000000" font-family="sans-serif" font-size="13" lengthAdjust="spacing" textLength="84" x="260" y="201.7622">Add(reserva)</text><polygon fill="#A80036" points="251,231.9609,241,235.9609,251,239.9609,247,235.9609" style="stroke:#A80036;stroke-width:1.0;"/><line style="stroke:#A80036;stroke-width:1.0;stroke-dasharray:2.0,2.0;" x1="245" x2="488.5" y1="235.9609" y2="235.9609"/><text fill="#000000" font-family="sans-serif" font-size="13" font-weight="bold" lengthAdjust="spacing" textLength="9" x="257" y="230.895">5</text><text fill="#000000" font-family="sans-serif" font-size="13" lengthAdjust="spacing" textLength="137" x="270" y="230.895">SaveChangesAsync()</text><polygon fill="#A80036" points="45,276.2266,35,280.2266,45,284.2266,41,280.2266" style="stroke:#A80036;stroke-width:1.0;"/><line style="stroke:#A80036;stroke-width:1.0;stroke-dasharray:2.0,2.0;" x1="39" x2="234" y1="280.2266" y2="280.2266"/><text fill="#000000" font-family="sans-serif" font-size="13" font-weight="bold" lengthAdjust="spacing" textLength="9" x="51" y="267.5942">6</text><text fill="#000000" font-family="sans-serif" font-size="13" lengthAdjust="spacing" textLength="115" x="64" y="260.0278">CreatedAtAction()</text><text fill="#000000" font-family="sans-serif" font-size="13" lengthAdjust="spacing" textLength="154" x="64" y="275.1606">operação bem sucedida</text><!--MD5=[3d7d752ee1257e4f1ba1121bfc1db4e8]
@startuml
autonumber
actor "Cliente" as CL
participant ":api/reservasController" as RC
participant ":api/reserva" as R
participant ":context" as C

activate CL
CL - -> RC : solicita reserva
activate RC

RC - -> R : valida reserva
activate R

R - -> RC : reserva validada
deactivate R

RC - -> C : Add(reserva)
activate C

C - -> RC : SaveChangesAsync()
deactivate C

RC - -> CL: CreatedAtAction()\noperação bem sucedida
deactivate RC
deactivate CL
@enduml

PlantUML version 1.2021.01beta7(Unknown compile time)
(GPL source distribution)
Java Runtime: Java(TM) SE Runtime Environment
JVM: Java HotSpot(TM) 64-Bit Server VM
Default Encoding: UTF-8
Language: en
Country: US
--></g></svg>