<?xml version="1.0" encoding="UTF-8" standalone="no"?><svg xmlns="http://www.w3.org/2000/svg" xmlns:xlink="http://www.w3.org/1999/xlink" contentScriptType="application/ecmascript" contentStyleType="text/css" height="353px" preserveAspectRatio="none" style="width:594px;height:353px;" version="1.1" viewBox="0 0 594 353" width="594px" zoomAndPan="magnify"><defs><filter height="300%" id="f1iq2y5iea0ywl" width="300%" x="-1" y="-1"><feGaussianBlur result="blurOut" stdDeviation="2.0"/><feColorMatrix in="blurOut" result="blurOut2" type="matrix" values="0 0 0 0 0 0 0 0 0 0 0 0 0 0 0 0 0 0 .4 0"/><feOffset dx="4.0" dy="4.0" in="blurOut2" result="blurOut3"/><feBlend in="SourceGraphic" in2="blurOut3" mode="normal"/></filter></defs><g><rect fill="#FFFFFF" filter="url(#f1iq2y5iea0ywl)" height="152.7969" style="stroke:#A80036;stroke-width:1.0;" width="10" x="60.5" y="98.2969"/><rect fill="#FFFFFF" filter="url(#f1iq2y5iea0ywl)" height="131.6641" style="stroke:#A80036;stroke-width:1.0;" width="10" x="261.5" y="119.4297"/><rect fill="#FFFFFF" filter="url(#f1iq2y5iea0ywl)" height="29.1328" style="stroke:#A80036;stroke-width:1.0;" width="10" x="414.5" y="148.5625"/><rect fill="#FFFFFF" filter="url(#f1iq2y5iea0ywl)" height="29.1328" style="stroke:#A80036;stroke-width:1.0;" width="10" x="539.5" y="177.6953"/><line style="stroke:#A80036;stroke-width:1.0;stroke-dasharray:5.0,5.0;" x1="65" x2="65" y1="88.2969" y2="269.0938"/><line style="stroke:#A80036;stroke-width:1.0;stroke-dasharray:5.0,5.0;" x1="266" x2="266" y1="88.2969" y2="269.0938"/><line style="stroke:#A80036;stroke-width:1.0;stroke-dasharray:5.0,5.0;" x1="419" x2="419" y1="88.2969" y2="269.0938"/><line style="stroke:#A80036;stroke-width:1.0;stroke-dasharray:5.0,5.0;" x1="544.5" x2="544.5" y1="88.2969" y2="269.0938"/><text fill="#000000" font-family="sans-serif" font-size="14" lengthAdjust="spacing" textLength="115" x="5" y="84.9951">Sistema Central</text><ellipse cx="65.5" cy="15" fill="#FEFECE" filter="url(#f1iq2y5iea0ywl)" rx="8" ry="8" style="stroke:#A80036;stroke-width:2.0;"/><path d="M65.5,23 L65.5,50 M52.5,31 L78.5,31 M65.5,50 L52.5,65 M65.5,50 L78.5,65 " fill="none" filter="url(#f1iq2y5iea0ywl)" style="stroke:#A80036;stroke-width:2.0;"/><text fill="#000000" font-family="sans-serif" font-size="14" lengthAdjust="spacing" textLength="115" x="5" y="281.0889">Sistema Central</text><ellipse cx="65.5" cy="294.3906" fill="#FEFECE" filter="url(#f1iq2y5iea0ywl)" rx="8" ry="8" style="stroke:#A80036;stroke-width:2.0;"/><path d="M65.5,302.3906 L65.5,329.3906 M52.5,310.3906 L78.5,310.3906 M65.5,329.3906 L52.5,344.3906 M65.5,329.3906 L78.5,344.3906 " fill="none" filter="url(#f1iq2y5iea0ywl)" style="stroke:#A80036;stroke-width:2.0;"/><rect fill="#FEFECE" filter="url(#f1iq2y5iea0ywl)" height="30.2969" style="stroke:#A80036;stroke-width:1.5;" width="179" x="175" y="53"/><text fill="#000000" font-family="sans-serif" font-size="14" lengthAdjust="spacing" textLength="165" x="182" y="72.9951">:api/reservasController</text><rect fill="#FEFECE" filter="url(#f1iq2y5iea0ywl)" height="30.2969" style="stroke:#A80036;stroke-width:1.5;" width="179" x="175" y="268.0938"/><text fill="#000000" font-family="sans-serif" font-size="14" lengthAdjust="spacing" textLength="165" x="182" y="288.0889">:api/reservasController</text><rect fill="#FEFECE" filter="url(#f1iq2y5iea0ywl)" height="30.2969" style="stroke:#A80036;stroke-width:1.5;" width="99" x="368" y="53"/><text fill="#000000" font-family="sans-serif" font-size="14" lengthAdjust="spacing" textLength="85" x="375" y="72.9951">:api/reserva</text><rect fill="#FEFECE" filter="url(#f1iq2y5iea0ywl)" height="30.2969" style="stroke:#A80036;stroke-width:1.5;" width="99" x="368" y="268.0938"/><text fill="#000000" font-family="sans-serif" font-size="14" lengthAdjust="spacing" textLength="85" x="375" y="288.0889">:api/reserva</text><rect fill="#FEFECE" filter="url(#f1iq2y5iea0ywl)" height="30.2969" style="stroke:#A80036;stroke-width:1.5;" width="76" x="504.5" y="53"/><text fill="#000000" font-family="sans-serif" font-size="14" lengthAdjust="spacing" textLength="62" x="511.5" y="72.9951">:context</text><rect fill="#FEFECE" filter="url(#f1iq2y5iea0ywl)" height="30.2969" style="stroke:#A80036;stroke-width:1.5;" width="76" x="504.5" y="268.0938"/><text fill="#000000" font-family="sans-serif" font-size="14" lengthAdjust="spacing" textLength="62" x="511.5" y="288.0889">:context</text><rect fill="#FFFFFF" filter="url(#f1iq2y5iea0ywl)" height="152.7969" style="stroke:#A80036;stroke-width:1.0;" width="10" x="60.5" y="98.2969"/><rect fill="#FFFFFF" filter="url(#f1iq2y5iea0ywl)" height="131.6641" style="stroke:#A80036;stroke-width:1.0;" width="10" x="261.5" y="119.4297"/><rect fill="#FFFFFF" filter="url(#f1iq2y5iea0ywl)" height="29.1328" style="stroke:#A80036;stroke-width:1.0;" width="10" x="414.5" y="148.5625"/><rect fill="#FFFFFF" filter="url(#f1iq2y5iea0ywl)" height="29.1328" style="stroke:#A80036;stroke-width:1.0;" width="10" x="539.5" y="177.6953"/><polygon fill="#A80036" points="249.5,115.4297,259.5,119.4297,249.5,123.4297,253.5,119.4297" style="stroke:#A80036;stroke-width:1.0;"/><line style="stroke:#A80036;stroke-width:1.0;stroke-dasharray:2.0,2.0;" x1="70.5" x2="255.5" y1="119.4297" y2="119.4297"/><text fill="#000000" font-family="sans-serif" font-size="13" font-weight="bold" lengthAdjust="spacing" textLength="9" x="77.5" y="114.3638">1</text><text fill="#000000" font-family="sans-serif" font-size="13" lengthAdjust="spacing" textLength="97" x="90.5" y="114.3638">solicita reserva</text><polygon fill="#A80036" points="402.5,144.5625,412.5,148.5625,402.5,152.5625,406.5,148.5625" style="stroke:#A80036;stroke-width:1.0;"/><line style="stroke:#A80036;stroke-width:1.0;stroke-dasharray:2.0,2.0;" x1="271.5" x2="408.5" y1="148.5625" y2="148.5625"/><text fill="#000000" font-family="sans-serif" font-size="13" font-weight="bold" lengthAdjust="spacing" textLength="9" x="278.5" y="143.4966">2</text><text fill="#000000" font-family="sans-serif" font-size="13" lengthAdjust="spacing" textLength="84" x="291.5" y="143.4966">Add(reserva)</text><polygon fill="#A80036" points="527.5,173.6953,537.5,177.6953,527.5,181.6953,531.5,177.6953" style="stroke:#A80036;stroke-width:1.0;"/><line style="stroke:#A80036;stroke-width:1.0;stroke-dasharray:2.0,2.0;" x1="419.5" x2="533.5" y1="177.6953" y2="177.6953"/><text fill="#000000" font-family="sans-serif" font-size="13" font-weight="bold" lengthAdjust="spacing" textLength="8" x="426.5" y="172.6294">3</text><text fill="#000000" font-family="sans-serif" font-size="13" lengthAdjust="spacing" textLength="84" x="438.5" y="172.6294">Add(reserva)</text><polygon fill="#A80036" points="282.5,202.8281,272.5,206.8281,282.5,210.8281,278.5,206.8281" style="stroke:#A80036;stroke-width:1.0;"/><line style="stroke:#A80036;stroke-width:1.0;stroke-dasharray:2.0,2.0;" x1="276.5" x2="543.5" y1="206.8281" y2="206.8281"/><text fill="#000000" font-family="sans-serif" font-size="13" font-weight="bold" lengthAdjust="spacing" textLength="9" x="288.5" y="201.7622">4</text><text fill="#000000" font-family="sans-serif" font-size="13" lengthAdjust="spacing" textLength="136" x="301.5" y="201.7622">saveChangesAsync()</text><polygon fill="#A80036" points="76.5,247.0938,66.5,251.0938,76.5,255.0938,72.5,251.0938" style="stroke:#A80036;stroke-width:1.0;"/><line style="stroke:#A80036;stroke-width:1.0;stroke-dasharray:2.0,2.0;" x1="70.5" x2="265.5" y1="251.0938" y2="251.0938"/><text fill="#000000" font-family="sans-serif" font-size="13" font-weight="bold" lengthAdjust="spacing" textLength="9" x="82.5" y="238.4614">5</text><text fill="#000000" font-family="sans-serif" font-size="13" lengthAdjust="spacing" textLength="115" x="95.5" y="230.895">CreatedAtAction()</text><text fill="#000000" font-family="sans-serif" font-size="13" lengthAdjust="spacing" textLength="154" x="95.5" y="246.0278">operação bem sucedida</text><!--MD5=[bc4b3b7e95a0f2e3bc151449f5dd10db]
@startuml
autonumber
actor "Sistema Central" as SC
participant ":api/reservasController" as RC
participant ":api/reserva" as R
participant ":context" as C

activate SC
SC - -> RC : solicita reserva
activate RC

RC - -> R : Add(reserva)
activate R


R - -> C : Add(reserva)
deactivate R
activate C


C - -> RC : saveChangesAsync()
deactivate C

RC - -> SC: CreatedAtAction()\noperação bem sucedida
deactivate RC
deactivate SC
@enduml

PlantUML version 1.2021.01beta3(Unknown compile time)
(GPL source distribution)
Java Runtime: Java(TM) SE Runtime Environment
JVM: Java HotSpot(TM) 64-Bit Server VM
Default Encoding: UTF-8
Language: en
Country: US
--></g></svg>