<?xml version="1.0" encoding="UTF-8" standalone="no"?><svg xmlns="http://www.w3.org/2000/svg" xmlns:xlink="http://www.w3.org/1999/xlink" contentScriptType="application/ecmascript" contentStyleType="text/css" height="353px" preserveAspectRatio="none" style="width:563px;height:353px;" version="1.1" viewBox="0 0 563 353" width="563px" zoomAndPan="magnify"><defs><filter height="300%" id="f13k73l6inmwtt" width="300%" x="-1" y="-1"><feGaussianBlur result="blurOut" stdDeviation="2.0"/><feColorMatrix in="blurOut" result="blurOut2" type="matrix" values="0 0 0 0 0 0 0 0 0 0 0 0 0 0 0 0 0 0 .4 0"/><feOffset dx="4.0" dy="4.0" in="blurOut2" result="blurOut3"/><feBlend in="SourceGraphic" in2="blurOut3" mode="normal"/></filter></defs><g><rect fill="#FFFFFF" filter="url(#f13k73l6inmwtt)" height="152.7969" style="stroke:#A80036;stroke-width:1.0;" width="10" x="29" y="98.2969"/><rect fill="#FFFFFF" filter="url(#f13k73l6inmwtt)" height="131.6641" style="stroke:#A80036;stroke-width:1.0;" width="10" x="230" y="119.4297"/><rect fill="#FFFFFF" filter="url(#f13k73l6inmwtt)" height="29.1328" style="stroke:#A80036;stroke-width:1.0;" width="10" x="383" y="148.5625"/><rect fill="#FFFFFF" filter="url(#f13k73l6inmwtt)" height="29.1328" style="stroke:#A80036;stroke-width:1.0;" width="10" x="508" y="177.6953"/><line style="stroke:#A80036;stroke-width:1.0;stroke-dasharray:5.0,5.0;" x1="34" x2="34" y1="88.2969" y2="269.0938"/><line style="stroke:#A80036;stroke-width:1.0;stroke-dasharray:5.0,5.0;" x1="234.5" x2="234.5" y1="88.2969" y2="269.0938"/><line style="stroke:#A80036;stroke-width:1.0;stroke-dasharray:5.0,5.0;" x1="387.5" x2="387.5" y1="88.2969" y2="269.0938"/><line style="stroke:#A80036;stroke-width:1.0;stroke-dasharray:5.0,5.0;" x1="513" x2="513" y1="88.2969" y2="269.0938"/><text fill="#000000" font-family="sans-serif" font-size="14" lengthAdjust="spacing" textLength="52" x="5" y="84.9951">Cliente</text><ellipse cx="34" cy="15" fill="#FEFECE" filter="url(#f13k73l6inmwtt)" rx="8" ry="8" style="stroke:#A80036;stroke-width:2.0;"/><path d="M34,23 L34,50 M21,31 L47,31 M34,50 L21,65 M34,50 L47,65 " fill="none" filter="url(#f13k73l6inmwtt)" style="stroke:#A80036;stroke-width:2.0;"/><text fill="#000000" font-family="sans-serif" font-size="14" lengthAdjust="spacing" textLength="52" x="5" y="281.0889">Cliente</text><ellipse cx="34" cy="294.3906" fill="#FEFECE" filter="url(#f13k73l6inmwtt)" rx="8" ry="8" style="stroke:#A80036;stroke-width:2.0;"/><path d="M34,302.3906 L34,329.3906 M21,310.3906 L47,310.3906 M34,329.3906 L21,344.3906 M34,329.3906 L47,344.3906 " fill="none" filter="url(#f13k73l6inmwtt)" style="stroke:#A80036;stroke-width:2.0;"/><rect fill="#FEFECE" filter="url(#f13k73l6inmwtt)" height="30.2969" style="stroke:#A80036;stroke-width:1.5;" width="179" x="143.5" y="53"/><text fill="#000000" font-family="sans-serif" font-size="14" lengthAdjust="spacing" textLength="165" x="150.5" y="72.9951">:api/reservasController</text><rect fill="#FEFECE" filter="url(#f13k73l6inmwtt)" height="30.2969" style="stroke:#A80036;stroke-width:1.5;" width="179" x="143.5" y="268.0938"/><text fill="#000000" font-family="sans-serif" font-size="14" lengthAdjust="spacing" textLength="165" x="150.5" y="288.0889">:api/reservasController</text><rect fill="#FEFECE" filter="url(#f13k73l6inmwtt)" height="30.2969" style="stroke:#A80036;stroke-width:1.5;" width="99" x="336.5" y="53"/><text fill="#000000" font-family="sans-serif" font-size="14" lengthAdjust="spacing" textLength="85" x="343.5" y="72.9951">:api/reserva</text><rect fill="#FEFECE" filter="url(#f13k73l6inmwtt)" height="30.2969" style="stroke:#A80036;stroke-width:1.5;" width="99" x="336.5" y="268.0938"/><text fill="#000000" font-family="sans-serif" font-size="14" lengthAdjust="spacing" textLength="85" x="343.5" y="288.0889">:api/reserva</text><rect fill="#FEFECE" filter="url(#f13k73l6inmwtt)" height="30.2969" style="stroke:#A80036;stroke-width:1.5;" width="76" x="473" y="53"/><text fill="#000000" font-family="sans-serif" font-size="14" lengthAdjust="spacing" textLength="62" x="480" y="72.9951">:context</text><rect fill="#FEFECE" filter="url(#f13k73l6inmwtt)" height="30.2969" style="stroke:#A80036;stroke-width:1.5;" width="76" x="473" y="268.0938"/><text fill="#000000" font-family="sans-serif" font-size="14" lengthAdjust="spacing" textLength="62" x="480" y="288.0889">:context</text><rect fill="#FFFFFF" filter="url(#f13k73l6inmwtt)" height="152.7969" style="stroke:#A80036;stroke-width:1.0;" width="10" x="29" y="98.2969"/><rect fill="#FFFFFF" filter="url(#f13k73l6inmwtt)" height="131.6641" style="stroke:#A80036;stroke-width:1.0;" width="10" x="230" y="119.4297"/><rect fill="#FFFFFF" filter="url(#f13k73l6inmwtt)" height="29.1328" style="stroke:#A80036;stroke-width:1.0;" width="10" x="383" y="148.5625"/><rect fill="#FFFFFF" filter="url(#f13k73l6inmwtt)" height="29.1328" style="stroke:#A80036;stroke-width:1.0;" width="10" x="508" y="177.6953"/><polygon fill="#A80036" points="218,115.4297,228,119.4297,218,123.4297,222,119.4297" style="stroke:#A80036;stroke-width:1.0;"/><line style="stroke:#A80036;stroke-width:1.0;stroke-dasharray:2.0,2.0;" x1="39" x2="224" y1="119.4297" y2="119.4297"/><text fill="#000000" font-family="sans-serif" font-size="13" font-weight="bold" lengthAdjust="spacing" textLength="9" x="46" y="114.3638">1</text><text fill="#000000" font-family="sans-serif" font-size="13" lengthAdjust="spacing" textLength="97" x="59" y="114.3638">solicita reserva</text><polygon fill="#A80036" points="371,144.5625,381,148.5625,371,152.5625,375,148.5625" style="stroke:#A80036;stroke-width:1.0;"/><line style="stroke:#A80036;stroke-width:1.0;stroke-dasharray:2.0,2.0;" x1="240" x2="377" y1="148.5625" y2="148.5625"/><text fill="#000000" font-family="sans-serif" font-size="13" font-weight="bold" lengthAdjust="spacing" textLength="9" x="247" y="143.4966">2</text><text fill="#000000" font-family="sans-serif" font-size="13" lengthAdjust="spacing" textLength="84" x="260" y="143.4966">Add(reserva)</text><polygon fill="#A80036" points="496,173.6953,506,177.6953,496,181.6953,500,177.6953" style="stroke:#A80036;stroke-width:1.0;"/><line style="stroke:#A80036;stroke-width:1.0;stroke-dasharray:2.0,2.0;" x1="388" x2="502" y1="177.6953" y2="177.6953"/><text fill="#000000" font-family="sans-serif" font-size="13" font-weight="bold" lengthAdjust="spacing" textLength="8" x="395" y="172.6294">3</text><text fill="#000000" font-family="sans-serif" font-size="13" lengthAdjust="spacing" textLength="84" x="407" y="172.6294">Add(reserva)</text><polygon fill="#A80036" points="251,202.8281,241,206.8281,251,210.8281,247,206.8281" style="stroke:#A80036;stroke-width:1.0;"/><line style="stroke:#A80036;stroke-width:1.0;stroke-dasharray:2.0,2.0;" x1="245" x2="512" y1="206.8281" y2="206.8281"/><text fill="#000000" font-family="sans-serif" font-size="13" font-weight="bold" lengthAdjust="spacing" textLength="9" x="257" y="201.7622">4</text><text fill="#000000" font-family="sans-serif" font-size="13" lengthAdjust="spacing" textLength="137" x="270" y="201.7622">SaveChangesAsync()</text><polygon fill="#A80036" points="45,247.0938,35,251.0938,45,255.0938,41,251.0938" style="stroke:#A80036;stroke-width:1.0;"/><line style="stroke:#A80036;stroke-width:1.0;stroke-dasharray:2.0,2.0;" x1="39" x2="234" y1="251.0938" y2="251.0938"/><text fill="#000000" font-family="sans-serif" font-size="13" font-weight="bold" lengthAdjust="spacing" textLength="9" x="51" y="238.4614">5</text><text fill="#000000" font-family="sans-serif" font-size="13" lengthAdjust="spacing" textLength="115" x="64" y="230.895">CreatedAtAction()</text><text fill="#000000" font-family="sans-serif" font-size="13" lengthAdjust="spacing" textLength="154" x="64" y="246.0278">operação bem sucedida</text><!--MD5=[bfc695bd3ac93d737460401bc0695e01]
@startuml
autonumber
actor "Cliente" as CL
participant ":api/reservasController" as RC
participant ":api/reserva" as R
participant ":context" as C

activate CL
CL - -> RC : solicita reserva
activate RC

RC - -> R : Add(reserva)
activate R


R - -> C : Add(reserva)
deactivate R
activate C


C - -> RC : SaveChangesAsync()
deactivate C

RC - -> CL: CreatedAtAction()\noperação bem sucedida
deactivate RC
deactivate CL
@enduml

PlantUML version 1.2021.01beta3(Unknown compile time)
(GPL source distribution)
Java Runtime: Java(TM) SE Runtime Environment
JVM: Java HotSpot(TM) 64-Bit Server VM
Default Encoding: UTF-8
Language: en
Country: US
--></g></svg>