<?xml version="1.0" encoding="UTF-8" standalone="no"?><svg xmlns="http://www.w3.org/2000/svg" xmlns:xlink="http://www.w3.org/1999/xlink" contentScriptType="application/ecmascript" contentStyleType="text/css" height="338px" preserveAspectRatio="none" style="width:675px;height:338px;" version="1.1" viewBox="0 0 675 338" width="675px" zoomAndPan="magnify"><defs><filter height="300%" id="f10wnv9e5ikl3l" width="300%" x="-1" y="-1"><feGaussianBlur result="blurOut" stdDeviation="2.0"/><feColorMatrix in="blurOut" result="blurOut2" type="matrix" values="0 0 0 0 0 0 0 0 0 0 0 0 0 0 0 0 0 0 .4 0"/><feOffset dx="4.0" dy="4.0" in="blurOut2" result="blurOut3"/><feBlend in="SourceGraphic" in2="blurOut3" mode="normal"/></filter></defs><g><rect fill="#FFFFFF" filter="url(#f10wnv9e5ikl3l)" height="137.6641" style="stroke:#A80036;stroke-width:1.0;" width="10" x="60.5" y="98.2969"/><rect fill="#FFFFFF" filter="url(#f10wnv9e5ikl3l)" height="116.5313" style="stroke:#A80036;stroke-width:1.0;" width="10" x="326.5" y="119.4297"/><rect fill="#FFFFFF" filter="url(#f10wnv9e5ikl3l)" height="29.1328" style="stroke:#A80036;stroke-width:1.0;" width="10" x="479.5" y="177.6953"/><rect fill="#FFFFFF" filter="url(#f10wnv9e5ikl3l)" height="29.1328" style="stroke:#A80036;stroke-width:1.0;" width="10" x="620.5" y="148.5625"/><line style="stroke:#A80036;stroke-width:1.0;stroke-dasharray:5.0,5.0;" x1="65" x2="65" y1="88.2969" y2="253.9609"/><line style="stroke:#A80036;stroke-width:1.0;stroke-dasharray:5.0,5.0;" x1="331" x2="331" y1="88.2969" y2="253.9609"/><line style="stroke:#A80036;stroke-width:1.0;stroke-dasharray:5.0,5.0;" x1="484" x2="484" y1="88.2969" y2="253.9609"/><line style="stroke:#A80036;stroke-width:1.0;stroke-dasharray:5.0,5.0;" x1="625.5" x2="625.5" y1="88.2969" y2="253.9609"/><text fill="#000000" font-family="sans-serif" font-size="14" lengthAdjust="spacing" textLength="115" x="5" y="84.9951">Sistema Central</text><ellipse cx="65.5" cy="15" fill="#FEFECE" filter="url(#f10wnv9e5ikl3l)" rx="8" ry="8" style="stroke:#A80036;stroke-width:2.0;"/><path d="M65.5,23 L65.5,50 M52.5,31 L78.5,31 M65.5,50 L52.5,65 M65.5,50 L78.5,65 " fill="none" filter="url(#f10wnv9e5ikl3l)" style="stroke:#A80036;stroke-width:2.0;"/><text fill="#000000" font-family="sans-serif" font-size="14" lengthAdjust="spacing" textLength="115" x="5" y="265.9561">Sistema Central</text><ellipse cx="65.5" cy="279.2578" fill="#FEFECE" filter="url(#f10wnv9e5ikl3l)" rx="8" ry="8" style="stroke:#A80036;stroke-width:2.0;"/><path d="M65.5,287.2578 L65.5,314.2578 M52.5,295.2578 L78.5,295.2578 M65.5,314.2578 L52.5,329.2578 M65.5,314.2578 L78.5,329.2578 " fill="none" filter="url(#f10wnv9e5ikl3l)" style="stroke:#A80036;stroke-width:2.0;"/><rect fill="#FEFECE" filter="url(#f10wnv9e5ikl3l)" height="30.2969" style="stroke:#A80036;stroke-width:1.5;" width="179" x="240" y="53"/><text fill="#000000" font-family="sans-serif" font-size="14" lengthAdjust="spacing" textLength="165" x="247" y="72.9951">:api/reservasController</text><rect fill="#FEFECE" filter="url(#f10wnv9e5ikl3l)" height="30.2969" style="stroke:#A80036;stroke-width:1.5;" width="179" x="240" y="252.9609"/><text fill="#000000" font-family="sans-serif" font-size="14" lengthAdjust="spacing" textLength="165" x="247" y="272.9561">:api/reservasController</text><rect fill="#FEFECE" filter="url(#f10wnv9e5ikl3l)" height="30.2969" style="stroke:#A80036;stroke-width:1.5;" width="99" x="433" y="53"/><text fill="#000000" font-family="sans-serif" font-size="14" lengthAdjust="spacing" textLength="85" x="440" y="72.9951">:api/reserva</text><rect fill="#FEFECE" filter="url(#f10wnv9e5ikl3l)" height="30.2969" style="stroke:#A80036;stroke-width:1.5;" width="99" x="433" y="252.9609"/><text fill="#000000" font-family="sans-serif" font-size="14" lengthAdjust="spacing" textLength="85" x="440" y="272.9561">:api/reserva</text><rect fill="#FEFECE" filter="url(#f10wnv9e5ikl3l)" height="30.2969" style="stroke:#A80036;stroke-width:1.5;" width="76" x="585.5" y="53"/><text fill="#000000" font-family="sans-serif" font-size="14" lengthAdjust="spacing" textLength="62" x="592.5" y="72.9951">:context</text><rect fill="#FEFECE" filter="url(#f10wnv9e5ikl3l)" height="30.2969" style="stroke:#A80036;stroke-width:1.5;" width="76" x="585.5" y="252.9609"/><text fill="#000000" font-family="sans-serif" font-size="14" lengthAdjust="spacing" textLength="62" x="592.5" y="272.9561">:context</text><rect fill="#FFFFFF" filter="url(#f10wnv9e5ikl3l)" height="137.6641" style="stroke:#A80036;stroke-width:1.0;" width="10" x="60.5" y="98.2969"/><rect fill="#FFFFFF" filter="url(#f10wnv9e5ikl3l)" height="116.5313" style="stroke:#A80036;stroke-width:1.0;" width="10" x="326.5" y="119.4297"/><rect fill="#FFFFFF" filter="url(#f10wnv9e5ikl3l)" height="29.1328" style="stroke:#A80036;stroke-width:1.0;" width="10" x="479.5" y="177.6953"/><rect fill="#FFFFFF" filter="url(#f10wnv9e5ikl3l)" height="29.1328" style="stroke:#A80036;stroke-width:1.0;" width="10" x="620.5" y="148.5625"/><polygon fill="#A80036" points="314.5,115.4297,324.5,119.4297,314.5,123.4297,318.5,119.4297" style="stroke:#A80036;stroke-width:1.0;"/><line style="stroke:#A80036;stroke-width:1.0;stroke-dasharray:2.0,2.0;" x1="70.5" x2="320.5" y1="119.4297" y2="119.4297"/><text fill="#000000" font-family="sans-serif" font-size="13" font-weight="bold" lengthAdjust="spacing" textLength="9" x="77.5" y="114.3638">1</text><text fill="#000000" font-family="sans-serif" font-size="13" lengthAdjust="spacing" textLength="209" x="90.5" y="114.3638">pede para fazer uma reserva(id)</text><polygon fill="#A80036" points="608.5,144.5625,618.5,148.5625,608.5,152.5625,612.5,148.5625" style="stroke:#A80036;stroke-width:1.0;"/><line style="stroke:#A80036;stroke-width:1.0;stroke-dasharray:2.0,2.0;" x1="336.5" x2="614.5" y1="148.5625" y2="148.5625"/><text fill="#000000" font-family="sans-serif" font-size="13" font-weight="bold" lengthAdjust="spacing" textLength="9" x="343.5" y="143.4966">2</text><text fill="#000000" font-family="sans-serif" font-size="13" lengthAdjust="spacing" textLength="88" x="356.5" y="143.4966">postAsync(id)</text><polygon fill="#A80036" points="500.5,173.6953,490.5,177.6953,500.5,181.6953,496.5,177.6953" style="stroke:#A80036;stroke-width:1.0;"/><line style="stroke:#A80036;stroke-width:1.0;stroke-dasharray:2.0,2.0;" x1="494.5" x2="624.5" y1="177.6953" y2="177.6953"/><text fill="#000000" font-family="sans-serif" font-size="13" font-weight="bold" lengthAdjust="spacing" textLength="8" x="506.5" y="172.6294">3</text><text fill="#000000" font-family="sans-serif" font-size="13" lengthAdjust="spacing" textLength="100" x="518.5" y="172.6294">retorna reserva</text><polygon fill="#A80036" points="347.5,202.8281,337.5,206.8281,347.5,210.8281,343.5,206.8281" style="stroke:#A80036;stroke-width:1.0;"/><line style="stroke:#A80036;stroke-width:1.0;stroke-dasharray:2.0,2.0;" x1="341.5" x2="483.5" y1="206.8281" y2="206.8281"/><text fill="#000000" font-family="sans-serif" font-size="13" font-weight="bold" lengthAdjust="spacing" textLength="9" x="353.5" y="201.7622">4</text><text fill="#000000" font-family="sans-serif" font-size="13" lengthAdjust="spacing" textLength="97" x="366.5" y="201.7622">recebe reserva</text><polygon fill="#A80036" points="76.5,231.9609,66.5,235.9609,76.5,239.9609,72.5,235.9609" style="stroke:#A80036;stroke-width:1.0;"/><line style="stroke:#A80036;stroke-width:1.0;stroke-dasharray:2.0,2.0;" x1="70.5" x2="330.5" y1="235.9609" y2="235.9609"/><text fill="#000000" font-family="sans-serif" font-size="13" font-weight="bold" lengthAdjust="spacing" textLength="9" x="82.5" y="230.895">5</text><text fill="#000000" font-family="sans-serif" font-size="13" lengthAdjust="spacing" textLength="219" x="95.5" y="230.895">Created() operação bem sucedida</text><!--MD5=[dc66f89d845a57ab3e901a306c6fc337]
@startuml
autonumber
actor "Sistema Central" as SC
participant ":api/reservasController" as RC
participant ":api/reserva" as R
participant ":context" as C

activate SC
SC - -> RC : pede para fazer uma reserva(id)
activate RC

RC - -> C : postAsync(id)
activate C


C - -> R : retorna reserva
deactivate C
activate R


R - -> RC : recebe reserva
deactivate R



RC - -> SC: Created() operação bem sucedida
deactivate RC
deactivate SC
@enduml

PlantUML version 1.2021.01beta3(Unknown compile time)
(GPL source distribution)
Java Runtime: Java(TM) SE Runtime Environment
JVM: Java HotSpot(TM) 64-Bit Server VM
Default Encoding: UTF-8
Language: en
Country: US
--></g></svg>