<?xml version="1.0" encoding="UTF-8" standalone="no"?><svg xmlns="http://www.w3.org/2000/svg" xmlns:xlink="http://www.w3.org/1999/xlink" contentScriptType="application/ecmascript" contentStyleType="text/css" height="977px" preserveAspectRatio="none" style="width:549px;height:977px;" version="1.1" viewBox="0 0 549 977" width="549px" zoomAndPan="magnify"><defs><filter height="300%" id="fkhd2a6a39v3c" width="300%" x="-1" y="-1"><feGaussianBlur result="blurOut" stdDeviation="2.0"/><feColorMatrix in="blurOut" result="blurOut2" type="matrix" values="0 0 0 0 0 0 0 0 0 0 0 0 0 0 0 0 0 0 .4 0"/><feOffset dx="4.0" dy="4.0" in="blurOut2" result="blurOut3"/><feBlend in="SourceGraphic" in2="blurOut3" mode="normal"/></filter></defs><g><!--MD5=[2ef883c7bda54365519191918ae31df7]
entity UNR--><ellipse cx="93.5" cy="901" fill="#FEFECE" filter="url(#fkhd2a6a39v3c)" rx="8" ry="8" style="stroke:#A80036;stroke-width:1.5;"/><path d="M93.5,909 L93.5,936 M80.5,917 L106.5,917 M93.5,936 L80.5,951 M93.5,936 L106.5,951 " fill="none" filter="url(#fkhd2a6a39v3c)" style="stroke:#A80036;stroke-width:1.5;"/><text fill="#000000" font-family="sans-serif" font-size="14" lengthAdjust="spacing" textLength="175" x="6" y="969.4951">Utilizador Não Registado</text><!--MD5=[ee0fec323975fbe97ba28321ad4c4bf3]
entity U--><ellipse cx="93.5" cy="397" fill="#FEFECE" filter="url(#fkhd2a6a39v3c)" rx="8" ry="8" style="stroke:#A80036;stroke-width:1.5;"/><path d="M93.5,405 L93.5,432 M80.5,413 L106.5,413 M93.5,432 L80.5,447 M93.5,432 L106.5,447 " fill="none" filter="url(#fkhd2a6a39v3c)" style="stroke:#A80036;stroke-width:1.5;"/><text fill="#000000" font-family="sans-serif" font-size="14" lengthAdjust="spacing" textLength="68" x="59.5" y="465.4951">Utilizador</text><ellipse cx="389.0507" cy="932.0101" fill="#FEFECE" filter="url(#fkhd2a6a39v3c)" rx="148.0507" ry="32.0101" style="stroke:#A80036;stroke-width:1.5;"/><text fill="#000000" font-family="sans-serif" font-size="14" lengthAdjust="spacing" textLength="28" x="375.0507" y="926.7084">UC1</text><text fill="#000000" font-family="sans-serif" font-size="14" lengthAdjust="spacing" textLength="228" x="275.0507" y="943.0053">Registar Utilizador no Front End</text><ellipse cx="388.767" cy="32.0473" fill="#FEFECE" filter="url(#fkhd2a6a39v3c)" rx="89.267" ry="26.0473" style="stroke:#A80036;stroke-width:1.5;"/><text fill="#000000" font-family="sans-serif" font-size="14" lengthAdjust="spacing" textLength="27" x="375.267" y="26.7455">UC2</text><text fill="#000000" font-family="sans-serif" font-size="14" lengthAdjust="spacing" textLength="110" x="333.767" y="43.0424">Efetuar reserva</text><ellipse cx="389.131" cy="119.0473" fill="#FEFECE" filter="url(#fkhd2a6a39v3c)" rx="95.631" ry="26.0473" style="stroke:#A80036;stroke-width:1.5;"/><text fill="#000000" font-family="sans-serif" font-size="14" lengthAdjust="spacing" textLength="28" x="375.131" y="113.7455">UC3</text><text fill="#000000" font-family="sans-serif" font-size="14" lengthAdjust="spacing" textLength="119" x="329.631" y="130.0424">Cancelar reserva</text><ellipse cx="388.9194" cy="208.1839" fill="#FEFECE" filter="url(#fkhd2a6a39v3c)" rx="128.9194" ry="28.1839" style="stroke:#A80036;stroke-width:1.5;"/><text fill="#000000" font-family="sans-serif" font-size="14" lengthAdjust="spacing" textLength="27" x="375.4194" y="202.8821">UC4</text><text fill="#000000" font-family="sans-serif" font-size="14" lengthAdjust="spacing" textLength="180" x="298.9194" y="219.179">Pesquisar disponibilidade</text><ellipse cx="389.0305" cy="297.0473" fill="#FEFECE" filter="url(#fkhd2a6a39v3c)" rx="105.5305" ry="26.0473" style="stroke:#A80036;stroke-width:1.5;"/><text fill="#000000" font-family="sans-serif" font-size="14" lengthAdjust="spacing" textLength="28" x="375.0305" y="291.7455">UC5</text><text fill="#000000" font-family="sans-serif" font-size="14" lengthAdjust="spacing" textLength="133" x="322.5305" y="308.0424">Sub-alugar reserva</text><ellipse cx="388.8442" cy="384.0473" fill="#FEFECE" filter="url(#fkhd2a6a39v3c)" rx="116.8442" ry="26.0473" style="stroke:#A80036;stroke-width:1.5;"/><text fill="#000000" font-family="sans-serif" font-size="14" lengthAdjust="spacing" textLength="28" x="374.8442" y="378.7455">UC6</text><text fill="#000000" font-family="sans-serif" font-size="14" lengthAdjust="spacing" textLength="149" x="314.3442" y="395.0424">Cancelar sub-aluguer</text><ellipse cx="388.8234" cy="471.0473" fill="#FEFECE" filter="url(#fkhd2a6a39v3c)" rx="104.8234" ry="26.0473" style="stroke:#A80036;stroke-width:1.5;"/><text fill="#000000" font-family="sans-serif" font-size="14" lengthAdjust="spacing" textLength="28" x="374.8234" y="465.7455">UC7</text><text fill="#000000" font-family="sans-serif" font-size="14" lengthAdjust="spacing" textLength="132" x="322.8234" y="482.0424">Consultar reservas</text><ellipse cx="389.0233" cy="560.0047" fill="#FEFECE" filter="url(#fkhd2a6a39v3c)" rx="125.5233" ry="27.5047" style="stroke:#A80036;stroke-width:1.5;"/><text fill="#000000" font-family="sans-serif" font-size="14" lengthAdjust="spacing" textLength="27" x="375.5233" y="554.7029">UC8</text><text fill="#000000" font-family="sans-serif" font-size="14" lengthAdjust="spacing" textLength="171" x="303.5233" y="570.9998">Consultar sub-alugueres</text><ellipse cx="389.0513" cy="649.0473" fill="#FEFECE" filter="url(#fkhd2a6a39v3c)" rx="117.5513" ry="26.0473" style="stroke:#A80036;stroke-width:1.5;"/><text fill="#000000" font-family="sans-serif" font-size="14" lengthAdjust="spacing" textLength="28" x="375.0513" y="643.7455">UC9</text><text fill="#000000" font-family="sans-serif" font-size="14" lengthAdjust="spacing" textLength="150" x="314.0513" y="660.0424">Consultar transações</text><ellipse cx="388.9194" cy="738.1839" fill="#FEFECE" filter="url(#fkhd2a6a39v3c)" rx="128.9194" ry="28.1839" style="stroke:#A80036;stroke-width:1.5;"/><text fill="#000000" font-family="sans-serif" font-size="14" lengthAdjust="spacing" textLength="37" x="370.4194" y="732.8821">UC10</text><text fill="#000000" font-family="sans-serif" font-size="14" lengthAdjust="spacing" textLength="180" x="298.9194" y="749.179">Adicionar saldo à carteira</text><ellipse cx="389.0788" cy="833.0158" fill="#FEFECE" filter="url(#fkhd2a6a39v3c)" rx="145.5788" ry="31.5158" style="stroke:#A80036;stroke-width:1.5;"/><text fill="#000000" font-family="sans-serif" font-size="14" lengthAdjust="spacing" textLength="37" x="370.5788" y="827.714">UC11</text><text fill="#000000" font-family="sans-serif" font-size="14" lengthAdjust="spacing" textLength="222" x="278.0788" y="844.0109">Gerir informações de utilizador</text><!--MD5=[7b21f0941fa32888f6ae813cc64547f3]
link UNR to UC1--><path d="M181.368,932 C198.519,932 216.986,932 235.576,932 " fill="none" id="UNR-to-UC1" style="stroke:#A80036;stroke-width:1.0;"/><polygon fill="#A80036" points="240.821,932,231.821,928,235.821,932,231.821,936,240.821,932" style="stroke:#A80036;stroke-width:1.0;"/><!--MD5=[d339eafd5e513c6cfb3f1117410f9a34]
link U to UC2--><path d="M99.8353,387.36 C111.627,314.06 146.769,159.498 241,75 C257.84,59.899 279.72,50.086 301.431,43.714 " fill="none" id="U-to-UC2" style="stroke:#A80036;stroke-width:1.0;"/><polygon fill="#A80036" points="306.352,42.326,296.6046,40.916,301.5393,43.6817,298.7737,48.6164,306.352,42.326" style="stroke:#A80036;stroke-width:1.0;"/><!--MD5=[f77f2acdb179da8ec684e67fcfe8d851]
link U to UC3--><path d="M105.9951,387.287 C124.617,328.76 166.97,221.374 241,162 C257.899,148.446 278.93,139.165 299.751,132.808 " fill="none" id="U-to-UC3" style="stroke:#A80036;stroke-width:1.0;"/><polygon fill="#A80036" points="304.752,131.335,294.9886,130.0407,299.9557,132.7476,297.2487,137.7147,304.752,131.335" style="stroke:#A80036;stroke-width:1.0;"/><!--MD5=[9b7be194ae6f0694e7ee7df55d9413e7]
link U to UC4--><path d="M118.562,387.407 C144.144,347.632 188.161,288.031 241,253 C256.047,243.024 273.405,235.179 290.802,229.034 " fill="none" id="U-to-UC4" style="stroke:#A80036;stroke-width:1.0;"/><polygon fill="#A80036" points="295.708,227.346,285.8961,226.493,290.9802,228.9734,288.4999,234.0574,295.708,227.346" style="stroke:#A80036;stroke-width:1.0;"/><!--MD5=[c18dcaead6e75b42460ecacb700e33ef]
link U to UC5--><path d="M127.508,404.802 C156.365,385.359 199.961,357.971 241,340 C262.06,330.778 285.662,322.88 307.687,316.464 " fill="none" id="U-to-UC5" style="stroke:#A80036;stroke-width:1.0;"/><polygon fill="#A80036" points="312.655,315.034,302.8997,313.6795,307.8501,316.417,305.1126,321.3674,312.655,315.034" style="stroke:#A80036;stroke-width:1.0;"/><!--MD5=[acb9e8fb0c660a62ed56d3774c8d6de5]
link U to UC6--><path d="M127.598,423.038 C165.944,417.29 230.965,407.542 286.44,399.225 " fill="none" id="U-to-UC6" style="stroke:#A80036;stroke-width:1.0;"/><polygon fill="#A80036" points="291.436,398.476,281.9423,395.8549,286.4913,399.2175,283.1287,403.7665,291.436,398.476" style="stroke:#A80036;stroke-width:1.0;"/><!--MD5=[620f5f8f9aef7b850bda8b3f15623fb7]
link U to UC7--><path d="M127.598,432.849 C167.472,438.691 236.19,448.759 293.024,457.085 " fill="none" id="U-to-UC7" style="stroke:#A80036;stroke-width:1.0;"/><polygon fill="#A80036" points="298.136,457.834,289.8119,452.5701,293.1889,457.1083,288.6507,460.4854,298.136,457.834" style="stroke:#A80036;stroke-width:1.0;"/><!--MD5=[1382cc62c4c7e18c801a4e91b15e9ff4]
link U to UC8--><path d="M127.67,450.431 C156.63,469.282 200.283,495.961 241,514 C260.805,522.774 282.795,530.602 303.604,537.203 " fill="none" id="U-to-UC8" style="stroke:#A80036;stroke-width:1.0;"/><polygon fill="#A80036" points="308.585,538.767,301.1977,532.2534,303.8149,537.2684,298.7999,539.8856,308.585,538.767" style="stroke:#A80036;stroke-width:1.0;"/><!--MD5=[e634f82922a036086a0df39324c414dd]
link U to UC9--><path d="M118.169,468.756 C143.594,509.045 187.628,569.64 241,605 C257.378,615.851 276.52,624.101 295.474,630.349 " fill="none" id="U-to-UC9" style="stroke:#A80036;stroke-width:1.0;"/><polygon fill="#A80036" points="300.286,631.895,292.94,625.3348,295.5254,630.3662,290.494,632.9517,300.286,631.895" style="stroke:#A80036;stroke-width:1.0;"/><!--MD5=[a6d0f9c52e696e7700f2328f8a8c88d0]
link U to UC10--><path d="M106.388,468.712 C125.381,526.685 168.06,632.565 241,692 C254.339,702.869 270.259,711.18 286.62,717.533 " fill="none" id="U-to-UC10" style="stroke:#A80036;stroke-width:1.0;"/><polygon fill="#A80036" points="291.709,719.442,284.6868,712.5363,287.0274,717.6862,281.8775,720.0269,291.709,719.442" style="stroke:#A80036;stroke-width:1.0;"/><!--MD5=[313afbf16a1ca793f96f138c88264742]
link U to UC11--><path d="M100.1742,468.758 C112.481,541.945 148.381,696.085 241,783 C252.303,793.607 265.944,801.971 280.303,808.565 " fill="none" id="U-to-UC11" style="stroke:#A80036;stroke-width:1.0;"/><polygon fill="#A80036" points="285.198,810.735,278.5902,803.4318,280.6267,808.7093,275.3491,810.7459,285.198,810.735" style="stroke:#A80036;stroke-width:1.0;"/><!--MD5=[adebbf1cee827fbea1a156a7f31d5636]
@startuml
left to right direction

actor "Utilizador Não Registado" as UNR
actor "Utilizador" as U

usecase "UC1\nRegistar Utilizador no Front End" as UC1
usecase "UC2\nEfetuar reserva" as UC2
usecase "UC3\nCancelar reserva" as UC3
usecase "UC4\nPesquisar disponibilidade" as UC4
usecase "UC5\nSub-alugar reserva" as UC5
usecase "UC6\nCancelar sub-aluguer" as UC6
usecase "UC7\nConsultar reservas" as UC7
usecase "UC8\nConsultar sub-alugueres" as UC8
usecase "UC9\nConsultar transações" as UC9
usecase "UC10\nAdicionar saldo à carteira" as UC10
usecase "UC11\nGerir informações de utilizador" as UC11

UNR - -> UC1
U - -> UC2
U - -> UC3
U - -> UC4
U - -> UC5
U - -> UC6
U - -> UC7
U - -> UC8
U - -> UC9
U - -> UC10
U - -> UC11
@enduml

PlantUML version 1.2021.2beta9(Unknown compile time)
(GPL source distribution)
Java Runtime: Java(TM) SE Runtime Environment
JVM: Java HotSpot(TM) 64-Bit Server VM
Default Encoding: UTF-8
Language: en
Country: US
--></g></svg>