<?xml version="1.0" encoding="UTF-8" standalone="no"?><svg xmlns="http://www.w3.org/2000/svg" xmlns:xlink="http://www.w3.org/1999/xlink" contentScriptType="application/ecmascript" contentStyleType="text/css" height="418px" preserveAspectRatio="none" style="width:258px;height:418px;" version="1.1" viewBox="0 0 258 418" width="258px" zoomAndPan="magnify"><defs><filter height="300%" id="fdo2teh1alzep" width="300%" x="-1" y="-1"><feGaussianBlur result="blurOut" stdDeviation="2.0"/><feColorMatrix in="blurOut" result="blurOut2" type="matrix" values="0 0 0 0 0 0 0 0 0 0 0 0 0 0 0 0 0 0 .4 0"/><feOffset dx="4.0" dy="4.0" in="blurOut2" result="blurOut3"/><feBlend in="SourceGraphic" in2="blurOut3" mode="normal"/></filter></defs><g><!--MD5=[c8ce9d812049183789ec0fb1e1aecc90]
class CartoesController--><rect codeLine="3" fill="#FEFECE" filter="url(#fdo2teh1alzep)" height="73.6094" id="CartoesController" style="stroke:#A80036;stroke-width:1.5;" width="138" x="10" y="7"/><ellipse cx="25" cy="23" fill="#ADD1B2" rx="11" ry="11" style="stroke:#A80036;stroke-width:1.0;"/><path d="M27.3438,18.6719 C26.4063,18.2344 25.8125,18.0938 24.9375,18.0938 C22.3125,18.0938 20.3125,20.1719 20.3125,22.8906 L20.3125,24.0156 C20.3125,26.5938 22.4219,28.4844 25.3125,28.4844 C26.5313,28.4844 27.6875,28.1875 28.4375,27.6406 C29.0156,27.2344 29.3438,26.7813 29.3438,26.3906 C29.3438,25.9375 28.9531,25.5469 28.4844,25.5469 C28.2656,25.5469 28.0625,25.625 27.875,25.8125 C27.4219,26.2969 27.4219,26.2969 27.2344,26.3906 C26.8125,26.6563 26.125,26.7813 25.3594,26.7813 C23.3125,26.7813 22.0156,25.6875 22.0156,23.9844 L22.0156,22.8906 C22.0156,21.1094 23.2656,19.7969 25,19.7969 C25.5781,19.7969 26.1875,19.9531 26.6563,20.2031 C27.1406,20.4844 27.3125,20.7031 27.4063,21.1094 C27.4688,21.5156 27.5,21.6406 27.6406,21.7656 C27.7813,21.9063 28.0156,22.0156 28.2344,22.0156 C28.5,22.0156 28.7656,21.875 28.9375,21.6563 C29.0469,21.5 29.0781,21.3125 29.0781,20.8906 L29.0781,19.4688 C29.0781,19.0313 29.0625,18.9063 28.9688,18.75 C28.8125,18.4844 28.5313,18.3438 28.2344,18.3438 C27.9375,18.3438 27.7344,18.4375 27.5156,18.75 L27.3438,18.6719 Z " fill="#000000"/><text fill="#000000" font-family="sans-serif" font-size="12" lengthAdjust="spacing" textLength="106" x="39" y="27.1543">CartoesController</text><line style="stroke:#A80036;stroke-width:1.5;" x1="11" x2="147" y1="39" y2="39"/><line style="stroke:#A80036;stroke-width:1.5;" x1="11" x2="147" y1="47" y2="47"/><text fill="#000000" font-family="sans-serif" font-size="11" lengthAdjust="spacing" textLength="100" x="16" y="61.2104">+Get GetCartao()</text><text fill="#000000" font-family="sans-serif" font-size="11" lengthAdjust="spacing" textLength="104" x="16" y="74.0151">+Post PostCartao()</text><!--MD5=[a13ca1da61a66d544daddca6fa0a1a30]
class Cartao--><rect codeLine="8" fill="#FEFECE" filter="url(#fdo2teh1alzep)" height="124.8281" id="Cartao" style="stroke:#A80036;stroke-width:1.5;" width="152" x="7" y="280"/><ellipse cx="59.25" cy="296" fill="#ADD1B2" rx="11" ry="11" style="stroke:#A80036;stroke-width:1.0;"/><path d="M61.5938,291.6719 C60.6563,291.2344 60.0625,291.0938 59.1875,291.0938 C56.5625,291.0938 54.5625,293.1719 54.5625,295.8906 L54.5625,297.0156 C54.5625,299.5938 56.6719,301.4844 59.5625,301.4844 C60.7813,301.4844 61.9375,301.1875 62.6875,300.6406 C63.2656,300.2344 63.5938,299.7813 63.5938,299.3906 C63.5938,298.9375 63.2031,298.5469 62.7344,298.5469 C62.5156,298.5469 62.3125,298.625 62.125,298.8125 C61.6719,299.2969 61.6719,299.2969 61.4844,299.3906 C61.0625,299.6563 60.375,299.7813 59.6094,299.7813 C57.5625,299.7813 56.2656,298.6875 56.2656,296.9844 L56.2656,295.8906 C56.2656,294.1094 57.5156,292.7969 59.25,292.7969 C59.8281,292.7969 60.4375,292.9531 60.9063,293.2031 C61.3906,293.4844 61.5625,293.7031 61.6563,294.1094 C61.7188,294.5156 61.75,294.6406 61.8906,294.7656 C62.0313,294.9063 62.2656,295.0156 62.4844,295.0156 C62.75,295.0156 63.0156,294.875 63.1875,294.6563 C63.2969,294.5 63.3281,294.3125 63.3281,293.8906 L63.3281,292.4688 C63.3281,292.0313 63.3125,291.9063 63.2188,291.75 C63.0625,291.4844 62.7813,291.3438 62.4844,291.3438 C62.1875,291.3438 61.9844,291.4375 61.7656,291.75 L61.5938,291.6719 Z " fill="#000000"/><text fill="#000000" font-family="sans-serif" font-size="12" lengthAdjust="spacing" textLength="39" x="79.75" y="300.1543">Cartao</text><line style="stroke:#A80036;stroke-width:1.5;" x1="8" x2="158" y1="312" y2="312"/><text fill="#000000" font-family="sans-serif" font-size="11" lengthAdjust="spacing" textLength="49" x="13" y="326.2104">-Int id PK</text><text fill="#000000" font-family="sans-serif" font-size="11" lengthAdjust="spacing" textLength="74" x="13" y="339.0151">-String nome</text><text fill="#000000" font-family="sans-serif" font-size="11" lengthAdjust="spacing" textLength="70" x="13" y="351.8198">-Int nrCartao</text><text fill="#000000" font-family="sans-serif" font-size="11" lengthAdjust="spacing" textLength="140" x="13" y="364.6245">-DateTime dataValidade</text><text fill="#000000" font-family="sans-serif" font-size="11" lengthAdjust="spacing" textLength="41" x="13" y="377.4292">-Int cvc</text><text fill="#000000" font-family="sans-serif" font-size="11" lengthAdjust="spacing" textLength="93" x="13" y="390.2339">-Int metodoId FK</text><line style="stroke:#A80036;stroke-width:1.5;" x1="8" x2="158" y1="396.8281" y2="396.8281"/><!--MD5=[6754354365917abf8f1a56af1b7e344c]
class Context--><rect codeLine="17" fill="#FEFECE" filter="url(#fdo2teh1alzep)" height="60.8047" id="Context" style="stroke:#A80036;stroke-width:1.5;" width="155" x="89.5" y="142"/><ellipse cx="139.75" cy="158" fill="#ADD1B2" rx="11" ry="11" style="stroke:#A80036;stroke-width:1.0;"/><path d="M142.0938,153.6719 C141.1563,153.2344 140.5625,153.0938 139.6875,153.0938 C137.0625,153.0938 135.0625,155.1719 135.0625,157.8906 L135.0625,159.0156 C135.0625,161.5938 137.1719,163.4844 140.0625,163.4844 C141.2813,163.4844 142.4375,163.1875 143.1875,162.6406 C143.7656,162.2344 144.0938,161.7813 144.0938,161.3906 C144.0938,160.9375 143.7031,160.5469 143.2344,160.5469 C143.0156,160.5469 142.8125,160.625 142.625,160.8125 C142.1719,161.2969 142.1719,161.2969 141.9844,161.3906 C141.5625,161.6563 140.875,161.7813 140.1094,161.7813 C138.0625,161.7813 136.7656,160.6875 136.7656,158.9844 L136.7656,157.8906 C136.7656,156.1094 138.0156,154.7969 139.75,154.7969 C140.3281,154.7969 140.9375,154.9531 141.4063,155.2031 C141.8906,155.4844 142.0625,155.7031 142.1563,156.1094 C142.2188,156.5156 142.25,156.6406 142.3906,156.7656 C142.5313,156.9063 142.7656,157.0156 142.9844,157.0156 C143.25,157.0156 143.5156,156.875 143.6875,156.6563 C143.7969,156.5 143.8281,156.3125 143.8281,155.8906 L143.8281,154.4688 C143.8281,154.0313 143.8125,153.9063 143.7188,153.75 C143.5625,153.4844 143.2813,153.3438 142.9844,153.3438 C142.6875,153.3438 142.4844,153.4375 142.2656,153.75 L142.0938,153.6719 Z " fill="#000000"/><text fill="#000000" font-family="sans-serif" font-size="12" lengthAdjust="spacing" textLength="46" x="160.25" y="162.1543">Context</text><line style="stroke:#A80036;stroke-width:1.5;" x1="90.5" x2="243.5" y1="174" y2="174"/><text fill="#000000" font-family="sans-serif" font-size="11" lengthAdjust="spacing" textLength="143" x="95.5" y="188.2104">-DbSet&lt;Cartao&gt; Cartoes</text><line style="stroke:#A80036;stroke-width:1.5;" x1="90.5" x2="243.5" y1="194.8047" y2="194.8047"/><!--MD5=[e7d885da053116e45c601835bfe633bb]
link CartoesController to Cartao--><path codeLine="21" d="M75.7531,81.355 C74.287,99.549 72.7236,121.921 72,142 C71.0237,169.094 70.9259,175.91 72,203 C72.9284,226.416 74.7364,252.006 76.6226,274.747 " fill="none" id="CartoesController-to-Cartao" style="stroke:#A80036;stroke-width:1.0;stroke-dasharray:7.0,7.0;"/><polygon fill="#A80036" points="77.0516,279.856,80.2841,270.5527,76.633,274.8736,72.3122,271.2225,77.0516,279.856" style="stroke:#A80036;stroke-width:1.0;"/><!--MD5=[c1fc68c87fcfb52978b14c4d972004a5]
link CartoesController to Context--><path codeLine="22" d="M104.2173,81.25 C116.484,98.884 131.149,119.965 143.22,137.316 " fill="none" id="CartoesController-to-Context" style="stroke:#A80036;stroke-width:1.0;stroke-dasharray:7.0,7.0;"/><polygon fill="#A80036" points="146.23,141.643,144.3732,131.9708,143.3743,137.5387,137.8063,136.5399,146.23,141.643" style="stroke:#A80036;stroke-width:1.0;"/><!--MD5=[d54786ad48a3be50103aa89b40e8a04b]
link Context to Cartao--><path codeLine="23" d="M152.176,203.148 C142.199,223.101 128.638,250.224 116.166,275.169 " fill="none" id="Context-to-Cartao" style="stroke:#A80036;stroke-width:1.0;"/><polygon fill="#A80036" points="113.85,279.799,121.4534,273.539,116.0866,275.3271,114.2985,269.9604,113.85,279.799" style="stroke:#A80036;stroke-width:1.0;"/><text fill="#000000" font-family="sans-serif" font-size="13" lengthAdjust="spacing" textLength="26" x="136" y="246.0669">tem</text><text fill="#000000" font-family="sans-serif" font-size="13" lengthAdjust="spacing" textLength="8" x="140.47" y="222.7576">1</text><text fill="#000000" font-family="sans-serif" font-size="13" lengthAdjust="spacing" textLength="23" x="93.0878" y="268.7665">0..*</text><!--MD5=[81893aac594c7fc51ebd9c7efe1f3ecd]
@startuml
skinparam classAttributeIconSize 0

class CartoesController {
  +Get GetCartao()
  +Post PostCartao()
}

class Cartao {
  -Int id PK
  -String nome
  -Int nrCartao
  -DateTime dataValidade
  -Int cvc
  -Int metodoId FK
}

class Context {
  -DbSet<Cartao> Cartoes
}

CartoesController ..> Cartao
CartoesController ..> Context
Context "1" - -> "0..*" Cartao: tem
@enduml

PlantUML version 1.2021.01(Tue Feb 02 07:55:08 UTC 2021)
(GPL source distribution)
Java Runtime: Java(TM) SE Runtime Environment
JVM: Java HotSpot(TM) 64-Bit Server VM
Default Encoding: UTF-8
Language: en
Country: US
--></g></svg>