<?xml version="1.0" encoding="UTF-8" standalone="no"?><svg xmlns="http://www.w3.org/2000/svg" xmlns:xlink="http://www.w3.org/1999/xlink" contentScriptType="application/ecmascript" contentStyleType="text/css" height="431px" preserveAspectRatio="none" style="width:333px;height:431px;" version="1.1" viewBox="0 0 333 431" width="333px" zoomAndPan="magnify"><defs><filter height="300%" id="f1n6ufwhor40ow" width="300%" x="-1" y="-1"><feGaussianBlur result="blurOut" stdDeviation="2.0"/><feColorMatrix in="blurOut" result="blurOut2" type="matrix" values="0 0 0 0 0 0 0 0 0 0 0 0 0 0 0 0 0 0 .4 0"/><feOffset dx="4.0" dy="4.0" in="blurOut2" result="blurOut3"/><feBlend in="SourceGraphic" in2="blurOut3" mode="normal"/></filter></defs><g><!--MD5=[60684935874a1612031d0e28e108b9a0]
class DebitoDiretoController--><rect codeLine="3" fill="#FEFECE" filter="url(#f1n6ufwhor40ow)" height="73.6094" id="DebitoDiretoController" style="stroke:#A80036;stroke-width:1.5;" width="168" x="7" y="7"/><ellipse cx="22" cy="23" fill="#ADD1B2" rx="11" ry="11" style="stroke:#A80036;stroke-width:1.0;"/><path d="M24.3438,18.6719 C23.4063,18.2344 22.8125,18.0938 21.9375,18.0938 C19.3125,18.0938 17.3125,20.1719 17.3125,22.8906 L17.3125,24.0156 C17.3125,26.5938 19.4219,28.4844 22.3125,28.4844 C23.5313,28.4844 24.6875,28.1875 25.4375,27.6406 C26.0156,27.2344 26.3438,26.7813 26.3438,26.3906 C26.3438,25.9375 25.9531,25.5469 25.4844,25.5469 C25.2656,25.5469 25.0625,25.625 24.875,25.8125 C24.4219,26.2969 24.4219,26.2969 24.2344,26.3906 C23.8125,26.6563 23.125,26.7813 22.3594,26.7813 C20.3125,26.7813 19.0156,25.6875 19.0156,23.9844 L19.0156,22.8906 C19.0156,21.1094 20.2656,19.7969 22,19.7969 C22.5781,19.7969 23.1875,19.9531 23.6563,20.2031 C24.1406,20.4844 24.3125,20.7031 24.4063,21.1094 C24.4688,21.5156 24.5,21.6406 24.6406,21.7656 C24.7813,21.9063 25.0156,22.0156 25.2344,22.0156 C25.5,22.0156 25.7656,21.875 25.9375,21.6563 C26.0469,21.5 26.0781,21.3125 26.0781,20.8906 L26.0781,19.4688 C26.0781,19.0313 26.0625,18.9063 25.9688,18.75 C25.8125,18.4844 25.5313,18.3438 25.2344,18.3438 C24.9375,18.3438 24.7344,18.4375 24.5156,18.75 L24.3438,18.6719 Z " fill="#000000"/><text fill="#000000" font-family="sans-serif" font-size="12" lengthAdjust="spacing" textLength="136" x="36" y="27.1543">DebitoDiretoController</text><line style="stroke:#A80036;stroke-width:1.5;" x1="8" x2="174" y1="39" y2="39"/><line style="stroke:#A80036;stroke-width:1.5;" x1="8" x2="174" y1="47" y2="47"/><text fill="#000000" font-family="sans-serif" font-size="11" lengthAdjust="spacing" textLength="136" x="13" y="61.2104">+Get GetDebitoDireto()</text><text fill="#000000" font-family="sans-serif" font-size="11" lengthAdjust="spacing" textLength="140" x="13" y="74.0151">+Post PostDebitoDireto()</text><!--MD5=[a89c9fda9b124c928ab8a1b259503eeb]
class DebitoDireto--><rect codeLine="8" fill="#FEFECE" filter="url(#f1n6ufwhor40ow)" height="137.6328" id="DebitoDireto" style="stroke:#A80036;stroke-width:1.5;" width="163" x="14.5" y="280"/><ellipse cx="53.8" cy="296" fill="#ADD1B2" rx="11" ry="11" style="stroke:#A80036;stroke-width:1.0;"/><path d="M56.1438,291.6719 C55.2063,291.2344 54.6125,291.0938 53.7375,291.0938 C51.1125,291.0938 49.1125,293.1719 49.1125,295.8906 L49.1125,297.0156 C49.1125,299.5938 51.2219,301.4844 54.1125,301.4844 C55.3313,301.4844 56.4875,301.1875 57.2375,300.6406 C57.8156,300.2344 58.1438,299.7813 58.1438,299.3906 C58.1438,298.9375 57.7531,298.5469 57.2844,298.5469 C57.0656,298.5469 56.8625,298.625 56.675,298.8125 C56.2219,299.2969 56.2219,299.2969 56.0344,299.3906 C55.6125,299.6563 54.925,299.7813 54.1594,299.7813 C52.1125,299.7813 50.8156,298.6875 50.8156,296.9844 L50.8156,295.8906 C50.8156,294.1094 52.0656,292.7969 53.8,292.7969 C54.3781,292.7969 54.9875,292.9531 55.4563,293.2031 C55.9406,293.4844 56.1125,293.7031 56.2063,294.1094 C56.2688,294.5156 56.3,294.6406 56.4406,294.7656 C56.5813,294.9063 56.8156,295.0156 57.0344,295.0156 C57.3,295.0156 57.5656,294.875 57.7375,294.6563 C57.8469,294.5 57.8781,294.3125 57.8781,293.8906 L57.8781,292.4688 C57.8781,292.0313 57.8625,291.9063 57.7688,291.75 C57.6125,291.4844 57.3313,291.3438 57.0344,291.3438 C56.7375,291.3438 56.5344,291.4375 56.3156,291.75 L56.1438,291.6719 Z " fill="#000000"/><text fill="#000000" font-family="sans-serif" font-size="12" lengthAdjust="spacing" textLength="77" x="73.2" y="300.1543">DebitoDireto</text><line style="stroke:#A80036;stroke-width:1.5;" x1="15.5" x2="176.5" y1="312" y2="312"/><text fill="#000000" font-family="sans-serif" font-size="11" lengthAdjust="spacing" textLength="49" x="20.5" y="326.2104">-Int id PK</text><text fill="#000000" font-family="sans-serif" font-size="11" lengthAdjust="spacing" textLength="65" x="20.5" y="339.0151">-String iban</text><text fill="#000000" font-family="sans-serif" font-size="11" lengthAdjust="spacing" textLength="74" x="20.5" y="351.8198">-String nome</text><text fill="#000000" font-family="sans-serif" font-size="11" lengthAdjust="spacing" textLength="59" x="20.5" y="364.6245">-String rua</text><text fill="#000000" font-family="sans-serif" font-size="11" lengthAdjust="spacing" textLength="111" x="20.5" y="377.4292">-String codigoPostal</text><text fill="#000000" font-family="sans-serif" font-size="11" lengthAdjust="spacing" textLength="95" x="20.5" y="390.2339">-String freguesia</text><text fill="#000000" font-family="sans-serif" font-size="11" lengthAdjust="spacing" textLength="151" x="20.5" y="403.0386">-DateTime dataSubscricao</text><line style="stroke:#A80036;stroke-width:1.5;" x1="15.5" x2="176.5" y1="409.6328" y2="409.6328"/><!--MD5=[6754354365917abf8f1a56af1b7e344c]
class Context--><rect codeLine="18" fill="#FEFECE" filter="url(#f1n6ufwhor40ow)" height="60.8047" id="Context" style="stroke:#A80036;stroke-width:1.5;" width="226" x="93" y="142"/><ellipse cx="178.75" cy="158" fill="#ADD1B2" rx="11" ry="11" style="stroke:#A80036;stroke-width:1.0;"/><path d="M181.0938,153.6719 C180.1563,153.2344 179.5625,153.0938 178.6875,153.0938 C176.0625,153.0938 174.0625,155.1719 174.0625,157.8906 L174.0625,159.0156 C174.0625,161.5938 176.1719,163.4844 179.0625,163.4844 C180.2813,163.4844 181.4375,163.1875 182.1875,162.6406 C182.7656,162.2344 183.0938,161.7813 183.0938,161.3906 C183.0938,160.9375 182.7031,160.5469 182.2344,160.5469 C182.0156,160.5469 181.8125,160.625 181.625,160.8125 C181.1719,161.2969 181.1719,161.2969 180.9844,161.3906 C180.5625,161.6563 179.875,161.7813 179.1094,161.7813 C177.0625,161.7813 175.7656,160.6875 175.7656,158.9844 L175.7656,157.8906 C175.7656,156.1094 177.0156,154.7969 178.75,154.7969 C179.3281,154.7969 179.9375,154.9531 180.4063,155.2031 C180.8906,155.4844 181.0625,155.7031 181.1563,156.1094 C181.2188,156.5156 181.25,156.6406 181.3906,156.7656 C181.5313,156.9063 181.7656,157.0156 181.9844,157.0156 C182.25,157.0156 182.5156,156.875 182.6875,156.6563 C182.7969,156.5 182.8281,156.3125 182.8281,155.8906 L182.8281,154.4688 C182.8281,154.0313 182.8125,153.9063 182.7188,153.75 C182.5625,153.4844 182.2813,153.3438 181.9844,153.3438 C181.6875,153.3438 181.4844,153.4375 181.2656,153.75 L181.0938,153.6719 Z " fill="#000000"/><text fill="#000000" font-family="sans-serif" font-size="12" lengthAdjust="spacing" textLength="46" x="199.25" y="162.1543">Context</text><line style="stroke:#A80036;stroke-width:1.5;" x1="94" x2="318" y1="174" y2="174"/><text fill="#000000" font-family="sans-serif" font-size="11" lengthAdjust="spacing" textLength="214" x="99" y="188.2104">-DbSet&lt;DebitoDireto&gt; DebitoDiretos</text><line style="stroke:#A80036;stroke-width:1.5;" x1="94" x2="318" y1="194.8047" y2="194.8047"/><!--MD5=[2b73b95bbac817f6a7c102572079ac7d]
link DebitoDiretoController to DebitoDireto--><path codeLine="22" d="M83.5824,81.215 C80.2322,99.374 76.6583,121.757 75,142 C71.3904,186.062 76.0949,235.329 81.9587,274.632 " fill="none" id="DebitoDiretoController-to-DebitoDireto" style="stroke:#A80036;stroke-width:1.0;stroke-dasharray:7.0,7.0;"/><polygon fill="#A80036" points="82.7548,279.865,85.3541,270.3653,82.002,274.922,77.4453,271.5699,82.7548,279.865" style="stroke:#A80036;stroke-width:1.0;"/><!--MD5=[c76d8f5bbc6eb789cf91f7464f5a950c]
link DebitoDiretoController to Context--><path codeLine="23" d="M123.954,81.25 C140.121,99.033 159.475,120.322 175.324,137.756 " fill="none" id="DebitoDiretoController-to-Context" style="stroke:#A80036;stroke-width:1.0;stroke-dasharray:7.0,7.0;"/><polygon fill="#A80036" points="178.857,141.643,175.762,132.2931,175.4934,137.9436,169.8429,137.6749,178.857,141.643" style="stroke:#A80036;stroke-width:1.0;"/><!--MD5=[c1903a5b9b31f7fecc953c0878f6c638]
link Context to DebitoDireto--><path codeLine="24" d="M187.34,203.102 C174.824,222.956 157.764,250.02 141.775,275.385 " fill="none" id="Context-to-DebitoDireto" style="stroke:#A80036;stroke-width:1.0;"/><polygon fill="#A80036" points="139.011,279.768,147.1948,274.2884,141.6778,275.5386,140.4277,270.0216,139.011,279.768" style="stroke:#A80036;stroke-width:1.0;"/><text fill="#000000" font-family="sans-serif" font-size="13" lengthAdjust="spacing" textLength="26" x="168" y="246.0669">tem</text><text fill="#000000" font-family="sans-serif" font-size="13" lengthAdjust="spacing" textLength="8" x="174.6664" y="223.0613">1</text><text fill="#000000" font-family="sans-serif" font-size="13" lengthAdjust="spacing" textLength="23" x="119.2606" y="268.9477">0..*</text><!--MD5=[fe4e02e042c544a4d85b53c418e39876]
@startuml
skinparam classAttributeIconSize 0

class DebitoDiretoController {
  +Get GetDebitoDireto()
  +Post PostDebitoDireto()
}

class DebitoDireto{
  -Int id PK
  -String iban
  -String nome
  -String rua
  -String codigoPostal
  -String freguesia
  -DateTime dataSubscricao
}

class Context {
  -DbSet<DebitoDireto> DebitoDiretos
}

DebitoDiretoController ..> DebitoDireto
DebitoDiretoController ..> Context
Context "1" - -> "0..*" DebitoDireto: tem
@enduml

PlantUML version 1.2021.01(Tue Feb 02 07:55:08 UTC 2021)
(GPL source distribution)
Java Runtime: Java(TM) SE Runtime Environment
JVM: Java HotSpot(TM) 64-Bit Server VM
Default Encoding: UTF-8
Language: en
Country: US
--></g></svg>