<?xml version="1.0" encoding="UTF-8" standalone="no"?><svg xmlns="http://www.w3.org/2000/svg" xmlns:xlink="http://www.w3.org/1999/xlink" contentScriptType="application/ecmascript" contentStyleType="text/css" height="457px" preserveAspectRatio="none" style="width:338px;height:457px;" version="1.1" viewBox="0 0 338 457" width="338px" zoomAndPan="magnify"><defs><filter height="300%" id="f1jtx6ehvx2ifd" width="300%" x="-1" y="-1"><feGaussianBlur result="blurOut" stdDeviation="2.0"/><feColorMatrix in="blurOut" result="blurOut2" type="matrix" values="0 0 0 0 0 0 0 0 0 0 0 0 0 0 0 0 0 0 .4 0"/><feOffset dx="4.0" dy="4.0" in="blurOut2" result="blurOut3"/><feBlend in="SourceGraphic" in2="blurOut3" mode="normal"/></filter></defs><g><!--MD5=[60684935874a1612031d0e28e108b9a0]
class DebitoDiretoController--><rect codeLine="3" fill="#FEFECE" filter="url(#f1jtx6ehvx2ifd)" height="73.6094" id="DebitoDiretoController" style="stroke:#A80036;stroke-width:1.5;" width="168" x="7" y="7"/><ellipse cx="22" cy="23" fill="#ADD1B2" rx="11" ry="11" style="stroke:#A80036;stroke-width:1.0;"/><path d="M24.3438,18.6719 C23.4063,18.2344 22.8125,18.0938 21.9375,18.0938 C19.3125,18.0938 17.3125,20.1719 17.3125,22.8906 L17.3125,24.0156 C17.3125,26.5938 19.4219,28.4844 22.3125,28.4844 C23.5313,28.4844 24.6875,28.1875 25.4375,27.6406 C26.0156,27.2344 26.3438,26.7813 26.3438,26.3906 C26.3438,25.9375 25.9531,25.5469 25.4844,25.5469 C25.2656,25.5469 25.0625,25.625 24.875,25.8125 C24.4219,26.2969 24.4219,26.2969 24.2344,26.3906 C23.8125,26.6563 23.125,26.7813 22.3594,26.7813 C20.3125,26.7813 19.0156,25.6875 19.0156,23.9844 L19.0156,22.8906 C19.0156,21.1094 20.2656,19.7969 22,19.7969 C22.5781,19.7969 23.1875,19.9531 23.6563,20.2031 C24.1406,20.4844 24.3125,20.7031 24.4063,21.1094 C24.4688,21.5156 24.5,21.6406 24.6406,21.7656 C24.7813,21.9063 25.0156,22.0156 25.2344,22.0156 C25.5,22.0156 25.7656,21.875 25.9375,21.6563 C26.0469,21.5 26.0781,21.3125 26.0781,20.8906 L26.0781,19.4688 C26.0781,19.0313 26.0625,18.9063 25.9688,18.75 C25.8125,18.4844 25.5313,18.3438 25.2344,18.3438 C24.9375,18.3438 24.7344,18.4375 24.5156,18.75 L24.3438,18.6719 Z " fill="#000000"/><text fill="#000000" font-family="sans-serif" font-size="12" lengthAdjust="spacing" textLength="136" x="36" y="27.1543">DebitoDiretoController</text><line style="stroke:#A80036;stroke-width:1.5;" x1="8" x2="174" y1="39" y2="39"/><line style="stroke:#A80036;stroke-width:1.5;" x1="8" x2="174" y1="47" y2="47"/><text fill="#000000" font-family="sans-serif" font-size="11" lengthAdjust="spacing" textLength="136" x="13" y="61.2104">+Get GetDebitoDireto()</text><text fill="#000000" font-family="sans-serif" font-size="11" lengthAdjust="spacing" textLength="140" x="13" y="74.0151">+Post PostDebitoDireto()</text><!--MD5=[a89c9fda9b124c928ab8a1b259503eeb]
class DebitoDireto--><rect codeLine="8" fill="#FEFECE" filter="url(#f1jtx6ehvx2ifd)" height="163.2422" id="DebitoDireto" style="stroke:#A80036;stroke-width:1.5;" width="123" x="33.5" y="280"/><ellipse cx="54.8" cy="296" fill="#ADD1B2" rx="11" ry="11" style="stroke:#A80036;stroke-width:1.0;"/><path d="M57.1438,291.6719 C56.2063,291.2344 55.6125,291.0938 54.7375,291.0938 C52.1125,291.0938 50.1125,293.1719 50.1125,295.8906 L50.1125,297.0156 C50.1125,299.5938 52.2219,301.4844 55.1125,301.4844 C56.3313,301.4844 57.4875,301.1875 58.2375,300.6406 C58.8156,300.2344 59.1438,299.7813 59.1438,299.3906 C59.1438,298.9375 58.7531,298.5469 58.2844,298.5469 C58.0656,298.5469 57.8625,298.625 57.675,298.8125 C57.2219,299.2969 57.2219,299.2969 57.0344,299.3906 C56.6125,299.6563 55.925,299.7813 55.1594,299.7813 C53.1125,299.7813 51.8156,298.6875 51.8156,296.9844 L51.8156,295.8906 C51.8156,294.1094 53.0656,292.7969 54.8,292.7969 C55.3781,292.7969 55.9875,292.9531 56.4563,293.2031 C56.9406,293.4844 57.1125,293.7031 57.2063,294.1094 C57.2688,294.5156 57.3,294.6406 57.4406,294.7656 C57.5813,294.9063 57.8156,295.0156 58.0344,295.0156 C58.3,295.0156 58.5656,294.875 58.7375,294.6563 C58.8469,294.5 58.8781,294.3125 58.8781,293.8906 L58.8781,292.4688 C58.8781,292.0313 58.8625,291.9063 58.7688,291.75 C58.6125,291.4844 58.3313,291.3438 58.0344,291.3438 C57.7375,291.3438 57.5344,291.4375 57.3156,291.75 L57.1438,291.6719 Z " fill="#000000"/><text fill="#000000" font-family="sans-serif" font-size="12" lengthAdjust="spacing" textLength="77" x="70.2" y="300.1543">DebitoDireto</text><line style="stroke:#A80036;stroke-width:1.5;" x1="34.5" x2="155.5" y1="312" y2="312"/><text fill="#000000" font-family="sans-serif" font-size="11" lengthAdjust="spacing" textLength="49" x="39.5" y="326.2104">-Int id PK</text><text fill="#000000" font-family="sans-serif" font-size="11" lengthAdjust="spacing" textLength="65" x="39.5" y="339.0151">-String iban</text><text fill="#000000" font-family="sans-serif" font-size="11" lengthAdjust="spacing" textLength="74" x="39.5" y="351.8198">-String nome</text><text fill="#000000" font-family="sans-serif" font-size="11" lengthAdjust="spacing" textLength="59" x="39.5" y="364.6245">-String rua</text><text fill="#000000" font-family="sans-serif" font-size="11" lengthAdjust="spacing" textLength="111" x="39.5" y="377.4292">-String codigoPostal</text><text fill="#000000" font-family="sans-serif" font-size="11" lengthAdjust="spacing" textLength="95" x="39.5" y="390.2339">-String freguesia</text><text fill="#000000" font-family="sans-serif" font-size="11" lengthAdjust="spacing" textLength="90" x="39.5" y="403.0386">-DateTime data</text><text fill="#000000" font-family="sans-serif" font-size="11" lengthAdjust="spacing" textLength="105" x="39.5" y="415.8433">-Int nifDestinatario</text><text fill="#000000" font-family="sans-serif" font-size="11" lengthAdjust="spacing" textLength="79" x="39.5" y="428.6479">-Double custo</text><line style="stroke:#A80036;stroke-width:1.5;" x1="34.5" x2="155.5" y1="435.2422" y2="435.2422"/><!--MD5=[6754354365917abf8f1a56af1b7e344c]
class Context--><rect codeLine="20" fill="#FEFECE" filter="url(#f1jtx6ehvx2ifd)" height="60.8047" id="Context" style="stroke:#A80036;stroke-width:1.5;" width="232" x="92" y="142"/><ellipse cx="180.75" cy="158" fill="#ADD1B2" rx="11" ry="11" style="stroke:#A80036;stroke-width:1.0;"/><path d="M183.0938,153.6719 C182.1563,153.2344 181.5625,153.0938 180.6875,153.0938 C178.0625,153.0938 176.0625,155.1719 176.0625,157.8906 L176.0625,159.0156 C176.0625,161.5938 178.1719,163.4844 181.0625,163.4844 C182.2813,163.4844 183.4375,163.1875 184.1875,162.6406 C184.7656,162.2344 185.0938,161.7813 185.0938,161.3906 C185.0938,160.9375 184.7031,160.5469 184.2344,160.5469 C184.0156,160.5469 183.8125,160.625 183.625,160.8125 C183.1719,161.2969 183.1719,161.2969 182.9844,161.3906 C182.5625,161.6563 181.875,161.7813 181.1094,161.7813 C179.0625,161.7813 177.7656,160.6875 177.7656,158.9844 L177.7656,157.8906 C177.7656,156.1094 179.0156,154.7969 180.75,154.7969 C181.3281,154.7969 181.9375,154.9531 182.4063,155.2031 C182.8906,155.4844 183.0625,155.7031 183.1563,156.1094 C183.2188,156.5156 183.25,156.6406 183.3906,156.7656 C183.5313,156.9063 183.7656,157.0156 183.9844,157.0156 C184.25,157.0156 184.5156,156.875 184.6875,156.6563 C184.7969,156.5 184.8281,156.3125 184.8281,155.8906 L184.8281,154.4688 C184.8281,154.0313 184.8125,153.9063 184.7188,153.75 C184.5625,153.4844 184.2813,153.3438 183.9844,153.3438 C183.6875,153.3438 183.4844,153.4375 183.2656,153.75 L183.0938,153.6719 Z " fill="#000000"/><text fill="#000000" font-family="sans-serif" font-size="12" lengthAdjust="spacing" textLength="46" x="201.25" y="162.1543">Context</text><line style="stroke:#A80036;stroke-width:1.5;" x1="93" x2="323" y1="174" y2="174"/><text fill="#000000" font-family="sans-serif" font-size="11" lengthAdjust="spacing" textLength="220" x="98" y="188.2104">-DbSet&lt;DebitoDireto&gt; DebitosDiretos</text><line style="stroke:#A80036;stroke-width:1.5;" x1="93" x2="323" y1="194.8047" y2="194.8047"/><!--MD5=[2b73b95bbac817f6a7c102572079ac7d]
link DebitoDiretoController to DebitoDireto--><path codeLine="24" d="M83.1195,81.192 C79.56,99.346 75.7627,121.731 74,142 C70.2003,185.692 74.0607,234.257 79.462,274.485 " fill="none" id="DebitoDiretoController-to-DebitoDireto" style="stroke:#A80036;stroke-width:1.0;stroke-dasharray:7.0,7.0;"/><polygon fill="#A80036" points="80.1983,279.852,82.9371,270.3916,79.5183,274.8985,75.0115,271.4796,80.1983,279.852" style="stroke:#A80036;stroke-width:1.0;"/><!--MD5=[c76d8f5bbc6eb789cf91f7464f5a950c]
link DebitoDiretoController to Context--><path codeLine="25" d="M124.528,81.25 C140.975,99.033 160.666,120.322 176.79,137.756 " fill="none" id="DebitoDiretoController-to-Context" style="stroke:#A80036;stroke-width:1.0;stroke-dasharray:7.0,7.0;"/><polygon fill="#A80036" points="180.385,141.643,177.2125,132.3191,176.9908,137.9716,171.3382,137.7499,180.385,141.643" style="stroke:#A80036;stroke-width:1.0;"/><!--MD5=[c1903a5b9b31f7fecc953c0878f6c638]
link Context to DebitoDireto--><path codeLine="26" d="M190.095,203.131 C178.27,222.699 162.125,249.416 146.495,275.282 " fill="none" id="Context-to-DebitoDireto" style="stroke:#A80036;stroke-width:1.0;"/><polygon fill="#A80036" points="143.789,279.761,151.868,274.128,146.3755,275.482,145.0216,269.9896,143.789,279.761" style="stroke:#A80036;stroke-width:1.0;"/><text fill="#000000" font-family="sans-serif" font-size="13" lengthAdjust="spacing" textLength="26" x="172" y="246.0669">tem</text><text fill="#000000" font-family="sans-serif" font-size="13" lengthAdjust="spacing" textLength="8" x="177.5771" y="223.0963">1</text><text fill="#000000" font-family="sans-serif" font-size="13" lengthAdjust="spacing" textLength="23" x="124.1101" y="268.8752">0..*</text><!--MD5=[a0178bc8b5328db72590e747d2ee5c6f]
@startuml
skinparam classAttributeIconSize 0

class DebitoDiretoController {
  +Get GetDebitoDireto()
  +Post PostDebitoDireto()
}

class DebitoDireto{
  -Int id PK
  -String iban
  -String nome
  -String rua
  -String codigoPostal
  -String freguesia
  -DateTime data
  -Int nifDestinatario
  -Double custo
}

class Context {
  -DbSet<DebitoDireto> DebitosDiretos
}

DebitoDiretoController ..> DebitoDireto
DebitoDiretoController ..> Context
Context "1" - -> "0..*" DebitoDireto: tem
@enduml

PlantUML version 1.2021.01(Tue Feb 02 07:55:08 UTC 2021)
(GPL source distribution)
Java Runtime: Java(TM) SE Runtime Environment
JVM: Java HotSpot(TM) 64-Bit Server VM
Default Encoding: UTF-8
Language: en
Country: US
--></g></svg>