<?xml version="1.0" encoding="UTF-8" standalone="no"?><svg xmlns="http://www.w3.org/2000/svg" xmlns:xlink="http://www.w3.org/1999/xlink" contentScriptType="application/ecmascript" contentStyleType="text/css" height="393px" preserveAspectRatio="none" style="width:244px;height:393px;" version="1.1" viewBox="0 0 244 393" width="244px" zoomAndPan="magnify"><defs><filter height="300%" id="fcyq4i5y7q923" width="300%" x="-1" y="-1"><feGaussianBlur result="blurOut" stdDeviation="2.0"/><feColorMatrix in="blurOut" result="blurOut2" type="matrix" values="0 0 0 0 0 0 0 0 0 0 0 0 0 0 0 0 0 0 .4 0"/><feOffset dx="4.0" dy="4.0" in="blurOut2" result="blurOut3"/><feBlend in="SourceGraphic" in2="blurOut3" mode="normal"/></filter></defs><g><!--MD5=[b8104c4f3a641f325cf78c05f6b0be4f]
class PaypalController--><rect codeLine="3" fill="#FEFECE" filter="url(#fcyq4i5y7q923)" height="73.6094" id="PaypalController" style="stroke:#A80036;stroke-width:1.5;" width="129" x="7" y="7"/><ellipse cx="22" cy="23" fill="#ADD1B2" rx="11" ry="11" style="stroke:#A80036;stroke-width:1.0;"/><path d="M24.3438,18.6719 C23.4063,18.2344 22.8125,18.0938 21.9375,18.0938 C19.3125,18.0938 17.3125,20.1719 17.3125,22.8906 L17.3125,24.0156 C17.3125,26.5938 19.4219,28.4844 22.3125,28.4844 C23.5313,28.4844 24.6875,28.1875 25.4375,27.6406 C26.0156,27.2344 26.3438,26.7813 26.3438,26.3906 C26.3438,25.9375 25.9531,25.5469 25.4844,25.5469 C25.2656,25.5469 25.0625,25.625 24.875,25.8125 C24.4219,26.2969 24.4219,26.2969 24.2344,26.3906 C23.8125,26.6563 23.125,26.7813 22.3594,26.7813 C20.3125,26.7813 19.0156,25.6875 19.0156,23.9844 L19.0156,22.8906 C19.0156,21.1094 20.2656,19.7969 22,19.7969 C22.5781,19.7969 23.1875,19.9531 23.6563,20.2031 C24.1406,20.4844 24.3125,20.7031 24.4063,21.1094 C24.4688,21.5156 24.5,21.6406 24.6406,21.7656 C24.7813,21.9063 25.0156,22.0156 25.2344,22.0156 C25.5,22.0156 25.7656,21.875 25.9375,21.6563 C26.0469,21.5 26.0781,21.3125 26.0781,20.8906 L26.0781,19.4688 C26.0781,19.0313 26.0625,18.9063 25.9688,18.75 C25.8125,18.4844 25.5313,18.3438 25.2344,18.3438 C24.9375,18.3438 24.7344,18.4375 24.5156,18.75 L24.3438,18.6719 Z " fill="#000000"/><text fill="#000000" font-family="sans-serif" font-size="12" lengthAdjust="spacing" textLength="97" x="36" y="27.1543">PaypalController</text><line style="stroke:#A80036;stroke-width:1.5;" x1="8" x2="135" y1="39" y2="39"/><line style="stroke:#A80036;stroke-width:1.5;" x1="8" x2="135" y1="47" y2="47"/><text fill="#000000" font-family="sans-serif" font-size="11" lengthAdjust="spacing" textLength="100" x="13" y="61.2104">+Get GetPaypal()</text><text fill="#000000" font-family="sans-serif" font-size="11" lengthAdjust="spacing" textLength="104" x="13" y="74.0151">+Post PostPaypal()</text><!--MD5=[73dda7005de60a227966661ed5e41803]
class Paypal--><rect codeLine="8" fill="#FEFECE" filter="url(#fcyq4i5y7q923)" height="99.2188" id="Paypal" style="stroke:#A80036;stroke-width:1.5;" width="106" x="22.5" y="280"/><ellipse cx="53.7" cy="296" fill="#ADD1B2" rx="11" ry="11" style="stroke:#A80036;stroke-width:1.0;"/><path d="M56.0438,291.6719 C55.1063,291.2344 54.5125,291.0938 53.6375,291.0938 C51.0125,291.0938 49.0125,293.1719 49.0125,295.8906 L49.0125,297.0156 C49.0125,299.5938 51.1219,301.4844 54.0125,301.4844 C55.2313,301.4844 56.3875,301.1875 57.1375,300.6406 C57.7156,300.2344 58.0438,299.7813 58.0438,299.3906 C58.0438,298.9375 57.6531,298.5469 57.1844,298.5469 C56.9656,298.5469 56.7625,298.625 56.575,298.8125 C56.1219,299.2969 56.1219,299.2969 55.9344,299.3906 C55.5125,299.6563 54.825,299.7813 54.0594,299.7813 C52.0125,299.7813 50.7156,298.6875 50.7156,296.9844 L50.7156,295.8906 C50.7156,294.1094 51.9656,292.7969 53.7,292.7969 C54.2781,292.7969 54.8875,292.9531 55.3563,293.2031 C55.8406,293.4844 56.0125,293.7031 56.1063,294.1094 C56.1688,294.5156 56.2,294.6406 56.3406,294.7656 C56.4813,294.9063 56.7156,295.0156 56.9344,295.0156 C57.2,295.0156 57.4656,294.875 57.6375,294.6563 C57.7469,294.5 57.7781,294.3125 57.7781,293.8906 L57.7781,292.4688 C57.7781,292.0313 57.7625,291.9063 57.6688,291.75 C57.5125,291.4844 57.2313,291.3438 56.9344,291.3438 C56.6375,291.3438 56.4344,291.4375 56.2156,291.75 L56.0438,291.6719 Z " fill="#000000"/><text fill="#000000" font-family="sans-serif" font-size="12" lengthAdjust="spacing" textLength="38" x="71.3" y="300.1543">Paypal</text><line style="stroke:#A80036;stroke-width:1.5;" x1="23.5" x2="127.5" y1="312" y2="312"/><text fill="#000000" font-family="sans-serif" font-size="11" lengthAdjust="spacing" textLength="49" x="28.5" y="326.2104">-Int id PK</text><text fill="#000000" font-family="sans-serif" font-size="11" lengthAdjust="spacing" textLength="73" x="28.5" y="339.0151">-String email</text><text fill="#000000" font-family="sans-serif" font-size="11" lengthAdjust="spacing" textLength="94" x="28.5" y="351.8198">-String password</text><text fill="#000000" font-family="sans-serif" font-size="11" lengthAdjust="spacing" textLength="93" x="28.5" y="364.6245">-Int metodoId FK</text><line style="stroke:#A80036;stroke-width:1.5;" x1="23.5" x2="127.5" y1="371.2188" y2="371.2188"/><!--MD5=[6754354365917abf8f1a56af1b7e344c]
class Context--><rect codeLine="15" fill="#FEFECE" filter="url(#fcyq4i5y7q923)" height="60.8047" id="Context" style="stroke:#A80036;stroke-width:1.5;" width="148" x="82.5" y="142"/><ellipse cx="129.25" cy="158" fill="#ADD1B2" rx="11" ry="11" style="stroke:#A80036;stroke-width:1.0;"/><path d="M131.5938,153.6719 C130.6563,153.2344 130.0625,153.0938 129.1875,153.0938 C126.5625,153.0938 124.5625,155.1719 124.5625,157.8906 L124.5625,159.0156 C124.5625,161.5938 126.6719,163.4844 129.5625,163.4844 C130.7813,163.4844 131.9375,163.1875 132.6875,162.6406 C133.2656,162.2344 133.5938,161.7813 133.5938,161.3906 C133.5938,160.9375 133.2031,160.5469 132.7344,160.5469 C132.5156,160.5469 132.3125,160.625 132.125,160.8125 C131.6719,161.2969 131.6719,161.2969 131.4844,161.3906 C131.0625,161.6563 130.375,161.7813 129.6094,161.7813 C127.5625,161.7813 126.2656,160.6875 126.2656,158.9844 L126.2656,157.8906 C126.2656,156.1094 127.5156,154.7969 129.25,154.7969 C129.8281,154.7969 130.4375,154.9531 130.9063,155.2031 C131.3906,155.4844 131.5625,155.7031 131.6563,156.1094 C131.7188,156.5156 131.75,156.6406 131.8906,156.7656 C132.0313,156.9063 132.2656,157.0156 132.4844,157.0156 C132.75,157.0156 133.0156,156.875 133.1875,156.6563 C133.2969,156.5 133.3281,156.3125 133.3281,155.8906 L133.3281,154.4688 C133.3281,154.0313 133.3125,153.9063 133.2188,153.75 C133.0625,153.4844 132.7813,153.3438 132.4844,153.3438 C132.1875,153.3438 131.9844,153.4375 131.7656,153.75 L131.5938,153.6719 Z " fill="#000000"/><text fill="#000000" font-family="sans-serif" font-size="12" lengthAdjust="spacing" textLength="46" x="149.75" y="162.1543">Context</text><line style="stroke:#A80036;stroke-width:1.5;" x1="83.5" x2="229.5" y1="174" y2="174"/><text fill="#000000" font-family="sans-serif" font-size="11" lengthAdjust="spacing" textLength="136" x="88.5" y="188.2104">-DbSet&lt;Paypal&gt; Paypal</text><line style="stroke:#A80036;stroke-width:1.5;" x1="83.5" x2="229.5" y1="194.8047" y2="194.8047"/><!--MD5=[2f2843c346a3c3599496aa2ceeeb73aa]
link PaypalController to Paypal--><path codeLine="19" d="M68.2531,81.355 C66.787,99.549 65.2236,121.921 64.5,142 C63.5237,169.094 63.3153,175.915 64.5,203 C65.5352,226.666 67.6634,252.771 69.7745,275.015 " fill="none" id="PaypalController-to-Paypal" style="stroke:#A80036;stroke-width:1.0;stroke-dasharray:7.0,7.0;"/><polygon fill="#A80036" points="70.2527,279.9931,73.3756,270.6525,69.7756,275.0159,65.4121,271.4159,70.2527,279.9931" style="stroke:#A80036;stroke-width:1.0;"/><!--MD5=[3bd90150c32a7e73a08924fb63dffd03]
link PaypalController to Context--><path codeLine="20" d="M95.8576,81.25 C107.706,98.884 121.871,119.965 133.531,137.316 " fill="none" id="PaypalController-to-Context" style="stroke:#A80036;stroke-width:1.0;stroke-dasharray:7.0,7.0;"/><polygon fill="#A80036" points="136.438,141.643,134.7385,131.9419,133.6494,137.4929,128.0983,136.4037,136.438,141.643" style="stroke:#A80036;stroke-width:1.0;"/><!--MD5=[b360941a2712cb8395db3a3398c2530d]
link Context to Paypal--><path codeLine="21" d="M141.074,203.019 C130.401,223.443 115.897,251.197 103.2434,275.411 " fill="none" id="Context-to-Paypal" style="stroke:#A80036;stroke-width:1.0;"/><polygon fill="#A80036" points="100.9036,279.8881,108.6171,273.7642,103.2194,275.4567,101.5269,270.059,100.9036,279.8881" style="stroke:#A80036;stroke-width:1.0;"/><text fill="#000000" font-family="sans-serif" font-size="13" lengthAdjust="spacing" textLength="26" x="123.5" y="246.0669">tem</text><text fill="#000000" font-family="sans-serif" font-size="13" lengthAdjust="spacing" textLength="8" x="129.0674" y="222.9612">1</text><text fill="#000000" font-family="sans-serif" font-size="13" lengthAdjust="spacing" textLength="23" x="79.8588" y="268.9175">0..*</text><!--MD5=[032df1f3707b6ee494399ef6ce0d2d95]
@startuml
skinparam classAttributeIconSize 0

class PaypalController {
  +Get GetPaypal()
  +Post PostPaypal()
}

class Paypal {
  -Int id PK
  -String email
  -String password
  -Int metodoId FK
}

class Context {
  -DbSet<Paypal> Paypal
}

PaypalController ..> Paypal
PaypalController ..> Context
Context "1" - -> "0..*" Paypal: tem
@enduml

PlantUML version 1.2021.01(Tue Feb 02 07:55:08 UTC 2021)
(GPL source distribution)
Java Runtime: Java(TM) SE Runtime Environment
JVM: Java HotSpot(TM) 64-Bit Server VM
Default Encoding: UTF-8
Language: en
Country: US
--></g></svg>