<?xml version="1.0" encoding="UTF-8" standalone="no"?><svg xmlns="http://www.w3.org/2000/svg" xmlns:xlink="http://www.w3.org/1999/xlink" contentScriptType="application/ecmascript" contentStyleType="text/css" height="418px" preserveAspectRatio="none" style="width:253px;height:418px;" version="1.1" viewBox="0 0 253 418" width="253px" zoomAndPan="magnify"><defs><filter height="300%" id="fps6tagllx6lx" width="300%" x="-1" y="-1"><feGaussianBlur result="blurOut" stdDeviation="2.0"/><feColorMatrix in="blurOut" result="blurOut2" type="matrix" values="0 0 0 0 0 0 0 0 0 0 0 0 0 0 0 0 0 0 .4 0"/><feOffset dx="4.0" dy="4.0" in="blurOut2" result="blurOut3"/><feBlend in="SourceGraphic" in2="blurOut3" mode="normal"/></filter></defs><g><!--MD5=[b8104c4f3a641f325cf78c05f6b0be4f]
class PaypalController--><rect codeLine="3" fill="#FEFECE" filter="url(#fps6tagllx6lx)" height="73.6094" id="PaypalController" style="stroke:#A80036;stroke-width:1.5;" width="129" x="15.5" y="7"/><ellipse cx="30.5" cy="23" fill="#ADD1B2" rx="11" ry="11" style="stroke:#A80036;stroke-width:1.0;"/><path d="M32.8438,18.6719 C31.9063,18.2344 31.3125,18.0938 30.4375,18.0938 C27.8125,18.0938 25.8125,20.1719 25.8125,22.8906 L25.8125,24.0156 C25.8125,26.5938 27.9219,28.4844 30.8125,28.4844 C32.0313,28.4844 33.1875,28.1875 33.9375,27.6406 C34.5156,27.2344 34.8438,26.7813 34.8438,26.3906 C34.8438,25.9375 34.4531,25.5469 33.9844,25.5469 C33.7656,25.5469 33.5625,25.625 33.375,25.8125 C32.9219,26.2969 32.9219,26.2969 32.7344,26.3906 C32.3125,26.6563 31.625,26.7813 30.8594,26.7813 C28.8125,26.7813 27.5156,25.6875 27.5156,23.9844 L27.5156,22.8906 C27.5156,21.1094 28.7656,19.7969 30.5,19.7969 C31.0781,19.7969 31.6875,19.9531 32.1563,20.2031 C32.6406,20.4844 32.8125,20.7031 32.9063,21.1094 C32.9688,21.5156 33,21.6406 33.1406,21.7656 C33.2813,21.9063 33.5156,22.0156 33.7344,22.0156 C34,22.0156 34.2656,21.875 34.4375,21.6563 C34.5469,21.5 34.5781,21.3125 34.5781,20.8906 L34.5781,19.4688 C34.5781,19.0313 34.5625,18.9063 34.4688,18.75 C34.3125,18.4844 34.0313,18.3438 33.7344,18.3438 C33.4375,18.3438 33.2344,18.4375 33.0156,18.75 L32.8438,18.6719 Z " fill="#000000"/><text fill="#000000" font-family="sans-serif" font-size="12" lengthAdjust="spacing" textLength="97" x="44.5" y="27.1543">PaypalController</text><line style="stroke:#A80036;stroke-width:1.5;" x1="16.5" x2="143.5" y1="39" y2="39"/><line style="stroke:#A80036;stroke-width:1.5;" x1="16.5" x2="143.5" y1="47" y2="47"/><text fill="#000000" font-family="sans-serif" font-size="11" lengthAdjust="spacing" textLength="100" x="21.5" y="61.2104">+Get GetPaypal()</text><text fill="#000000" font-family="sans-serif" font-size="11" lengthAdjust="spacing" textLength="104" x="21.5" y="74.0151">+Post PostPaypal()</text><!--MD5=[73dda7005de60a227966661ed5e41803]
class Paypal--><rect codeLine="8" fill="#FEFECE" filter="url(#fps6tagllx6lx)" height="124.8281" id="Paypal" style="stroke:#A80036;stroke-width:1.5;" width="154" x="7" y="280"/><ellipse cx="60.75" cy="296" fill="#ADD1B2" rx="11" ry="11" style="stroke:#A80036;stroke-width:1.0;"/><path d="M63.0938,291.6719 C62.1563,291.2344 61.5625,291.0938 60.6875,291.0938 C58.0625,291.0938 56.0625,293.1719 56.0625,295.8906 L56.0625,297.0156 C56.0625,299.5938 58.1719,301.4844 61.0625,301.4844 C62.2813,301.4844 63.4375,301.1875 64.1875,300.6406 C64.7656,300.2344 65.0938,299.7813 65.0938,299.3906 C65.0938,298.9375 64.7031,298.5469 64.2344,298.5469 C64.0156,298.5469 63.8125,298.625 63.625,298.8125 C63.1719,299.2969 63.1719,299.2969 62.9844,299.3906 C62.5625,299.6563 61.875,299.7813 61.1094,299.7813 C59.0625,299.7813 57.7656,298.6875 57.7656,296.9844 L57.7656,295.8906 C57.7656,294.1094 59.0156,292.7969 60.75,292.7969 C61.3281,292.7969 61.9375,292.9531 62.4063,293.2031 C62.8906,293.4844 63.0625,293.7031 63.1563,294.1094 C63.2188,294.5156 63.25,294.6406 63.3906,294.7656 C63.5313,294.9063 63.7656,295.0156 63.9844,295.0156 C64.25,295.0156 64.5156,294.875 64.6875,294.6563 C64.7969,294.5 64.8281,294.3125 64.8281,293.8906 L64.8281,292.4688 C64.8281,292.0313 64.8125,291.9063 64.7188,291.75 C64.5625,291.4844 64.2813,291.3438 63.9844,291.3438 C63.6875,291.3438 63.4844,291.4375 63.2656,291.75 L63.0938,291.6719 Z " fill="#000000"/><text fill="#000000" font-family="sans-serif" font-size="12" lengthAdjust="spacing" textLength="38" x="81.25" y="300.1543">Paypal</text><line style="stroke:#A80036;stroke-width:1.5;" x1="8" x2="160" y1="312" y2="312"/><text fill="#000000" font-family="sans-serif" font-size="11" lengthAdjust="spacing" textLength="32" x="13" y="326.2104">-Int id</text><text fill="#000000" font-family="sans-serif" font-size="11" lengthAdjust="spacing" textLength="73" x="13" y="339.0151">-String email</text><text fill="#000000" font-family="sans-serif" font-size="11" lengthAdjust="spacing" textLength="94" x="13" y="351.8198">-String password</text><text fill="#000000" font-family="sans-serif" font-size="11" lengthAdjust="spacing" textLength="79" x="13" y="364.6245">-Double custo</text><text fill="#000000" font-family="sans-serif" font-size="11" lengthAdjust="spacing" textLength="142" x="13" y="377.4292">-String emailDestinatario</text><text fill="#000000" font-family="sans-serif" font-size="11" lengthAdjust="spacing" textLength="90" x="13" y="390.2339">-DateTime data</text><line style="stroke:#A80036;stroke-width:1.5;" x1="8" x2="160" y1="396.8281" y2="396.8281"/><!--MD5=[6754354365917abf8f1a56af1b7e344c]
class Context--><rect codeLine="17" fill="#FEFECE" filter="url(#fps6tagllx6lx)" height="60.8047" id="Context" style="stroke:#A80036;stroke-width:1.5;" width="148" x="91" y="142"/><ellipse cx="137.75" cy="158" fill="#ADD1B2" rx="11" ry="11" style="stroke:#A80036;stroke-width:1.0;"/><path d="M140.0938,153.6719 C139.1563,153.2344 138.5625,153.0938 137.6875,153.0938 C135.0625,153.0938 133.0625,155.1719 133.0625,157.8906 L133.0625,159.0156 C133.0625,161.5938 135.1719,163.4844 138.0625,163.4844 C139.2813,163.4844 140.4375,163.1875 141.1875,162.6406 C141.7656,162.2344 142.0938,161.7813 142.0938,161.3906 C142.0938,160.9375 141.7031,160.5469 141.2344,160.5469 C141.0156,160.5469 140.8125,160.625 140.625,160.8125 C140.1719,161.2969 140.1719,161.2969 139.9844,161.3906 C139.5625,161.6563 138.875,161.7813 138.1094,161.7813 C136.0625,161.7813 134.7656,160.6875 134.7656,158.9844 L134.7656,157.8906 C134.7656,156.1094 136.0156,154.7969 137.75,154.7969 C138.3281,154.7969 138.9375,154.9531 139.4063,155.2031 C139.8906,155.4844 140.0625,155.7031 140.1563,156.1094 C140.2188,156.5156 140.25,156.6406 140.3906,156.7656 C140.5313,156.9063 140.7656,157.0156 140.9844,157.0156 C141.25,157.0156 141.5156,156.875 141.6875,156.6563 C141.7969,156.5 141.8281,156.3125 141.8281,155.8906 L141.8281,154.4688 C141.8281,154.0313 141.8125,153.9063 141.7188,153.75 C141.5625,153.4844 141.2813,153.3438 140.9844,153.3438 C140.6875,153.3438 140.4844,153.4375 140.2656,153.75 L140.0938,153.6719 Z " fill="#000000"/><text fill="#000000" font-family="sans-serif" font-size="12" lengthAdjust="spacing" textLength="46" x="158.25" y="162.1543">Context</text><line style="stroke:#A80036;stroke-width:1.5;" x1="92" x2="238" y1="174" y2="174"/><text fill="#000000" font-family="sans-serif" font-size="11" lengthAdjust="spacing" textLength="136" x="97" y="188.2104">-DbSet&lt;Paypal&gt; Paypal</text><line style="stroke:#A80036;stroke-width:1.5;" x1="92" x2="238" y1="194.8047" y2="194.8047"/><!--MD5=[2f2843c346a3c3599496aa2ceeeb73aa]
link PaypalController to Paypal--><path codeLine="21" d="M76.7531,81.355 C75.287,99.549 73.7236,121.921 73,142 C72.0237,169.094 71.9259,175.91 73,203 C73.9284,226.416 75.7364,252.006 77.6226,274.747 " fill="none" id="PaypalController-to-Paypal" style="stroke:#A80036;stroke-width:1.0;stroke-dasharray:7.0,7.0;"/><polygon fill="#A80036" points="78.0516,279.856,81.2841,270.5527,77.633,274.8736,73.3122,271.2225,78.0516,279.856" style="stroke:#A80036;stroke-width:1.0;"/><!--MD5=[3bd90150c32a7e73a08924fb63dffd03]
link PaypalController to Context--><path codeLine="22" d="M104.3576,81.25 C116.206,98.884 130.371,119.965 142.031,137.316 " fill="none" id="PaypalController-to-Context" style="stroke:#A80036;stroke-width:1.0;stroke-dasharray:7.0,7.0;"/><polygon fill="#A80036" points="144.938,141.643,143.2385,131.9419,142.1494,137.4929,136.5983,136.4037,144.938,141.643" style="stroke:#A80036;stroke-width:1.0;"/><!--MD5=[b360941a2712cb8395db3a3398c2530d]
link Context to Paypal--><path codeLine="23" d="M150.705,203.148 C141.085,223.101 128.008,250.224 115.981,275.169 " fill="none" id="Context-to-Paypal" style="stroke:#A80036;stroke-width:1.0;"/><polygon fill="#A80036" points="113.749,279.799,121.2612,273.4298,115.9208,275.2953,114.0553,269.9549,113.749,279.799" style="stroke:#A80036;stroke-width:1.0;"/><text fill="#000000" font-family="sans-serif" font-size="13" lengthAdjust="spacing" textLength="26" x="135" y="246.0669">tem</text><text fill="#000000" font-family="sans-serif" font-size="13" lengthAdjust="spacing" textLength="8" x="139.1032" y="222.7576">1</text><text fill="#000000" font-family="sans-serif" font-size="13" lengthAdjust="spacing" textLength="23" x="92.8586" y="268.7665">0..*</text><!--MD5=[c5333eb44b1cb9b2ec167ff63fdbca9e]
@startuml
skinparam classAttributeIconSize 0

class PaypalController {
  +Get GetPaypal()
  +Post PostPaypal()
}

class Paypal {
  -Int id
  -String email
  -String password
  -Double custo
  -String emailDestinatario
  -DateTime data
}

class Context {
  -DbSet<Paypal> Paypal
}

PaypalController ..> Paypal
PaypalController ..> Context
Context "1" - -> "0..*" Paypal: tem
@enduml

PlantUML version 1.2021.01(Tue Feb 02 07:55:08 UTC 2021)
(GPL source distribution)
Java Runtime: Java(TM) SE Runtime Environment
JVM: Java HotSpot(TM) 64-Bit Server VM
Default Encoding: UTF-8
Language: en
Country: US
--></g></svg>