<?xml version="1.0" encoding="UTF-8" standalone="no"?><svg xmlns="http://www.w3.org/2000/svg" xmlns:xlink="http://www.w3.org/1999/xlink" contentScriptType="application/ecmascript" contentStyleType="text/css" height="1050px" preserveAspectRatio="none" style="width:754px;height:1050px;" version="1.1" viewBox="0 0 754 1050" width="754px" zoomAndPan="magnify"><defs><filter height="300%" id="f1pwkor6lh39v4" width="300%" x="-1" y="-1"><feGaussianBlur result="blurOut" stdDeviation="2.0"/><feColorMatrix in="blurOut" result="blurOut2" type="matrix" values="0 0 0 0 0 0 0 0 0 0 0 0 0 0 0 0 0 0 .4 0"/><feOffset dx="4.0" dy="4.0" in="blurOut2" result="blurOut3"/><feBlend in="SourceGraphic" in2="blurOut3" mode="normal"/></filter></defs><g><!--MD5=[79f6d8311de756be0abfe06353b7a6cc]
cluster DTOs--><polygon fill="#FFFFFF" filter="url(#f1pwkor6lh39v4)" points="16,6,65,6,72,28.2969,737,28.2969,737,1043,16,1043,16,6" style="stroke:#000000;stroke-width:1.5;"/><line style="stroke:#000000;stroke-width:1.5;" x1="16" x2="72" y1="28.2969" y2="28.2969"/><text fill="#000000" font-family="sans-serif" font-size="14" font-weight="bold" lengthAdjust="spacing" textLength="43" x="20" y="20.9951">DTOs</text><!--MD5=[2c46b324c9e8f1f64d081689ccf9134a]
class FreguesiaDTO--><rect codeLine="5" fill="#FEFECE" filter="url(#f1pwkor6lh39v4)" height="73.6094" id="FreguesiaDTO" style="stroke:#A80036;stroke-width:1.5;" width="118" x="56" y="92"/><ellipse cx="71" cy="108" fill="#ADD1B2" rx="11" ry="11" style="stroke:#A80036;stroke-width:1.0;"/><path d="M73.3438,103.6719 C72.4063,103.2344 71.8125,103.0938 70.9375,103.0938 C68.3125,103.0938 66.3125,105.1719 66.3125,107.8906 L66.3125,109.0156 C66.3125,111.5938 68.4219,113.4844 71.3125,113.4844 C72.5313,113.4844 73.6875,113.1875 74.4375,112.6406 C75.0156,112.2344 75.3438,111.7813 75.3438,111.3906 C75.3438,110.9375 74.9531,110.5469 74.4844,110.5469 C74.2656,110.5469 74.0625,110.625 73.875,110.8125 C73.4219,111.2969 73.4219,111.2969 73.2344,111.3906 C72.8125,111.6563 72.125,111.7813 71.3594,111.7813 C69.3125,111.7813 68.0156,110.6875 68.0156,108.9844 L68.0156,107.8906 C68.0156,106.1094 69.2656,104.7969 71,104.7969 C71.5781,104.7969 72.1875,104.9531 72.6563,105.2031 C73.1406,105.4844 73.3125,105.7031 73.4063,106.1094 C73.4688,106.5156 73.5,106.6406 73.6406,106.7656 C73.7813,106.9063 74.0156,107.0156 74.2344,107.0156 C74.5,107.0156 74.7656,106.875 74.9375,106.6563 C75.0469,106.5 75.0781,106.3125 75.0781,105.8906 L75.0781,104.4688 C75.0781,104.0313 75.0625,103.9063 74.9688,103.75 C74.8125,103.4844 74.5313,103.3438 74.2344,103.3438 C73.9375,103.3438 73.7344,103.4375 73.5156,103.75 L73.3438,103.6719 Z " fill="#000000"/><text fill="#000000" font-family="sans-serif" font-size="12" lengthAdjust="spacing" textLength="86" x="85" y="112.1543">FreguesiaDTO</text><line style="stroke:#A80036;stroke-width:1.5;" x1="57" x2="173" y1="124" y2="124"/><text fill="#000000" font-family="sans-serif" font-size="11" lengthAdjust="spacing" textLength="32" x="62" y="138.2104">-Int id</text><text fill="#000000" font-family="sans-serif" font-size="11" lengthAdjust="spacing" textLength="74" x="62" y="151.0151">-String nome</text><line style="stroke:#A80036;stroke-width:1.5;" x1="57" x2="173" y1="157.6094" y2="157.6094"/><!--MD5=[f55b01cf9e1b785611c60685d5f9ff89]
class LugarDTO--><rect codeLine="10" fill="#FEFECE" filter="url(#f1pwkor6lh39v4)" height="176.0469" id="LugarDTO" style="stroke:#A80036;stroke-width:1.5;" width="131" x="209.5" y="41"/><ellipse cx="242.5" cy="57" fill="#ADD1B2" rx="11" ry="11" style="stroke:#A80036;stroke-width:1.0;"/><path d="M244.8438,52.6719 C243.9063,52.2344 243.3125,52.0938 242.4375,52.0938 C239.8125,52.0938 237.8125,54.1719 237.8125,56.8906 L237.8125,58.0156 C237.8125,60.5938 239.9219,62.4844 242.8125,62.4844 C244.0313,62.4844 245.1875,62.1875 245.9375,61.6406 C246.5156,61.2344 246.8438,60.7813 246.8438,60.3906 C246.8438,59.9375 246.4531,59.5469 245.9844,59.5469 C245.7656,59.5469 245.5625,59.625 245.375,59.8125 C244.9219,60.2969 244.9219,60.2969 244.7344,60.3906 C244.3125,60.6563 243.625,60.7813 242.8594,60.7813 C240.8125,60.7813 239.5156,59.6875 239.5156,57.9844 L239.5156,56.8906 C239.5156,55.1094 240.7656,53.7969 242.5,53.7969 C243.0781,53.7969 243.6875,53.9531 244.1563,54.2031 C244.6406,54.4844 244.8125,54.7031 244.9063,55.1094 C244.9688,55.5156 245,55.6406 245.1406,55.7656 C245.2813,55.9063 245.5156,56.0156 245.7344,56.0156 C246,56.0156 246.2656,55.875 246.4375,55.6563 C246.5469,55.5 246.5781,55.3125 246.5781,54.8906 L246.5781,53.4688 C246.5781,53.0313 246.5625,52.9063 246.4688,52.75 C246.3125,52.4844 246.0313,52.3438 245.7344,52.3438 C245.4375,52.3438 245.2344,52.4375 245.0156,52.75 L244.8438,52.6719 Z " fill="#000000"/><text fill="#000000" font-family="sans-serif" font-size="12" lengthAdjust="spacing" textLength="59" x="260.5" y="61.1543">LugarDTO</text><line style="stroke:#A80036;stroke-width:1.5;" x1="210.5" x2="339.5" y1="73" y2="73"/><text fill="#000000" font-family="sans-serif" font-size="11" lengthAdjust="spacing" textLength="32" x="215.5" y="87.2104">-Int id</text><text fill="#000000" font-family="sans-serif" font-size="11" lengthAdjust="spacing" textLength="72" x="215.5" y="100.0151">-Int parqueId</text><text fill="#000000" font-family="sans-serif" font-size="11" lengthAdjust="spacing" textLength="66" x="215.5" y="112.8198">-Int numero</text><text fill="#000000" font-family="sans-serif" font-size="11" lengthAdjust="spacing" textLength="58" x="215.5" y="125.6245">-String fila</text><text fill="#000000" font-family="sans-serif" font-size="11" lengthAdjust="spacing" textLength="54" x="215.5" y="138.4292">-Int andar</text><text fill="#000000" font-family="sans-serif" font-size="11" lengthAdjust="spacing" textLength="81" x="215.5" y="151.2339">-Double preco</text><text fill="#000000" font-family="sans-serif" font-size="11" lengthAdjust="spacing" textLength="119" x="215.5" y="164.0386">-String nifProprietario</text><text fill="#000000" font-family="sans-serif" font-size="11" lengthAdjust="spacing" textLength="119" x="215.5" y="176.8433">-Int reservaOriginalId</text><text fill="#000000" font-family="sans-serif" font-size="11" lengthAdjust="spacing" textLength="88" x="215.5" y="189.6479">-Int parqueIdSC</text><text fill="#000000" font-family="sans-serif" font-size="11" lengthAdjust="spacing" textLength="73" x="215.5" y="202.4526">-String apiUrl</text><line style="stroke:#A80036;stroke-width:1.5;" x1="210.5" x2="339.5" y1="209.0469" y2="209.0469"/><!--MD5=[b030f671249d32b619df082f64420c8a]
class PagamentoDTO--><rect codeLine="23" fill="#FEFECE" filter="url(#f1pwkor6lh39v4)" height="99.2188" id="PagamentoDTO" style="stroke:#A80036;stroke-width:1.5;" width="128" x="376" y="79.5"/><ellipse cx="392.8" cy="95.5" fill="#ADD1B2" rx="11" ry="11" style="stroke:#A80036;stroke-width:1.0;"/><path d="M395.1438,91.1719 C394.2063,90.7344 393.6125,90.5938 392.7375,90.5938 C390.1125,90.5938 388.1125,92.6719 388.1125,95.3906 L388.1125,96.5156 C388.1125,99.0938 390.2219,100.9844 393.1125,100.9844 C394.3313,100.9844 395.4875,100.6875 396.2375,100.1406 C396.8156,99.7344 397.1438,99.2813 397.1438,98.8906 C397.1438,98.4375 396.7531,98.0469 396.2844,98.0469 C396.0656,98.0469 395.8625,98.125 395.675,98.3125 C395.2219,98.7969 395.2219,98.7969 395.0344,98.8906 C394.6125,99.1563 393.925,99.2813 393.1594,99.2813 C391.1125,99.2813 389.8156,98.1875 389.8156,96.4844 L389.8156,95.3906 C389.8156,93.6094 391.0656,92.2969 392.8,92.2969 C393.3781,92.2969 393.9875,92.4531 394.4563,92.7031 C394.9406,92.9844 395.1125,93.2031 395.2063,93.6094 C395.2688,94.0156 395.3,94.1406 395.4406,94.2656 C395.5813,94.4063 395.8156,94.5156 396.0344,94.5156 C396.3,94.5156 396.5656,94.375 396.7375,94.1563 C396.8469,94 396.8781,93.8125 396.8781,93.3906 L396.8781,91.9688 C396.8781,91.5313 396.8625,91.4063 396.7688,91.25 C396.6125,90.9844 396.3313,90.8438 396.0344,90.8438 C395.7375,90.8438 395.5344,90.9375 395.3156,91.25 L395.1438,91.1719 Z " fill="#000000"/><text fill="#000000" font-family="sans-serif" font-size="12" lengthAdjust="spacing" textLength="92" x="407.2" y="99.6543">PagamentoDTO</text><line style="stroke:#A80036;stroke-width:1.5;" x1="377" x2="503" y1="111.5" y2="111.5"/><text fill="#000000" font-family="sans-serif" font-size="11" lengthAdjust="spacing" textLength="100" x="382" y="125.7104">-String nifPagador</text><text fill="#000000" font-family="sans-serif" font-size="11" lengthAdjust="spacing" textLength="116" x="382" y="138.5151">-String nifRecipiente</text><text fill="#000000" font-family="sans-serif" font-size="11" lengthAdjust="spacing" textLength="76" x="382" y="151.3198">-Int metodoId</text><text fill="#000000" font-family="sans-serif" font-size="11" lengthAdjust="spacing" textLength="77" x="382" y="164.1245">-Double valor</text><line style="stroke:#A80036;stroke-width:1.5;" x1="377" x2="503" y1="170.7188" y2="170.7188"/><!--MD5=[7e02c7349cbcec40ae1dd951aa82354c]
class ReservaDTO--><rect codeLine="30" fill="#FEFECE" filter="url(#f1pwkor6lh39v4)" height="176.0469" id="ReservaDTO" style="stroke:#A80036;stroke-width:1.5;" width="131" x="539.5" y="41"/><ellipse cx="565.3" cy="57" fill="#ADD1B2" rx="11" ry="11" style="stroke:#A80036;stroke-width:1.0;"/><path d="M567.6438,52.6719 C566.7063,52.2344 566.1125,52.0938 565.2375,52.0938 C562.6125,52.0938 560.6125,54.1719 560.6125,56.8906 L560.6125,58.0156 C560.6125,60.5938 562.7219,62.4844 565.6125,62.4844 C566.8313,62.4844 567.9875,62.1875 568.7375,61.6406 C569.3156,61.2344 569.6438,60.7813 569.6438,60.3906 C569.6438,59.9375 569.2531,59.5469 568.7844,59.5469 C568.5656,59.5469 568.3625,59.625 568.175,59.8125 C567.7219,60.2969 567.7219,60.2969 567.5344,60.3906 C567.1125,60.6563 566.425,60.7813 565.6594,60.7813 C563.6125,60.7813 562.3156,59.6875 562.3156,57.9844 L562.3156,56.8906 C562.3156,55.1094 563.5656,53.7969 565.3,53.7969 C565.8781,53.7969 566.4875,53.9531 566.9563,54.2031 C567.4406,54.4844 567.6125,54.7031 567.7063,55.1094 C567.7688,55.5156 567.8,55.6406 567.9406,55.7656 C568.0813,55.9063 568.3156,56.0156 568.5344,56.0156 C568.8,56.0156 569.0656,55.875 569.2375,55.6563 C569.3469,55.5 569.3781,55.3125 569.3781,54.8906 L569.3781,53.4688 C569.3781,53.0313 569.3625,52.9063 569.2688,52.75 C569.1125,52.4844 568.8313,52.3438 568.5344,52.3438 C568.2375,52.3438 568.0344,52.4375 567.8156,52.75 L567.6438,52.6719 Z " fill="#000000"/><text fill="#000000" font-family="sans-serif" font-size="12" lengthAdjust="spacing" textLength="75" x="581.7" y="61.1543">ReservaDTO</text><line style="stroke:#A80036;stroke-width:1.5;" x1="540.5" x2="669.5" y1="73" y2="73"/><text fill="#000000" font-family="sans-serif" font-size="11" lengthAdjust="spacing" textLength="108" x="545.5" y="87.2104">-String nifUtilizador</text><text fill="#000000" font-family="sans-serif" font-size="11" lengthAdjust="spacing" textLength="111" x="545.5" y="100.0151">-String nifVendedor</text><text fill="#000000" font-family="sans-serif" font-size="11" lengthAdjust="spacing" textLength="72" x="545.5" y="112.8198">-Int parqueId</text><text fill="#000000" font-family="sans-serif" font-size="11" lengthAdjust="spacing" textLength="73" x="545.5" y="125.6245">-String apiUrl</text><text fill="#000000" font-family="sans-serif" font-size="11" lengthAdjust="spacing" textLength="76" x="545.5" y="138.4292">-Int metodoId</text><text fill="#000000" font-family="sans-serif" font-size="11" lengthAdjust="spacing" textLength="119" x="545.5" y="151.2339">-Int reservaOriginalId</text><text fill="#000000" font-family="sans-serif" font-size="11" lengthAdjust="spacing" textLength="81" x="545.5" y="164.0386">-Double preco</text><text fill="#000000" font-family="sans-serif" font-size="11" lengthAdjust="spacing" textLength="60" x="545.5" y="176.8433">-Int lugarId</text><text fill="#000000" font-family="sans-serif" font-size="11" lengthAdjust="spacing" textLength="94" x="545.5" y="189.6479">-DateTime inicio</text><text fill="#000000" font-family="sans-serif" font-size="11" lengthAdjust="spacing" textLength="83" x="545.5" y="202.4526">-DateTime fim</text><line style="stroke:#A80036;stroke-width:1.5;" x1="540.5" x2="669.5" y1="209.0469" y2="209.0469"/><!--MD5=[c33539a178a9b5702e9fc3a8d3759cbc]
class ReservaAPIParqueDTO--><rect codeLine="43" fill="#FEFECE" filter="url(#f1pwkor6lh39v4)" height="112.0234" id="ReservaAPIParqueDTO" style="stroke:#A80036;stroke-width:1.5;" width="165" x="32.5" y="296"/><ellipse cx="47.5" cy="312" fill="#ADD1B2" rx="11" ry="11" style="stroke:#A80036;stroke-width:1.0;"/><path d="M49.8438,307.6719 C48.9063,307.2344 48.3125,307.0938 47.4375,307.0938 C44.8125,307.0938 42.8125,309.1719 42.8125,311.8906 L42.8125,313.0156 C42.8125,315.5938 44.9219,317.4844 47.8125,317.4844 C49.0313,317.4844 50.1875,317.1875 50.9375,316.6406 C51.5156,316.2344 51.8438,315.7813 51.8438,315.3906 C51.8438,314.9375 51.4531,314.5469 50.9844,314.5469 C50.7656,314.5469 50.5625,314.625 50.375,314.8125 C49.9219,315.2969 49.9219,315.2969 49.7344,315.3906 C49.3125,315.6563 48.625,315.7813 47.8594,315.7813 C45.8125,315.7813 44.5156,314.6875 44.5156,312.9844 L44.5156,311.8906 C44.5156,310.1094 45.7656,308.7969 47.5,308.7969 C48.0781,308.7969 48.6875,308.9531 49.1563,309.2031 C49.6406,309.4844 49.8125,309.7031 49.9063,310.1094 C49.9688,310.5156 50,310.6406 50.1406,310.7656 C50.2813,310.9063 50.5156,311.0156 50.7344,311.0156 C51,311.0156 51.2656,310.875 51.4375,310.6563 C51.5469,310.5 51.5781,310.3125 51.5781,309.8906 L51.5781,308.4688 C51.5781,308.0313 51.5625,307.9063 51.4688,307.75 C51.3125,307.4844 51.0313,307.3438 50.7344,307.3438 C50.4375,307.3438 50.2344,307.4375 50.0156,307.75 L49.8438,307.6719 Z " fill="#000000"/><text fill="#000000" font-family="sans-serif" font-size="12" lengthAdjust="spacing" textLength="133" x="61.5" y="316.1543">ReservaAPIParqueDTO</text><line style="stroke:#A80036;stroke-width:1.5;" x1="33.5" x2="196.5" y1="328" y2="328"/><text fill="#000000" font-family="sans-serif" font-size="11" lengthAdjust="spacing" textLength="32" x="38.5" y="342.2104">-Int id</text><text fill="#000000" font-family="sans-serif" font-size="11" lengthAdjust="spacing" textLength="77" x="38.5" y="355.0151">-Int nifCliente</text><text fill="#000000" font-family="sans-serif" font-size="11" lengthAdjust="spacing" textLength="60" x="38.5" y="367.8198">-Int lugarId</text><text fill="#000000" font-family="sans-serif" font-size="11" lengthAdjust="spacing" textLength="94" x="38.5" y="380.6245">-DateTime inicio</text><text fill="#000000" font-family="sans-serif" font-size="11" lengthAdjust="spacing" textLength="83" x="38.5" y="393.4292">-DateTime fim</text><line style="stroke:#A80036;stroke-width:1.5;" x1="33.5" x2="196.5" y1="400.0234" y2="400.0234"/><!--MD5=[546b40e6f554bde8c1a29611cc5d7d75]
class PayPalDTO--><rect codeLine="51" fill="#FEFECE" filter="url(#f1pwkor6lh39v4)" height="112.0234" id="PayPalDTO" style="stroke:#A80036;stroke-width:1.5;" width="154" x="233" y="296"/><ellipse cx="275" cy="312" fill="#ADD1B2" rx="11" ry="11" style="stroke:#A80036;stroke-width:1.0;"/><path d="M277.3438,307.6719 C276.4063,307.2344 275.8125,307.0938 274.9375,307.0938 C272.3125,307.0938 270.3125,309.1719 270.3125,311.8906 L270.3125,313.0156 C270.3125,315.5938 272.4219,317.4844 275.3125,317.4844 C276.5313,317.4844 277.6875,317.1875 278.4375,316.6406 C279.0156,316.2344 279.3438,315.7813 279.3438,315.3906 C279.3438,314.9375 278.9531,314.5469 278.4844,314.5469 C278.2656,314.5469 278.0625,314.625 277.875,314.8125 C277.4219,315.2969 277.4219,315.2969 277.2344,315.3906 C276.8125,315.6563 276.125,315.7813 275.3594,315.7813 C273.3125,315.7813 272.0156,314.6875 272.0156,312.9844 L272.0156,311.8906 C272.0156,310.1094 273.2656,308.7969 275,308.7969 C275.5781,308.7969 276.1875,308.9531 276.6563,309.2031 C277.1406,309.4844 277.3125,309.7031 277.4063,310.1094 C277.4688,310.5156 277.5,310.6406 277.6406,310.7656 C277.7813,310.9063 278.0156,311.0156 278.2344,311.0156 C278.5,311.0156 278.7656,310.875 278.9375,310.6563 C279.0469,310.5 279.0781,310.3125 279.0781,309.8906 L279.0781,308.4688 C279.0781,308.0313 279.0625,307.9063 278.9688,307.75 C278.8125,307.4844 278.5313,307.3438 278.2344,307.3438 C277.9375,307.3438 277.7344,307.4375 277.5156,307.75 L277.3438,307.6719 Z " fill="#000000"/><text fill="#000000" font-family="sans-serif" font-size="12" lengthAdjust="spacing" textLength="62" x="295" y="316.1543">PayPalDTO</text><line style="stroke:#A80036;stroke-width:1.5;" x1="234" x2="386" y1="328" y2="328"/><text fill="#000000" font-family="sans-serif" font-size="11" lengthAdjust="spacing" textLength="73" x="239" y="342.2104">-String email</text><text fill="#000000" font-family="sans-serif" font-size="11" lengthAdjust="spacing" textLength="142" x="239" y="355.0151">-String emailDestinatario</text><text fill="#000000" font-family="sans-serif" font-size="11" lengthAdjust="spacing" textLength="90" x="239" y="367.8198">-DateTime data</text><text fill="#000000" font-family="sans-serif" font-size="11" lengthAdjust="spacing" textLength="94" x="239" y="380.6245">-String password</text><text fill="#000000" font-family="sans-serif" font-size="11" lengthAdjust="spacing" textLength="79" x="239" y="393.4292">-Double custo</text><line style="stroke:#A80036;stroke-width:1.5;" x1="234" x2="386" y1="400.0234" y2="400.0234"/><!--MD5=[26ec804b812da892e1445ef30b5cee4d]
class CartaoDTO--><rect codeLine="59" fill="#FEFECE" filter="url(#f1pwkor6lh39v4)" height="137.6328" id="CartaoDTO" style="stroke:#A80036;stroke-width:1.5;" width="128" x="422" y="283"/><ellipse cx="450.95" cy="299" fill="#ADD1B2" rx="11" ry="11" style="stroke:#A80036;stroke-width:1.0;"/><path d="M453.2938,294.6719 C452.3563,294.2344 451.7625,294.0938 450.8875,294.0938 C448.2625,294.0938 446.2625,296.1719 446.2625,298.8906 L446.2625,300.0156 C446.2625,302.5938 448.3719,304.4844 451.2625,304.4844 C452.4813,304.4844 453.6375,304.1875 454.3875,303.6406 C454.9656,303.2344 455.2938,302.7813 455.2938,302.3906 C455.2938,301.9375 454.9031,301.5469 454.4344,301.5469 C454.2156,301.5469 454.0125,301.625 453.825,301.8125 C453.3719,302.2969 453.3719,302.2969 453.1844,302.3906 C452.7625,302.6563 452.075,302.7813 451.3094,302.7813 C449.2625,302.7813 447.9656,301.6875 447.9656,299.9844 L447.9656,298.8906 C447.9656,297.1094 449.2156,295.7969 450.95,295.7969 C451.5281,295.7969 452.1375,295.9531 452.6063,296.2031 C453.0906,296.4844 453.2625,296.7031 453.3563,297.1094 C453.4188,297.5156 453.45,297.6406 453.5906,297.7656 C453.7313,297.9063 453.9656,298.0156 454.1844,298.0156 C454.45,298.0156 454.7156,297.875 454.8875,297.6563 C454.9969,297.5 455.0281,297.3125 455.0281,296.8906 L455.0281,295.4688 C455.0281,295.0313 455.0125,294.9063 454.9188,294.75 C454.7625,294.4844 454.4813,294.3438 454.1844,294.3438 C453.8875,294.3438 453.6844,294.4375 453.4656,294.75 L453.2938,294.6719 Z " fill="#000000"/><text fill="#000000" font-family="sans-serif" font-size="12" lengthAdjust="spacing" textLength="65" x="468.05" y="303.1543">CartaoDTO</text><line style="stroke:#A80036;stroke-width:1.5;" x1="423" x2="549" y1="315" y2="315"/><text fill="#000000" font-family="sans-serif" font-size="11" lengthAdjust="spacing" textLength="85" x="428" y="329.2104">-String numero</text><text fill="#000000" font-family="sans-serif" font-size="11" lengthAdjust="spacing" textLength="74" x="428" y="342.0151">-String nome</text><text fill="#000000" font-family="sans-serif" font-size="11" lengthAdjust="spacing" textLength="116" x="428" y="354.8198">-String dataValidade</text><text fill="#000000" font-family="sans-serif" font-size="11" lengthAdjust="spacing" textLength="61" x="428" y="367.6245">-String cvv</text><text fill="#000000" font-family="sans-serif" font-size="11" lengthAdjust="spacing" textLength="79" x="428" y="380.4292">-Double custo</text><text fill="#000000" font-family="sans-serif" font-size="11" lengthAdjust="spacing" textLength="105" x="428" y="393.2339">-Int nifDestinatario</text><text fill="#000000" font-family="sans-serif" font-size="11" lengthAdjust="spacing" textLength="90" x="428" y="406.0386">-DateTime data</text><line style="stroke:#A80036;stroke-width:1.5;" x1="423" x2="549" y1="412.6328" y2="412.6328"/><!--MD5=[d5a17cd4a63c767bf05afba3d2e4534e]
class DebitoDiretoDTO--><rect codeLine="69" fill="#FEFECE" filter="url(#f1pwkor6lh39v4)" height="150.4375" id="DebitoDiretoDTO" style="stroke:#A80036;stroke-width:1.5;" width="135" x="585.5" y="277"/><ellipse cx="600.5" cy="293" fill="#ADD1B2" rx="11" ry="11" style="stroke:#A80036;stroke-width:1.0;"/><path d="M602.8438,288.6719 C601.9063,288.2344 601.3125,288.0938 600.4375,288.0938 C597.8125,288.0938 595.8125,290.1719 595.8125,292.8906 L595.8125,294.0156 C595.8125,296.5938 597.9219,298.4844 600.8125,298.4844 C602.0313,298.4844 603.1875,298.1875 603.9375,297.6406 C604.5156,297.2344 604.8438,296.7813 604.8438,296.3906 C604.8438,295.9375 604.4531,295.5469 603.9844,295.5469 C603.7656,295.5469 603.5625,295.625 603.375,295.8125 C602.9219,296.2969 602.9219,296.2969 602.7344,296.3906 C602.3125,296.6563 601.625,296.7813 600.8594,296.7813 C598.8125,296.7813 597.5156,295.6875 597.5156,293.9844 L597.5156,292.8906 C597.5156,291.1094 598.7656,289.7969 600.5,289.7969 C601.0781,289.7969 601.6875,289.9531 602.1563,290.2031 C602.6406,290.4844 602.8125,290.7031 602.9063,291.1094 C602.9688,291.5156 603,291.6406 603.1406,291.7656 C603.2813,291.9063 603.5156,292.0156 603.7344,292.0156 C604,292.0156 604.2656,291.875 604.4375,291.6563 C604.5469,291.5 604.5781,291.3125 604.5781,290.8906 L604.5781,289.4688 C604.5781,289.0313 604.5625,288.9063 604.4688,288.75 C604.3125,288.4844 604.0313,288.3438 603.7344,288.3438 C603.4375,288.3438 603.2344,288.4375 603.0156,288.75 L602.8438,288.6719 Z " fill="#000000"/><text fill="#000000" font-family="sans-serif" font-size="12" lengthAdjust="spacing" textLength="103" x="614.5" y="297.1543">DebitoDiretoDTO</text><line style="stroke:#A80036;stroke-width:1.5;" x1="586.5" x2="719.5" y1="309" y2="309"/><text fill="#000000" font-family="sans-serif" font-size="11" lengthAdjust="spacing" textLength="65" x="591.5" y="323.2104">-String iban</text><text fill="#000000" font-family="sans-serif" font-size="11" lengthAdjust="spacing" textLength="74" x="591.5" y="336.0151">-String nome</text><text fill="#000000" font-family="sans-serif" font-size="11" lengthAdjust="spacing" textLength="59" x="591.5" y="348.8198">-String rua</text><text fill="#000000" font-family="sans-serif" font-size="11" lengthAdjust="spacing" textLength="111" x="591.5" y="361.6245">-String codigoPostal</text><text fill="#000000" font-family="sans-serif" font-size="11" lengthAdjust="spacing" textLength="95" x="591.5" y="374.4292">-String freguesia</text><text fill="#000000" font-family="sans-serif" font-size="11" lengthAdjust="spacing" textLength="79" x="591.5" y="387.2339">-Double custo</text><text fill="#000000" font-family="sans-serif" font-size="11" lengthAdjust="spacing" textLength="105" x="591.5" y="400.0386">-Int nifDestinatario</text><text fill="#000000" font-family="sans-serif" font-size="11" lengthAdjust="spacing" textLength="90" x="591.5" y="412.8433">-DateTime data</text><line style="stroke:#A80036;stroke-width:1.5;" x1="586.5" x2="719.5" y1="419.4375" y2="419.4375"/><!--MD5=[2e7cd089d6ae3523be36eecdef6b8d1f]
class InfoUtilizadorDTO--><rect codeLine="80" fill="#FEFECE" filter="url(#f1pwkor6lh39v4)" height="73.6094" id="InfoUtilizadorDTO" style="stroke:#A80036;stroke-width:1.5;" width="137" x="46.5" y="602"/><ellipse cx="61.5" cy="618" fill="#ADD1B2" rx="11" ry="11" style="stroke:#A80036;stroke-width:1.0;"/><path d="M63.8438,613.6719 C62.9063,613.2344 62.3125,613.0938 61.4375,613.0938 C58.8125,613.0938 56.8125,615.1719 56.8125,617.8906 L56.8125,619.0156 C56.8125,621.5938 58.9219,623.4844 61.8125,623.4844 C63.0313,623.4844 64.1875,623.1875 64.9375,622.6406 C65.5156,622.2344 65.8438,621.7813 65.8438,621.3906 C65.8438,620.9375 65.4531,620.5469 64.9844,620.5469 C64.7656,620.5469 64.5625,620.625 64.375,620.8125 C63.9219,621.2969 63.9219,621.2969 63.7344,621.3906 C63.3125,621.6563 62.625,621.7813 61.8594,621.7813 C59.8125,621.7813 58.5156,620.6875 58.5156,618.9844 L58.5156,617.8906 C58.5156,616.1094 59.7656,614.7969 61.5,614.7969 C62.0781,614.7969 62.6875,614.9531 63.1563,615.2031 C63.6406,615.4844 63.8125,615.7031 63.9063,616.1094 C63.9688,616.5156 64,616.6406 64.1406,616.7656 C64.2813,616.9063 64.5156,617.0156 64.7344,617.0156 C65,617.0156 65.2656,616.875 65.4375,616.6563 C65.5469,616.5 65.5781,616.3125 65.5781,615.8906 L65.5781,614.4688 C65.5781,614.0313 65.5625,613.9063 65.4688,613.75 C65.3125,613.4844 65.0313,613.3438 64.7344,613.3438 C64.4375,613.3438 64.2344,613.4375 64.0156,613.75 L63.8438,613.6719 Z " fill="#000000"/><text fill="#000000" font-family="sans-serif" font-size="12" lengthAdjust="spacing" textLength="105" x="75.5" y="622.1543">InfoUtilizadorDTO</text><line style="stroke:#A80036;stroke-width:1.5;" x1="47.5" x2="182.5" y1="634" y2="634"/><text fill="#000000" font-family="sans-serif" font-size="11" lengthAdjust="spacing" textLength="73" x="52.5" y="648.2104">-String email</text><text fill="#000000" font-family="sans-serif" font-size="11" lengthAdjust="spacing" textLength="94" x="52.5" y="661.0151">-String password</text><line style="stroke:#A80036;stroke-width:1.5;" x1="47.5" x2="182.5" y1="667.6094" y2="667.6094"/><!--MD5=[3090caaac4d475b10040d8d5958cfa05]
class RegistarUtilizadorDTO--><rect codeLine="85" fill="#FEFECE" filter="url(#f1pwkor6lh39v4)" height="304.0938" id="RegistarUtilizadorDTO" style="stroke:#A80036;stroke-width:1.5;" width="165" x="218.5" y="487"/><ellipse cx="233.95" cy="503" fill="#ADD1B2" rx="11" ry="11" style="stroke:#A80036;stroke-width:1.0;"/><path d="M236.2938,498.6719 C235.3563,498.2344 234.7625,498.0938 233.8875,498.0938 C231.2625,498.0938 229.2625,500.1719 229.2625,502.8906 L229.2625,504.0156 C229.2625,506.5938 231.3719,508.4844 234.2625,508.4844 C235.4813,508.4844 236.6375,508.1875 237.3875,507.6406 C237.9656,507.2344 238.2938,506.7813 238.2938,506.3906 C238.2938,505.9375 237.9031,505.5469 237.4344,505.5469 C237.2156,505.5469 237.0125,505.625 236.825,505.8125 C236.3719,506.2969 236.3719,506.2969 236.1844,506.3906 C235.7625,506.6563 235.075,506.7813 234.3094,506.7813 C232.2625,506.7813 230.9656,505.6875 230.9656,503.9844 L230.9656,502.8906 C230.9656,501.1094 232.2156,499.7969 233.95,499.7969 C234.5281,499.7969 235.1375,499.9531 235.6063,500.2031 C236.0906,500.4844 236.2625,500.7031 236.3563,501.1094 C236.4188,501.5156 236.45,501.6406 236.5906,501.7656 C236.7313,501.9063 236.9656,502.0156 237.1844,502.0156 C237.45,502.0156 237.7156,501.875 237.8875,501.6563 C237.9969,501.5 238.0281,501.3125 238.0281,500.8906 L238.0281,499.4688 C238.0281,499.0313 238.0125,498.9063 237.9188,498.75 C237.7625,498.4844 237.4813,498.3438 237.1844,498.3438 C236.8875,498.3438 236.6844,498.4375 236.4656,498.75 L236.2938,498.6719 Z " fill="#000000"/><text fill="#000000" font-family="sans-serif" font-size="12" lengthAdjust="spacing" textLength="132" x="248.05" y="507.1543">RegistarUtilizadorDTO</text><line style="stroke:#A80036;stroke-width:1.5;" x1="219.5" x2="382.5" y1="519" y2="519"/><text fill="#000000" font-family="sans-serif" font-size="11" lengthAdjust="spacing" textLength="55" x="224.5" y="533.2104">-String nif</text><text fill="#000000" font-family="sans-serif" font-size="11" lengthAdjust="spacing" textLength="127" x="224.5" y="546.0151">-String nomeUtilizador</text><text fill="#000000" font-family="sans-serif" font-size="11" lengthAdjust="spacing" textLength="126" x="224.5" y="558.8198">-String emailUtilizador</text><text fill="#000000" font-family="sans-serif" font-size="11" lengthAdjust="spacing" textLength="147" x="224.5" y="571.6245">-String passwordUtilizador</text><text fill="#000000" font-family="sans-serif" font-size="11" lengthAdjust="spacing" textLength="76" x="224.5" y="584.4292">-Int metodoId</text><text fill="#000000" font-family="sans-serif" font-size="11" lengthAdjust="spacing" textLength="0" x="228.5" y="597.2339"/><text fill="#000000" font-family="sans-serif" font-size="11" lengthAdjust="spacing" textLength="85" x="224.5" y="610.0386">-String numero</text><text fill="#000000" font-family="sans-serif" font-size="11" lengthAdjust="spacing" textLength="111" x="224.5" y="622.8433">-String nomeCartao</text><text fill="#000000" font-family="sans-serif" font-size="11" lengthAdjust="spacing" textLength="116" x="224.5" y="635.6479">-String dataValidade</text><text fill="#000000" font-family="sans-serif" font-size="11" lengthAdjust="spacing" textLength="61" x="224.5" y="648.4526">-String cvv</text><text fill="#000000" font-family="sans-serif" font-size="11" lengthAdjust="spacing" textLength="0" x="228.5" y="661.2573"/><text fill="#000000" font-family="sans-serif" font-size="11" lengthAdjust="spacing" textLength="65" x="224.5" y="674.062">-String iban</text><text fill="#000000" font-family="sans-serif" font-size="11" lengthAdjust="spacing" textLength="147" x="224.5" y="686.8667">-String nomeDebitoDireto</text><text fill="#000000" font-family="sans-serif" font-size="11" lengthAdjust="spacing" textLength="59" x="224.5" y="699.6714">-String rua</text><text fill="#000000" font-family="sans-serif" font-size="11" lengthAdjust="spacing" textLength="111" x="224.5" y="712.4761">-String codigoPostal</text><text fill="#000000" font-family="sans-serif" font-size="11" lengthAdjust="spacing" textLength="95" x="224.5" y="725.2808">-String freguesia</text><text fill="#000000" font-family="sans-serif" font-size="11" lengthAdjust="spacing" textLength="153" x="224.5" y="738.0854">-DateTime DataSubscricao</text><text fill="#000000" font-family="sans-serif" font-size="11" lengthAdjust="spacing" textLength="0" x="228.5" y="750.8901"/><text fill="#000000" font-family="sans-serif" font-size="11" lengthAdjust="spacing" textLength="109" x="224.5" y="763.6948">-String emailPayPal</text><text fill="#000000" font-family="sans-serif" font-size="11" lengthAdjust="spacing" textLength="130" x="224.5" y="776.4995">-String passwordPayPal</text><line style="stroke:#A80036;stroke-width:1.5;" x1="219.5" x2="382.5" y1="783.0938" y2="783.0938"/><!--MD5=[f71fb1e73c84feb408789d01304e0a14]
class TokenUtilizadorDTO--><rect codeLine="108" fill="#FEFECE" filter="url(#f1pwkor6lh39v4)" height="73.6094" id="TokenUtilizadorDTO" style="stroke:#A80036;stroke-width:1.5;" width="152" x="419" y="602"/><ellipse cx="434" cy="618" fill="#ADD1B2" rx="11" ry="11" style="stroke:#A80036;stroke-width:1.0;"/><path d="M436.3438,613.6719 C435.4063,613.2344 434.8125,613.0938 433.9375,613.0938 C431.3125,613.0938 429.3125,615.1719 429.3125,617.8906 L429.3125,619.0156 C429.3125,621.5938 431.4219,623.4844 434.3125,623.4844 C435.5313,623.4844 436.6875,623.1875 437.4375,622.6406 C438.0156,622.2344 438.3438,621.7813 438.3438,621.3906 C438.3438,620.9375 437.9531,620.5469 437.4844,620.5469 C437.2656,620.5469 437.0625,620.625 436.875,620.8125 C436.4219,621.2969 436.4219,621.2969 436.2344,621.3906 C435.8125,621.6563 435.125,621.7813 434.3594,621.7813 C432.3125,621.7813 431.0156,620.6875 431.0156,618.9844 L431.0156,617.8906 C431.0156,616.1094 432.2656,614.7969 434,614.7969 C434.5781,614.7969 435.1875,614.9531 435.6563,615.2031 C436.1406,615.4844 436.3125,615.7031 436.4063,616.1094 C436.4688,616.5156 436.5,616.6406 436.6406,616.7656 C436.7813,616.9063 437.0156,617.0156 437.2344,617.0156 C437.5,617.0156 437.7656,616.875 437.9375,616.6563 C438.0469,616.5 438.0781,616.3125 438.0781,615.8906 L438.0781,614.4688 C438.0781,614.0313 438.0625,613.9063 437.9688,613.75 C437.8125,613.4844 437.5313,613.3438 437.2344,613.3438 C436.9375,613.3438 436.7344,613.4375 436.5156,613.75 L436.3438,613.6719 Z " fill="#000000"/><text fill="#000000" font-family="sans-serif" font-size="12" lengthAdjust="spacing" textLength="120" x="448" y="622.1543">TokenUtilizadorDTO</text><line style="stroke:#A80036;stroke-width:1.5;" x1="420" x2="570" y1="634" y2="634"/><text fill="#000000" font-family="sans-serif" font-size="11" lengthAdjust="spacing" textLength="73" x="425" y="648.2104">-String token</text><text fill="#000000" font-family="sans-serif" font-size="11" lengthAdjust="spacing" textLength="122" x="425" y="661.0151">-DateTime expiration</text><line style="stroke:#A80036;stroke-width:1.5;" x1="420" x2="570" y1="667.6094" y2="667.6094"/><!--MD5=[45b17dd9a39f8deeda45655e066706ab]
class ParqueDTO--><rect codeLine="113" fill="#FEFECE" filter="url(#f1pwkor6lh39v4)" height="86.4141" id="ParqueDTO" style="stroke:#A80036;stroke-width:1.5;" width="99" x="606.5" y="596"/><ellipse cx="621.5" cy="612" fill="#ADD1B2" rx="11" ry="11" style="stroke:#A80036;stroke-width:1.0;"/><path d="M623.8438,607.6719 C622.9063,607.2344 622.3125,607.0938 621.4375,607.0938 C618.8125,607.0938 616.8125,609.1719 616.8125,611.8906 L616.8125,613.0156 C616.8125,615.5938 618.9219,617.4844 621.8125,617.4844 C623.0313,617.4844 624.1875,617.1875 624.9375,616.6406 C625.5156,616.2344 625.8438,615.7813 625.8438,615.3906 C625.8438,614.9375 625.4531,614.5469 624.9844,614.5469 C624.7656,614.5469 624.5625,614.625 624.375,614.8125 C623.9219,615.2969 623.9219,615.2969 623.7344,615.3906 C623.3125,615.6563 622.625,615.7813 621.8594,615.7813 C619.8125,615.7813 618.5156,614.6875 618.5156,612.9844 L618.5156,611.8906 C618.5156,610.1094 619.7656,608.7969 621.5,608.7969 C622.0781,608.7969 622.6875,608.9531 623.1563,609.2031 C623.6406,609.4844 623.8125,609.7031 623.9063,610.1094 C623.9688,610.5156 624,610.6406 624.1406,610.7656 C624.2813,610.9063 624.5156,611.0156 624.7344,611.0156 C625,611.0156 625.2656,610.875 625.4375,610.6563 C625.5469,610.5 625.5781,610.3125 625.5781,609.8906 L625.5781,608.4688 C625.5781,608.0313 625.5625,607.9063 625.4688,607.75 C625.3125,607.4844 625.0313,607.3438 624.7344,607.3438 C624.4375,607.3438 624.2344,607.4375 624.0156,607.75 L623.8438,607.6719 Z " fill="#000000"/><text fill="#000000" font-family="sans-serif" font-size="12" lengthAdjust="spacing" textLength="67" x="635.5" y="616.1543">ParqueDTO</text><line style="stroke:#A80036;stroke-width:1.5;" x1="607.5" x2="704.5" y1="628" y2="628"/><text fill="#000000" font-family="sans-serif" font-size="11" lengthAdjust="spacing" textLength="32" x="612.5" y="642.2104">-Int id</text><text fill="#000000" font-family="sans-serif" font-size="11" lengthAdjust="spacing" textLength="59" x="612.5" y="655.0151">-String rua</text><text fill="#000000" font-family="sans-serif" font-size="11" lengthAdjust="spacing" textLength="86" x="612.5" y="667.8198">-Int freguesiaId</text><line style="stroke:#A80036;stroke-width:1.5;" x1="607.5" x2="704.5" y1="674.4141" y2="674.4141"/><!--MD5=[76a35d61daf0f4726d8c748b43358cc3]
class QRCodeDTO--><rect codeLine="119" fill="#FEFECE" filter="url(#f1pwkor6lh39v4)" height="176.0469" id="QRCodeDTO" style="stroke:#A80036;stroke-width:1.5;" width="142" x="44" y="851"/><ellipse cx="74.75" cy="867" fill="#ADD1B2" rx="11" ry="11" style="stroke:#A80036;stroke-width:1.0;"/><path d="M77.0938,862.6719 C76.1563,862.2344 75.5625,862.0938 74.6875,862.0938 C72.0625,862.0938 70.0625,864.1719 70.0625,866.8906 L70.0625,868.0156 C70.0625,870.5938 72.1719,872.4844 75.0625,872.4844 C76.2813,872.4844 77.4375,872.1875 78.1875,871.6406 C78.7656,871.2344 79.0938,870.7813 79.0938,870.3906 C79.0938,869.9375 78.7031,869.5469 78.2344,869.5469 C78.0156,869.5469 77.8125,869.625 77.625,869.8125 C77.1719,870.2969 77.1719,870.2969 76.9844,870.3906 C76.5625,870.6563 75.875,870.7813 75.1094,870.7813 C73.0625,870.7813 71.7656,869.6875 71.7656,867.9844 L71.7656,866.8906 C71.7656,865.1094 73.0156,863.7969 74.75,863.7969 C75.3281,863.7969 75.9375,863.9531 76.4063,864.2031 C76.8906,864.4844 77.0625,864.7031 77.1563,865.1094 C77.2188,865.5156 77.25,865.6406 77.3906,865.7656 C77.5313,865.9063 77.7656,866.0156 77.9844,866.0156 C78.25,866.0156 78.5156,865.875 78.6875,865.6563 C78.7969,865.5 78.8281,865.3125 78.8281,864.8906 L78.8281,863.4688 C78.8281,863.0313 78.8125,862.9063 78.7188,862.75 C78.5625,862.4844 78.2813,862.3438 77.9844,862.3438 C77.6875,862.3438 77.4844,862.4375 77.2656,862.75 L77.0938,862.6719 Z " fill="#000000"/><text fill="#000000" font-family="sans-serif" font-size="12" lengthAdjust="spacing" textLength="75" x="92.25" y="871.1543">QRCodeDTO</text><line style="stroke:#A80036;stroke-width:1.5;" x1="45" x2="185" y1="883" y2="883"/><text fill="#000000" font-family="sans-serif" font-size="11" lengthAdjust="spacing" textLength="79" x="50" y="897.2104">-Int idReserva</text><text fill="#000000" font-family="sans-serif" font-size="11" lengthAdjust="spacing" textLength="73" x="50" y="910.0151">-String email</text><text fill="#000000" font-family="sans-serif" font-size="11" lengthAdjust="spacing" textLength="127" x="50" y="922.8198">-String nomeUtilizador</text><text fill="#000000" font-family="sans-serif" font-size="11" lengthAdjust="spacing" textLength="130" x="50" y="935.6245">-String nomeFreguesia</text><text fill="#000000" font-family="sans-serif" font-size="11" lengthAdjust="spacing" textLength="113" x="50" y="948.4292">-String nomeParque</text><text fill="#000000" font-family="sans-serif" font-size="11" lengthAdjust="spacing" textLength="97" x="50" y="961.2339">-Int numeroLugar</text><text fill="#000000" font-family="sans-serif" font-size="11" lengthAdjust="spacing" textLength="58" x="50" y="974.0386">-String fila</text><text fill="#000000" font-family="sans-serif" font-size="11" lengthAdjust="spacing" textLength="54" x="50" y="986.8433">-Int andar</text><text fill="#000000" font-family="sans-serif" font-size="11" lengthAdjust="spacing" textLength="94" x="50" y="999.6479">-DateTime inicio</text><text fill="#000000" font-family="sans-serif" font-size="11" lengthAdjust="spacing" textLength="83" x="50" y="1012.4526">-DateTime fim</text><line style="stroke:#A80036;stroke-width:1.5;" x1="45" x2="185" y1="1019.0469" y2="1019.0469"/><!--MD5=[f542357d139066f7f6ca40e1d5daf340]
class SubAluguerDTO--><rect codeLine="132" fill="#FEFECE" filter="url(#f1pwkor6lh39v4)" height="176.0469" id="SubAluguerDTO" style="stroke:#A80036;stroke-width:1.5;" width="131" x="221.5" y="851"/><ellipse cx="238.3" cy="867" fill="#ADD1B2" rx="11" ry="11" style="stroke:#A80036;stroke-width:1.0;"/><path d="M240.6438,862.6719 C239.7063,862.2344 239.1125,862.0938 238.2375,862.0938 C235.6125,862.0938 233.6125,864.1719 233.6125,866.8906 L233.6125,868.0156 C233.6125,870.5938 235.7219,872.4844 238.6125,872.4844 C239.8313,872.4844 240.9875,872.1875 241.7375,871.6406 C242.3156,871.2344 242.6438,870.7813 242.6438,870.3906 C242.6438,869.9375 242.2531,869.5469 241.7844,869.5469 C241.5656,869.5469 241.3625,869.625 241.175,869.8125 C240.7219,870.2969 240.7219,870.2969 240.5344,870.3906 C240.1125,870.6563 239.425,870.7813 238.6594,870.7813 C236.6125,870.7813 235.3156,869.6875 235.3156,867.9844 L235.3156,866.8906 C235.3156,865.1094 236.5656,863.7969 238.3,863.7969 C238.8781,863.7969 239.4875,863.9531 239.9563,864.2031 C240.4406,864.4844 240.6125,864.7031 240.7063,865.1094 C240.7688,865.5156 240.8,865.6406 240.9406,865.7656 C241.0813,865.9063 241.3156,866.0156 241.5344,866.0156 C241.8,866.0156 242.0656,865.875 242.2375,865.6563 C242.3469,865.5 242.3781,865.3125 242.3781,864.8906 L242.3781,863.4688 C242.3781,863.0313 242.3625,862.9063 242.2688,862.75 C242.1125,862.4844 241.8313,862.3438 241.5344,862.3438 C241.2375,862.3438 241.0344,862.4375 240.8156,862.75 L240.6438,862.6719 Z " fill="#000000"/><text fill="#000000" font-family="sans-serif" font-size="12" lengthAdjust="spacing" textLength="95" x="252.7" y="871.1543">SubAluguerDTO</text><line style="stroke:#A80036;stroke-width:1.5;" x1="222.5" x2="351.5" y1="883" y2="883"/><text fill="#000000" font-family="sans-serif" font-size="11" lengthAdjust="spacing" textLength="32" x="227.5" y="897.2104">-Int id</text><text fill="#000000" font-family="sans-serif" font-size="11" lengthAdjust="spacing" textLength="72" x="227.5" y="910.0151">-Int parqueId</text><text fill="#000000" font-family="sans-serif" font-size="11" lengthAdjust="spacing" textLength="66" x="227.5" y="922.8198">-Int numero</text><text fill="#000000" font-family="sans-serif" font-size="11" lengthAdjust="spacing" textLength="58" x="227.5" y="935.6245">-String fila</text><text fill="#000000" font-family="sans-serif" font-size="11" lengthAdjust="spacing" textLength="54" x="227.5" y="948.4292">-Int andar</text><text fill="#000000" font-family="sans-serif" font-size="11" lengthAdjust="spacing" textLength="81" x="227.5" y="961.2339">-Double preco</text><text fill="#000000" font-family="sans-serif" font-size="11" lengthAdjust="spacing" textLength="119" x="227.5" y="974.0386">-String nifProprietario</text><text fill="#000000" font-family="sans-serif" font-size="11" lengthAdjust="spacing" textLength="119" x="227.5" y="986.8433">-Int reservaOriginalId</text><text fill="#000000" font-family="sans-serif" font-size="11" lengthAdjust="spacing" textLength="94" x="227.5" y="999.6479">-DateTime inicio</text><text fill="#000000" font-family="sans-serif" font-size="11" lengthAdjust="spacing" textLength="83" x="227.5" y="1012.4526">-DateTime fim</text><line style="stroke:#A80036;stroke-width:1.5;" x1="222.5" x2="351.5" y1="1019.0469" y2="1019.0469"/><!--MD5=[d802dbd09d16af17673f3f518945baf8]
link FreguesiaDTO to LugarDTO--><!--MD5=[1435da3c747f7d69b3874d400afad580]
link LugarDTO to PagamentoDTO--><!--MD5=[70059afba6ec8b3f334dff596e403c71]
link PagamentoDTO to ReservaDTO--><!--MD5=[8940ada16390800e993ea110d66e93dd]
link FreguesiaDTO to ReservaAPIParqueDTO--><!--MD5=[ca71242ed24df7f6166be9488b874b40]
link ReservaAPIParqueDTO to PayPalDTO--><!--MD5=[5f53a8b5e1ebfe6f62140da01d508eb5]
link PayPalDTO to CartaoDTO--><!--MD5=[36c3722085fb5a346b45de9c89f09724]
link CartaoDTO to DebitoDiretoDTO--><!--MD5=[849d051d422f14307fb324f9ac0027a7]
link ReservaAPIParqueDTO to InfoUtilizadorDTO--><!--MD5=[2a6544b0011312aef2b6c2741a6647ce]
link InfoUtilizadorDTO to RegistarUtilizadorDTO--><!--MD5=[ea8ded0f20a559dde5935f427af416f1]
link RegistarUtilizadorDTO to TokenUtilizadorDTO--><!--MD5=[97bf7dd34dc00864abe493c70c197c13]
link TokenUtilizadorDTO to ParqueDTO--><!--MD5=[ae10faa4746f2f48e52abbb950741a3f]
link InfoUtilizadorDTO to QRCodeDTO--><!--MD5=[3fedbad684374af24d3a0e45ee9a8c5f]
link QRCodeDTO to SubAluguerDTO--><!--MD5=[bbea474e6cfebda2a96f1dff6fed0ee1]
@startuml
skinparam classAttributeIconSize 0

package DTOs <<Folder>> {

class FreguesiaDTO {
  -Int id
  -String nome
}

class LugarDTO {
  -Int id
  -Int parqueId
  -Int numero
  -String fila
  -Int andar
  -Double preco
  -String nifProprietario
  -Int reservaOriginalId
  -Int parqueIdSC
  -String apiUrl
}

class PagamentoDTO {
  -String nifPagador
  -String nifRecipiente
  -Int metodoId
  -Double valor
}

class ReservaDTO {
  -String nifUtilizador
  -String nifVendedor
  -Int parqueId
  -String apiUrl
  -Int metodoId
  -Int reservaOriginalId
  -Double preco
  -Int lugarId
  -DateTime inicio
  -DateTime fim
}

class ReservaAPIParqueDTO {
  -Int id
  -Int nifCliente
  -Int lugarId
  -DateTime inicio
  -DateTime fim
}

class PayPalDTO {
  -String email
  -String emailDestinatario
  -DateTime data
  -String password
  -Double custo
}

class CartaoDTO {
  -String numero
  -String nome
  -String dataValidade
  -String cvv
  -Double custo
  -Int nifDestinatario
  -DateTime data
}

class DebitoDiretoDTO {
  -String iban
  -String nome
  -String rua
  -String codigoPostal
  -String freguesia
  -Double custo
  -Int nifDestinatario
  -DateTime data
}

class InfoUtilizadorDTO {
  -String email
  -String password
}

class RegistarUtilizadorDTO {
  -String nif
  -String nomeUtilizador
  -String emailUtilizador
  -String passwordUtilizador
  -Int metodoId

  -String numero
  -String nomeCartao
  -String dataValidade
  -String cvv

  -String iban
  -String nomeDebitoDireto
  -String rua
  -String codigoPostal
  -String freguesia
  -DateTime DataSubscricao

  -String emailPayPal
  -String passwordPayPal
}

class TokenUtilizadorDTO {
  -String token
  -DateTime expiration
}

class ParqueDTO {
  -Int id
  -String rua
  -Int freguesiaId
}

class QRCodeDTO {
  -Int idReserva
  -String email
  -String nomeUtilizador
  -String nomeFreguesia
  -String nomeParque
  -Int numeroLugar
  -String fila
  -Int andar
  -DateTime inicio
  -DateTime fim
}

class SubAluguerDTO {
  -Int id
  -Int parqueId
  -Int numero
  -String fila
  -Int andar
  -Double preco
  -String nifProprietario
  -Int reservaOriginalId
  -DateTime inicio
  -DateTime fim
}

}
@enduml

PlantUML version 1.2021.2beta7(Unknown compile time)
(GPL source distribution)
Java Runtime: Java(TM) SE Runtime Environment
JVM: Java HotSpot(TM) 64-Bit Server VM
Default Encoding: UTF-8
Language: en
Country: US
--></g></svg>