<?xml version="1.0" encoding="UTF-8" standalone="no"?><svg xmlns="http://www.w3.org/2000/svg" xmlns:xlink="http://www.w3.org/1999/xlink" contentScriptType="application/ecmascript" contentStyleType="text/css" height="1195px" preserveAspectRatio="none" style="width:1752px;height:1195px;" version="1.1" viewBox="0 0 1752 1195" width="1752px" zoomAndPan="magnify"><defs><filter height="300%" id="fa6sw4rwn499t" width="300%" x="-1" y="-1"><feGaussianBlur result="blurOut" stdDeviation="2.0"/><feColorMatrix in="blurOut" result="blurOut2" type="matrix" values="0 0 0 0 0 0 0 0 0 0 0 0 0 0 0 0 0 0 .4 0"/><feOffset dx="4.0" dy="4.0" in="blurOut2" result="blurOut3"/><feBlend in="SourceGraphic" in2="blurOut3" mode="normal"/></filter></defs><g><!--MD5=[cdfd548b3455e70392372b1f27091970]
cluster Services--><polygon fill="#FFFFFF" filter="url(#fa6sw4rwn499t)" points="16,253,89,253,96,275.2969,337,275.2969,337,378,16,378,16,253" style="stroke:#000000;stroke-width:1.5;"/><line style="stroke:#000000;stroke-width:1.5;" x1="16" x2="96" y1="275.2969" y2="275.2969"/><text fill="#000000" font-family="sans-serif" font-size="14" font-weight="bold" lengthAdjust="spacing" textLength="67" x="20" y="267.9951">Services</text><!--MD5=[ed1d20ea533a2a0e7df5ba3c35e56ced]
cluster Controllers--><polygon fill="#FFFFFF" filter="url(#fa6sw4rwn499t)" points="519,6,615,6,622,28.2969,1735,28.2969,1735,182,519,182,519,6" style="stroke:#000000;stroke-width:1.5;"/><line style="stroke:#000000;stroke-width:1.5;" x1="519" x2="622" y1="28.2969" y2="28.2969"/><text fill="#000000" font-family="sans-serif" font-size="14" font-weight="bold" lengthAdjust="spacing" textLength="90" x="523" y="20.9951">Controllers</text><!--MD5=[027ebfd53c01aea08f474edbf35d0797]
cluster Models--><polygon fill="#FFFFFF" filter="url(#fa6sw4rwn499t)" points="361,227.5,424,227.5,431,249.7969,1115,249.7969,1115,1188,361,1188,361,227.5" style="stroke:#000000;stroke-width:1.5;"/><line style="stroke:#000000;stroke-width:1.5;" x1="361" x2="431" y1="249.7969" y2="249.7969"/><text fill="#000000" font-family="sans-serif" font-size="14" font-weight="bold" lengthAdjust="spacing" textLength="57" x="365" y="242.4951">Models</text><!--MD5=[e78b582c58469ade2dfd3feff264ec83]
cluster Abstract Class Credencial--><rect fill="#FFFFFF" filter="url(#fa6sw4rwn499t)" height="358" style="stroke:#000000;stroke-width:1.5;" width="566" x="385" y="665"/><path d="M604,665 L604,674.2969 L594,684.2969 L385,684.2969 " fill="none" style="stroke:#000000;stroke-width:1.5;"/><text fill="#000000" font-family="sans-serif" font-size="14" font-weight="bold" lengthAdjust="spacing" textLength="209" x="388" y="678.9951">Abstract Class Credencial</text><!--MD5=[f21b1f164e99c6b37934f23ad048ad54]
cluster Data--><polygon fill="#FFFFFF" filter="url(#fa6sw4rwn499t)" points="1139,215,1184,215,1191,237.2969,1463,237.2969,1463,416,1139,416,1139,215" style="stroke:#000000;stroke-width:1.5;"/><line style="stroke:#000000;stroke-width:1.5;" x1="1139" x2="1191" y1="237.2969" y2="237.2969"/><text fill="#000000" font-family="sans-serif" font-size="14" font-weight="bold" lengthAdjust="spacing" textLength="39" x="1143" y="229.9951">Data</text><!--MD5=[73e5466d51728114e53770fb62dc101d]
class PagamentoService--><rect codeLine="5" fill="#FEFECE" filter="url(#fa6sw4rwn499t)" height="73.6094" id="PagamentoService" style="stroke:#A80036;stroke-width:1.5;" width="144" x="177" y="288"/><ellipse cx="192" cy="304" fill="#ADD1B2" rx="11" ry="11" style="stroke:#A80036;stroke-width:1.0;"/><path d="M194.3438,299.6719 C193.4063,299.2344 192.8125,299.0938 191.9375,299.0938 C189.3125,299.0938 187.3125,301.1719 187.3125,303.8906 L187.3125,305.0156 C187.3125,307.5938 189.4219,309.4844 192.3125,309.4844 C193.5313,309.4844 194.6875,309.1875 195.4375,308.6406 C196.0156,308.2344 196.3438,307.7813 196.3438,307.3906 C196.3438,306.9375 195.9531,306.5469 195.4844,306.5469 C195.2656,306.5469 195.0625,306.625 194.875,306.8125 C194.4219,307.2969 194.4219,307.2969 194.2344,307.3906 C193.8125,307.6563 193.125,307.7813 192.3594,307.7813 C190.3125,307.7813 189.0156,306.6875 189.0156,304.9844 L189.0156,303.8906 C189.0156,302.1094 190.2656,300.7969 192,300.7969 C192.5781,300.7969 193.1875,300.9531 193.6563,301.2031 C194.1406,301.4844 194.3125,301.7031 194.4063,302.1094 C194.4688,302.5156 194.5,302.6406 194.6406,302.7656 C194.7813,302.9063 195.0156,303.0156 195.2344,303.0156 C195.5,303.0156 195.7656,302.875 195.9375,302.6563 C196.0469,302.5 196.0781,302.3125 196.0781,301.8906 L196.0781,300.4688 C196.0781,300.0313 196.0625,299.9063 195.9688,299.75 C195.8125,299.4844 195.5313,299.3438 195.2344,299.3438 C194.9375,299.3438 194.7344,299.4375 194.5156,299.75 L194.3438,299.6719 Z " fill="#000000"/><text fill="#000000" font-family="sans-serif" font-size="12" lengthAdjust="spacing" textLength="112" x="206" y="308.1543">PagamentoService</text><line style="stroke:#A80036;stroke-width:1.5;" x1="178" x2="320" y1="320" y2="320"/><line style="stroke:#A80036;stroke-width:1.5;" x1="178" x2="320" y1="328" y2="328"/><text fill="#000000" font-family="sans-serif" font-size="11" lengthAdjust="spacing" textLength="43" x="183" y="342.2104">-Pagar()</text><text fill="#000000" font-family="sans-serif" font-size="11" lengthAdjust="spacing" textLength="60" x="183" y="355.0151">-Receber()</text><!--MD5=[bcf33e039c9f38a306ec5209c2a9f4f8]
class EmailService--><rect codeLine="10" fill="#FEFECE" filter="url(#fa6sw4rwn499t)" height="73.6094" id="EmailService" style="stroke:#A80036;stroke-width:1.5;" width="109" x="32.5" y="288"/><ellipse cx="47.5" cy="304" fill="#ADD1B2" rx="11" ry="11" style="stroke:#A80036;stroke-width:1.0;"/><path d="M49.8438,299.6719 C48.9063,299.2344 48.3125,299.0938 47.4375,299.0938 C44.8125,299.0938 42.8125,301.1719 42.8125,303.8906 L42.8125,305.0156 C42.8125,307.5938 44.9219,309.4844 47.8125,309.4844 C49.0313,309.4844 50.1875,309.1875 50.9375,308.6406 C51.5156,308.2344 51.8438,307.7813 51.8438,307.3906 C51.8438,306.9375 51.4531,306.5469 50.9844,306.5469 C50.7656,306.5469 50.5625,306.625 50.375,306.8125 C49.9219,307.2969 49.9219,307.2969 49.7344,307.3906 C49.3125,307.6563 48.625,307.7813 47.8594,307.7813 C45.8125,307.7813 44.5156,306.6875 44.5156,304.9844 L44.5156,303.8906 C44.5156,302.1094 45.7656,300.7969 47.5,300.7969 C48.0781,300.7969 48.6875,300.9531 49.1563,301.2031 C49.6406,301.4844 49.8125,301.7031 49.9063,302.1094 C49.9688,302.5156 50,302.6406 50.1406,302.7656 C50.2813,302.9063 50.5156,303.0156 50.7344,303.0156 C51,303.0156 51.2656,302.875 51.4375,302.6563 C51.5469,302.5 51.5781,302.3125 51.5781,301.8906 L51.5781,300.4688 C51.5781,300.0313 51.5625,299.9063 51.4688,299.75 C51.3125,299.4844 51.0313,299.3438 50.7344,299.3438 C50.4375,299.3438 50.2344,299.4375 50.0156,299.75 L49.8438,299.6719 Z " fill="#000000"/><text fill="#000000" font-family="sans-serif" font-size="12" lengthAdjust="spacing" textLength="77" x="61.5" y="308.1543">EmailService</text><line style="stroke:#A80036;stroke-width:1.5;" x1="33.5" x2="140.5" y1="320" y2="320"/><line style="stroke:#A80036;stroke-width:1.5;" x1="33.5" x2="140.5" y1="328" y2="328"/><text fill="#000000" font-family="sans-serif" font-size="11" lengthAdjust="spacing" textLength="90" x="38.5" y="342.2104">-ObterQRCode()</text><text fill="#000000" font-family="sans-serif" font-size="11" lengthAdjust="spacing" textLength="78" x="38.5" y="355.0151">-EnviarEmail()</text><!--MD5=[f9eb12be9a4c6578c6c59b6b87282445]
class UtilizadoresController--><rect codeLine="19" fill="#FEFECE" filter="url(#fa6sw4rwn499t)" height="112.0234" id="UtilizadoresController" style="stroke:#A80036;stroke-width:1.5;" width="194" x="790" y="47.5"/><ellipse cx="818.95" cy="63.5" fill="#ADD1B2" rx="11" ry="11" style="stroke:#A80036;stroke-width:1.0;"/><path d="M821.2938,59.1719 C820.3563,58.7344 819.7625,58.5938 818.8875,58.5938 C816.2625,58.5938 814.2625,60.6719 814.2625,63.3906 L814.2625,64.5156 C814.2625,67.0938 816.3719,68.9844 819.2625,68.9844 C820.4813,68.9844 821.6375,68.6875 822.3875,68.1406 C822.9656,67.7344 823.2938,67.2813 823.2938,66.8906 C823.2938,66.4375 822.9031,66.0469 822.4344,66.0469 C822.2156,66.0469 822.0125,66.125 821.825,66.3125 C821.3719,66.7969 821.3719,66.7969 821.1844,66.8906 C820.7625,67.1563 820.075,67.2813 819.3094,67.2813 C817.2625,67.2813 815.9656,66.1875 815.9656,64.4844 L815.9656,63.3906 C815.9656,61.6094 817.2156,60.2969 818.95,60.2969 C819.5281,60.2969 820.1375,60.4531 820.6063,60.7031 C821.0906,60.9844 821.2625,61.2031 821.3563,61.6094 C821.4188,62.0156 821.45,62.1406 821.5906,62.2656 C821.7313,62.4063 821.9656,62.5156 822.1844,62.5156 C822.45,62.5156 822.7156,62.375 822.8875,62.1563 C822.9969,62 823.0281,61.8125 823.0281,61.3906 L823.0281,59.9688 C823.0281,59.5313 823.0125,59.4063 822.9188,59.25 C822.7625,58.9844 822.4813,58.8438 822.1844,58.8438 C821.8875,58.8438 821.6844,58.9375 821.4656,59.25 L821.2938,59.1719 Z " fill="#000000"/><text fill="#000000" font-family="sans-serif" font-size="12" lengthAdjust="spacing" textLength="131" x="836.05" y="67.6543">UtilizadoresController</text><line style="stroke:#A80036;stroke-width:1.5;" x1="791" x2="983" y1="79.5" y2="79.5"/><line style="stroke:#A80036;stroke-width:1.5;" x1="791" x2="983" y1="87.5" y2="87.5"/><text fill="#000000" font-family="sans-serif" font-size="11" lengthAdjust="spacing" textLength="116" x="796" y="101.7104">+Get GetUtilizador()</text><text fill="#000000" font-family="sans-serif" font-size="11" lengthAdjust="spacing" textLength="155" x="796" y="114.5151">+Get GetUtilizadorById(nif)</text><text fill="#000000" font-family="sans-serif" font-size="11" lengthAdjust="spacing" textLength="120" x="796" y="127.3198">+Post PostUtilizador()</text><text fill="#000000" font-family="sans-serif" font-size="11" lengthAdjust="spacing" textLength="182" x="796" y="140.1245">+Put PutUtilizador(nif, Utilizador)</text><text fill="#000000" font-family="sans-serif" font-size="11" lengthAdjust="spacing" textLength="168" x="796" y="152.9292">+Delete DeleteUtilizador(nif)</text><!--MD5=[884d341d7584b75b159fb4abcbb8e424]
class ReservasController--><rect codeLine="27" fill="#FEFECE" filter="url(#fa6sw4rwn499t)" height="124.8281" id="ReservasController" style="stroke:#A80036;stroke-width:1.5;" width="220" x="535" y="41"/><ellipse cx="583.25" cy="57" fill="#ADD1B2" rx="11" ry="11" style="stroke:#A80036;stroke-width:1.0;"/><path d="M585.5938,52.6719 C584.6563,52.2344 584.0625,52.0938 583.1875,52.0938 C580.5625,52.0938 578.5625,54.1719 578.5625,56.8906 L578.5625,58.0156 C578.5625,60.5938 580.6719,62.4844 583.5625,62.4844 C584.7813,62.4844 585.9375,62.1875 586.6875,61.6406 C587.2656,61.2344 587.5938,60.7813 587.5938,60.3906 C587.5938,59.9375 587.2031,59.5469 586.7344,59.5469 C586.5156,59.5469 586.3125,59.625 586.125,59.8125 C585.6719,60.2969 585.6719,60.2969 585.4844,60.3906 C585.0625,60.6563 584.375,60.7813 583.6094,60.7813 C581.5625,60.7813 580.2656,59.6875 580.2656,57.9844 L580.2656,56.8906 C580.2656,55.1094 581.5156,53.7969 583.25,53.7969 C583.8281,53.7969 584.4375,53.9531 584.9063,54.2031 C585.3906,54.4844 585.5625,54.7031 585.6563,55.1094 C585.7188,55.5156 585.75,55.6406 585.8906,55.7656 C586.0313,55.9063 586.2656,56.0156 586.4844,56.0156 C586.75,56.0156 587.0156,55.875 587.1875,55.6563 C587.2969,55.5 587.3281,55.3125 587.3281,54.8906 L587.3281,53.4688 C587.3281,53.0313 587.3125,52.9063 587.2188,52.75 C587.0625,52.4844 586.7813,52.3438 586.4844,52.3438 C586.1875,52.3438 585.9844,52.4375 585.7656,52.75 L585.5938,52.6719 Z " fill="#000000"/><text fill="#000000" font-family="sans-serif" font-size="12" lengthAdjust="spacing" textLength="115" x="603.75" y="61.1543">ReservasController</text><line style="stroke:#A80036;stroke-width:1.5;" x1="536" x2="754" y1="73" y2="73"/><line style="stroke:#A80036;stroke-width:1.5;" x1="536" x2="754" y1="81" y2="81"/><text fill="#000000" font-family="sans-serif" font-size="11" lengthAdjust="spacing" textLength="110" x="541" y="95.2104">+Get GetReserva()</text><text fill="#000000" font-family="sans-serif" font-size="11" lengthAdjust="spacing" textLength="145" x="541" y="108.0151">+Get GetReservaById(id)</text><text fill="#000000" font-family="sans-serif" font-size="11" lengthAdjust="spacing" textLength="114" x="541" y="120.8198">+Post PostReserva()</text><text fill="#000000" font-family="sans-serif" font-size="11" lengthAdjust="spacing" textLength="163" x="541" y="133.6245">+Put PutReserva(id, reserva)</text><text fill="#000000" font-family="sans-serif" font-size="11" lengthAdjust="spacing" textLength="158" x="541" y="146.4292">+Delete DeleteReserva(id)</text><text fill="#000000" font-family="sans-serif" font-size="11" lengthAdjust="spacing" textLength="208" x="541" y="159.2339">+FindAvailable(freguesia, inicio, fim)</text><!--MD5=[5497ff8c96f50abd293e35e15183e187]
class TransacoesController--><rect codeLine="36" fill="#FEFECE" filter="url(#fa6sw4rwn499t)" height="86.4141" id="TransacoesController" style="stroke:#A80036;stroke-width:1.5;" width="168" x="1019" y="60.5"/><ellipse cx="1037.15" cy="76.5" fill="#ADD1B2" rx="11" ry="11" style="stroke:#A80036;stroke-width:1.0;"/><path d="M1039.4938,72.1719 C1038.5563,71.7344 1037.9625,71.5938 1037.0875,71.5938 C1034.4625,71.5938 1032.4625,73.6719 1032.4625,76.3906 L1032.4625,77.5156 C1032.4625,80.0938 1034.5719,81.9844 1037.4625,81.9844 C1038.6813,81.9844 1039.8375,81.6875 1040.5875,81.1406 C1041.1656,80.7344 1041.4938,80.2813 1041.4938,79.8906 C1041.4938,79.4375 1041.1031,79.0469 1040.6344,79.0469 C1040.4156,79.0469 1040.2125,79.125 1040.025,79.3125 C1039.5719,79.7969 1039.5719,79.7969 1039.3844,79.8906 C1038.9625,80.1563 1038.275,80.2813 1037.5094,80.2813 C1035.4625,80.2813 1034.1656,79.1875 1034.1656,77.4844 L1034.1656,76.3906 C1034.1656,74.6094 1035.4156,73.2969 1037.15,73.2969 C1037.7281,73.2969 1038.3375,73.4531 1038.8063,73.7031 C1039.2906,73.9844 1039.4625,74.2031 1039.5563,74.6094 C1039.6188,75.0156 1039.65,75.1406 1039.7906,75.2656 C1039.9313,75.4063 1040.1656,75.5156 1040.3844,75.5156 C1040.65,75.5156 1040.9156,75.375 1041.0875,75.1563 C1041.1969,75 1041.2281,74.8125 1041.2281,74.3906 L1041.2281,72.9688 C1041.2281,72.5313 1041.2125,72.4063 1041.1188,72.25 C1040.9625,71.9844 1040.6813,71.8438 1040.3844,71.8438 C1040.0875,71.8438 1039.8844,71.9375 1039.6656,72.25 L1039.4938,72.1719 Z " fill="#000000"/><text fill="#000000" font-family="sans-serif" font-size="12" lengthAdjust="spacing" textLength="129" x="1051.85" y="80.6543">TransacoesController</text><line style="stroke:#A80036;stroke-width:1.5;" x1="1020" x2="1186" y1="92.5" y2="92.5"/><line style="stroke:#A80036;stroke-width:1.5;" x1="1020" x2="1186" y1="100.5" y2="100.5"/><text fill="#000000" font-family="sans-serif" font-size="11" lengthAdjust="spacing" textLength="121" x="1025" y="114.7104">+Get GetTransacao()</text><text fill="#000000" font-family="sans-serif" font-size="11" lengthAdjust="spacing" textLength="156" x="1025" y="127.5151">+Get GetTransacaoById(id)</text><text fill="#000000" font-family="sans-serif" font-size="11" lengthAdjust="spacing" textLength="125" x="1025" y="140.3198">+Post PostTransacao()</text><!--MD5=[0eebc07912bfe174f9973dd50f89fb9e]
class ParquesController--><rect codeLine="42" fill="#FEFECE" filter="url(#fa6sw4rwn499t)" height="112.0234" id="ParquesController" style="stroke:#A80036;stroke-width:1.5;" width="163" x="1222.5" y="47.5"/><ellipse cx="1248.3" cy="63.5" fill="#ADD1B2" rx="11" ry="11" style="stroke:#A80036;stroke-width:1.0;"/><path d="M1250.6438,59.1719 C1249.7063,58.7344 1249.1125,58.5938 1248.2375,58.5938 C1245.6125,58.5938 1243.6125,60.6719 1243.6125,63.3906 L1243.6125,64.5156 C1243.6125,67.0938 1245.7219,68.9844 1248.6125,68.9844 C1249.8313,68.9844 1250.9875,68.6875 1251.7375,68.1406 C1252.3156,67.7344 1252.6438,67.2813 1252.6438,66.8906 C1252.6438,66.4375 1252.2531,66.0469 1251.7844,66.0469 C1251.5656,66.0469 1251.3625,66.125 1251.175,66.3125 C1250.7219,66.7969 1250.7219,66.7969 1250.5344,66.8906 C1250.1125,67.1563 1249.425,67.2813 1248.6594,67.2813 C1246.6125,67.2813 1245.3156,66.1875 1245.3156,64.4844 L1245.3156,63.3906 C1245.3156,61.6094 1246.5656,60.2969 1248.3,60.2969 C1248.8781,60.2969 1249.4875,60.4531 1249.9563,60.7031 C1250.4406,60.9844 1250.6125,61.2031 1250.7063,61.6094 C1250.7688,62.0156 1250.8,62.1406 1250.9406,62.2656 C1251.0813,62.4063 1251.3156,62.5156 1251.5344,62.5156 C1251.8,62.5156 1252.0656,62.375 1252.2375,62.1563 C1252.3469,62 1252.3781,61.8125 1252.3781,61.3906 L1252.3781,59.9688 C1252.3781,59.5313 1252.3625,59.4063 1252.2688,59.25 C1252.1125,58.9844 1251.8313,58.8438 1251.5344,58.8438 C1251.2375,58.8438 1251.0344,58.9375 1250.8156,59.25 L1250.6438,59.1719 Z " fill="#000000"/><text fill="#000000" font-family="sans-serif" font-size="12" lengthAdjust="spacing" textLength="107" x="1264.7" y="67.6543">ParquesController</text><line style="stroke:#A80036;stroke-width:1.5;" x1="1223.5" x2="1384.5" y1="79.5" y2="79.5"/><line style="stroke:#A80036;stroke-width:1.5;" x1="1223.5" x2="1384.5" y1="87.5" y2="87.5"/><text fill="#000000" font-family="sans-serif" font-size="11" lengthAdjust="spacing" textLength="102" x="1228.5" y="101.7104">+Get GetParque()</text><text fill="#000000" font-family="sans-serif" font-size="11" lengthAdjust="spacing" textLength="137" x="1228.5" y="114.5151">+Get GetParqueById(id)</text><text fill="#000000" font-family="sans-serif" font-size="11" lengthAdjust="spacing" textLength="106" x="1228.5" y="127.3198">+Post PostParque()</text><text fill="#000000" font-family="sans-serif" font-size="11" lengthAdjust="spacing" textLength="151" x="1228.5" y="140.1245">+Put PutParque(id, parque)</text><text fill="#000000" font-family="sans-serif" font-size="11" lengthAdjust="spacing" textLength="150" x="1228.5" y="152.9292">+Delete DeleteParque(id)</text><!--MD5=[8aae60f72113f84792ccdc4d65a5d4de]
class MetodoPagamentosController--><rect codeLine="50" fill="#FEFECE" filter="url(#fa6sw4rwn499t)" height="112.0234" id="MetodoPagamentosController" style="stroke:#A80036;stroke-width:1.5;" width="298" x="1421" y="47.5"/><ellipse cx="1476.75" cy="63.5" fill="#ADD1B2" rx="11" ry="11" style="stroke:#A80036;stroke-width:1.0;"/><path d="M1479.0938,59.1719 C1478.1563,58.7344 1477.5625,58.5938 1476.6875,58.5938 C1474.0625,58.5938 1472.0625,60.6719 1472.0625,63.3906 L1472.0625,64.5156 C1472.0625,67.0938 1474.1719,68.9844 1477.0625,68.9844 C1478.2813,68.9844 1479.4375,68.6875 1480.1875,68.1406 C1480.7656,67.7344 1481.0938,67.2813 1481.0938,66.8906 C1481.0938,66.4375 1480.7031,66.0469 1480.2344,66.0469 C1480.0156,66.0469 1479.8125,66.125 1479.625,66.3125 C1479.1719,66.7969 1479.1719,66.7969 1478.9844,66.8906 C1478.5625,67.1563 1477.875,67.2813 1477.1094,67.2813 C1475.0625,67.2813 1473.7656,66.1875 1473.7656,64.4844 L1473.7656,63.3906 C1473.7656,61.6094 1475.0156,60.2969 1476.75,60.2969 C1477.3281,60.2969 1477.9375,60.4531 1478.4063,60.7031 C1478.8906,60.9844 1479.0625,61.2031 1479.1563,61.6094 C1479.2188,62.0156 1479.25,62.1406 1479.3906,62.2656 C1479.5313,62.4063 1479.7656,62.5156 1479.9844,62.5156 C1480.25,62.5156 1480.5156,62.375 1480.6875,62.1563 C1480.7969,62 1480.8281,61.8125 1480.8281,61.3906 L1480.8281,59.9688 C1480.8281,59.5313 1480.8125,59.4063 1480.7188,59.25 C1480.5625,58.9844 1480.2813,58.8438 1479.9844,58.8438 C1479.6875,58.8438 1479.4844,58.9375 1479.2656,59.25 L1479.0938,59.1719 Z " fill="#000000"/><text fill="#000000" font-family="sans-serif" font-size="12" lengthAdjust="spacing" textLength="178" x="1497.25" y="67.6543">MetodoPagamentosController</text><line style="stroke:#A80036;stroke-width:1.5;" x1="1422" x2="1718" y1="79.5" y2="79.5"/><line style="stroke:#A80036;stroke-width:1.5;" x1="1422" x2="1718" y1="87.5" y2="87.5"/><text fill="#000000" font-family="sans-serif" font-size="11" lengthAdjust="spacing" textLength="169" x="1427" y="101.7104">+Get GetMetodoPagamento()</text><text fill="#000000" font-family="sans-serif" font-size="11" lengthAdjust="spacing" textLength="204" x="1427" y="114.5151">+Get GetMetodoPagamentoById(id)</text><text fill="#000000" font-family="sans-serif" font-size="11" lengthAdjust="spacing" textLength="173" x="1427" y="127.3198">+Post PostMetodoPagamento()</text><text fill="#000000" font-family="sans-serif" font-size="11" lengthAdjust="spacing" textLength="286" x="1427" y="140.1245">+Put PutMetodoPagamento(id, metodoPagamento)</text><text fill="#000000" font-family="sans-serif" font-size="11" lengthAdjust="spacing" textLength="217" x="1427" y="152.9292">+Delete DeleteMetodoPagamento(id)</text><!--MD5=[5dd1d6732c071e710b9290b531f2fa3b]
class Utilizador--><rect codeLine="62" fill="#FEFECE" filter="url(#fa6sw4rwn499t)" height="112.0234" id="Utilizador" style="stroke:#A80036;stroke-width:1.5;" width="104" x="815" y="479"/><ellipse cx="836.75" cy="495" fill="#ADD1B2" rx="11" ry="11" style="stroke:#A80036;stroke-width:1.0;"/><path d="M839.0938,490.6719 C838.1563,490.2344 837.5625,490.0938 836.6875,490.0938 C834.0625,490.0938 832.0625,492.1719 832.0625,494.8906 L832.0625,496.0156 C832.0625,498.5938 834.1719,500.4844 837.0625,500.4844 C838.2813,500.4844 839.4375,500.1875 840.1875,499.6406 C840.7656,499.2344 841.0938,498.7813 841.0938,498.3906 C841.0938,497.9375 840.7031,497.5469 840.2344,497.5469 C840.0156,497.5469 839.8125,497.625 839.625,497.8125 C839.1719,498.2969 839.1719,498.2969 838.9844,498.3906 C838.5625,498.6563 837.875,498.7813 837.1094,498.7813 C835.0625,498.7813 833.7656,497.6875 833.7656,495.9844 L833.7656,494.8906 C833.7656,493.1094 835.0156,491.7969 836.75,491.7969 C837.3281,491.7969 837.9375,491.9531 838.4063,492.2031 C838.8906,492.4844 839.0625,492.7031 839.1563,493.1094 C839.2188,493.5156 839.25,493.6406 839.3906,493.7656 C839.5313,493.9063 839.7656,494.0156 839.9844,494.0156 C840.25,494.0156 840.5156,493.875 840.6875,493.6563 C840.7969,493.5 840.8281,493.3125 840.8281,492.8906 L840.8281,491.4688 C840.8281,491.0313 840.8125,490.9063 840.7188,490.75 C840.5625,490.4844 840.2813,490.3438 839.9844,490.3438 C839.6875,490.3438 839.4844,490.4375 839.2656,490.75 L839.0938,490.6719 Z " fill="#000000"/><text fill="#000000" font-family="sans-serif" font-size="12" lengthAdjust="spacing" textLength="57" x="852.25" y="499.1543">Utilizador</text><line style="stroke:#A80036;stroke-width:1.5;" x1="816" x2="918" y1="511" y2="511"/><text fill="#000000" font-family="sans-serif" font-size="11" lengthAdjust="spacing" textLength="53" x="821" y="525.2104">-Int nif PK</text><text fill="#000000" font-family="sans-serif" font-size="11" lengthAdjust="spacing" textLength="74" x="821" y="538.0151">-String nome</text><text fill="#000000" font-family="sans-serif" font-size="11" lengthAdjust="spacing" textLength="73" x="821" y="550.8198">-String email</text><text fill="#000000" font-family="sans-serif" font-size="11" lengthAdjust="spacing" textLength="92" x="821" y="563.6245">-Double carteira</text><text fill="#000000" font-family="sans-serif" font-size="11" lengthAdjust="spacing" textLength="91" x="821" y="576.4292">-Int credencialId</text><line style="stroke:#A80036;stroke-width:1.5;" x1="816" x2="918" y1="583.0234" y2="583.0234"/><!--MD5=[6ea9d6598d9760662639554c9857ab6b]
class Reserva--><rect codeLine="70" fill="#FEFECE" filter="url(#fa6sw4rwn499t)" height="124.8281" id="Reserva" style="stroke:#A80036;stroke-width:1.5;" width="127" x="688.5" y="262.5"/><ellipse cx="724.2" cy="278.5" fill="#ADD1B2" rx="11" ry="11" style="stroke:#A80036;stroke-width:1.0;"/><path d="M726.5438,274.1719 C725.6063,273.7344 725.0125,273.5938 724.1375,273.5938 C721.5125,273.5938 719.5125,275.6719 719.5125,278.3906 L719.5125,279.5156 C719.5125,282.0938 721.6219,283.9844 724.5125,283.9844 C725.7313,283.9844 726.8875,283.6875 727.6375,283.1406 C728.2156,282.7344 728.5438,282.2813 728.5438,281.8906 C728.5438,281.4375 728.1531,281.0469 727.6844,281.0469 C727.4656,281.0469 727.2625,281.125 727.075,281.3125 C726.6219,281.7969 726.6219,281.7969 726.4344,281.8906 C726.0125,282.1563 725.325,282.2813 724.5594,282.2813 C722.5125,282.2813 721.2156,281.1875 721.2156,279.4844 L721.2156,278.3906 C721.2156,276.6094 722.4656,275.2969 724.2,275.2969 C724.7781,275.2969 725.3875,275.4531 725.8563,275.7031 C726.3406,275.9844 726.5125,276.2031 726.6063,276.6094 C726.6688,277.0156 726.7,277.1406 726.8406,277.2656 C726.9813,277.4063 727.2156,277.5156 727.4344,277.5156 C727.7,277.5156 727.9656,277.375 728.1375,277.1563 C728.2469,277 728.2781,276.8125 728.2781,276.3906 L728.2781,274.9688 C728.2781,274.5313 728.2625,274.4063 728.1688,274.25 C728.0125,273.9844 727.7313,273.8438 727.4344,273.8438 C727.1375,273.8438 726.9344,273.9375 726.7156,274.25 L726.5438,274.1719 Z " fill="#000000"/><text fill="#000000" font-family="sans-serif" font-size="12" lengthAdjust="spacing" textLength="49" x="742.8" y="282.6543">Reserva</text><line style="stroke:#A80036;stroke-width:1.5;" x1="689.5" x2="814.5" y1="294.5" y2="294.5"/><text fill="#000000" font-family="sans-serif" font-size="11" lengthAdjust="spacing" textLength="49" x="694.5" y="308.7104">-Int id PK</text><text fill="#000000" font-family="sans-serif" font-size="11" lengthAdjust="spacing" textLength="106" x="694.5" y="321.5151">-Int nifUtilizador FK</text><text fill="#000000" font-family="sans-serif" font-size="11" lengthAdjust="spacing" textLength="89" x="694.5" y="334.3198">-Int parqueId FK</text><text fill="#000000" font-family="sans-serif" font-size="11" lengthAdjust="spacing" textLength="79" x="694.5" y="347.1245">-Double custo</text><text fill="#000000" font-family="sans-serif" font-size="11" lengthAdjust="spacing" textLength="106" x="694.5" y="359.9292">-Int transacaoID FK</text><text fill="#000000" font-family="sans-serif" font-size="11" lengthAdjust="spacing" textLength="115" x="694.5" y="372.7339">-Int reservaParqueId</text><line style="stroke:#A80036;stroke-width:1.5;" x1="689.5" x2="814.5" y1="379.3281" y2="379.3281"/><!--MD5=[2de463454f7588e20c9a29e8d111f9cc]
class Transacao--><rect codeLine="79" fill="#FEFECE" filter="url(#fa6sw4rwn499t)" height="112.0234" id="Transacao" style="stroke:#A80036;stroke-width:1.5;" width="131" x="967.5" y="668"/><ellipse cx="999.15" cy="684" fill="#ADD1B2" rx="11" ry="11" style="stroke:#A80036;stroke-width:1.0;"/><path d="M1001.4938,679.6719 C1000.5563,679.2344 999.9625,679.0938 999.0875,679.0938 C996.4625,679.0938 994.4625,681.1719 994.4625,683.8906 L994.4625,685.0156 C994.4625,687.5938 996.5719,689.4844 999.4625,689.4844 C1000.6813,689.4844 1001.8375,689.1875 1002.5875,688.6406 C1003.1656,688.2344 1003.4938,687.7813 1003.4938,687.3906 C1003.4938,686.9375 1003.1031,686.5469 1002.6344,686.5469 C1002.4156,686.5469 1002.2125,686.625 1002.025,686.8125 C1001.5719,687.2969 1001.5719,687.2969 1001.3844,687.3906 C1000.9625,687.6563 1000.275,687.7813 999.5094,687.7813 C997.4625,687.7813 996.1656,686.6875 996.1656,684.9844 L996.1656,683.8906 C996.1656,682.1094 997.4156,680.7969 999.15,680.7969 C999.7281,680.7969 1000.3375,680.9531 1000.8063,681.2031 C1001.2906,681.4844 1001.4625,681.7031 1001.5563,682.1094 C1001.6188,682.5156 1001.65,682.6406 1001.7906,682.7656 C1001.9313,682.9063 1002.1656,683.0156 1002.3844,683.0156 C1002.65,683.0156 1002.9156,682.875 1003.0875,682.6563 C1003.1969,682.5 1003.2281,682.3125 1003.2281,681.8906 L1003.2281,680.4688 C1003.2281,680.0313 1003.2125,679.9063 1003.1188,679.75 C1002.9625,679.4844 1002.6813,679.3438 1002.3844,679.3438 C1002.0875,679.3438 1001.8844,679.4375 1001.6656,679.75 L1001.4938,679.6719 Z " fill="#000000"/><text fill="#000000" font-family="sans-serif" font-size="12" lengthAdjust="spacing" textLength="62" x="1016.85" y="688.1543">Transacao</text><line style="stroke:#A80036;stroke-width:1.5;" x1="968.5" x2="1097.5" y1="700" y2="700"/><text fill="#000000" font-family="sans-serif" font-size="11" lengthAdjust="spacing" textLength="49" x="973.5" y="714.2104">-Int Id PK</text><text fill="#000000" font-family="sans-serif" font-size="11" lengthAdjust="spacing" textLength="98" x="973.5" y="727.0151">-Int nifPagador FK</text><text fill="#000000" font-family="sans-serif" font-size="11" lengthAdjust="spacing" textLength="119" x="973.5" y="739.8198">-Int nifRecepiente FK</text><text fill="#000000" font-family="sans-serif" font-size="11" lengthAdjust="spacing" textLength="116" x="973.5" y="752.6245">-DateTime dataHora</text><text fill="#000000" font-family="sans-serif" font-size="11" lengthAdjust="spacing" textLength="93" x="973.5" y="765.4292">-Int metodoId FK</text><line style="stroke:#A80036;stroke-width:1.5;" x1="968.5" x2="1097.5" y1="772.0234" y2="772.0234"/><!--MD5=[1a083dbe42a284ae0ea7f6f701783206]
class Parque--><rect codeLine="87" fill="#FEFECE" filter="url(#fa6sw4rwn499t)" height="73.6094" id="Parque" style="stroke:#A80036;stroke-width:1.5;" width="90" x="999" y="895"/><ellipse cx="1021.65" cy="911" fill="#ADD1B2" rx="11" ry="11" style="stroke:#A80036;stroke-width:1.0;"/><path d="M1023.9938,906.6719 C1023.0563,906.2344 1022.4625,906.0938 1021.5875,906.0938 C1018.9625,906.0938 1016.9625,908.1719 1016.9625,910.8906 L1016.9625,912.0156 C1016.9625,914.5938 1019.0719,916.4844 1021.9625,916.4844 C1023.1813,916.4844 1024.3375,916.1875 1025.0875,915.6406 C1025.6656,915.2344 1025.9938,914.7813 1025.9938,914.3906 C1025.9938,913.9375 1025.6031,913.5469 1025.1344,913.5469 C1024.9156,913.5469 1024.7125,913.625 1024.525,913.8125 C1024.0719,914.2969 1024.0719,914.2969 1023.8844,914.3906 C1023.4625,914.6563 1022.775,914.7813 1022.0094,914.7813 C1019.9625,914.7813 1018.6656,913.6875 1018.6656,911.9844 L1018.6656,910.8906 C1018.6656,909.1094 1019.9156,907.7969 1021.65,907.7969 C1022.2281,907.7969 1022.8375,907.9531 1023.3063,908.2031 C1023.7906,908.4844 1023.9625,908.7031 1024.0563,909.1094 C1024.1188,909.5156 1024.15,909.6406 1024.2906,909.7656 C1024.4313,909.9063 1024.6656,910.0156 1024.8844,910.0156 C1025.15,910.0156 1025.4156,909.875 1025.5875,909.6563 C1025.6969,909.5 1025.7281,909.3125 1025.7281,908.8906 L1025.7281,907.4688 C1025.7281,907.0313 1025.7125,906.9063 1025.6188,906.75 C1025.4625,906.4844 1025.1813,906.3438 1024.8844,906.3438 C1024.5875,906.3438 1024.3844,906.4375 1024.1656,906.75 L1023.9938,906.6719 Z " fill="#000000"/><text fill="#000000" font-family="sans-serif" font-size="12" lengthAdjust="spacing" textLength="41" x="1037.35" y="915.1543">Parque</text><line style="stroke:#A80036;stroke-width:1.5;" x1="1000" x2="1088" y1="927" y2="927"/><text fill="#000000" font-family="sans-serif" font-size="11" lengthAdjust="spacing" textLength="49" x="1005" y="941.2104">-Int Id PK</text><text fill="#000000" font-family="sans-serif" font-size="11" lengthAdjust="spacing" textLength="78" x="1005" y="954.0151">-String api_url</text><line style="stroke:#A80036;stroke-width:1.5;" x1="1000" x2="1088" y1="960.6094" y2="960.6094"/><!--MD5=[dd719319fb662e6a1a7d2797ca995003]
class MetodoPagamento--><rect codeLine="92" fill="#FEFECE" filter="url(#fa6sw4rwn499t)" height="86.4141" id="MetodoPagamento" style="stroke:#A80036;stroke-width:1.5;" width="144" x="858" y="1086"/><ellipse cx="873" cy="1102" fill="#ADD1B2" rx="11" ry="11" style="stroke:#A80036;stroke-width:1.0;"/><path d="M875.3438,1097.6719 C874.4063,1097.2344 873.8125,1097.0938 872.9375,1097.0938 C870.3125,1097.0938 868.3125,1099.1719 868.3125,1101.8906 L868.3125,1103.0156 C868.3125,1105.5938 870.4219,1107.4844 873.3125,1107.4844 C874.5313,1107.4844 875.6875,1107.1875 876.4375,1106.6406 C877.0156,1106.2344 877.3438,1105.7813 877.3438,1105.3906 C877.3438,1104.9375 876.9531,1104.5469 876.4844,1104.5469 C876.2656,1104.5469 876.0625,1104.625 875.875,1104.8125 C875.4219,1105.2969 875.4219,1105.2969 875.2344,1105.3906 C874.8125,1105.6563 874.125,1105.7813 873.3594,1105.7813 C871.3125,1105.7813 870.0156,1104.6875 870.0156,1102.9844 L870.0156,1101.8906 C870.0156,1100.1094 871.2656,1098.7969 873,1098.7969 C873.5781,1098.7969 874.1875,1098.9531 874.6563,1099.2031 C875.1406,1099.4844 875.3125,1099.7031 875.4063,1100.1094 C875.4688,1100.5156 875.5,1100.6406 875.6406,1100.7656 C875.7813,1100.9063 876.0156,1101.0156 876.2344,1101.0156 C876.5,1101.0156 876.7656,1100.875 876.9375,1100.6563 C877.0469,1100.5 877.0781,1100.3125 877.0781,1099.8906 L877.0781,1098.4688 C877.0781,1098.0313 877.0625,1097.9063 876.9688,1097.75 C876.8125,1097.4844 876.5313,1097.3438 876.2344,1097.3438 C875.9375,1097.3438 875.7344,1097.4375 875.5156,1097.75 L875.3438,1097.6719 Z " fill="#000000"/><text fill="#000000" font-family="sans-serif" font-size="12" lengthAdjust="spacing" textLength="112" x="887" y="1106.1543">MetodoPagamento</text><line style="stroke:#A80036;stroke-width:1.5;" x1="859" x2="1001" y1="1118" y2="1118"/><text fill="#000000" font-family="sans-serif" font-size="11" lengthAdjust="spacing" textLength="49" x="864" y="1132.2104">-Int Id PK</text><text fill="#000000" font-family="sans-serif" font-size="11" lengthAdjust="spacing" textLength="74" x="864" y="1145.0151">-String nome</text><text fill="#000000" font-family="sans-serif" font-size="11" lengthAdjust="spacing" textLength="78" x="864" y="1157.8198">-String api_url</text><line style="stroke:#A80036;stroke-width:1.5;" x1="859" x2="1001" y1="1164.4141" y2="1164.4141"/><!--MD5=[bfdc1b8eaefc8c778d1b4f72f951119e]
class Credencial--><rect codeLine="100" fill="#FEFECE" filter="url(#fa6sw4rwn499t)" height="48" id="Credencial" style="stroke:#A80036;stroke-width:1.5;" width="95" x="755.5" y="700"/><ellipse cx="770.5" cy="716" fill="#A9DCDF" rx="11" ry="11" style="stroke:#A80036;stroke-width:1.0;"/><path d="M772.5781,717.8125 L772.9688,718.7969 L772.5781,718.7969 C772.125,718.7969 772.0156,718.8125 771.8594,718.9219 C771.6094,719.0781 771.4531,719.3594 771.4531,719.6563 C771.4531,719.9219 771.5938,720.1719 771.8125,720.3281 C771.9531,720.4531 772.1563,720.5 772.5781,720.5 L774.9375,720.5 C775.2969,720.5 775.5156,720.4688 775.6563,720.375 C775.9063,720.2344 776.0625,719.9375 776.0625,719.6563 C776.0625,719.375 775.9219,719.125 775.7031,718.9688 C775.5313,718.8281 775.375,718.7969 774.9063,718.7969 L771.5156,710.5938 L767.8438,710.5938 C767.3906,710.5938 767.2656,710.6094 767.1094,710.7031 C766.8594,710.875 766.7031,711.1563 766.7031,711.4375 C766.7031,711.7188 766.8438,711.9688 767.0625,712.1406 C767.2344,712.25 767.4063,712.2813 767.8438,712.2813 L768.9219,712.2813 L766.2813,718.7969 C765.8594,718.7969 765.7031,718.8125 765.5469,718.9219 C765.2969,719.0781 765.1406,719.3594 765.1406,719.6563 C765.1406,720.2188 765.5156,720.5 766.2656,720.5 L768.5313,720.5 C768.8906,720.5 769.1094,720.4688 769.2344,720.375 C769.5,720.2344 769.6406,719.9375 769.6406,719.6563 C769.6406,719.375 769.5156,719.125 769.2969,718.9531 C769.125,718.8281 768.9844,718.7969 768.5313,718.7969 L768.1406,718.7969 L768.5313,717.8125 L772.5781,717.8125 Z M771.875,716.1094 L769.2031,716.1094 L770.5469,712.8438 L771.875,716.1094 Z " fill="#000000"/><text fill="#000000" font-family="sans-serif" font-size="12" font-style="italic" lengthAdjust="spacing" textLength="63" x="784.5" y="720.1543">Credencial</text><line style="stroke:#A80036;stroke-width:1.5;" x1="756.5" x2="849.5" y1="732" y2="732"/><line style="stroke:#A80036;stroke-width:1.5;" x1="756.5" x2="849.5" y1="740" y2="740"/><!--MD5=[7a55ef00a9e867fb2b33f16729653f53]
class PayPal:Credencial--><rect codeLine="103" fill="#FEFECE" filter="url(#fa6sw4rwn499t)" height="99.2188" id="PayPal:Credencial" style="stroke:#A80036;stroke-width:1.5;" width="137" x="401.5" y="882.5"/><ellipse cx="416.5" cy="898.5" fill="#A9DCDF" rx="11" ry="11" style="stroke:#A80036;stroke-width:1.0;"/><path d="M418.5781,900.3125 L418.9688,901.2969 L418.5781,901.2969 C418.125,901.2969 418.0156,901.3125 417.8594,901.4219 C417.6094,901.5781 417.4531,901.8594 417.4531,902.1563 C417.4531,902.4219 417.5938,902.6719 417.8125,902.8281 C417.9531,902.9531 418.1563,903 418.5781,903 L420.9375,903 C421.2969,903 421.5156,902.9688 421.6563,902.875 C421.9063,902.7344 422.0625,902.4375 422.0625,902.1563 C422.0625,901.875 421.9219,901.625 421.7031,901.4688 C421.5313,901.3281 421.375,901.2969 420.9063,901.2969 L417.5156,893.0938 L413.8438,893.0938 C413.3906,893.0938 413.2656,893.1094 413.1094,893.2031 C412.8594,893.375 412.7031,893.6563 412.7031,893.9375 C412.7031,894.2188 412.8438,894.4688 413.0625,894.6406 C413.2344,894.75 413.4063,894.7813 413.8438,894.7813 L414.9219,894.7813 L412.2813,901.2969 C411.8594,901.2969 411.7031,901.3125 411.5469,901.4219 C411.2969,901.5781 411.1406,901.8594 411.1406,902.1563 C411.1406,902.7188 411.5156,903 412.2656,903 L414.5313,903 C414.8906,903 415.1094,902.9688 415.2344,902.875 C415.5,902.7344 415.6406,902.4375 415.6406,902.1563 C415.6406,901.875 415.5156,901.625 415.2969,901.4531 C415.125,901.3281 414.9844,901.2969 414.5313,901.2969 L414.1406,901.2969 L414.5313,900.3125 L418.5781,900.3125 Z M417.875,898.6094 L415.2031,898.6094 L416.5469,895.3438 L417.875,898.6094 Z " fill="#000000"/><text fill="#000000" font-family="sans-serif" font-size="12" font-style="italic" lengthAdjust="spacing" textLength="105" x="430.5" y="902.6543">PayPal:Credencial</text><line style="stroke:#A80036;stroke-width:1.5;" x1="402.5" x2="537.5" y1="914.5" y2="914.5"/><text fill="#000000" font-family="sans-serif" font-size="11" lengthAdjust="spacing" textLength="49" x="407.5" y="928.7104">-Int Id PK</text><text fill="#000000" font-family="sans-serif" font-size="11" lengthAdjust="spacing" textLength="73" x="407.5" y="941.5151">-String email</text><text fill="#000000" font-family="sans-serif" font-size="11" lengthAdjust="spacing" textLength="94" x="407.5" y="954.3198">-String password</text><text fill="#000000" font-family="sans-serif" font-size="11" lengthAdjust="spacing" textLength="95" x="407.5" y="967.1245">-Int metodoID FK</text><line style="stroke:#A80036;stroke-width:1.5;" x1="402.5" x2="537.5" y1="973.7188" y2="973.7188"/><!--MD5=[6853fe09565b5868a29d90c932ff629a]
class Cartao:Credencial--><rect codeLine="110" fill="#FEFECE" filter="url(#fa6sw4rwn499t)" height="124.8281" id="Cartao:Credencial" style="stroke:#A80036;stroke-width:1.5;" width="152" x="574" y="869.5"/><ellipse cx="595.3" cy="885.5" fill="#A9DCDF" rx="11" ry="11" style="stroke:#A80036;stroke-width:1.0;"/><path d="M597.3781,887.3125 L597.7688,888.2969 L597.3781,888.2969 C596.925,888.2969 596.8156,888.3125 596.6594,888.4219 C596.4094,888.5781 596.2531,888.8594 596.2531,889.1563 C596.2531,889.4219 596.3938,889.6719 596.6125,889.8281 C596.7531,889.9531 596.9563,890 597.3781,890 L599.7375,890 C600.0969,890 600.3156,889.9688 600.4563,889.875 C600.7063,889.7344 600.8625,889.4375 600.8625,889.1563 C600.8625,888.875 600.7219,888.625 600.5031,888.4688 C600.3313,888.3281 600.175,888.2969 599.7063,888.2969 L596.3156,880.0938 L592.6438,880.0938 C592.1906,880.0938 592.0656,880.1094 591.9094,880.2031 C591.6594,880.375 591.5031,880.6563 591.5031,880.9375 C591.5031,881.2188 591.6438,881.4688 591.8625,881.6406 C592.0344,881.75 592.2063,881.7813 592.6438,881.7813 L593.7219,881.7813 L591.0813,888.2969 C590.6594,888.2969 590.5031,888.3125 590.3469,888.4219 C590.0969,888.5781 589.9406,888.8594 589.9406,889.1563 C589.9406,889.7188 590.3156,890 591.0656,890 L593.3313,890 C593.6906,890 593.9094,889.9688 594.0344,889.875 C594.3,889.7344 594.4406,889.4375 594.4406,889.1563 C594.4406,888.875 594.3156,888.625 594.0969,888.4531 C593.925,888.3281 593.7844,888.2969 593.3313,888.2969 L592.9406,888.2969 L593.3313,887.3125 L597.3781,887.3125 Z M596.675,885.6094 L594.0031,885.6094 L595.3469,882.3438 L596.675,885.6094 Z " fill="#000000"/><text fill="#000000" font-family="sans-serif" font-size="12" font-style="italic" lengthAdjust="spacing" textLength="106" x="610.7" y="889.6543">Cartao:Credencial</text><line style="stroke:#A80036;stroke-width:1.5;" x1="575" x2="725" y1="901.5" y2="901.5"/><text fill="#000000" font-family="sans-serif" font-size="11" lengthAdjust="spacing" textLength="49" x="580" y="915.7104">-Int Id PK</text><text fill="#000000" font-family="sans-serif" font-size="11" lengthAdjust="spacing" textLength="70" x="580" y="928.5151">-Int nrCartao</text><text fill="#000000" font-family="sans-serif" font-size="11" lengthAdjust="spacing" textLength="74" x="580" y="941.3198">-String nome</text><text fill="#000000" font-family="sans-serif" font-size="11" lengthAdjust="spacing" textLength="140" x="580" y="954.1245">-DateTime dataValidade</text><text fill="#000000" font-family="sans-serif" font-size="11" lengthAdjust="spacing" textLength="41" x="580" y="966.9292">-Int cvc</text><text fill="#000000" font-family="sans-serif" font-size="11" lengthAdjust="spacing" textLength="95" x="580" y="979.7339">-Int metodoID FK</text><line style="stroke:#A80036;stroke-width:1.5;" x1="575" x2="725" y1="986.3281" y2="986.3281"/><!--MD5=[35bbce630cba41d02ad46cb338a28110]
class DebitoDireto:Credencial--><rect codeLine="119" fill="#FEFECE" filter="url(#fa6sw4rwn499t)" height="150.4375" id="DebitoDireto:Credencial" style="stroke:#A80036;stroke-width:1.5;" width="174" x="761" y="857"/><ellipse cx="776" cy="873" fill="#A9DCDF" rx="11" ry="11" style="stroke:#A80036;stroke-width:1.0;"/><path d="M778.0781,874.8125 L778.4688,875.7969 L778.0781,875.7969 C777.625,875.7969 777.5156,875.8125 777.3594,875.9219 C777.1094,876.0781 776.9531,876.3594 776.9531,876.6563 C776.9531,876.9219 777.0938,877.1719 777.3125,877.3281 C777.4531,877.4531 777.6563,877.5 778.0781,877.5 L780.4375,877.5 C780.7969,877.5 781.0156,877.4688 781.1563,877.375 C781.4063,877.2344 781.5625,876.9375 781.5625,876.6563 C781.5625,876.375 781.4219,876.125 781.2031,875.9688 C781.0313,875.8281 780.875,875.7969 780.4063,875.7969 L777.0156,867.5938 L773.3438,867.5938 C772.8906,867.5938 772.7656,867.6094 772.6094,867.7031 C772.3594,867.875 772.2031,868.1563 772.2031,868.4375 C772.2031,868.7188 772.3438,868.9688 772.5625,869.1406 C772.7344,869.25 772.9063,869.2813 773.3438,869.2813 L774.4219,869.2813 L771.7813,875.7969 C771.3594,875.7969 771.2031,875.8125 771.0469,875.9219 C770.7969,876.0781 770.6406,876.3594 770.6406,876.6563 C770.6406,877.2188 771.0156,877.5 771.7656,877.5 L774.0313,877.5 C774.3906,877.5 774.6094,877.4688 774.7344,877.375 C775,877.2344 775.1406,876.9375 775.1406,876.6563 C775.1406,876.375 775.0156,876.125 774.7969,875.9531 C774.625,875.8281 774.4844,875.7969 774.0313,875.7969 L773.6406,875.7969 L774.0313,874.8125 L778.0781,874.8125 Z M777.375,873.1094 L774.7031,873.1094 L776.0469,869.8438 L777.375,873.1094 Z " fill="#000000"/><text fill="#000000" font-family="sans-serif" font-size="12" font-style="italic" lengthAdjust="spacing" textLength="142" x="790" y="877.1543">DebitoDireto:Credencial</text><line style="stroke:#A80036;stroke-width:1.5;" x1="762" x2="934" y1="889" y2="889"/><text fill="#000000" font-family="sans-serif" font-size="11" lengthAdjust="spacing" textLength="49" x="767" y="903.2104">-Int Id PK</text><text fill="#000000" font-family="sans-serif" font-size="11" lengthAdjust="spacing" textLength="65" x="767" y="916.0151">-String iban</text><text fill="#000000" font-family="sans-serif" font-size="11" lengthAdjust="spacing" textLength="74" x="767" y="928.8198">-String nome</text><text fill="#000000" font-family="sans-serif" font-size="11" lengthAdjust="spacing" textLength="59" x="767" y="941.6245">-String rua</text><text fill="#000000" font-family="sans-serif" font-size="11" lengthAdjust="spacing" textLength="111" x="767" y="954.4292">-String codigoPostal</text><text fill="#000000" font-family="sans-serif" font-size="11" lengthAdjust="spacing" textLength="95" x="767" y="967.2339">-String freguesia</text><text fill="#000000" font-family="sans-serif" font-size="11" lengthAdjust="spacing" textLength="151" x="767" y="980.0386">-DateTime dataSubscricao</text><text fill="#000000" font-family="sans-serif" font-size="11" lengthAdjust="spacing" textLength="95" x="767" y="992.8433">-Int metodoID FK</text><line style="stroke:#A80036;stroke-width:1.5;" x1="762" x2="934" y1="999.4375" y2="999.4375"/><!--MD5=[6754354365917abf8f1a56af1b7e344c]
class Context--><rect codeLine="136" fill="#FEFECE" filter="url(#fa6sw4rwn499t)" height="150.4375" id="Context" style="stroke:#A80036;stroke-width:1.5;" width="292" x="1155" y="250"/><ellipse cx="1273.75" cy="266" fill="#ADD1B2" rx="11" ry="11" style="stroke:#A80036;stroke-width:1.0;"/><path d="M1276.0938,261.6719 C1275.1563,261.2344 1274.5625,261.0938 1273.6875,261.0938 C1271.0625,261.0938 1269.0625,263.1719 1269.0625,265.8906 L1269.0625,267.0156 C1269.0625,269.5938 1271.1719,271.4844 1274.0625,271.4844 C1275.2813,271.4844 1276.4375,271.1875 1277.1875,270.6406 C1277.7656,270.2344 1278.0938,269.7813 1278.0938,269.3906 C1278.0938,268.9375 1277.7031,268.5469 1277.2344,268.5469 C1277.0156,268.5469 1276.8125,268.625 1276.625,268.8125 C1276.1719,269.2969 1276.1719,269.2969 1275.9844,269.3906 C1275.5625,269.6563 1274.875,269.7813 1274.1094,269.7813 C1272.0625,269.7813 1270.7656,268.6875 1270.7656,266.9844 L1270.7656,265.8906 C1270.7656,264.1094 1272.0156,262.7969 1273.75,262.7969 C1274.3281,262.7969 1274.9375,262.9531 1275.4063,263.2031 C1275.8906,263.4844 1276.0625,263.7031 1276.1563,264.1094 C1276.2188,264.5156 1276.25,264.6406 1276.3906,264.7656 C1276.5313,264.9063 1276.7656,265.0156 1276.9844,265.0156 C1277.25,265.0156 1277.5156,264.875 1277.6875,264.6563 C1277.7969,264.5 1277.8281,264.3125 1277.8281,263.8906 L1277.8281,262.4688 C1277.8281,262.0313 1277.8125,261.9063 1277.7188,261.75 C1277.5625,261.4844 1277.2813,261.3438 1276.9844,261.3438 C1276.6875,261.3438 1276.4844,261.4375 1276.2656,261.75 L1276.0938,261.6719 Z " fill="#000000"/><text fill="#000000" font-family="sans-serif" font-size="12" lengthAdjust="spacing" textLength="46" x="1294.25" y="270.1543">Context</text><line style="stroke:#A80036;stroke-width:1.5;" x1="1156" x2="1446" y1="282" y2="282"/><text fill="#000000" font-family="sans-serif" font-size="11" lengthAdjust="spacing" textLength="182" x="1161" y="296.2104">-DbSet&lt;Utilizador&gt; Utilizadores</text><text fill="#000000" font-family="sans-serif" font-size="11" lengthAdjust="spacing" textLength="162" x="1161" y="309.0151">-DbSet&lt;Reserva&gt; Reservas</text><text fill="#000000" font-family="sans-serif" font-size="11" lengthAdjust="spacing" textLength="185" x="1161" y="321.8198">-DbSet&lt;Transacao&gt; Transacoes</text><text fill="#000000" font-family="sans-serif" font-size="11" lengthAdjust="spacing" textLength="146" x="1161" y="334.6245">-DbSet&lt;Parque&gt; Parques</text><text fill="#000000" font-family="sans-serif" font-size="11" lengthAdjust="spacing" textLength="280" x="1161" y="347.4292">-DbSet&lt;MetodoPagamento&gt; MetodosPagamento</text><text fill="#000000" font-family="sans-serif" font-size="11" lengthAdjust="spacing" textLength="136" x="1161" y="360.2339">-DbSet&lt;Paypal&gt; Paypal</text><text fill="#000000" font-family="sans-serif" font-size="11" lengthAdjust="spacing" textLength="143" x="1161" y="373.0386">-DbSet&lt;Cartao&gt; Cartoes</text><text fill="#000000" font-family="sans-serif" font-size="11" lengthAdjust="spacing" textLength="220" x="1161" y="385.8433">-DbSet&lt;DebitoDireto&gt; DebitosDiretos</text><line style="stroke:#A80036;stroke-width:1.5;" x1="1156" x2="1446" y1="392.4375" y2="392.4375"/><!--MD5=[4bfbafb2cb76c9d9ad2e1e90effc95ca]
link UtilizadoresController to Utilizador--><path codeLine="149" d="M884.426,159.77 C880.669,240.468 873.706,389.996 869.816,473.536 " fill="none" id="UtilizadoresController-to-Utilizador" style="stroke:#A80036;stroke-width:1.0;stroke-dasharray:7.0,7.0;"/><polygon fill="#A80036" points="869.564,478.942,873.9787,470.138,869.7968,473.9474,865.9874,469.7655,869.564,478.942" style="stroke:#A80036;stroke-width:1.0;"/><!--MD5=[55a1e85b195c42c46b77451c3d6a4804]
link UtilizadoresController to Context--><path codeLine="150" d="M948.967,159.57 C964.982,171.3 982.852,182.42 1001,190 C1048.27,209.749 1066.96,189.21 1115,207 C1142.39,217.147 1170.04,231.691 1195.34,247.094 " fill="none" id="UtilizadoresController-to-Context" style="stroke:#A80036;stroke-width:1.0;stroke-dasharray:7.0,7.0;"/><polygon fill="#A80036" points="1199.7,249.775,1194.1214,241.6584,1195.4385,247.1598,1189.9371,248.4768,1199.7,249.775" style="stroke:#A80036;stroke-width:1.0;"/><!--MD5=[f1d08e710b5be31a4f54b7be44dcfd5f]
link ReservasController to Reserva--><path codeLine="151" d="M675.09,166.23 C688.996,194.75 705.53,228.671 719.698,257.735 " fill="none" id="ReservasController-to-Reserva" style="stroke:#A80036;stroke-width:1.0;stroke-dasharray:7.0,7.0;"/><polygon fill="#A80036" points="721.95,262.356,721.6021,252.5133,719.7592,257.8615,714.4109,256.0186,721.95,262.356" style="stroke:#A80036;stroke-width:1.0;"/><!--MD5=[4c183a90d865e4921167e44bdbd7527a]
link ReservasController to Context--><path codeLine="152" d="M722.477,166.09 C738.099,175.72 754.975,184.34 772,190 C808.208,202.04 1078.61,195.52 1115,207 C1144.06,216.166 1173.1,231.003 1199.29,247.079 " fill="none" id="ReservasController-to-Context" style="stroke:#A80036;stroke-width:1.0;stroke-dasharray:7.0,7.0;"/><polygon fill="#A80036" points="1203.81,249.881,1198.2597,241.745,1199.5576,247.2509,1194.0517,248.5488,1203.81,249.881" style="stroke:#A80036;stroke-width:1.0;"/><!--MD5=[63f1039bd21356e858113479a103cf25]
link ReservasController to PagamentoService--><path codeLine="153" d="M534.69,131.4 C479.697,147.93 413.835,172.63 361,207 C329.342,227.596 300.073,258.788 279.401,283.786 " fill="none" id="ReservasController-to-PagamentoService" style="stroke:#A80036;stroke-width:1.0;stroke-dasharray:7.0,7.0;"/><polygon fill="#A80036" points="276.158,287.743,284.9571,283.3185,279.3278,283.8761,278.7701,278.2468,276.158,287.743" style="stroke:#A80036;stroke-width:1.0;"/><!--MD5=[ea8bc1862f65d1111e9aa61726d02111]
link ReservasController to EmailService--><path codeLine="154" d="M534.852,117.51 C410.726,133.91 218.489,165.11 159,207 C132.564,225.615 113.936,257.323 102.26,283.039 " fill="none" id="ReservasController-to-EmailService" style="stroke:#A80036;stroke-width:1.0;stroke-dasharray:7.0,7.0;"/><polygon fill="#A80036" points="100.16,287.766,107.4692,281.1648,102.1898,283.1965,100.158,277.9171,100.16,287.766" style="stroke:#A80036;stroke-width:1.0;"/><!--MD5=[bdc1af83df3e614303713389d5bf7496]
link TransacoesController to Transacao--><path codeLine="155" d="M1084.12,146.57 C1057.74,207.858 1011.18,325.969 994,432 C981.093,511.65 999.061,604.065 1014.66,663.002 " fill="none" id="TransacoesController-to-Transacao" style="stroke:#A80036;stroke-width:1.0;stroke-dasharray:7.0,7.0;"/><polygon fill="#A80036" points="1015.96,667.892,1017.4961,658.1637,1014.6668,663.0621,1009.7683,660.2328,1015.96,667.892" style="stroke:#A80036;stroke-width:1.0;"/><!--MD5=[64769f895abbfa304c726cfecd4d4d6c]
link TransacoesController to Context--><path codeLine="156" d="M1140.94,146.56 C1166.19,174.55 1200.13,212.182 1230.27,245.584 " fill="none" id="TransacoesController-to-Context" style="stroke:#A80036;stroke-width:1.0;stroke-dasharray:7.0,7.0;"/><polygon fill="#A80036" points="1233.92,249.636,1230.8645,240.2731,1230.572,245.9224,1224.9227,245.6299,1233.92,249.636" style="stroke:#A80036;stroke-width:1.0;"/><!--MD5=[b25225a33270bdb4508378cc7473fef0]
link ParquesController to Parque--><path codeLine="157" d="M1359.2,159.5 C1372.71,170.81 1387.71,181.76 1403,190 C1427.4,203.15 1446.28,184.89 1463,207 C1617.96,411.97 1493.79,546.747 1386,780 C1335.18,889.971 1176.66,919.852 1094.51,927.971 " fill="none" id="ParquesController-to-Parque" style="stroke:#A80036;stroke-width:1.0;stroke-dasharray:7.0,7.0;"/><polygon fill="#A80036" points="1089.21,928.475,1098.547,931.6088,1094.1877,928.0037,1097.7928,923.6444,1089.21,928.475" style="stroke:#A80036;stroke-width:1.0;"/><!--MD5=[42e6008d20694588b8edd67f6bad3e14]
link ParquesController to Context--><path codeLine="158" d="M1303.25,159.61 C1302.9,185.31 1302.47,216.382 1302.09,244.561 " fill="none" id="ParquesController-to-Context" style="stroke:#A80036;stroke-width:1.0;stroke-dasharray:7.0,7.0;"/><polygon fill="#A80036" points="1302.01,249.787,1306.133,240.8427,1302.0786,244.7875,1298.1338,240.733,1302.01,249.787" style="stroke:#A80036;stroke-width:1.0;"/><!--MD5=[7b141085eb0518e7623b734b72c701b4]
link MetodoPagamentosController to MetodoPagamento--><path codeLine="159" d="M1583.73,159.59 C1593.54,203.75 1605,267.467 1605,324 C1605,324 1605,324 1605,933 C1605,1056.204 1184.7,1106.3894 1007.41,1122.078 " fill="none" id="MetodoPagamentosController-to-MetodoPagamento" style="stroke:#A80036;stroke-width:1.0;stroke-dasharray:7.0,7.0;"/><polygon fill="#A80036" points="1002.24,1122.5321,1011.5589,1125.7193,1007.2204,1122.0893,1010.8504,1117.7508,1002.24,1122.5321" style="stroke:#A80036;stroke-width:1.0;"/><!--MD5=[a66b9f39faf63293a9e6033a5b5c0751]
link MetodoPagamentosController to Context--><path codeLine="160" d="M1502.47,159.61 C1470.24,185.9 1431.12,217.821 1395.96,246.511 " fill="none" id="MetodoPagamentosController-to-Context" style="stroke:#A80036;stroke-width:1.0;stroke-dasharray:7.0,7.0;"/><polygon fill="#A80036" points="1391.7,249.993,1401.1979,247.3874,1395.569,246.8259,1396.1305,241.197,1391.7,249.993" style="stroke:#A80036;stroke-width:1.0;"/><!--MD5=[96ba30bc6ebaf1e34d16a1a6275bbb35]
link Context to Utilizador--><path codeLine="162" d="M1176.51,400.045 C1156.48,409.459 1135.56,417.914 1115,424 C1077.34,435.147 1064.16,419.308 1027,432 C989.859,444.684 952.633,467.655 923.447,488.589 " fill="none" id="Context-to-Utilizador" style="stroke:#A80036;stroke-width:1.0;"/><polygon fill="#A80036" points="919.2,491.662,928.8363,489.6269,923.2508,488.731,924.1467,483.1455,919.2,491.662" style="stroke:#A80036;stroke-width:1.0;"/><text fill="#000000" font-family="sans-serif" font-size="13" lengthAdjust="spacing" textLength="26" x="1028" y="445.0669">tem</text><text fill="#000000" font-family="sans-serif" font-size="13" lengthAdjust="spacing" textLength="8" x="1155.2595" y="420.6086">1</text><text fill="#000000" font-family="sans-serif" font-size="13" lengthAdjust="spacing" textLength="23" x="926.9634" y="482.5397">0..*</text><!--MD5=[f862fc199df090de7a91527ffbcfeae3]
link Context to Reserva--><path codeLine="163" d="M1154.77,325 C1046.62,325 904.202,325 820.913,325 " fill="none" id="Context-to-Reserva" style="stroke:#A80036;stroke-width:1.0;"/><polygon fill="#A80036" points="815.514,325,824.514,329,820.514,325,824.514,321,815.514,325" style="stroke:#A80036;stroke-width:1.0;"/><text fill="#000000" font-family="sans-serif" font-size="13" lengthAdjust="spacing" textLength="26" x="972.25" y="318.0669">tem</text><text fill="#000000" font-family="sans-serif" font-size="13" lengthAdjust="spacing" textLength="8" x="1139.0238" y="321.6723">1</text><text fill="#000000" font-family="sans-serif" font-size="13" lengthAdjust="spacing" textLength="23" x="823.7187" y="321.2632">0..*</text><!--MD5=[97c3e5cd7c11f9a09254c4a96322050c]
link Context to Transacao--><path codeLine="164" d="M1163.27,400.206 C1149.97,410.025 1137.26,420.656 1126,432 C1064.18,494.273 1043.42,597.591 1036.47,662.896 " fill="none" id="Context-to-Transacao" style="stroke:#A80036;stroke-width:1.0;"/><polygon fill="#A80036" points="1035.96,667.921,1040.86,659.3776,1036.4717,662.9472,1032.902,658.5589,1035.96,667.921" style="stroke:#A80036;stroke-width:1.0;"/><text fill="#000000" font-family="sans-serif" font-size="13" lengthAdjust="spacing" textLength="26" x="1092" y="539.5669">tem</text><text fill="#000000" font-family="sans-serif" font-size="13" lengthAdjust="spacing" textLength="8" x="1141.3185" y="420.3993">1</text><text fill="#000000" font-family="sans-serif" font-size="13" lengthAdjust="spacing" textLength="23" x="1011.8658" y="656.8488">0..*</text><!--MD5=[b8a4ba3f14343c93cc8a055f0769f72b]
link Context to Parque--><path codeLine="165" d="M1329.73,400.32 C1365.25,505.835 1410.67,700.292 1320,827 C1268.05,899.604 1158.84,921.552 1094.47,928.167 " fill="none" id="Context-to-Parque" style="stroke:#A80036;stroke-width:1.0;"/><polygon fill="#A80036" points="1089.15,928.689,1098.496,931.7957,1094.1263,928.2032,1097.7188,923.8335,1089.15,928.689" style="stroke:#A80036;stroke-width:1.0;"/><text fill="#000000" font-family="sans-serif" font-size="13" lengthAdjust="spacing" textLength="26" x="1375" y="634.0669">tem</text><text fill="#000000" font-family="sans-serif" font-size="13" lengthAdjust="spacing" textLength="8" x="1324.1644" y="420.5245">1</text><text fill="#000000" font-family="sans-serif" font-size="13" lengthAdjust="spacing" textLength="23" x="1097.1164" y="924.2724">0..*</text><!--MD5=[d64cc5fded769c87c323eeb0a085c074]
link Context to MetodoPagamento--><path codeLine="166" d="M1351.07,400.252 C1357.42,410.734 1363.58,421.513 1369,432 C1440.13,569.546 1446.84,637.6 1386,780 C1315.35,945.36 1117.51,1050.581 1007.04,1098.233 " fill="none" id="Context-to-MetodoPagamento" style="stroke:#A80036;stroke-width:1.0;"/><polygon fill="#A80036" points="1002.18,1100.32,1012.028,1100.448,1006.7751,1098.3489,1008.8742,1093.0959,1002.18,1100.32" style="stroke:#A80036;stroke-width:1.0;"/><text fill="#000000" font-family="sans-serif" font-size="13" lengthAdjust="spacing" textLength="26" x="1426" y="728.5669">tem</text><text fill="#000000" font-family="sans-serif" font-size="13" lengthAdjust="spacing" textLength="8" x="1347.605" y="420.4498">1</text><text fill="#000000" font-family="sans-serif" font-size="13" lengthAdjust="spacing" textLength="23" x="1009.8942" y="1094.0386">0..*</text><!--MD5=[6a4547493d98cd2f5636f27b79988752]
link Context to PayPal:Credencial--><path codeLine="167" d="M1278.42,400.111 C1237.22,533.037 1150.8,800.654 1115,827 C1064.9,863.869 613.715,833.809 556,857 C542.978,862.233 530.543,870.285 519.376,879.182 " fill="none" id="Context-to-PayPal:Credencial" style="stroke:#A80036;stroke-width:1.0;"/><polygon fill="#A80036" points="515.321,882.494,524.8209,879.8955,519.1924,879.3298,519.7581,873.7013,515.321,882.494" style="stroke:#A80036;stroke-width:1.0;"/><text fill="#000000" font-family="sans-serif" font-size="13" lengthAdjust="spacing" textLength="26" x="1206" y="634.0669">tem</text><text fill="#000000" font-family="sans-serif" font-size="13" lengthAdjust="spacing" textLength="8" x="1267.6789" y="420.6814">1</text><text fill="#000000" font-family="sans-serif" font-size="13" lengthAdjust="spacing" textLength="23" x="497.0771" y="871.5384">0..*</text><!--MD5=[49e1296f6cec618aaaa1ba8a1061c177]
link Context to Cartao:Credencial--><path codeLine="168" d="M1293.41,400.04 C1278.89,525.731 1242.72,772.547 1178,827 C1103.86,889.382 833.322,821.917 743,857 C736.202,859.64 729.509,862.962 723.02,866.727 " fill="none" id="Context-to-Cartao:Credencial" style="stroke:#A80036;stroke-width:1.0;"/><polygon fill="#A80036" points="718.562,869.401,728.3378,868.2034,722.8502,866.8298,724.2238,861.3422,718.562,869.401" style="stroke:#A80036;stroke-width:1.0;"/><text fill="#000000" font-family="sans-serif" font-size="13" lengthAdjust="spacing" textLength="26" x="1260" y="634.0669">tem</text><text fill="#000000" font-family="sans-serif" font-size="13" lengthAdjust="spacing" textLength="8" x="1284.2148" y="420.6031">1</text><text fill="#000000" font-family="sans-serif" font-size="13" lengthAdjust="spacing" textLength="23" x="702.1598" y="858.3803">0..*</text><!--MD5=[c2688a242fe879acb737a8853e4ba38f]
link Context to DebitoDireto:Credencial--><path codeLine="169" d="M1318.96,400.179 C1340.69,510.075 1361.62,715.162 1249,827 C1201.04,874.626 1012.17,832.773 940.045,856.85 " fill="none" id="Context-to-DebitoDireto:Credencial" style="stroke:#A80036;stroke-width:1.0;"/><polygon fill="#A80036" points="935.057,858.7,944.8862,859.3214,939.7451,856.9616,942.1048,851.8204,935.057,858.7" style="stroke:#A80036;stroke-width:1.0;"/><text fill="#000000" font-family="sans-serif" font-size="13" lengthAdjust="spacing" textLength="26" x="1335" y="634.0669">tem</text><text fill="#000000" font-family="sans-serif" font-size="13" lengthAdjust="spacing" textLength="8" x="1312.3996" y="420.7565">1</text><text fill="#000000" font-family="sans-serif" font-size="13" lengthAdjust="spacing" textLength="23" x="942.9108" y="849.316">0..*</text><!--MD5=[e925ca35b698cbd3d44a24d52cf56986]
link Reserva to Utilizador--><path codeLine="171" d="M786.037,387.563 C801.189,414.967 818.964,447.117 833.993,474.301 " fill="none" id="Reserva-to-Utilizador" style="stroke:#A80036;stroke-width:1.0;"/><polygon fill="#A80036" points="836.573,478.967,835.7176,469.1554,834.1532,474.5916,828.7169,473.0271,836.573,478.967" style="stroke:#A80036;stroke-width:1.0;"/><text fill="#000000" font-family="sans-serif" font-size="13" lengthAdjust="spacing" textLength="26" x="821" y="445.0669">tem</text><text fill="#000000" font-family="sans-serif" font-size="13" lengthAdjust="spacing" textLength="23" x="765.502" y="407.3097">0..*</text><text fill="#000000" font-family="sans-serif" font-size="13" lengthAdjust="spacing" textLength="8" x="824.162" y="467.9007">1</text><!--MD5=[f24c51f8fcbdd9e8642a8c6ebdb1f92b]
link Reserva to Transacao--><path codeLine="172" d="M742.633,387.76 C737.097,443.921 736.521,527.48 769,591 C783.948,620.235 796.021,624.606 826,638 C877.305,660.923 899.56,634.38 951,657 C956.358,659.356 961.66,662.156 966.834,665.252 " fill="none" id="Reserva-to-Transacao" style="stroke:#A80036;stroke-width:1.0;"/><polygon fill="#A80036" points="971.149,667.918,965.5951,659.7845,966.8954,665.2899,961.3901,666.5902,971.149,667.918" style="stroke:#A80036;stroke-width:1.0;"/><text fill="#000000" font-family="sans-serif" font-size="13" lengthAdjust="spacing" textLength="26" x="770" y="539.5669">tem</text><text fill="#000000" font-family="sans-serif" font-size="13" lengthAdjust="spacing" textLength="23" x="717.3507" y="407.5282">0..*</text><text fill="#000000" font-family="sans-serif" font-size="13" lengthAdjust="spacing" textLength="8" x="954.7118" y="656.8455">1</text><!--MD5=[7d6eb82c84da32176fa9b5f93c4dcb73]
link Transacao to Parque--><path codeLine="173" d="M1035.95,780.204 C1037.78,814.566 1040.1,858.047 1041.78,889.48 " fill="none" id="Transacao-to-Parque" style="stroke:#A80036;stroke-width:1.0;"/><polygon fill="#A80036" points="1042.07,894.81,1045.5868,885.6104,1041.8047,889.817,1037.598,886.035,1042.07,894.81" style="stroke:#A80036;stroke-width:1.0;"/><text fill="#000000" font-family="sans-serif" font-size="13" lengthAdjust="spacing" textLength="26" x="1040" y="823.0669">tem</text><text fill="#000000" font-family="sans-serif" font-size="13" lengthAdjust="spacing" textLength="23" x="1011.908" y="800.0415">1..*</text><text fill="#000000" font-family="sans-serif" font-size="13" lengthAdjust="spacing" textLength="8" x="1033.0137" y="883.9631">1</text><!--MD5=[76924a1db706d3395ad8de5931d04d7d]
link Parque to MetodoPagamento--><path codeLine="174" d="M1022.82,969.221 C1004.34,1000.844 977.395,1046.929 957.294,1081.314 " fill="none" id="Parque-to-MetodoPagamento" style="stroke:#A80036;stroke-width:1.0;"/><polygon fill="#A80036" points="954.629,1085.872,962.6243,1080.1209,957.1524,1081.5554,955.7178,1076.0835,954.629,1085.872" style="stroke:#A80036;stroke-width:1.0;"/><text fill="#000000" font-family="sans-serif" font-size="13" lengthAdjust="spacing" textLength="26" x="982" y="1052.0669">tem</text><text fill="#000000" font-family="sans-serif" font-size="13" lengthAdjust="spacing" textLength="23" x="994.4132" y="988.7382">0..*</text><text fill="#000000" font-family="sans-serif" font-size="13" lengthAdjust="spacing" textLength="8" x="949.9167" y="1074.8476">1</text><!--MD5=[420d0fccc3c6c7e1ed8f87c8f2960243]
link Utilizador to Credencial--><path codeLine="175" d="M848.144,591.095 C836.481,625.173 821.998,667.489 812.632,694.858 " fill="none" id="Utilizador-to-Credencial" style="stroke:#A80036;stroke-width:1.0;"/><polygon fill="#A80036" points="810.944,699.789,817.6437,692.57,812.5636,695.0586,810.075,689.9786,810.944,699.789" style="stroke:#A80036;stroke-width:1.0;"/><text fill="#000000" font-family="sans-serif" font-size="13" lengthAdjust="spacing" textLength="26" x="838" y="634.0669">tem</text><text fill="#000000" font-family="sans-serif" font-size="13" lengthAdjust="spacing" textLength="8" x="837.3584" y="610.9192">1</text><text fill="#000000" font-family="sans-serif" font-size="13" lengthAdjust="spacing" textLength="8" x="803.9546" y="688.747">1</text><!--MD5=[7ae3bae46025dcebf49ae644f4b2d781]
link Credencial to PayPal:Credencial--><path codeLine="176" d="M755.164,746.529 C703.992,770.466 621.37,811.763 556,857 C546.363,863.669 536.56,871.236 527.188,878.922 " fill="none" id="Credencial-to-PayPal:Credencial" style="stroke:#A80036;stroke-width:1.0;"/><polygon fill="#A80036" points="523.2,882.221,532.6844,879.5666,527.0527,879.034,527.5852,873.4023,523.2,882.221" style="stroke:#A80036;stroke-width:1.0;"/><text fill="#000000" font-family="sans-serif" font-size="13" lengthAdjust="spacing" textLength="56" x="629" y="823.0669">pode ser</text><!--MD5=[817b7664aec087b17dd2f279b5cd13a4]
link Credencial to Cartao:Credencial--><path codeLine="177" d="M776.172,748.256 C758.402,764.475 735.273,787.217 718,810 C705.25,826.817 693.266,846.289 683.015,864.631 " fill="none" id="Credencial-to-Cartao:Credencial" style="stroke:#A80036;stroke-width:1.0;"/><polygon fill="#A80036" points="680.447,869.267,688.3054,863.3302,682.8685,864.8925,681.3062,859.4557,680.447,869.267" style="stroke:#A80036;stroke-width:1.0;"/><text fill="#000000" font-family="sans-serif" font-size="13" lengthAdjust="spacing" textLength="56" x="719" y="823.0669">pode ser</text><!--MD5=[e32d348272f20899e6e77a26d67297c6]
link Credencial to DebitoDireto:Credencial--><path codeLine="178" d="M793.416,748.388 C786.202,769.257 778.706,800.519 786,827 C788.332,835.464 791.553,843.935 795.311,852.184 " fill="none" id="Credencial-to-DebitoDireto:Credencial" style="stroke:#A80036;stroke-width:1.0;"/><polygon fill="#A80036" points="797.452,856.743,797.2463,846.8963,795.3263,852.2174,790.0053,850.2974,797.452,856.743" style="stroke:#A80036;stroke-width:1.0;"/><text fill="#000000" font-family="sans-serif" font-size="13" lengthAdjust="spacing" textLength="56" x="787" y="823.0669">pode ser</text><!--MD5=[3bca9c6ec21a00a80bc9d2f6be0d7631]
link PayPal:Credencial to MetodoPagamento--><path codeLine="179" d="M502.936,981.546 C517.316,999.45 535.571,1018.415 556,1031 C648.348,1087.892 773.249,1111.6136 852.736,1121.37 " fill="none" id="PayPal:Credencial-to-MetodoPagamento" style="stroke:#A80036;stroke-width:1.0;"/><polygon fill="#A80036" points="857.905,1121.9927,849.4486,1116.9441,852.941,1121.3941,848.4909,1124.8865,857.905,1121.9927" style="stroke:#A80036;stroke-width:1.0;"/><text fill="#000000" font-family="sans-serif" font-size="13" lengthAdjust="spacing" textLength="26" x="603" y="1052.0669">tem</text><text fill="#000000" font-family="sans-serif" font-size="13" lengthAdjust="spacing" textLength="23" x="482.9504" y="1001.6289">0..*</text><text fill="#000000" font-family="sans-serif" font-size="13" lengthAdjust="spacing" textLength="8" x="842.0577" y="1117.549">1</text><!--MD5=[4a7af6b7491bcfd986ce188e99e1fae4]
link Cartao:Credencial to MetodoPagamento--><path codeLine="180" d="M702.4,994.577 C714.956,1007.462 728.849,1020.353 743,1031 C776.703,1056.358 817.989,1078.554 853.186,1095.29 " fill="none" id="Cartao:Credencial-to-MetodoPagamento" style="stroke:#A80036;stroke-width:1.0;"/><polygon fill="#A80036" points="857.889,1097.512,851.4577,1090.0529,853.3674,1095.3776,848.0427,1097.2874,857.889,1097.512" style="stroke:#A80036;stroke-width:1.0;"/><text fill="#000000" font-family="sans-serif" font-size="13" lengthAdjust="spacing" textLength="26" x="778" y="1052.0669">tem</text><text fill="#000000" font-family="sans-serif" font-size="13" lengthAdjust="spacing" textLength="23" x="683.8734" y="1014.3252">0..*</text><text fill="#000000" font-family="sans-serif" font-size="13" lengthAdjust="spacing" textLength="8" x="842.0401" y="1090.5438">1</text><!--MD5=[f71d265deef66ba33a34e51b5d1796dd]
link DebitoDireto:Credencial to MetodoPagamento--><path codeLine="181" d="M879.235,1007.277 C889.671,1032.097 901.005,1059.048 910.31,1081.176 " fill="none" id="DebitoDireto:Credencial-to-MetodoPagamento" style="stroke:#A80036;stroke-width:1.0;"/><polygon fill="#A80036" points="912.264,1085.822,912.4651,1075.9752,910.327,1081.2124,905.0898,1079.0743,912.264,1085.822" style="stroke:#A80036;stroke-width:1.0;"/><text fill="#000000" font-family="sans-serif" font-size="13" lengthAdjust="spacing" textLength="26" x="900" y="1052.0669">tem</text><text fill="#000000" font-family="sans-serif" font-size="13" lengthAdjust="spacing" textLength="23" x="858.1777" y="1027.4773">0..*</text><text fill="#000000" font-family="sans-serif" font-size="13" lengthAdjust="spacing" textLength="8" x="900.7998" y="1074.7897">1</text><!--MD5=[ae6c70079c04e7123dbb72ffe3261c59]
@startuml
skinparam classAttributeIconSize 0

package Services <<Folder>> {

class PagamentoService {
  - Pagar()
  - Receber()
}

class EmailService {
  - ObterQRCode()
  - EnviarEmail()
}

}

package Controllers <<Folder>> {

class UtilizadoresController {
  +Get GetUtilizador()
  +Get GetUtilizadorById(nif)
  +Post PostUtilizador()
  +Put PutUtilizador(nif, Utilizador)
  +Delete DeleteUtilizador(nif)
}

class ReservasController {
  +Get GetReserva()
  +Get GetReservaById(id)
  +Post PostReserva()
  +Put PutReserva(id, reserva)
  +Delete DeleteReserva(id)
  +FindAvailable(freguesia, inicio, fim)
}

class TransacoesController {
  +Get GetTransacao()
  +Get GetTransacaoById(id)
  +Post PostTransacao()
}

class ParquesController {
  +Get GetParque()
  +Get GetParqueById(id)
  +Post PostParque()
  +Put PutParque(id, parque)
  +Delete DeleteParque(id)
}

class MetodoPagamentosController {
  +Get GetMetodoPagamento()
  +Get GetMetodoPagamentoById(id)
  +Post PostMetodoPagamento()
  +Put PutMetodoPagamento(id, metodoPagamento)
  +Delete DeleteMetodoPagamento(id)
}

}

package Models <<Folder>> {

class Utilizador{
  -Int nif PK
  -String nome
  -String email
  -Double carteira
  -Int credencialId
}

class Reserva {
  -Int id PK
  -Int nifUtilizador FK
  -Int parqueId FK
  -Double custo
  -Int transacaoID FK
  -Int reservaParqueId
}

class Transacao {
  -Int Id PK
  -Int nifPagador FK
  -Int nifRecepiente FK
  -DateTime dataHora
  -Int metodoId FK
}

class Parque {
  -Int Id PK
  -String api_url
}

class MetodoPagamento {
  -Int Id PK
  -String nome
  -String api_url
}

package "Abstract Class Credencial" <<Frame>> {

abstract class Credencial {
}

abstract PayPal:Credencial {
  -Int Id PK
  -String email
  -String password
  -Int metodoID FK
}

abstract Cartao:Credencial {
  -Int Id PK
  -Int nrCartao
  -String nome
  -DateTime dataValidade
  -Int cvc
  -Int metodoID FK
}

abstract DebitoDireto:Credencial {
  -Int Id PK
  -String iban
  -String nome
  -String rua
  -String codigoPostal
  -String freguesia
  -DateTime dataSubscricao
  -Int metodoID FK
}

}

}

package Data <<Folder>> {

class Context {
  -DbSet<Utilizador> Utilizadores
  -DbSet<Reserva> Reservas
  -DbSet<Transacao> Transacoes
  -DbSet<Parque> Parques
  -DbSet<MetodoPagamento> MetodosPagamento
  -DbSet<Paypal> Paypal
  -DbSet<Cartao> Cartoes
  -DbSet<DebitoDireto> DebitosDiretos
}

}

UtilizadoresController ..> Utilizador
UtilizadoresController ..> Context
ReservasController ..> Reserva
ReservasController ..> Context
ReservasController ..> PagamentoService
ReservasController ..> EmailService
TransacoesController ..> Transacao
TransacoesController ..> Context
ParquesController ..> Parque
ParquesController ..> Context
MetodoPagamentosController ..> MetodoPagamento
MetodoPagamentosController ..> Context

Context "1" - -> "0..*" Utilizador: tem
Context "1" - -> "0..*" Reserva: tem
Context "1" - -> "0..*" Transacao: tem
Context "1" - -> "0..*" Parque: tem
Context "1" - -> "0..*" MetodoPagamento: tem
Context "1" - -> "0..*" "PayPal:Credencial": tem
Context "1" - -> "0..*" "Cartao:Credencial": tem
Context "1" - -> "0..*" "DebitoDireto:Credencial": tem

Reserva "0..*" - -> "1" Utilizador: tem
Reserva "0..*" - -> "1" Transacao: tem
Transacao"1..*" - -> "1" Parque: tem
Parque "0..*" - -> "1" MetodoPagamento: tem
Utilizador "1" - -> "1" Credencial: tem
Credencial - -> "PayPal:Credencial": pode ser
Credencial - -> "Cartao:Credencial": pode ser
Credencial - -> "DebitoDireto:Credencial": pode ser
"PayPal:Credencial" "0..*" - -> "1" MetodoPagamento: tem
"Cartao:Credencial" "0..*" - -> "1" MetodoPagamento: tem
"DebitoDireto:Credencial" "0..*" - -> "1" MetodoPagamento: tem
@enduml

PlantUML version 1.2021.01(Tue Feb 02 07:55:08 UTC 2021)
(GPL source distribution)
Java Runtime: Java(TM) SE Runtime Environment
JVM: Java HotSpot(TM) 64-Bit Server VM
Default Encoding: UTF-8
Language: en
Country: US
--></g></svg>