<?xml version="1.0" encoding="UTF-8" standalone="no"?><svg xmlns="http://www.w3.org/2000/svg" xmlns:xlink="http://www.w3.org/1999/xlink" contentScriptType="application/ecmascript" contentStyleType="text/css" height="1333px" preserveAspectRatio="none" style="width:2254px;height:1333px;" version="1.1" viewBox="0 0 2254 1333" width="2254px" zoomAndPan="magnify"><defs><filter height="300%" id="f1khmpjj39lysh" width="300%" x="-1" y="-1"><feGaussianBlur result="blurOut" stdDeviation="2.0"/><feColorMatrix in="blurOut" result="blurOut2" type="matrix" values="0 0 0 0 0 0 0 0 0 0 0 0 0 0 0 0 0 0 .4 0"/><feOffset dx="4.0" dy="4.0" in="blurOut2" result="blurOut3"/><feBlend in="SourceGraphic" in2="blurOut3" mode="normal"/></filter></defs><g><!--MD5=[cdfd548b3455e70392372b1f27091970]
cluster Services--><polygon fill="#FFFFFF" filter="url(#f1khmpjj39lysh)" points="375,245,448,245,455,267.2969,846,267.2969,846,370,375,370,375,245" style="stroke:#000000;stroke-width:1.5;"/><line style="stroke:#000000;stroke-width:1.5;" x1="375" x2="455" y1="267.2969" y2="267.2969"/><text fill="#000000" font-family="sans-serif" font-size="14" font-weight="bold" lengthAdjust="spacing" textLength="67" x="379" y="259.9951">Services</text><!--MD5=[ed1d20ea533a2a0e7df5ba3c35e56ced]
cluster Controllers--><polygon fill="#FFFFFF" filter="url(#f1khmpjj39lysh)" points="1035,12.5,1131,12.5,1138,34.7969,2237,34.7969,2237,175.5,1035,175.5,1035,12.5" style="stroke:#000000;stroke-width:1.5;"/><line style="stroke:#000000;stroke-width:1.5;" x1="1035" x2="1138" y1="34.7969" y2="34.7969"/><text fill="#000000" font-family="sans-serif" font-size="14" font-weight="bold" lengthAdjust="spacing" textLength="90" x="1039" y="27.4951">Controllers</text><!--MD5=[027ebfd53c01aea08f474edbf35d0797]
cluster Models--><polygon fill="#FFFFFF" filter="url(#f1khmpjj39lysh)" points="870,245,933,245,940,267.2969,1609,267.2969,1609,1326,870,1326,870,245" style="stroke:#000000;stroke-width:1.5;"/><line style="stroke:#000000;stroke-width:1.5;" x1="870" x2="940" y1="267.2969" y2="267.2969"/><text fill="#000000" font-family="sans-serif" font-size="14" font-weight="bold" lengthAdjust="spacing" textLength="57" x="874" y="259.9951">Models</text><!--MD5=[e78b582c58469ade2dfd3feff264ec83]
cluster Abstract Class Credencial--><rect fill="#FFFFFF" filter="url(#f1khmpjj39lysh)" height="326" style="stroke:#000000;stroke-width:1.5;" width="552" x="894" y="835"/><path d="M1113,835 L1113,844.2969 L1103,854.2969 L894,854.2969 " fill="none" style="stroke:#000000;stroke-width:1.5;"/><text fill="#000000" font-family="sans-serif" font-size="14" font-weight="bold" lengthAdjust="spacing" textLength="209" x="897" y="848.9951">Abstract Class Credencial</text><!--MD5=[f21b1f164e99c6b37934f23ad048ad54]
cluster Data--><polygon fill="#FFFFFF" filter="url(#f1khmpjj39lysh)" points="1633,213,1678,213,1685,235.2969,1957,235.2969,1957,402,1633,402,1633,213" style="stroke:#000000;stroke-width:1.5;"/><line style="stroke:#000000;stroke-width:1.5;" x1="1633" x2="1685" y1="235.2969" y2="235.2969"/><text fill="#000000" font-family="sans-serif" font-size="14" font-weight="bold" lengthAdjust="spacing" textLength="39" x="1637" y="227.9951">Data</text><!--MD5=[79f6d8311de756be0abfe06353b7a6cc]
cluster DTOs--><polygon fill="#FFFFFF" filter="url(#f1khmpjj39lysh)" points="16,6,65,6,72,28.2969,351,28.2969,351,408,16,408,16,6" style="stroke:#000000;stroke-width:1.5;"/><line style="stroke:#000000;stroke-width:1.5;" x1="16" x2="72" y1="28.2969" y2="28.2969"/><text fill="#000000" font-family="sans-serif" font-size="14" font-weight="bold" lengthAdjust="spacing" textLength="43" x="20" y="20.9951">DTOs</text><!--MD5=[73e5466d51728114e53770fb62dc101d]
class PagamentoService--><rect codeLine="5" fill="#FEFECE" filter="url(#f1khmpjj39lysh)" height="73.6094" id="PagamentoService" style="stroke:#A80036;stroke-width:1.5;" width="144" x="686" y="280"/><ellipse cx="701" cy="296" fill="#ADD1B2" rx="11" ry="11" style="stroke:#A80036;stroke-width:1.0;"/><path d="M703.3438,291.6719 C702.4063,291.2344 701.8125,291.0938 700.9375,291.0938 C698.3125,291.0938 696.3125,293.1719 696.3125,295.8906 L696.3125,297.0156 C696.3125,299.5938 698.4219,301.4844 701.3125,301.4844 C702.5313,301.4844 703.6875,301.1875 704.4375,300.6406 C705.0156,300.2344 705.3438,299.7813 705.3438,299.3906 C705.3438,298.9375 704.9531,298.5469 704.4844,298.5469 C704.2656,298.5469 704.0625,298.625 703.875,298.8125 C703.4219,299.2969 703.4219,299.2969 703.2344,299.3906 C702.8125,299.6563 702.125,299.7813 701.3594,299.7813 C699.3125,299.7813 698.0156,298.6875 698.0156,296.9844 L698.0156,295.8906 C698.0156,294.1094 699.2656,292.7969 701,292.7969 C701.5781,292.7969 702.1875,292.9531 702.6563,293.2031 C703.1406,293.4844 703.3125,293.7031 703.4063,294.1094 C703.4688,294.5156 703.5,294.6406 703.6406,294.7656 C703.7813,294.9063 704.0156,295.0156 704.2344,295.0156 C704.5,295.0156 704.7656,294.875 704.9375,294.6563 C705.0469,294.5 705.0781,294.3125 705.0781,293.8906 L705.0781,292.4688 C705.0781,292.0313 705.0625,291.9063 704.9688,291.75 C704.8125,291.4844 704.5313,291.3438 704.2344,291.3438 C703.9375,291.3438 703.7344,291.4375 703.5156,291.75 L703.3438,291.6719 Z " fill="#000000"/><text fill="#000000" font-family="sans-serif" font-size="12" lengthAdjust="spacing" textLength="112" x="715" y="300.1543">PagamentoService</text><line style="stroke:#A80036;stroke-width:1.5;" x1="687" x2="829" y1="312" y2="312"/><line style="stroke:#A80036;stroke-width:1.5;" x1="687" x2="829" y1="320" y2="320"/><text fill="#000000" font-family="sans-serif" font-size="11" lengthAdjust="spacing" textLength="43" x="692" y="334.2104">-Pagar()</text><text fill="#000000" font-family="sans-serif" font-size="11" lengthAdjust="spacing" textLength="60" x="692" y="347.0151">-Receber()</text><!--MD5=[bcf33e039c9f38a306ec5209c2a9f4f8]
class EmailService--><rect codeLine="10" fill="#FEFECE" filter="url(#f1khmpjj39lysh)" height="73.6094" id="EmailService" style="stroke:#A80036;stroke-width:1.5;" width="109" x="541.5" y="280"/><ellipse cx="556.5" cy="296" fill="#ADD1B2" rx="11" ry="11" style="stroke:#A80036;stroke-width:1.0;"/><path d="M558.8438,291.6719 C557.9063,291.2344 557.3125,291.0938 556.4375,291.0938 C553.8125,291.0938 551.8125,293.1719 551.8125,295.8906 L551.8125,297.0156 C551.8125,299.5938 553.9219,301.4844 556.8125,301.4844 C558.0313,301.4844 559.1875,301.1875 559.9375,300.6406 C560.5156,300.2344 560.8438,299.7813 560.8438,299.3906 C560.8438,298.9375 560.4531,298.5469 559.9844,298.5469 C559.7656,298.5469 559.5625,298.625 559.375,298.8125 C558.9219,299.2969 558.9219,299.2969 558.7344,299.3906 C558.3125,299.6563 557.625,299.7813 556.8594,299.7813 C554.8125,299.7813 553.5156,298.6875 553.5156,296.9844 L553.5156,295.8906 C553.5156,294.1094 554.7656,292.7969 556.5,292.7969 C557.0781,292.7969 557.6875,292.9531 558.1563,293.2031 C558.6406,293.4844 558.8125,293.7031 558.9063,294.1094 C558.9688,294.5156 559,294.6406 559.1406,294.7656 C559.2813,294.9063 559.5156,295.0156 559.7344,295.0156 C560,295.0156 560.2656,294.875 560.4375,294.6563 C560.5469,294.5 560.5781,294.3125 560.5781,293.8906 L560.5781,292.4688 C560.5781,292.0313 560.5625,291.9063 560.4688,291.75 C560.3125,291.4844 560.0313,291.3438 559.7344,291.3438 C559.4375,291.3438 559.2344,291.4375 559.0156,291.75 L558.8438,291.6719 Z " fill="#000000"/><text fill="#000000" font-family="sans-serif" font-size="12" lengthAdjust="spacing" textLength="77" x="570.5" y="300.1543">EmailService</text><line style="stroke:#A80036;stroke-width:1.5;" x1="542.5" x2="649.5" y1="312" y2="312"/><line style="stroke:#A80036;stroke-width:1.5;" x1="542.5" x2="649.5" y1="320" y2="320"/><text fill="#000000" font-family="sans-serif" font-size="11" lengthAdjust="spacing" textLength="90" x="547.5" y="334.2104">-ObterQRCode()</text><text fill="#000000" font-family="sans-serif" font-size="11" lengthAdjust="spacing" textLength="78" x="547.5" y="347.0151">-EnviarEmail()</text><!--MD5=[9d309a25205a4dcbe5c72e626122d3aa]
class TokenService--><rect codeLine="15" fill="#FEFECE" filter="url(#f1khmpjj39lysh)" height="60.8047" id="TokenService" style="stroke:#A80036;stroke-width:1.5;" width="115" x="391.5" y="286.5"/><ellipse cx="406.5" cy="302.5" fill="#ADD1B2" rx="11" ry="11" style="stroke:#A80036;stroke-width:1.0;"/><path d="M408.8438,298.1719 C407.9063,297.7344 407.3125,297.5938 406.4375,297.5938 C403.8125,297.5938 401.8125,299.6719 401.8125,302.3906 L401.8125,303.5156 C401.8125,306.0938 403.9219,307.9844 406.8125,307.9844 C408.0313,307.9844 409.1875,307.6875 409.9375,307.1406 C410.5156,306.7344 410.8438,306.2813 410.8438,305.8906 C410.8438,305.4375 410.4531,305.0469 409.9844,305.0469 C409.7656,305.0469 409.5625,305.125 409.375,305.3125 C408.9219,305.7969 408.9219,305.7969 408.7344,305.8906 C408.3125,306.1563 407.625,306.2813 406.8594,306.2813 C404.8125,306.2813 403.5156,305.1875 403.5156,303.4844 L403.5156,302.3906 C403.5156,300.6094 404.7656,299.2969 406.5,299.2969 C407.0781,299.2969 407.6875,299.4531 408.1563,299.7031 C408.6406,299.9844 408.8125,300.2031 408.9063,300.6094 C408.9688,301.0156 409,301.1406 409.1406,301.2656 C409.2813,301.4063 409.5156,301.5156 409.7344,301.5156 C410,301.5156 410.2656,301.375 410.4375,301.1563 C410.5469,301 410.5781,300.8125 410.5781,300.3906 L410.5781,298.9688 C410.5781,298.5313 410.5625,298.4063 410.4688,298.25 C410.3125,297.9844 410.0313,297.8438 409.7344,297.8438 C409.4375,297.8438 409.2344,297.9375 409.0156,298.25 L408.8438,298.1719 Z " fill="#000000"/><text fill="#000000" font-family="sans-serif" font-size="12" lengthAdjust="spacing" textLength="83" x="420.5" y="306.6543">TokenService</text><line style="stroke:#A80036;stroke-width:1.5;" x1="392.5" x2="505.5" y1="318.5" y2="318.5"/><line style="stroke:#A80036;stroke-width:1.5;" x1="392.5" x2="505.5" y1="326.5" y2="326.5"/><text fill="#000000" font-family="sans-serif" font-size="11" lengthAdjust="spacing" textLength="75" x="397.5" y="340.7104">-BuildToken()</text><!--MD5=[f9eb12be9a4c6578c6c59b6b87282445]
class UtilizadoresController--><rect codeLine="23" fill="#FEFECE" filter="url(#f1khmpjj39lysh)" height="99.2188" id="UtilizadoresController" style="stroke:#A80036;stroke-width:1.5;" width="180" x="1505" y="54"/><ellipse cx="1527.65" cy="70" fill="#ADD1B2" rx="11" ry="11" style="stroke:#A80036;stroke-width:1.0;"/><path d="M1529.9938,65.6719 C1529.0563,65.2344 1528.4625,65.0938 1527.5875,65.0938 C1524.9625,65.0938 1522.9625,67.1719 1522.9625,69.8906 L1522.9625,71.0156 C1522.9625,73.5938 1525.0719,75.4844 1527.9625,75.4844 C1529.1813,75.4844 1530.3375,75.1875 1531.0875,74.6406 C1531.6656,74.2344 1531.9938,73.7813 1531.9938,73.3906 C1531.9938,72.9375 1531.6031,72.5469 1531.1344,72.5469 C1530.9156,72.5469 1530.7125,72.625 1530.525,72.8125 C1530.0719,73.2969 1530.0719,73.2969 1529.8844,73.3906 C1529.4625,73.6563 1528.775,73.7813 1528.0094,73.7813 C1525.9625,73.7813 1524.6656,72.6875 1524.6656,70.9844 L1524.6656,69.8906 C1524.6656,68.1094 1525.9156,66.7969 1527.65,66.7969 C1528.2281,66.7969 1528.8375,66.9531 1529.3063,67.2031 C1529.7906,67.4844 1529.9625,67.7031 1530.0563,68.1094 C1530.1188,68.5156 1530.15,68.6406 1530.2906,68.7656 C1530.4313,68.9063 1530.6656,69.0156 1530.8844,69.0156 C1531.15,69.0156 1531.4156,68.875 1531.5875,68.6563 C1531.6969,68.5 1531.7281,68.3125 1531.7281,67.8906 L1531.7281,66.4688 C1531.7281,66.0313 1531.7125,65.9063 1531.6188,65.75 C1531.4625,65.4844 1531.1813,65.3438 1530.8844,65.3438 C1530.5875,65.3438 1530.3844,65.4375 1530.1656,65.75 L1529.9938,65.6719 Z " fill="#000000"/><text fill="#000000" font-family="sans-serif" font-size="12" lengthAdjust="spacing" textLength="131" x="1543.35" y="74.1543">UtilizadoresController</text><line style="stroke:#A80036;stroke-width:1.5;" x1="1506" x2="1684" y1="86" y2="86"/><line style="stroke:#A80036;stroke-width:1.5;" x1="1506" x2="1684" y1="94" y2="94"/><text fill="#000000" font-family="sans-serif" font-size="11" lengthAdjust="spacing" textLength="116" x="1511" y="108.2104">+Get GetUtilizador()</text><text fill="#000000" font-family="sans-serif" font-size="11" lengthAdjust="spacing" textLength="143" x="1511" y="121.0151">+Post RegistarUtilizador()</text><text fill="#000000" font-family="sans-serif" font-size="11" lengthAdjust="spacing" textLength="74" x="1511" y="133.8198">+Post Login()</text><text fill="#000000" font-family="sans-serif" font-size="11" lengthAdjust="spacing" textLength="168" x="1511" y="146.6245">+Delete DeleteUtilizador(nif)</text><!--MD5=[884d341d7584b75b159fb4abcbb8e424]
class ReservasController--><rect codeLine="30" fill="#FEFECE" filter="url(#f1khmpjj39lysh)" height="112.0234" id="ReservasController" style="stroke:#A80036;stroke-width:1.5;" width="220" x="1051" y="47.5"/><ellipse cx="1099.25" cy="63.5" fill="#ADD1B2" rx="11" ry="11" style="stroke:#A80036;stroke-width:1.0;"/><path d="M1101.5938,59.1719 C1100.6563,58.7344 1100.0625,58.5938 1099.1875,58.5938 C1096.5625,58.5938 1094.5625,60.6719 1094.5625,63.3906 L1094.5625,64.5156 C1094.5625,67.0938 1096.6719,68.9844 1099.5625,68.9844 C1100.7813,68.9844 1101.9375,68.6875 1102.6875,68.1406 C1103.2656,67.7344 1103.5938,67.2813 1103.5938,66.8906 C1103.5938,66.4375 1103.2031,66.0469 1102.7344,66.0469 C1102.5156,66.0469 1102.3125,66.125 1102.125,66.3125 C1101.6719,66.7969 1101.6719,66.7969 1101.4844,66.8906 C1101.0625,67.1563 1100.375,67.2813 1099.6094,67.2813 C1097.5625,67.2813 1096.2656,66.1875 1096.2656,64.4844 L1096.2656,63.3906 C1096.2656,61.6094 1097.5156,60.2969 1099.25,60.2969 C1099.8281,60.2969 1100.4375,60.4531 1100.9063,60.7031 C1101.3906,60.9844 1101.5625,61.2031 1101.6563,61.6094 C1101.7188,62.0156 1101.75,62.1406 1101.8906,62.2656 C1102.0313,62.4063 1102.2656,62.5156 1102.4844,62.5156 C1102.75,62.5156 1103.0156,62.375 1103.1875,62.1563 C1103.2969,62 1103.3281,61.8125 1103.3281,61.3906 L1103.3281,59.9688 C1103.3281,59.5313 1103.3125,59.4063 1103.2188,59.25 C1103.0625,58.9844 1102.7813,58.8438 1102.4844,58.8438 C1102.1875,58.8438 1101.9844,58.9375 1101.7656,59.25 L1101.5938,59.1719 Z " fill="#000000"/><text fill="#000000" font-family="sans-serif" font-size="12" lengthAdjust="spacing" textLength="115" x="1119.75" y="67.6543">ReservasController</text><line style="stroke:#A80036;stroke-width:1.5;" x1="1052" x2="1270" y1="79.5" y2="79.5"/><line style="stroke:#A80036;stroke-width:1.5;" x1="1052" x2="1270" y1="87.5" y2="87.5"/><text fill="#000000" font-family="sans-serif" font-size="11" lengthAdjust="spacing" textLength="110" x="1057" y="101.7104">+Get GetReserva()</text><text fill="#000000" font-family="sans-serif" font-size="11" lengthAdjust="spacing" textLength="145" x="1057" y="114.5151">+Get GetReservaById(id)</text><text fill="#000000" font-family="sans-serif" font-size="11" lengthAdjust="spacing" textLength="114" x="1057" y="127.3198">+Post PostReserva()</text><text fill="#000000" font-family="sans-serif" font-size="11" lengthAdjust="spacing" textLength="158" x="1057" y="140.1245">+Delete DeleteReserva(id)</text><text fill="#000000" font-family="sans-serif" font-size="11" lengthAdjust="spacing" textLength="208" x="1057" y="152.9292">+FindAvailable(freguesia, inicio, fim)</text><!--MD5=[5497ff8c96f50abd293e35e15183e187]
class TransacoesController--><rect codeLine="38" fill="#FEFECE" filter="url(#f1khmpjj39lysh)" height="86.4141" id="TransacoesController" style="stroke:#A80036;stroke-width:1.5;" width="168" x="1720" y="60.5"/><ellipse cx="1738.15" cy="76.5" fill="#ADD1B2" rx="11" ry="11" style="stroke:#A80036;stroke-width:1.0;"/><path d="M1740.4938,72.1719 C1739.5563,71.7344 1738.9625,71.5938 1738.0875,71.5938 C1735.4625,71.5938 1733.4625,73.6719 1733.4625,76.3906 L1733.4625,77.5156 C1733.4625,80.0938 1735.5719,81.9844 1738.4625,81.9844 C1739.6813,81.9844 1740.8375,81.6875 1741.5875,81.1406 C1742.1656,80.7344 1742.4938,80.2813 1742.4938,79.8906 C1742.4938,79.4375 1742.1031,79.0469 1741.6344,79.0469 C1741.4156,79.0469 1741.2125,79.125 1741.025,79.3125 C1740.5719,79.7969 1740.5719,79.7969 1740.3844,79.8906 C1739.9625,80.1563 1739.275,80.2813 1738.5094,80.2813 C1736.4625,80.2813 1735.1656,79.1875 1735.1656,77.4844 L1735.1656,76.3906 C1735.1656,74.6094 1736.4156,73.2969 1738.15,73.2969 C1738.7281,73.2969 1739.3375,73.4531 1739.8063,73.7031 C1740.2906,73.9844 1740.4625,74.2031 1740.5563,74.6094 C1740.6188,75.0156 1740.65,75.1406 1740.7906,75.2656 C1740.9313,75.4063 1741.1656,75.5156 1741.3844,75.5156 C1741.65,75.5156 1741.9156,75.375 1742.0875,75.1563 C1742.1969,75 1742.2281,74.8125 1742.2281,74.3906 L1742.2281,72.9688 C1742.2281,72.5313 1742.2125,72.4063 1742.1188,72.25 C1741.9625,71.9844 1741.6813,71.8438 1741.3844,71.8438 C1741.0875,71.8438 1740.8844,71.9375 1740.6656,72.25 L1740.4938,72.1719 Z " fill="#000000"/><text fill="#000000" font-family="sans-serif" font-size="12" lengthAdjust="spacing" textLength="129" x="1752.85" y="80.6543">TransacoesController</text><line style="stroke:#A80036;stroke-width:1.5;" x1="1721" x2="1887" y1="92.5" y2="92.5"/><line style="stroke:#A80036;stroke-width:1.5;" x1="1721" x2="1887" y1="100.5" y2="100.5"/><text fill="#000000" font-family="sans-serif" font-size="11" lengthAdjust="spacing" textLength="121" x="1726" y="114.7104">+Get GetTransacao()</text><text fill="#000000" font-family="sans-serif" font-size="11" lengthAdjust="spacing" textLength="156" x="1726" y="127.5151">+Get GetTransacaoById(id)</text><text fill="#000000" font-family="sans-serif" font-size="11" lengthAdjust="spacing" textLength="125" x="1726" y="140.3198">+Post PostTransacao()</text><!--MD5=[0eebc07912bfe174f9973dd50f89fb9e]
class ParquesController--><rect codeLine="44" fill="#FEFECE" filter="url(#f1khmpjj39lysh)" height="112.0234" id="ParquesController" style="stroke:#A80036;stroke-width:1.5;" width="163" x="1306.5" y="47.5"/><ellipse cx="1332.3" cy="63.5" fill="#ADD1B2" rx="11" ry="11" style="stroke:#A80036;stroke-width:1.0;"/><path d="M1334.6438,59.1719 C1333.7063,58.7344 1333.1125,58.5938 1332.2375,58.5938 C1329.6125,58.5938 1327.6125,60.6719 1327.6125,63.3906 L1327.6125,64.5156 C1327.6125,67.0938 1329.7219,68.9844 1332.6125,68.9844 C1333.8313,68.9844 1334.9875,68.6875 1335.7375,68.1406 C1336.3156,67.7344 1336.6438,67.2813 1336.6438,66.8906 C1336.6438,66.4375 1336.2531,66.0469 1335.7844,66.0469 C1335.5656,66.0469 1335.3625,66.125 1335.175,66.3125 C1334.7219,66.7969 1334.7219,66.7969 1334.5344,66.8906 C1334.1125,67.1563 1333.425,67.2813 1332.6594,67.2813 C1330.6125,67.2813 1329.3156,66.1875 1329.3156,64.4844 L1329.3156,63.3906 C1329.3156,61.6094 1330.5656,60.2969 1332.3,60.2969 C1332.8781,60.2969 1333.4875,60.4531 1333.9563,60.7031 C1334.4406,60.9844 1334.6125,61.2031 1334.7063,61.6094 C1334.7688,62.0156 1334.8,62.1406 1334.9406,62.2656 C1335.0813,62.4063 1335.3156,62.5156 1335.5344,62.5156 C1335.8,62.5156 1336.0656,62.375 1336.2375,62.1563 C1336.3469,62 1336.3781,61.8125 1336.3781,61.3906 L1336.3781,59.9688 C1336.3781,59.5313 1336.3625,59.4063 1336.2688,59.25 C1336.1125,58.9844 1335.8313,58.8438 1335.5344,58.8438 C1335.2375,58.8438 1335.0344,58.9375 1334.8156,59.25 L1334.6438,59.1719 Z " fill="#000000"/><text fill="#000000" font-family="sans-serif" font-size="12" lengthAdjust="spacing" textLength="107" x="1348.7" y="67.6543">ParquesController</text><line style="stroke:#A80036;stroke-width:1.5;" x1="1307.5" x2="1468.5" y1="79.5" y2="79.5"/><line style="stroke:#A80036;stroke-width:1.5;" x1="1307.5" x2="1468.5" y1="87.5" y2="87.5"/><text fill="#000000" font-family="sans-serif" font-size="11" lengthAdjust="spacing" textLength="102" x="1312.5" y="101.7104">+Get GetParque()</text><text fill="#000000" font-family="sans-serif" font-size="11" lengthAdjust="spacing" textLength="137" x="1312.5" y="114.5151">+Get GetParqueById(id)</text><text fill="#000000" font-family="sans-serif" font-size="11" lengthAdjust="spacing" textLength="106" x="1312.5" y="127.3198">+Post PostParque()</text><text fill="#000000" font-family="sans-serif" font-size="11" lengthAdjust="spacing" textLength="151" x="1312.5" y="140.1245">+Put PutParque(id, parque)</text><text fill="#000000" font-family="sans-serif" font-size="11" lengthAdjust="spacing" textLength="150" x="1312.5" y="152.9292">+Delete DeleteParque(id)</text><!--MD5=[8aae60f72113f84792ccdc4d65a5d4de]
class MetodoPagamentosController--><rect codeLine="52" fill="#FEFECE" filter="url(#f1khmpjj39lysh)" height="112.0234" id="MetodoPagamentosController" style="stroke:#A80036;stroke-width:1.5;" width="298" x="1923" y="47.5"/><ellipse cx="1978.75" cy="63.5" fill="#ADD1B2" rx="11" ry="11" style="stroke:#A80036;stroke-width:1.0;"/><path d="M1981.0938,59.1719 C1980.1563,58.7344 1979.5625,58.5938 1978.6875,58.5938 C1976.0625,58.5938 1974.0625,60.6719 1974.0625,63.3906 L1974.0625,64.5156 C1974.0625,67.0938 1976.1719,68.9844 1979.0625,68.9844 C1980.2813,68.9844 1981.4375,68.6875 1982.1875,68.1406 C1982.7656,67.7344 1983.0938,67.2813 1983.0938,66.8906 C1983.0938,66.4375 1982.7031,66.0469 1982.2344,66.0469 C1982.0156,66.0469 1981.8125,66.125 1981.625,66.3125 C1981.1719,66.7969 1981.1719,66.7969 1980.9844,66.8906 C1980.5625,67.1563 1979.875,67.2813 1979.1094,67.2813 C1977.0625,67.2813 1975.7656,66.1875 1975.7656,64.4844 L1975.7656,63.3906 C1975.7656,61.6094 1977.0156,60.2969 1978.75,60.2969 C1979.3281,60.2969 1979.9375,60.4531 1980.4063,60.7031 C1980.8906,60.9844 1981.0625,61.2031 1981.1563,61.6094 C1981.2188,62.0156 1981.25,62.1406 1981.3906,62.2656 C1981.5313,62.4063 1981.7656,62.5156 1981.9844,62.5156 C1982.25,62.5156 1982.5156,62.375 1982.6875,62.1563 C1982.7969,62 1982.8281,61.8125 1982.8281,61.3906 L1982.8281,59.9688 C1982.8281,59.5313 1982.8125,59.4063 1982.7188,59.25 C1982.5625,58.9844 1982.2813,58.8438 1981.9844,58.8438 C1981.6875,58.8438 1981.4844,58.9375 1981.2656,59.25 L1981.0938,59.1719 Z " fill="#000000"/><text fill="#000000" font-family="sans-serif" font-size="12" lengthAdjust="spacing" textLength="178" x="1999.25" y="67.6543">MetodoPagamentosController</text><line style="stroke:#A80036;stroke-width:1.5;" x1="1924" x2="2220" y1="79.5" y2="79.5"/><line style="stroke:#A80036;stroke-width:1.5;" x1="1924" x2="2220" y1="87.5" y2="87.5"/><text fill="#000000" font-family="sans-serif" font-size="11" lengthAdjust="spacing" textLength="169" x="1929" y="101.7104">+Get GetMetodoPagamento()</text><text fill="#000000" font-family="sans-serif" font-size="11" lengthAdjust="spacing" textLength="204" x="1929" y="114.5151">+Get GetMetodoPagamentoById(id)</text><text fill="#000000" font-family="sans-serif" font-size="11" lengthAdjust="spacing" textLength="173" x="1929" y="127.3198">+Post PostMetodoPagamento()</text><text fill="#000000" font-family="sans-serif" font-size="11" lengthAdjust="spacing" textLength="286" x="1929" y="140.1245">+Put PutMetodoPagamento(id, metodoPagamento)</text><text fill="#000000" font-family="sans-serif" font-size="11" lengthAdjust="spacing" textLength="217" x="1929" y="152.9292">+Delete DeleteMetodoPagamento(id)</text><!--MD5=[6ba8f7c8b21b231e36ca04649652f184]
class Utilizador:IdentityUser--><rect codeLine="64" fill="#FEFECE" filter="url(#f1khmpjj39lysh)" height="99.2188" id="Utilizador:IdentityUser" style="stroke:#A80036;stroke-width:1.5;" width="166" x="1312" y="673"/><ellipse cx="1327" cy="689" fill="#ADD1B2" rx="11" ry="11" style="stroke:#A80036;stroke-width:1.0;"/><path d="M1329.3438,684.6719 C1328.4063,684.2344 1327.8125,684.0938 1326.9375,684.0938 C1324.3125,684.0938 1322.3125,686.1719 1322.3125,688.8906 L1322.3125,690.0156 C1322.3125,692.5938 1324.4219,694.4844 1327.3125,694.4844 C1328.5313,694.4844 1329.6875,694.1875 1330.4375,693.6406 C1331.0156,693.2344 1331.3438,692.7813 1331.3438,692.3906 C1331.3438,691.9375 1330.9531,691.5469 1330.4844,691.5469 C1330.2656,691.5469 1330.0625,691.625 1329.875,691.8125 C1329.4219,692.2969 1329.4219,692.2969 1329.2344,692.3906 C1328.8125,692.6563 1328.125,692.7813 1327.3594,692.7813 C1325.3125,692.7813 1324.0156,691.6875 1324.0156,689.9844 L1324.0156,688.8906 C1324.0156,687.1094 1325.2656,685.7969 1327,685.7969 C1327.5781,685.7969 1328.1875,685.9531 1328.6563,686.2031 C1329.1406,686.4844 1329.3125,686.7031 1329.4063,687.1094 C1329.4688,687.5156 1329.5,687.6406 1329.6406,687.7656 C1329.7813,687.9063 1330.0156,688.0156 1330.2344,688.0156 C1330.5,688.0156 1330.7656,687.875 1330.9375,687.6563 C1331.0469,687.5 1331.0781,687.3125 1331.0781,686.8906 L1331.0781,685.4688 C1331.0781,685.0313 1331.0625,684.9063 1330.9688,684.75 C1330.8125,684.4844 1330.5313,684.3438 1330.2344,684.3438 C1329.9375,684.3438 1329.7344,684.4375 1329.5156,684.75 L1329.3438,684.6719 Z " fill="#000000"/><text fill="#000000" font-family="sans-serif" font-size="12" lengthAdjust="spacing" textLength="134" x="1341" y="693.1543">Utilizador:IdentityUser</text><line style="stroke:#A80036;stroke-width:1.5;" x1="1313" x2="1477" y1="705" y2="705"/><text fill="#000000" font-family="sans-serif" font-size="11" lengthAdjust="spacing" textLength="53" x="1318" y="719.2104">-Int nif PK</text><text fill="#000000" font-family="sans-serif" font-size="11" lengthAdjust="spacing" textLength="74" x="1318" y="732.0151">-String nome</text><text fill="#000000" font-family="sans-serif" font-size="11" lengthAdjust="spacing" textLength="92" x="1318" y="744.8198">-Double carteira</text><text fill="#000000" font-family="sans-serif" font-size="11" lengthAdjust="spacing" textLength="108" x="1318" y="757.6245">-Int credencialId FK</text><line style="stroke:#A80036;stroke-width:1.5;" x1="1313" x2="1477" y1="764.2188" y2="764.2188"/><!--MD5=[6ea9d6598d9760662639554c9857ab6b]
class Reserva--><rect codeLine="71" fill="#FEFECE" filter="url(#f1khmpjj39lysh)" height="124.8281" id="Reserva" style="stroke:#A80036;stroke-width:1.5;" width="127" x="1213.5" y="471"/><ellipse cx="1249.2" cy="487" fill="#ADD1B2" rx="11" ry="11" style="stroke:#A80036;stroke-width:1.0;"/><path d="M1251.5438,482.6719 C1250.6063,482.2344 1250.0125,482.0938 1249.1375,482.0938 C1246.5125,482.0938 1244.5125,484.1719 1244.5125,486.8906 L1244.5125,488.0156 C1244.5125,490.5938 1246.6219,492.4844 1249.5125,492.4844 C1250.7313,492.4844 1251.8875,492.1875 1252.6375,491.6406 C1253.2156,491.2344 1253.5438,490.7813 1253.5438,490.3906 C1253.5438,489.9375 1253.1531,489.5469 1252.6844,489.5469 C1252.4656,489.5469 1252.2625,489.625 1252.075,489.8125 C1251.6219,490.2969 1251.6219,490.2969 1251.4344,490.3906 C1251.0125,490.6563 1250.325,490.7813 1249.5594,490.7813 C1247.5125,490.7813 1246.2156,489.6875 1246.2156,487.9844 L1246.2156,486.8906 C1246.2156,485.1094 1247.4656,483.7969 1249.2,483.7969 C1249.7781,483.7969 1250.3875,483.9531 1250.8563,484.2031 C1251.3406,484.4844 1251.5125,484.7031 1251.6063,485.1094 C1251.6688,485.5156 1251.7,485.6406 1251.8406,485.7656 C1251.9813,485.9063 1252.2156,486.0156 1252.4344,486.0156 C1252.7,486.0156 1252.9656,485.875 1253.1375,485.6563 C1253.2469,485.5 1253.2781,485.3125 1253.2781,484.8906 L1253.2781,483.4688 C1253.2781,483.0313 1253.2625,482.9063 1253.1688,482.75 C1253.0125,482.4844 1252.7313,482.3438 1252.4344,482.3438 C1252.1375,482.3438 1251.9344,482.4375 1251.7156,482.75 L1251.5438,482.6719 Z " fill="#000000"/><text fill="#000000" font-family="sans-serif" font-size="12" lengthAdjust="spacing" textLength="49" x="1267.8" y="491.1543">Reserva</text><line style="stroke:#A80036;stroke-width:1.5;" x1="1214.5" x2="1339.5" y1="503" y2="503"/><text fill="#000000" font-family="sans-serif" font-size="11" lengthAdjust="spacing" textLength="49" x="1219.5" y="517.2104">-Int id PK</text><text fill="#000000" font-family="sans-serif" font-size="11" lengthAdjust="spacing" textLength="106" x="1219.5" y="530.0151">-Int nifUtilizador FK</text><text fill="#000000" font-family="sans-serif" font-size="11" lengthAdjust="spacing" textLength="89" x="1219.5" y="542.8198">-Int parqueId FK</text><text fill="#000000" font-family="sans-serif" font-size="11" lengthAdjust="spacing" textLength="106" x="1219.5" y="555.6245">-Int transacaoID FK</text><text fill="#000000" font-family="sans-serif" font-size="11" lengthAdjust="spacing" textLength="79" x="1219.5" y="568.4292">-Double custo</text><text fill="#000000" font-family="sans-serif" font-size="11" lengthAdjust="spacing" textLength="115" x="1219.5" y="581.2339">-Int reservaParqueId</text><line style="stroke:#A80036;stroke-width:1.5;" x1="1214.5" x2="1339.5" y1="587.8281" y2="587.8281"/><!--MD5=[2de463454f7588e20c9a29e8d111f9cc]
class Transacao--><rect codeLine="80" fill="#FEFECE" filter="url(#f1khmpjj39lysh)" height="124.8281" id="Transacao" style="stroke:#A80036;stroke-width:1.5;" width="128" x="1465" y="1007.5"/><ellipse cx="1495.3" cy="1023.5" fill="#ADD1B2" rx="11" ry="11" style="stroke:#A80036;stroke-width:1.0;"/><path d="M1497.6438,1019.1719 C1496.7063,1018.7344 1496.1125,1018.5938 1495.2375,1018.5938 C1492.6125,1018.5938 1490.6125,1020.6719 1490.6125,1023.3906 L1490.6125,1024.5156 C1490.6125,1027.0938 1492.7219,1028.9844 1495.6125,1028.9844 C1496.8313,1028.9844 1497.9875,1028.6875 1498.7375,1028.1406 C1499.3156,1027.7344 1499.6438,1027.2813 1499.6438,1026.8906 C1499.6438,1026.4375 1499.2531,1026.0469 1498.7844,1026.0469 C1498.5656,1026.0469 1498.3625,1026.125 1498.175,1026.3125 C1497.7219,1026.7969 1497.7219,1026.7969 1497.5344,1026.8906 C1497.1125,1027.1563 1496.425,1027.2813 1495.6594,1027.2813 C1493.6125,1027.2813 1492.3156,1026.1875 1492.3156,1024.4844 L1492.3156,1023.3906 C1492.3156,1021.6094 1493.5656,1020.2969 1495.3,1020.2969 C1495.8781,1020.2969 1496.4875,1020.4531 1496.9563,1020.7031 C1497.4406,1020.9844 1497.6125,1021.2031 1497.7063,1021.6094 C1497.7688,1022.0156 1497.8,1022.1406 1497.9406,1022.2656 C1498.0813,1022.4063 1498.3156,1022.5156 1498.5344,1022.5156 C1498.8,1022.5156 1499.0656,1022.375 1499.2375,1022.1563 C1499.3469,1022 1499.3781,1021.8125 1499.3781,1021.3906 L1499.3781,1019.9688 C1499.3781,1019.5313 1499.3625,1019.4063 1499.2688,1019.25 C1499.1125,1018.9844 1498.8313,1018.8438 1498.5344,1018.8438 C1498.2375,1018.8438 1498.0344,1018.9375 1497.8156,1019.25 L1497.6438,1019.1719 Z " fill="#000000"/><text fill="#000000" font-family="sans-serif" font-size="12" lengthAdjust="spacing" textLength="62" x="1512.7" y="1027.6543">Transacao</text><line style="stroke:#A80036;stroke-width:1.5;" x1="1466" x2="1592" y1="1039.5" y2="1039.5"/><text fill="#000000" font-family="sans-serif" font-size="11" lengthAdjust="spacing" textLength="49" x="1471" y="1053.7104">-Int Id PK</text><text fill="#000000" font-family="sans-serif" font-size="11" lengthAdjust="spacing" textLength="98" x="1471" y="1066.5151">-Int nifPagador FK</text><text fill="#000000" font-family="sans-serif" font-size="11" lengthAdjust="spacing" textLength="114" x="1471" y="1079.3198">-Int nifRecipiente FK</text><text fill="#000000" font-family="sans-serif" font-size="11" lengthAdjust="spacing" textLength="93" x="1471" y="1092.1245">-Int metodoId FK</text><text fill="#000000" font-family="sans-serif" font-size="11" lengthAdjust="spacing" textLength="77" x="1471" y="1104.9292">-Double valor</text><text fill="#000000" font-family="sans-serif" font-size="11" lengthAdjust="spacing" textLength="116" x="1471" y="1117.7339">-DateTime dataHora</text><line style="stroke:#A80036;stroke-width:1.5;" x1="1466" x2="1592" y1="1124.3281" y2="1124.3281"/><!--MD5=[1a083dbe42a284ae0ea7f6f701783206]
class Parque--><rect codeLine="89" fill="#FEFECE" filter="url(#f1khmpjj39lysh)" height="73.6094" id="Parque" style="stroke:#A80036;stroke-width:1.5;" width="85" x="1161.5" y="280"/><ellipse cx="1181.9" cy="296" fill="#ADD1B2" rx="11" ry="11" style="stroke:#A80036;stroke-width:1.0;"/><path d="M1184.2438,291.6719 C1183.3063,291.2344 1182.7125,291.0938 1181.8375,291.0938 C1179.2125,291.0938 1177.2125,293.1719 1177.2125,295.8906 L1177.2125,297.0156 C1177.2125,299.5938 1179.3219,301.4844 1182.2125,301.4844 C1183.4313,301.4844 1184.5875,301.1875 1185.3375,300.6406 C1185.9156,300.2344 1186.2438,299.7813 1186.2438,299.3906 C1186.2438,298.9375 1185.8531,298.5469 1185.3844,298.5469 C1185.1656,298.5469 1184.9625,298.625 1184.775,298.8125 C1184.3219,299.2969 1184.3219,299.2969 1184.1344,299.3906 C1183.7125,299.6563 1183.025,299.7813 1182.2594,299.7813 C1180.2125,299.7813 1178.9156,298.6875 1178.9156,296.9844 L1178.9156,295.8906 C1178.9156,294.1094 1180.1656,292.7969 1181.9,292.7969 C1182.4781,292.7969 1183.0875,292.9531 1183.5563,293.2031 C1184.0406,293.4844 1184.2125,293.7031 1184.3063,294.1094 C1184.3688,294.5156 1184.4,294.6406 1184.5406,294.7656 C1184.6813,294.9063 1184.9156,295.0156 1185.1344,295.0156 C1185.4,295.0156 1185.6656,294.875 1185.8375,294.6563 C1185.9469,294.5 1185.9781,294.3125 1185.9781,293.8906 L1185.9781,292.4688 C1185.9781,292.0313 1185.9625,291.9063 1185.8688,291.75 C1185.7125,291.4844 1185.4313,291.3438 1185.1344,291.3438 C1184.8375,291.3438 1184.6344,291.4375 1184.4156,291.75 L1184.2438,291.6719 Z " fill="#000000"/><text fill="#000000" font-family="sans-serif" font-size="12" lengthAdjust="spacing" textLength="41" x="1197.1" y="300.1543">Parque</text><line style="stroke:#A80036;stroke-width:1.5;" x1="1162.5" x2="1245.5" y1="312" y2="312"/><text fill="#000000" font-family="sans-serif" font-size="11" lengthAdjust="spacing" textLength="49" x="1167.5" y="326.2104">-Int Id PK</text><text fill="#000000" font-family="sans-serif" font-size="11" lengthAdjust="spacing" textLength="73" x="1167.5" y="339.0151">-String apiUrl</text><line style="stroke:#A80036;stroke-width:1.5;" x1="1162.5" x2="1245.5" y1="345.6094" y2="345.6094"/><!--MD5=[dd719319fb662e6a1a7d2797ca995003]
class MetodoPagamento--><rect codeLine="94" fill="#FEFECE" filter="url(#f1khmpjj39lysh)" height="86.4141" id="MetodoPagamento" style="stroke:#A80036;stroke-width:1.5;" width="144" x="1360" y="1224"/><ellipse cx="1375" cy="1240" fill="#ADD1B2" rx="11" ry="11" style="stroke:#A80036;stroke-width:1.0;"/><path d="M1377.3438,1235.6719 C1376.4063,1235.2344 1375.8125,1235.0938 1374.9375,1235.0938 C1372.3125,1235.0938 1370.3125,1237.1719 1370.3125,1239.8906 L1370.3125,1241.0156 C1370.3125,1243.5938 1372.4219,1245.4844 1375.3125,1245.4844 C1376.5313,1245.4844 1377.6875,1245.1875 1378.4375,1244.6406 C1379.0156,1244.2344 1379.3438,1243.7813 1379.3438,1243.3906 C1379.3438,1242.9375 1378.9531,1242.5469 1378.4844,1242.5469 C1378.2656,1242.5469 1378.0625,1242.625 1377.875,1242.8125 C1377.4219,1243.2969 1377.4219,1243.2969 1377.2344,1243.3906 C1376.8125,1243.6563 1376.125,1243.7813 1375.3594,1243.7813 C1373.3125,1243.7813 1372.0156,1242.6875 1372.0156,1240.9844 L1372.0156,1239.8906 C1372.0156,1238.1094 1373.2656,1236.7969 1375,1236.7969 C1375.5781,1236.7969 1376.1875,1236.9531 1376.6563,1237.2031 C1377.1406,1237.4844 1377.3125,1237.7031 1377.4063,1238.1094 C1377.4688,1238.5156 1377.5,1238.6406 1377.6406,1238.7656 C1377.7813,1238.9063 1378.0156,1239.0156 1378.2344,1239.0156 C1378.5,1239.0156 1378.7656,1238.875 1378.9375,1238.6563 C1379.0469,1238.5 1379.0781,1238.3125 1379.0781,1237.8906 L1379.0781,1236.4688 C1379.0781,1236.0313 1379.0625,1235.9063 1378.9688,1235.75 C1378.8125,1235.4844 1378.5313,1235.3438 1378.2344,1235.3438 C1377.9375,1235.3438 1377.7344,1235.4375 1377.5156,1235.75 L1377.3438,1235.6719 Z " fill="#000000"/><text fill="#000000" font-family="sans-serif" font-size="12" lengthAdjust="spacing" textLength="112" x="1389" y="1244.1543">MetodoPagamento</text><line style="stroke:#A80036;stroke-width:1.5;" x1="1361" x2="1503" y1="1256" y2="1256"/><text fill="#000000" font-family="sans-serif" font-size="11" lengthAdjust="spacing" textLength="49" x="1366" y="1270.2104">-Int Id PK</text><text fill="#000000" font-family="sans-serif" font-size="11" lengthAdjust="spacing" textLength="74" x="1366" y="1283.0151">-String nome</text><text fill="#000000" font-family="sans-serif" font-size="11" lengthAdjust="spacing" textLength="73" x="1366" y="1295.8198">-String apiUrl</text><line style="stroke:#A80036;stroke-width:1.5;" x1="1361" x2="1503" y1="1302.4141" y2="1302.4141"/><!--MD5=[bfdc1b8eaefc8c778d1b4f72f951119e]
class Credencial--><rect codeLine="102" fill="#FEFECE" filter="url(#f1khmpjj39lysh)" height="48" id="Credencial" style="stroke:#A80036;stroke-width:1.5;" width="95" x="1208.5" y="870"/><ellipse cx="1223.5" cy="886" fill="#A9DCDF" rx="11" ry="11" style="stroke:#A80036;stroke-width:1.0;"/><path d="M1225.5781,887.8125 L1225.9688,888.7969 L1225.5781,888.7969 C1225.125,888.7969 1225.0156,888.8125 1224.8594,888.9219 C1224.6094,889.0781 1224.4531,889.3594 1224.4531,889.6563 C1224.4531,889.9219 1224.5938,890.1719 1224.8125,890.3281 C1224.9531,890.4531 1225.1563,890.5 1225.5781,890.5 L1227.9375,890.5 C1228.2969,890.5 1228.5156,890.4688 1228.6563,890.375 C1228.9063,890.2344 1229.0625,889.9375 1229.0625,889.6563 C1229.0625,889.375 1228.9219,889.125 1228.7031,888.9688 C1228.5313,888.8281 1228.375,888.7969 1227.9063,888.7969 L1224.5156,880.5938 L1220.8438,880.5938 C1220.3906,880.5938 1220.2656,880.6094 1220.1094,880.7031 C1219.8594,880.875 1219.7031,881.1563 1219.7031,881.4375 C1219.7031,881.7188 1219.8438,881.9688 1220.0625,882.1406 C1220.2344,882.25 1220.4063,882.2813 1220.8438,882.2813 L1221.9219,882.2813 L1219.2813,888.7969 C1218.8594,888.7969 1218.7031,888.8125 1218.5469,888.9219 C1218.2969,889.0781 1218.1406,889.3594 1218.1406,889.6563 C1218.1406,890.2188 1218.5156,890.5 1219.2656,890.5 L1221.5313,890.5 C1221.8906,890.5 1222.1094,890.4688 1222.2344,890.375 C1222.5,890.2344 1222.6406,889.9375 1222.6406,889.6563 C1222.6406,889.375 1222.5156,889.125 1222.2969,888.9531 C1222.125,888.8281 1221.9844,888.7969 1221.5313,888.7969 L1221.1406,888.7969 L1221.5313,887.8125 L1225.5781,887.8125 Z M1224.875,886.1094 L1222.2031,886.1094 L1223.5469,882.8438 L1224.875,886.1094 Z " fill="#000000"/><text fill="#000000" font-family="sans-serif" font-size="12" font-style="italic" lengthAdjust="spacing" textLength="63" x="1237.5" y="890.1543">Credencial</text><line style="stroke:#A80036;stroke-width:1.5;" x1="1209.5" x2="1302.5" y1="902" y2="902"/><line style="stroke:#A80036;stroke-width:1.5;" x1="1209.5" x2="1302.5" y1="910" y2="910"/><!--MD5=[7a55ef00a9e867fb2b33f16729653f53]
class PayPal:Credencial--><rect codeLine="105" fill="#FEFECE" filter="url(#f1khmpjj39lysh)" height="99.2188" id="PayPal:Credencial" style="stroke:#A80036;stroke-width:1.5;" width="137" x="1292.5" y="1020.5"/><ellipse cx="1307.5" cy="1036.5" fill="#A9DCDF" rx="11" ry="11" style="stroke:#A80036;stroke-width:1.0;"/><path d="M1309.5781,1038.3125 L1309.9688,1039.2969 L1309.5781,1039.2969 C1309.125,1039.2969 1309.0156,1039.3125 1308.8594,1039.4219 C1308.6094,1039.5781 1308.4531,1039.8594 1308.4531,1040.1563 C1308.4531,1040.4219 1308.5938,1040.6719 1308.8125,1040.8281 C1308.9531,1040.9531 1309.1563,1041 1309.5781,1041 L1311.9375,1041 C1312.2969,1041 1312.5156,1040.9688 1312.6563,1040.875 C1312.9063,1040.7344 1313.0625,1040.4375 1313.0625,1040.1563 C1313.0625,1039.875 1312.9219,1039.625 1312.7031,1039.4688 C1312.5313,1039.3281 1312.375,1039.2969 1311.9063,1039.2969 L1308.5156,1031.0938 L1304.8438,1031.0938 C1304.3906,1031.0938 1304.2656,1031.1094 1304.1094,1031.2031 C1303.8594,1031.375 1303.7031,1031.6563 1303.7031,1031.9375 C1303.7031,1032.2188 1303.8438,1032.4688 1304.0625,1032.6406 C1304.2344,1032.75 1304.4063,1032.7813 1304.8438,1032.7813 L1305.9219,1032.7813 L1303.2813,1039.2969 C1302.8594,1039.2969 1302.7031,1039.3125 1302.5469,1039.4219 C1302.2969,1039.5781 1302.1406,1039.8594 1302.1406,1040.1563 C1302.1406,1040.7188 1302.5156,1041 1303.2656,1041 L1305.5313,1041 C1305.8906,1041 1306.1094,1040.9688 1306.2344,1040.875 C1306.5,1040.7344 1306.6406,1040.4375 1306.6406,1040.1563 C1306.6406,1039.875 1306.5156,1039.625 1306.2969,1039.4531 C1306.125,1039.3281 1305.9844,1039.2969 1305.5313,1039.2969 L1305.1406,1039.2969 L1305.5313,1038.3125 L1309.5781,1038.3125 Z M1308.875,1036.6094 L1306.2031,1036.6094 L1307.5469,1033.3438 L1308.875,1036.6094 Z " fill="#000000"/><text fill="#000000" font-family="sans-serif" font-size="12" font-style="italic" lengthAdjust="spacing" textLength="105" x="1321.5" y="1040.6543">PayPal:Credencial</text><line style="stroke:#A80036;stroke-width:1.5;" x1="1293.5" x2="1428.5" y1="1052.5" y2="1052.5"/><text fill="#000000" font-family="sans-serif" font-size="11" lengthAdjust="spacing" textLength="49" x="1298.5" y="1066.7104">-Int Id PK</text><text fill="#000000" font-family="sans-serif" font-size="11" lengthAdjust="spacing" textLength="73" x="1298.5" y="1079.5151">-String email</text><text fill="#000000" font-family="sans-serif" font-size="11" lengthAdjust="spacing" textLength="94" x="1298.5" y="1092.3198">-String password</text><text fill="#000000" font-family="sans-serif" font-size="11" lengthAdjust="spacing" textLength="95" x="1298.5" y="1105.1245">-Int metodoID FK</text><line style="stroke:#A80036;stroke-width:1.5;" x1="1293.5" x2="1428.5" y1="1111.7188" y2="1111.7188"/><!--MD5=[6853fe09565b5868a29d90c932ff629a]
class Cartao:Credencial--><rect codeLine="112" fill="#FEFECE" filter="url(#f1khmpjj39lysh)" height="124.8281" id="Cartao:Credencial" style="stroke:#A80036;stroke-width:1.5;" width="138" x="1119" y="1007.5"/><ellipse cx="1134" cy="1023.5" fill="#A9DCDF" rx="11" ry="11" style="stroke:#A80036;stroke-width:1.0;"/><path d="M1136.0781,1025.3125 L1136.4688,1026.2969 L1136.0781,1026.2969 C1135.625,1026.2969 1135.5156,1026.3125 1135.3594,1026.4219 C1135.1094,1026.5781 1134.9531,1026.8594 1134.9531,1027.1563 C1134.9531,1027.4219 1135.0938,1027.6719 1135.3125,1027.8281 C1135.4531,1027.9531 1135.6563,1028 1136.0781,1028 L1138.4375,1028 C1138.7969,1028 1139.0156,1027.9688 1139.1563,1027.875 C1139.4063,1027.7344 1139.5625,1027.4375 1139.5625,1027.1563 C1139.5625,1026.875 1139.4219,1026.625 1139.2031,1026.4688 C1139.0313,1026.3281 1138.875,1026.2969 1138.4063,1026.2969 L1135.0156,1018.0938 L1131.3438,1018.0938 C1130.8906,1018.0938 1130.7656,1018.1094 1130.6094,1018.2031 C1130.3594,1018.375 1130.2031,1018.6563 1130.2031,1018.9375 C1130.2031,1019.2188 1130.3438,1019.4688 1130.5625,1019.6406 C1130.7344,1019.75 1130.9063,1019.7813 1131.3438,1019.7813 L1132.4219,1019.7813 L1129.7813,1026.2969 C1129.3594,1026.2969 1129.2031,1026.3125 1129.0469,1026.4219 C1128.7969,1026.5781 1128.6406,1026.8594 1128.6406,1027.1563 C1128.6406,1027.7188 1129.0156,1028 1129.7656,1028 L1132.0313,1028 C1132.3906,1028 1132.6094,1027.9688 1132.7344,1027.875 C1133,1027.7344 1133.1406,1027.4375 1133.1406,1027.1563 C1133.1406,1026.875 1133.0156,1026.625 1132.7969,1026.4531 C1132.625,1026.3281 1132.4844,1026.2969 1132.0313,1026.2969 L1131.6406,1026.2969 L1132.0313,1025.3125 L1136.0781,1025.3125 Z M1135.375,1023.6094 L1132.7031,1023.6094 L1134.0469,1020.3438 L1135.375,1023.6094 Z " fill="#000000"/><text fill="#000000" font-family="sans-serif" font-size="12" font-style="italic" lengthAdjust="spacing" textLength="106" x="1148" y="1027.6543">Cartao:Credencial</text><line style="stroke:#A80036;stroke-width:1.5;" x1="1120" x2="1256" y1="1039.5" y2="1039.5"/><text fill="#000000" font-family="sans-serif" font-size="11" lengthAdjust="spacing" textLength="49" x="1125" y="1053.7104">-Int Id PK</text><text fill="#000000" font-family="sans-serif" font-size="11" lengthAdjust="spacing" textLength="85" x="1125" y="1066.5151">-String numero</text><text fill="#000000" font-family="sans-serif" font-size="11" lengthAdjust="spacing" textLength="74" x="1125" y="1079.3198">-String nome</text><text fill="#000000" font-family="sans-serif" font-size="11" lengthAdjust="spacing" textLength="116" x="1125" y="1092.1245">-String dataValidade</text><text fill="#000000" font-family="sans-serif" font-size="11" lengthAdjust="spacing" textLength="61" x="1125" y="1104.9292">-String cvv</text><text fill="#000000" font-family="sans-serif" font-size="11" lengthAdjust="spacing" textLength="95" x="1125" y="1117.7339">-Int metodoID FK</text><line style="stroke:#A80036;stroke-width:1.5;" x1="1120" x2="1256" y1="1124.3281" y2="1124.3281"/><!--MD5=[35bbce630cba41d02ad46cb338a28110]
class DebitoDireto:Credencial--><rect codeLine="121" fill="#FEFECE" filter="url(#f1khmpjj39lysh)" height="150.4375" id="DebitoDireto:Credencial" style="stroke:#A80036;stroke-width:1.5;" width="174" x="910" y="995"/><ellipse cx="925" cy="1011" fill="#A9DCDF" rx="11" ry="11" style="stroke:#A80036;stroke-width:1.0;"/><path d="M927.0781,1012.8125 L927.4688,1013.7969 L927.0781,1013.7969 C926.625,1013.7969 926.5156,1013.8125 926.3594,1013.9219 C926.1094,1014.0781 925.9531,1014.3594 925.9531,1014.6563 C925.9531,1014.9219 926.0938,1015.1719 926.3125,1015.3281 C926.4531,1015.4531 926.6563,1015.5 927.0781,1015.5 L929.4375,1015.5 C929.7969,1015.5 930.0156,1015.4688 930.1563,1015.375 C930.4063,1015.2344 930.5625,1014.9375 930.5625,1014.6563 C930.5625,1014.375 930.4219,1014.125 930.2031,1013.9688 C930.0313,1013.8281 929.875,1013.7969 929.4063,1013.7969 L926.0156,1005.5938 L922.3438,1005.5938 C921.8906,1005.5938 921.7656,1005.6094 921.6094,1005.7031 C921.3594,1005.875 921.2031,1006.1563 921.2031,1006.4375 C921.2031,1006.7188 921.3438,1006.9688 921.5625,1007.1406 C921.7344,1007.25 921.9063,1007.2813 922.3438,1007.2813 L923.4219,1007.2813 L920.7813,1013.7969 C920.3594,1013.7969 920.2031,1013.8125 920.0469,1013.9219 C919.7969,1014.0781 919.6406,1014.3594 919.6406,1014.6563 C919.6406,1015.2188 920.0156,1015.5 920.7656,1015.5 L923.0313,1015.5 C923.3906,1015.5 923.6094,1015.4688 923.7344,1015.375 C924,1015.2344 924.1406,1014.9375 924.1406,1014.6563 C924.1406,1014.375 924.0156,1014.125 923.7969,1013.9531 C923.625,1013.8281 923.4844,1013.7969 923.0313,1013.7969 L922.6406,1013.7969 L923.0313,1012.8125 L927.0781,1012.8125 Z M926.375,1011.1094 L923.7031,1011.1094 L925.0469,1007.8438 L926.375,1011.1094 Z " fill="#000000"/><text fill="#000000" font-family="sans-serif" font-size="12" font-style="italic" lengthAdjust="spacing" textLength="142" x="939" y="1015.1543">DebitoDireto:Credencial</text><line style="stroke:#A80036;stroke-width:1.5;" x1="911" x2="1083" y1="1027" y2="1027"/><text fill="#000000" font-family="sans-serif" font-size="11" lengthAdjust="spacing" textLength="49" x="916" y="1041.2104">-Int Id PK</text><text fill="#000000" font-family="sans-serif" font-size="11" lengthAdjust="spacing" textLength="65" x="916" y="1054.0151">-String iban</text><text fill="#000000" font-family="sans-serif" font-size="11" lengthAdjust="spacing" textLength="74" x="916" y="1066.8198">-String nome</text><text fill="#000000" font-family="sans-serif" font-size="11" lengthAdjust="spacing" textLength="59" x="916" y="1079.6245">-String rua</text><text fill="#000000" font-family="sans-serif" font-size="11" lengthAdjust="spacing" textLength="111" x="916" y="1092.4292">-String codigoPostal</text><text fill="#000000" font-family="sans-serif" font-size="11" lengthAdjust="spacing" textLength="95" x="916" y="1105.2339">-String freguesia</text><text fill="#000000" font-family="sans-serif" font-size="11" lengthAdjust="spacing" textLength="151" x="916" y="1118.0386">-DateTime dataSubscricao</text><text fill="#000000" font-family="sans-serif" font-size="11" lengthAdjust="spacing" textLength="95" x="916" y="1130.8433">-Int metodoID FK</text><line style="stroke:#A80036;stroke-width:1.5;" x1="911" x2="1083" y1="1137.4375" y2="1137.4375"/><!--MD5=[6754354365917abf8f1a56af1b7e344c]
class Context--><rect codeLine="138" fill="#FEFECE" filter="url(#f1khmpjj39lysh)" height="137.6328" id="Context" style="stroke:#A80036;stroke-width:1.5;" width="292" x="1649" y="248"/><ellipse cx="1767.75" cy="264" fill="#ADD1B2" rx="11" ry="11" style="stroke:#A80036;stroke-width:1.0;"/><path d="M1770.0938,259.6719 C1769.1563,259.2344 1768.5625,259.0938 1767.6875,259.0938 C1765.0625,259.0938 1763.0625,261.1719 1763.0625,263.8906 L1763.0625,265.0156 C1763.0625,267.5938 1765.1719,269.4844 1768.0625,269.4844 C1769.2813,269.4844 1770.4375,269.1875 1771.1875,268.6406 C1771.7656,268.2344 1772.0938,267.7813 1772.0938,267.3906 C1772.0938,266.9375 1771.7031,266.5469 1771.2344,266.5469 C1771.0156,266.5469 1770.8125,266.625 1770.625,266.8125 C1770.1719,267.2969 1770.1719,267.2969 1769.9844,267.3906 C1769.5625,267.6563 1768.875,267.7813 1768.1094,267.7813 C1766.0625,267.7813 1764.7656,266.6875 1764.7656,264.9844 L1764.7656,263.8906 C1764.7656,262.1094 1766.0156,260.7969 1767.75,260.7969 C1768.3281,260.7969 1768.9375,260.9531 1769.4063,261.2031 C1769.8906,261.4844 1770.0625,261.7031 1770.1563,262.1094 C1770.2188,262.5156 1770.25,262.6406 1770.3906,262.7656 C1770.5313,262.9063 1770.7656,263.0156 1770.9844,263.0156 C1771.25,263.0156 1771.5156,262.875 1771.6875,262.6563 C1771.7969,262.5 1771.8281,262.3125 1771.8281,261.8906 L1771.8281,260.4688 C1771.8281,260.0313 1771.8125,259.9063 1771.7188,259.75 C1771.5625,259.4844 1771.2813,259.3438 1770.9844,259.3438 C1770.6875,259.3438 1770.4844,259.4375 1770.2656,259.75 L1770.0938,259.6719 Z " fill="#000000"/><text fill="#000000" font-family="sans-serif" font-size="12" lengthAdjust="spacing" textLength="46" x="1788.25" y="268.1543">Context</text><line style="stroke:#A80036;stroke-width:1.5;" x1="1650" x2="1940" y1="280" y2="280"/><text fill="#000000" font-family="sans-serif" font-size="11" lengthAdjust="spacing" textLength="162" x="1655" y="294.2104">-DbSet&lt;Reserva&gt; Reservas</text><text fill="#000000" font-family="sans-serif" font-size="11" lengthAdjust="spacing" textLength="185" x="1655" y="307.0151">-DbSet&lt;Transacao&gt; Transacoes</text><text fill="#000000" font-family="sans-serif" font-size="11" lengthAdjust="spacing" textLength="146" x="1655" y="319.8198">-DbSet&lt;Parque&gt; Parques</text><text fill="#000000" font-family="sans-serif" font-size="11" lengthAdjust="spacing" textLength="280" x="1655" y="332.6245">-DbSet&lt;MetodoPagamento&gt; MetodosPagamento</text><text fill="#000000" font-family="sans-serif" font-size="11" lengthAdjust="spacing" textLength="136" x="1655" y="345.4292">-DbSet&lt;Paypal&gt; Paypal</text><text fill="#000000" font-family="sans-serif" font-size="11" lengthAdjust="spacing" textLength="143" x="1655" y="358.2339">-DbSet&lt;Cartao&gt; Cartoes</text><text fill="#000000" font-family="sans-serif" font-size="11" lengthAdjust="spacing" textLength="220" x="1655" y="371.0386">-DbSet&lt;DebitoDireto&gt; DebitosDiretos</text><line style="stroke:#A80036;stroke-width:1.5;" x1="1650" x2="1940" y1="377.6328" y2="377.6328"/><!--MD5=[7e02c7349cbcec40ae1dd951aa82354c]
class ReservaDTO--><rect codeLine="152" fill="#FEFECE" filter="url(#f1khmpjj39lysh)" height="124.8281" id="ReservaDTO" style="stroke:#A80036;stroke-width:1.5;" width="113" x="32.5" y="41"/><ellipse cx="50.2" cy="57" fill="#ADD1B2" rx="11" ry="11" style="stroke:#A80036;stroke-width:1.0;"/><path d="M52.5438,52.6719 C51.6063,52.2344 51.0125,52.0938 50.1375,52.0938 C47.5125,52.0938 45.5125,54.1719 45.5125,56.8906 L45.5125,58.0156 C45.5125,60.5938 47.6219,62.4844 50.5125,62.4844 C51.7313,62.4844 52.8875,62.1875 53.6375,61.6406 C54.2156,61.2344 54.5438,60.7813 54.5438,60.3906 C54.5438,59.9375 54.1531,59.5469 53.6844,59.5469 C53.4656,59.5469 53.2625,59.625 53.075,59.8125 C52.6219,60.2969 52.6219,60.2969 52.4344,60.3906 C52.0125,60.6563 51.325,60.7813 50.5594,60.7813 C48.5125,60.7813 47.2156,59.6875 47.2156,57.9844 L47.2156,56.8906 C47.2156,55.1094 48.4656,53.7969 50.2,53.7969 C50.7781,53.7969 51.3875,53.9531 51.8563,54.2031 C52.3406,54.4844 52.5125,54.7031 52.6063,55.1094 C52.6688,55.5156 52.7,55.6406 52.8406,55.7656 C52.9813,55.9063 53.2156,56.0156 53.4344,56.0156 C53.7,56.0156 53.9656,55.875 54.1375,55.6563 C54.2469,55.5 54.2781,55.3125 54.2781,54.8906 L54.2781,53.4688 C54.2781,53.0313 54.2625,52.9063 54.1688,52.75 C54.0125,52.4844 53.7313,52.3438 53.4344,52.3438 C53.1375,52.3438 52.9344,52.4375 52.7156,52.75 L52.5438,52.6719 Z " fill="#000000"/><text fill="#000000" font-family="sans-serif" font-size="12" lengthAdjust="spacing" textLength="75" x="64.8" y="61.1543">ReservaDTO</text><line style="stroke:#A80036;stroke-width:1.5;" x1="33.5" x2="144.5" y1="73" y2="73"/><text fill="#000000" font-family="sans-serif" font-size="11" lengthAdjust="spacing" textLength="101" x="38.5" y="87.2104">-String RuaParque</text><text fill="#000000" font-family="sans-serif" font-size="11" lengthAdjust="spacing" textLength="98" x="38.5" y="100.0151">-Int NumeroLugar</text><text fill="#000000" font-family="sans-serif" font-size="11" lengthAdjust="spacing" textLength="91" x="38.5" y="112.8198">-String FilaLugar</text><text fill="#000000" font-family="sans-serif" font-size="11" lengthAdjust="spacing" textLength="86" x="38.5" y="125.6245">-Int AndarLugar</text><text fill="#000000" font-family="sans-serif" font-size="11" lengthAdjust="spacing" textLength="94" x="38.5" y="138.4292">-DateTime inicio</text><text fill="#000000" font-family="sans-serif" font-size="11" lengthAdjust="spacing" textLength="83" x="38.5" y="151.2339">-DateTime fim</text><line style="stroke:#A80036;stroke-width:1.5;" x1="33.5" x2="144.5" y1="157.8281" y2="157.8281"/><!--MD5=[598cf41ed1ef8dcb2948d6b5a284ce40]
class paypalDTO--><rect codeLine="161" fill="#FEFECE" filter="url(#f1khmpjj39lysh)" height="112.0234" id="paypalDTO" style="stroke:#A80036;stroke-width:1.5;" width="154" x="181" y="47.5"/><ellipse cx="221.2" cy="63.5" fill="#ADD1B2" rx="11" ry="11" style="stroke:#A80036;stroke-width:1.0;"/><path d="M223.5438,59.1719 C222.6063,58.7344 222.0125,58.5938 221.1375,58.5938 C218.5125,58.5938 216.5125,60.6719 216.5125,63.3906 L216.5125,64.5156 C216.5125,67.0938 218.6219,68.9844 221.5125,68.9844 C222.7313,68.9844 223.8875,68.6875 224.6375,68.1406 C225.2156,67.7344 225.5438,67.2813 225.5438,66.8906 C225.5438,66.4375 225.1531,66.0469 224.6844,66.0469 C224.4656,66.0469 224.2625,66.125 224.075,66.3125 C223.6219,66.7969 223.6219,66.7969 223.4344,66.8906 C223.0125,67.1563 222.325,67.2813 221.5594,67.2813 C219.5125,67.2813 218.2156,66.1875 218.2156,64.4844 L218.2156,63.3906 C218.2156,61.6094 219.4656,60.2969 221.2,60.2969 C221.7781,60.2969 222.3875,60.4531 222.8563,60.7031 C223.3406,60.9844 223.5125,61.2031 223.6063,61.6094 C223.6688,62.0156 223.7,62.1406 223.8406,62.2656 C223.9813,62.4063 224.2156,62.5156 224.4344,62.5156 C224.7,62.5156 224.9656,62.375 225.1375,62.1563 C225.2469,62 225.2781,61.8125 225.2781,61.3906 L225.2781,59.9688 C225.2781,59.5313 225.2625,59.4063 225.1688,59.25 C225.0125,58.9844 224.7313,58.8438 224.4344,58.8438 C224.1375,58.8438 223.9344,58.9375 223.7156,59.25 L223.5438,59.1719 Z " fill="#000000"/><text fill="#000000" font-family="sans-serif" font-size="12" lengthAdjust="spacing" textLength="66" x="240.8" y="67.6543">paypalDTO</text><line style="stroke:#A80036;stroke-width:1.5;" x1="182" x2="334" y1="79.5" y2="79.5"/><text fill="#000000" font-family="sans-serif" font-size="11" lengthAdjust="spacing" textLength="73" x="187" y="93.7104">-String email</text><text fill="#000000" font-family="sans-serif" font-size="11" lengthAdjust="spacing" textLength="94" x="187" y="106.5151">-String password</text><text fill="#000000" font-family="sans-serif" font-size="11" lengthAdjust="spacing" textLength="79" x="187" y="119.3198">-Double custo</text><text fill="#000000" font-family="sans-serif" font-size="11" lengthAdjust="spacing" textLength="142" x="187" y="132.1245">-String emailDestinatario</text><text fill="#000000" font-family="sans-serif" font-size="11" lengthAdjust="spacing" textLength="90" x="187" y="144.9292">-DateTime data</text><line style="stroke:#A80036;stroke-width:1.5;" x1="182" x2="334" y1="151.5234" y2="151.5234"/><!--MD5=[192f5b2b8ad64932e9b414889a001670]
class cartaoDTO--><rect codeLine="169" fill="#FEFECE" filter="url(#f1khmpjj39lysh)" height="137.6328" id="cartaoDTO" style="stroke:#A80036;stroke-width:1.5;" width="128" x="32" y="248"/><ellipse cx="61.4" cy="264" fill="#ADD1B2" rx="11" ry="11" style="stroke:#A80036;stroke-width:1.0;"/><path d="M63.7438,259.6719 C62.8063,259.2344 62.2125,259.0938 61.3375,259.0938 C58.7125,259.0938 56.7125,261.1719 56.7125,263.8906 L56.7125,265.0156 C56.7125,267.5938 58.8219,269.4844 61.7125,269.4844 C62.9313,269.4844 64.0875,269.1875 64.8375,268.6406 C65.4156,268.2344 65.7438,267.7813 65.7438,267.3906 C65.7438,266.9375 65.3531,266.5469 64.8844,266.5469 C64.6656,266.5469 64.4625,266.625 64.275,266.8125 C63.8219,267.2969 63.8219,267.2969 63.6344,267.3906 C63.2125,267.6563 62.525,267.7813 61.7594,267.7813 C59.7125,267.7813 58.4156,266.6875 58.4156,264.9844 L58.4156,263.8906 C58.4156,262.1094 59.6656,260.7969 61.4,260.7969 C61.9781,260.7969 62.5875,260.9531 63.0563,261.2031 C63.5406,261.4844 63.7125,261.7031 63.8063,262.1094 C63.8688,262.5156 63.9,262.6406 64.0406,262.7656 C64.1813,262.9063 64.4156,263.0156 64.6344,263.0156 C64.9,263.0156 65.1656,262.875 65.3375,262.6563 C65.4469,262.5 65.4781,262.3125 65.4781,261.8906 L65.4781,260.4688 C65.4781,260.0313 65.4625,259.9063 65.3688,259.75 C65.2125,259.4844 64.9313,259.3438 64.6344,259.3438 C64.3375,259.3438 64.1344,259.4375 63.9156,259.75 L63.7438,259.6719 Z " fill="#000000"/><text fill="#000000" font-family="sans-serif" font-size="12" lengthAdjust="spacing" textLength="64" x="78.6" y="268.1543">cartaoDTO</text><line style="stroke:#A80036;stroke-width:1.5;" x1="33" x2="159" y1="280" y2="280"/><text fill="#000000" font-family="sans-serif" font-size="11" lengthAdjust="spacing" textLength="85" x="38" y="294.2104">-String numero</text><text fill="#000000" font-family="sans-serif" font-size="11" lengthAdjust="spacing" textLength="74" x="38" y="307.0151">-String nome</text><text fill="#000000" font-family="sans-serif" font-size="11" lengthAdjust="spacing" textLength="116" x="38" y="319.8198">-String dataValidade</text><text fill="#000000" font-family="sans-serif" font-size="11" lengthAdjust="spacing" textLength="61" x="38" y="332.6245">-String cvv</text><text fill="#000000" font-family="sans-serif" font-size="11" lengthAdjust="spacing" textLength="79" x="38" y="345.4292">-Double custo</text><text fill="#000000" font-family="sans-serif" font-size="11" lengthAdjust="spacing" textLength="105" x="38" y="358.2339">-Int nifDestinatario</text><text fill="#000000" font-family="sans-serif" font-size="11" lengthAdjust="spacing" textLength="90" x="38" y="371.0386">-DateTime data</text><line style="stroke:#A80036;stroke-width:1.5;" x1="33" x2="159" y1="377.6328" y2="377.6328"/><!--MD5=[6156cc88864cc6369e19be7c3bbbf72b]
class debitoDiretoDTO--><rect codeLine="179" fill="#FEFECE" filter="url(#f1khmpjj39lysh)" height="150.4375" id="debitoDiretoDTO" style="stroke:#A80036;stroke-width:1.5;" width="134" x="195" y="242"/><ellipse cx="210" cy="258" fill="#ADD1B2" rx="11" ry="11" style="stroke:#A80036;stroke-width:1.0;"/><path d="M212.3438,253.6719 C211.4063,253.2344 210.8125,253.0938 209.9375,253.0938 C207.3125,253.0938 205.3125,255.1719 205.3125,257.8906 L205.3125,259.0156 C205.3125,261.5938 207.4219,263.4844 210.3125,263.4844 C211.5313,263.4844 212.6875,263.1875 213.4375,262.6406 C214.0156,262.2344 214.3438,261.7813 214.3438,261.3906 C214.3438,260.9375 213.9531,260.5469 213.4844,260.5469 C213.2656,260.5469 213.0625,260.625 212.875,260.8125 C212.4219,261.2969 212.4219,261.2969 212.2344,261.3906 C211.8125,261.6563 211.125,261.7813 210.3594,261.7813 C208.3125,261.7813 207.0156,260.6875 207.0156,258.9844 L207.0156,257.8906 C207.0156,256.1094 208.2656,254.7969 210,254.7969 C210.5781,254.7969 211.1875,254.9531 211.6563,255.2031 C212.1406,255.4844 212.3125,255.7031 212.4063,256.1094 C212.4688,256.5156 212.5,256.6406 212.6406,256.7656 C212.7813,256.9063 213.0156,257.0156 213.2344,257.0156 C213.5,257.0156 213.7656,256.875 213.9375,256.6563 C214.0469,256.5 214.0781,256.3125 214.0781,255.8906 L214.0781,254.4688 C214.0781,254.0313 214.0625,253.9063 213.9688,253.75 C213.8125,253.4844 213.5313,253.3438 213.2344,253.3438 C212.9375,253.3438 212.7344,253.4375 212.5156,253.75 L212.3438,253.6719 Z " fill="#000000"/><text fill="#000000" font-family="sans-serif" font-size="12" lengthAdjust="spacing" textLength="102" x="224" y="262.1543">debitoDiretoDTO</text><line style="stroke:#A80036;stroke-width:1.5;" x1="196" x2="328" y1="274" y2="274"/><text fill="#000000" font-family="sans-serif" font-size="11" lengthAdjust="spacing" textLength="65" x="201" y="288.2104">-String iban</text><text fill="#000000" font-family="sans-serif" font-size="11" lengthAdjust="spacing" textLength="74" x="201" y="301.0151">-String nome</text><text fill="#000000" font-family="sans-serif" font-size="11" lengthAdjust="spacing" textLength="59" x="201" y="313.8198">-String rua</text><text fill="#000000" font-family="sans-serif" font-size="11" lengthAdjust="spacing" textLength="111" x="201" y="326.6245">-String codigoPostal</text><text fill="#000000" font-family="sans-serif" font-size="11" lengthAdjust="spacing" textLength="95" x="201" y="339.4292">-String freguesia</text><text fill="#000000" font-family="sans-serif" font-size="11" lengthAdjust="spacing" textLength="79" x="201" y="352.2339">-Double custo</text><text fill="#000000" font-family="sans-serif" font-size="11" lengthAdjust="spacing" textLength="105" x="201" y="365.0386">-Int nifDestinatario</text><text fill="#000000" font-family="sans-serif" font-size="11" lengthAdjust="spacing" textLength="90" x="201" y="377.8433">-DateTime data</text><line style="stroke:#A80036;stroke-width:1.5;" x1="196" x2="328" y1="384.4375" y2="384.4375"/><!--MD5=[38a761da7565306a4f8c9807fe6a839c]
link UtilizadoresController to Utilizador:IdentityUser--><path codeLine="192" d="M1558.64,153.12 C1515.94,213.22 1447.01,320.29 1416,424 C1391.33,506.509 1389.85,607.384 1391.84,667.932 " fill="none" id="UtilizadoresController-to-Utilizador:IdentityUser" style="stroke:#A80036;stroke-width:1.0;stroke-dasharray:7.0,7.0;"/><polygon fill="#A80036" points="1392.02,672.942,1395.7014,663.8071,1391.8444,667.9451,1387.7064,664.088,1392.02,672.942" style="stroke:#A80036;stroke-width:1.0;"/><!--MD5=[55a1e85b195c42c46b77451c3d6a4804]
link UtilizadoresController to Context--><path codeLine="193" d="M1640.88,153.02 C1666.37,179.98 1698.57,214.03 1726.94,244.03 " fill="none" id="UtilizadoresController-to-Context" style="stroke:#A80036;stroke-width:1.0;stroke-dasharray:7.0,7.0;"/><polygon fill="#A80036" points="1730.38,247.67,1727.087,238.388,1726.9385,244.0429,1721.2836,243.8944,1730.38,247.67" style="stroke:#A80036;stroke-width:1.0;"/><!--MD5=[f1d08e710b5be31a4f54b7be44dcfd5f]
link ReservasController to Reserva--><path codeLine="194" d="M1231.98,159.74 C1244.74,173.13 1256.38,188.43 1264,205 C1302.32,288.4 1297.52,396.716 1288.71,465.444 " fill="none" id="ReservasController-to-Reserva" style="stroke:#A80036;stroke-width:1.0;stroke-dasharray:7.0,7.0;"/><polygon fill="#A80036" points="1288.02,470.734,1293.1609,462.3333,1288.6729,465.7768,1285.2294,461.2888,1288.02,470.734" style="stroke:#A80036;stroke-width:1.0;"/><!--MD5=[4c183a90d865e4921167e44bdbd7527a]
link ReservasController to Context--><path codeLine="195" d="M1236.92,159.58 C1253.39,169.13 1271.22,177.8 1289,183.5 C1322.94,194.37 1574.98,194.38 1609,205 C1638.81,214.31 1668.86,229.26 1695.85,245.21 " fill="none" id="ReservasController-to-Context" style="stroke:#A80036;stroke-width:1.0;stroke-dasharray:7.0,7.0;"/><polygon fill="#A80036" points="1700.16,247.78,1694.4808,239.7335,1695.8662,245.2181,1690.3817,246.6035,1700.16,247.78" style="stroke:#A80036;stroke-width:1.0;"/><!--MD5=[63f1039bd21356e858113479a103cf25]
link ReservasController to PagamentoService--><path codeLine="196" d="M1050.78,129.96 C994.045,146.1 925.361,170.54 870,205 C839.57,223.94 810.971,252.54 790.289,275.97 " fill="none" id="ReservasController-to-PagamentoService" style="stroke:#A80036;stroke-width:1.0;stroke-dasharray:7.0,7.0;"/><polygon fill="#A80036" points="786.781,279.98,795.7136,275.8317,790.0697,276.2138,789.6876,270.5698,786.781,279.98" style="stroke:#A80036;stroke-width:1.0;"/><!--MD5=[ea8bc1862f65d1111e9aa61726d02111]
link ReservasController to EmailService--><path codeLine="197" d="M1050.85,116.92 C925.176,132.81 729.128,163.34 668,205 C642.91,222.1 624.534,251.14 612.628,275.22 " fill="none" id="ReservasController-to-EmailService" style="stroke:#A80036;stroke-width:1.0;stroke-dasharray:7.0,7.0;"/><polygon fill="#A80036" points="610.332,279.97,617.845,273.6018,612.5044,275.4666,610.6396,270.1259,610.332,279.97" style="stroke:#A80036;stroke-width:1.0;"/><!--MD5=[bdc1af83df3e614303713389d5bf7496]
link TransacoesController to Transacao--><path codeLine="198" d="M1852.17,146.5 C1868.31,159.36 1886.83,172.9 1905,183.5 C1926.6,196.1 1939.95,186.71 1957,205 C1992.46,243.04 1994,264 1994,316 C1994,316 1994,316 1994,635.5 C1994,795.497 1979.85,872.926 1849,965 C1772.76,1018.65 1667.21,1045.826 1598.53,1058.687 " fill="none" id="TransacoesController-to-Transacao" style="stroke:#A80036;stroke-width:1.0;stroke-dasharray:7.0,7.0;"/><polygon fill="#A80036" points="1593.24,1059.663,1602.8131,1061.9773,1598.1583,1058.7628,1601.3728,1054.108,1593.24,1059.663" style="stroke:#A80036;stroke-width:1.0;"/><!--MD5=[64769f895abbfa304c726cfecd4d4d6c]
link TransacoesController to Context--><path codeLine="199" d="M1802.21,146.54 C1801.04,173.98 1799.49,210.55 1798.12,242.7 " fill="none" id="TransacoesController-to-Context" style="stroke:#A80036;stroke-width:1.0;stroke-dasharray:7.0,7.0;"/><polygon fill="#A80036" points="1797.9,247.82,1802.2575,238.9876,1798.1004,242.824,1794.264,238.6669,1797.9,247.82" style="stroke:#A80036;stroke-width:1.0;"/><!--MD5=[b25225a33270bdb4508378cc7473fef0]
link ParquesController to Parque--><path codeLine="200" d="M1340.14,159.52 C1308.42,195.98 1267.52,242.98 1238.87,275.92 " fill="none" id="ParquesController-to-Parque" style="stroke:#A80036;stroke-width:1.0;stroke-dasharray:7.0,7.0;"/><polygon fill="#A80036" points="1235.44,279.87,1244.3679,275.7116,1238.7244,276.1,1238.336,270.4565,1235.44,279.87" style="stroke:#A80036;stroke-width:1.0;"/><!--MD5=[42e6008d20694588b8edd67f6bad3e14]
link ParquesController to Context--><path codeLine="201" d="M1447.43,159.59 C1459.8,168.77 1473.27,177.3 1487,183.5 C1537.18,206.15 1557.4,185.8 1609,205 C1636.99,215.41 1665.51,230.05 1691.54,245.28 " fill="none" id="ParquesController-to-Context" style="stroke:#A80036;stroke-width:1.0;stroke-dasharray:7.0,7.0;"/><polygon fill="#A80036" points="1696.03,247.93,1690.3076,239.9141,1691.7225,245.3912,1686.2455,246.8061,1696.03,247.93" style="stroke:#A80036;stroke-width:1.0;"/><!--MD5=[7b141085eb0518e7623b734b72c701b4]
link MetodoPagamentosController to MetodoPagamento--><path codeLine="202" d="M2073.62,159.71 C2074.73,202.39 2076,262.93 2076,316 C2076,316 2076,316 2076,1071 C2076,1188.268 1679.9,1241.536 1508.99,1259.0623 " fill="none" id="MetodoPagamentosController-to-MetodoPagamento" style="stroke:#A80036;stroke-width:1.0;stroke-dasharray:7.0,7.0;"/><polygon fill="#A80036" points="1504,1259.5704,1513.3549,1262.6502,1508.9749,1259.0703,1512.5548,1254.6903,1504,1259.5704" style="stroke:#A80036;stroke-width:1.0;"/><!--MD5=[a66b9f39faf63293a9e6033a5b5c0751]
link MetodoPagamentosController to Context--><path codeLine="203" d="M1999.94,159.52 C1965.98,185.45 1925.03,216.72 1888.69,244.47 " fill="none" id="MetodoPagamentosController-to-Context" style="stroke:#A80036;stroke-width:1.0;stroke-dasharray:7.0,7.0;"/><polygon fill="#A80036" points="1884.28,247.83,1893.8569,245.5314,1888.249,244.789,1888.9913,239.1811,1884.28,247.83" style="stroke:#A80036;stroke-width:1.0;"/><!--MD5=[1d6fec359c79e78e29ec240381e009fb]
link Context to Utilizador:IdentityUser--><path codeLine="205" d="M1681.5,386.12 C1658.18,397.711 1633.31,408.431 1609,416 C1580.37,424.916 1567.15,407.661 1542,424 C1498.16,452.486 1442.58,590.142 1413.96,667.834 " fill="none" id="Context-to-Utilizador:IdentityUser" style="stroke:#A80036;stroke-width:1.0;"/><polygon fill="#A80036" points="1412.11,672.863,1418.9651,665.7914,1413.8321,668.1689,1411.4545,663.036,1412.11,672.863" style="stroke:#A80036;stroke-width:1.0;"/><text fill="#000000" font-family="sans-serif" font-size="13" lengthAdjust="spacing" textLength="26" x="1502" y="538.0669">tem</text><text fill="#000000" font-family="sans-serif" font-size="13" lengthAdjust="spacing" textLength="8" x="1661.9336" y="405.7538">1</text><text fill="#000000" font-family="sans-serif" font-size="13" lengthAdjust="spacing" textLength="23" x="1389.8989" y="661.889">0..*</text><!--MD5=[f862fc199df090de7a91527ffbcfeae3]
link Context to Reserva--><path codeLine="206" d="M1684.64,386.093 C1660.51,398.115 1634.52,409.007 1609,416 C1540.33,434.816 1516.88,402.527 1449,424 C1412.1,435.671 1375.27,457.239 1345.21,478.088 " fill="none" id="Context-to-Reserva" style="stroke:#A80036;stroke-width:1.0;"/><polygon fill="#A80036" points="1340.83,481.158,1350.4956,479.2668,1344.9241,478.2877,1345.9031,472.7162,1340.83,481.158" style="stroke:#A80036;stroke-width:1.0;"/><text fill="#000000" font-family="sans-serif" font-size="13" lengthAdjust="spacing" textLength="26" x="1450" y="437.0669">tem</text><text fill="#000000" font-family="sans-serif" font-size="13" lengthAdjust="spacing" textLength="8" x="1674.1702" y="405.7241">1</text><text fill="#000000" font-family="sans-serif" font-size="13" lengthAdjust="spacing" textLength="23" x="1348.5984" y="472.0694">0..*</text><!--MD5=[97c3e5cd7c11f9a09254c4a96322050c]
link Context to Transacao--><path codeLine="207" d="M1817.81,386.239 C1829.79,427.981 1842,482.749 1842,532.5 C1842,532.5 1842,532.5 1842,895 C1842,1005.749 1690.45,1046.62 1598.26,1061.237 " fill="none" id="Context-to-Transacao" style="stroke:#A80036;stroke-width:1.0;"/><polygon fill="#A80036" points="1593.1,1062.039,1602.6021,1064.6293,1598.0423,1061.2815,1601.3901,1056.7217,1593.1,1062.039" style="stroke:#A80036;stroke-width:1.0;"/><text fill="#000000" font-family="sans-serif" font-size="13" lengthAdjust="spacing" textLength="26" x="1843" y="727.0669">tem</text><text fill="#000000" font-family="sans-serif" font-size="13" lengthAdjust="spacing" textLength="8" x="1811.6028" y="405.6439">1</text><text fill="#000000" font-family="sans-serif" font-size="13" lengthAdjust="spacing" textLength="23" x="1600.8963" y="1057.5272">0..*</text><!--MD5=[b8a4ba3f14343c93cc8a055f0769f72b]
link Context to Parque--><path codeLine="208" d="M1648.69,317 C1518.9,317 1337.05,317 1251.73,317 " fill="none" id="Context-to-Parque" style="stroke:#A80036;stroke-width:1.0;"/><polygon fill="#A80036" points="1246.5,317,1255.5,321,1251.5,317,1255.5,313,1246.5,317" style="stroke:#A80036;stroke-width:1.0;"/><text fill="#000000" font-family="sans-serif" font-size="13" lengthAdjust="spacing" textLength="26" x="1434.75" y="310.0669">tem</text><text fill="#000000" font-family="sans-serif" font-size="13" lengthAdjust="spacing" textLength="8" x="1632.9396" y="313.6931">1</text><text fill="#000000" font-family="sans-serif" font-size="13" lengthAdjust="spacing" textLength="23" x="1254.4313" y="313.0038">0..*</text><!--MD5=[d64cc5fded769c87c323eeb0a085c074]
link Context to MetodoPagamento--><path codeLine="209" d="M1838.26,386.025 C1844.89,398.341 1851.14,411.311 1856,424 C1863.64,443.943 1863.14,449.836 1866,471 C1892.64,667.875 1912.57,724.396 1868,918 C1828.3,1090.45 1623.16,1194.011 1508.97,1239.17 " fill="none" id="Context-to-MetodoPagamento" style="stroke:#A80036;stroke-width:1.0;"/><polygon fill="#A80036" points="1504.27,1241.014,1514.1094,1241.4459,1508.9237,1239.1856,1511.184,1234,1504.27,1241.014" style="stroke:#A80036;stroke-width:1.0;"/><text fill="#000000" font-family="sans-serif" font-size="13" lengthAdjust="spacing" textLength="26" x="1891" y="815.0669">tem</text><text fill="#000000" font-family="sans-serif" font-size="13" lengthAdjust="spacing" textLength="8" x="1834.1247" y="405.6494">1</text><text fill="#000000" font-family="sans-serif" font-size="13" lengthAdjust="spacing" textLength="23" x="1511.9925" y="1234.9809">0..*</text><!--MD5=[6a4547493d98cd2f5636f27b79988752]
link Context to PayPal:Credencial--><path codeLine="210" d="M1770.25,386.093 C1757.25,427.783 1744,482.548 1744,532.5 C1744,532.5 1744,532.5 1744,895 C1744,1033.287 1484.45,969.384 1433,995 C1422.05,1000.453 1411.82,1008.258 1402.7,1016.773 " fill="none" id="Context-to-PayPal:Credencial" style="stroke:#A80036;stroke-width:1.0;"/><polygon fill="#A80036" points="1398.87,1020.462,1408.1271,1017.0997,1402.4713,1016.9935,1402.5775,1011.3376,1398.87,1020.462" style="stroke:#A80036;stroke-width:1.0;"/><text fill="#000000" font-family="sans-serif" font-size="13" lengthAdjust="spacing" textLength="26" x="1745" y="727.0669">tem</text><text fill="#000000" font-family="sans-serif" font-size="13" lengthAdjust="spacing" textLength="8" x="1759.4199" y="405.7241">1</text><text fill="#000000" font-family="sans-serif" font-size="13" lengthAdjust="spacing" textLength="23" x="1379.5783" y="1009.5019">0..*</text><!--MD5=[49e1296f6cec618aaaa1ba8a1061c177]
link Context to Cartao:Credencial--><path codeLine="211" d="M1716.14,386.371 C1680.4,425.033 1646,476.729 1646,532.5 C1646,532.5 1646,532.5 1646,895 C1646,1047.978 1405.76,939.344 1275,995 C1268.75,997.661 1262.61,1000.935 1256.67,1004.611 " fill="none" id="Context-to-Cartao:Credencial" style="stroke:#A80036;stroke-width:1.0;"/><polygon fill="#A80036" points="1252.17,1007.497,1261.9053,1006.0054,1256.3788,1004.7978,1257.5865,999.2713,1252.17,1007.497" style="stroke:#A80036;stroke-width:1.0;"/><text fill="#000000" font-family="sans-serif" font-size="13" lengthAdjust="spacing" textLength="26" x="1647" y="727.0669">tem</text><text fill="#000000" font-family="sans-serif" font-size="13" lengthAdjust="spacing" textLength="8" x="1700.2424" y="405.7885">1</text><text fill="#000000" font-family="sans-serif" font-size="13" lengthAdjust="spacing" textLength="23" x="1235.26" y="996.4874">0..*</text><!--MD5=[c2688a242fe879acb737a8853e4ba38f]
link Context to DebitoDireto:Credencial--><path codeLine="212" d="M1704.78,386.293 C1691.43,398.178 1678.36,410.939 1667,424 C1650.89,442.518 1648.28,448.711 1638,471 C1534.01,696.492 1601.48,858.84 1377,965 C1265.46,1017.752 1216.33,951.147 1101,995 C1096.91,996.557 1092.82,998.314 1088.78,1000.232 " fill="none" id="Context-to-DebitoDireto:Credencial" style="stroke:#A80036;stroke-width:1.0;"/><polygon fill="#A80036" points="1084.04,1002.555,1093.8819,1002.1858,1088.5297,1000.3544,1090.361,995.0022,1084.04,1002.555" style="stroke:#A80036;stroke-width:1.0;"/><text fill="#000000" font-family="sans-serif" font-size="13" lengthAdjust="spacing" textLength="26" x="1576" y="727.0669">tem</text><text fill="#000000" font-family="sans-serif" font-size="13" lengthAdjust="spacing" textLength="8" x="1687.7997" y="405.7031">1</text><text fill="#000000" font-family="sans-serif" font-size="13" lengthAdjust="spacing" textLength="23" x="1091.8924" y="993.6376">0..*</text><!--MD5=[f2bea8d3b9b42a8b9a3612e6d565a844]
link Reserva to Utilizador:IdentityUser--><path codeLine="214" d="M1311.59,596.16 C1320.58,611.61 1330.44,628.041 1340,643 C1345.39,651.435 1351.28,660.241 1357.15,668.777 " fill="none" id="Reserva-to-Utilizador:IdentityUser" style="stroke:#A80036;stroke-width:1.0;"/><polygon fill="#A80036" points="1360.02,672.943,1358.1992,663.2639,1357.1796,668.8281,1351.6154,667.8086,1360.02,672.943" style="stroke:#A80036;stroke-width:1.0;"/><text fill="#000000" font-family="sans-serif" font-size="13" lengthAdjust="spacing" textLength="26" x="1341" y="639.0669">tem</text><text fill="#000000" font-family="sans-serif" font-size="13" lengthAdjust="spacing" textLength="23" x="1291.1155" y="615.9173">0..*</text><text fill="#000000" font-family="sans-serif" font-size="13" lengthAdjust="spacing" textLength="8" x="1346.5384" y="661.9802">1</text><!--MD5=[f24c51f8fcbdd9e8642a8c6ebdb1f92b]
link Reserva to Transacao--><path codeLine="215" d="M1258.42,596.011 C1243.05,660.856 1231.92,761.42 1289,819 C1301.3,831.405 1432.05,816.49 1446,827 C1500.06,867.731 1519.17,945.731 1525.79,1002.191 " fill="none" id="Reserva-to-Transacao" style="stroke:#A80036;stroke-width:1.0;"/><polygon fill="#A80036" points="1526.35,1007.243,1529.3198,997.8526,1525.7916,1002.2743,1521.3698,998.7461,1526.35,1007.243" style="stroke:#A80036;stroke-width:1.0;"/><text fill="#000000" font-family="sans-serif" font-size="13" lengthAdjust="spacing" textLength="26" x="1290" y="815.0669">tem</text><text fill="#000000" font-family="sans-serif" font-size="13" lengthAdjust="spacing" textLength="23" x="1232.13" y="615.752">0..*</text><text fill="#000000" font-family="sans-serif" font-size="13" lengthAdjust="spacing" textLength="8" x="1517.6227" y="996.6422">1</text><!--MD5=[1d783ec22706a622a6c7b2ade0cd5c3a]
link Transacao to MetodoPagamento--><path codeLine="216" d="M1498.31,1132.699 C1484.41,1160.64 1468.24,1193.137 1455.36,1219.049 " fill="none" id="Transacao-to-MetodoPagamento" style="stroke:#A80036;stroke-width:1.0;"/><polygon fill="#A80036" points="1452.99,1223.808,1460.583,1217.5353,1455.2192,1219.3324,1453.4221,1213.9686,1452.99,1223.808" style="stroke:#A80036;stroke-width:1.0;"/><text fill="#000000" font-family="sans-serif" font-size="13" lengthAdjust="spacing" textLength="26" x="1476" y="1190.0669">tem</text><text fill="#000000" font-family="sans-serif" font-size="13" lengthAdjust="spacing" textLength="23" x="1470.6955" y="1152.4606">0..*</text><text fill="#000000" font-family="sans-serif" font-size="13" lengthAdjust="spacing" textLength="8" x="1447.5916" y="1213.0911">1</text><!--MD5=[a9346758487907e5ff5b5c8b7ae451e6]
link Parque to Reserva--><path codeLine="217" d="M1216.38,354.387 C1226.74,384.815 1241.78,429.017 1254.29,465.774 " fill="none" id="Parque-to-Reserva" style="stroke:#A80036;stroke-width:1.0;"/><polygon fill="#A80036" points="1255.96,470.678,1256.8521,460.8696,1254.3515,465.9438,1249.2773,463.4432,1255.96,470.678" style="stroke:#A80036;stroke-width:1.0;"/><text fill="#000000" font-family="sans-serif" font-size="13" lengthAdjust="spacing" textLength="26" x="1246" y="437.0669">tem</text><text fill="#000000" font-family="sans-serif" font-size="13" lengthAdjust="spacing" textLength="8" x="1209.7156" y="373.6495">1</text><text fill="#000000" font-family="sans-serif" font-size="13" lengthAdjust="spacing" textLength="23" x="1229.4009" y="460.0701">0..*</text><!--MD5=[c97dba783d073b4b0feec3c32b93d69d]
link Utilizador:IdentityUser to Credencial--><path codeLine="218" d="M1360.83,772.436 C1349.76,787.643 1337.19,804.274 1325,819 C1311.59,835.202 1295.63,852.437 1282.43,866.194 " fill="none" id="Utilizador:IdentityUser-to-Credencial" style="stroke:#A80036;stroke-width:1.0;"/><polygon fill="#A80036" points="1278.79,869.979,1287.9143,866.2713,1282.2585,866.3776,1282.1521,860.7218,1278.79,869.979" style="stroke:#A80036;stroke-width:1.0;"/><text fill="#000000" font-family="sans-serif" font-size="13" lengthAdjust="spacing" textLength="26" x="1339" y="815.0669">tem</text><text fill="#000000" font-family="sans-serif" font-size="13" lengthAdjust="spacing" textLength="8" x="1347.7009" y="792.2151">1</text><text fill="#000000" font-family="sans-serif" font-size="13" lengthAdjust="spacing" textLength="8" x="1275.6049" y="858.9857">1</text><!--MD5=[7ae3bae46025dcebf49ae644f4b2d781]
link Credencial to PayPal:Credencial--><path codeLine="219" d="M1277.68,918.037 C1285.54,927.007 1294.16,937.615 1301,948 C1314.96,969.211 1327.85,994.13 1338.07,1015.823 " fill="none" id="Credencial-to-PayPal:Credencial" style="stroke:#A80036;stroke-width:1.0;"/><polygon fill="#A80036" points="1340.21,1020.401,1340.022,1010.5539,1338.0924,1015.8715,1332.7748,1013.942,1340.21,1020.401" style="stroke:#A80036;stroke-width:1.0;"/><text fill="#000000" font-family="sans-serif" font-size="13" lengthAdjust="spacing" textLength="56" x="1312" y="961.0669">pode ser</text><!--MD5=[817b7664aec087b17dd2f279b5cd13a4]
link Credencial to Cartao:Credencial--><path codeLine="220" d="M1246.97,918.106 C1238.57,939.605 1225.63,972.704 1214.02,1002.431 " fill="none" id="Credencial-to-Cartao:Credencial" style="stroke:#A80036;stroke-width:1.0;"/><polygon fill="#A80036" points="1212.16,1007.171,1219.1615,1000.2443,1213.9799,1002.514,1211.7103,997.3324,1212.16,1007.171" style="stroke:#A80036;stroke-width:1.0;"/><text fill="#000000" font-family="sans-serif" font-size="13" lengthAdjust="spacing" textLength="56" x="1236" y="961.0669">pode ser</text><!--MD5=[e32d348272f20899e6e77a26d67297c6]
link Credencial to DebitoDireto:Credencial--><path codeLine="221" d="M1214.27,918.177 C1198.61,927.164 1180.8,937.746 1165,948 C1139.78,964.373 1113.1,982.968 1088.61,1000.583 " fill="none" id="Credencial-to-DebitoDireto:Credencial" style="stroke:#A80036;stroke-width:1.0;"/><polygon fill="#A80036" points="1084.38,1003.629,1094.0186,1001.6048,1088.4341,1000.7026,1089.3363,995.1181,1084.38,1003.629" style="stroke:#A80036;stroke-width:1.0;"/><text fill="#000000" font-family="sans-serif" font-size="13" lengthAdjust="spacing" textLength="56" x="1166" y="961.0669">pode ser</text><!--MD5=[3bca9c6ec21a00a80bc9d2f6be0d7631]
link PayPal:Credencial to MetodoPagamento--><path codeLine="222" d="M1378.73,1119.704 C1389.81,1150.114 1403.99,1189.058 1414.93,1219.119 " fill="none" id="PayPal:Credencial-to-MetodoPagamento" style="stroke:#A80036;stroke-width:1.0;"/><polygon fill="#A80036" points="1416.66,1223.864,1417.3392,1214.0386,1414.9492,1219.1658,1409.822,1216.7758,1416.66,1223.864" style="stroke:#A80036;stroke-width:1.0;"/><text fill="#000000" font-family="sans-serif" font-size="13" lengthAdjust="spacing" textLength="26" x="1406" y="1190.0669">tem</text><text fill="#000000" font-family="sans-serif" font-size="13" lengthAdjust="spacing" textLength="23" x="1356.6061" y="1139.8092">0..*</text><text fill="#000000" font-family="sans-serif" font-size="13" lengthAdjust="spacing" textLength="8" x="1405.5777" y="1212.8384">1</text><!--MD5=[4a7af6b7491bcfd986ce188e99e1fae4]
link Cartao:Credencial to MetodoPagamento--><path codeLine="223" d="M1237.85,1132.74 C1249.41,1145.406 1262.11,1158.166 1275,1169 C1299.46,1189.563 1328.69,1208.826 1355.26,1224.681 " fill="none" id="Cartao:Credencial-to-MetodoPagamento" style="stroke:#A80036;stroke-width:1.0;"/><polygon fill="#A80036" points="1359.84,1227.398,1354.1293,1219.3738,1355.5362,1224.8529,1350.0571,1226.2599,1359.84,1227.398" style="stroke:#A80036;stroke-width:1.0;"/><text fill="#000000" font-family="sans-serif" font-size="13" lengthAdjust="spacing" textLength="26" x="1309" y="1190.0669">tem</text><text fill="#000000" font-family="sans-serif" font-size="13" lengthAdjust="spacing" textLength="23" x="1219.0445" y="1152.5061">0..*</text><text fill="#000000" font-family="sans-serif" font-size="13" lengthAdjust="spacing" textLength="8" x="1343.986" y="1219.593">1</text><!--MD5=[f71d265deef66ba33a34e51b5d1796dd]
link DebitoDireto:Credencial to MetodoPagamento--><path codeLine="224" d="M1067.06,1145.071 C1077.82,1153.975 1089.27,1162.277 1101,1169 C1181.17,1214.941 1284.94,1240.74 1354.74,1253.9882 " fill="none" id="DebitoDireto:Credencial-to-MetodoPagamento" style="stroke:#A80036;stroke-width:1.0;"/><polygon fill="#A80036" points="1359.71,1254.9205,1351.6092,1249.319,1354.7969,1253.9921,1350.1238,1257.1799,1359.71,1254.9205" style="stroke:#A80036;stroke-width:1.0;"/><text fill="#000000" font-family="sans-serif" font-size="13" lengthAdjust="spacing" textLength="26" x="1144" y="1190.0669">tem</text><text fill="#000000" font-family="sans-serif" font-size="13" lengthAdjust="spacing" textLength="23" x="1050.099" y="1165.6373">0..*</text><text fill="#000000" font-family="sans-serif" font-size="13" lengthAdjust="spacing" textLength="8" x="1343.8426" y="1249.9543">1</text><!--MD5=[7d321659888e4e9b96abd4ec657c663f]
link ReservaDTO to paypalDTO--><!--MD5=[dabef99325ac50171ea58ab1ba50e33a]
link ReservaDTO to cartaoDTO--><!--MD5=[3de836560c529782dbb4a4ba7458985f]
link cartaoDTO to debitoDiretoDTO--><!--MD5=[2a10331576df24b0337bf63158eda5dc]
@startuml
skinparam classAttributeIconSize 0

package Services <<Folder>> {

class PagamentoService {
  - Pagar()
  - Receber()
}

class EmailService {
  - ObterQRCode()
  - EnviarEmail()
}

class TokenService {
  - BuildToken()
}

}

package Controllers <<Folder>> {

class UtilizadoresController {
  +Get GetUtilizador()
  +Post RegistarUtilizador()
  +Post Login()
  +Delete DeleteUtilizador(nif)
}

class ReservasController {
  +Get GetReserva()
  +Get GetReservaById(id)
  +Post PostReserva()
  +Delete DeleteReserva(id)
  +FindAvailable(freguesia, inicio, fim)
}

class TransacoesController {
  +Get GetTransacao()
  +Get GetTransacaoById(id)
  +Post PostTransacao()
}

class ParquesController {
  +Get GetParque()
  +Get GetParqueById(id)
  +Post PostParque()
  +Put PutParque(id, parque)
  +Delete DeleteParque(id)
}

class MetodoPagamentosController {
  +Get GetMetodoPagamento()
  +Get GetMetodoPagamentoById(id)
  +Post PostMetodoPagamento()
  +Put PutMetodoPagamento(id, metodoPagamento)
  +Delete DeleteMetodoPagamento(id)
}

}

package Models <<Folder>> {

class Utilizador:IdentityUser{
  -Int nif PK
  -String nome
  -Double carteira
  -Int credencialId FK
}

class Reserva {
  -Int id PK
  -Int nifUtilizador FK
  -Int parqueId FK
  -Int transacaoID FK
  -Double custo
  -Int reservaParqueId
}

class Transacao {
  -Int Id PK
  -Int nifPagador FK
  -Int nifRecipiente FK
  -Int metodoId FK
  -Double valor
  -DateTime dataHora
}

class Parque {
  -Int Id PK
  -String apiUrl
}

class MetodoPagamento {
  -Int Id PK
  -String nome
  -String apiUrl
}

package "Abstract Class Credencial" <<Frame>> {

abstract class Credencial {
}

abstract PayPal:Credencial {
  -Int Id PK
  -String email
  -String password
  -Int metodoID FK
}

abstract Cartao:Credencial {
  -Int Id PK
  -String numero
  -String nome
  -String dataValidade
  -String cvv
  -Int metodoID FK
}

abstract DebitoDireto:Credencial {
  -Int Id PK
  -String iban
  -String nome
  -String rua
  -String codigoPostal
  -String freguesia
  -DateTime dataSubscricao
  -Int metodoID FK
}

}

}

package Data <<Folder>> {

class Context {
  -DbSet<Reserva> Reservas
  -DbSet<Transacao> Transacoes
  -DbSet<Parque> Parques
  -DbSet<MetodoPagamento> MetodosPagamento
  -DbSet<Paypal> Paypal
  -DbSet<Cartao> Cartoes
  -DbSet<DebitoDireto> DebitosDiretos
}

}

package DTOs <<Folder>> {

class ReservaDTO {
  -String RuaParque
  -Int NumeroLugar
  -String FilaLugar
  -Int AndarLugar
  -DateTime inicio
  -DateTime fim
}

class paypalDTO {
  -String email
  -String password
  -Double custo
  -String emailDestinatario
  -DateTime data
}

class cartaoDTO {
  -String numero
  -String nome
  -String dataValidade
  -String cvv
  -Double custo
  -Int nifDestinatario
  -DateTime data
}

class debitoDiretoDTO {
  -String iban
  -String nome
  -String rua
  -String codigoPostal
  -String freguesia
  -Double custo
  -Int nifDestinatario
  -DateTime data
}

}

UtilizadoresController ..> "Utilizador:IdentityUser"
UtilizadoresController ..> Context
ReservasController ..> Reserva
ReservasController ..> Context
ReservasController ..> PagamentoService
ReservasController ..> EmailService
TransacoesController ..> Transacao
TransacoesController ..> Context
ParquesController ..> Parque
ParquesController ..> Context
MetodoPagamentosController ..> MetodoPagamento
MetodoPagamentosController ..> Context

Context "1" - -> "0..*" "Utilizador:IdentityUser": tem
Context "1" - -> "0..*" Reserva: tem
Context "1" - -> "0..*" Transacao: tem
Context "1" - -> "0..*" Parque: tem
Context "1" - -> "0..*" MetodoPagamento: tem
Context "1" - -> "0..*" "PayPal:Credencial": tem
Context "1" - -> "0..*" "Cartao:Credencial": tem
Context "1" - -> "0..*" "DebitoDireto:Credencial": tem

Reserva "0..*" - -> "1" "Utilizador:IdentityUser": tem
Reserva "0..*" - -> "1" Transacao: tem
Transacao"0..*" - -> "1" MetodoPagamento: tem
Parque "1" - -> "0..*" Reserva: tem
"Utilizador:IdentityUser" "1" - -> "1" Credencial: tem
Credencial - -> "PayPal:Credencial": pode ser
Credencial - -> "Cartao:Credencial": pode ser
Credencial - -> "DebitoDireto:Credencial": pode ser
"PayPal:Credencial" "0..*" - -> "1" MetodoPagamento: tem
"Cartao:Credencial" "0..*" - -> "1" MetodoPagamento: tem
"DebitoDireto:Credencial" "0..*" - -> "1" MetodoPagamento: tem
@enduml

PlantUML version 1.2021.01(Tue Feb 02 07:55:08 UTC 2021)
(GPL source distribution)
Java Runtime: Java(TM) SE Runtime Environment
JVM: Java HotSpot(TM) 64-Bit Server VM
Default Encoding: UTF-8
Language: en
Country: US
--></g></svg>