<?xml version="1.0" encoding="UTF-8" standalone="no"?><svg xmlns="http://www.w3.org/2000/svg" xmlns:xlink="http://www.w3.org/1999/xlink" contentScriptType="application/ecmascript" contentStyleType="text/css" height="1206px" preserveAspectRatio="none" style="width:2129px;height:1206px;" version="1.1" viewBox="0 0 2129 1206" width="2129px" zoomAndPan="magnify"><defs><filter height="300%" id="f43g5v6dbt7om" width="300%" x="-1" y="-1"><feGaussianBlur result="blurOut" stdDeviation="2.0"/><feColorMatrix in="blurOut" result="blurOut2" type="matrix" values="0 0 0 0 0 0 0 0 0 0 0 0 0 0 0 0 0 0 .4 0"/><feOffset dx="4.0" dy="4.0" in="blurOut2" result="blurOut3"/><feBlend in="SourceGraphic" in2="blurOut3" mode="normal"/></filter></defs><g><!--MD5=[cdfd548b3455e70392372b1f27091970]
cluster Services--><polygon fill="#FFFFFF" filter="url(#f43g5v6dbt7om)" points="393,251,466,251,473,273.2969,714,273.2969,714,376,393,376,393,251" style="stroke:#000000;stroke-width:1.5;"/><line style="stroke:#000000;stroke-width:1.5;" x1="393" x2="473" y1="273.2969" y2="273.2969"/><text fill="#000000" font-family="sans-serif" font-size="14" font-weight="bold" lengthAdjust="spacing" textLength="67" x="397" y="265.9951">Services</text><!--MD5=[ed1d20ea533a2a0e7df5ba3c35e56ced]
cluster Controllers--><polygon fill="#FFFFFF" filter="url(#f43g5v6dbt7om)" points="896,12.5,992,12.5,999,34.7969,2112,34.7969,2112,175.5,896,175.5,896,12.5" style="stroke:#000000;stroke-width:1.5;"/><line style="stroke:#000000;stroke-width:1.5;" x1="896" x2="999" y1="34.7969" y2="34.7969"/><text fill="#000000" font-family="sans-serif" font-size="14" font-weight="bold" lengthAdjust="spacing" textLength="90" x="900" y="27.4951">Controllers</text><!--MD5=[027ebfd53c01aea08f474edbf35d0797]
cluster Models--><polygon fill="#FFFFFF" filter="url(#f43g5v6dbt7om)" points="738,225.5,801,225.5,808,247.7969,1492,247.7969,1492,1199,738,1199,738,225.5" style="stroke:#000000;stroke-width:1.5;"/><line style="stroke:#000000;stroke-width:1.5;" x1="738" x2="808" y1="247.7969" y2="247.7969"/><text fill="#000000" font-family="sans-serif" font-size="14" font-weight="bold" lengthAdjust="spacing" textLength="57" x="742" y="240.4951">Models</text><!--MD5=[e78b582c58469ade2dfd3feff264ec83]
cluster Abstract Class Credencial--><rect fill="#FFFFFF" filter="url(#f43g5v6dbt7om)" height="364.5" style="stroke:#000000;stroke-width:1.5;" width="566" x="762" y="669.5"/><path d="M981,669.5 L981,678.7969 L971,688.7969 L762,688.7969 " fill="none" style="stroke:#000000;stroke-width:1.5;"/><text fill="#000000" font-family="sans-serif" font-size="14" font-weight="bold" lengthAdjust="spacing" textLength="209" x="765" y="683.4951">Abstract Class Credencial</text><!--MD5=[f21b1f164e99c6b37934f23ad048ad54]
cluster Data--><polygon fill="#FFFFFF" filter="url(#f43g5v6dbt7om)" points="1516,213,1561,213,1568,235.2969,1840,235.2969,1840,414,1516,414,1516,213" style="stroke:#000000;stroke-width:1.5;"/><line style="stroke:#000000;stroke-width:1.5;" x1="1516" x2="1568" y1="235.2969" y2="235.2969"/><text fill="#000000" font-family="sans-serif" font-size="14" font-weight="bold" lengthAdjust="spacing" textLength="39" x="1520" y="227.9951">Data</text><!--MD5=[79f6d8311de756be0abfe06353b7a6cc]
cluster DTOs--><polygon fill="#FFFFFF" filter="url(#f43g5v6dbt7om)" points="16,6,65,6,72,28.2969,369,28.2969,369,414,16,414,16,6" style="stroke:#000000;stroke-width:1.5;"/><line style="stroke:#000000;stroke-width:1.5;" x1="16" x2="72" y1="28.2969" y2="28.2969"/><text fill="#000000" font-family="sans-serif" font-size="14" font-weight="bold" lengthAdjust="spacing" textLength="43" x="20" y="20.9951">DTOs</text><!--MD5=[73e5466d51728114e53770fb62dc101d]
class PagamentoService--><rect codeLine="5" fill="#FEFECE" filter="url(#f43g5v6dbt7om)" height="73.6094" id="PagamentoService" style="stroke:#A80036;stroke-width:1.5;" width="144" x="409" y="286"/><ellipse cx="424" cy="302" fill="#ADD1B2" rx="11" ry="11" style="stroke:#A80036;stroke-width:1.0;"/><path d="M426.3438,297.6719 C425.4063,297.2344 424.8125,297.0938 423.9375,297.0938 C421.3125,297.0938 419.3125,299.1719 419.3125,301.8906 L419.3125,303.0156 C419.3125,305.5938 421.4219,307.4844 424.3125,307.4844 C425.5313,307.4844 426.6875,307.1875 427.4375,306.6406 C428.0156,306.2344 428.3438,305.7813 428.3438,305.3906 C428.3438,304.9375 427.9531,304.5469 427.4844,304.5469 C427.2656,304.5469 427.0625,304.625 426.875,304.8125 C426.4219,305.2969 426.4219,305.2969 426.2344,305.3906 C425.8125,305.6563 425.125,305.7813 424.3594,305.7813 C422.3125,305.7813 421.0156,304.6875 421.0156,302.9844 L421.0156,301.8906 C421.0156,300.1094 422.2656,298.7969 424,298.7969 C424.5781,298.7969 425.1875,298.9531 425.6563,299.2031 C426.1406,299.4844 426.3125,299.7031 426.4063,300.1094 C426.4688,300.5156 426.5,300.6406 426.6406,300.7656 C426.7813,300.9063 427.0156,301.0156 427.2344,301.0156 C427.5,301.0156 427.7656,300.875 427.9375,300.6563 C428.0469,300.5 428.0781,300.3125 428.0781,299.8906 L428.0781,298.4688 C428.0781,298.0313 428.0625,297.9063 427.9688,297.75 C427.8125,297.4844 427.5313,297.3438 427.2344,297.3438 C426.9375,297.3438 426.7344,297.4375 426.5156,297.75 L426.3438,297.6719 Z " fill="#000000"/><text fill="#000000" font-family="sans-serif" font-size="12" lengthAdjust="spacing" textLength="112" x="438" y="306.1543">PagamentoService</text><line style="stroke:#A80036;stroke-width:1.5;" x1="410" x2="552" y1="318" y2="318"/><line style="stroke:#A80036;stroke-width:1.5;" x1="410" x2="552" y1="326" y2="326"/><text fill="#000000" font-family="sans-serif" font-size="11" lengthAdjust="spacing" textLength="43" x="415" y="340.2104">-Pagar()</text><text fill="#000000" font-family="sans-serif" font-size="11" lengthAdjust="spacing" textLength="60" x="415" y="353.0151">-Receber()</text><!--MD5=[bcf33e039c9f38a306ec5209c2a9f4f8]
class EmailService--><rect codeLine="10" fill="#FEFECE" filter="url(#f43g5v6dbt7om)" height="73.6094" id="EmailService" style="stroke:#A80036;stroke-width:1.5;" width="109" x="588.5" y="286"/><ellipse cx="603.5" cy="302" fill="#ADD1B2" rx="11" ry="11" style="stroke:#A80036;stroke-width:1.0;"/><path d="M605.8438,297.6719 C604.9063,297.2344 604.3125,297.0938 603.4375,297.0938 C600.8125,297.0938 598.8125,299.1719 598.8125,301.8906 L598.8125,303.0156 C598.8125,305.5938 600.9219,307.4844 603.8125,307.4844 C605.0313,307.4844 606.1875,307.1875 606.9375,306.6406 C607.5156,306.2344 607.8438,305.7813 607.8438,305.3906 C607.8438,304.9375 607.4531,304.5469 606.9844,304.5469 C606.7656,304.5469 606.5625,304.625 606.375,304.8125 C605.9219,305.2969 605.9219,305.2969 605.7344,305.3906 C605.3125,305.6563 604.625,305.7813 603.8594,305.7813 C601.8125,305.7813 600.5156,304.6875 600.5156,302.9844 L600.5156,301.8906 C600.5156,300.1094 601.7656,298.7969 603.5,298.7969 C604.0781,298.7969 604.6875,298.9531 605.1563,299.2031 C605.6406,299.4844 605.8125,299.7031 605.9063,300.1094 C605.9688,300.5156 606,300.6406 606.1406,300.7656 C606.2813,300.9063 606.5156,301.0156 606.7344,301.0156 C607,301.0156 607.2656,300.875 607.4375,300.6563 C607.5469,300.5 607.5781,300.3125 607.5781,299.8906 L607.5781,298.4688 C607.5781,298.0313 607.5625,297.9063 607.4688,297.75 C607.3125,297.4844 607.0313,297.3438 606.7344,297.3438 C606.4375,297.3438 606.2344,297.4375 606.0156,297.75 L605.8438,297.6719 Z " fill="#000000"/><text fill="#000000" font-family="sans-serif" font-size="12" lengthAdjust="spacing" textLength="77" x="617.5" y="306.1543">EmailService</text><line style="stroke:#A80036;stroke-width:1.5;" x1="589.5" x2="696.5" y1="318" y2="318"/><line style="stroke:#A80036;stroke-width:1.5;" x1="589.5" x2="696.5" y1="326" y2="326"/><text fill="#000000" font-family="sans-serif" font-size="11" lengthAdjust="spacing" textLength="90" x="594.5" y="340.2104">-ObterQRCode()</text><text fill="#000000" font-family="sans-serif" font-size="11" lengthAdjust="spacing" textLength="78" x="594.5" y="353.0151">-EnviarEmail()</text><!--MD5=[f9eb12be9a4c6578c6c59b6b87282445]
class UtilizadoresController--><rect codeLine="19" fill="#FEFECE" filter="url(#f43g5v6dbt7om)" height="112.0234" id="UtilizadoresController" style="stroke:#A80036;stroke-width:1.5;" width="194" x="1167" y="47.5"/><ellipse cx="1195.95" cy="63.5" fill="#ADD1B2" rx="11" ry="11" style="stroke:#A80036;stroke-width:1.0;"/><path d="M1198.2938,59.1719 C1197.3563,58.7344 1196.7625,58.5938 1195.8875,58.5938 C1193.2625,58.5938 1191.2625,60.6719 1191.2625,63.3906 L1191.2625,64.5156 C1191.2625,67.0938 1193.3719,68.9844 1196.2625,68.9844 C1197.4813,68.9844 1198.6375,68.6875 1199.3875,68.1406 C1199.9656,67.7344 1200.2938,67.2813 1200.2938,66.8906 C1200.2938,66.4375 1199.9031,66.0469 1199.4344,66.0469 C1199.2156,66.0469 1199.0125,66.125 1198.825,66.3125 C1198.3719,66.7969 1198.3719,66.7969 1198.1844,66.8906 C1197.7625,67.1563 1197.075,67.2813 1196.3094,67.2813 C1194.2625,67.2813 1192.9656,66.1875 1192.9656,64.4844 L1192.9656,63.3906 C1192.9656,61.6094 1194.2156,60.2969 1195.95,60.2969 C1196.5281,60.2969 1197.1375,60.4531 1197.6063,60.7031 C1198.0906,60.9844 1198.2625,61.2031 1198.3563,61.6094 C1198.4188,62.0156 1198.45,62.1406 1198.5906,62.2656 C1198.7313,62.4063 1198.9656,62.5156 1199.1844,62.5156 C1199.45,62.5156 1199.7156,62.375 1199.8875,62.1563 C1199.9969,62 1200.0281,61.8125 1200.0281,61.3906 L1200.0281,59.9688 C1200.0281,59.5313 1200.0125,59.4063 1199.9188,59.25 C1199.7625,58.9844 1199.4813,58.8438 1199.1844,58.8438 C1198.8875,58.8438 1198.6844,58.9375 1198.4656,59.25 L1198.2938,59.1719 Z " fill="#000000"/><text fill="#000000" font-family="sans-serif" font-size="12" lengthAdjust="spacing" textLength="131" x="1213.05" y="67.6543">UtilizadoresController</text><line style="stroke:#A80036;stroke-width:1.5;" x1="1168" x2="1360" y1="79.5" y2="79.5"/><line style="stroke:#A80036;stroke-width:1.5;" x1="1168" x2="1360" y1="87.5" y2="87.5"/><text fill="#000000" font-family="sans-serif" font-size="11" lengthAdjust="spacing" textLength="116" x="1173" y="101.7104">+Get GetUtilizador()</text><text fill="#000000" font-family="sans-serif" font-size="11" lengthAdjust="spacing" textLength="155" x="1173" y="114.5151">+Get GetUtilizadorById(nif)</text><text fill="#000000" font-family="sans-serif" font-size="11" lengthAdjust="spacing" textLength="120" x="1173" y="127.3198">+Post PostUtilizador()</text><text fill="#000000" font-family="sans-serif" font-size="11" lengthAdjust="spacing" textLength="182" x="1173" y="140.1245">+Put PutUtilizador(nif, Utilizador)</text><text fill="#000000" font-family="sans-serif" font-size="11" lengthAdjust="spacing" textLength="168" x="1173" y="152.9292">+Delete DeleteUtilizador(nif)</text><!--MD5=[884d341d7584b75b159fb4abcbb8e424]
class ReservasController--><rect codeLine="27" fill="#FEFECE" filter="url(#f43g5v6dbt7om)" height="112.0234" id="ReservasController" style="stroke:#A80036;stroke-width:1.5;" width="220" x="912" y="47.5"/><ellipse cx="960.25" cy="63.5" fill="#ADD1B2" rx="11" ry="11" style="stroke:#A80036;stroke-width:1.0;"/><path d="M962.5938,59.1719 C961.6563,58.7344 961.0625,58.5938 960.1875,58.5938 C957.5625,58.5938 955.5625,60.6719 955.5625,63.3906 L955.5625,64.5156 C955.5625,67.0938 957.6719,68.9844 960.5625,68.9844 C961.7813,68.9844 962.9375,68.6875 963.6875,68.1406 C964.2656,67.7344 964.5938,67.2813 964.5938,66.8906 C964.5938,66.4375 964.2031,66.0469 963.7344,66.0469 C963.5156,66.0469 963.3125,66.125 963.125,66.3125 C962.6719,66.7969 962.6719,66.7969 962.4844,66.8906 C962.0625,67.1563 961.375,67.2813 960.6094,67.2813 C958.5625,67.2813 957.2656,66.1875 957.2656,64.4844 L957.2656,63.3906 C957.2656,61.6094 958.5156,60.2969 960.25,60.2969 C960.8281,60.2969 961.4375,60.4531 961.9063,60.7031 C962.3906,60.9844 962.5625,61.2031 962.6563,61.6094 C962.7188,62.0156 962.75,62.1406 962.8906,62.2656 C963.0313,62.4063 963.2656,62.5156 963.4844,62.5156 C963.75,62.5156 964.0156,62.375 964.1875,62.1563 C964.2969,62 964.3281,61.8125 964.3281,61.3906 L964.3281,59.9688 C964.3281,59.5313 964.3125,59.4063 964.2188,59.25 C964.0625,58.9844 963.7813,58.8438 963.4844,58.8438 C963.1875,58.8438 962.9844,58.9375 962.7656,59.25 L962.5938,59.1719 Z " fill="#000000"/><text fill="#000000" font-family="sans-serif" font-size="12" lengthAdjust="spacing" textLength="115" x="980.75" y="67.6543">ReservasController</text><line style="stroke:#A80036;stroke-width:1.5;" x1="913" x2="1131" y1="79.5" y2="79.5"/><line style="stroke:#A80036;stroke-width:1.5;" x1="913" x2="1131" y1="87.5" y2="87.5"/><text fill="#000000" font-family="sans-serif" font-size="11" lengthAdjust="spacing" textLength="110" x="918" y="101.7104">+Get GetReserva()</text><text fill="#000000" font-family="sans-serif" font-size="11" lengthAdjust="spacing" textLength="145" x="918" y="114.5151">+Get GetReservaById(id)</text><text fill="#000000" font-family="sans-serif" font-size="11" lengthAdjust="spacing" textLength="114" x="918" y="127.3198">+Post PostReserva()</text><text fill="#000000" font-family="sans-serif" font-size="11" lengthAdjust="spacing" textLength="158" x="918" y="140.1245">+Delete DeleteReserva(id)</text><text fill="#000000" font-family="sans-serif" font-size="11" lengthAdjust="spacing" textLength="208" x="918" y="152.9292">+FindAvailable(freguesia, inicio, fim)</text><!--MD5=[5497ff8c96f50abd293e35e15183e187]
class TransacoesController--><rect codeLine="35" fill="#FEFECE" filter="url(#f43g5v6dbt7om)" height="86.4141" id="TransacoesController" style="stroke:#A80036;stroke-width:1.5;" width="168" x="1396" y="60.5"/><ellipse cx="1414.15" cy="76.5" fill="#ADD1B2" rx="11" ry="11" style="stroke:#A80036;stroke-width:1.0;"/><path d="M1416.4938,72.1719 C1415.5563,71.7344 1414.9625,71.5938 1414.0875,71.5938 C1411.4625,71.5938 1409.4625,73.6719 1409.4625,76.3906 L1409.4625,77.5156 C1409.4625,80.0938 1411.5719,81.9844 1414.4625,81.9844 C1415.6813,81.9844 1416.8375,81.6875 1417.5875,81.1406 C1418.1656,80.7344 1418.4938,80.2813 1418.4938,79.8906 C1418.4938,79.4375 1418.1031,79.0469 1417.6344,79.0469 C1417.4156,79.0469 1417.2125,79.125 1417.025,79.3125 C1416.5719,79.7969 1416.5719,79.7969 1416.3844,79.8906 C1415.9625,80.1563 1415.275,80.2813 1414.5094,80.2813 C1412.4625,80.2813 1411.1656,79.1875 1411.1656,77.4844 L1411.1656,76.3906 C1411.1656,74.6094 1412.4156,73.2969 1414.15,73.2969 C1414.7281,73.2969 1415.3375,73.4531 1415.8063,73.7031 C1416.2906,73.9844 1416.4625,74.2031 1416.5563,74.6094 C1416.6188,75.0156 1416.65,75.1406 1416.7906,75.2656 C1416.9313,75.4063 1417.1656,75.5156 1417.3844,75.5156 C1417.65,75.5156 1417.9156,75.375 1418.0875,75.1563 C1418.1969,75 1418.2281,74.8125 1418.2281,74.3906 L1418.2281,72.9688 C1418.2281,72.5313 1418.2125,72.4063 1418.1188,72.25 C1417.9625,71.9844 1417.6813,71.8438 1417.3844,71.8438 C1417.0875,71.8438 1416.8844,71.9375 1416.6656,72.25 L1416.4938,72.1719 Z " fill="#000000"/><text fill="#000000" font-family="sans-serif" font-size="12" lengthAdjust="spacing" textLength="129" x="1428.85" y="80.6543">TransacoesController</text><line style="stroke:#A80036;stroke-width:1.5;" x1="1397" x2="1563" y1="92.5" y2="92.5"/><line style="stroke:#A80036;stroke-width:1.5;" x1="1397" x2="1563" y1="100.5" y2="100.5"/><text fill="#000000" font-family="sans-serif" font-size="11" lengthAdjust="spacing" textLength="121" x="1402" y="114.7104">+Get GetTransacao()</text><text fill="#000000" font-family="sans-serif" font-size="11" lengthAdjust="spacing" textLength="156" x="1402" y="127.5151">+Get GetTransacaoById(id)</text><text fill="#000000" font-family="sans-serif" font-size="11" lengthAdjust="spacing" textLength="125" x="1402" y="140.3198">+Post PostTransacao()</text><!--MD5=[0eebc07912bfe174f9973dd50f89fb9e]
class ParquesController--><rect codeLine="41" fill="#FEFECE" filter="url(#f43g5v6dbt7om)" height="112.0234" id="ParquesController" style="stroke:#A80036;stroke-width:1.5;" width="163" x="1599.5" y="47.5"/><ellipse cx="1625.3" cy="63.5" fill="#ADD1B2" rx="11" ry="11" style="stroke:#A80036;stroke-width:1.0;"/><path d="M1627.6438,59.1719 C1626.7063,58.7344 1626.1125,58.5938 1625.2375,58.5938 C1622.6125,58.5938 1620.6125,60.6719 1620.6125,63.3906 L1620.6125,64.5156 C1620.6125,67.0938 1622.7219,68.9844 1625.6125,68.9844 C1626.8313,68.9844 1627.9875,68.6875 1628.7375,68.1406 C1629.3156,67.7344 1629.6438,67.2813 1629.6438,66.8906 C1629.6438,66.4375 1629.2531,66.0469 1628.7844,66.0469 C1628.5656,66.0469 1628.3625,66.125 1628.175,66.3125 C1627.7219,66.7969 1627.7219,66.7969 1627.5344,66.8906 C1627.1125,67.1563 1626.425,67.2813 1625.6594,67.2813 C1623.6125,67.2813 1622.3156,66.1875 1622.3156,64.4844 L1622.3156,63.3906 C1622.3156,61.6094 1623.5656,60.2969 1625.3,60.2969 C1625.8781,60.2969 1626.4875,60.4531 1626.9563,60.7031 C1627.4406,60.9844 1627.6125,61.2031 1627.7063,61.6094 C1627.7688,62.0156 1627.8,62.1406 1627.9406,62.2656 C1628.0813,62.4063 1628.3156,62.5156 1628.5344,62.5156 C1628.8,62.5156 1629.0656,62.375 1629.2375,62.1563 C1629.3469,62 1629.3781,61.8125 1629.3781,61.3906 L1629.3781,59.9688 C1629.3781,59.5313 1629.3625,59.4063 1629.2688,59.25 C1629.1125,58.9844 1628.8313,58.8438 1628.5344,58.8438 C1628.2375,58.8438 1628.0344,58.9375 1627.8156,59.25 L1627.6438,59.1719 Z " fill="#000000"/><text fill="#000000" font-family="sans-serif" font-size="12" lengthAdjust="spacing" textLength="107" x="1641.7" y="67.6543">ParquesController</text><line style="stroke:#A80036;stroke-width:1.5;" x1="1600.5" x2="1761.5" y1="79.5" y2="79.5"/><line style="stroke:#A80036;stroke-width:1.5;" x1="1600.5" x2="1761.5" y1="87.5" y2="87.5"/><text fill="#000000" font-family="sans-serif" font-size="11" lengthAdjust="spacing" textLength="102" x="1605.5" y="101.7104">+Get GetParque()</text><text fill="#000000" font-family="sans-serif" font-size="11" lengthAdjust="spacing" textLength="137" x="1605.5" y="114.5151">+Get GetParqueById(id)</text><text fill="#000000" font-family="sans-serif" font-size="11" lengthAdjust="spacing" textLength="106" x="1605.5" y="127.3198">+Post PostParque()</text><text fill="#000000" font-family="sans-serif" font-size="11" lengthAdjust="spacing" textLength="151" x="1605.5" y="140.1245">+Put PutParque(id, parque)</text><text fill="#000000" font-family="sans-serif" font-size="11" lengthAdjust="spacing" textLength="150" x="1605.5" y="152.9292">+Delete DeleteParque(id)</text><!--MD5=[8aae60f72113f84792ccdc4d65a5d4de]
class MetodoPagamentosController--><rect codeLine="49" fill="#FEFECE" filter="url(#f43g5v6dbt7om)" height="112.0234" id="MetodoPagamentosController" style="stroke:#A80036;stroke-width:1.5;" width="298" x="1798" y="47.5"/><ellipse cx="1853.75" cy="63.5" fill="#ADD1B2" rx="11" ry="11" style="stroke:#A80036;stroke-width:1.0;"/><path d="M1856.0938,59.1719 C1855.1563,58.7344 1854.5625,58.5938 1853.6875,58.5938 C1851.0625,58.5938 1849.0625,60.6719 1849.0625,63.3906 L1849.0625,64.5156 C1849.0625,67.0938 1851.1719,68.9844 1854.0625,68.9844 C1855.2813,68.9844 1856.4375,68.6875 1857.1875,68.1406 C1857.7656,67.7344 1858.0938,67.2813 1858.0938,66.8906 C1858.0938,66.4375 1857.7031,66.0469 1857.2344,66.0469 C1857.0156,66.0469 1856.8125,66.125 1856.625,66.3125 C1856.1719,66.7969 1856.1719,66.7969 1855.9844,66.8906 C1855.5625,67.1563 1854.875,67.2813 1854.1094,67.2813 C1852.0625,67.2813 1850.7656,66.1875 1850.7656,64.4844 L1850.7656,63.3906 C1850.7656,61.6094 1852.0156,60.2969 1853.75,60.2969 C1854.3281,60.2969 1854.9375,60.4531 1855.4063,60.7031 C1855.8906,60.9844 1856.0625,61.2031 1856.1563,61.6094 C1856.2188,62.0156 1856.25,62.1406 1856.3906,62.2656 C1856.5313,62.4063 1856.7656,62.5156 1856.9844,62.5156 C1857.25,62.5156 1857.5156,62.375 1857.6875,62.1563 C1857.7969,62 1857.8281,61.8125 1857.8281,61.3906 L1857.8281,59.9688 C1857.8281,59.5313 1857.8125,59.4063 1857.7188,59.25 C1857.5625,58.9844 1857.2813,58.8438 1856.9844,58.8438 C1856.6875,58.8438 1856.4844,58.9375 1856.2656,59.25 L1856.0938,59.1719 Z " fill="#000000"/><text fill="#000000" font-family="sans-serif" font-size="12" lengthAdjust="spacing" textLength="178" x="1874.25" y="67.6543">MetodoPagamentosController</text><line style="stroke:#A80036;stroke-width:1.5;" x1="1799" x2="2095" y1="79.5" y2="79.5"/><line style="stroke:#A80036;stroke-width:1.5;" x1="1799" x2="2095" y1="87.5" y2="87.5"/><text fill="#000000" font-family="sans-serif" font-size="11" lengthAdjust="spacing" textLength="169" x="1804" y="101.7104">+Get GetMetodoPagamento()</text><text fill="#000000" font-family="sans-serif" font-size="11" lengthAdjust="spacing" textLength="204" x="1804" y="114.5151">+Get GetMetodoPagamentoById(id)</text><text fill="#000000" font-family="sans-serif" font-size="11" lengthAdjust="spacing" textLength="173" x="1804" y="127.3198">+Post PostMetodoPagamento()</text><text fill="#000000" font-family="sans-serif" font-size="11" lengthAdjust="spacing" textLength="286" x="1804" y="140.1245">+Put PutMetodoPagamento(id, metodoPagamento)</text><text fill="#000000" font-family="sans-serif" font-size="11" lengthAdjust="spacing" textLength="217" x="1804" y="152.9292">+Delete DeleteMetodoPagamento(id)</text><!--MD5=[5dd1d6732c071e710b9290b531f2fa3b]
class Utilizador--><rect codeLine="61" fill="#FEFECE" filter="url(#f43g5v6dbt7om)" height="112.0234" id="Utilizador" style="stroke:#A80036;stroke-width:1.5;" width="104" x="1192" y="477"/><ellipse cx="1213.75" cy="493" fill="#ADD1B2" rx="11" ry="11" style="stroke:#A80036;stroke-width:1.0;"/><path d="M1216.0938,488.6719 C1215.1563,488.2344 1214.5625,488.0938 1213.6875,488.0938 C1211.0625,488.0938 1209.0625,490.1719 1209.0625,492.8906 L1209.0625,494.0156 C1209.0625,496.5938 1211.1719,498.4844 1214.0625,498.4844 C1215.2813,498.4844 1216.4375,498.1875 1217.1875,497.6406 C1217.7656,497.2344 1218.0938,496.7813 1218.0938,496.3906 C1218.0938,495.9375 1217.7031,495.5469 1217.2344,495.5469 C1217.0156,495.5469 1216.8125,495.625 1216.625,495.8125 C1216.1719,496.2969 1216.1719,496.2969 1215.9844,496.3906 C1215.5625,496.6563 1214.875,496.7813 1214.1094,496.7813 C1212.0625,496.7813 1210.7656,495.6875 1210.7656,493.9844 L1210.7656,492.8906 C1210.7656,491.1094 1212.0156,489.7969 1213.75,489.7969 C1214.3281,489.7969 1214.9375,489.9531 1215.4063,490.2031 C1215.8906,490.4844 1216.0625,490.7031 1216.1563,491.1094 C1216.2188,491.5156 1216.25,491.6406 1216.3906,491.7656 C1216.5313,491.9063 1216.7656,492.0156 1216.9844,492.0156 C1217.25,492.0156 1217.5156,491.875 1217.6875,491.6563 C1217.7969,491.5 1217.8281,491.3125 1217.8281,490.8906 L1217.8281,489.4688 C1217.8281,489.0313 1217.8125,488.9063 1217.7188,488.75 C1217.5625,488.4844 1217.2813,488.3438 1216.9844,488.3438 C1216.6875,488.3438 1216.4844,488.4375 1216.2656,488.75 L1216.0938,488.6719 Z " fill="#000000"/><text fill="#000000" font-family="sans-serif" font-size="12" lengthAdjust="spacing" textLength="57" x="1229.25" y="497.1543">Utilizador</text><line style="stroke:#A80036;stroke-width:1.5;" x1="1193" x2="1295" y1="509" y2="509"/><text fill="#000000" font-family="sans-serif" font-size="11" lengthAdjust="spacing" textLength="53" x="1198" y="523.2104">-Int nif PK</text><text fill="#000000" font-family="sans-serif" font-size="11" lengthAdjust="spacing" textLength="74" x="1198" y="536.0151">-String nome</text><text fill="#000000" font-family="sans-serif" font-size="11" lengthAdjust="spacing" textLength="73" x="1198" y="548.8198">-String email</text><text fill="#000000" font-family="sans-serif" font-size="11" lengthAdjust="spacing" textLength="92" x="1198" y="561.6245">-Double carteira</text><text fill="#000000" font-family="sans-serif" font-size="11" lengthAdjust="spacing" textLength="91" x="1198" y="574.4292">-Int credencialId</text><line style="stroke:#A80036;stroke-width:1.5;" x1="1193" x2="1295" y1="581.0234" y2="581.0234"/><!--MD5=[6ea9d6598d9760662639554c9857ab6b]
class Reserva--><rect codeLine="69" fill="#FEFECE" filter="url(#f43g5v6dbt7om)" height="124.8281" id="Reserva" style="stroke:#A80036;stroke-width:1.5;" width="127" x="1065.5" y="260.5"/><ellipse cx="1101.2" cy="276.5" fill="#ADD1B2" rx="11" ry="11" style="stroke:#A80036;stroke-width:1.0;"/><path d="M1103.5438,272.1719 C1102.6063,271.7344 1102.0125,271.5938 1101.1375,271.5938 C1098.5125,271.5938 1096.5125,273.6719 1096.5125,276.3906 L1096.5125,277.5156 C1096.5125,280.0938 1098.6219,281.9844 1101.5125,281.9844 C1102.7313,281.9844 1103.8875,281.6875 1104.6375,281.1406 C1105.2156,280.7344 1105.5438,280.2813 1105.5438,279.8906 C1105.5438,279.4375 1105.1531,279.0469 1104.6844,279.0469 C1104.4656,279.0469 1104.2625,279.125 1104.075,279.3125 C1103.6219,279.7969 1103.6219,279.7969 1103.4344,279.8906 C1103.0125,280.1563 1102.325,280.2813 1101.5594,280.2813 C1099.5125,280.2813 1098.2156,279.1875 1098.2156,277.4844 L1098.2156,276.3906 C1098.2156,274.6094 1099.4656,273.2969 1101.2,273.2969 C1101.7781,273.2969 1102.3875,273.4531 1102.8563,273.7031 C1103.3406,273.9844 1103.5125,274.2031 1103.6063,274.6094 C1103.6688,275.0156 1103.7,275.1406 1103.8406,275.2656 C1103.9813,275.4063 1104.2156,275.5156 1104.4344,275.5156 C1104.7,275.5156 1104.9656,275.375 1105.1375,275.1563 C1105.2469,275 1105.2781,274.8125 1105.2781,274.3906 L1105.2781,272.9688 C1105.2781,272.5313 1105.2625,272.4063 1105.1688,272.25 C1105.0125,271.9844 1104.7313,271.8438 1104.4344,271.8438 C1104.1375,271.8438 1103.9344,271.9375 1103.7156,272.25 L1103.5438,272.1719 Z " fill="#000000"/><text fill="#000000" font-family="sans-serif" font-size="12" lengthAdjust="spacing" textLength="49" x="1119.8" y="280.6543">Reserva</text><line style="stroke:#A80036;stroke-width:1.5;" x1="1066.5" x2="1191.5" y1="292.5" y2="292.5"/><text fill="#000000" font-family="sans-serif" font-size="11" lengthAdjust="spacing" textLength="49" x="1071.5" y="306.7104">-Int id PK</text><text fill="#000000" font-family="sans-serif" font-size="11" lengthAdjust="spacing" textLength="106" x="1071.5" y="319.5151">-Int nifUtilizador FK</text><text fill="#000000" font-family="sans-serif" font-size="11" lengthAdjust="spacing" textLength="89" x="1071.5" y="332.3198">-Int parqueId FK</text><text fill="#000000" font-family="sans-serif" font-size="11" lengthAdjust="spacing" textLength="79" x="1071.5" y="345.1245">-Double custo</text><text fill="#000000" font-family="sans-serif" font-size="11" lengthAdjust="spacing" textLength="106" x="1071.5" y="357.9292">-Int transacaoID FK</text><text fill="#000000" font-family="sans-serif" font-size="11" lengthAdjust="spacing" textLength="115" x="1071.5" y="370.7339">-Int reservaParqueId</text><line style="stroke:#A80036;stroke-width:1.5;" x1="1066.5" x2="1191.5" y1="377.3281" y2="377.3281"/><!--MD5=[2de463454f7588e20c9a29e8d111f9cc]
class Transacao--><rect codeLine="78" fill="#FEFECE" filter="url(#f43g5v6dbt7om)" height="124.8281" id="Transacao" style="stroke:#A80036;stroke-width:1.5;" width="131" x="1344.5" y="666"/><ellipse cx="1376.15" cy="682" fill="#ADD1B2" rx="11" ry="11" style="stroke:#A80036;stroke-width:1.0;"/><path d="M1378.4938,677.6719 C1377.5563,677.2344 1376.9625,677.0938 1376.0875,677.0938 C1373.4625,677.0938 1371.4625,679.1719 1371.4625,681.8906 L1371.4625,683.0156 C1371.4625,685.5938 1373.5719,687.4844 1376.4625,687.4844 C1377.6813,687.4844 1378.8375,687.1875 1379.5875,686.6406 C1380.1656,686.2344 1380.4938,685.7813 1380.4938,685.3906 C1380.4938,684.9375 1380.1031,684.5469 1379.6344,684.5469 C1379.4156,684.5469 1379.2125,684.625 1379.025,684.8125 C1378.5719,685.2969 1378.5719,685.2969 1378.3844,685.3906 C1377.9625,685.6563 1377.275,685.7813 1376.5094,685.7813 C1374.4625,685.7813 1373.1656,684.6875 1373.1656,682.9844 L1373.1656,681.8906 C1373.1656,680.1094 1374.4156,678.7969 1376.15,678.7969 C1376.7281,678.7969 1377.3375,678.9531 1377.8063,679.2031 C1378.2906,679.4844 1378.4625,679.7031 1378.5563,680.1094 C1378.6188,680.5156 1378.65,680.6406 1378.7906,680.7656 C1378.9313,680.9063 1379.1656,681.0156 1379.3844,681.0156 C1379.65,681.0156 1379.9156,680.875 1380.0875,680.6563 C1380.1969,680.5 1380.2281,680.3125 1380.2281,679.8906 L1380.2281,678.4688 C1380.2281,678.0313 1380.2125,677.9063 1380.1188,677.75 C1379.9625,677.4844 1379.6813,677.3438 1379.3844,677.3438 C1379.0875,677.3438 1378.8844,677.4375 1378.6656,677.75 L1378.4938,677.6719 Z " fill="#000000"/><text fill="#000000" font-family="sans-serif" font-size="12" lengthAdjust="spacing" textLength="62" x="1393.85" y="686.1543">Transacao</text><line style="stroke:#A80036;stroke-width:1.5;" x1="1345.5" x2="1474.5" y1="698" y2="698"/><text fill="#000000" font-family="sans-serif" font-size="11" lengthAdjust="spacing" textLength="49" x="1350.5" y="712.2104">-Int Id PK</text><text fill="#000000" font-family="sans-serif" font-size="11" lengthAdjust="spacing" textLength="98" x="1350.5" y="725.0151">-Int nifPagador FK</text><text fill="#000000" font-family="sans-serif" font-size="11" lengthAdjust="spacing" textLength="119" x="1350.5" y="737.8198">-Int nifRecepiente FK</text><text fill="#000000" font-family="sans-serif" font-size="11" lengthAdjust="spacing" textLength="77" x="1350.5" y="750.6245">-Double valor</text><text fill="#000000" font-family="sans-serif" font-size="11" lengthAdjust="spacing" textLength="116" x="1350.5" y="763.4292">-DateTime dataHora</text><text fill="#000000" font-family="sans-serif" font-size="11" lengthAdjust="spacing" textLength="93" x="1350.5" y="776.2339">-Int metodoId FK</text><line style="stroke:#A80036;stroke-width:1.5;" x1="1345.5" x2="1474.5" y1="782.8281" y2="782.8281"/><!--MD5=[1a083dbe42a284ae0ea7f6f701783206]
class Parque--><rect codeLine="87" fill="#FEFECE" filter="url(#f43g5v6dbt7om)" height="73.6094" id="Parque" style="stroke:#A80036;stroke-width:1.5;" width="90" x="1376" y="906"/><ellipse cx="1398.65" cy="922" fill="#ADD1B2" rx="11" ry="11" style="stroke:#A80036;stroke-width:1.0;"/><path d="M1400.9938,917.6719 C1400.0563,917.2344 1399.4625,917.0938 1398.5875,917.0938 C1395.9625,917.0938 1393.9625,919.1719 1393.9625,921.8906 L1393.9625,923.0156 C1393.9625,925.5938 1396.0719,927.4844 1398.9625,927.4844 C1400.1813,927.4844 1401.3375,927.1875 1402.0875,926.6406 C1402.6656,926.2344 1402.9938,925.7813 1402.9938,925.3906 C1402.9938,924.9375 1402.6031,924.5469 1402.1344,924.5469 C1401.9156,924.5469 1401.7125,924.625 1401.525,924.8125 C1401.0719,925.2969 1401.0719,925.2969 1400.8844,925.3906 C1400.4625,925.6563 1399.775,925.7813 1399.0094,925.7813 C1396.9625,925.7813 1395.6656,924.6875 1395.6656,922.9844 L1395.6656,921.8906 C1395.6656,920.1094 1396.9156,918.7969 1398.65,918.7969 C1399.2281,918.7969 1399.8375,918.9531 1400.3063,919.2031 C1400.7906,919.4844 1400.9625,919.7031 1401.0563,920.1094 C1401.1188,920.5156 1401.15,920.6406 1401.2906,920.7656 C1401.4313,920.9063 1401.6656,921.0156 1401.8844,921.0156 C1402.15,921.0156 1402.4156,920.875 1402.5875,920.6563 C1402.6969,920.5 1402.7281,920.3125 1402.7281,919.8906 L1402.7281,918.4688 C1402.7281,918.0313 1402.7125,917.9063 1402.6188,917.75 C1402.4625,917.4844 1402.1813,917.3438 1401.8844,917.3438 C1401.5875,917.3438 1401.3844,917.4375 1401.1656,917.75 L1400.9938,917.6719 Z " fill="#000000"/><text fill="#000000" font-family="sans-serif" font-size="12" lengthAdjust="spacing" textLength="41" x="1414.35" y="926.1543">Parque</text><line style="stroke:#A80036;stroke-width:1.5;" x1="1377" x2="1465" y1="938" y2="938"/><text fill="#000000" font-family="sans-serif" font-size="11" lengthAdjust="spacing" textLength="49" x="1382" y="952.2104">-Int Id PK</text><text fill="#000000" font-family="sans-serif" font-size="11" lengthAdjust="spacing" textLength="78" x="1382" y="965.0151">-String api_url</text><line style="stroke:#A80036;stroke-width:1.5;" x1="1377" x2="1465" y1="971.6094" y2="971.6094"/><!--MD5=[dd719319fb662e6a1a7d2797ca995003]
class MetodoPagamento--><rect codeLine="92" fill="#FEFECE" filter="url(#f43g5v6dbt7om)" height="86.4141" id="MetodoPagamento" style="stroke:#A80036;stroke-width:1.5;" width="144" x="1235" y="1097"/><ellipse cx="1250" cy="1113" fill="#ADD1B2" rx="11" ry="11" style="stroke:#A80036;stroke-width:1.0;"/><path d="M1252.3438,1108.6719 C1251.4063,1108.2344 1250.8125,1108.0938 1249.9375,1108.0938 C1247.3125,1108.0938 1245.3125,1110.1719 1245.3125,1112.8906 L1245.3125,1114.0156 C1245.3125,1116.5938 1247.4219,1118.4844 1250.3125,1118.4844 C1251.5313,1118.4844 1252.6875,1118.1875 1253.4375,1117.6406 C1254.0156,1117.2344 1254.3438,1116.7813 1254.3438,1116.3906 C1254.3438,1115.9375 1253.9531,1115.5469 1253.4844,1115.5469 C1253.2656,1115.5469 1253.0625,1115.625 1252.875,1115.8125 C1252.4219,1116.2969 1252.4219,1116.2969 1252.2344,1116.3906 C1251.8125,1116.6563 1251.125,1116.7813 1250.3594,1116.7813 C1248.3125,1116.7813 1247.0156,1115.6875 1247.0156,1113.9844 L1247.0156,1112.8906 C1247.0156,1111.1094 1248.2656,1109.7969 1250,1109.7969 C1250.5781,1109.7969 1251.1875,1109.9531 1251.6563,1110.2031 C1252.1406,1110.4844 1252.3125,1110.7031 1252.4063,1111.1094 C1252.4688,1111.5156 1252.5,1111.6406 1252.6406,1111.7656 C1252.7813,1111.9063 1253.0156,1112.0156 1253.2344,1112.0156 C1253.5,1112.0156 1253.7656,1111.875 1253.9375,1111.6563 C1254.0469,1111.5 1254.0781,1111.3125 1254.0781,1110.8906 L1254.0781,1109.4688 C1254.0781,1109.0313 1254.0625,1108.9063 1253.9688,1108.75 C1253.8125,1108.4844 1253.5313,1108.3438 1253.2344,1108.3438 C1252.9375,1108.3438 1252.7344,1108.4375 1252.5156,1108.75 L1252.3438,1108.6719 Z " fill="#000000"/><text fill="#000000" font-family="sans-serif" font-size="12" lengthAdjust="spacing" textLength="112" x="1264" y="1117.1543">MetodoPagamento</text><line style="stroke:#A80036;stroke-width:1.5;" x1="1236" x2="1378" y1="1129" y2="1129"/><text fill="#000000" font-family="sans-serif" font-size="11" lengthAdjust="spacing" textLength="49" x="1241" y="1143.2104">-Int Id PK</text><text fill="#000000" font-family="sans-serif" font-size="11" lengthAdjust="spacing" textLength="74" x="1241" y="1156.0151">-String nome</text><text fill="#000000" font-family="sans-serif" font-size="11" lengthAdjust="spacing" textLength="78" x="1241" y="1168.8198">-String api_url</text><line style="stroke:#A80036;stroke-width:1.5;" x1="1236" x2="1378" y1="1175.4141" y2="1175.4141"/><!--MD5=[bfdc1b8eaefc8c778d1b4f72f951119e]
class Credencial--><rect codeLine="100" fill="#FEFECE" filter="url(#f43g5v6dbt7om)" height="48" id="Credencial" style="stroke:#A80036;stroke-width:1.5;" width="95" x="1138.5" y="704.5"/><ellipse cx="1153.5" cy="720.5" fill="#A9DCDF" rx="11" ry="11" style="stroke:#A80036;stroke-width:1.0;"/><path d="M1155.5781,722.3125 L1155.9688,723.2969 L1155.5781,723.2969 C1155.125,723.2969 1155.0156,723.3125 1154.8594,723.4219 C1154.6094,723.5781 1154.4531,723.8594 1154.4531,724.1563 C1154.4531,724.4219 1154.5938,724.6719 1154.8125,724.8281 C1154.9531,724.9531 1155.1563,725 1155.5781,725 L1157.9375,725 C1158.2969,725 1158.5156,724.9688 1158.6563,724.875 C1158.9063,724.7344 1159.0625,724.4375 1159.0625,724.1563 C1159.0625,723.875 1158.9219,723.625 1158.7031,723.4688 C1158.5313,723.3281 1158.375,723.2969 1157.9063,723.2969 L1154.5156,715.0938 L1150.8438,715.0938 C1150.3906,715.0938 1150.2656,715.1094 1150.1094,715.2031 C1149.8594,715.375 1149.7031,715.6563 1149.7031,715.9375 C1149.7031,716.2188 1149.8438,716.4688 1150.0625,716.6406 C1150.2344,716.75 1150.4063,716.7813 1150.8438,716.7813 L1151.9219,716.7813 L1149.2813,723.2969 C1148.8594,723.2969 1148.7031,723.3125 1148.5469,723.4219 C1148.2969,723.5781 1148.1406,723.8594 1148.1406,724.1563 C1148.1406,724.7188 1148.5156,725 1149.2656,725 L1151.5313,725 C1151.8906,725 1152.1094,724.9688 1152.2344,724.875 C1152.5,724.7344 1152.6406,724.4375 1152.6406,724.1563 C1152.6406,723.875 1152.5156,723.625 1152.2969,723.4531 C1152.125,723.3281 1151.9844,723.2969 1151.5313,723.2969 L1151.1406,723.2969 L1151.5313,722.3125 L1155.5781,722.3125 Z M1154.875,720.6094 L1152.2031,720.6094 L1153.5469,717.3438 L1154.875,720.6094 Z " fill="#000000"/><text fill="#000000" font-family="sans-serif" font-size="12" font-style="italic" lengthAdjust="spacing" textLength="63" x="1167.5" y="724.6543">Credencial</text><line style="stroke:#A80036;stroke-width:1.5;" x1="1139.5" x2="1232.5" y1="736.5" y2="736.5"/><line style="stroke:#A80036;stroke-width:1.5;" x1="1139.5" x2="1232.5" y1="744.5" y2="744.5"/><!--MD5=[7a55ef00a9e867fb2b33f16729653f53]
class PayPal:Credencial--><rect codeLine="103" fill="#FEFECE" filter="url(#f43g5v6dbt7om)" height="99.2188" id="PayPal:Credencial" style="stroke:#A80036;stroke-width:1.5;" width="137" x="965.5" y="893.5"/><ellipse cx="980.5" cy="909.5" fill="#A9DCDF" rx="11" ry="11" style="stroke:#A80036;stroke-width:1.0;"/><path d="M982.5781,911.3125 L982.9688,912.2969 L982.5781,912.2969 C982.125,912.2969 982.0156,912.3125 981.8594,912.4219 C981.6094,912.5781 981.4531,912.8594 981.4531,913.1563 C981.4531,913.4219 981.5938,913.6719 981.8125,913.8281 C981.9531,913.9531 982.1563,914 982.5781,914 L984.9375,914 C985.2969,914 985.5156,913.9688 985.6563,913.875 C985.9063,913.7344 986.0625,913.4375 986.0625,913.1563 C986.0625,912.875 985.9219,912.625 985.7031,912.4688 C985.5313,912.3281 985.375,912.2969 984.9063,912.2969 L981.5156,904.0938 L977.8438,904.0938 C977.3906,904.0938 977.2656,904.1094 977.1094,904.2031 C976.8594,904.375 976.7031,904.6563 976.7031,904.9375 C976.7031,905.2188 976.8438,905.4688 977.0625,905.6406 C977.2344,905.75 977.4063,905.7813 977.8438,905.7813 L978.9219,905.7813 L976.2813,912.2969 C975.8594,912.2969 975.7031,912.3125 975.5469,912.4219 C975.2969,912.5781 975.1406,912.8594 975.1406,913.1563 C975.1406,913.7188 975.5156,914 976.2656,914 L978.5313,914 C978.8906,914 979.1094,913.9688 979.2344,913.875 C979.5,913.7344 979.6406,913.4375 979.6406,913.1563 C979.6406,912.875 979.5156,912.625 979.2969,912.4531 C979.125,912.3281 978.9844,912.2969 978.5313,912.2969 L978.1406,912.2969 L978.5313,911.3125 L982.5781,911.3125 Z M981.875,909.6094 L979.2031,909.6094 L980.5469,906.3438 L981.875,909.6094 Z " fill="#000000"/><text fill="#000000" font-family="sans-serif" font-size="12" font-style="italic" lengthAdjust="spacing" textLength="105" x="994.5" y="913.6543">PayPal:Credencial</text><line style="stroke:#A80036;stroke-width:1.5;" x1="966.5" x2="1101.5" y1="925.5" y2="925.5"/><text fill="#000000" font-family="sans-serif" font-size="11" lengthAdjust="spacing" textLength="49" x="971.5" y="939.7104">-Int Id PK</text><text fill="#000000" font-family="sans-serif" font-size="11" lengthAdjust="spacing" textLength="73" x="971.5" y="952.5151">-String email</text><text fill="#000000" font-family="sans-serif" font-size="11" lengthAdjust="spacing" textLength="94" x="971.5" y="965.3198">-String password</text><text fill="#000000" font-family="sans-serif" font-size="11" lengthAdjust="spacing" textLength="95" x="971.5" y="978.1245">-Int metodoID FK</text><line style="stroke:#A80036;stroke-width:1.5;" x1="966.5" x2="1101.5" y1="984.7188" y2="984.7188"/><!--MD5=[6853fe09565b5868a29d90c932ff629a]
class Cartao:Credencial--><rect codeLine="110" fill="#FEFECE" filter="url(#f43g5v6dbt7om)" height="124.8281" id="Cartao:Credencial" style="stroke:#A80036;stroke-width:1.5;" width="152" x="778" y="880.5"/><ellipse cx="799.3" cy="896.5" fill="#A9DCDF" rx="11" ry="11" style="stroke:#A80036;stroke-width:1.0;"/><path d="M801.3781,898.3125 L801.7688,899.2969 L801.3781,899.2969 C800.925,899.2969 800.8156,899.3125 800.6594,899.4219 C800.4094,899.5781 800.2531,899.8594 800.2531,900.1563 C800.2531,900.4219 800.3938,900.6719 800.6125,900.8281 C800.7531,900.9531 800.9563,901 801.3781,901 L803.7375,901 C804.0969,901 804.3156,900.9688 804.4563,900.875 C804.7063,900.7344 804.8625,900.4375 804.8625,900.1563 C804.8625,899.875 804.7219,899.625 804.5031,899.4688 C804.3313,899.3281 804.175,899.2969 803.7063,899.2969 L800.3156,891.0938 L796.6438,891.0938 C796.1906,891.0938 796.0656,891.1094 795.9094,891.2031 C795.6594,891.375 795.5031,891.6563 795.5031,891.9375 C795.5031,892.2188 795.6438,892.4688 795.8625,892.6406 C796.0344,892.75 796.2063,892.7813 796.6438,892.7813 L797.7219,892.7813 L795.0813,899.2969 C794.6594,899.2969 794.5031,899.3125 794.3469,899.4219 C794.0969,899.5781 793.9406,899.8594 793.9406,900.1563 C793.9406,900.7188 794.3156,901 795.0656,901 L797.3313,901 C797.6906,901 797.9094,900.9688 798.0344,900.875 C798.3,900.7344 798.4406,900.4375 798.4406,900.1563 C798.4406,899.875 798.3156,899.625 798.0969,899.4531 C797.925,899.3281 797.7844,899.2969 797.3313,899.2969 L796.9406,899.2969 L797.3313,898.3125 L801.3781,898.3125 Z M800.675,896.6094 L798.0031,896.6094 L799.3469,893.3438 L800.675,896.6094 Z " fill="#000000"/><text fill="#000000" font-family="sans-serif" font-size="12" font-style="italic" lengthAdjust="spacing" textLength="106" x="814.7" y="900.6543">Cartao:Credencial</text><line style="stroke:#A80036;stroke-width:1.5;" x1="779" x2="929" y1="912.5" y2="912.5"/><text fill="#000000" font-family="sans-serif" font-size="11" lengthAdjust="spacing" textLength="49" x="784" y="926.7104">-Int Id PK</text><text fill="#000000" font-family="sans-serif" font-size="11" lengthAdjust="spacing" textLength="66" x="784" y="939.5151">-Int numero</text><text fill="#000000" font-family="sans-serif" font-size="11" lengthAdjust="spacing" textLength="74" x="784" y="952.3198">-String nome</text><text fill="#000000" font-family="sans-serif" font-size="11" lengthAdjust="spacing" textLength="140" x="784" y="965.1245">-DateTime dataValidade</text><text fill="#000000" font-family="sans-serif" font-size="11" lengthAdjust="spacing" textLength="41" x="784" y="977.9292">-Int cvc</text><text fill="#000000" font-family="sans-serif" font-size="11" lengthAdjust="spacing" textLength="95" x="784" y="990.7339">-Int metodoID FK</text><line style="stroke:#A80036;stroke-width:1.5;" x1="779" x2="929" y1="997.3281" y2="997.3281"/><!--MD5=[35bbce630cba41d02ad46cb338a28110]
class DebitoDireto:Credencial--><rect codeLine="119" fill="#FEFECE" filter="url(#f43g5v6dbt7om)" height="150.4375" id="DebitoDireto:Credencial" style="stroke:#A80036;stroke-width:1.5;" width="174" x="1138" y="868"/><ellipse cx="1153" cy="884" fill="#A9DCDF" rx="11" ry="11" style="stroke:#A80036;stroke-width:1.0;"/><path d="M1155.0781,885.8125 L1155.4688,886.7969 L1155.0781,886.7969 C1154.625,886.7969 1154.5156,886.8125 1154.3594,886.9219 C1154.1094,887.0781 1153.9531,887.3594 1153.9531,887.6563 C1153.9531,887.9219 1154.0938,888.1719 1154.3125,888.3281 C1154.4531,888.4531 1154.6563,888.5 1155.0781,888.5 L1157.4375,888.5 C1157.7969,888.5 1158.0156,888.4688 1158.1563,888.375 C1158.4063,888.2344 1158.5625,887.9375 1158.5625,887.6563 C1158.5625,887.375 1158.4219,887.125 1158.2031,886.9688 C1158.0313,886.8281 1157.875,886.7969 1157.4063,886.7969 L1154.0156,878.5938 L1150.3438,878.5938 C1149.8906,878.5938 1149.7656,878.6094 1149.6094,878.7031 C1149.3594,878.875 1149.2031,879.1563 1149.2031,879.4375 C1149.2031,879.7188 1149.3438,879.9688 1149.5625,880.1406 C1149.7344,880.25 1149.9063,880.2813 1150.3438,880.2813 L1151.4219,880.2813 L1148.7813,886.7969 C1148.3594,886.7969 1148.2031,886.8125 1148.0469,886.9219 C1147.7969,887.0781 1147.6406,887.3594 1147.6406,887.6563 C1147.6406,888.2188 1148.0156,888.5 1148.7656,888.5 L1151.0313,888.5 C1151.3906,888.5 1151.6094,888.4688 1151.7344,888.375 C1152,888.2344 1152.1406,887.9375 1152.1406,887.6563 C1152.1406,887.375 1152.0156,887.125 1151.7969,886.9531 C1151.625,886.8281 1151.4844,886.7969 1151.0313,886.7969 L1150.6406,886.7969 L1151.0313,885.8125 L1155.0781,885.8125 Z M1154.375,884.1094 L1151.7031,884.1094 L1153.0469,880.8438 L1154.375,884.1094 Z " fill="#000000"/><text fill="#000000" font-family="sans-serif" font-size="12" font-style="italic" lengthAdjust="spacing" textLength="142" x="1167" y="888.1543">DebitoDireto:Credencial</text><line style="stroke:#A80036;stroke-width:1.5;" x1="1139" x2="1311" y1="900" y2="900"/><text fill="#000000" font-family="sans-serif" font-size="11" lengthAdjust="spacing" textLength="49" x="1144" y="914.2104">-Int Id PK</text><text fill="#000000" font-family="sans-serif" font-size="11" lengthAdjust="spacing" textLength="65" x="1144" y="927.0151">-String iban</text><text fill="#000000" font-family="sans-serif" font-size="11" lengthAdjust="spacing" textLength="74" x="1144" y="939.8198">-String nome</text><text fill="#000000" font-family="sans-serif" font-size="11" lengthAdjust="spacing" textLength="59" x="1144" y="952.6245">-String rua</text><text fill="#000000" font-family="sans-serif" font-size="11" lengthAdjust="spacing" textLength="111" x="1144" y="965.4292">-String codigoPostal</text><text fill="#000000" font-family="sans-serif" font-size="11" lengthAdjust="spacing" textLength="95" x="1144" y="978.2339">-String freguesia</text><text fill="#000000" font-family="sans-serif" font-size="11" lengthAdjust="spacing" textLength="151" x="1144" y="991.0386">-DateTime dataSubscricao</text><text fill="#000000" font-family="sans-serif" font-size="11" lengthAdjust="spacing" textLength="95" x="1144" y="1003.8433">-Int metodoID FK</text><line style="stroke:#A80036;stroke-width:1.5;" x1="1139" x2="1311" y1="1010.4375" y2="1010.4375"/><!--MD5=[6754354365917abf8f1a56af1b7e344c]
class Context--><rect codeLine="136" fill="#FEFECE" filter="url(#f43g5v6dbt7om)" height="150.4375" id="Context" style="stroke:#A80036;stroke-width:1.5;" width="292" x="1532" y="248"/><ellipse cx="1650.75" cy="264" fill="#ADD1B2" rx="11" ry="11" style="stroke:#A80036;stroke-width:1.0;"/><path d="M1653.0938,259.6719 C1652.1563,259.2344 1651.5625,259.0938 1650.6875,259.0938 C1648.0625,259.0938 1646.0625,261.1719 1646.0625,263.8906 L1646.0625,265.0156 C1646.0625,267.5938 1648.1719,269.4844 1651.0625,269.4844 C1652.2813,269.4844 1653.4375,269.1875 1654.1875,268.6406 C1654.7656,268.2344 1655.0938,267.7813 1655.0938,267.3906 C1655.0938,266.9375 1654.7031,266.5469 1654.2344,266.5469 C1654.0156,266.5469 1653.8125,266.625 1653.625,266.8125 C1653.1719,267.2969 1653.1719,267.2969 1652.9844,267.3906 C1652.5625,267.6563 1651.875,267.7813 1651.1094,267.7813 C1649.0625,267.7813 1647.7656,266.6875 1647.7656,264.9844 L1647.7656,263.8906 C1647.7656,262.1094 1649.0156,260.7969 1650.75,260.7969 C1651.3281,260.7969 1651.9375,260.9531 1652.4063,261.2031 C1652.8906,261.4844 1653.0625,261.7031 1653.1563,262.1094 C1653.2188,262.5156 1653.25,262.6406 1653.3906,262.7656 C1653.5313,262.9063 1653.7656,263.0156 1653.9844,263.0156 C1654.25,263.0156 1654.5156,262.875 1654.6875,262.6563 C1654.7969,262.5 1654.8281,262.3125 1654.8281,261.8906 L1654.8281,260.4688 C1654.8281,260.0313 1654.8125,259.9063 1654.7188,259.75 C1654.5625,259.4844 1654.2813,259.3438 1653.9844,259.3438 C1653.6875,259.3438 1653.4844,259.4375 1653.2656,259.75 L1653.0938,259.6719 Z " fill="#000000"/><text fill="#000000" font-family="sans-serif" font-size="12" lengthAdjust="spacing" textLength="46" x="1671.25" y="268.1543">Context</text><line style="stroke:#A80036;stroke-width:1.5;" x1="1533" x2="1823" y1="280" y2="280"/><text fill="#000000" font-family="sans-serif" font-size="11" lengthAdjust="spacing" textLength="182" x="1538" y="294.2104">-DbSet&lt;Utilizador&gt; Utilizadores</text><text fill="#000000" font-family="sans-serif" font-size="11" lengthAdjust="spacing" textLength="162" x="1538" y="307.0151">-DbSet&lt;Reserva&gt; Reservas</text><text fill="#000000" font-family="sans-serif" font-size="11" lengthAdjust="spacing" textLength="185" x="1538" y="319.8198">-DbSet&lt;Transacao&gt; Transacoes</text><text fill="#000000" font-family="sans-serif" font-size="11" lengthAdjust="spacing" textLength="146" x="1538" y="332.6245">-DbSet&lt;Parque&gt; Parques</text><text fill="#000000" font-family="sans-serif" font-size="11" lengthAdjust="spacing" textLength="280" x="1538" y="345.4292">-DbSet&lt;MetodoPagamento&gt; MetodosPagamento</text><text fill="#000000" font-family="sans-serif" font-size="11" lengthAdjust="spacing" textLength="136" x="1538" y="358.2339">-DbSet&lt;Paypal&gt; Paypal</text><text fill="#000000" font-family="sans-serif" font-size="11" lengthAdjust="spacing" textLength="143" x="1538" y="371.0386">-DbSet&lt;Cartao&gt; Cartoes</text><text fill="#000000" font-family="sans-serif" font-size="11" lengthAdjust="spacing" textLength="220" x="1538" y="383.8433">-DbSet&lt;DebitoDireto&gt; DebitosDiretos</text><line style="stroke:#A80036;stroke-width:1.5;" x1="1533" x2="1823" y1="390.4375" y2="390.4375"/><!--MD5=[7e02c7349cbcec40ae1dd951aa82354c]
class ReservaDTO--><rect codeLine="151" fill="#FEFECE" filter="url(#f43g5v6dbt7om)" height="124.8281" id="ReservaDTO" style="stroke:#A80036;stroke-width:1.5;" width="113" x="50.5" y="41"/><ellipse cx="68.2" cy="57" fill="#ADD1B2" rx="11" ry="11" style="stroke:#A80036;stroke-width:1.0;"/><path d="M70.5438,52.6719 C69.6063,52.2344 69.0125,52.0938 68.1375,52.0938 C65.5125,52.0938 63.5125,54.1719 63.5125,56.8906 L63.5125,58.0156 C63.5125,60.5938 65.6219,62.4844 68.5125,62.4844 C69.7313,62.4844 70.8875,62.1875 71.6375,61.6406 C72.2156,61.2344 72.5438,60.7813 72.5438,60.3906 C72.5438,59.9375 72.1531,59.5469 71.6844,59.5469 C71.4656,59.5469 71.2625,59.625 71.075,59.8125 C70.6219,60.2969 70.6219,60.2969 70.4344,60.3906 C70.0125,60.6563 69.325,60.7813 68.5594,60.7813 C66.5125,60.7813 65.2156,59.6875 65.2156,57.9844 L65.2156,56.8906 C65.2156,55.1094 66.4656,53.7969 68.2,53.7969 C68.7781,53.7969 69.3875,53.9531 69.8563,54.2031 C70.3406,54.4844 70.5125,54.7031 70.6063,55.1094 C70.6688,55.5156 70.7,55.6406 70.8406,55.7656 C70.9813,55.9063 71.2156,56.0156 71.4344,56.0156 C71.7,56.0156 71.9656,55.875 72.1375,55.6563 C72.2469,55.5 72.2781,55.3125 72.2781,54.8906 L72.2781,53.4688 C72.2781,53.0313 72.2625,52.9063 72.1688,52.75 C72.0125,52.4844 71.7313,52.3438 71.4344,52.3438 C71.1375,52.3438 70.9344,52.4375 70.7156,52.75 L70.5438,52.6719 Z " fill="#000000"/><text fill="#000000" font-family="sans-serif" font-size="12" lengthAdjust="spacing" textLength="75" x="82.8" y="61.1543">ReservaDTO</text><line style="stroke:#A80036;stroke-width:1.5;" x1="51.5" x2="162.5" y1="73" y2="73"/><text fill="#000000" font-family="sans-serif" font-size="11" lengthAdjust="spacing" textLength="101" x="56.5" y="87.2104">-String RuaParque</text><text fill="#000000" font-family="sans-serif" font-size="11" lengthAdjust="spacing" textLength="98" x="56.5" y="100.0151">-Int NumeroLugar</text><text fill="#000000" font-family="sans-serif" font-size="11" lengthAdjust="spacing" textLength="91" x="56.5" y="112.8198">-String FilaLugar</text><text fill="#000000" font-family="sans-serif" font-size="11" lengthAdjust="spacing" textLength="86" x="56.5" y="125.6245">-Int AndarLugar</text><text fill="#000000" font-family="sans-serif" font-size="11" lengthAdjust="spacing" textLength="94" x="56.5" y="138.4292">-DateTime inicio</text><text fill="#000000" font-family="sans-serif" font-size="11" lengthAdjust="spacing" textLength="83" x="56.5" y="151.2339">-DateTime fim</text><line style="stroke:#A80036;stroke-width:1.5;" x1="51.5" x2="162.5" y1="157.8281" y2="157.8281"/><!--MD5=[598cf41ed1ef8dcb2948d6b5a284ce40]
class paypalDTO--><rect codeLine="160" fill="#FEFECE" filter="url(#f43g5v6dbt7om)" height="112.0234" id="paypalDTO" style="stroke:#A80036;stroke-width:1.5;" width="154" x="199" y="47.5"/><ellipse cx="239.2" cy="63.5" fill="#ADD1B2" rx="11" ry="11" style="stroke:#A80036;stroke-width:1.0;"/><path d="M241.5438,59.1719 C240.6063,58.7344 240.0125,58.5938 239.1375,58.5938 C236.5125,58.5938 234.5125,60.6719 234.5125,63.3906 L234.5125,64.5156 C234.5125,67.0938 236.6219,68.9844 239.5125,68.9844 C240.7313,68.9844 241.8875,68.6875 242.6375,68.1406 C243.2156,67.7344 243.5438,67.2813 243.5438,66.8906 C243.5438,66.4375 243.1531,66.0469 242.6844,66.0469 C242.4656,66.0469 242.2625,66.125 242.075,66.3125 C241.6219,66.7969 241.6219,66.7969 241.4344,66.8906 C241.0125,67.1563 240.325,67.2813 239.5594,67.2813 C237.5125,67.2813 236.2156,66.1875 236.2156,64.4844 L236.2156,63.3906 C236.2156,61.6094 237.4656,60.2969 239.2,60.2969 C239.7781,60.2969 240.3875,60.4531 240.8563,60.7031 C241.3406,60.9844 241.5125,61.2031 241.6063,61.6094 C241.6688,62.0156 241.7,62.1406 241.8406,62.2656 C241.9813,62.4063 242.2156,62.5156 242.4344,62.5156 C242.7,62.5156 242.9656,62.375 243.1375,62.1563 C243.2469,62 243.2781,61.8125 243.2781,61.3906 L243.2781,59.9688 C243.2781,59.5313 243.2625,59.4063 243.1688,59.25 C243.0125,58.9844 242.7313,58.8438 242.4344,58.8438 C242.1375,58.8438 241.9344,58.9375 241.7156,59.25 L241.5438,59.1719 Z " fill="#000000"/><text fill="#000000" font-family="sans-serif" font-size="12" lengthAdjust="spacing" textLength="66" x="258.8" y="67.6543">paypalDTO</text><line style="stroke:#A80036;stroke-width:1.5;" x1="200" x2="352" y1="79.5" y2="79.5"/><text fill="#000000" font-family="sans-serif" font-size="11" lengthAdjust="spacing" textLength="73" x="205" y="93.7104">-String email</text><text fill="#000000" font-family="sans-serif" font-size="11" lengthAdjust="spacing" textLength="94" x="205" y="106.5151">-String password</text><text fill="#000000" font-family="sans-serif" font-size="11" lengthAdjust="spacing" textLength="79" x="205" y="119.3198">-Double custo</text><text fill="#000000" font-family="sans-serif" font-size="11" lengthAdjust="spacing" textLength="142" x="205" y="132.1245">-String emailDestinatario</text><text fill="#000000" font-family="sans-serif" font-size="11" lengthAdjust="spacing" textLength="90" x="205" y="144.9292">-DateTime data</text><line style="stroke:#A80036;stroke-width:1.5;" x1="200" x2="352" y1="151.5234" y2="151.5234"/><!--MD5=[192f5b2b8ad64932e9b414889a001670]
class cartaoDTO--><rect codeLine="168" fill="#FEFECE" filter="url(#f43g5v6dbt7om)" height="150.4375" id="cartaoDTO" style="stroke:#A80036;stroke-width:1.5;" width="152" x="32" y="248"/><ellipse cx="72.2" cy="264" fill="#ADD1B2" rx="11" ry="11" style="stroke:#A80036;stroke-width:1.0;"/><path d="M74.5438,259.6719 C73.6063,259.2344 73.0125,259.0938 72.1375,259.0938 C69.5125,259.0938 67.5125,261.1719 67.5125,263.8906 L67.5125,265.0156 C67.5125,267.5938 69.6219,269.4844 72.5125,269.4844 C73.7313,269.4844 74.8875,269.1875 75.6375,268.6406 C76.2156,268.2344 76.5438,267.7813 76.5438,267.3906 C76.5438,266.9375 76.1531,266.5469 75.6844,266.5469 C75.4656,266.5469 75.2625,266.625 75.075,266.8125 C74.6219,267.2969 74.6219,267.2969 74.4344,267.3906 C74.0125,267.6563 73.325,267.7813 72.5594,267.7813 C70.5125,267.7813 69.2156,266.6875 69.2156,264.9844 L69.2156,263.8906 C69.2156,262.1094 70.4656,260.7969 72.2,260.7969 C72.7781,260.7969 73.3875,260.9531 73.8563,261.2031 C74.3406,261.4844 74.5125,261.7031 74.6063,262.1094 C74.6688,262.5156 74.7,262.6406 74.8406,262.7656 C74.9813,262.9063 75.2156,263.0156 75.4344,263.0156 C75.7,263.0156 75.9656,262.875 76.1375,262.6563 C76.2469,262.5 76.2781,262.3125 76.2781,261.8906 L76.2781,260.4688 C76.2781,260.0313 76.2625,259.9063 76.1688,259.75 C76.0125,259.4844 75.7313,259.3438 75.4344,259.3438 C75.1375,259.3438 74.9344,259.4375 74.7156,259.75 L74.5438,259.6719 Z " fill="#000000"/><text fill="#000000" font-family="sans-serif" font-size="12" lengthAdjust="spacing" textLength="64" x="91.8" y="268.1543">cartaoDTO</text><line style="stroke:#A80036;stroke-width:1.5;" x1="33" x2="183" y1="280" y2="280"/><text fill="#000000" font-family="sans-serif" font-size="11" lengthAdjust="spacing" textLength="66" x="38" y="294.2104">-Int numero</text><text fill="#000000" font-family="sans-serif" font-size="11" lengthAdjust="spacing" textLength="74" x="38" y="307.0151">-String nome</text><text fill="#000000" font-family="sans-serif" font-size="11" lengthAdjust="spacing" textLength="140" x="38" y="319.8198">-DateTime dataValidade</text><text fill="#000000" font-family="sans-serif" font-size="11" lengthAdjust="spacing" textLength="41" x="38" y="332.6245">-Int cvc</text><text fill="#000000" font-family="sans-serif" font-size="11" lengthAdjust="spacing" textLength="94" x="38" y="345.4292">-String password</text><text fill="#000000" font-family="sans-serif" font-size="11" lengthAdjust="spacing" textLength="79" x="38" y="358.2339">-Double custo</text><text fill="#000000" font-family="sans-serif" font-size="11" lengthAdjust="spacing" textLength="105" x="38" y="371.0386">-Int nifDestinatario</text><text fill="#000000" font-family="sans-serif" font-size="11" lengthAdjust="spacing" textLength="90" x="38" y="383.8433">-DateTime data</text><line style="stroke:#A80036;stroke-width:1.5;" x1="33" x2="183" y1="390.4375" y2="390.4375"/><!--MD5=[6156cc88864cc6369e19be7c3bbbf72b]
class debitoDiretoDTO--><rect codeLine="179" fill="#FEFECE" filter="url(#f43g5v6dbt7om)" height="150.4375" id="debitoDiretoDTO" style="stroke:#A80036;stroke-width:1.5;" width="134" x="219" y="248"/><ellipse cx="234" cy="264" fill="#ADD1B2" rx="11" ry="11" style="stroke:#A80036;stroke-width:1.0;"/><path d="M236.3438,259.6719 C235.4063,259.2344 234.8125,259.0938 233.9375,259.0938 C231.3125,259.0938 229.3125,261.1719 229.3125,263.8906 L229.3125,265.0156 C229.3125,267.5938 231.4219,269.4844 234.3125,269.4844 C235.5313,269.4844 236.6875,269.1875 237.4375,268.6406 C238.0156,268.2344 238.3438,267.7813 238.3438,267.3906 C238.3438,266.9375 237.9531,266.5469 237.4844,266.5469 C237.2656,266.5469 237.0625,266.625 236.875,266.8125 C236.4219,267.2969 236.4219,267.2969 236.2344,267.3906 C235.8125,267.6563 235.125,267.7813 234.3594,267.7813 C232.3125,267.7813 231.0156,266.6875 231.0156,264.9844 L231.0156,263.8906 C231.0156,262.1094 232.2656,260.7969 234,260.7969 C234.5781,260.7969 235.1875,260.9531 235.6563,261.2031 C236.1406,261.4844 236.3125,261.7031 236.4063,262.1094 C236.4688,262.5156 236.5,262.6406 236.6406,262.7656 C236.7813,262.9063 237.0156,263.0156 237.2344,263.0156 C237.5,263.0156 237.7656,262.875 237.9375,262.6563 C238.0469,262.5 238.0781,262.3125 238.0781,261.8906 L238.0781,260.4688 C238.0781,260.0313 238.0625,259.9063 237.9688,259.75 C237.8125,259.4844 237.5313,259.3438 237.2344,259.3438 C236.9375,259.3438 236.7344,259.4375 236.5156,259.75 L236.3438,259.6719 Z " fill="#000000"/><text fill="#000000" font-family="sans-serif" font-size="12" lengthAdjust="spacing" textLength="102" x="248" y="268.1543">debitoDiretoDTO</text><line style="stroke:#A80036;stroke-width:1.5;" x1="220" x2="352" y1="280" y2="280"/><text fill="#000000" font-family="sans-serif" font-size="11" lengthAdjust="spacing" textLength="65" x="225" y="294.2104">-String iban</text><text fill="#000000" font-family="sans-serif" font-size="11" lengthAdjust="spacing" textLength="74" x="225" y="307.0151">-String nome</text><text fill="#000000" font-family="sans-serif" font-size="11" lengthAdjust="spacing" textLength="59" x="225" y="319.8198">-String rua</text><text fill="#000000" font-family="sans-serif" font-size="11" lengthAdjust="spacing" textLength="111" x="225" y="332.6245">-String codigoPostal</text><text fill="#000000" font-family="sans-serif" font-size="11" lengthAdjust="spacing" textLength="95" x="225" y="345.4292">-String freguesia</text><text fill="#000000" font-family="sans-serif" font-size="11" lengthAdjust="spacing" textLength="79" x="225" y="358.2339">-Double custo</text><text fill="#000000" font-family="sans-serif" font-size="11" lengthAdjust="spacing" textLength="105" x="225" y="371.0386">-Int nifDestinatario</text><text fill="#000000" font-family="sans-serif" font-size="11" lengthAdjust="spacing" textLength="90" x="225" y="383.8433">-DateTime data</text><line style="stroke:#A80036;stroke-width:1.5;" x1="220" x2="352" y1="390.4375" y2="390.4375"/><!--MD5=[4bfbafb2cb76c9d9ad2e1e90effc95ca]
link UtilizadoresController to Utilizador--><path codeLine="192" d="M1261.43,159.51 C1257.67,239.725 1250.72,388.258 1246.83,471.475 " fill="none" id="UtilizadoresController-to-Utilizador" style="stroke:#A80036;stroke-width:1.0;stroke-dasharray:7.0,7.0;"/><polygon fill="#A80036" points="1246.58,476.86,1250.9955,468.0564,1246.8133,471.8654,1243.0042,467.6832,1246.58,476.86" style="stroke:#A80036;stroke-width:1.0;"/><!--MD5=[55a1e85b195c42c46b77451c3d6a4804]
link UtilizadoresController to Context--><path codeLine="193" d="M1333.7,159.52 C1347.77,168.64 1362.89,177.18 1378,183.5 C1425.57,203.4 1444,186.17 1492,205 C1518.86,215.539 1546.08,230.061 1571.1,245.294 " fill="none" id="UtilizadoresController-to-Context" style="stroke:#A80036;stroke-width:1.0;stroke-dasharray:7.0,7.0;"/><polygon fill="#A80036" points="1575.42,247.945,1569.839,239.83,1571.1577,245.3311,1565.6567,246.6497,1575.42,247.945" style="stroke:#A80036;stroke-width:1.0;"/><!--MD5=[f1d08e710b5be31a4f54b7be44dcfd5f]
link ReservasController to Reserva--><path codeLine="194" d="M1049.14,159.67 C1063.54,188.93 1081.33,225.107 1096.47,255.872 " fill="none" id="ReservasController-to-Reserva" style="stroke:#A80036;stroke-width:1.0;stroke-dasharray:7.0,7.0;"/><polygon fill="#A80036" points="1098.68,260.371,1098.2957,250.5296,1096.4726,255.8847,1091.1175,254.0616,1098.68,260.371" style="stroke:#A80036;stroke-width:1.0;"/><!--MD5=[4c183a90d865e4921167e44bdbd7527a]
link ReservasController to Context--><path codeLine="195" d="M1097.26,159.64 C1113.6,169.19 1131.32,177.84 1149,183.5 C1221.74,206.76 1419.32,181.55 1492,205 C1520.83,214.3 1549.67,229.088 1575.74,245.064 " fill="none" id="ReservasController-to-Context" style="stroke:#A80036;stroke-width:1.0;stroke-dasharray:7.0,7.0;"/><polygon fill="#A80036" points="1580.24,247.847,1574.7083,239.6984,1575.9936,245.2073,1570.4847,246.4926,1580.24,247.847" style="stroke:#A80036;stroke-width:1.0;"/><!--MD5=[63f1039bd21356e858113479a103cf25]
link ReservasController to PagamentoService--><path codeLine="196" d="M911.997,108.19 C815.393,116.04 674.517,139.06 571,205 C541.578,223.742 517.998,255.633 502.367,281.391 " fill="none" id="ReservasController-to-PagamentoService" style="stroke:#A80036;stroke-width:1.0;stroke-dasharray:7.0,7.0;"/><polygon fill="#A80036" points="499.734,285.796,507.7855,280.1239,502.2998,281.5045,500.9192,276.0187,499.734,285.796" style="stroke:#A80036;stroke-width:1.0;"/><!--MD5=[ea8bc1862f65d1111e9aa61726d02111]
link ReservasController to EmailService--><path codeLine="197" d="M911.847,128.33 C856.258,143.97 789.816,168.44 738,205 C709.302,225.249 684.58,256.431 667.554,281.514 " fill="none" id="ReservasController-to-EmailService" style="stroke:#A80036;stroke-width:1.0;stroke-dasharray:7.0,7.0;"/><polygon fill="#A80036" points="664.678,285.803,673.0143,280.5584,667.464,281.6511,666.3713,276.1008,664.678,285.803" style="stroke:#A80036;stroke-width:1.0;"/><!--MD5=[bdc1af83df3e614303713389d5bf7496]
link TransacoesController to Transacao--><path codeLine="198" d="M1461.01,146.55 C1434.61,207.53 1388.16,324.715 1371,430 C1358.12,509.011 1374.76,600.371 1390.12,660.78 " fill="none" id="TransacoesController-to-Transacao" style="stroke:#A80036;stroke-width:1.0;stroke-dasharray:7.0,7.0;"/><polygon fill="#A80036" points="1391.41,665.8,1393.0418,656.0873,1390.1644,660.9576,1385.294,658.0802,1391.41,665.8" style="stroke:#A80036;stroke-width:1.0;"/><!--MD5=[64769f895abbfa304c726cfecd4d4d6c]
link TransacoesController to Context--><path codeLine="199" d="M1518.41,146.69 C1543.48,174.23 1576.98,211.03 1606.81,243.796 " fill="none" id="TransacoesController-to-Context" style="stroke:#A80036;stroke-width:1.0;stroke-dasharray:7.0,7.0;"/><polygon fill="#A80036" points="1610.43,247.771,1607.3148,238.4278,1607.0584,244.0788,1601.4073,243.8224,1610.43,247.771" style="stroke:#A80036;stroke-width:1.0;"/><!--MD5=[b25225a33270bdb4508378cc7473fef0]
link ParquesController to Parque--><path codeLine="200" d="M1743.79,159.59 C1755.38,168.28 1767.71,176.64 1780,183.5 C1804.74,197.3 1823.69,181.84 1840,205 C1991.17,419.754 1874.47,552.739 1764,791 C1712.92,901.176 1553.99,930.963 1471.63,939.016 " fill="none" id="ParquesController-to-Parque" style="stroke:#A80036;stroke-width:1.0;stroke-dasharray:7.0,7.0;"/><polygon fill="#A80036" points="1466.32,939.516,1475.657,942.6498,1471.2977,939.0447,1474.9028,934.6854,1466.32,939.516" style="stroke:#A80036;stroke-width:1.0;"/><!--MD5=[42e6008d20694588b8edd67f6bad3e14]
link ParquesController to Context--><path codeLine="201" d="M1680.24,159.67 C1679.89,184.78 1679.48,214.98 1679.1,242.491 " fill="none" id="ParquesController-to-Context" style="stroke:#A80036;stroke-width:1.0;stroke-dasharray:7.0,7.0;"/><polygon fill="#A80036" points="1679.03,247.593,1683.153,238.6487,1679.0986,242.5935,1675.1538,238.539,1679.03,247.593" style="stroke:#A80036;stroke-width:1.0;"/><!--MD5=[7b141085eb0518e7623b734b72c701b4]
link MetodoPagamentosController to MetodoPagamento--><path codeLine="202" d="M1960.83,159.53 C1970.62,203.27 1982,266.161 1982,322 C1982,322 1982,322 1982,944 C1982,1067.204 1561.7,1117.3894 1384.41,1133.078 " fill="none" id="MetodoPagamentosController-to-MetodoPagamento" style="stroke:#A80036;stroke-width:1.0;stroke-dasharray:7.0,7.0;"/><polygon fill="#A80036" points="1379.24,1133.5321,1388.5589,1136.7193,1384.2204,1133.0893,1387.8504,1128.7508,1379.24,1133.5321" style="stroke:#A80036;stroke-width:1.0;"/><!--MD5=[a66b9f39faf63293a9e6033a5b5c0751]
link MetodoPagamentosController to Context--><path codeLine="203" d="M1878.77,159.67 C1846.99,185.36 1808.62,216.386 1773.98,244.397 " fill="none" id="MetodoPagamentosController-to-Context" style="stroke:#A80036;stroke-width:1.0;stroke-dasharray:7.0,7.0;"/><polygon fill="#A80036" points="1769.77,247.797,1779.2835,245.2489,1773.6581,244.6534,1774.2537,239.0279,1769.77,247.797" style="stroke:#A80036;stroke-width:1.0;"/><!--MD5=[96ba30bc6ebaf1e34d16a1a6275bbb35]
link Context to Utilizador--><path codeLine="205" d="M1553.51,398.045 C1533.48,407.459 1512.56,415.914 1492,422 C1454.34,433.147 1441.16,417.308 1404,430 C1366.86,442.684 1329.63,465.655 1300.45,486.589 " fill="none" id="Context-to-Utilizador" style="stroke:#A80036;stroke-width:1.0;"/><polygon fill="#A80036" points="1296.2,489.662,1305.8372,487.6313,1300.2522,486.7329,1301.1506,481.1478,1296.2,489.662" style="stroke:#A80036;stroke-width:1.0;"/><text fill="#000000" font-family="sans-serif" font-size="13" lengthAdjust="spacing" textLength="26" x="1405" y="443.0669">tem</text><text fill="#000000" font-family="sans-serif" font-size="13" lengthAdjust="spacing" textLength="8" x="1532.2595" y="418.6086">1</text><text fill="#000000" font-family="sans-serif" font-size="13" lengthAdjust="spacing" textLength="23" x="1303.9634" y="480.5397">0..*</text><!--MD5=[f862fc199df090de7a91527ffbcfeae3]
link Context to Reserva--><path codeLine="206" d="M1531.77,323 C1423.62,323 1281.2,323 1197.91,323 " fill="none" id="Context-to-Reserva" style="stroke:#A80036;stroke-width:1.0;"/><polygon fill="#A80036" points="1192.51,323,1201.51,327,1197.51,323,1201.51,319,1192.51,323" style="stroke:#A80036;stroke-width:1.0;"/><text fill="#000000" font-family="sans-serif" font-size="13" lengthAdjust="spacing" textLength="26" x="1349.25" y="316.0669">tem</text><text fill="#000000" font-family="sans-serif" font-size="13" lengthAdjust="spacing" textLength="8" x="1516.0238" y="319.6723">1</text><text fill="#000000" font-family="sans-serif" font-size="13" lengthAdjust="spacing" textLength="23" x="1200.7142" y="319.2632">0..*</text><!--MD5=[97c3e5cd7c11f9a09254c4a96322050c]
link Context to Transacao--><path codeLine="207" d="M1540.27,398.206 C1526.97,408.025 1514.26,418.656 1503,430 C1441.6,491.852 1420.65,593.627 1413.55,660.612 " fill="none" id="Context-to-Transacao" style="stroke:#A80036;stroke-width:1.0;"/><polygon fill="#A80036" points="1413.02,665.775,1417.9151,657.2288,1413.5288,660.801,1409.9567,656.4147,1413.02,665.775" style="stroke:#A80036;stroke-width:1.0;"/><text fill="#000000" font-family="sans-serif" font-size="13" lengthAdjust="spacing" textLength="26" x="1468" y="537.5669">tem</text><text fill="#000000" font-family="sans-serif" font-size="13" lengthAdjust="spacing" textLength="8" x="1518.3185" y="418.3993">1</text><text fill="#000000" font-family="sans-serif" font-size="13" lengthAdjust="spacing" textLength="23" x="1389.0395" y="654.7397">0..*</text><!--MD5=[b8a4ba3f14343c93cc8a055f0769f72b]
link Context to Parque--><path codeLine="208" d="M1706.73,398.419 C1743.06,506.216 1790.4,707.188 1697,838 C1645.12,910.657 1535.89,932.586 1471.49,939.183 " fill="none" id="Context-to-Parque" style="stroke:#A80036;stroke-width:1.0;"/><polygon fill="#A80036" points="1466.17,939.704,1475.516,942.8109,1471.1464,939.2184,1474.7389,934.8488,1466.17,939.704" style="stroke:#A80036;stroke-width:1.0;"/><text fill="#000000" font-family="sans-serif" font-size="13" lengthAdjust="spacing" textLength="26" x="1753" y="632.0669">tem</text><text fill="#000000" font-family="sans-serif" font-size="13" lengthAdjust="spacing" textLength="8" x="1701.1644" y="418.6332">1</text><text fill="#000000" font-family="sans-serif" font-size="13" lengthAdjust="spacing" textLength="23" x="1474.1392" y="935.2895">0..*</text><!--MD5=[d64cc5fded769c87c323eeb0a085c074]
link Context to MetodoPagamento--><path codeLine="209" d="M1730.02,398.242 C1744.26,422.299 1757.98,449.814 1766,477 C1805.5,610.852 1818.81,662.656 1764,791 C1693.28,956.599 1494.96,1061.722 1384.23,1109.295 " fill="none" id="Context-to-MetodoPagamento" style="stroke:#A80036;stroke-width:1.0;"/><polygon fill="#A80036" points="1379.35,1111.378,1389.1976,1111.533,1383.9504,1109.4195,1386.064,1104.1723,1379.35,1111.378" style="stroke:#A80036;stroke-width:1.0;"/><text fill="#000000" font-family="sans-serif" font-size="13" lengthAdjust="spacing" textLength="26" x="1801" y="733.0669">tem</text><text fill="#000000" font-family="sans-serif" font-size="13" lengthAdjust="spacing" textLength="8" x="1726.747" y="418.4388">1</text><text fill="#000000" font-family="sans-serif" font-size="13" lengthAdjust="spacing" textLength="23" x="1387.0799" y="1105.1019">0..*</text><!--MD5=[6a4547493d98cd2f5636f27b79988752]
link Context to PayPal:Credencial--><path codeLine="210" d="M1670.9,398.154 C1656.97,526.503 1621.45,781.76 1555,838 C1481.04,900.599 1209.63,831.188 1120,868 C1107.18,873.265 1094.91,881.226 1083.86,890.003 " fill="none" id="Context-to-PayPal:Credencial" style="stroke:#A80036;stroke-width:1.0;"/><polygon fill="#A80036" points="1079.84,893.27,1089.3451,890.6906,1083.7177,890.1135,1084.2947,884.4862,1079.84,893.27" style="stroke:#A80036;stroke-width:1.0;"/><text fill="#000000" font-family="sans-serif" font-size="13" lengthAdjust="spacing" textLength="26" x="1639" y="632.0669">tem</text><text fill="#000000" font-family="sans-serif" font-size="13" lengthAdjust="spacing" textLength="8" x="1661.7553" y="418.7289">1</text><text fill="#000000" font-family="sans-serif" font-size="13" lengthAdjust="spacing" textLength="23" x="1061.6691" y="882.2829">0..*</text><!--MD5=[49e1296f6cec618aaaa1ba8a1061c177]
link Context to Cartao:Credencial--><path codeLine="211" d="M1656.11,398.156 C1615.35,533.849 1528.65,810.75 1492,838 C1443.42,874.12 1004.63,846.618 948,868 C941.053,870.623 934.214,873.956 927.587,877.75 " fill="none" id="Context-to-Cartao:Credencial" style="stroke:#A80036;stroke-width:1.0;"/><polygon fill="#A80036" points="923.034,880.448,932.8159,879.3017,927.3356,877.8993,928.738,872.419,923.034,880.448" style="stroke:#A80036;stroke-width:1.0;"/><text fill="#000000" font-family="sans-serif" font-size="13" lengthAdjust="spacing" textLength="26" x="1586" y="632.0669">tem</text><text fill="#000000" font-family="sans-serif" font-size="13" lengthAdjust="spacing" textLength="8" x="1645.4401" y="418.7311">1</text><text fill="#000000" font-family="sans-serif" font-size="13" lengthAdjust="spacing" textLength="23" x="906.6864" y="869.4327">0..*</text><!--MD5=[c2688a242fe879acb737a8853e4ba38f]
link Context to DebitoDireto:Credencial--><path codeLine="212" d="M1696.29,398.22 C1719.03,510.461 1742,722.508 1626,838 C1578.1,885.688 1389.17,843.776 1317.05,867.85 " fill="none" id="Context-to-DebitoDireto:Credencial" style="stroke:#A80036;stroke-width:1.0;"/><polygon fill="#A80036" points="1312.06,869.7,1321.8881,870.3398,1316.7513,867.9704,1319.1207,862.8337,1312.06,869.7" style="stroke:#A80036;stroke-width:1.0;"/><text fill="#000000" font-family="sans-serif" font-size="13" lengthAdjust="spacing" textLength="26" x="1714" y="632.0669">tem</text><text fill="#000000" font-family="sans-serif" font-size="13" lengthAdjust="spacing" textLength="8" x="1689.6967" y="418.4146">1</text><text fill="#000000" font-family="sans-serif" font-size="13" lengthAdjust="spacing" textLength="23" x="1319.914" y="860.316">0..*</text><!--MD5=[e925ca35b698cbd3d44a24d52cf56986]
link Reserva to Utilizador--><path codeLine="214" d="M1163.04,385.563 C1178.19,412.967 1195.96,445.117 1210.99,472.301 " fill="none" id="Reserva-to-Utilizador" style="stroke:#A80036;stroke-width:1.0;"/><polygon fill="#A80036" points="1213.57,476.967,1212.7241,467.1545,1211.1544,472.5892,1205.7197,471.0195,1213.57,476.967" style="stroke:#A80036;stroke-width:1.0;"/><text fill="#000000" font-family="sans-serif" font-size="13" lengthAdjust="spacing" textLength="26" x="1198" y="443.0669">tem</text><text fill="#000000" font-family="sans-serif" font-size="13" lengthAdjust="spacing" textLength="23" x="1142.5053" y="405.3097">0..*</text><text fill="#000000" font-family="sans-serif" font-size="13" lengthAdjust="spacing" textLength="8" x="1201.1587" y="465.9007">1</text><!--MD5=[f24c51f8fcbdd9e8642a8c6ebdb1f92b]
link Reserva to Transacao--><path codeLine="215" d="M1119.17,385.743 C1113.27,442.082 1112.42,525.923 1146,589 C1186.92,665.859 1249.32,624.2 1328,661.5 C1331.92,663.357 1335.81,665.436 1339.65,667.681 " fill="none" id="Reserva-to-Transacao" style="stroke:#A80036;stroke-width:1.0;"/><polygon fill="#A80036" points="1344.14,670.388,1338.4853,662.3242,1339.8541,667.813,1334.3653,669.1818,1344.14,670.388" style="stroke:#A80036;stroke-width:1.0;"/><text fill="#000000" font-family="sans-serif" font-size="13" lengthAdjust="spacing" textLength="26" x="1147" y="537.5669">tem</text><text fill="#000000" font-family="sans-serif" font-size="13" lengthAdjust="spacing" textLength="23" x="1093.837" y="405.5094">0..*</text><text fill="#000000" font-family="sans-serif" font-size="13" lengthAdjust="spacing" textLength="8" x="1328.4991" y="660.2952">1</text><!--MD5=[7d6eb82c84da32176fa9b5f93c4dcb73]
link Transacao to Parque--><path codeLine="216" d="M1413.2,791.249 C1415.01,826.349 1417.24,869.356 1418.85,900.439 " fill="none" id="Transacao-to-Parque" style="stroke:#A80036;stroke-width:1.0;"/><polygon fill="#A80036" points="1419.12,905.71,1422.6485,896.5149,1418.861,900.7167,1414.6592,896.9293,1419.12,905.71" style="stroke:#A80036;stroke-width:1.0;"/><text fill="#000000" font-family="sans-serif" font-size="13" lengthAdjust="spacing" textLength="26" x="1417" y="834.0669">tem</text><text fill="#000000" font-family="sans-serif" font-size="13" lengthAdjust="spacing" textLength="23" x="1389.2922" y="811.016">1..*</text><text fill="#000000" font-family="sans-serif" font-size="13" lengthAdjust="spacing" textLength="8" x="1410.0726" y="894.8453">1</text><!--MD5=[76924a1db706d3395ad8de5931d04d7d]
link Parque to MetodoPagamento--><path codeLine="217" d="M1399.82,980.221 C1381.34,1011.844 1354.4,1057.929 1334.29,1092.314 " fill="none" id="Parque-to-MetodoPagamento" style="stroke:#A80036;stroke-width:1.0;"/><polygon fill="#A80036" points="1331.63,1096.872,1339.6261,1091.122,1334.154,1092.5558,1332.7202,1087.0837,1331.63,1096.872" style="stroke:#A80036;stroke-width:1.0;"/><text fill="#000000" font-family="sans-serif" font-size="13" lengthAdjust="spacing" textLength="26" x="1359" y="1063.0669">tem</text><text fill="#000000" font-family="sans-serif" font-size="13" lengthAdjust="spacing" textLength="23" x="1371.4074" y="999.7382">0..*</text><text fill="#000000" font-family="sans-serif" font-size="13" lengthAdjust="spacing" textLength="8" x="1326.9179" y="1085.8476">1</text><!--MD5=[420d0fccc3c6c7e1ed8f87c8f2960243]
link Utilizador to Credencial--><path codeLine="218" d="M1227.46,589.19 C1216.7,625.093 1203.11,670.423 1194.48,699.197 " fill="none" id="Utilizador-to-Credencial" style="stroke:#A80036;stroke-width:1.0;"/><polygon fill="#A80036" points="1193.04,704.019,1199.4574,696.548,1194.4767,699.2299,1191.7948,694.2492,1193.04,704.019" style="stroke:#A80036;stroke-width:1.0;"/><text fill="#000000" font-family="sans-serif" font-size="13" lengthAdjust="spacing" textLength="26" x="1220" y="632.0669">tem</text><text fill="#000000" font-family="sans-serif" font-size="13" lengthAdjust="spacing" textLength="8" x="1216.9567" y="609.0258">1</text><text fill="#000000" font-family="sans-serif" font-size="13" lengthAdjust="spacing" textLength="8" x="1185.781" y="693.3067">1</text><!--MD5=[7ae3bae46025dcebf49ae644f4b2d781]
link Credencial to PayPal:Credencial--><path codeLine="219" d="M1154.3,752.659 C1132.8,769.653 1104.95,794.337 1086,821 C1071.53,841.36 1059.94,866.376 1051.41,888.368 " fill="none" id="Credencial-to-PayPal:Credencial" style="stroke:#A80036;stroke-width:1.0;"/><polygon fill="#A80036" points="1049.53,893.302,1056.4762,886.3198,1051.3128,888.6306,1049.002,883.4673,1049.53,893.302" style="stroke:#A80036;stroke-width:1.0;"/><text fill="#000000" font-family="sans-serif" font-size="13" lengthAdjust="spacing" textLength="56" x="1087" y="834.0669">pode ser</text><!--MD5=[817b7664aec087b17dd2f279b5cd13a4]
link Credencial to Cartao:Credencial--><path codeLine="220" d="M1138.44,751.807 C1102.59,769.231 1052.65,794.81 1011,821 C981.428,839.596 975.727,846.75 948,868 C943.428,871.504 938.743,875.117 934.024,878.775 " fill="none" id="Credencial-to-Cartao:Credencial" style="stroke:#A80036;stroke-width:1.0;"/><polygon fill="#A80036" points="930.054,881.857,939.6164,879.4988,934.0039,878.7914,934.7113,873.1789,930.054,881.857" style="stroke:#A80036;stroke-width:1.0;"/><text fill="#000000" font-family="sans-serif" font-size="13" lengthAdjust="spacing" textLength="56" x="1012" y="834.0669">pode ser</text><!--MD5=[e32d348272f20899e6e77a26d67297c6]
link Credencial to DebitoDireto:Credencial--><path codeLine="221" d="M1171.03,752.833 C1158.82,774.84 1144.96,808.727 1154,838 C1156.64,846.548 1160.25,855.021 1164.45,863.224 " fill="none" id="Credencial-to-DebitoDireto:Credencial" style="stroke:#A80036;stroke-width:1.0;"/><polygon fill="#A80036" points="1166.85,867.752,1166.1895,857.9253,1164.5174,863.3294,1159.1133,861.6574,1166.85,867.752" style="stroke:#A80036;stroke-width:1.0;"/><text fill="#000000" font-family="sans-serif" font-size="13" lengthAdjust="spacing" textLength="56" x="1155" y="834.0669">pode ser</text><!--MD5=[3bca9c6ec21a00a80bc9d2f6be0d7631]
link PayPal:Credencial to MetodoPagamento--><path codeLine="222" d="M1070.4,992.517 C1084.65,1009.492 1101.91,1027.831 1120,1042 C1153.34,1068.117 1194.78,1090.455 1230.17,1107.087 " fill="none" id="PayPal:Credencial-to-MetodoPagamento" style="stroke:#A80036;stroke-width:1.0;"/><polygon fill="#A80036" points="1234.9,1109.293,1228.4354,1101.8627,1230.3689,1107.1789,1225.0528,1109.1124,1234.9,1109.293" style="stroke:#A80036;stroke-width:1.0;"/><text fill="#000000" font-family="sans-serif" font-size="13" lengthAdjust="spacing" textLength="26" x="1154" y="1063.0669">tem</text><text fill="#000000" font-family="sans-serif" font-size="13" lengthAdjust="spacing" textLength="23" x="1051.0572" y="1012.952">0..*</text><text fill="#000000" font-family="sans-serif" font-size="13" lengthAdjust="spacing" textLength="8" x="1219.0522" y="1102.4053">1</text><!--MD5=[4a7af6b7491bcfd986ce188e99e1fae4]
link Cartao:Credencial to MetodoPagamento--><path codeLine="223" d="M903.193,1005.634 C916.512,1019.207 931.776,1032.383 948,1042 C1036.45,1094.425 1153.78,1119.1626 1229.83,1130.3724 " fill="none" id="Cartao:Credencial-to-MetodoPagamento" style="stroke:#A80036;stroke-width:1.0;"/><polygon fill="#A80036" points="1234.78,1131.0914,1226.4438,1125.8465,1229.8313,1130.377,1225.3008,1133.7645,1234.78,1131.0914" style="stroke:#A80036;stroke-width:1.0;"/><text fill="#000000" font-family="sans-serif" font-size="13" lengthAdjust="spacing" textLength="26" x="994" y="1063.0669">tem</text><text fill="#000000" font-family="sans-serif" font-size="13" lengthAdjust="spacing" textLength="23" x="884.3157" y="1025.3885">0..*</text><text fill="#000000" font-family="sans-serif" font-size="13" lengthAdjust="spacing" textLength="8" x="1218.9198" y="1126.4517">1</text><!--MD5=[f71d265deef66ba33a34e51b5d1796dd]
link DebitoDireto:Credencial to MetodoPagamento--><path codeLine="224" d="M1256.23,1018.277 C1266.67,1043.097 1278,1070.048 1287.31,1092.176 " fill="none" id="DebitoDireto:Credencial-to-MetodoPagamento" style="stroke:#A80036;stroke-width:1.0;"/><polygon fill="#A80036" points="1289.26,1096.822,1289.4644,1086.9753,1287.3246,1092.2118,1282.088,1090.072,1289.26,1096.822" style="stroke:#A80036;stroke-width:1.0;"/><text fill="#000000" font-family="sans-serif" font-size="13" lengthAdjust="spacing" textLength="26" x="1277" y="1063.0669">tem</text><text fill="#000000" font-family="sans-serif" font-size="13" lengthAdjust="spacing" textLength="23" x="1235.1722" y="1038.4773">0..*</text><text fill="#000000" font-family="sans-serif" font-size="13" lengthAdjust="spacing" textLength="8" x="1277.7952" y="1085.7897">1</text><!--MD5=[7d321659888e4e9b96abd4ec657c663f]
link ReservaDTO to paypalDTO--><!--MD5=[dabef99325ac50171ea58ab1ba50e33a]
link ReservaDTO to cartaoDTO--><!--MD5=[3de836560c529782dbb4a4ba7458985f]
link cartaoDTO to debitoDiretoDTO--><!--MD5=[8872cea472edcfba18817d1f6e37ad9e]
@startuml
skinparam classAttributeIconSize 0

package Services <<Folder>> {

class PagamentoService {
  - Pagar()
  - Receber()
}

class EmailService {
  - ObterQRCode()
  - EnviarEmail()
}

}

package Controllers <<Folder>> {

class UtilizadoresController {
  +Get GetUtilizador()
  +Get GetUtilizadorById(nif)
  +Post PostUtilizador()
  +Put PutUtilizador(nif, Utilizador)
  +Delete DeleteUtilizador(nif)
}

class ReservasController {
  +Get GetReserva()
  +Get GetReservaById(id)
  +Post PostReserva()
  +Delete DeleteReserva(id)
  +FindAvailable(freguesia, inicio, fim)
}

class TransacoesController {
  +Get GetTransacao()
  +Get GetTransacaoById(id)
  +Post PostTransacao()
}

class ParquesController {
  +Get GetParque()
  +Get GetParqueById(id)
  +Post PostParque()
  +Put PutParque(id, parque)
  +Delete DeleteParque(id)
}

class MetodoPagamentosController {
  +Get GetMetodoPagamento()
  +Get GetMetodoPagamentoById(id)
  +Post PostMetodoPagamento()
  +Put PutMetodoPagamento(id, metodoPagamento)
  +Delete DeleteMetodoPagamento(id)
}

}

package Models <<Folder>> {

class Utilizador{
  -Int nif PK
  -String nome
  -String email
  -Double carteira
  -Int credencialId
}

class Reserva {
  -Int id PK
  -Int nifUtilizador FK
  -Int parqueId FK
  -Double custo
  -Int transacaoID FK
  -Int reservaParqueId
}

class Transacao {
  -Int Id PK
  -Int nifPagador FK
  -Int nifRecepiente FK
  -Double valor
  -DateTime dataHora
  -Int metodoId FK
}

class Parque {
  -Int Id PK
  -String api_url
}

class MetodoPagamento {
  -Int Id PK
  -String nome
  -String api_url
}

package "Abstract Class Credencial" <<Frame>> {

abstract class Credencial {
}

abstract PayPal:Credencial {
  -Int Id PK
  -String email
  -String password
  -Int metodoID FK
}

abstract Cartao:Credencial {
  -Int Id PK
  -Int numero
  -String nome
  -DateTime dataValidade
  -Int cvc
  -Int metodoID FK
}

abstract DebitoDireto:Credencial {
  -Int Id PK
  -String iban
  -String nome
  -String rua
  -String codigoPostal
  -String freguesia
  -DateTime dataSubscricao
  -Int metodoID FK
}

}

}

package Data <<Folder>> {

class Context {
  -DbSet<Utilizador> Utilizadores
  -DbSet<Reserva> Reservas
  -DbSet<Transacao> Transacoes
  -DbSet<Parque> Parques
  -DbSet<MetodoPagamento> MetodosPagamento
  -DbSet<Paypal> Paypal
  -DbSet<Cartao> Cartoes
  -DbSet<DebitoDireto> DebitosDiretos
}

}

package DTOs <<Folder>> {

class ReservaDTO {
  -String RuaParque
  -Int NumeroLugar
  -String FilaLugar
  -Int AndarLugar
  -DateTime inicio
  -DateTime fim
}

class paypalDTO {
  -String email
  -String password
  -Double custo
  -String emailDestinatario
  -DateTime data
}

class cartaoDTO {
  -Int numero
  -String nome
  -DateTime dataValidade
  -Int cvc
  -String password
  -Double custo
  -Int nifDestinatario
  -DateTime data
}

class debitoDiretoDTO {
  -String iban
  -String nome
  -String rua
  -String codigoPostal
  -String freguesia
  -Double custo
  -Int nifDestinatario
  -DateTime data
}

}

UtilizadoresController ..> Utilizador
UtilizadoresController ..> Context
ReservasController ..> Reserva
ReservasController ..> Context
ReservasController ..> PagamentoService
ReservasController ..> EmailService
TransacoesController ..> Transacao
TransacoesController ..> Context
ParquesController ..> Parque
ParquesController ..> Context
MetodoPagamentosController ..> MetodoPagamento
MetodoPagamentosController ..> Context

Context "1" - -> "0..*" Utilizador: tem
Context "1" - -> "0..*" Reserva: tem
Context "1" - -> "0..*" Transacao: tem
Context "1" - -> "0..*" Parque: tem
Context "1" - -> "0..*" MetodoPagamento: tem
Context "1" - -> "0..*" "PayPal:Credencial": tem
Context "1" - -> "0..*" "Cartao:Credencial": tem
Context "1" - -> "0..*" "DebitoDireto:Credencial": tem

Reserva "0..*" - -> "1" Utilizador: tem
Reserva "0..*" - -> "1" Transacao: tem
Transacao"1..*" - -> "1" Parque: tem
Parque "0..*" - -> "1" MetodoPagamento: tem
Utilizador "1" - -> "1" Credencial: tem
Credencial - -> "PayPal:Credencial": pode ser
Credencial - -> "Cartao:Credencial": pode ser
Credencial - -> "DebitoDireto:Credencial": pode ser
"PayPal:Credencial" "0..*" - -> "1" MetodoPagamento: tem
"Cartao:Credencial" "0..*" - -> "1" MetodoPagamento: tem
"DebitoDireto:Credencial" "0..*" - -> "1" MetodoPagamento: tem
@enduml

PlantUML version 1.2021.01(Tue Feb 02 07:55:08 UTC 2021)
(GPL source distribution)
Java Runtime: Java(TM) SE Runtime Environment
JVM: Java HotSpot(TM) 64-Bit Server VM
Default Encoding: UTF-8
Language: en
Country: US
--></g></svg>