<?xml version="1.0" encoding="UTF-8" standalone="no"?><svg xmlns="http://www.w3.org/2000/svg" xmlns:xlink="http://www.w3.org/1999/xlink" contentScriptType="application/ecmascript" contentStyleType="text/css" height="1357px" preserveAspectRatio="none" style="width:2519px;height:1357px;" version="1.1" viewBox="0 0 2519 1357" width="2519px" zoomAndPan="magnify"><defs><filter height="300%" id="fkx4zpuv0f7k" width="300%" x="-1" y="-1"><feGaussianBlur result="blurOut" stdDeviation="2.0"/><feColorMatrix in="blurOut" result="blurOut2" type="matrix" values="0 0 0 0 0 0 0 0 0 0 0 0 0 0 0 0 0 0 .4 0"/><feOffset dx="4.0" dy="4.0" in="blurOut2" result="blurOut3"/><feBlend in="SourceGraphic" in2="blurOut3" mode="normal"/></filter></defs><g><!--MD5=[cdfd548b3455e70392372b1f27091970]
cluster Services--><polygon fill="#FFFFFF" filter="url(#fkx4zpuv0f7k)" points="579,258,652,258,659,280.2969,1050,280.2969,1050,383,579,383,579,258" style="stroke:#000000;stroke-width:1.5;"/><line style="stroke:#000000;stroke-width:1.5;" x1="579" x2="659" y1="280.2969" y2="280.2969"/><text fill="#000000" font-family="sans-serif" font-size="14" font-weight="bold" lengthAdjust="spacing" textLength="67" x="583" y="272.9951">Services</text><!--MD5=[ed1d20ea533a2a0e7df5ba3c35e56ced]
cluster Controllers--><polygon fill="#FFFFFF" filter="url(#fkx4zpuv0f7k)" points="1300,19,1396,19,1403,41.2969,2502,41.2969,2502,182,1300,182,1300,19" style="stroke:#000000;stroke-width:1.5;"/><line style="stroke:#000000;stroke-width:1.5;" x1="1300" x2="1403" y1="41.2969" y2="41.2969"/><text fill="#000000" font-family="sans-serif" font-size="14" font-weight="bold" lengthAdjust="spacing" textLength="90" x="1304" y="33.9951">Controllers</text><!--MD5=[027ebfd53c01aea08f474edbf35d0797]
cluster Models--><polygon fill="#FFFFFF" filter="url(#fkx4zpuv0f7k)" points="1074,258,1137,258,1144,280.2969,1874,280.2969,1874,1350,1074,1350,1074,258" style="stroke:#000000;stroke-width:1.5;"/><line style="stroke:#000000;stroke-width:1.5;" x1="1074" x2="1144" y1="280.2969" y2="280.2969"/><text fill="#000000" font-family="sans-serif" font-size="14" font-weight="bold" lengthAdjust="spacing" textLength="57" x="1078" y="272.9951">Models</text><!--MD5=[e78b582c58469ade2dfd3feff264ec83]
cluster Abstract Class Credencial--><rect fill="#FFFFFF" filter="url(#fkx4zpuv0f7k)" height="352" style="stroke:#000000;stroke-width:1.5;" width="595" x="1098" y="833"/><path d="M1317,833 L1317,842.2969 L1307,852.2969 L1098,852.2969 " fill="none" style="stroke:#000000;stroke-width:1.5;"/><text fill="#000000" font-family="sans-serif" font-size="14" font-weight="bold" lengthAdjust="spacing" textLength="209" x="1101" y="846.9951">Abstract Class Credencial</text><!--MD5=[f21b1f164e99c6b37934f23ad048ad54]
cluster Data--><polygon fill="#FFFFFF" filter="url(#fkx4zpuv0f7k)" points="1898,226,1943,226,1950,248.2969,2222,248.2969,2222,415,1898,415,1898,226" style="stroke:#000000;stroke-width:1.5;"/><line style="stroke:#000000;stroke-width:1.5;" x1="1898" x2="1950" y1="248.2969" y2="248.2969"/><text fill="#000000" font-family="sans-serif" font-size="14" font-weight="bold" lengthAdjust="spacing" textLength="39" x="1902" y="240.9951">Data</text><!--MD5=[79f6d8311de756be0abfe06353b7a6cc]
cluster DTOs--><polygon fill="#FFFFFF" filter="url(#fkx4zpuv0f7k)" points="16,6,65,6,72,28.2969,555,28.2969,555,597.5,16,597.5,16,6" style="stroke:#000000;stroke-width:1.5;"/><line style="stroke:#000000;stroke-width:1.5;" x1="16" x2="72" y1="28.2969" y2="28.2969"/><text fill="#000000" font-family="sans-serif" font-size="14" font-weight="bold" lengthAdjust="spacing" textLength="43" x="20" y="20.9951">DTOs</text><!--MD5=[73e5466d51728114e53770fb62dc101d]
class PagamentoService--><rect codeLine="5" fill="#FEFECE" filter="url(#fkx4zpuv0f7k)" height="73.6094" id="PagamentoService" style="stroke:#A80036;stroke-width:1.5;" width="144" x="890" y="293"/><ellipse cx="905" cy="309" fill="#ADD1B2" rx="11" ry="11" style="stroke:#A80036;stroke-width:1.0;"/><path d="M907.3438,304.6719 C906.4063,304.2344 905.8125,304.0938 904.9375,304.0938 C902.3125,304.0938 900.3125,306.1719 900.3125,308.8906 L900.3125,310.0156 C900.3125,312.5938 902.4219,314.4844 905.3125,314.4844 C906.5313,314.4844 907.6875,314.1875 908.4375,313.6406 C909.0156,313.2344 909.3438,312.7813 909.3438,312.3906 C909.3438,311.9375 908.9531,311.5469 908.4844,311.5469 C908.2656,311.5469 908.0625,311.625 907.875,311.8125 C907.4219,312.2969 907.4219,312.2969 907.2344,312.3906 C906.8125,312.6563 906.125,312.7813 905.3594,312.7813 C903.3125,312.7813 902.0156,311.6875 902.0156,309.9844 L902.0156,308.8906 C902.0156,307.1094 903.2656,305.7969 905,305.7969 C905.5781,305.7969 906.1875,305.9531 906.6563,306.2031 C907.1406,306.4844 907.3125,306.7031 907.4063,307.1094 C907.4688,307.5156 907.5,307.6406 907.6406,307.7656 C907.7813,307.9063 908.0156,308.0156 908.2344,308.0156 C908.5,308.0156 908.7656,307.875 908.9375,307.6563 C909.0469,307.5 909.0781,307.3125 909.0781,306.8906 L909.0781,305.4688 C909.0781,305.0313 909.0625,304.9063 908.9688,304.75 C908.8125,304.4844 908.5313,304.3438 908.2344,304.3438 C907.9375,304.3438 907.7344,304.4375 907.5156,304.75 L907.3438,304.6719 Z " fill="#000000"/><text fill="#000000" font-family="sans-serif" font-size="12" lengthAdjust="spacing" textLength="112" x="919" y="313.1543">PagamentoService</text><line style="stroke:#A80036;stroke-width:1.5;" x1="891" x2="1033" y1="325" y2="325"/><line style="stroke:#A80036;stroke-width:1.5;" x1="891" x2="1033" y1="333" y2="333"/><text fill="#000000" font-family="sans-serif" font-size="11" lengthAdjust="spacing" textLength="43" x="896" y="347.2104">-Pagar()</text><text fill="#000000" font-family="sans-serif" font-size="11" lengthAdjust="spacing" textLength="60" x="896" y="360.0151">-Receber()</text><!--MD5=[bcf33e039c9f38a306ec5209c2a9f4f8]
class EmailService--><rect codeLine="10" fill="#FEFECE" filter="url(#fkx4zpuv0f7k)" height="73.6094" id="EmailService" style="stroke:#A80036;stroke-width:1.5;" width="109" x="745.5" y="293"/><ellipse cx="760.5" cy="309" fill="#ADD1B2" rx="11" ry="11" style="stroke:#A80036;stroke-width:1.0;"/><path d="M762.8438,304.6719 C761.9063,304.2344 761.3125,304.0938 760.4375,304.0938 C757.8125,304.0938 755.8125,306.1719 755.8125,308.8906 L755.8125,310.0156 C755.8125,312.5938 757.9219,314.4844 760.8125,314.4844 C762.0313,314.4844 763.1875,314.1875 763.9375,313.6406 C764.5156,313.2344 764.8438,312.7813 764.8438,312.3906 C764.8438,311.9375 764.4531,311.5469 763.9844,311.5469 C763.7656,311.5469 763.5625,311.625 763.375,311.8125 C762.9219,312.2969 762.9219,312.2969 762.7344,312.3906 C762.3125,312.6563 761.625,312.7813 760.8594,312.7813 C758.8125,312.7813 757.5156,311.6875 757.5156,309.9844 L757.5156,308.8906 C757.5156,307.1094 758.7656,305.7969 760.5,305.7969 C761.0781,305.7969 761.6875,305.9531 762.1563,306.2031 C762.6406,306.4844 762.8125,306.7031 762.9063,307.1094 C762.9688,307.5156 763,307.6406 763.1406,307.7656 C763.2813,307.9063 763.5156,308.0156 763.7344,308.0156 C764,308.0156 764.2656,307.875 764.4375,307.6563 C764.5469,307.5 764.5781,307.3125 764.5781,306.8906 L764.5781,305.4688 C764.5781,305.0313 764.5625,304.9063 764.4688,304.75 C764.3125,304.4844 764.0313,304.3438 763.7344,304.3438 C763.4375,304.3438 763.2344,304.4375 763.0156,304.75 L762.8438,304.6719 Z " fill="#000000"/><text fill="#000000" font-family="sans-serif" font-size="12" lengthAdjust="spacing" textLength="77" x="774.5" y="313.1543">EmailService</text><line style="stroke:#A80036;stroke-width:1.5;" x1="746.5" x2="853.5" y1="325" y2="325"/><line style="stroke:#A80036;stroke-width:1.5;" x1="746.5" x2="853.5" y1="333" y2="333"/><text fill="#000000" font-family="sans-serif" font-size="11" lengthAdjust="spacing" textLength="90" x="751.5" y="347.2104">-ObterQRCode()</text><text fill="#000000" font-family="sans-serif" font-size="11" lengthAdjust="spacing" textLength="78" x="751.5" y="360.0151">-EnviarEmail()</text><!--MD5=[9d309a25205a4dcbe5c72e626122d3aa]
class TokenService--><rect codeLine="15" fill="#FEFECE" filter="url(#fkx4zpuv0f7k)" height="60.8047" id="TokenService" style="stroke:#A80036;stroke-width:1.5;" width="115" x="595.5" y="299.5"/><ellipse cx="610.5" cy="315.5" fill="#ADD1B2" rx="11" ry="11" style="stroke:#A80036;stroke-width:1.0;"/><path d="M612.8438,311.1719 C611.9063,310.7344 611.3125,310.5938 610.4375,310.5938 C607.8125,310.5938 605.8125,312.6719 605.8125,315.3906 L605.8125,316.5156 C605.8125,319.0938 607.9219,320.9844 610.8125,320.9844 C612.0313,320.9844 613.1875,320.6875 613.9375,320.1406 C614.5156,319.7344 614.8438,319.2813 614.8438,318.8906 C614.8438,318.4375 614.4531,318.0469 613.9844,318.0469 C613.7656,318.0469 613.5625,318.125 613.375,318.3125 C612.9219,318.7969 612.9219,318.7969 612.7344,318.8906 C612.3125,319.1563 611.625,319.2813 610.8594,319.2813 C608.8125,319.2813 607.5156,318.1875 607.5156,316.4844 L607.5156,315.3906 C607.5156,313.6094 608.7656,312.2969 610.5,312.2969 C611.0781,312.2969 611.6875,312.4531 612.1563,312.7031 C612.6406,312.9844 612.8125,313.2031 612.9063,313.6094 C612.9688,314.0156 613,314.1406 613.1406,314.2656 C613.2813,314.4063 613.5156,314.5156 613.7344,314.5156 C614,314.5156 614.2656,314.375 614.4375,314.1563 C614.5469,314 614.5781,313.8125 614.5781,313.3906 L614.5781,311.9688 C614.5781,311.5313 614.5625,311.4063 614.4688,311.25 C614.3125,310.9844 614.0313,310.8438 613.7344,310.8438 C613.4375,310.8438 613.2344,310.9375 613.0156,311.25 L612.8438,311.1719 Z " fill="#000000"/><text fill="#000000" font-family="sans-serif" font-size="12" lengthAdjust="spacing" textLength="83" x="624.5" y="319.6543">TokenService</text><line style="stroke:#A80036;stroke-width:1.5;" x1="596.5" x2="709.5" y1="331.5" y2="331.5"/><line style="stroke:#A80036;stroke-width:1.5;" x1="596.5" x2="709.5" y1="339.5" y2="339.5"/><text fill="#000000" font-family="sans-serif" font-size="11" lengthAdjust="spacing" textLength="75" x="601.5" y="353.7104">-BuildToken()</text><!--MD5=[f9eb12be9a4c6578c6c59b6b87282445]
class UtilizadoresController--><rect codeLine="23" fill="#FEFECE" filter="url(#fkx4zpuv0f7k)" height="99.2188" id="UtilizadoresController" style="stroke:#A80036;stroke-width:1.5;" width="180" x="1770" y="60.5"/><ellipse cx="1792.65" cy="76.5" fill="#ADD1B2" rx="11" ry="11" style="stroke:#A80036;stroke-width:1.0;"/><path d="M1794.9938,72.1719 C1794.0563,71.7344 1793.4625,71.5938 1792.5875,71.5938 C1789.9625,71.5938 1787.9625,73.6719 1787.9625,76.3906 L1787.9625,77.5156 C1787.9625,80.0938 1790.0719,81.9844 1792.9625,81.9844 C1794.1813,81.9844 1795.3375,81.6875 1796.0875,81.1406 C1796.6656,80.7344 1796.9938,80.2813 1796.9938,79.8906 C1796.9938,79.4375 1796.6031,79.0469 1796.1344,79.0469 C1795.9156,79.0469 1795.7125,79.125 1795.525,79.3125 C1795.0719,79.7969 1795.0719,79.7969 1794.8844,79.8906 C1794.4625,80.1563 1793.775,80.2813 1793.0094,80.2813 C1790.9625,80.2813 1789.6656,79.1875 1789.6656,77.4844 L1789.6656,76.3906 C1789.6656,74.6094 1790.9156,73.2969 1792.65,73.2969 C1793.2281,73.2969 1793.8375,73.4531 1794.3063,73.7031 C1794.7906,73.9844 1794.9625,74.2031 1795.0563,74.6094 C1795.1188,75.0156 1795.15,75.1406 1795.2906,75.2656 C1795.4313,75.4063 1795.6656,75.5156 1795.8844,75.5156 C1796.15,75.5156 1796.4156,75.375 1796.5875,75.1563 C1796.6969,75 1796.7281,74.8125 1796.7281,74.3906 L1796.7281,72.9688 C1796.7281,72.5313 1796.7125,72.4063 1796.6188,72.25 C1796.4625,71.9844 1796.1813,71.8438 1795.8844,71.8438 C1795.5875,71.8438 1795.3844,71.9375 1795.1656,72.25 L1794.9938,72.1719 Z " fill="#000000"/><text fill="#000000" font-family="sans-serif" font-size="12" lengthAdjust="spacing" textLength="131" x="1808.35" y="80.6543">UtilizadoresController</text><line style="stroke:#A80036;stroke-width:1.5;" x1="1771" x2="1949" y1="92.5" y2="92.5"/><line style="stroke:#A80036;stroke-width:1.5;" x1="1771" x2="1949" y1="100.5" y2="100.5"/><text fill="#000000" font-family="sans-serif" font-size="11" lengthAdjust="spacing" textLength="116" x="1776" y="114.7104">+Get GetUtilizador()</text><text fill="#000000" font-family="sans-serif" font-size="11" lengthAdjust="spacing" textLength="143" x="1776" y="127.5151">+Post RegistarUtilizador()</text><text fill="#000000" font-family="sans-serif" font-size="11" lengthAdjust="spacing" textLength="74" x="1776" y="140.3198">+Post Login()</text><text fill="#000000" font-family="sans-serif" font-size="11" lengthAdjust="spacing" textLength="168" x="1776" y="153.1245">+Delete DeleteUtilizador(nif)</text><!--MD5=[884d341d7584b75b159fb4abcbb8e424]
class ReservasController--><rect codeLine="30" fill="#FEFECE" filter="url(#fkx4zpuv0f7k)" height="112.0234" id="ReservasController" style="stroke:#A80036;stroke-width:1.5;" width="220" x="1316" y="54"/><ellipse cx="1364.25" cy="70" fill="#ADD1B2" rx="11" ry="11" style="stroke:#A80036;stroke-width:1.0;"/><path d="M1366.5938,65.6719 C1365.6563,65.2344 1365.0625,65.0938 1364.1875,65.0938 C1361.5625,65.0938 1359.5625,67.1719 1359.5625,69.8906 L1359.5625,71.0156 C1359.5625,73.5938 1361.6719,75.4844 1364.5625,75.4844 C1365.7813,75.4844 1366.9375,75.1875 1367.6875,74.6406 C1368.2656,74.2344 1368.5938,73.7813 1368.5938,73.3906 C1368.5938,72.9375 1368.2031,72.5469 1367.7344,72.5469 C1367.5156,72.5469 1367.3125,72.625 1367.125,72.8125 C1366.6719,73.2969 1366.6719,73.2969 1366.4844,73.3906 C1366.0625,73.6563 1365.375,73.7813 1364.6094,73.7813 C1362.5625,73.7813 1361.2656,72.6875 1361.2656,70.9844 L1361.2656,69.8906 C1361.2656,68.1094 1362.5156,66.7969 1364.25,66.7969 C1364.8281,66.7969 1365.4375,66.9531 1365.9063,67.2031 C1366.3906,67.4844 1366.5625,67.7031 1366.6563,68.1094 C1366.7188,68.5156 1366.75,68.6406 1366.8906,68.7656 C1367.0313,68.9063 1367.2656,69.0156 1367.4844,69.0156 C1367.75,69.0156 1368.0156,68.875 1368.1875,68.6563 C1368.2969,68.5 1368.3281,68.3125 1368.3281,67.8906 L1368.3281,66.4688 C1368.3281,66.0313 1368.3125,65.9063 1368.2188,65.75 C1368.0625,65.4844 1367.7813,65.3438 1367.4844,65.3438 C1367.1875,65.3438 1366.9844,65.4375 1366.7656,65.75 L1366.5938,65.6719 Z " fill="#000000"/><text fill="#000000" font-family="sans-serif" font-size="12" lengthAdjust="spacing" textLength="115" x="1384.75" y="74.1543">ReservasController</text><line style="stroke:#A80036;stroke-width:1.5;" x1="1317" x2="1535" y1="86" y2="86"/><line style="stroke:#A80036;stroke-width:1.5;" x1="1317" x2="1535" y1="94" y2="94"/><text fill="#000000" font-family="sans-serif" font-size="11" lengthAdjust="spacing" textLength="110" x="1322" y="108.2104">+Get GetReserva()</text><text fill="#000000" font-family="sans-serif" font-size="11" lengthAdjust="spacing" textLength="145" x="1322" y="121.0151">+Get GetReservaById(id)</text><text fill="#000000" font-family="sans-serif" font-size="11" lengthAdjust="spacing" textLength="114" x="1322" y="133.8198">+Post PostReserva()</text><text fill="#000000" font-family="sans-serif" font-size="11" lengthAdjust="spacing" textLength="158" x="1322" y="146.6245">+Delete DeleteReserva(id)</text><text fill="#000000" font-family="sans-serif" font-size="11" lengthAdjust="spacing" textLength="208" x="1322" y="159.4292">+FindAvailable(freguesia, inicio, fim)</text><!--MD5=[5497ff8c96f50abd293e35e15183e187]
class TransacoesController--><rect codeLine="38" fill="#FEFECE" filter="url(#fkx4zpuv0f7k)" height="86.4141" id="TransacoesController" style="stroke:#A80036;stroke-width:1.5;" width="168" x="1985" y="67"/><ellipse cx="2003.15" cy="83" fill="#ADD1B2" rx="11" ry="11" style="stroke:#A80036;stroke-width:1.0;"/><path d="M2005.4938,78.6719 C2004.5563,78.2344 2003.9625,78.0938 2003.0875,78.0938 C2000.4625,78.0938 1998.4625,80.1719 1998.4625,82.8906 L1998.4625,84.0156 C1998.4625,86.5938 2000.5719,88.4844 2003.4625,88.4844 C2004.6813,88.4844 2005.8375,88.1875 2006.5875,87.6406 C2007.1656,87.2344 2007.4938,86.7813 2007.4938,86.3906 C2007.4938,85.9375 2007.1031,85.5469 2006.6344,85.5469 C2006.4156,85.5469 2006.2125,85.625 2006.025,85.8125 C2005.5719,86.2969 2005.5719,86.2969 2005.3844,86.3906 C2004.9625,86.6563 2004.275,86.7813 2003.5094,86.7813 C2001.4625,86.7813 2000.1656,85.6875 2000.1656,83.9844 L2000.1656,82.8906 C2000.1656,81.1094 2001.4156,79.7969 2003.15,79.7969 C2003.7281,79.7969 2004.3375,79.9531 2004.8063,80.2031 C2005.2906,80.4844 2005.4625,80.7031 2005.5563,81.1094 C2005.6188,81.5156 2005.65,81.6406 2005.7906,81.7656 C2005.9313,81.9063 2006.1656,82.0156 2006.3844,82.0156 C2006.65,82.0156 2006.9156,81.875 2007.0875,81.6563 C2007.1969,81.5 2007.2281,81.3125 2007.2281,80.8906 L2007.2281,79.4688 C2007.2281,79.0313 2007.2125,78.9063 2007.1188,78.75 C2006.9625,78.4844 2006.6813,78.3438 2006.3844,78.3438 C2006.0875,78.3438 2005.8844,78.4375 2005.6656,78.75 L2005.4938,78.6719 Z " fill="#000000"/><text fill="#000000" font-family="sans-serif" font-size="12" lengthAdjust="spacing" textLength="129" x="2017.85" y="87.1543">TransacoesController</text><line style="stroke:#A80036;stroke-width:1.5;" x1="1986" x2="2152" y1="99" y2="99"/><line style="stroke:#A80036;stroke-width:1.5;" x1="1986" x2="2152" y1="107" y2="107"/><text fill="#000000" font-family="sans-serif" font-size="11" lengthAdjust="spacing" textLength="121" x="1991" y="121.2104">+Get GetTransacao()</text><text fill="#000000" font-family="sans-serif" font-size="11" lengthAdjust="spacing" textLength="156" x="1991" y="134.0151">+Get GetTransacaoById(id)</text><text fill="#000000" font-family="sans-serif" font-size="11" lengthAdjust="spacing" textLength="125" x="1991" y="146.8198">+Post PostTransacao()</text><!--MD5=[0eebc07912bfe174f9973dd50f89fb9e]
class ParquesController--><rect codeLine="44" fill="#FEFECE" filter="url(#fkx4zpuv0f7k)" height="112.0234" id="ParquesController" style="stroke:#A80036;stroke-width:1.5;" width="163" x="1571.5" y="54"/><ellipse cx="1597.3" cy="70" fill="#ADD1B2" rx="11" ry="11" style="stroke:#A80036;stroke-width:1.0;"/><path d="M1599.6438,65.6719 C1598.7063,65.2344 1598.1125,65.0938 1597.2375,65.0938 C1594.6125,65.0938 1592.6125,67.1719 1592.6125,69.8906 L1592.6125,71.0156 C1592.6125,73.5938 1594.7219,75.4844 1597.6125,75.4844 C1598.8313,75.4844 1599.9875,75.1875 1600.7375,74.6406 C1601.3156,74.2344 1601.6438,73.7813 1601.6438,73.3906 C1601.6438,72.9375 1601.2531,72.5469 1600.7844,72.5469 C1600.5656,72.5469 1600.3625,72.625 1600.175,72.8125 C1599.7219,73.2969 1599.7219,73.2969 1599.5344,73.3906 C1599.1125,73.6563 1598.425,73.7813 1597.6594,73.7813 C1595.6125,73.7813 1594.3156,72.6875 1594.3156,70.9844 L1594.3156,69.8906 C1594.3156,68.1094 1595.5656,66.7969 1597.3,66.7969 C1597.8781,66.7969 1598.4875,66.9531 1598.9563,67.2031 C1599.4406,67.4844 1599.6125,67.7031 1599.7063,68.1094 C1599.7688,68.5156 1599.8,68.6406 1599.9406,68.7656 C1600.0813,68.9063 1600.3156,69.0156 1600.5344,69.0156 C1600.8,69.0156 1601.0656,68.875 1601.2375,68.6563 C1601.3469,68.5 1601.3781,68.3125 1601.3781,67.8906 L1601.3781,66.4688 C1601.3781,66.0313 1601.3625,65.9063 1601.2688,65.75 C1601.1125,65.4844 1600.8313,65.3438 1600.5344,65.3438 C1600.2375,65.3438 1600.0344,65.4375 1599.8156,65.75 L1599.6438,65.6719 Z " fill="#000000"/><text fill="#000000" font-family="sans-serif" font-size="12" lengthAdjust="spacing" textLength="107" x="1613.7" y="74.1543">ParquesController</text><line style="stroke:#A80036;stroke-width:1.5;" x1="1572.5" x2="1733.5" y1="86" y2="86"/><line style="stroke:#A80036;stroke-width:1.5;" x1="1572.5" x2="1733.5" y1="94" y2="94"/><text fill="#000000" font-family="sans-serif" font-size="11" lengthAdjust="spacing" textLength="102" x="1577.5" y="108.2104">+Get GetParque()</text><text fill="#000000" font-family="sans-serif" font-size="11" lengthAdjust="spacing" textLength="137" x="1577.5" y="121.0151">+Get GetParqueById(id)</text><text fill="#000000" font-family="sans-serif" font-size="11" lengthAdjust="spacing" textLength="106" x="1577.5" y="133.8198">+Post PostParque()</text><text fill="#000000" font-family="sans-serif" font-size="11" lengthAdjust="spacing" textLength="151" x="1577.5" y="146.6245">+Put PutParque(id, parque)</text><text fill="#000000" font-family="sans-serif" font-size="11" lengthAdjust="spacing" textLength="150" x="1577.5" y="159.4292">+Delete DeleteParque(id)</text><!--MD5=[8aae60f72113f84792ccdc4d65a5d4de]
class MetodoPagamentosController--><rect codeLine="52" fill="#FEFECE" filter="url(#fkx4zpuv0f7k)" height="112.0234" id="MetodoPagamentosController" style="stroke:#A80036;stroke-width:1.5;" width="298" x="2188" y="54"/><ellipse cx="2243.75" cy="70" fill="#ADD1B2" rx="11" ry="11" style="stroke:#A80036;stroke-width:1.0;"/><path d="M2246.0938,65.6719 C2245.1563,65.2344 2244.5625,65.0938 2243.6875,65.0938 C2241.0625,65.0938 2239.0625,67.1719 2239.0625,69.8906 L2239.0625,71.0156 C2239.0625,73.5938 2241.1719,75.4844 2244.0625,75.4844 C2245.2813,75.4844 2246.4375,75.1875 2247.1875,74.6406 C2247.7656,74.2344 2248.0938,73.7813 2248.0938,73.3906 C2248.0938,72.9375 2247.7031,72.5469 2247.2344,72.5469 C2247.0156,72.5469 2246.8125,72.625 2246.625,72.8125 C2246.1719,73.2969 2246.1719,73.2969 2245.9844,73.3906 C2245.5625,73.6563 2244.875,73.7813 2244.1094,73.7813 C2242.0625,73.7813 2240.7656,72.6875 2240.7656,70.9844 L2240.7656,69.8906 C2240.7656,68.1094 2242.0156,66.7969 2243.75,66.7969 C2244.3281,66.7969 2244.9375,66.9531 2245.4063,67.2031 C2245.8906,67.4844 2246.0625,67.7031 2246.1563,68.1094 C2246.2188,68.5156 2246.25,68.6406 2246.3906,68.7656 C2246.5313,68.9063 2246.7656,69.0156 2246.9844,69.0156 C2247.25,69.0156 2247.5156,68.875 2247.6875,68.6563 C2247.7969,68.5 2247.8281,68.3125 2247.8281,67.8906 L2247.8281,66.4688 C2247.8281,66.0313 2247.8125,65.9063 2247.7188,65.75 C2247.5625,65.4844 2247.2813,65.3438 2246.9844,65.3438 C2246.6875,65.3438 2246.4844,65.4375 2246.2656,65.75 L2246.0938,65.6719 Z " fill="#000000"/><text fill="#000000" font-family="sans-serif" font-size="12" lengthAdjust="spacing" textLength="178" x="2264.25" y="74.1543">MetodoPagamentosController</text><line style="stroke:#A80036;stroke-width:1.5;" x1="2189" x2="2485" y1="86" y2="86"/><line style="stroke:#A80036;stroke-width:1.5;" x1="2189" x2="2485" y1="94" y2="94"/><text fill="#000000" font-family="sans-serif" font-size="11" lengthAdjust="spacing" textLength="169" x="2194" y="108.2104">+Get GetMetodoPagamento()</text><text fill="#000000" font-family="sans-serif" font-size="11" lengthAdjust="spacing" textLength="204" x="2194" y="121.0151">+Get GetMetodoPagamentoById(id)</text><text fill="#000000" font-family="sans-serif" font-size="11" lengthAdjust="spacing" textLength="173" x="2194" y="133.8198">+Post PostMetodoPagamento()</text><text fill="#000000" font-family="sans-serif" font-size="11" lengthAdjust="spacing" textLength="286" x="2194" y="146.6245">+Put PutMetodoPagamento(id, metodoPagamento)</text><text fill="#000000" font-family="sans-serif" font-size="11" lengthAdjust="spacing" textLength="217" x="2194" y="159.4292">+Delete DeleteMetodoPagamento(id)</text><!--MD5=[6ba8f7c8b21b231e36ca04649652f184]
class Utilizador:IdentityUser--><rect codeLine="64" fill="#FEFECE" filter="url(#fkx4zpuv0f7k)" height="86.4141" id="Utilizador:IdentityUser" style="stroke:#A80036;stroke-width:1.5;" width="166" x="1577" y="684"/><ellipse cx="1592" cy="700" fill="#ADD1B2" rx="11" ry="11" style="stroke:#A80036;stroke-width:1.0;"/><path d="M1594.3438,695.6719 C1593.4063,695.2344 1592.8125,695.0938 1591.9375,695.0938 C1589.3125,695.0938 1587.3125,697.1719 1587.3125,699.8906 L1587.3125,701.0156 C1587.3125,703.5938 1589.4219,705.4844 1592.3125,705.4844 C1593.5313,705.4844 1594.6875,705.1875 1595.4375,704.6406 C1596.0156,704.2344 1596.3438,703.7813 1596.3438,703.3906 C1596.3438,702.9375 1595.9531,702.5469 1595.4844,702.5469 C1595.2656,702.5469 1595.0625,702.625 1594.875,702.8125 C1594.4219,703.2969 1594.4219,703.2969 1594.2344,703.3906 C1593.8125,703.6563 1593.125,703.7813 1592.3594,703.7813 C1590.3125,703.7813 1589.0156,702.6875 1589.0156,700.9844 L1589.0156,699.8906 C1589.0156,698.1094 1590.2656,696.7969 1592,696.7969 C1592.5781,696.7969 1593.1875,696.9531 1593.6563,697.2031 C1594.1406,697.4844 1594.3125,697.7031 1594.4063,698.1094 C1594.4688,698.5156 1594.5,698.6406 1594.6406,698.7656 C1594.7813,698.9063 1595.0156,699.0156 1595.2344,699.0156 C1595.5,699.0156 1595.7656,698.875 1595.9375,698.6563 C1596.0469,698.5 1596.0781,698.3125 1596.0781,697.8906 L1596.0781,696.4688 C1596.0781,696.0313 1596.0625,695.9063 1595.9688,695.75 C1595.8125,695.4844 1595.5313,695.3438 1595.2344,695.3438 C1594.9375,695.3438 1594.7344,695.4375 1594.5156,695.75 L1594.3438,695.6719 Z " fill="#000000"/><text fill="#000000" font-family="sans-serif" font-size="12" lengthAdjust="spacing" textLength="134" x="1606" y="704.1543">Utilizador:IdentityUser</text><line style="stroke:#A80036;stroke-width:1.5;" x1="1578" x2="1742" y1="716" y2="716"/><text fill="#000000" font-family="sans-serif" font-size="11" lengthAdjust="spacing" textLength="74" x="1583" y="730.2104">-String nome</text><text fill="#000000" font-family="sans-serif" font-size="11" lengthAdjust="spacing" textLength="92" x="1583" y="743.0151">-Double carteira</text><text fill="#000000" font-family="sans-serif" font-size="11" lengthAdjust="spacing" textLength="108" x="1583" y="755.8198">-Int credencialId FK</text><line style="stroke:#A80036;stroke-width:1.5;" x1="1578" x2="1742" y1="762.4141" y2="762.4141"/><!--MD5=[6ea9d6598d9760662639554c9857ab6b]
class Reserva--><rect codeLine="70" fill="#FEFECE" filter="url(#fkx4zpuv0f7k)" height="124.8281" id="Reserva" style="stroke:#A80036;stroke-width:1.5;" width="137" x="1471.5" y="482"/><ellipse cx="1511.7" cy="498" fill="#ADD1B2" rx="11" ry="11" style="stroke:#A80036;stroke-width:1.0;"/><path d="M1514.0438,493.6719 C1513.1063,493.2344 1512.5125,493.0938 1511.6375,493.0938 C1509.0125,493.0938 1507.0125,495.1719 1507.0125,497.8906 L1507.0125,499.0156 C1507.0125,501.5938 1509.1219,503.4844 1512.0125,503.4844 C1513.2313,503.4844 1514.3875,503.1875 1515.1375,502.6406 C1515.7156,502.2344 1516.0438,501.7813 1516.0438,501.3906 C1516.0438,500.9375 1515.6531,500.5469 1515.1844,500.5469 C1514.9656,500.5469 1514.7625,500.625 1514.575,500.8125 C1514.1219,501.2969 1514.1219,501.2969 1513.9344,501.3906 C1513.5125,501.6563 1512.825,501.7813 1512.0594,501.7813 C1510.0125,501.7813 1508.7156,500.6875 1508.7156,498.9844 L1508.7156,497.8906 C1508.7156,496.1094 1509.9656,494.7969 1511.7,494.7969 C1512.2781,494.7969 1512.8875,494.9531 1513.3563,495.2031 C1513.8406,495.4844 1514.0125,495.7031 1514.1063,496.1094 C1514.1688,496.5156 1514.2,496.6406 1514.3406,496.7656 C1514.4813,496.9063 1514.7156,497.0156 1514.9344,497.0156 C1515.2,497.0156 1515.4656,496.875 1515.6375,496.6563 C1515.7469,496.5 1515.7781,496.3125 1515.7781,495.8906 L1515.7781,494.4688 C1515.7781,494.0313 1515.7625,493.9063 1515.6688,493.75 C1515.5125,493.4844 1515.2313,493.3438 1514.9344,493.3438 C1514.6375,493.3438 1514.4344,493.4375 1514.2156,493.75 L1514.0438,493.6719 Z " fill="#000000"/><text fill="#000000" font-family="sans-serif" font-size="12" lengthAdjust="spacing" textLength="49" x="1531.3" y="502.1543">Reserva</text><line style="stroke:#A80036;stroke-width:1.5;" x1="1472.5" x2="1607.5" y1="514" y2="514"/><text fill="#000000" font-family="sans-serif" font-size="11" lengthAdjust="spacing" textLength="49" x="1477.5" y="528.2104">-Int id PK</text><text fill="#000000" font-family="sans-serif" font-size="11" lengthAdjust="spacing" textLength="125" x="1477.5" y="541.0151">-String nifUtilizador FK</text><text fill="#000000" font-family="sans-serif" font-size="11" lengthAdjust="spacing" textLength="89" x="1477.5" y="553.8198">-Int parqueId FK</text><text fill="#000000" font-family="sans-serif" font-size="11" lengthAdjust="spacing" textLength="106" x="1477.5" y="566.6245">-Int transacaoID FK</text><text fill="#000000" font-family="sans-serif" font-size="11" lengthAdjust="spacing" textLength="79" x="1477.5" y="579.4292">-Double custo</text><text fill="#000000" font-family="sans-serif" font-size="11" lengthAdjust="spacing" textLength="115" x="1477.5" y="592.2339">-Int reservaParqueId</text><line style="stroke:#A80036;stroke-width:1.5;" x1="1472.5" x2="1607.5" y1="598.8281" y2="598.8281"/><!--MD5=[2de463454f7588e20c9a29e8d111f9cc]
class Transacao--><rect codeLine="79" fill="#FEFECE" filter="url(#fkx4zpuv0f7k)" height="124.8281" id="Transacao" style="stroke:#A80036;stroke-width:1.5;" width="145" x="1712.5" y="1031.5"/><ellipse cx="1750.45" cy="1047.5" fill="#ADD1B2" rx="11" ry="11" style="stroke:#A80036;stroke-width:1.0;"/><path d="M1752.7938,1043.1719 C1751.8563,1042.7344 1751.2625,1042.5938 1750.3875,1042.5938 C1747.7625,1042.5938 1745.7625,1044.6719 1745.7625,1047.3906 L1745.7625,1048.5156 C1745.7625,1051.0938 1747.8719,1052.9844 1750.7625,1052.9844 C1751.9813,1052.9844 1753.1375,1052.6875 1753.8875,1052.1406 C1754.4656,1051.7344 1754.7938,1051.2813 1754.7938,1050.8906 C1754.7938,1050.4375 1754.4031,1050.0469 1753.9344,1050.0469 C1753.7156,1050.0469 1753.5125,1050.125 1753.325,1050.3125 C1752.8719,1050.7969 1752.8719,1050.7969 1752.6844,1050.8906 C1752.2625,1051.1563 1751.575,1051.2813 1750.8094,1051.2813 C1748.7625,1051.2813 1747.4656,1050.1875 1747.4656,1048.4844 L1747.4656,1047.3906 C1747.4656,1045.6094 1748.7156,1044.2969 1750.45,1044.2969 C1751.0281,1044.2969 1751.6375,1044.4531 1752.1063,1044.7031 C1752.5906,1044.9844 1752.7625,1045.2031 1752.8563,1045.6094 C1752.9188,1046.0156 1752.95,1046.1406 1753.0906,1046.2656 C1753.2313,1046.4063 1753.4656,1046.5156 1753.6844,1046.5156 C1753.95,1046.5156 1754.2156,1046.375 1754.3875,1046.1563 C1754.4969,1046 1754.5281,1045.8125 1754.5281,1045.3906 L1754.5281,1043.9688 C1754.5281,1043.5313 1754.5125,1043.4063 1754.4188,1043.25 C1754.2625,1042.9844 1753.9813,1042.8438 1753.6844,1042.8438 C1753.3875,1042.8438 1753.1844,1042.9375 1752.9656,1043.25 L1752.7938,1043.1719 Z " fill="#000000"/><text fill="#000000" font-family="sans-serif" font-size="12" lengthAdjust="spacing" textLength="62" x="1769.55" y="1051.6543">Transacao</text><line style="stroke:#A80036;stroke-width:1.5;" x1="1713.5" x2="1856.5" y1="1063.5" y2="1063.5"/><text fill="#000000" font-family="sans-serif" font-size="11" lengthAdjust="spacing" textLength="49" x="1718.5" y="1077.7104">-Int Id PK</text><text fill="#000000" font-family="sans-serif" font-size="11" lengthAdjust="spacing" textLength="117" x="1718.5" y="1090.5151">-String nifPagador FK</text><text fill="#000000" font-family="sans-serif" font-size="11" lengthAdjust="spacing" textLength="133" x="1718.5" y="1103.3198">-String nifRecipiente FK</text><text fill="#000000" font-family="sans-serif" font-size="11" lengthAdjust="spacing" textLength="93" x="1718.5" y="1116.1245">-Int metodoId FK</text><text fill="#000000" font-family="sans-serif" font-size="11" lengthAdjust="spacing" textLength="77" x="1718.5" y="1128.9292">-Double valor</text><text fill="#000000" font-family="sans-serif" font-size="11" lengthAdjust="spacing" textLength="116" x="1718.5" y="1141.7339">-DateTime dataHora</text><line style="stroke:#A80036;stroke-width:1.5;" x1="1713.5" x2="1856.5" y1="1148.3281" y2="1148.3281"/><!--MD5=[1a083dbe42a284ae0ea7f6f701783206]
class Parque--><rect codeLine="88" fill="#FEFECE" filter="url(#fkx4zpuv0f7k)" height="73.6094" id="Parque" style="stroke:#A80036;stroke-width:1.5;" width="85" x="1427.5" y="293"/><ellipse cx="1447.9" cy="309" fill="#ADD1B2" rx="11" ry="11" style="stroke:#A80036;stroke-width:1.0;"/><path d="M1450.2438,304.6719 C1449.3063,304.2344 1448.7125,304.0938 1447.8375,304.0938 C1445.2125,304.0938 1443.2125,306.1719 1443.2125,308.8906 L1443.2125,310.0156 C1443.2125,312.5938 1445.3219,314.4844 1448.2125,314.4844 C1449.4313,314.4844 1450.5875,314.1875 1451.3375,313.6406 C1451.9156,313.2344 1452.2438,312.7813 1452.2438,312.3906 C1452.2438,311.9375 1451.8531,311.5469 1451.3844,311.5469 C1451.1656,311.5469 1450.9625,311.625 1450.775,311.8125 C1450.3219,312.2969 1450.3219,312.2969 1450.1344,312.3906 C1449.7125,312.6563 1449.025,312.7813 1448.2594,312.7813 C1446.2125,312.7813 1444.9156,311.6875 1444.9156,309.9844 L1444.9156,308.8906 C1444.9156,307.1094 1446.1656,305.7969 1447.9,305.7969 C1448.4781,305.7969 1449.0875,305.9531 1449.5563,306.2031 C1450.0406,306.4844 1450.2125,306.7031 1450.3063,307.1094 C1450.3688,307.5156 1450.4,307.6406 1450.5406,307.7656 C1450.6813,307.9063 1450.9156,308.0156 1451.1344,308.0156 C1451.4,308.0156 1451.6656,307.875 1451.8375,307.6563 C1451.9469,307.5 1451.9781,307.3125 1451.9781,306.8906 L1451.9781,305.4688 C1451.9781,305.0313 1451.9625,304.9063 1451.8688,304.75 C1451.7125,304.4844 1451.4313,304.3438 1451.1344,304.3438 C1450.8375,304.3438 1450.6344,304.4375 1450.4156,304.75 L1450.2438,304.6719 Z " fill="#000000"/><text fill="#000000" font-family="sans-serif" font-size="12" lengthAdjust="spacing" textLength="41" x="1463.1" y="313.1543">Parque</text><line style="stroke:#A80036;stroke-width:1.5;" x1="1428.5" x2="1511.5" y1="325" y2="325"/><text fill="#000000" font-family="sans-serif" font-size="11" lengthAdjust="spacing" textLength="49" x="1433.5" y="339.2104">-Int Id PK</text><text fill="#000000" font-family="sans-serif" font-size="11" lengthAdjust="spacing" textLength="73" x="1433.5" y="352.0151">-String apiUrl</text><line style="stroke:#A80036;stroke-width:1.5;" x1="1428.5" x2="1511.5" y1="358.6094" y2="358.6094"/><!--MD5=[dd719319fb662e6a1a7d2797ca995003]
class MetodoPagamento--><rect codeLine="93" fill="#FEFECE" filter="url(#fkx4zpuv0f7k)" height="86.4141" id="MetodoPagamento" style="stroke:#A80036;stroke-width:1.5;" width="144" x="1600" y="1248"/><ellipse cx="1615" cy="1264" fill="#ADD1B2" rx="11" ry="11" style="stroke:#A80036;stroke-width:1.0;"/><path d="M1617.3438,1259.6719 C1616.4063,1259.2344 1615.8125,1259.0938 1614.9375,1259.0938 C1612.3125,1259.0938 1610.3125,1261.1719 1610.3125,1263.8906 L1610.3125,1265.0156 C1610.3125,1267.5938 1612.4219,1269.4844 1615.3125,1269.4844 C1616.5313,1269.4844 1617.6875,1269.1875 1618.4375,1268.6406 C1619.0156,1268.2344 1619.3438,1267.7813 1619.3438,1267.3906 C1619.3438,1266.9375 1618.9531,1266.5469 1618.4844,1266.5469 C1618.2656,1266.5469 1618.0625,1266.625 1617.875,1266.8125 C1617.4219,1267.2969 1617.4219,1267.2969 1617.2344,1267.3906 C1616.8125,1267.6563 1616.125,1267.7813 1615.3594,1267.7813 C1613.3125,1267.7813 1612.0156,1266.6875 1612.0156,1264.9844 L1612.0156,1263.8906 C1612.0156,1262.1094 1613.2656,1260.7969 1615,1260.7969 C1615.5781,1260.7969 1616.1875,1260.9531 1616.6563,1261.2031 C1617.1406,1261.4844 1617.3125,1261.7031 1617.4063,1262.1094 C1617.4688,1262.5156 1617.5,1262.6406 1617.6406,1262.7656 C1617.7813,1262.9063 1618.0156,1263.0156 1618.2344,1263.0156 C1618.5,1263.0156 1618.7656,1262.875 1618.9375,1262.6563 C1619.0469,1262.5 1619.0781,1262.3125 1619.0781,1261.8906 L1619.0781,1260.4688 C1619.0781,1260.0313 1619.0625,1259.9063 1618.9688,1259.75 C1618.8125,1259.4844 1618.5313,1259.3438 1618.2344,1259.3438 C1617.9375,1259.3438 1617.7344,1259.4375 1617.5156,1259.75 L1617.3438,1259.6719 Z " fill="#000000"/><text fill="#000000" font-family="sans-serif" font-size="12" lengthAdjust="spacing" textLength="112" x="1629" y="1268.1543">MetodoPagamento</text><line style="stroke:#A80036;stroke-width:1.5;" x1="1601" x2="1743" y1="1280" y2="1280"/><text fill="#000000" font-family="sans-serif" font-size="11" lengthAdjust="spacing" textLength="49" x="1606" y="1294.2104">-Int Id PK</text><text fill="#000000" font-family="sans-serif" font-size="11" lengthAdjust="spacing" textLength="74" x="1606" y="1307.0151">-String nome</text><text fill="#000000" font-family="sans-serif" font-size="11" lengthAdjust="spacing" textLength="73" x="1606" y="1319.8198">-String apiUrl</text><line style="stroke:#A80036;stroke-width:1.5;" x1="1601" x2="1743" y1="1326.4141" y2="1326.4141"/><!--MD5=[bfdc1b8eaefc8c778d1b4f72f951119e]
class Credencial--><rect codeLine="101" fill="#FEFECE" filter="url(#fkx4zpuv0f7k)" height="73.6094" id="Credencial" style="stroke:#A80036;stroke-width:1.5;" width="95" x="1415.5" y="868"/><ellipse cx="1430.5" cy="884" fill="#A9DCDF" rx="11" ry="11" style="stroke:#A80036;stroke-width:1.0;"/><path d="M1432.5781,885.8125 L1432.9688,886.7969 L1432.5781,886.7969 C1432.125,886.7969 1432.0156,886.8125 1431.8594,886.9219 C1431.6094,887.0781 1431.4531,887.3594 1431.4531,887.6563 C1431.4531,887.9219 1431.5938,888.1719 1431.8125,888.3281 C1431.9531,888.4531 1432.1563,888.5 1432.5781,888.5 L1434.9375,888.5 C1435.2969,888.5 1435.5156,888.4688 1435.6563,888.375 C1435.9063,888.2344 1436.0625,887.9375 1436.0625,887.6563 C1436.0625,887.375 1435.9219,887.125 1435.7031,886.9688 C1435.5313,886.8281 1435.375,886.7969 1434.9063,886.7969 L1431.5156,878.5938 L1427.8438,878.5938 C1427.3906,878.5938 1427.2656,878.6094 1427.1094,878.7031 C1426.8594,878.875 1426.7031,879.1563 1426.7031,879.4375 C1426.7031,879.7188 1426.8438,879.9688 1427.0625,880.1406 C1427.2344,880.25 1427.4063,880.2813 1427.8438,880.2813 L1428.9219,880.2813 L1426.2813,886.7969 C1425.8594,886.7969 1425.7031,886.8125 1425.5469,886.9219 C1425.2969,887.0781 1425.1406,887.3594 1425.1406,887.6563 C1425.1406,888.2188 1425.5156,888.5 1426.2656,888.5 L1428.5313,888.5 C1428.8906,888.5 1429.1094,888.4688 1429.2344,888.375 C1429.5,888.2344 1429.6406,887.9375 1429.6406,887.6563 C1429.6406,887.375 1429.5156,887.125 1429.2969,886.9531 C1429.125,886.8281 1428.9844,886.7969 1428.5313,886.7969 L1428.1406,886.7969 L1428.5313,885.8125 L1432.5781,885.8125 Z M1431.875,884.1094 L1429.2031,884.1094 L1430.5469,880.8438 L1431.875,884.1094 Z " fill="#000000"/><text fill="#000000" font-family="sans-serif" font-size="12" font-style="italic" lengthAdjust="spacing" textLength="63" x="1444.5" y="888.1543">Credencial</text><line style="stroke:#A80036;stroke-width:1.5;" x1="1416.5" x2="1509.5" y1="900" y2="900"/><text fill="#000000" font-family="sans-serif" font-size="11" lengthAdjust="spacing" textLength="49" x="1421.5" y="914.2104">-Int Id PK</text><text fill="#000000" font-family="sans-serif" font-size="11" lengthAdjust="spacing" textLength="76" x="1421.5" y="927.0151">-Int metodoId</text><line style="stroke:#A80036;stroke-width:1.5;" x1="1416.5" x2="1509.5" y1="933.6094" y2="933.6094"/><!--MD5=[7a55ef00a9e867fb2b33f16729653f53]
class PayPal:Credencial--><rect codeLine="106" fill="#FEFECE" filter="url(#fkx4zpuv0f7k)" height="99.2188" id="PayPal:Credencial" style="stroke:#A80036;stroke-width:1.5;" width="159" x="1308.5" y="1044.5"/><ellipse cx="1333.4" cy="1060.5" fill="#A9DCDF" rx="11" ry="11" style="stroke:#A80036;stroke-width:1.0;"/><path d="M1335.4781,1062.3125 L1335.8688,1063.2969 L1335.4781,1063.2969 C1335.025,1063.2969 1334.9156,1063.3125 1334.7594,1063.4219 C1334.5094,1063.5781 1334.3531,1063.8594 1334.3531,1064.1563 C1334.3531,1064.4219 1334.4938,1064.6719 1334.7125,1064.8281 C1334.8531,1064.9531 1335.0563,1065 1335.4781,1065 L1337.8375,1065 C1338.1969,1065 1338.4156,1064.9688 1338.5563,1064.875 C1338.8063,1064.7344 1338.9625,1064.4375 1338.9625,1064.1563 C1338.9625,1063.875 1338.8219,1063.625 1338.6031,1063.4688 C1338.4313,1063.3281 1338.275,1063.2969 1337.8063,1063.2969 L1334.4156,1055.0938 L1330.7438,1055.0938 C1330.2906,1055.0938 1330.1656,1055.1094 1330.0094,1055.2031 C1329.7594,1055.375 1329.6031,1055.6563 1329.6031,1055.9375 C1329.6031,1056.2188 1329.7438,1056.4688 1329.9625,1056.6406 C1330.1344,1056.75 1330.3063,1056.7813 1330.7438,1056.7813 L1331.8219,1056.7813 L1329.1813,1063.2969 C1328.7594,1063.2969 1328.6031,1063.3125 1328.4469,1063.4219 C1328.1969,1063.5781 1328.0406,1063.8594 1328.0406,1064.1563 C1328.0406,1064.7188 1328.4156,1065 1329.1656,1065 L1331.4313,1065 C1331.7906,1065 1332.0094,1064.9688 1332.1344,1064.875 C1332.4,1064.7344 1332.5406,1064.4375 1332.5406,1064.1563 C1332.5406,1063.875 1332.4156,1063.625 1332.1969,1063.4531 C1332.025,1063.3281 1331.8844,1063.2969 1331.4313,1063.2969 L1331.0406,1063.2969 L1331.4313,1062.3125 L1335.4781,1062.3125 Z M1334.775,1060.6094 L1332.1031,1060.6094 L1333.4469,1057.3438 L1334.775,1060.6094 Z " fill="#000000"/><text fill="#000000" font-family="sans-serif" font-size="12" font-style="italic" lengthAdjust="spacing" textLength="105" x="1349.6" y="1064.6543">PayPal:Credencial</text><line style="stroke:#A80036;stroke-width:1.5;" x1="1309.5" x2="1466.5" y1="1076.5" y2="1076.5"/><text fill="#000000" font-family="sans-serif" font-size="11" lengthAdjust="spacing" textLength="103" x="1314.5" y="1090.7104">-Override Int Id PK</text><text fill="#000000" font-family="sans-serif" font-size="11" lengthAdjust="spacing" textLength="73" x="1314.5" y="1103.5151">-String email</text><text fill="#000000" font-family="sans-serif" font-size="11" lengthAdjust="spacing" textLength="94" x="1314.5" y="1116.3198">-String password</text><text fill="#000000" font-family="sans-serif" font-size="11" lengthAdjust="spacing" textLength="147" x="1314.5" y="1129.1245">-Override Int metodoId FK</text><line style="stroke:#A80036;stroke-width:1.5;" x1="1309.5" x2="1466.5" y1="1135.7188" y2="1135.7188"/><!--MD5=[6853fe09565b5868a29d90c932ff629a]
class Cartao:Credencial--><rect codeLine="113" fill="#FEFECE" filter="url(#fkx4zpuv0f7k)" height="124.8281" id="Cartao:Credencial" style="stroke:#A80036;stroke-width:1.5;" width="159" x="1114.5" y="1031.5"/><ellipse cx="1138.95" cy="1047.5" fill="#A9DCDF" rx="11" ry="11" style="stroke:#A80036;stroke-width:1.0;"/><path d="M1141.0281,1049.3125 L1141.4188,1050.2969 L1141.0281,1050.2969 C1140.575,1050.2969 1140.4656,1050.3125 1140.3094,1050.4219 C1140.0594,1050.5781 1139.9031,1050.8594 1139.9031,1051.1563 C1139.9031,1051.4219 1140.0438,1051.6719 1140.2625,1051.8281 C1140.4031,1051.9531 1140.6063,1052 1141.0281,1052 L1143.3875,1052 C1143.7469,1052 1143.9656,1051.9688 1144.1063,1051.875 C1144.3563,1051.7344 1144.5125,1051.4375 1144.5125,1051.1563 C1144.5125,1050.875 1144.3719,1050.625 1144.1531,1050.4688 C1143.9813,1050.3281 1143.825,1050.2969 1143.3563,1050.2969 L1139.9656,1042.0938 L1136.2938,1042.0938 C1135.8406,1042.0938 1135.7156,1042.1094 1135.5594,1042.2031 C1135.3094,1042.375 1135.1531,1042.6563 1135.1531,1042.9375 C1135.1531,1043.2188 1135.2938,1043.4688 1135.5125,1043.6406 C1135.6844,1043.75 1135.8563,1043.7813 1136.2938,1043.7813 L1137.3719,1043.7813 L1134.7313,1050.2969 C1134.3094,1050.2969 1134.1531,1050.3125 1133.9969,1050.4219 C1133.7469,1050.5781 1133.5906,1050.8594 1133.5906,1051.1563 C1133.5906,1051.7188 1133.9656,1052 1134.7156,1052 L1136.9813,1052 C1137.3406,1052 1137.5594,1051.9688 1137.6844,1051.875 C1137.95,1051.7344 1138.0906,1051.4375 1138.0906,1051.1563 C1138.0906,1050.875 1137.9656,1050.625 1137.7469,1050.4531 C1137.575,1050.3281 1137.4344,1050.2969 1136.9813,1050.2969 L1136.5906,1050.2969 L1136.9813,1049.3125 L1141.0281,1049.3125 Z M1140.325,1047.6094 L1137.6531,1047.6094 L1138.9969,1044.3438 L1140.325,1047.6094 Z " fill="#000000"/><text fill="#000000" font-family="sans-serif" font-size="12" font-style="italic" lengthAdjust="spacing" textLength="106" x="1155.05" y="1051.6543">Cartao:Credencial</text><line style="stroke:#A80036;stroke-width:1.5;" x1="1115.5" x2="1272.5" y1="1063.5" y2="1063.5"/><text fill="#000000" font-family="sans-serif" font-size="11" lengthAdjust="spacing" textLength="103" x="1120.5" y="1077.7104">-Override Int Id PK</text><text fill="#000000" font-family="sans-serif" font-size="11" lengthAdjust="spacing" textLength="85" x="1120.5" y="1090.5151">-String numero</text><text fill="#000000" font-family="sans-serif" font-size="11" lengthAdjust="spacing" textLength="74" x="1120.5" y="1103.3198">-String nome</text><text fill="#000000" font-family="sans-serif" font-size="11" lengthAdjust="spacing" textLength="116" x="1120.5" y="1116.1245">-String dataValidade</text><text fill="#000000" font-family="sans-serif" font-size="11" lengthAdjust="spacing" textLength="61" x="1120.5" y="1128.9292">-String cvv</text><text fill="#000000" font-family="sans-serif" font-size="11" lengthAdjust="spacing" textLength="147" x="1120.5" y="1141.7339">-Override Int metodoId FK</text><line style="stroke:#A80036;stroke-width:1.5;" x1="1115.5" x2="1272.5" y1="1148.3281" y2="1148.3281"/><!--MD5=[35bbce630cba41d02ad46cb338a28110]
class DebitoDireto:Credencial--><rect codeLine="122" fill="#FEFECE" filter="url(#fkx4zpuv0f7k)" height="150.4375" id="DebitoDireto:Credencial" style="stroke:#A80036;stroke-width:1.5;" width="174" x="1503" y="1019"/><ellipse cx="1518" cy="1035" fill="#A9DCDF" rx="11" ry="11" style="stroke:#A80036;stroke-width:1.0;"/><path d="M1520.0781,1036.8125 L1520.4688,1037.7969 L1520.0781,1037.7969 C1519.625,1037.7969 1519.5156,1037.8125 1519.3594,1037.9219 C1519.1094,1038.0781 1518.9531,1038.3594 1518.9531,1038.6563 C1518.9531,1038.9219 1519.0938,1039.1719 1519.3125,1039.3281 C1519.4531,1039.4531 1519.6563,1039.5 1520.0781,1039.5 L1522.4375,1039.5 C1522.7969,1039.5 1523.0156,1039.4688 1523.1563,1039.375 C1523.4063,1039.2344 1523.5625,1038.9375 1523.5625,1038.6563 C1523.5625,1038.375 1523.4219,1038.125 1523.2031,1037.9688 C1523.0313,1037.8281 1522.875,1037.7969 1522.4063,1037.7969 L1519.0156,1029.5938 L1515.3438,1029.5938 C1514.8906,1029.5938 1514.7656,1029.6094 1514.6094,1029.7031 C1514.3594,1029.875 1514.2031,1030.1563 1514.2031,1030.4375 C1514.2031,1030.7188 1514.3438,1030.9688 1514.5625,1031.1406 C1514.7344,1031.25 1514.9063,1031.2813 1515.3438,1031.2813 L1516.4219,1031.2813 L1513.7813,1037.7969 C1513.3594,1037.7969 1513.2031,1037.8125 1513.0469,1037.9219 C1512.7969,1038.0781 1512.6406,1038.3594 1512.6406,1038.6563 C1512.6406,1039.2188 1513.0156,1039.5 1513.7656,1039.5 L1516.0313,1039.5 C1516.3906,1039.5 1516.6094,1039.4688 1516.7344,1039.375 C1517,1039.2344 1517.1406,1038.9375 1517.1406,1038.6563 C1517.1406,1038.375 1517.0156,1038.125 1516.7969,1037.9531 C1516.625,1037.8281 1516.4844,1037.7969 1516.0313,1037.7969 L1515.6406,1037.7969 L1516.0313,1036.8125 L1520.0781,1036.8125 Z M1519.375,1035.1094 L1516.7031,1035.1094 L1518.0469,1031.8438 L1519.375,1035.1094 Z " fill="#000000"/><text fill="#000000" font-family="sans-serif" font-size="12" font-style="italic" lengthAdjust="spacing" textLength="142" x="1532" y="1039.1543">DebitoDireto:Credencial</text><line style="stroke:#A80036;stroke-width:1.5;" x1="1504" x2="1676" y1="1051" y2="1051"/><text fill="#000000" font-family="sans-serif" font-size="11" lengthAdjust="spacing" textLength="103" x="1509" y="1065.2104">-Override Int Id PK</text><text fill="#000000" font-family="sans-serif" font-size="11" lengthAdjust="spacing" textLength="65" x="1509" y="1078.0151">-String iban</text><text fill="#000000" font-family="sans-serif" font-size="11" lengthAdjust="spacing" textLength="74" x="1509" y="1090.8198">-String nome</text><text fill="#000000" font-family="sans-serif" font-size="11" lengthAdjust="spacing" textLength="59" x="1509" y="1103.6245">-String rua</text><text fill="#000000" font-family="sans-serif" font-size="11" lengthAdjust="spacing" textLength="111" x="1509" y="1116.4292">-String codigoPostal</text><text fill="#000000" font-family="sans-serif" font-size="11" lengthAdjust="spacing" textLength="95" x="1509" y="1129.2339">-String freguesia</text><text fill="#000000" font-family="sans-serif" font-size="11" lengthAdjust="spacing" textLength="151" x="1509" y="1142.0386">-DateTime dataSubscricao</text><text fill="#000000" font-family="sans-serif" font-size="11" lengthAdjust="spacing" textLength="147" x="1509" y="1154.8433">-Override Int metodoId FK</text><line style="stroke:#A80036;stroke-width:1.5;" x1="1504" x2="1676" y1="1161.4375" y2="1161.4375"/><!--MD5=[6754354365917abf8f1a56af1b7e344c]
class Context--><rect codeLine="139" fill="#FEFECE" filter="url(#fkx4zpuv0f7k)" height="137.6328" id="Context" style="stroke:#A80036;stroke-width:1.5;" width="292" x="1914" y="261"/><ellipse cx="2032.75" cy="277" fill="#ADD1B2" rx="11" ry="11" style="stroke:#A80036;stroke-width:1.0;"/><path d="M2035.0938,272.6719 C2034.1563,272.2344 2033.5625,272.0938 2032.6875,272.0938 C2030.0625,272.0938 2028.0625,274.1719 2028.0625,276.8906 L2028.0625,278.0156 C2028.0625,280.5938 2030.1719,282.4844 2033.0625,282.4844 C2034.2813,282.4844 2035.4375,282.1875 2036.1875,281.6406 C2036.7656,281.2344 2037.0938,280.7813 2037.0938,280.3906 C2037.0938,279.9375 2036.7031,279.5469 2036.2344,279.5469 C2036.0156,279.5469 2035.8125,279.625 2035.625,279.8125 C2035.1719,280.2969 2035.1719,280.2969 2034.9844,280.3906 C2034.5625,280.6563 2033.875,280.7813 2033.1094,280.7813 C2031.0625,280.7813 2029.7656,279.6875 2029.7656,277.9844 L2029.7656,276.8906 C2029.7656,275.1094 2031.0156,273.7969 2032.75,273.7969 C2033.3281,273.7969 2033.9375,273.9531 2034.4063,274.2031 C2034.8906,274.4844 2035.0625,274.7031 2035.1563,275.1094 C2035.2188,275.5156 2035.25,275.6406 2035.3906,275.7656 C2035.5313,275.9063 2035.7656,276.0156 2035.9844,276.0156 C2036.25,276.0156 2036.5156,275.875 2036.6875,275.6563 C2036.7969,275.5 2036.8281,275.3125 2036.8281,274.8906 L2036.8281,273.4688 C2036.8281,273.0313 2036.8125,272.9063 2036.7188,272.75 C2036.5625,272.4844 2036.2813,272.3438 2035.9844,272.3438 C2035.6875,272.3438 2035.4844,272.4375 2035.2656,272.75 L2035.0938,272.6719 Z " fill="#000000"/><text fill="#000000" font-family="sans-serif" font-size="12" lengthAdjust="spacing" textLength="46" x="2053.25" y="281.1543">Context</text><line style="stroke:#A80036;stroke-width:1.5;" x1="1915" x2="2205" y1="293" y2="293"/><text fill="#000000" font-family="sans-serif" font-size="11" lengthAdjust="spacing" textLength="162" x="1920" y="307.2104">-DbSet&lt;Reserva&gt; Reservas</text><text fill="#000000" font-family="sans-serif" font-size="11" lengthAdjust="spacing" textLength="185" x="1920" y="320.0151">-DbSet&lt;Transacao&gt; Transacoes</text><text fill="#000000" font-family="sans-serif" font-size="11" lengthAdjust="spacing" textLength="146" x="1920" y="332.8198">-DbSet&lt;Parque&gt; Parques</text><text fill="#000000" font-family="sans-serif" font-size="11" lengthAdjust="spacing" textLength="280" x="1920" y="345.6245">-DbSet&lt;MetodoPagamento&gt; MetodosPagamento</text><text fill="#000000" font-family="sans-serif" font-size="11" lengthAdjust="spacing" textLength="136" x="1920" y="358.4292">-DbSet&lt;Paypal&gt; Paypal</text><text fill="#000000" font-family="sans-serif" font-size="11" lengthAdjust="spacing" textLength="143" x="1920" y="371.2339">-DbSet&lt;Cartao&gt; Cartoes</text><text fill="#000000" font-family="sans-serif" font-size="11" lengthAdjust="spacing" textLength="220" x="1920" y="384.0386">-DbSet&lt;DebitoDireto&gt; DebitosDiretos</text><line style="stroke:#A80036;stroke-width:1.5;" x1="1915" x2="2205" y1="390.6328" y2="390.6328"/><!--MD5=[7e02c7349cbcec40ae1dd951aa82354c]
class ReservaDTO--><rect codeLine="153" fill="#FEFECE" filter="url(#fkx4zpuv0f7k)" height="124.8281" id="ReservaDTO" style="stroke:#A80036;stroke-width:1.5;" width="113" x="43.5" y="47.5"/><ellipse cx="61.2" cy="63.5" fill="#ADD1B2" rx="11" ry="11" style="stroke:#A80036;stroke-width:1.0;"/><path d="M63.5438,59.1719 C62.6063,58.7344 62.0125,58.5938 61.1375,58.5938 C58.5125,58.5938 56.5125,60.6719 56.5125,63.3906 L56.5125,64.5156 C56.5125,67.0938 58.6219,68.9844 61.5125,68.9844 C62.7313,68.9844 63.8875,68.6875 64.6375,68.1406 C65.2156,67.7344 65.5438,67.2813 65.5438,66.8906 C65.5438,66.4375 65.1531,66.0469 64.6844,66.0469 C64.4656,66.0469 64.2625,66.125 64.075,66.3125 C63.6219,66.7969 63.6219,66.7969 63.4344,66.8906 C63.0125,67.1563 62.325,67.2813 61.5594,67.2813 C59.5125,67.2813 58.2156,66.1875 58.2156,64.4844 L58.2156,63.3906 C58.2156,61.6094 59.4656,60.2969 61.2,60.2969 C61.7781,60.2969 62.3875,60.4531 62.8563,60.7031 C63.3406,60.9844 63.5125,61.2031 63.6063,61.6094 C63.6688,62.0156 63.7,62.1406 63.8406,62.2656 C63.9813,62.4063 64.2156,62.5156 64.4344,62.5156 C64.7,62.5156 64.9656,62.375 65.1375,62.1563 C65.2469,62 65.2781,61.8125 65.2781,61.3906 L65.2781,59.9688 C65.2781,59.5313 65.2625,59.4063 65.1688,59.25 C65.0125,58.9844 64.7313,58.8438 64.4344,58.8438 C64.1375,58.8438 63.9344,58.9375 63.7156,59.25 L63.5438,59.1719 Z " fill="#000000"/><text fill="#000000" font-family="sans-serif" font-size="12" lengthAdjust="spacing" textLength="75" x="75.8" y="67.6543">ReservaDTO</text><line style="stroke:#A80036;stroke-width:1.5;" x1="44.5" x2="155.5" y1="79.5" y2="79.5"/><text fill="#000000" font-family="sans-serif" font-size="11" lengthAdjust="spacing" textLength="101" x="49.5" y="93.7104">-String RuaParque</text><text fill="#000000" font-family="sans-serif" font-size="11" lengthAdjust="spacing" textLength="98" x="49.5" y="106.5151">-Int NumeroLugar</text><text fill="#000000" font-family="sans-serif" font-size="11" lengthAdjust="spacing" textLength="91" x="49.5" y="119.3198">-String FilaLugar</text><text fill="#000000" font-family="sans-serif" font-size="11" lengthAdjust="spacing" textLength="86" x="49.5" y="132.1245">-Int AndarLugar</text><text fill="#000000" font-family="sans-serif" font-size="11" lengthAdjust="spacing" textLength="94" x="49.5" y="144.9292">-DateTime inicio</text><text fill="#000000" font-family="sans-serif" font-size="11" lengthAdjust="spacing" textLength="83" x="49.5" y="157.7339">-DateTime fim</text><line style="stroke:#A80036;stroke-width:1.5;" x1="44.5" x2="155.5" y1="164.3281" y2="164.3281"/><!--MD5=[546b40e6f554bde8c1a29611cc5d7d75]
class PayPalDTO--><rect codeLine="162" fill="#FEFECE" filter="url(#fkx4zpuv0f7k)" height="112.0234" id="PayPalDTO" style="stroke:#A80036;stroke-width:1.5;" width="154" x="192" y="54"/><ellipse cx="234" cy="70" fill="#ADD1B2" rx="11" ry="11" style="stroke:#A80036;stroke-width:1.0;"/><path d="M236.3438,65.6719 C235.4063,65.2344 234.8125,65.0938 233.9375,65.0938 C231.3125,65.0938 229.3125,67.1719 229.3125,69.8906 L229.3125,71.0156 C229.3125,73.5938 231.4219,75.4844 234.3125,75.4844 C235.5313,75.4844 236.6875,75.1875 237.4375,74.6406 C238.0156,74.2344 238.3438,73.7813 238.3438,73.3906 C238.3438,72.9375 237.9531,72.5469 237.4844,72.5469 C237.2656,72.5469 237.0625,72.625 236.875,72.8125 C236.4219,73.2969 236.4219,73.2969 236.2344,73.3906 C235.8125,73.6563 235.125,73.7813 234.3594,73.7813 C232.3125,73.7813 231.0156,72.6875 231.0156,70.9844 L231.0156,69.8906 C231.0156,68.1094 232.2656,66.7969 234,66.7969 C234.5781,66.7969 235.1875,66.9531 235.6563,67.2031 C236.1406,67.4844 236.3125,67.7031 236.4063,68.1094 C236.4688,68.5156 236.5,68.6406 236.6406,68.7656 C236.7813,68.9063 237.0156,69.0156 237.2344,69.0156 C237.5,69.0156 237.7656,68.875 237.9375,68.6563 C238.0469,68.5 238.0781,68.3125 238.0781,67.8906 L238.0781,66.4688 C238.0781,66.0313 238.0625,65.9063 237.9688,65.75 C237.8125,65.4844 237.5313,65.3438 237.2344,65.3438 C236.9375,65.3438 236.7344,65.4375 236.5156,65.75 L236.3438,65.6719 Z " fill="#000000"/><text fill="#000000" font-family="sans-serif" font-size="12" lengthAdjust="spacing" textLength="62" x="254" y="74.1543">PayPalDTO</text><line style="stroke:#A80036;stroke-width:1.5;" x1="193" x2="345" y1="86" y2="86"/><text fill="#000000" font-family="sans-serif" font-size="11" lengthAdjust="spacing" textLength="73" x="198" y="100.2104">-String email</text><text fill="#000000" font-family="sans-serif" font-size="11" lengthAdjust="spacing" textLength="94" x="198" y="113.0151">-String password</text><text fill="#000000" font-family="sans-serif" font-size="11" lengthAdjust="spacing" textLength="79" x="198" y="125.8198">-Double custo</text><text fill="#000000" font-family="sans-serif" font-size="11" lengthAdjust="spacing" textLength="142" x="198" y="138.6245">-String emailDestinatario</text><text fill="#000000" font-family="sans-serif" font-size="11" lengthAdjust="spacing" textLength="90" x="198" y="151.4292">-DateTime data</text><line style="stroke:#A80036;stroke-width:1.5;" x1="193" x2="345" y1="158.0234" y2="158.0234"/><!--MD5=[26ec804b812da892e1445ef30b5cee4d]
class CartaoDTO--><rect codeLine="170" fill="#FEFECE" filter="url(#fkx4zpuv0f7k)" height="137.6328" id="CartaoDTO" style="stroke:#A80036;stroke-width:1.5;" width="128" x="381" y="41"/><ellipse cx="409.95" cy="57" fill="#ADD1B2" rx="11" ry="11" style="stroke:#A80036;stroke-width:1.0;"/><path d="M412.2938,52.6719 C411.3563,52.2344 410.7625,52.0938 409.8875,52.0938 C407.2625,52.0938 405.2625,54.1719 405.2625,56.8906 L405.2625,58.0156 C405.2625,60.5938 407.3719,62.4844 410.2625,62.4844 C411.4813,62.4844 412.6375,62.1875 413.3875,61.6406 C413.9656,61.2344 414.2938,60.7813 414.2938,60.3906 C414.2938,59.9375 413.9031,59.5469 413.4344,59.5469 C413.2156,59.5469 413.0125,59.625 412.825,59.8125 C412.3719,60.2969 412.3719,60.2969 412.1844,60.3906 C411.7625,60.6563 411.075,60.7813 410.3094,60.7813 C408.2625,60.7813 406.9656,59.6875 406.9656,57.9844 L406.9656,56.8906 C406.9656,55.1094 408.2156,53.7969 409.95,53.7969 C410.5281,53.7969 411.1375,53.9531 411.6063,54.2031 C412.0906,54.4844 412.2625,54.7031 412.3563,55.1094 C412.4188,55.5156 412.45,55.6406 412.5906,55.7656 C412.7313,55.9063 412.9656,56.0156 413.1844,56.0156 C413.45,56.0156 413.7156,55.875 413.8875,55.6563 C413.9969,55.5 414.0281,55.3125 414.0281,54.8906 L414.0281,53.4688 C414.0281,53.0313 414.0125,52.9063 413.9188,52.75 C413.7625,52.4844 413.4813,52.3438 413.1844,52.3438 C412.8875,52.3438 412.6844,52.4375 412.4656,52.75 L412.2938,52.6719 Z " fill="#000000"/><text fill="#000000" font-family="sans-serif" font-size="12" lengthAdjust="spacing" textLength="65" x="427.05" y="61.1543">CartaoDTO</text><line style="stroke:#A80036;stroke-width:1.5;" x1="382" x2="508" y1="73" y2="73"/><text fill="#000000" font-family="sans-serif" font-size="11" lengthAdjust="spacing" textLength="85" x="387" y="87.2104">-String numero</text><text fill="#000000" font-family="sans-serif" font-size="11" lengthAdjust="spacing" textLength="74" x="387" y="100.0151">-String nome</text><text fill="#000000" font-family="sans-serif" font-size="11" lengthAdjust="spacing" textLength="116" x="387" y="112.8198">-String dataValidade</text><text fill="#000000" font-family="sans-serif" font-size="11" lengthAdjust="spacing" textLength="61" x="387" y="125.6245">-String cvv</text><text fill="#000000" font-family="sans-serif" font-size="11" lengthAdjust="spacing" textLength="79" x="387" y="138.4292">-Double custo</text><text fill="#000000" font-family="sans-serif" font-size="11" lengthAdjust="spacing" textLength="105" x="387" y="151.2339">-Int nifDestinatario</text><text fill="#000000" font-family="sans-serif" font-size="11" lengthAdjust="spacing" textLength="90" x="387" y="164.0386">-DateTime data</text><line style="stroke:#A80036;stroke-width:1.5;" x1="382" x2="508" y1="170.6328" y2="170.6328"/><!--MD5=[d5a17cd4a63c767bf05afba3d2e4534e]
class DebitoDiretoDTO--><rect codeLine="180" fill="#FEFECE" filter="url(#fkx4zpuv0f7k)" height="150.4375" id="DebitoDiretoDTO" style="stroke:#A80036;stroke-width:1.5;" width="135" x="32.5" y="255"/><ellipse cx="47.5" cy="271" fill="#ADD1B2" rx="11" ry="11" style="stroke:#A80036;stroke-width:1.0;"/><path d="M49.8438,266.6719 C48.9063,266.2344 48.3125,266.0938 47.4375,266.0938 C44.8125,266.0938 42.8125,268.1719 42.8125,270.8906 L42.8125,272.0156 C42.8125,274.5938 44.9219,276.4844 47.8125,276.4844 C49.0313,276.4844 50.1875,276.1875 50.9375,275.6406 C51.5156,275.2344 51.8438,274.7813 51.8438,274.3906 C51.8438,273.9375 51.4531,273.5469 50.9844,273.5469 C50.7656,273.5469 50.5625,273.625 50.375,273.8125 C49.9219,274.2969 49.9219,274.2969 49.7344,274.3906 C49.3125,274.6563 48.625,274.7813 47.8594,274.7813 C45.8125,274.7813 44.5156,273.6875 44.5156,271.9844 L44.5156,270.8906 C44.5156,269.1094 45.7656,267.7969 47.5,267.7969 C48.0781,267.7969 48.6875,267.9531 49.1563,268.2031 C49.6406,268.4844 49.8125,268.7031 49.9063,269.1094 C49.9688,269.5156 50,269.6406 50.1406,269.7656 C50.2813,269.9063 50.5156,270.0156 50.7344,270.0156 C51,270.0156 51.2656,269.875 51.4375,269.6563 C51.5469,269.5 51.5781,269.3125 51.5781,268.8906 L51.5781,267.4688 C51.5781,267.0313 51.5625,266.9063 51.4688,266.75 C51.3125,266.4844 51.0313,266.3438 50.7344,266.3438 C50.4375,266.3438 50.2344,266.4375 50.0156,266.75 L49.8438,266.6719 Z " fill="#000000"/><text fill="#000000" font-family="sans-serif" font-size="12" lengthAdjust="spacing" textLength="103" x="61.5" y="275.1543">DebitoDiretoDTO</text><line style="stroke:#A80036;stroke-width:1.5;" x1="33.5" x2="166.5" y1="287" y2="287"/><text fill="#000000" font-family="sans-serif" font-size="11" lengthAdjust="spacing" textLength="65" x="38.5" y="301.2104">-String iban</text><text fill="#000000" font-family="sans-serif" font-size="11" lengthAdjust="spacing" textLength="74" x="38.5" y="314.0151">-String nome</text><text fill="#000000" font-family="sans-serif" font-size="11" lengthAdjust="spacing" textLength="59" x="38.5" y="326.8198">-String rua</text><text fill="#000000" font-family="sans-serif" font-size="11" lengthAdjust="spacing" textLength="111" x="38.5" y="339.6245">-String codigoPostal</text><text fill="#000000" font-family="sans-serif" font-size="11" lengthAdjust="spacing" textLength="95" x="38.5" y="352.4292">-String freguesia</text><text fill="#000000" font-family="sans-serif" font-size="11" lengthAdjust="spacing" textLength="79" x="38.5" y="365.2339">-Double custo</text><text fill="#000000" font-family="sans-serif" font-size="11" lengthAdjust="spacing" textLength="105" x="38.5" y="378.0386">-Int nifDestinatario</text><text fill="#000000" font-family="sans-serif" font-size="11" lengthAdjust="spacing" textLength="90" x="38.5" y="390.8433">-DateTime data</text><line style="stroke:#A80036;stroke-width:1.5;" x1="33.5" x2="166.5" y1="397.4375" y2="397.4375"/><!--MD5=[2e7cd089d6ae3523be36eecdef6b8d1f]
class InfoUtilizadorDTO--><rect codeLine="191" fill="#FEFECE" filter="url(#fkx4zpuv0f7k)" height="73.6094" id="InfoUtilizadorDTO" style="stroke:#A80036;stroke-width:1.5;" width="137" x="202.5" y="293"/><ellipse cx="217.5" cy="309" fill="#ADD1B2" rx="11" ry="11" style="stroke:#A80036;stroke-width:1.0;"/><path d="M219.8438,304.6719 C218.9063,304.2344 218.3125,304.0938 217.4375,304.0938 C214.8125,304.0938 212.8125,306.1719 212.8125,308.8906 L212.8125,310.0156 C212.8125,312.5938 214.9219,314.4844 217.8125,314.4844 C219.0313,314.4844 220.1875,314.1875 220.9375,313.6406 C221.5156,313.2344 221.8438,312.7813 221.8438,312.3906 C221.8438,311.9375 221.4531,311.5469 220.9844,311.5469 C220.7656,311.5469 220.5625,311.625 220.375,311.8125 C219.9219,312.2969 219.9219,312.2969 219.7344,312.3906 C219.3125,312.6563 218.625,312.7813 217.8594,312.7813 C215.8125,312.7813 214.5156,311.6875 214.5156,309.9844 L214.5156,308.8906 C214.5156,307.1094 215.7656,305.7969 217.5,305.7969 C218.0781,305.7969 218.6875,305.9531 219.1563,306.2031 C219.6406,306.4844 219.8125,306.7031 219.9063,307.1094 C219.9688,307.5156 220,307.6406 220.1406,307.7656 C220.2813,307.9063 220.5156,308.0156 220.7344,308.0156 C221,308.0156 221.2656,307.875 221.4375,307.6563 C221.5469,307.5 221.5781,307.3125 221.5781,306.8906 L221.5781,305.4688 C221.5781,305.0313 221.5625,304.9063 221.4688,304.75 C221.3125,304.4844 221.0313,304.3438 220.7344,304.3438 C220.4375,304.3438 220.2344,304.4375 220.0156,304.75 L219.8438,304.6719 Z " fill="#000000"/><text fill="#000000" font-family="sans-serif" font-size="12" lengthAdjust="spacing" textLength="105" x="231.5" y="313.1543">InfoUtilizadorDTO</text><line style="stroke:#A80036;stroke-width:1.5;" x1="203.5" x2="338.5" y1="325" y2="325"/><text fill="#000000" font-family="sans-serif" font-size="11" lengthAdjust="spacing" textLength="73" x="208.5" y="339.2104">-String email</text><text fill="#000000" font-family="sans-serif" font-size="11" lengthAdjust="spacing" textLength="94" x="208.5" y="352.0151">-String password</text><line style="stroke:#A80036;stroke-width:1.5;" x1="203.5" x2="338.5" y1="358.6094" y2="358.6094"/><!--MD5=[3090caaac4d475b10040d8d5958cfa05]
class RegistarUtilizadorDTO--><rect codeLine="196" fill="#FEFECE" filter="url(#fkx4zpuv0f7k)" height="112.0234" id="RegistarUtilizadorDTO" style="stroke:#A80036;stroke-width:1.5;" width="164" x="375" y="274"/><ellipse cx="390" cy="290" fill="#ADD1B2" rx="11" ry="11" style="stroke:#A80036;stroke-width:1.0;"/><path d="M392.3438,285.6719 C391.4063,285.2344 390.8125,285.0938 389.9375,285.0938 C387.3125,285.0938 385.3125,287.1719 385.3125,289.8906 L385.3125,291.0156 C385.3125,293.5938 387.4219,295.4844 390.3125,295.4844 C391.5313,295.4844 392.6875,295.1875 393.4375,294.6406 C394.0156,294.2344 394.3438,293.7813 394.3438,293.3906 C394.3438,292.9375 393.9531,292.5469 393.4844,292.5469 C393.2656,292.5469 393.0625,292.625 392.875,292.8125 C392.4219,293.2969 392.4219,293.2969 392.2344,293.3906 C391.8125,293.6563 391.125,293.7813 390.3594,293.7813 C388.3125,293.7813 387.0156,292.6875 387.0156,290.9844 L387.0156,289.8906 C387.0156,288.1094 388.2656,286.7969 390,286.7969 C390.5781,286.7969 391.1875,286.9531 391.6563,287.2031 C392.1406,287.4844 392.3125,287.7031 392.4063,288.1094 C392.4688,288.5156 392.5,288.6406 392.6406,288.7656 C392.7813,288.9063 393.0156,289.0156 393.2344,289.0156 C393.5,289.0156 393.7656,288.875 393.9375,288.6563 C394.0469,288.5 394.0781,288.3125 394.0781,287.8906 L394.0781,286.4688 C394.0781,286.0313 394.0625,285.9063 393.9688,285.75 C393.8125,285.4844 393.5313,285.3438 393.2344,285.3438 C392.9375,285.3438 392.7344,285.4375 392.5156,285.75 L392.3438,285.6719 Z " fill="#000000"/><text fill="#000000" font-family="sans-serif" font-size="12" lengthAdjust="spacing" textLength="132" x="404" y="294.1543">RegistarUtilizadorDTO</text><line style="stroke:#A80036;stroke-width:1.5;" x1="376" x2="538" y1="306" y2="306"/><text fill="#000000" font-family="sans-serif" font-size="11" lengthAdjust="spacing" textLength="55" x="381" y="320.2104">-String nif</text><text fill="#000000" font-family="sans-serif" font-size="11" lengthAdjust="spacing" textLength="74" x="381" y="333.0151">-String nome</text><text fill="#000000" font-family="sans-serif" font-size="11" lengthAdjust="spacing" textLength="73" x="381" y="345.8198">-String email</text><text fill="#000000" font-family="sans-serif" font-size="11" lengthAdjust="spacing" textLength="94" x="381" y="358.6245">-String password</text><text fill="#000000" font-family="sans-serif" font-size="11" lengthAdjust="spacing" textLength="110" x="381" y="371.4292">-String credencialId</text><line style="stroke:#A80036;stroke-width:1.5;" x1="376" x2="538" y1="378.0234" y2="378.0234"/><!--MD5=[f71fb1e73c84feb408789d01304e0a14]
class TokenUtilizadorDTO--><rect codeLine="204" fill="#FEFECE" filter="url(#fkx4zpuv0f7k)" height="73.6094" id="TokenUtilizadorDTO" style="stroke:#A80036;stroke-width:1.5;" width="152" x="32" y="507.5"/><ellipse cx="47" cy="523.5" fill="#ADD1B2" rx="11" ry="11" style="stroke:#A80036;stroke-width:1.0;"/><path d="M49.3438,519.1719 C48.4063,518.7344 47.8125,518.5938 46.9375,518.5938 C44.3125,518.5938 42.3125,520.6719 42.3125,523.3906 L42.3125,524.5156 C42.3125,527.0938 44.4219,528.9844 47.3125,528.9844 C48.5313,528.9844 49.6875,528.6875 50.4375,528.1406 C51.0156,527.7344 51.3438,527.2813 51.3438,526.8906 C51.3438,526.4375 50.9531,526.0469 50.4844,526.0469 C50.2656,526.0469 50.0625,526.125 49.875,526.3125 C49.4219,526.7969 49.4219,526.7969 49.2344,526.8906 C48.8125,527.1563 48.125,527.2813 47.3594,527.2813 C45.3125,527.2813 44.0156,526.1875 44.0156,524.4844 L44.0156,523.3906 C44.0156,521.6094 45.2656,520.2969 47,520.2969 C47.5781,520.2969 48.1875,520.4531 48.6563,520.7031 C49.1406,520.9844 49.3125,521.2031 49.4063,521.6094 C49.4688,522.0156 49.5,522.1406 49.6406,522.2656 C49.7813,522.4063 50.0156,522.5156 50.2344,522.5156 C50.5,522.5156 50.7656,522.375 50.9375,522.1563 C51.0469,522 51.0781,521.8125 51.0781,521.3906 L51.0781,519.9688 C51.0781,519.5313 51.0625,519.4063 50.9688,519.25 C50.8125,518.9844 50.5313,518.8438 50.2344,518.8438 C49.9375,518.8438 49.7344,518.9375 49.5156,519.25 L49.3438,519.1719 Z " fill="#000000"/><text fill="#000000" font-family="sans-serif" font-size="12" lengthAdjust="spacing" textLength="120" x="61" y="527.6543">TokenUtilizadorDTO</text><line style="stroke:#A80036;stroke-width:1.5;" x1="33" x2="183" y1="539.5" y2="539.5"/><text fill="#000000" font-family="sans-serif" font-size="11" lengthAdjust="spacing" textLength="73" x="38" y="553.7104">-String token</text><text fill="#000000" font-family="sans-serif" font-size="11" lengthAdjust="spacing" textLength="122" x="38" y="566.5151">-DateTime expiration</text><line style="stroke:#A80036;stroke-width:1.5;" x1="33" x2="183" y1="573.1094" y2="573.1094"/><!--MD5=[38a761da7565306a4f8c9807fe6a839c]
link UtilizadoresController to Utilizador:IdentityUser--><path codeLine="211" d="M1825.03,159.75 C1783.31,220.78 1715.3,330.11 1684,435 C1659.24,517.99 1656.84,619.813 1657.98,678.372 " fill="none" id="UtilizadoresController-to-Utilizador:IdentityUser" style="stroke:#A80036;stroke-width:1.0;stroke-dasharray:7.0,7.0;"/><polygon fill="#A80036" points="1658.09,683.555,1661.8931,674.47,1657.9811,678.5562,1653.895,674.6442,1658.09,683.555" style="stroke:#A80036;stroke-width:1.0;"/><!--MD5=[55a1e85b195c42c46b77451c3d6a4804]
link UtilizadoresController to Context--><path codeLine="212" d="M1904.63,159.65 C1930.85,188.23 1964.49,224.89 1993.75,256.79 " fill="none" id="UtilizadoresController-to-Context" style="stroke:#A80036;stroke-width:1.0;stroke-dasharray:7.0,7.0;"/><polygon fill="#A80036" points="1997.3,260.66,1994.1769,251.3194,1993.9253,256.9707,1988.274,256.719,1997.3,260.66" style="stroke:#A80036;stroke-width:1.0;"/><!--MD5=[f1d08e710b5be31a4f54b7be44dcfd5f]
link ReservasController to Reserva--><path codeLine="213" d="M1493.69,166.04 C1508.11,181.29 1521.54,198.94 1530,218 C1566.95,301.22 1561.36,408.561 1552.14,476.733 " fill="none" id="ReservasController-to-Reserva" style="stroke:#A80036;stroke-width:1.0;stroke-dasharray:7.0,7.0;"/><polygon fill="#A80036" points="1551.41,481.981,1556.6088,473.616,1552.0971,477.0284,1548.6847,472.5167,1551.41,481.981" style="stroke:#A80036;stroke-width:1.0;"/><!--MD5=[4c183a90d865e4921167e44bdbd7527a]
link ReservasController to Context--><path codeLine="214" d="M1502.7,166.2 C1518.97,175.61 1536.52,184.21 1554,190 C1621.76,212.46 1806.08,196.04 1874,218 C1903.43,227.51 1933.14,242.37 1959.93,258.15 " fill="none" id="ReservasController-to-Context" style="stroke:#A80036;stroke-width:1.0;stroke-dasharray:7.0,7.0;"/><polygon fill="#A80036" points="1964.54,260.9,1958.849,252.8618,1960.2425,258.3443,1954.76,259.7378,1964.54,260.9" style="stroke:#A80036;stroke-width:1.0;"/><!--MD5=[63f1039bd21356e858113479a103cf25]
link ReservasController to PagamentoService--><path codeLine="215" d="M1315.65,130.15 C1243.28,146.07 1148.59,173.49 1074,218 C1043.11,236.43 1014.42,265.19 993.817,288.81 " fill="none" id="ReservasController-to-PagamentoService" style="stroke:#A80036;stroke-width:1.0;stroke-dasharray:7.0,7.0;"/><polygon fill="#A80036" points="990.322,292.86,999.2339,288.6674,993.5919,289.0775,993.1818,283.4355,990.322,292.86" style="stroke:#A80036;stroke-width:1.0;"/><!--MD5=[ea8bc1862f65d1111e9aa61726d02111]
link ReservasController to EmailService--><path codeLine="216" d="M1315.76,122 C1175.53,137.73 943.025,170.13 872,218 C846.822,234.97 828.449,264.01 816.566,288.13 " fill="none" id="ReservasController-to-EmailService" style="stroke:#A80036;stroke-width:1.0;stroke-dasharray:7.0,7.0;"/><polygon fill="#A80036" points="814.276,292.88,821.7867,286.509,816.4467,288.3758,814.5799,283.0358,814.276,292.88" style="stroke:#A80036;stroke-width:1.0;"/><!--MD5=[bdc1af83df3e614303713389d5bf7496]
link TransacoesController to Transacao--><path codeLine="217" d="M2119.39,153.13 C2135.18,165.59 2152.95,178.86 2170,190 C2191.97,204.36 2205.1,197.91 2222,218 C2255.47,257.8 2259,277 2259,329 C2259,329 2259,329 2259,646.5 C2259,813.22 2240.17,890.035 2106,989 C2033.37,1042.57 1931.91,1069.327 1862.62,1082.143 " fill="none" id="TransacoesController-to-Transacao" style="stroke:#A80036;stroke-width:1.0;stroke-dasharray:7.0,7.0;"/><polygon fill="#A80036" points="1857.69,1083.042,1867.263,1085.3567,1862.6083,1082.142,1865.823,1077.4874,1857.69,1083.042" style="stroke:#A80036;stroke-width:1.0;"/><!--MD5=[64769f895abbfa304c726cfecd4d4d6c]
link TransacoesController to Context--><path codeLine="218" d="M2067.26,153.03 C2066.06,182.16 2064.43,221.71 2063.02,255.93 " fill="none" id="TransacoesController-to-Context" style="stroke:#A80036;stroke-width:1.0;stroke-dasharray:7.0,7.0;"/><polygon fill="#A80036" points="2062.81,260.94,2067.1928,252.1201,2063.0247,255.9446,2059.2002,251.7765,2062.81,260.94" style="stroke:#A80036;stroke-width:1.0;"/><!--MD5=[b25225a33270bdb4508378cc7473fef0]
link ParquesController to Parque--><path codeLine="219" d="M1606.82,166.01 C1574.77,204.19 1532.8,254.19 1503.83,288.7 " fill="none" id="ParquesController-to-Parque" style="stroke:#A80036;stroke-width:1.0;stroke-dasharray:7.0,7.0;"/><polygon fill="#A80036" points="1500.37,292.83,1509.2204,288.5091,1503.585,289.0006,1503.0934,283.3652,1500.37,292.83" style="stroke:#A80036;stroke-width:1.0;"/><!--MD5=[42e6008d20694588b8edd67f6bad3e14]
link ParquesController to Context--><path codeLine="220" d="M1713.51,166.13 C1725.63,175.14 1738.73,183.6 1752,190 C1802.1,214.18 1822.37,197.27 1874,218 C1901.05,228.86 1928.77,243.32 1954.28,258.21 " fill="none" id="ParquesController-to-Context" style="stroke:#A80036;stroke-width:1.0;stroke-dasharray:7.0,7.0;"/><polygon fill="#A80036" points="1958.68,260.79,1952.9379,252.7882,1954.3663,258.2618,1948.8927,259.6901,1958.68,260.79" style="stroke:#A80036;stroke-width:1.0;"/><!--MD5=[7b141085eb0518e7623b734b72c701b4]
link MetodoPagamentosController to MetodoPagamento--><path codeLine="221" d="M2338.57,166.1 C2339.69,210.17 2341,273.54 2341,329 C2341,329 2341,329 2341,1095 C2341,1217.044 1925.46,1267.8387 1749.37,1283.8842 " fill="none" id="MetodoPagamentosController-to-MetodoPagamento" style="stroke:#A80036;stroke-width:1.0;stroke-dasharray:7.0,7.0;"/><polygon fill="#A80036" points="1744.23,1284.3488,1753.558,1287.5093,1749.2091,1283.8917,1752.8266,1279.5428,1744.23,1284.3488" style="stroke:#A80036;stroke-width:1.0;"/><!--MD5=[a66b9f39faf63293a9e6033a5b5c0751]
link MetodoPagamentosController to Context--><path codeLine="222" d="M2267.1,166.01 C2231.77,193.82 2188.46,227.9 2150.6,257.69 " fill="none" id="MetodoPagamentosController-to-Context" style="stroke:#A80036;stroke-width:1.0;stroke-dasharray:7.0,7.0;"/><polygon fill="#A80036" points="2146.49,260.93,2156.0331,258.495,2150.4151,257.8327,2151.0774,252.2148,2146.49,260.93" style="stroke:#A80036;stroke-width:1.0;"/><!--MD5=[1d6fec359c79e78e29ec240381e009fb]
link Context to Utilizador:IdentityUser--><path codeLine="224" d="M1934.15,399.027 C1914.39,408.009 1893.91,416.38 1874,423 C1846.12,432.267 1833.11,418.218 1809,435 C1787.05,450.279 1716.64,600.824 1681.04,679.156 " fill="none" id="Context-to-Utilizador:IdentityUser" style="stroke:#A80036;stroke-width:1.0;"/><polygon fill="#A80036" points="1678.95,683.75,1686.3183,677.2149,1681.0208,679.199,1679.0367,673.9015,1678.95,683.75" style="stroke:#A80036;stroke-width:1.0;"/><text fill="#000000" font-family="sans-serif" font-size="13" lengthAdjust="spacing" textLength="26" x="1778" y="549.0669">tem</text><text fill="#000000" font-family="sans-serif" font-size="13" lengthAdjust="spacing" textLength="8" x="1913.3679" y="418.6516">1</text><text fill="#000000" font-family="sans-serif" font-size="13" lengthAdjust="spacing" textLength="23" x="1657.0908" y="673.0243">0..*</text><!--MD5=[f862fc199df090de7a91527ffbcfeae3]
link Context to Reserva--><path codeLine="225" d="M1939.06,399.014 C1917.91,408.509 1895.71,417.042 1874,423 C1806.51,441.519 1783.58,413.445 1717,435 C1680.39,446.851 1643.54,467.685 1613.01,487.949 " fill="none" id="Context-to-Reserva" style="stroke:#A80036;stroke-width:1.0;"/><polygon fill="#A80036" points="1608.55,490.934,1618.2527,489.2438,1612.7028,488.1493,1613.7972,482.5993,1608.55,490.934" style="stroke:#A80036;stroke-width:1.0;"/><text fill="#000000" font-family="sans-serif" font-size="13" lengthAdjust="spacing" textLength="26" x="1718" y="448.0669">tem</text><text fill="#000000" font-family="sans-serif" font-size="13" lengthAdjust="spacing" textLength="8" x="1927.5487" y="418.6374">1</text><text fill="#000000" font-family="sans-serif" font-size="13" lengthAdjust="spacing" textLength="23" x="1616.4299" y="482.0047">0..*</text><!--MD5=[97c3e5cd7c11f9a09254c4a96322050c]
link Context to Transacao--><path codeLine="226" d="M2082.95,399.063 C2094.88,440.35 2107,494.381 2107,543.5 C2107,543.5 2107,543.5 2107,906 C2107,1018.571 1958.01,1064.52 1862.73,1082.397 " fill="none" id="Context-to-Transacao" style="stroke:#A80036;stroke-width:1.0;"/><polygon fill="#A80036" points="1857.66,1083.329,1867.2396,1085.6163,1862.5757,1082.415,1865.7771,1077.7512,1857.66,1083.329" style="stroke:#A80036;stroke-width:1.0;"/><text fill="#000000" font-family="sans-serif" font-size="13" lengthAdjust="spacing" textLength="26" x="2108" y="731.5669">tem</text><text fill="#000000" font-family="sans-serif" font-size="13" lengthAdjust="spacing" textLength="8" x="2076.8154" y="418.6912">1</text><text fill="#000000" font-family="sans-serif" font-size="13" lengthAdjust="spacing" textLength="23" x="1865.4185" y="1078.7348">0..*</text><!--MD5=[b8a4ba3f14343c93cc8a055f0769f72b]
link Context to Parque--><path codeLine="227" d="M1913.92,330 C1784.59,330 1603.51,330 1518.14,330 " fill="none" id="Context-to-Parque" style="stroke:#A80036;stroke-width:1.0;"/><polygon fill="#A80036" points="1512.91,330,1521.91,334,1517.91,330,1521.91,326,1512.91,330" style="stroke:#A80036;stroke-width:1.0;"/><text fill="#000000" font-family="sans-serif" font-size="13" lengthAdjust="spacing" textLength="26" x="1700.25" y="323.0669">tem</text><text fill="#000000" font-family="sans-serif" font-size="13" lengthAdjust="spacing" textLength="8" x="1898.1815" y="326.6931">1</text><text fill="#000000" font-family="sans-serif" font-size="13" lengthAdjust="spacing" textLength="23" x="1520.5614" y="326.049">0..*</text><!--MD5=[d64cc5fded769c87c323eeb0a085c074]
link Context to MetodoPagamento--><path codeLine="228" d="M2104.07,399.093 C2110.4,410.761 2116.34,422.998 2121,435 C2128.72,454.911 2128.14,460.836 2131,482 C2158.41,684.6 2191.41,746.076 2133,942 C2080.37,1118.536 1865.89,1220.909 1748.94,1264.651 " fill="none" id="Context-to-MetodoPagamento" style="stroke:#A80036;stroke-width:1.0;"/><polygon fill="#A80036" points="1744.13,1266.4364,1753.9598,1267.0487,1748.8165,1264.6937,1751.1715,1259.5503,1744.13,1266.4364" style="stroke:#A80036;stroke-width:1.0;"/><text fill="#000000" font-family="sans-serif" font-size="13" lengthAdjust="spacing" textLength="26" x="2164" y="813.0669">tem</text><text fill="#000000" font-family="sans-serif" font-size="13" lengthAdjust="spacing" textLength="8" x="2100.0144" y="418.7241">1</text><text fill="#000000" font-family="sans-serif" font-size="13" lengthAdjust="spacing" textLength="23" x="1752.101" y="1260.4334">0..*</text><!--MD5=[6a4547493d98cd2f5636f27b79988752]
link Context to PayPal:Credencial--><path codeLine="229" d="M1980.7,399.063 C1945.12,437.275 1911,488.304 1911,543.5 C1911,543.5 1911,543.5 1911,906 C1911,954.834 1882.53,966.866 1839,989 C1698.25,1060.565 1632.32,962.179 1485,1019 C1470.97,1024.41 1457.27,1032.509 1444.78,1041.389 " fill="none" id="Context-to-PayPal:Credencial" style="stroke:#A80036;stroke-width:1.0;"/><polygon fill="#A80036" points="1440.6,1044.428,1450.2359,1042.3909,1444.6502,1041.4962,1445.5449,1035.9105,1440.6,1044.428" style="stroke:#A80036;stroke-width:1.0;"/><text fill="#000000" font-family="sans-serif" font-size="13" lengthAdjust="spacing" textLength="26" x="1912" y="731.5669">tem</text><text fill="#000000" font-family="sans-serif" font-size="13" lengthAdjust="spacing" textLength="8" x="1964.5002" y="418.6912">1</text><text fill="#000000" font-family="sans-serif" font-size="13" lengthAdjust="spacing" textLength="23" x="1423.3797" y="1033.4631">0..*</text><!--MD5=[49e1296f6cec618aaaa1ba8a1061c177]
link Context to Cartao:Credencial--><path codeLine="230" d="M1968.56,399.27 C1943.36,422.702 1918.68,450.939 1903,482 C1885.32,517.038 1813.24,784.662 1791,817 C1722.83,916.123 1693.01,942.634 1582,989 C1462.03,1039.111 1411.88,971.11 1291,1019 C1284.2,1021.694 1277.47,1025.008 1270.91,1028.725 " fill="none" id="Context-to-Cartao:Credencial" style="stroke:#A80036;stroke-width:1.0;"/><polygon fill="#A80036" points="1266.4,1031.36,1276.1902,1030.2871,1270.7207,1028.8437,1272.1641,1023.3741,1266.4,1031.36" style="stroke:#A80036;stroke-width:1.0;"/><text fill="#000000" font-family="sans-serif" font-size="13" lengthAdjust="spacing" textLength="26" x="1840" y="731.5669">tem</text><text fill="#000000" font-family="sans-serif" font-size="13" lengthAdjust="spacing" textLength="8" x="1951.4634" y="418.6779">1</text><text fill="#000000" font-family="sans-serif" font-size="13" lengthAdjust="spacing" textLength="23" x="1250.4416" y="1020.3346">0..*</text><!--MD5=[c2688a242fe879acb737a8853e4ba38f]
link Context to DebitoDireto:Credencial--><path codeLine="231" d="M2034.95,399.392 C2022.05,440.566 2009,494.368 2009,543.5 C2009,543.5 2009,543.5 2009,906 C2009,954.834 1980.17,966.17 1937,989 C1837.22,1041.77 1787.98,976.392 1681.84,1018.775 " fill="none" id="Context-to-DebitoDireto:Credencial" style="stroke:#A80036;stroke-width:1.0;"/><polygon fill="#A80036" points="1677.07,1020.737,1686.9149,1021.0165,1681.6948,1018.8368,1683.8745,1013.6167,1677.07,1020.737" style="stroke:#A80036;stroke-width:1.0;"/><text fill="#000000" font-family="sans-serif" font-size="13" lengthAdjust="spacing" textLength="26" x="2010" y="731.5669">tem</text><text fill="#000000" font-family="sans-serif" font-size="13" lengthAdjust="spacing" textLength="8" x="2024.1812" y="418.8115">1</text><text fill="#000000" font-family="sans-serif" font-size="13" lengthAdjust="spacing" textLength="23" x="1684.9248" y="1011.356">0..*</text><!--MD5=[f2bea8d3b9b42a8b9a3612e6d565a844]
link Reserva to Utilizador:IdentityUser--><path codeLine="233" d="M1577.61,607.064 C1587.31,622.516 1597.88,638.972 1608,654 C1613.63,662.353 1619.76,671.131 1625.79,679.572 " fill="none" id="Reserva-to-Utilizador:IdentityUser" style="stroke:#A80036;stroke-width:1.0;"/><polygon fill="#A80036" points="1628.74,683.686,1626.7609,674.038,1625.8326,679.6182,1620.2524,678.6899,1628.74,683.686" style="stroke:#A80036;stroke-width:1.0;"/><text fill="#000000" font-family="sans-serif" font-size="13" lengthAdjust="spacing" textLength="26" x="1609" y="650.0669">tem</text><text fill="#000000" font-family="sans-serif" font-size="13" lengthAdjust="spacing" textLength="23" x="1557.4658" y="626.8108">0..*</text><text fill="#000000" font-family="sans-serif" font-size="13" lengthAdjust="spacing" textLength="8" x="1615.3408" y="672.9505">1</text><!--MD5=[f24c51f8fcbdd9e8642a8c6ebdb1f92b]
link Reserva to Transacao--><path codeLine="234" d="M1522.35,607.075 C1508.75,669.036 1500.26,762.94 1554,817 C1575.81,838.943 1668.35,806.305 1693,825 C1755.05,872.053 1775.54,963.389 1782.14,1026.251 " fill="none" id="Reserva-to-Transacao" style="stroke:#A80036;stroke-width:1.0;"/><polygon fill="#A80036" points="1782.67,1031.484,1785.752,1022.1298,1782.1711,1026.509,1777.7919,1022.9281,1782.67,1031.484" style="stroke:#A80036;stroke-width:1.0;"/><text fill="#000000" font-family="sans-serif" font-size="13" lengthAdjust="spacing" textLength="26" x="1555" y="813.0669">tem</text><text fill="#000000" font-family="sans-serif" font-size="13" lengthAdjust="spacing" textLength="23" x="1496.1617" y="626.823">0..*</text><text fill="#000000" font-family="sans-serif" font-size="13" lengthAdjust="spacing" textLength="8" x="1773.9381" y="1020.4729">1</text><!--MD5=[1d783ec22706a622a6c7b2ade0cd5c3a]
link Transacao to MetodoPagamento--><path codeLine="235" d="M1749.25,1156.699 C1732.99,1184.756 1714.07,1217.407 1699.02,1243.371 " fill="none" id="Transacao-to-MetodoPagamento" style="stroke:#A80036;stroke-width:1.0;"/><polygon fill="#A80036" points="1696.45,1247.808,1704.4222,1242.0249,1698.956,1243.4814,1697.4995,1238.0152,1696.45,1247.808" style="stroke:#A80036;stroke-width:1.0;"/><text fill="#000000" font-family="sans-serif" font-size="13" lengthAdjust="spacing" textLength="26" x="1723" y="1214.0669">tem</text><text fill="#000000" font-family="sans-serif" font-size="13" lengthAdjust="spacing" textLength="23" x="1721.082" y="1176.4606">0..*</text><text fill="#000000" font-family="sans-serif" font-size="13" lengthAdjust="spacing" textLength="8" x="1691.5814" y="1237.0911">1</text><!--MD5=[a9346758487907e5ff5b5c8b7ae451e6]
link Parque to Reserva--><path codeLine="236" d="M1481.87,367.048 C1491.77,397.079 1506.12,440.653 1518.09,476.985 " fill="none" id="Parque-to-Reserva" style="stroke:#A80036;stroke-width:1.0;"/><polygon fill="#A80036" points="1519.69,481.833,1520.6697,472.033,1518.1239,477.0846,1513.0723,474.5388,1519.69,481.833" style="stroke:#A80036;stroke-width:1.0;"/><text fill="#000000" font-family="sans-serif" font-size="13" lengthAdjust="spacing" textLength="26" x="1511" y="448.0669">tem</text><text fill="#000000" font-family="sans-serif" font-size="13" lengthAdjust="spacing" textLength="8" x="1475.1735" y="386.5365">1</text><text fill="#000000" font-family="sans-serif" font-size="13" lengthAdjust="spacing" textLength="23" x="1493.012" y="470.8044">0..*</text><!--MD5=[c97dba783d073b4b0feec3c32b93d69d]
link Utilizador:IdentityUser to Credencial--><path codeLine="237" d="M1631.06,770.091 C1619.28,785.719 1604.92,803.027 1590,817 C1567.41,838.15 1539.27,857.967 1515.23,873.329 " fill="none" id="Utilizador:IdentityUser-to-Credencial" style="stroke:#A80036;stroke-width:1.0;"/><polygon fill="#A80036" points="1510.79,876.145,1520.5308,874.6903,1515.009,873.4617,1516.2376,867.9399,1510.79,876.145" style="stroke:#A80036;stroke-width:1.0;"/><text fill="#000000" font-family="sans-serif" font-size="13" lengthAdjust="spacing" textLength="26" x="1607" y="813.0669">tem</text><text fill="#000000" font-family="sans-serif" font-size="13" lengthAdjust="spacing" textLength="8" x="1617.6043" y="790.5137">1</text><text fill="#000000" font-family="sans-serif" font-size="13" lengthAdjust="spacing" textLength="8" x="1518.3967" y="867.9107">1</text><!--MD5=[7ae3bae46025dcebf49ae644f4b2d781]
link Credencial to PayPal:Credencial--><path codeLine="238" d="M1448.54,942.055 C1437.47,969.659 1422.02,1008.169 1409.5,1039.382 " fill="none" id="Credencial-to-PayPal:Credencial" style="stroke:#A80036;stroke-width:1.0;"/><polygon fill="#A80036" points="1407.52,1044.326,1414.5801,1037.459,1409.3794,1039.6846,1407.1538,1034.484,1407.52,1044.326" style="stroke:#A80036;stroke-width:1.0;"/><text fill="#000000" font-family="sans-serif" font-size="13" lengthAdjust="spacing" textLength="56" x="1436" y="985.0669">pode ser</text><!--MD5=[817b7664aec087b17dd2f279b5cd13a4]
link Credencial to Cartao:Credencial--><path codeLine="239" d="M1415.31,936.053 C1380.45,958.33 1332.25,989.77 1291,1019 C1286.63,1022.094 1282.18,1025.298 1277.71,1028.561 " fill="none" id="Credencial-to-Cartao:Credencial" style="stroke:#A80036;stroke-width:1.0;"/><polygon fill="#A80036" points="1273.6,1031.572,1283.2236,1029.4774,1277.6327,1028.616,1278.494,1023.0252,1273.6,1031.572" style="stroke:#A80036;stroke-width:1.0;"/><text fill="#000000" font-family="sans-serif" font-size="13" lengthAdjust="spacing" textLength="56" x="1358" y="985.0669">pode ser</text><!--MD5=[e32d348272f20899e6e77a26d67297c6]
link Credencial to DebitoDireto:Credencial--><path codeLine="240" d="M1485.57,942.208 C1494.83,956.845 1505.77,973.833 1516,989 C1521.64,997.368 1527.62,1006.05 1533.64,1014.67 " fill="none" id="Credencial-to-DebitoDireto:Credencial" style="stroke:#A80036;stroke-width:1.0;"/><polygon fill="#A80036" points="1536.59,1018.895,1534.7148,1009.2263,1533.7265,1014.7962,1528.1567,1013.8079,1536.59,1018.895" style="stroke:#A80036;stroke-width:1.0;"/><text fill="#000000" font-family="sans-serif" font-size="13" lengthAdjust="spacing" textLength="56" x="1517" y="985.0669">pode ser</text><!--MD5=[3bca9c6ec21a00a80bc9d2f6be0d7631]
link PayPal:Credencial to MetodoPagamento--><path codeLine="241" d="M1430.2,1143.511 C1446.32,1160.39 1465.53,1178.667 1485,1193 C1518.83,1217.898 1559.94,1239.979 1594.99,1256.759 " fill="none" id="PayPal:Credencial-to-MetodoPagamento" style="stroke:#A80036;stroke-width:1.0;"/><polygon fill="#A80036" points="1599.67,1258.986,1593.2732,1251.4973,1595.1583,1256.8308,1589.8248,1258.716,1599.67,1258.986" style="stroke:#A80036;stroke-width:1.0;"/><text fill="#000000" font-family="sans-serif" font-size="13" lengthAdjust="spacing" textLength="26" x="1520" y="1214.0669">tem</text><text fill="#000000" font-family="sans-serif" font-size="13" lengthAdjust="spacing" textLength="23" x="1411.7091" y="1163.9451">0..*</text><text fill="#000000" font-family="sans-serif" font-size="13" lengthAdjust="spacing" textLength="8" x="1583.7985" y="1251.9635">1</text><!--MD5=[4a7af6b7491bcfd986ce188e99e1fae4]
link Cartao:Credencial to MetodoPagamento--><path codeLine="242" d="M1244.68,1156.525 C1258.48,1170.183 1274.28,1183.426 1291,1193 C1387.08,1247.998 1514.34,1272.2424 1594.71,1282.6257 " fill="none" id="Cartao:Credencial-to-MetodoPagamento" style="stroke:#A80036;stroke-width:1.0;"/><polygon fill="#A80036" points="1599.94,1283.2898,1591.5143,1278.1901,1594.9797,1282.6612,1590.5085,1286.1266,1599.94,1283.2898" style="stroke:#A80036;stroke-width:1.0;"/><text fill="#000000" font-family="sans-serif" font-size="13" lengthAdjust="spacing" textLength="26" x="1340" y="1214.0669">tem</text><text fill="#000000" font-family="sans-serif" font-size="13" lengthAdjust="spacing" textLength="23" x="1225.9653" y="1176.2675">0..*</text><text fill="#000000" font-family="sans-serif" font-size="13" lengthAdjust="spacing" textLength="8" x="1584.0963" y="1278.7736">1</text><!--MD5=[f71d265deef66ba33a34e51b5d1796dd]
link DebitoDireto:Credencial to MetodoPagamento--><path codeLine="243" d="M1621.23,1169.277 C1631.67,1194.097 1643,1221.048 1652.31,1243.176 " fill="none" id="DebitoDireto:Credencial-to-MetodoPagamento" style="stroke:#A80036;stroke-width:1.0;"/><polygon fill="#A80036" points="1654.26,1247.822,1654.4644,1237.9753,1652.3246,1243.2118,1647.088,1241.072,1654.26,1247.822" style="stroke:#A80036;stroke-width:1.0;"/><text fill="#000000" font-family="sans-serif" font-size="13" lengthAdjust="spacing" textLength="26" x="1642" y="1214.0669">tem</text><text fill="#000000" font-family="sans-serif" font-size="13" lengthAdjust="spacing" textLength="23" x="1600.1722" y="1189.4773">0..*</text><text fill="#000000" font-family="sans-serif" font-size="13" lengthAdjust="spacing" textLength="8" x="1642.7952" y="1236.7897">1</text><!--MD5=[d08a144af879ddc8c7cddc8910770a9f]
link ReservaDTO to PayPalDTO--><!--MD5=[5f53a8b5e1ebfe6f62140da01d508eb5]
link PayPalDTO to CartaoDTO--><!--MD5=[befb0d94fe89766f733d50a6e9d9e4ab]
link ReservaDTO to DebitoDiretoDTO--><!--MD5=[4d301c08ac853680ad86514ec42833c6]
link DebitoDiretoDTO to InfoUtilizadorDTO--><!--MD5=[2a6544b0011312aef2b6c2741a6647ce]
link InfoUtilizadorDTO to RegistarUtilizadorDTO--><!--MD5=[1944c9eb55dab8295f835878e1af4fdd]
link DebitoDiretoDTO to TokenUtilizadorDTO--><!--MD5=[a11be174e8fa65d41233a39d42e97a24]
@startuml
skinparam classAttributeIconSize 0

package Services <<Folder>> {

class PagamentoService {
  - Pagar()
  - Receber()
}

class EmailService {
  - ObterQRCode()
  - EnviarEmail()
}

class TokenService {
  - BuildToken()
}

}

package Controllers <<Folder>> {

class UtilizadoresController {
  +Get GetUtilizador()
  +Post RegistarUtilizador()
  +Post Login()
  +Delete DeleteUtilizador(nif)
}

class ReservasController {
  +Get GetReserva()
  +Get GetReservaById(id)
  +Post PostReserva()
  +Delete DeleteReserva(id)
  +FindAvailable(freguesia, inicio, fim)
}

class TransacoesController {
  +Get GetTransacao()
  +Get GetTransacaoById(id)
  +Post PostTransacao()
}

class ParquesController {
  +Get GetParque()
  +Get GetParqueById(id)
  +Post PostParque()
  +Put PutParque(id, parque)
  +Delete DeleteParque(id)
}

class MetodoPagamentosController {
  +Get GetMetodoPagamento()
  +Get GetMetodoPagamentoById(id)
  +Post PostMetodoPagamento()
  +Put PutMetodoPagamento(id, metodoPagamento)
  +Delete DeleteMetodoPagamento(id)
}

}

package Models <<Folder>> {

class Utilizador:IdentityUser{
  -String nome
  -Double carteira
  -Int credencialId FK
}

class Reserva {
  -Int id PK
  -String nifUtilizador FK
  -Int parqueId FK
  -Int transacaoID FK
  -Double custo
  -Int reservaParqueId
}

class Transacao {
  -Int Id PK
  -String nifPagador FK
  -String nifRecipiente FK
  -Int metodoId FK
  -Double valor
  -DateTime dataHora
}

class Parque {
  -Int Id PK
  -String apiUrl
}

class MetodoPagamento {
  -Int Id PK
  -String nome
  -String apiUrl
}

package "Abstract Class Credencial" <<Frame>> {

abstract class Credencial {
  -Int Id PK
  -Int metodoId
}

abstract PayPal:Credencial {
  -Override Int Id PK
  -String email
  -String password
  -Override Int metodoId FK
}

abstract Cartao:Credencial {
  -Override Int Id PK
  -String numero
  -String nome
  -String dataValidade
  -String cvv
  -Override Int metodoId FK
}

abstract DebitoDireto:Credencial {
  -Override Int Id PK
  -String iban
  -String nome
  -String rua
  -String codigoPostal
  -String freguesia
  -DateTime dataSubscricao
  -Override Int metodoId FK
}

}

}

package Data <<Folder>> {

class Context {
  -DbSet<Reserva> Reservas
  -DbSet<Transacao> Transacoes
  -DbSet<Parque> Parques
  -DbSet<MetodoPagamento> MetodosPagamento
  -DbSet<Paypal> Paypal
  -DbSet<Cartao> Cartoes
  -DbSet<DebitoDireto> DebitosDiretos
}

}

package DTOs <<Folder>> {

class ReservaDTO {
  -String RuaParque
  -Int NumeroLugar
  -String FilaLugar
  -Int AndarLugar
  -DateTime inicio
  -DateTime fim
}

class PayPalDTO {
  -String email
  -String password
  -Double custo
  -String emailDestinatario
  -DateTime data
}

class CartaoDTO {
  -String numero
  -String nome
  -String dataValidade
  -String cvv
  -Double custo
  -Int nifDestinatario
  -DateTime data
}

class DebitoDiretoDTO {
  -String iban
  -String nome
  -String rua
  -String codigoPostal
  -String freguesia
  -Double custo
  -Int nifDestinatario
  -DateTime data
}

class InfoUtilizadorDTO {
  -String email
  -String password
}

class RegistarUtilizadorDTO {
  -String nif
  -String nome
  -String email
  -String password
  -String credencialId
}

class TokenUtilizadorDTO {
  -String token
  -DateTime expiration
}

}

UtilizadoresController ..> "Utilizador:IdentityUser"
UtilizadoresController ..> Context
ReservasController ..> Reserva
ReservasController ..> Context
ReservasController ..> PagamentoService
ReservasController ..> EmailService
TransacoesController ..> Transacao
TransacoesController ..> Context
ParquesController ..> Parque
ParquesController ..> Context
MetodoPagamentosController ..> MetodoPagamento
MetodoPagamentosController ..> Context

Context "1" - -> "0..*" "Utilizador:IdentityUser": tem
Context "1" - -> "0..*" Reserva: tem
Context "1" - -> "0..*" Transacao: tem
Context "1" - -> "0..*" Parque: tem
Context "1" - -> "0..*" MetodoPagamento: tem
Context "1" - -> "0..*" "PayPal:Credencial": tem
Context "1" - -> "0..*" "Cartao:Credencial": tem
Context "1" - -> "0..*" "DebitoDireto:Credencial": tem

Reserva "0..*" - -> "1" "Utilizador:IdentityUser": tem
Reserva "0..*" - -> "1" Transacao: tem
Transacao"0..*" - -> "1" MetodoPagamento: tem
Parque "1" - -> "0..*" Reserva: tem
"Utilizador:IdentityUser" "1" - -> "1" Credencial: tem
Credencial - -> "PayPal:Credencial": pode ser
Credencial - -> "Cartao:Credencial": pode ser
Credencial - -> "DebitoDireto:Credencial": pode ser
"PayPal:Credencial" "0..*" - -> "1" MetodoPagamento: tem
"Cartao:Credencial" "0..*" - -> "1" MetodoPagamento: tem
"DebitoDireto:Credencial" "0..*" - -> "1" MetodoPagamento: tem
@enduml

PlantUML version 1.2021.2beta2(Unknown compile time)
(GPL source distribution)
Java Runtime: Java(TM) SE Runtime Environment
JVM: Java HotSpot(TM) 64-Bit Server VM
Default Encoding: UTF-8
Language: en
Country: US
--></g></svg>