<?xml version="1.0" encoding="UTF-8" standalone="no"?><svg xmlns="http://www.w3.org/2000/svg" xmlns:xlink="http://www.w3.org/1999/xlink" contentScriptType="application/ecmascript" contentStyleType="text/css" height="250px" preserveAspectRatio="none" style="width:399px;height:250px;" version="1.1" viewBox="0 0 399 250" width="399px" zoomAndPan="magnify"><defs><filter height="300%" id="f1qxe6sqksb4rm" width="300%" x="-1" y="-1"><feGaussianBlur result="blurOut" stdDeviation="2.0"/><feColorMatrix in="blurOut" result="blurOut2" type="matrix" values="0 0 0 0 0 0 0 0 0 0 0 0 0 0 0 0 0 0 .4 0"/><feOffset dx="4.0" dy="4.0" in="blurOut2" result="blurOut3"/><feBlend in="SourceGraphic" in2="blurOut3" mode="normal"/></filter></defs><g><rect fill="#FFFFFF" filter="url(#f1qxe6sqksb4rm)" height="50.2656" style="stroke:#A80036;stroke-width:1.0;" width="10" x="60.5" y="98.2969"/><rect fill="#FFFFFF" filter="url(#f1qxe6sqksb4rm)" height="29.1328" style="stroke:#A80036;stroke-width:1.0;" width="10" x="332.5" y="119.4297"/><line style="stroke:#A80036;stroke-width:1.0;stroke-dasharray:5.0,5.0;" x1="65" x2="65" y1="88.2969" y2="166.5625"/><line style="stroke:#A80036;stroke-width:1.0;stroke-dasharray:5.0,5.0;" x1="337" x2="337" y1="88.2969" y2="166.5625"/><text fill="#000000" font-family="sans-serif" font-size="14" lengthAdjust="spacing" textLength="115" x="5" y="84.9951">Sistema Central</text><ellipse cx="65.5" cy="15" fill="#FEFECE" filter="url(#f1qxe6sqksb4rm)" rx="8" ry="8" style="stroke:#A80036;stroke-width:2.0;"/><path d="M65.5,23 L65.5,50 M52.5,31 L78.5,31 M65.5,50 L52.5,65 M65.5,50 L78.5,65 " fill="none" filter="url(#f1qxe6sqksb4rm)" style="stroke:#A80036;stroke-width:2.0;"/><text fill="#000000" font-family="sans-serif" font-size="14" lengthAdjust="spacing" textLength="115" x="5" y="178.5576">Sistema Central</text><ellipse cx="65.5" cy="191.8594" fill="#FEFECE" filter="url(#f1qxe6sqksb4rm)" rx="8" ry="8" style="stroke:#A80036;stroke-width:2.0;"/><path d="M65.5,199.8594 L65.5,226.8594 M52.5,207.8594 L78.5,207.8594 M65.5,226.8594 L52.5,241.8594 M65.5,226.8594 L78.5,241.8594 " fill="none" filter="url(#f1qxe6sqksb4rm)" style="stroke:#A80036;stroke-width:2.0;"/><rect fill="#FEFECE" filter="url(#f1qxe6sqksb4rm)" height="30.2969" style="stroke:#A80036;stroke-width:1.5;" width="99" x="286" y="53"/><text fill="#000000" font-family="sans-serif" font-size="14" lengthAdjust="spacing" textLength="85" x="293" y="72.9951">Sistema API</text><rect fill="#FEFECE" filter="url(#f1qxe6sqksb4rm)" height="30.2969" style="stroke:#A80036;stroke-width:1.5;" width="99" x="286" y="165.5625"/><text fill="#000000" font-family="sans-serif" font-size="14" lengthAdjust="spacing" textLength="85" x="293" y="185.5576">Sistema API</text><rect fill="#FFFFFF" filter="url(#f1qxe6sqksb4rm)" height="50.2656" style="stroke:#A80036;stroke-width:1.0;" width="10" x="60.5" y="98.2969"/><rect fill="#FFFFFF" filter="url(#f1qxe6sqksb4rm)" height="29.1328" style="stroke:#A80036;stroke-width:1.0;" width="10" x="332.5" y="119.4297"/><polygon fill="#A80036" points="320.5,115.4297,330.5,119.4297,320.5,123.4297,324.5,119.4297" style="stroke:#A80036;stroke-width:1.0;"/><line style="stroke:#A80036;stroke-width:1.0;stroke-dasharray:2.0,2.0;" x1="70.5" x2="326.5" y1="119.4297" y2="119.4297"/><text fill="#000000" font-family="sans-serif" font-size="13" font-weight="bold" lengthAdjust="spacing" textLength="9" x="77.5" y="114.3638">1</text><text fill="#000000" font-family="sans-serif" font-size="13" lengthAdjust="spacing" textLength="230" x="90.5" y="114.3638">pede para cancelar uma reserva(id)</text><polygon fill="#A80036" points="76.5,144.5625,66.5,148.5625,76.5,152.5625,72.5,148.5625" style="stroke:#A80036;stroke-width:1.0;"/><line style="stroke:#A80036;stroke-width:1.0;stroke-dasharray:2.0,2.0;" x1="70.5" x2="336.5" y1="148.5625" y2="148.5625"/><text fill="#000000" font-family="sans-serif" font-size="13" font-weight="bold" lengthAdjust="spacing" textLength="9" x="82.5" y="143.4966">2</text><text fill="#000000" font-family="sans-serif" font-size="13" lengthAdjust="spacing" textLength="154" x="95.5" y="143.4966">operação bem sucedida</text><!--MD5=[44fa4ce0043203e221e9f9a391533d34]
@startuml
autonumber
actor "Sistema Central" as SC
participant "Sistema API" as SA

activate SC
SC - -> SA : pede para cancelar uma reserva(id)
activate SA

SA - -> SC: operação bem sucedida
deactivate SA
deactivate SC
@enduml

PlantUML version 1.2021.01beta3(Unknown compile time)
(GPL source distribution)
Java Runtime: Java(TM) SE Runtime Environment
JVM: Java HotSpot(TM) 64-Bit Server VM
Default Encoding: UTF-8
Language: en
Country: US
--></g></svg>