<?xml version="1.0" encoding="UTF-8" standalone="no"?><svg xmlns="http://www.w3.org/2000/svg" xmlns:xlink="http://www.w3.org/1999/xlink" contentScriptType="application/ecmascript" contentStyleType="text/css" height="250px" preserveAspectRatio="none" style="width:366px;height:250px;" version="1.1" viewBox="0 0 366 250" width="366px" zoomAndPan="magnify"><defs><filter height="300%" id="f255kng47aahd" width="300%" x="-1" y="-1"><feGaussianBlur result="blurOut" stdDeviation="2.0"/><feColorMatrix in="blurOut" result="blurOut2" type="matrix" values="0 0 0 0 0 0 0 0 0 0 0 0 0 0 0 0 0 0 .4 0"/><feOffset dx="4.0" dy="4.0" in="blurOut2" result="blurOut3"/><feBlend in="SourceGraphic" in2="blurOut3" mode="normal"/></filter></defs><g><rect fill="#FFFFFF" filter="url(#f255kng47aahd)" height="50.2656" style="stroke:#A80036;stroke-width:1.0;" width="10" x="29" y="98.2969"/><rect fill="#FFFFFF" filter="url(#f255kng47aahd)" height="29.1328" style="stroke:#A80036;stroke-width:1.0;" width="10" x="301" y="119.4297"/><line style="stroke:#A80036;stroke-width:1.0;stroke-dasharray:5.0,5.0;" x1="34" x2="34" y1="88.2969" y2="166.5625"/><line style="stroke:#A80036;stroke-width:1.0;stroke-dasharray:5.0,5.0;" x1="306" x2="306" y1="88.2969" y2="166.5625"/><text fill="#000000" font-family="sans-serif" font-size="14" lengthAdjust="spacing" textLength="52" x="5" y="84.9951">Cliente</text><ellipse cx="34" cy="15" fill="#FEFECE" filter="url(#f255kng47aahd)" rx="8" ry="8" style="stroke:#A80036;stroke-width:2.0;"/><path d="M34,23 L34,50 M21,31 L47,31 M34,50 L21,65 M34,50 L47,65 " fill="none" filter="url(#f255kng47aahd)" style="stroke:#A80036;stroke-width:2.0;"/><text fill="#000000" font-family="sans-serif" font-size="14" lengthAdjust="spacing" textLength="52" x="5" y="178.5576">Cliente</text><ellipse cx="34" cy="191.8594" fill="#FEFECE" filter="url(#f255kng47aahd)" rx="8" ry="8" style="stroke:#A80036;stroke-width:2.0;"/><path d="M34,199.8594 L34,226.8594 M21,207.8594 L47,207.8594 M34,226.8594 L21,241.8594 M34,226.8594 L47,241.8594 " fill="none" filter="url(#f255kng47aahd)" style="stroke:#A80036;stroke-width:2.0;"/><rect fill="#FEFECE" filter="url(#f255kng47aahd)" height="30.2969" style="stroke:#A80036;stroke-width:1.5;" width="96" x="256" y="53"/><text fill="#000000" font-family="sans-serif" font-size="14" lengthAdjust="spacing" textLength="82" x="263" y="72.9951">:API.Parque</text><rect fill="#FEFECE" filter="url(#f255kng47aahd)" height="30.2969" style="stroke:#A80036;stroke-width:1.5;" width="96" x="256" y="165.5625"/><text fill="#000000" font-family="sans-serif" font-size="14" lengthAdjust="spacing" textLength="82" x="263" y="185.5576">:API.Parque</text><rect fill="#FFFFFF" filter="url(#f255kng47aahd)" height="50.2656" style="stroke:#A80036;stroke-width:1.0;" width="10" x="29" y="98.2969"/><rect fill="#FFFFFF" filter="url(#f255kng47aahd)" height="29.1328" style="stroke:#A80036;stroke-width:1.0;" width="10" x="301" y="119.4297"/><polygon fill="#A80036" points="289,115.4297,299,119.4297,289,123.4297,293,119.4297" style="stroke:#A80036;stroke-width:1.0;"/><line style="stroke:#A80036;stroke-width:1.0;stroke-dasharray:2.0,2.0;" x1="39" x2="295" y1="119.4297" y2="119.4297"/><text fill="#000000" font-family="sans-serif" font-size="13" font-weight="bold" lengthAdjust="spacing" textLength="9" x="46" y="114.3638">1</text><text fill="#000000" font-family="sans-serif" font-size="13" lengthAdjust="spacing" textLength="230" x="59" y="114.3638">pede para cancelar uma reserva(id)</text><polygon fill="#A80036" points="45,144.5625,35,148.5625,45,152.5625,41,148.5625" style="stroke:#A80036;stroke-width:1.0;"/><line style="stroke:#A80036;stroke-width:1.0;stroke-dasharray:2.0,2.0;" x1="39" x2="305" y1="148.5625" y2="148.5625"/><text fill="#000000" font-family="sans-serif" font-size="13" font-weight="bold" lengthAdjust="spacing" textLength="9" x="51" y="143.4966">2</text><text fill="#000000" font-family="sans-serif" font-size="13" lengthAdjust="spacing" textLength="154" x="64" y="143.4966">operação bem sucedida</text><!--MD5=[8af7c49ec623fbb1034fac5fcec49dd9]
@startuml
autonumber
actor "Cliente" as SC
participant ":API.Parque" as SA

activate SC
SC - -> SA : pede para cancelar uma reserva(id)
activate SA

SA - -> SC: operação bem sucedida
deactivate SA
deactivate SC
@enduml

PlantUML version 1.2021.01beta3(Unknown compile time)
(GPL source distribution)
Java Runtime: Java(TM) SE Runtime Environment
JVM: Java HotSpot(TM) 64-Bit Server VM
Default Encoding: UTF-8
Language: en
Country: US
--></g></svg>