<?xml version="1.0" encoding="UTF-8" standalone="no"?><svg xmlns="http://www.w3.org/2000/svg" xmlns:xlink="http://www.w3.org/1999/xlink" contentScriptType="application/ecmascript" contentStyleType="text/css" height="396px" preserveAspectRatio="none" style="width:660px;height:396px;" version="1.1" viewBox="0 0 660 396" width="660px" zoomAndPan="magnify"><defs><filter height="300%" id="fyr14nv1s4i1c" width="300%" x="-1" y="-1"><feGaussianBlur result="blurOut" stdDeviation="2.0"/><feColorMatrix in="blurOut" result="blurOut2" type="matrix" values="0 0 0 0 0 0 0 0 0 0 0 0 0 0 0 0 0 0 .4 0"/><feOffset dx="4.0" dy="4.0" in="blurOut2" result="blurOut3"/><feBlend in="SourceGraphic" in2="blurOut3" mode="normal"/></filter></defs><g><rect fill="#FFFFFF" filter="url(#fyr14nv1s4i1c)" height="195.9297" style="stroke:#A80036;stroke-width:1.0;" width="10" x="29" y="98.2969"/><rect fill="#FFFFFF" filter="url(#fyr14nv1s4i1c)" height="174.7969" style="stroke:#A80036;stroke-width:1.0;" width="10" x="312" y="119.4297"/><rect fill="#FFFFFF" filter="url(#fyr14nv1s4i1c)" height="29.1328" style="stroke:#A80036;stroke-width:1.0;" width="10" x="466" y="177.6953"/><rect fill="#FFFFFF" filter="url(#fyr14nv1s4i1c)" height="29.1328" style="stroke:#A80036;stroke-width:1.0;" width="10" x="605" y="148.5625"/><rect fill="#FFFFFF" filter="url(#fyr14nv1s4i1c)" height="29.1328" style="stroke:#A80036;stroke-width:1.0;" width="10" x="605" y="235.9609"/><line style="stroke:#A80036;stroke-width:1.0;stroke-dasharray:5.0,5.0;" x1="34" x2="34" y1="88.2969" y2="312.2266"/><line style="stroke:#A80036;stroke-width:1.0;stroke-dasharray:5.0,5.0;" x1="316.5" x2="316.5" y1="88.2969" y2="312.2266"/><line style="stroke:#A80036;stroke-width:1.0;stroke-dasharray:5.0,5.0;" x1="470.5" x2="470.5" y1="88.2969" y2="312.2266"/><line style="stroke:#A80036;stroke-width:1.0;stroke-dasharray:5.0,5.0;" x1="610" x2="610" y1="88.2969" y2="312.2266"/><text fill="#000000" font-family="sans-serif" font-size="14" lengthAdjust="spacing" textLength="52" x="5" y="84.9951">Cliente</text><ellipse cx="34" cy="15" fill="#FEFECE" filter="url(#fyr14nv1s4i1c)" rx="8" ry="8" style="stroke:#A80036;stroke-width:2.0;"/><path d="M34,23 L34,50 M21,31 L47,31 M34,50 L21,65 M34,50 L47,65 " fill="none" filter="url(#fyr14nv1s4i1c)" style="stroke:#A80036;stroke-width:2.0;"/><text fill="#000000" font-family="sans-serif" font-size="14" lengthAdjust="spacing" textLength="52" x="5" y="324.2217">Cliente</text><ellipse cx="34" cy="337.5234" fill="#FEFECE" filter="url(#fyr14nv1s4i1c)" rx="8" ry="8" style="stroke:#A80036;stroke-width:2.0;"/><path d="M34,345.5234 L34,372.5234 M21,353.5234 L47,353.5234 M34,372.5234 L21,387.5234 M34,372.5234 L47,387.5234 " fill="none" filter="url(#fyr14nv1s4i1c)" style="stroke:#A80036;stroke-width:2.0;"/><rect fill="#FEFECE" filter="url(#fyr14nv1s4i1c)" height="30.2969" style="stroke:#A80036;stroke-width:1.5;" width="179" x="225.5" y="53"/><text fill="#000000" font-family="sans-serif" font-size="14" lengthAdjust="spacing" textLength="165" x="232.5" y="72.9951">:api/reservasController</text><rect fill="#FEFECE" filter="url(#fyr14nv1s4i1c)" height="30.2969" style="stroke:#A80036;stroke-width:1.5;" width="179" x="225.5" y="311.2266"/><text fill="#000000" font-family="sans-serif" font-size="14" lengthAdjust="spacing" textLength="165" x="232.5" y="331.2217">:api/reservasController</text><rect fill="#FEFECE" filter="url(#fyr14nv1s4i1c)" height="30.2969" style="stroke:#A80036;stroke-width:1.5;" width="99" x="419.5" y="53"/><text fill="#000000" font-family="sans-serif" font-size="14" lengthAdjust="spacing" textLength="85" x="426.5" y="72.9951">:api/reserva</text><rect fill="#FEFECE" filter="url(#fyr14nv1s4i1c)" height="30.2969" style="stroke:#A80036;stroke-width:1.5;" width="99" x="419.5" y="311.2266"/><text fill="#000000" font-family="sans-serif" font-size="14" lengthAdjust="spacing" textLength="85" x="426.5" y="331.2217">:api/reserva</text><rect fill="#FEFECE" filter="url(#fyr14nv1s4i1c)" height="30.2969" style="stroke:#A80036;stroke-width:1.5;" width="76" x="570" y="53"/><text fill="#000000" font-family="sans-serif" font-size="14" lengthAdjust="spacing" textLength="62" x="577" y="72.9951">:context</text><rect fill="#FEFECE" filter="url(#fyr14nv1s4i1c)" height="30.2969" style="stroke:#A80036;stroke-width:1.5;" width="76" x="570" y="311.2266"/><text fill="#000000" font-family="sans-serif" font-size="14" lengthAdjust="spacing" textLength="62" x="577" y="331.2217">:context</text><rect fill="#FFFFFF" filter="url(#fyr14nv1s4i1c)" height="195.9297" style="stroke:#A80036;stroke-width:1.0;" width="10" x="29" y="98.2969"/><rect fill="#FFFFFF" filter="url(#fyr14nv1s4i1c)" height="174.7969" style="stroke:#A80036;stroke-width:1.0;" width="10" x="312" y="119.4297"/><rect fill="#FFFFFF" filter="url(#fyr14nv1s4i1c)" height="29.1328" style="stroke:#A80036;stroke-width:1.0;" width="10" x="466" y="177.6953"/><rect fill="#FFFFFF" filter="url(#fyr14nv1s4i1c)" height="29.1328" style="stroke:#A80036;stroke-width:1.0;" width="10" x="605" y="148.5625"/><rect fill="#FFFFFF" filter="url(#fyr14nv1s4i1c)" height="29.1328" style="stroke:#A80036;stroke-width:1.0;" width="10" x="605" y="235.9609"/><polygon fill="#A80036" points="300,115.4297,310,119.4297,300,123.4297,304,119.4297" style="stroke:#A80036;stroke-width:1.0;"/><line style="stroke:#A80036;stroke-width:1.0;stroke-dasharray:2.0,2.0;" x1="39" x2="306" y1="119.4297" y2="119.4297"/><text fill="#000000" font-family="sans-serif" font-size="13" font-weight="bold" lengthAdjust="spacing" textLength="9" x="46" y="114.3638">1</text><text fill="#000000" font-family="sans-serif" font-size="13" lengthAdjust="spacing" textLength="230" x="59" y="114.3638">pede para cancelar uma reserva(id)</text><polygon fill="#A80036" points="593,144.5625,603,148.5625,593,152.5625,597,148.5625" style="stroke:#A80036;stroke-width:1.0;"/><line style="stroke:#A80036;stroke-width:1.0;stroke-dasharray:2.0,2.0;" x1="322" x2="599" y1="148.5625" y2="148.5625"/><text fill="#000000" font-family="sans-serif" font-size="13" font-weight="bold" lengthAdjust="spacing" textLength="9" x="329" y="143.4966">2</text><text fill="#000000" font-family="sans-serif" font-size="13" lengthAdjust="spacing" textLength="86" x="342" y="143.4966">FindAsync(id)</text><polygon fill="#A80036" points="487,173.6953,477,177.6953,487,181.6953,483,177.6953" style="stroke:#A80036;stroke-width:1.0;"/><line style="stroke:#A80036;stroke-width:1.0;stroke-dasharray:2.0,2.0;" x1="481" x2="609" y1="177.6953" y2="177.6953"/><text fill="#000000" font-family="sans-serif" font-size="13" font-weight="bold" lengthAdjust="spacing" textLength="8" x="493" y="172.6294">3</text><text fill="#000000" font-family="sans-serif" font-size="13" lengthAdjust="spacing" textLength="98" x="505" y="172.6294">return(reserva)</text><polygon fill="#A80036" points="333,202.8281,323,206.8281,333,210.8281,329,206.8281" style="stroke:#A80036;stroke-width:1.0;"/><line style="stroke:#A80036;stroke-width:1.0;stroke-dasharray:2.0,2.0;" x1="327" x2="470" y1="206.8281" y2="206.8281"/><text fill="#000000" font-family="sans-serif" font-size="13" font-weight="bold" lengthAdjust="spacing" textLength="9" x="339" y="201.7622">4</text><text fill="#000000" font-family="sans-serif" font-size="13" lengthAdjust="spacing" textLength="107" x="352" y="201.7622">recebe (reserva)</text><polygon fill="#A80036" points="593,231.9609,603,235.9609,593,239.9609,597,235.9609" style="stroke:#A80036;stroke-width:1.0;"/><line style="stroke:#A80036;stroke-width:1.0;stroke-dasharray:2.0,2.0;" x1="322" x2="599" y1="235.9609" y2="235.9609"/><text fill="#000000" font-family="sans-serif" font-size="13" font-weight="bold" lengthAdjust="spacing" textLength="9" x="329" y="230.895">5</text><text fill="#000000" font-family="sans-serif" font-size="13" lengthAdjust="spacing" textLength="113" x="342" y="230.895">Remove(reserva)</text><polygon fill="#A80036" points="333,261.0938,323,265.0938,333,269.0938,329,265.0938" style="stroke:#A80036;stroke-width:1.0;"/><line style="stroke:#A80036;stroke-width:1.0;stroke-dasharray:2.0,2.0;" x1="327" x2="609" y1="265.0938" y2="265.0938"/><text fill="#000000" font-family="sans-serif" font-size="13" font-weight="bold" lengthAdjust="spacing" textLength="9" x="339" y="260.0278">6</text><text fill="#000000" font-family="sans-serif" font-size="13" lengthAdjust="spacing" textLength="137" x="352" y="260.0278">SaveChangesAsync()</text><polygon fill="#A80036" points="45,290.2266,35,294.2266,45,298.2266,41,294.2266" style="stroke:#A80036;stroke-width:1.0;"/><line style="stroke:#A80036;stroke-width:1.0;stroke-dasharray:2.0,2.0;" x1="39" x2="316" y1="294.2266" y2="294.2266"/><text fill="#000000" font-family="sans-serif" font-size="13" font-weight="bold" lengthAdjust="spacing" textLength="9" x="51" y="289.1606">7</text><text fill="#000000" font-family="sans-serif" font-size="13" lengthAdjust="spacing" textLength="236" x="64" y="289.1606">NoContent() operação bem sucedida</text><!--MD5=[fb6feb42cec4f8f05d855e64e4b9d4c5]
@startuml
autonumber
actor "Cliente" as SC
participant ":api/reservasController" as RC
participant ":api/reserva" as R
participant ":context" as C

activate SC
SC - -> RC : pede para cancelar uma reserva(id)
activate RC

RC - -> C : FindAsync(id)
activate C


C - -> R : return(reserva)
deactivate C
activate R


R - -> RC : recebe (reserva)
deactivate R

RC - -> C : Remove(reserva)
activate C

C - -> RC : SaveChangesAsync()
deactivate C

RC - -> SC: NoContent() operação bem sucedida
deactivate RC
deactivate SC
@enduml

PlantUML version 1.2021.01beta3(Unknown compile time)
(GPL source distribution)
Java Runtime: Java(TM) SE Runtime Environment
JVM: Java HotSpot(TM) 64-Bit Server VM
Default Encoding: UTF-8
Language: en
Country: US
--></g></svg>