<?xml version="1.0" encoding="UTF-8" standalone="no"?><svg xmlns="http://www.w3.org/2000/svg" xmlns:xlink="http://www.w3.org/1999/xlink" contentScriptType="application/ecmascript" contentStyleType="text/css" height="367px" preserveAspectRatio="none" style="width:551px;height:367px;" version="1.1" viewBox="0 0 551 367" width="551px" zoomAndPan="magnify"><defs><filter height="300%" id="f2esls2cf43bx" width="300%" x="-1" y="-1"><feGaussianBlur result="blurOut" stdDeviation="2.0"/><feColorMatrix in="blurOut" result="blurOut2" type="matrix" values="0 0 0 0 0 0 0 0 0 0 0 0 0 0 0 0 0 0 .4 0"/><feOffset dx="4.0" dy="4.0" in="blurOut2" result="blurOut3"/><feBlend in="SourceGraphic" in2="blurOut3" mode="normal"/></filter></defs><g><rect fill="#FFFFFF" filter="url(#f2esls2cf43bx)" height="166.7969" style="stroke:#A80036;stroke-width:1.0;" width="10" x="29" y="98.2969"/><rect fill="#FFFFFF" filter="url(#f2esls2cf43bx)" height="145.6641" style="stroke:#A80036;stroke-width:1.0;" width="10" x="312" y="119.4297"/><rect fill="#FFFFFF" filter="url(#f2esls2cf43bx)" height="29.1328" style="stroke:#A80036;stroke-width:1.0;" width="10" x="496" y="148.5625"/><rect fill="#FFFFFF" filter="url(#f2esls2cf43bx)" height="29.1328" style="stroke:#A80036;stroke-width:1.0;" width="10" x="496" y="206.8281"/><line style="stroke:#A80036;stroke-width:1.0;stroke-dasharray:5.0,5.0;" x1="34" x2="34" y1="88.2969" y2="283.0938"/><line style="stroke:#A80036;stroke-width:1.0;stroke-dasharray:5.0,5.0;" x1="316.5" x2="316.5" y1="88.2969" y2="283.0938"/><line style="stroke:#A80036;stroke-width:1.0;stroke-dasharray:5.0,5.0;" x1="501" x2="501" y1="88.2969" y2="283.0938"/><text fill="#000000" font-family="sans-serif" font-size="14" lengthAdjust="spacing" textLength="52" x="5" y="84.9951">Cliente</text><ellipse cx="34" cy="15" fill="#FEFECE" filter="url(#f2esls2cf43bx)" rx="8" ry="8" style="stroke:#A80036;stroke-width:2.0;"/><path d="M34,23 L34,50 M21,31 L47,31 M34,50 L21,65 M34,50 L47,65 " fill="none" filter="url(#f2esls2cf43bx)" style="stroke:#A80036;stroke-width:2.0;"/><text fill="#000000" font-family="sans-serif" font-size="14" lengthAdjust="spacing" textLength="52" x="5" y="295.0889">Cliente</text><ellipse cx="34" cy="308.3906" fill="#FEFECE" filter="url(#f2esls2cf43bx)" rx="8" ry="8" style="stroke:#A80036;stroke-width:2.0;"/><path d="M34,316.3906 L34,343.3906 M21,324.3906 L47,324.3906 M34,343.3906 L21,358.3906 M34,343.3906 L47,358.3906 " fill="none" filter="url(#f2esls2cf43bx)" style="stroke:#A80036;stroke-width:2.0;"/><rect fill="#FEFECE" filter="url(#f2esls2cf43bx)" height="30.2969" style="stroke:#A80036;stroke-width:1.5;" width="179" x="225.5" y="53"/><text fill="#000000" font-family="sans-serif" font-size="14" lengthAdjust="spacing" textLength="165" x="232.5" y="72.9951">:api/reservasController</text><rect fill="#FEFECE" filter="url(#f2esls2cf43bx)" height="30.2969" style="stroke:#A80036;stroke-width:1.5;" width="179" x="225.5" y="282.0938"/><text fill="#000000" font-family="sans-serif" font-size="14" lengthAdjust="spacing" textLength="165" x="232.5" y="302.0889">:api/reservasController</text><rect fill="#FEFECE" filter="url(#f2esls2cf43bx)" height="30.2969" style="stroke:#A80036;stroke-width:1.5;" width="76" x="461" y="53"/><text fill="#000000" font-family="sans-serif" font-size="14" lengthAdjust="spacing" textLength="62" x="468" y="72.9951">:context</text><rect fill="#FEFECE" filter="url(#f2esls2cf43bx)" height="30.2969" style="stroke:#A80036;stroke-width:1.5;" width="76" x="461" y="282.0938"/><text fill="#000000" font-family="sans-serif" font-size="14" lengthAdjust="spacing" textLength="62" x="468" y="302.0889">:context</text><rect fill="#FFFFFF" filter="url(#f2esls2cf43bx)" height="166.7969" style="stroke:#A80036;stroke-width:1.0;" width="10" x="29" y="98.2969"/><rect fill="#FFFFFF" filter="url(#f2esls2cf43bx)" height="145.6641" style="stroke:#A80036;stroke-width:1.0;" width="10" x="312" y="119.4297"/><rect fill="#FFFFFF" filter="url(#f2esls2cf43bx)" height="29.1328" style="stroke:#A80036;stroke-width:1.0;" width="10" x="496" y="148.5625"/><rect fill="#FFFFFF" filter="url(#f2esls2cf43bx)" height="29.1328" style="stroke:#A80036;stroke-width:1.0;" width="10" x="496" y="206.8281"/><polygon fill="#A80036" points="300,115.4297,310,119.4297,300,123.4297,304,119.4297" style="stroke:#A80036;stroke-width:1.0;"/><line style="stroke:#A80036;stroke-width:1.0;stroke-dasharray:2.0,2.0;" x1="39" x2="306" y1="119.4297" y2="119.4297"/><text fill="#000000" font-family="sans-serif" font-size="13" font-weight="bold" lengthAdjust="spacing" textLength="9" x="46" y="114.3638">1</text><text fill="#000000" font-family="sans-serif" font-size="13" lengthAdjust="spacing" textLength="230" x="59" y="114.3638">pede para cancelar uma reserva(id)</text><polygon fill="#A80036" points="484,144.5625,494,148.5625,484,152.5625,488,148.5625" style="stroke:#A80036;stroke-width:1.0;"/><line style="stroke:#A80036;stroke-width:1.0;stroke-dasharray:2.0,2.0;" x1="322" x2="490" y1="148.5625" y2="148.5625"/><text fill="#000000" font-family="sans-serif" font-size="13" font-weight="bold" lengthAdjust="spacing" textLength="9" x="329" y="143.4966">2</text><text fill="#000000" font-family="sans-serif" font-size="13" lengthAdjust="spacing" textLength="86" x="342" y="143.4966">FindAsync(id)</text><polygon fill="#A80036" points="333,173.6953,323,177.6953,333,181.6953,329,177.6953" style="stroke:#A80036;stroke-width:1.0;"/><line style="stroke:#A80036;stroke-width:1.0;stroke-dasharray:2.0,2.0;" x1="327" x2="500" y1="177.6953" y2="177.6953"/><text fill="#000000" font-family="sans-serif" font-size="13" font-weight="bold" lengthAdjust="spacing" textLength="8" x="339" y="172.6294">3</text><text fill="#000000" font-family="sans-serif" font-size="13" lengthAdjust="spacing" textLength="98" x="351" y="172.6294">return(reserva)</text><polygon fill="#A80036" points="484,202.8281,494,206.8281,484,210.8281,488,206.8281" style="stroke:#A80036;stroke-width:1.0;"/><line style="stroke:#A80036;stroke-width:1.0;stroke-dasharray:2.0,2.0;" x1="322" x2="490" y1="206.8281" y2="206.8281"/><text fill="#000000" font-family="sans-serif" font-size="13" font-weight="bold" lengthAdjust="spacing" textLength="9" x="329" y="201.7622">4</text><text fill="#000000" font-family="sans-serif" font-size="13" lengthAdjust="spacing" textLength="113" x="342" y="201.7622">Remove(reserva)</text><polygon fill="#A80036" points="333,231.9609,323,235.9609,333,239.9609,329,235.9609" style="stroke:#A80036;stroke-width:1.0;"/><line style="stroke:#A80036;stroke-width:1.0;stroke-dasharray:2.0,2.0;" x1="327" x2="500" y1="235.9609" y2="235.9609"/><text fill="#000000" font-family="sans-serif" font-size="13" font-weight="bold" lengthAdjust="spacing" textLength="9" x="339" y="230.895">5</text><text fill="#000000" font-family="sans-serif" font-size="13" lengthAdjust="spacing" textLength="137" x="352" y="230.895">SaveChangesAsync()</text><polygon fill="#A80036" points="45,261.0938,35,265.0938,45,269.0938,41,265.0938" style="stroke:#A80036;stroke-width:1.0;"/><line style="stroke:#A80036;stroke-width:1.0;stroke-dasharray:2.0,2.0;" x1="39" x2="316" y1="265.0938" y2="265.0938"/><text fill="#000000" font-family="sans-serif" font-size="13" font-weight="bold" lengthAdjust="spacing" textLength="9" x="51" y="260.0278">6</text><text fill="#000000" font-family="sans-serif" font-size="13" lengthAdjust="spacing" textLength="236" x="64" y="260.0278">NoContent() operação bem sucedida</text><!--MD5=[d023abdb7b8077ffbadeacf9453245c7]
@startuml
autonumber
actor "Cliente" as SC
participant ":api/reservasController" as RC
participant ":context" as C

activate SC
SC - -> RC : pede para cancelar uma reserva(id)
activate RC

RC - -> C : FindAsync(id)
activate C

C - -> RC : return(reserva)
deactivate C

RC - -> C : Remove(reserva)
activate C

C - -> RC : SaveChangesAsync()
deactivate C

RC - -> SC: NoContent() operação bem sucedida
deactivate RC
deactivate SC
@enduml

PlantUML version 1.2021.01beta7(Unknown compile time)
(GPL source distribution)
Java Runtime: Java(TM) SE Runtime Environment
JVM: Java HotSpot(TM) 64-Bit Server VM
Default Encoding: UTF-8
Language: en
Country: US
--></g></svg>