<?xml version="1.0" encoding="UTF-8" standalone="no"?><svg xmlns="http://www.w3.org/2000/svg" xmlns:xlink="http://www.w3.org/1999/xlink" contentScriptType="application/ecmascript" contentStyleType="text/css" height="1078px" preserveAspectRatio="none" style="width:957px;height:1078px;" version="1.1" viewBox="0 0 957 1078" width="957px" zoomAndPan="magnify"><defs><filter height="300%" id="f1fc2lo0aaqhy4" width="300%" x="-1" y="-1"><feGaussianBlur result="blurOut" stdDeviation="2.0"/><feColorMatrix in="blurOut" result="blurOut2" type="matrix" values="0 0 0 0 0 0 0 0 0 0 0 0 0 0 0 0 0 0 .4 0"/><feOffset dx="4.0" dy="4.0" in="blurOut2" result="blurOut3"/><feBlend in="SourceGraphic" in2="blurOut3" mode="normal"/></filter></defs><g><rect fill="#FFFFFF" filter="url(#f1fc2lo0aaqhy4)" height="607.0547" style="stroke:#A80036;stroke-width:1.0;" width="10" x="67" y="98.2969"/><rect fill="#FFFFFF" filter="url(#f1fc2lo0aaqhy4)" height="522.5234" style="stroke:#A80036;stroke-width:1.0;" width="10" x="281" y="182.8281"/><rect fill="#FFFFFF" filter="url(#f1fc2lo0aaqhy4)" height="203.9297" style="stroke:#A80036;stroke-width:1.0;" width="10" x="281" y="765.6172"/><rect fill="#FFFFFF" filter="url(#f1fc2lo0aaqhy4)" height="29.1328" style="stroke:#A80036;stroke-width:1.0;" width="10" x="513" y="410.0234"/><rect fill="#FFFFFF" filter="url(#f1fc2lo0aaqhy4)" height="29.1328" style="stroke:#A80036;stroke-width:1.0;" width="10" x="513" y="911.2813"/><rect fill="#FFFFFF" filter="url(#f1fc2lo0aaqhy4)" height="87.3984" style="stroke:#A80036;stroke-width:1.0;" width="10" x="656.5" y="492.4219"/><rect fill="#FFFFFF" filter="url(#f1fc2lo0aaqhy4)" height="29.1328" style="stroke:#A80036;stroke-width:1.0;" width="10" x="656.5" y="853.0156"/><rect fill="#FFFFFF" filter="url(#f1fc2lo0aaqhy4)" height="29.1328" style="stroke:#A80036;stroke-width:1.0;" width="10" x="831.5" y="640.0859"/><rect fill="#FFFFFF" filter="url(#f1fc2lo0aaqhy4)" height="608.0547" style="stroke:#000000;stroke-width:2.0;" width="928" x="15" y="105.2969"/><rect fill="#FFFFFF" filter="url(#f1fc2lo0aaqhy4)" height="194.1953" style="stroke:#000000;stroke-width:2.0;" width="438" x="25" y="129.4297"/><rect fill="#FFFFFF" filter="url(#f1fc2lo0aaqhy4)" height="133.6641" style="stroke:#000000;stroke-width:2.0;" width="641" x="109" y="454.1563"/><rect fill="#FFFFFF" filter="url(#f1fc2lo0aaqhy4)" height="75.3984" style="stroke:#000000;stroke-width:2.0;" width="824" x="109" y="601.8203"/><rect fill="#FFFFFF" filter="url(#f1fc2lo0aaqhy4)" height="250.1953" style="stroke:#000000;stroke-width:2.0;" width="725" x="25" y="727.3516"/><line style="stroke:#A80036;stroke-width:1.0;stroke-dasharray:5.0,5.0;" x1="72" x2="72" y1="88.2969" y2="994.5469"/><line style="stroke:#A80036;stroke-width:1.0;stroke-dasharray:5.0,5.0;" x1="286" x2="286" y1="88.2969" y2="994.5469"/><line style="stroke:#A80036;stroke-width:1.0;stroke-dasharray:5.0,5.0;" x1="518" x2="518" y1="88.2969" y2="994.5469"/><line style="stroke:#A80036;stroke-width:1.0;stroke-dasharray:5.0,5.0;" x1="661" x2="661" y1="88.2969" y2="994.5469"/><line style="stroke:#A80036;stroke-width:1.0;stroke-dasharray:5.0,5.0;" x1="836" x2="836" y1="88.2969" y2="994.5469"/><text fill="#000000" font-family="sans-serif" font-size="14" lengthAdjust="spacing" textLength="68" x="35" y="84.9951">Utilizador</text><ellipse cx="72" cy="15" fill="#FEFECE" filter="url(#f1fc2lo0aaqhy4)" rx="8" ry="8" style="stroke:#A80036;stroke-width:2.0;"/><path d="M72,23 L72,50 M59,31 L85,31 M72,50 L59,65 M72,50 L85,65 " fill="none" filter="url(#f1fc2lo0aaqhy4)" style="stroke:#A80036;stroke-width:2.0;"/><text fill="#000000" font-family="sans-serif" font-size="14" lengthAdjust="spacing" textLength="68" x="35" y="1006.542">Utilizador</text><ellipse cx="72" cy="1019.8438" fill="#FEFECE" filter="url(#f1fc2lo0aaqhy4)" rx="8" ry="8" style="stroke:#A80036;stroke-width:2.0;"/><path d="M72,1027.8438 L72,1054.8438 M59,1035.8438 L85,1035.8438 M72,1054.8438 L59,1069.8438 M72,1054.8438 L85,1069.8438 " fill="none" filter="url(#f1fc2lo0aaqhy4)" style="stroke:#A80036;stroke-width:2.0;"/><rect fill="#FEFECE" filter="url(#f1fc2lo0aaqhy4)" height="30.2969" style="stroke:#A80036;stroke-width:1.5;" width="330" x="119" y="53"/><text fill="#000000" font-family="sans-serif" font-size="14" lengthAdjust="spacing" textLength="316" x="126" y="72.9951">:app/Areas/Identity/Pages/Account/Manage/</text><rect fill="#FEFECE" filter="url(#f1fc2lo0aaqhy4)" height="30.2969" style="stroke:#A80036;stroke-width:1.5;" width="330" x="119" y="993.5469"/><text fill="#000000" font-family="sans-serif" font-size="14" lengthAdjust="spacing" textLength="316" x="126" y="1013.542">:app/Areas/Identity/Pages/Account/Manage/</text><rect fill="#FEFECE" filter="url(#f1fc2lo0aaqhy4)" height="30.2969" style="stroke:#A80036;stroke-width:1.5;" width="106" x="463" y="53"/><text fill="#000000" font-family="sans-serif" font-size="14" lengthAdjust="spacing" textLength="92" x="470" y="72.9951">UserManager</text><rect fill="#FEFECE" filter="url(#f1fc2lo0aaqhy4)" height="30.2969" style="stroke:#A80036;stroke-width:1.5;" width="106" x="463" y="993.5469"/><text fill="#000000" font-family="sans-serif" font-size="14" lengthAdjust="spacing" textLength="92" x="470" y="1013.542">UserManager</text><rect fill="#FEFECE" filter="url(#f1fc2lo0aaqhy4)" height="30.2969" style="stroke:#A80036;stroke-width:1.5;" width="153" x="583" y="53"/><text fill="#000000" font-family="sans-serif" font-size="14" lengthAdjust="spacing" textLength="139" x="590" y="72.9951">API:SistemaCentral</text><rect fill="#FEFECE" filter="url(#f1fc2lo0aaqhy4)" height="30.2969" style="stroke:#A80036;stroke-width:1.5;" width="153" x="583" y="993.5469"/><text fill="#000000" font-family="sans-serif" font-size="14" lengthAdjust="spacing" textLength="139" x="590" y="1013.542">API:SistemaCentral</text><rect fill="#FEFECE" filter="url(#f1fc2lo0aaqhy4)" height="30.2969" style="stroke:#A80036;stroke-width:1.5;" width="169" x="750" y="53"/><text fill="#000000" font-family="sans-serif" font-size="14" lengthAdjust="spacing" textLength="155" x="757" y="72.9951">Autenticação Externa</text><rect fill="#FEFECE" filter="url(#f1fc2lo0aaqhy4)" height="30.2969" style="stroke:#A80036;stroke-width:1.5;" width="169" x="750" y="993.5469"/><text fill="#000000" font-family="sans-serif" font-size="14" lengthAdjust="spacing" textLength="155" x="757" y="1013.542">Autenticação Externa</text><rect fill="#FFFFFF" filter="url(#f1fc2lo0aaqhy4)" height="607.0547" style="stroke:#A80036;stroke-width:1.0;" width="10" x="67" y="98.2969"/><rect fill="#FFFFFF" filter="url(#f1fc2lo0aaqhy4)" height="522.5234" style="stroke:#A80036;stroke-width:1.0;" width="10" x="281" y="182.8281"/><rect fill="#FFFFFF" filter="url(#f1fc2lo0aaqhy4)" height="203.9297" style="stroke:#A80036;stroke-width:1.0;" width="10" x="281" y="765.6172"/><rect fill="#FFFFFF" filter="url(#f1fc2lo0aaqhy4)" height="29.1328" style="stroke:#A80036;stroke-width:1.0;" width="10" x="513" y="410.0234"/><rect fill="#FFFFFF" filter="url(#f1fc2lo0aaqhy4)" height="29.1328" style="stroke:#A80036;stroke-width:1.0;" width="10" x="513" y="911.2813"/><rect fill="#FFFFFF" filter="url(#f1fc2lo0aaqhy4)" height="87.3984" style="stroke:#A80036;stroke-width:1.0;" width="10" x="656.5" y="492.4219"/><rect fill="#FFFFFF" filter="url(#f1fc2lo0aaqhy4)" height="29.1328" style="stroke:#A80036;stroke-width:1.0;" width="10" x="656.5" y="853.0156"/><rect fill="#FFFFFF" filter="url(#f1fc2lo0aaqhy4)" height="29.1328" style="stroke:#A80036;stroke-width:1.0;" width="10" x="831.5" y="640.0859"/><path d="M15,105.2969 L81,105.2969 L81,112.2969 L71,122.2969 L15,122.2969 L15,105.2969 " fill="#EEEEEE" style="stroke:#000000;stroke-width:1.0;"/><rect fill="none" height="608.0547" style="stroke:#000000;stroke-width:2.0;" width="928" x="15" y="105.2969"/><text fill="#000000" font-family="sans-serif" font-size="13" font-weight="bold" lengthAdjust="spacing" textLength="21" x="30" y="118.3638">alt</text><text fill="#000000" font-family="sans-serif" font-size="11" font-weight="bold" lengthAdjust="spacing" textLength="192" x="96" y="117.5073">[Alterar dados do utilizador]</text><path d="M25,129.4297 L91,129.4297 L91,136.4297 L81,146.4297 L25,146.4297 L25,129.4297 " fill="#EEEEEE" style="stroke:#000000;stroke-width:1.0;"/><rect fill="none" height="194.1953" style="stroke:#000000;stroke-width:2.0;" width="438" x="25" y="129.4297"/><text fill="#000000" font-family="sans-serif" font-size="13" font-weight="bold" lengthAdjust="spacing" textLength="21" x="40" y="142.4966">alt</text><polygon fill="#A80036" points="269,178.8281,279,182.8281,269,186.8281,273,182.8281" style="stroke:#A80036;stroke-width:1.0;"/><line style="stroke:#A80036;stroke-width:1.0;stroke-dasharray:2.0,2.0;" x1="77" x2="275" y1="182.8281" y2="182.8281"/><text fill="#000000" font-family="sans-serif" font-size="13" font-weight="bold" lengthAdjust="spacing" textLength="9" x="84" y="170.1958">1</text><text fill="#000000" font-family="sans-serif" font-size="13" lengthAdjust="spacing" textLength="108" x="97" y="162.6294">inicia a alteração</text><text fill="#000000" font-family="sans-serif" font-size="13" lengthAdjust="spacing" textLength="167" x="97" y="177.7622">(Nome, Numero Telefone)</text><polygon fill="#A80036" points="269,223.0938,279,227.0938,269,231.0938,273,227.0938" style="stroke:#A80036;stroke-width:1.0;"/><line style="stroke:#A80036;stroke-width:1.0;stroke-dasharray:2.0,2.0;" x1="77" x2="275" y1="227.0938" y2="227.0938"/><text fill="#000000" font-family="sans-serif" font-size="13" font-weight="bold" lengthAdjust="spacing" textLength="9" x="84" y="214.4614">2</text><text fill="#000000" font-family="sans-serif" font-size="13" lengthAdjust="spacing" textLength="108" x="97" y="206.895">inicia a alteração</text><text fill="#000000" font-family="sans-serif" font-size="13" lengthAdjust="spacing" textLength="72" x="97" y="222.0278">(Password)</text><polygon fill="#A80036" points="269,267.3594,279,271.3594,269,275.3594,273,271.3594" style="stroke:#A80036;stroke-width:1.0;"/><line style="stroke:#A80036;stroke-width:1.0;stroke-dasharray:2.0,2.0;" x1="77" x2="275" y1="271.3594" y2="271.3594"/><text fill="#000000" font-family="sans-serif" font-size="13" font-weight="bold" lengthAdjust="spacing" textLength="8" x="84" y="258.7271">3</text><text fill="#000000" font-family="sans-serif" font-size="13" lengthAdjust="spacing" textLength="108" x="96" y="251.1606">inicia a alteração</text><text fill="#000000" font-family="sans-serif" font-size="13" lengthAdjust="spacing" textLength="155" x="96" y="266.2935">(Método de Pagamento)</text><polygon fill="#A80036" points="269,311.625,279,315.625,269,319.625,273,315.625" style="stroke:#A80036;stroke-width:1.0;"/><line style="stroke:#A80036;stroke-width:1.0;stroke-dasharray:2.0,2.0;" x1="77" x2="275" y1="315.625" y2="315.625"/><text fill="#000000" font-family="sans-serif" font-size="13" font-weight="bold" lengthAdjust="spacing" textLength="9" x="84" y="302.9927">4</text><text fill="#000000" font-family="sans-serif" font-size="13" lengthAdjust="spacing" textLength="108" x="97" y="295.4263">inicia a alteração</text><text fill="#000000" font-family="sans-serif" font-size="13" lengthAdjust="spacing" textLength="162" x="97" y="310.5591">(Autenticações externas)</text><polygon fill="#A80036" points="88,347.7578,78,351.7578,88,355.7578,84,351.7578" style="stroke:#A80036;stroke-width:1.0;"/><line style="stroke:#A80036;stroke-width:1.0;stroke-dasharray:2.0,2.0;" x1="82" x2="280" y1="351.7578" y2="351.7578"/><text fill="#000000" font-family="sans-serif" font-size="13" font-weight="bold" lengthAdjust="spacing" textLength="9" x="94" y="346.6919">5</text><text fill="#000000" font-family="sans-serif" font-size="13" lengthAdjust="spacing" textLength="75" x="107" y="346.6919">pede dados</text><polygon fill="#A80036" points="269,376.8906,279,380.8906,269,384.8906,273,380.8906" style="stroke:#A80036;stroke-width:1.0;"/><line style="stroke:#A80036;stroke-width:1.0;stroke-dasharray:2.0,2.0;" x1="77" x2="275" y1="380.8906" y2="380.8906"/><text fill="#000000" font-family="sans-serif" font-size="13" font-weight="bold" lengthAdjust="spacing" textLength="9" x="84" y="375.8247">6</text><text fill="#000000" font-family="sans-serif" font-size="13" lengthAdjust="spacing" textLength="82" x="97" y="375.8247">insere dados</text><polygon fill="#A80036" points="501,406.0234,511,410.0234,501,414.0234,505,410.0234" style="stroke:#A80036;stroke-width:1.0;"/><line style="stroke:#A80036;stroke-width:1.0;stroke-dasharray:2.0,2.0;" x1="291" x2="507" y1="410.0234" y2="410.0234"/><text fill="#000000" font-family="sans-serif" font-size="13" font-weight="bold" lengthAdjust="spacing" textLength="9" x="298" y="404.9575">7</text><text fill="#000000" font-family="sans-serif" font-size="13" lengthAdjust="spacing" textLength="154" x="311" y="404.9575">UpdateAsync(Utilizador)</text><polygon fill="#A80036" points="302,435.1563,292,439.1563,302,443.1563,298,439.1563" style="stroke:#A80036;stroke-width:1.0;"/><line style="stroke:#A80036;stroke-width:1.0;stroke-dasharray:2.0,2.0;" x1="296" x2="517" y1="439.1563" y2="439.1563"/><text fill="#000000" font-family="sans-serif" font-size="13" font-weight="bold" lengthAdjust="spacing" textLength="9" x="308" y="434.0903">8</text><text fill="#000000" font-family="sans-serif" font-size="13" lengthAdjust="spacing" textLength="51" x="321" y="434.0903">success</text><path d="M109,454.1563 L175,454.1563 L175,461.1563 L165,471.1563 L109,471.1563 L109,454.1563 " fill="#EEEEEE" style="stroke:#000000;stroke-width:1.0;"/><rect fill="none" height="133.6641" style="stroke:#000000;stroke-width:2.0;" width="641" x="109" y="454.1563"/><text fill="#000000" font-family="sans-serif" font-size="13" font-weight="bold" lengthAdjust="spacing" textLength="21" x="124" y="467.2231">alt</text><polygon fill="#A80036" points="644.5,488.4219,654.5,492.4219,644.5,496.4219,648.5,492.4219" style="stroke:#A80036;stroke-width:1.0;"/><line style="stroke:#A80036;stroke-width:1.0;stroke-dasharray:2.0,2.0;" x1="291" x2="650.5" y1="492.4219" y2="492.4219"/><text fill="#000000" font-family="sans-serif" font-size="13" font-weight="bold" lengthAdjust="spacing" textLength="9" x="298" y="487.356">9</text><text fill="#000000" font-family="sans-serif" font-size="13" lengthAdjust="spacing" textLength="186" x="311" y="487.356">PostAsync(AlterarNomeDTO)</text><polygon fill="#A80036" points="644.5,517.5547,654.5,521.5547,644.5,525.5547,648.5,521.5547" style="stroke:#A80036;stroke-width:1.0;"/><line style="stroke:#A80036;stroke-width:1.0;stroke-dasharray:2.0,2.0;" x1="291" x2="650.5" y1="521.5547" y2="521.5547"/><text fill="#000000" font-family="sans-serif" font-size="13" font-weight="bold" lengthAdjust="spacing" textLength="19" x="298" y="516.4888">10</text><text fill="#000000" font-family="sans-serif" font-size="13" lengthAdjust="spacing" textLength="210" x="321" y="516.4888">PostAsync(AlterarPasswordDTO)</text><polygon fill="#A80036" points="644.5,546.6875,654.5,550.6875,644.5,554.6875,648.5,550.6875" style="stroke:#A80036;stroke-width:1.0;"/><line style="stroke:#A80036;stroke-width:1.0;stroke-dasharray:2.0,2.0;" x1="291" x2="650.5" y1="550.6875" y2="550.6875"/><text fill="#000000" font-family="sans-serif" font-size="13" font-weight="bold" lengthAdjust="spacing" textLength="18" x="298" y="545.6216">11</text><text fill="#000000" font-family="sans-serif" font-size="13" lengthAdjust="spacing" textLength="269" x="320" y="545.6216">PostAsync(AlterarMetodoPagamentoDTO)</text><polygon fill="#A80036" points="302,575.8203,292,579.8203,302,583.8203,298,579.8203" style="stroke:#A80036;stroke-width:1.0;"/><line style="stroke:#A80036;stroke-width:1.0;stroke-dasharray:2.0,2.0;" x1="296" x2="660.5" y1="579.8203" y2="579.8203"/><text fill="#000000" font-family="sans-serif" font-size="13" font-weight="bold" lengthAdjust="spacing" textLength="18" x="308" y="574.7544">12</text><text fill="#000000" font-family="sans-serif" font-size="13" lengthAdjust="spacing" textLength="70" x="330" y="574.7544">return Ok()</text><path d="M109,601.8203 L175,601.8203 L175,608.8203 L165,618.8203 L109,618.8203 L109,601.8203 " fill="#EEEEEE" style="stroke:#000000;stroke-width:1.0;"/><rect fill="none" height="75.3984" style="stroke:#000000;stroke-width:2.0;" width="824" x="109" y="601.8203"/><text fill="#000000" font-family="sans-serif" font-size="13" font-weight="bold" lengthAdjust="spacing" textLength="21" x="124" y="614.8872">alt</text><polygon fill="#A80036" points="819.5,636.0859,829.5,640.0859,819.5,644.0859,823.5,640.0859" style="stroke:#A80036;stroke-width:1.0;"/><line style="stroke:#A80036;stroke-width:1.0;stroke-dasharray:2.0,2.0;" x1="291" x2="825.5" y1="640.0859" y2="640.0859"/><text fill="#000000" font-family="sans-serif" font-size="13" font-weight="bold" lengthAdjust="spacing" textLength="17" x="298" y="635.02">13</text><text fill="#000000" font-family="sans-serif" font-size="13" lengthAdjust="spacing" textLength="199" x="319" y="635.02">adicionar autenticação externa</text><polygon fill="#A80036" points="302,665.2188,292,669.2188,302,673.2188,298,669.2188" style="stroke:#A80036;stroke-width:1.0;"/><line style="stroke:#A80036;stroke-width:1.0;stroke-dasharray:2.0,2.0;" x1="296" x2="835.5" y1="669.2188" y2="669.2188"/><text fill="#000000" font-family="sans-serif" font-size="13" font-weight="bold" lengthAdjust="spacing" textLength="18" x="308" y="664.1528">14</text><text fill="#000000" font-family="sans-serif" font-size="13" lengthAdjust="spacing" textLength="70" x="330" y="664.1528">return Ok()</text><polygon fill="#A80036" points="83,701.3516,73,705.3516,83,709.3516,79,705.3516" style="stroke:#A80036;stroke-width:1.0;"/><line style="stroke:#A80036;stroke-width:1.0;stroke-dasharray:2.0,2.0;" x1="77" x2="285" y1="705.3516" y2="705.3516"/><text fill="#000000" font-family="sans-serif" font-size="13" font-weight="bold" lengthAdjust="spacing" textLength="18" x="89" y="700.2856">15</text><text fill="#000000" font-family="sans-serif" font-size="13" lengthAdjust="spacing" textLength="154" x="111" y="700.2856">operacao bem sucedida</text><path d="M25,727.3516 L91,727.3516 L91,734.3516 L81,744.3516 L25,744.3516 L25,727.3516 " fill="#EEEEEE" style="stroke:#000000;stroke-width:1.0;"/><rect fill="none" height="250.1953" style="stroke:#000000;stroke-width:2.0;" width="725" x="25" y="727.3516"/><text fill="#000000" font-family="sans-serif" font-size="13" font-weight="bold" lengthAdjust="spacing" textLength="21" x="40" y="740.4185">alt</text><text fill="#000000" font-family="sans-serif" font-size="11" font-weight="bold" lengthAdjust="spacing" textLength="200" x="106" y="739.562">[Remover conta de utilizador]</text><polygon fill="#A80036" points="269,761.6172,279,765.6172,269,769.6172,273,765.6172" style="stroke:#A80036;stroke-width:1.0;"/><line style="stroke:#A80036;stroke-width:1.0;stroke-dasharray:2.0,2.0;" x1="72" x2="275" y1="765.6172" y2="765.6172"/><text fill="#000000" font-family="sans-serif" font-size="13" font-weight="bold" lengthAdjust="spacing" textLength="18" x="79" y="760.5513">16</text><text fill="#000000" font-family="sans-serif" font-size="13" lengthAdjust="spacing" textLength="165" x="101" y="760.5513">inicia a remoção de conta</text><polygon fill="#A80036" points="83,790.75,73,794.75,83,798.75,79,794.75" style="stroke:#A80036;stroke-width:1.0;"/><line style="stroke:#A80036;stroke-width:1.0;stroke-dasharray:2.0,2.0;" x1="77" x2="280" y1="794.75" y2="794.75"/><text fill="#000000" font-family="sans-serif" font-size="13" font-weight="bold" lengthAdjust="spacing" textLength="18" x="89" y="789.6841">17</text><text fill="#000000" font-family="sans-serif" font-size="13" lengthAdjust="spacing" textLength="116" x="111" y="789.6841">pede confirmação</text><polygon fill="#A80036" points="269,819.8828,279,823.8828,269,827.8828,273,823.8828" style="stroke:#A80036;stroke-width:1.0;"/><line style="stroke:#A80036;stroke-width:1.0;stroke-dasharray:2.0,2.0;" x1="72" x2="275" y1="823.8828" y2="823.8828"/><text fill="#000000" font-family="sans-serif" font-size="13" font-weight="bold" lengthAdjust="spacing" textLength="18" x="79" y="818.8169">18</text><text fill="#000000" font-family="sans-serif" font-size="13" lengthAdjust="spacing" textLength="57" x="101" y="818.8169">confirma</text><polygon fill="#A80036" points="644.5,849.0156,654.5,853.0156,644.5,857.0156,648.5,853.0156" style="stroke:#A80036;stroke-width:1.0;"/><line style="stroke:#A80036;stroke-width:1.0;stroke-dasharray:2.0,2.0;" x1="291" x2="650.5" y1="853.0156" y2="853.0156"/><text fill="#000000" font-family="sans-serif" font-size="13" font-weight="bold" lengthAdjust="spacing" textLength="18" x="298" y="847.9497">19</text><text fill="#000000" font-family="sans-serif" font-size="13" lengthAdjust="spacing" textLength="188" x="320" y="847.9497">PostAsync(InfoUtilizadorDTO)</text><polygon fill="#A80036" points="302,878.1484,292,882.1484,302,886.1484,298,882.1484" style="stroke:#A80036;stroke-width:1.0;"/><line style="stroke:#A80036;stroke-width:1.0;stroke-dasharray:2.0,2.0;" x1="296" x2="660.5" y1="882.1484" y2="882.1484"/><text fill="#000000" font-family="sans-serif" font-size="13" font-weight="bold" lengthAdjust="spacing" textLength="19" x="308" y="877.0825">20</text><text fill="#000000" font-family="sans-serif" font-size="13" lengthAdjust="spacing" textLength="70" x="331" y="877.0825">return Ok()</text><polygon fill="#A80036" points="501,907.2813,511,911.2813,501,915.2813,505,911.2813" style="stroke:#A80036;stroke-width:1.0;"/><line style="stroke:#A80036;stroke-width:1.0;stroke-dasharray:2.0,2.0;" x1="291" x2="507" y1="911.2813" y2="911.2813"/><text fill="#000000" font-family="sans-serif" font-size="13" font-weight="bold" lengthAdjust="spacing" textLength="18" x="298" y="906.2153">21</text><text fill="#000000" font-family="sans-serif" font-size="13" lengthAdjust="spacing" textLength="150" x="320" y="906.2153">DeleteAsync(Utilizador)</text><polygon fill="#A80036" points="302,936.4141,292,940.4141,302,944.4141,298,940.4141" style="stroke:#A80036;stroke-width:1.0;"/><line style="stroke:#A80036;stroke-width:1.0;stroke-dasharray:2.0,2.0;" x1="296" x2="517" y1="940.4141" y2="940.4141"/><text fill="#000000" font-family="sans-serif" font-size="13" font-weight="bold" lengthAdjust="spacing" textLength="18" x="308" y="935.3481">22</text><text fill="#000000" font-family="sans-serif" font-size="13" lengthAdjust="spacing" textLength="51" x="330" y="935.3481">success</text><polygon fill="#A80036" points="83,965.5469,73,969.5469,83,973.5469,79,969.5469" style="stroke:#A80036;stroke-width:1.0;"/><line style="stroke:#A80036;stroke-width:1.0;stroke-dasharray:2.0,2.0;" x1="77" x2="285" y1="969.5469" y2="969.5469"/><text fill="#000000" font-family="sans-serif" font-size="13" font-weight="bold" lengthAdjust="spacing" textLength="17" x="89" y="964.481">23</text><text fill="#000000" font-family="sans-serif" font-size="13" lengthAdjust="spacing" textLength="154" x="110" y="964.481">operacao bem sucedida</text><!--MD5=[e47b22111e5533589afe3933a31ab639]
@startuml
autonumber
actor "Utilizador" as U
participant ":app/Areas/Identity/Pages/Account/Manage/" as RP
participant "UserManager" as UM
participant "API:SistemaCentral" as API
participant "Autenticação Externa" as AE

activate U

alt Alterar dados do utilizador
alt
U - -> RP: inicia a alteração \n(Nome, Numero Telefone)
activate RP
U - -> RP: inicia a alteração \n(Password)
U - -> RP: inicia a alteração \n(Método de Pagamento)
U - -> RP: inicia a alteração \n(Autenticações externas)
end

RP - -> U: pede dados

U - -> RP: insere dados

RP - -> UM: UpdateAsync(Utilizador)
activate UM

UM - -> RP: success
deactivate UM

alt
RP - -> API: PostAsync(AlterarNomeDTO)
activate API
RP - -> API: PostAsync(AlterarPasswordDTO)
RP - -> API: PostAsync(AlterarMetodoPagamentoDTO)
API - -> RP: return Ok()
deactivate API
end

alt
RP - -> AE: adicionar autenticação externa
activate AE
AE - -> RP: return Ok()
deactivate AE
end

RP - -> U: operacao bem sucedida
deactivate RP

deactivate U
end

alt Remover conta de utilizador
U - -> RP: inicia a remoção de conta
activate RP

RP - -> U: pede confirmação

U - -> RP: confirma

RP - -> API: PostAsync(InfoUtilizadorDTO)
activate API

API - -> RP: return Ok()
deactivate API

RP - -> UM: DeleteAsync(Utilizador)
activate UM

UM - -> RP: success
deactivate UM

RP - -> U: operacao bem sucedida
deactivate RP

deactivate U
end
@enduml

PlantUML version 1.2021.3beta4(Unknown compile time)
(GPL source distribution)
Java Runtime: Java(TM) SE Runtime Environment
JVM: Java HotSpot(TM) 64-Bit Server VM
Default Encoding: UTF-8
Language: en
Country: US
--></g></svg>