<?xml version="1.0" encoding="UTF-8" standalone="no"?><svg xmlns="http://www.w3.org/2000/svg" xmlns:xlink="http://www.w3.org/1999/xlink" contentScriptType="application/ecmascript" contentStyleType="text/css" height="487px" preserveAspectRatio="none" style="width:410px;height:487px;" version="1.1" viewBox="0 0 410 487" width="410px" zoomAndPan="magnify"><defs><filter height="300%" id="fixywlkmyidqy" width="300%" x="-1" y="-1"><feGaussianBlur result="blurOut" stdDeviation="2.0"/><feColorMatrix in="blurOut" result="blurOut2" type="matrix" values="0 0 0 0 0 0 0 0 0 0 0 0 0 0 0 0 0 0 .4 0"/><feOffset dx="4.0" dy="4.0" in="blurOut2" result="blurOut3"/><feBlend in="SourceGraphic" in2="blurOut3" mode="normal"/></filter></defs><g><rect fill="#FFFFFF" filter="url(#fixywlkmyidqy)" height="295.3281" style="stroke:#A80036;stroke-width:1.0;" width="10" x="57" y="98.2969"/><rect fill="#FFFFFF" filter="url(#fixywlkmyidqy)" height="29.1328" style="stroke:#A80036;stroke-width:1.0;" width="10" x="319" y="143.5625"/><rect fill="#FFFFFF" filter="url(#fixywlkmyidqy)" height="29.1328" style="stroke:#A80036;stroke-width:1.0;" width="10" x="319" y="201.8281"/><rect fill="#FFFFFF" filter="url(#fixywlkmyidqy)" height="29.1328" style="stroke:#A80036;stroke-width:1.0;" width="10" x="319" y="291.2266"/><rect fill="#FFFFFF" filter="url(#fixywlkmyidqy)" height="29.1328" style="stroke:#A80036;stroke-width:1.0;" width="10" x="319" y="349.4922"/><rect fill="#FFFFFF" filter="url(#fixywlkmyidqy)" height="133.6641" style="stroke:#000000;stroke-width:2.0;" width="381" x="15" y="105.2969"/><rect fill="#FFFFFF" filter="url(#fixywlkmyidqy)" height="133.6641" style="stroke:#000000;stroke-width:2.0;" width="381" x="15" y="252.9609"/><line style="stroke:#A80036;stroke-width:1.0;stroke-dasharray:5.0,5.0;" x1="62" x2="62" y1="88.2969" y2="403.625"/><line style="stroke:#A80036;stroke-width:1.0;stroke-dasharray:5.0,5.0;" x1="324" x2="324" y1="88.2969" y2="403.625"/><text fill="#000000" font-family="sans-serif" font-size="14" lengthAdjust="spacing" textLength="68" x="25" y="84.9951">Utilizador</text><ellipse cx="62" cy="15" fill="#FEFECE" filter="url(#fixywlkmyidqy)" rx="8" ry="8" style="stroke:#A80036;stroke-width:2.0;"/><path d="M62,23 L62,50 M49,31 L75,31 M62,50 L49,65 M62,50 L75,65 " fill="none" filter="url(#fixywlkmyidqy)" style="stroke:#A80036;stroke-width:2.0;"/><text fill="#000000" font-family="sans-serif" font-size="14" lengthAdjust="spacing" textLength="68" x="25" y="415.6201">Utilizador</text><ellipse cx="62" cy="428.9219" fill="#FEFECE" filter="url(#fixywlkmyidqy)" rx="8" ry="8" style="stroke:#A80036;stroke-width:2.0;"/><path d="M62,436.9219 L62,463.9219 M49,444.9219 L75,444.9219 M62,463.9219 L49,478.9219 M62,463.9219 L75,478.9219 " fill="none" filter="url(#fixywlkmyidqy)" style="stroke:#A80036;stroke-width:2.0;"/><rect fill="#FEFECE" filter="url(#fixywlkmyidqy)" height="30.2969" style="stroke:#A80036;stroke-width:1.5;" width="120" x="262" y="53"/><text fill="#000000" font-family="sans-serif" font-size="14" lengthAdjust="spacing" textLength="106" x="269" y="72.9951">:App.FrontEnd</text><rect fill="#FEFECE" filter="url(#fixywlkmyidqy)" height="30.2969" style="stroke:#A80036;stroke-width:1.5;" width="120" x="262" y="402.625"/><text fill="#000000" font-family="sans-serif" font-size="14" lengthAdjust="spacing" textLength="106" x="269" y="422.6201">:App.FrontEnd</text><rect fill="#FFFFFF" filter="url(#fixywlkmyidqy)" height="295.3281" style="stroke:#A80036;stroke-width:1.0;" width="10" x="57" y="98.2969"/><rect fill="#FFFFFF" filter="url(#fixywlkmyidqy)" height="29.1328" style="stroke:#A80036;stroke-width:1.0;" width="10" x="319" y="143.5625"/><rect fill="#FFFFFF" filter="url(#fixywlkmyidqy)" height="29.1328" style="stroke:#A80036;stroke-width:1.0;" width="10" x="319" y="201.8281"/><rect fill="#FFFFFF" filter="url(#fixywlkmyidqy)" height="29.1328" style="stroke:#A80036;stroke-width:1.0;" width="10" x="319" y="291.2266"/><rect fill="#FFFFFF" filter="url(#fixywlkmyidqy)" height="29.1328" style="stroke:#A80036;stroke-width:1.0;" width="10" x="319" y="349.4922"/><path d="M15,105.2969 L81,105.2969 L81,112.2969 L71,122.2969 L15,122.2969 L15,105.2969 " fill="#EEEEEE" style="stroke:#000000;stroke-width:1.0;"/><rect fill="none" height="133.6641" style="stroke:#000000;stroke-width:2.0;" width="381" x="15" y="105.2969"/><text fill="#000000" font-family="sans-serif" font-size="13" font-weight="bold" lengthAdjust="spacing" textLength="21" x="30" y="118.3638">alt</text><polygon fill="#A80036" points="307,139.5625,317,143.5625,307,147.5625,311,143.5625" style="stroke:#A80036;stroke-width:1.0;"/><line style="stroke:#A80036;stroke-width:1.0;" x1="67" x2="313" y1="143.5625" y2="143.5625"/><text fill="#000000" font-family="sans-serif" font-size="13" font-weight="bold" lengthAdjust="spacing" textLength="9" x="74" y="138.4966">1</text><text fill="#000000" font-family="sans-serif" font-size="13" lengthAdjust="spacing" textLength="163" x="87" y="138.4966">inicia pedido de alteração</text><polygon fill="#A80036" points="78,168.6953,68,172.6953,78,176.6953,74,172.6953" style="stroke:#A80036;stroke-width:1.0;"/><line style="stroke:#A80036;stroke-width:1.0;stroke-dasharray:2.0,2.0;" x1="72" x2="323" y1="172.6953" y2="172.6953"/><text fill="#000000" font-family="sans-serif" font-size="13" font-weight="bold" lengthAdjust="spacing" textLength="9" x="84" y="167.6294">2</text><text fill="#000000" font-family="sans-serif" font-size="13" lengthAdjust="spacing" textLength="75" x="97" y="167.6294">pede dados</text><polygon fill="#A80036" points="307,197.8281,317,201.8281,307,205.8281,311,201.8281" style="stroke:#A80036;stroke-width:1.0;"/><line style="stroke:#A80036;stroke-width:1.0;" x1="67" x2="313" y1="201.8281" y2="201.8281"/><text fill="#000000" font-family="sans-serif" font-size="13" font-weight="bold" lengthAdjust="spacing" textLength="8" x="74" y="196.7622">3</text><text fill="#000000" font-family="sans-serif" font-size="13" lengthAdjust="spacing" textLength="82" x="86" y="196.7622">insere dados</text><polygon fill="#A80036" points="78,226.9609,68,230.9609,78,234.9609,74,230.9609" style="stroke:#A80036;stroke-width:1.0;"/><line style="stroke:#A80036;stroke-width:1.0;stroke-dasharray:2.0,2.0;" x1="72" x2="323" y1="230.9609" y2="230.9609"/><text fill="#000000" font-family="sans-serif" font-size="13" font-weight="bold" lengthAdjust="spacing" textLength="9" x="84" y="225.895">4</text><text fill="#000000" font-family="sans-serif" font-size="13" lengthAdjust="spacing" textLength="154" x="97" y="225.895">operação bem sucedida</text><path d="M15,252.9609 L81,252.9609 L81,259.9609 L71,269.9609 L15,269.9609 L15,252.9609 " fill="#EEEEEE" style="stroke:#000000;stroke-width:1.0;"/><rect fill="none" height="133.6641" style="stroke:#000000;stroke-width:2.0;" width="381" x="15" y="252.9609"/><text fill="#000000" font-family="sans-serif" font-size="13" font-weight="bold" lengthAdjust="spacing" textLength="21" x="30" y="266.0278">alt</text><polygon fill="#A80036" points="307,287.2266,317,291.2266,307,295.2266,311,291.2266" style="stroke:#A80036;stroke-width:1.0;"/><line style="stroke:#A80036;stroke-width:1.0;" x1="67" x2="313" y1="291.2266" y2="291.2266"/><text fill="#000000" font-family="sans-serif" font-size="13" font-weight="bold" lengthAdjust="spacing" textLength="9" x="74" y="286.1606">5</text><text fill="#000000" font-family="sans-serif" font-size="13" lengthAdjust="spacing" textLength="220" x="87" y="286.1606">inicia pedido de remoção de conta</text><polygon fill="#A80036" points="78,316.3594,68,320.3594,78,324.3594,74,320.3594" style="stroke:#A80036;stroke-width:1.0;"/><line style="stroke:#A80036;stroke-width:1.0;stroke-dasharray:2.0,2.0;" x1="72" x2="323" y1="320.3594" y2="320.3594"/><text fill="#000000" font-family="sans-serif" font-size="13" font-weight="bold" lengthAdjust="spacing" textLength="9" x="84" y="315.2935">6</text><text fill="#000000" font-family="sans-serif" font-size="13" lengthAdjust="spacing" textLength="116" x="97" y="315.2935">pede confirmação</text><polygon fill="#A80036" points="307,345.4922,317,349.4922,307,353.4922,311,349.4922" style="stroke:#A80036;stroke-width:1.0;"/><line style="stroke:#A80036;stroke-width:1.0;" x1="67" x2="313" y1="349.4922" y2="349.4922"/><text fill="#000000" font-family="sans-serif" font-size="13" font-weight="bold" lengthAdjust="spacing" textLength="9" x="74" y="344.4263">7</text><text fill="#000000" font-family="sans-serif" font-size="13" lengthAdjust="spacing" textLength="57" x="87" y="344.4263">confirma</text><polygon fill="#A80036" points="78,374.625,68,378.625,78,382.625,74,378.625" style="stroke:#A80036;stroke-width:1.0;"/><line style="stroke:#A80036;stroke-width:1.0;stroke-dasharray:2.0,2.0;" x1="72" x2="323" y1="378.625" y2="378.625"/><text fill="#000000" font-family="sans-serif" font-size="13" font-weight="bold" lengthAdjust="spacing" textLength="9" x="84" y="373.5591">8</text><text fill="#000000" font-family="sans-serif" font-size="13" lengthAdjust="spacing" textLength="154" x="97" y="373.5591">operação bem sucedida</text><!--MD5=[db62b02431bb2a8227d1e56829a8029a]
@startuml
autonumber
actor "Utilizador" as U
participant ":App.FrontEnd" as API

alt
activate U
U -> API : inicia pedido de alteração
activate API
API - -> U : pede dados
deactivate API
U -> API : insere dados
activate API
API - -> U : operação bem sucedida
deactivate API
end

alt
activate U
U -> API : inicia pedido de remoção de conta
activate API
API - -> U : pede confirmação
deactivate API
U -> API : confirma
activate API
API - -> U : operação bem sucedida
deactivate API
end

deactivate U
@enduml

PlantUML version 1.2021.3beta4(Unknown compile time)
(GPL source distribution)
Java Runtime: Java(TM) SE Runtime Environment
JVM: Java HotSpot(TM) 64-Bit Server VM
Default Encoding: UTF-8
Language: en
Country: US
--></g></svg>