<?xml version="1.0" encoding="UTF-8" standalone="no"?><svg xmlns="http://www.w3.org/2000/svg" xmlns:xlink="http://www.w3.org/1999/xlink" contentScriptType="application/ecmascript" contentStyleType="text/css" height="396px" preserveAspectRatio="none" style="width:1025px;height:396px;" version="1.1" viewBox="0 0 1025 396" width="1025px" zoomAndPan="magnify"><defs><filter height="300%" id="f1035xdhaq4c9s" width="300%" x="-1" y="-1"><feGaussianBlur result="blurOut" stdDeviation="2.0"/><feColorMatrix in="blurOut" result="blurOut2" type="matrix" values="0 0 0 0 0 0 0 0 0 0 0 0 0 0 0 0 0 0 .4 0"/><feOffset dx="4.0" dy="4.0" in="blurOut2" result="blurOut3"/><feBlend in="SourceGraphic" in2="blurOut3" mode="normal"/></filter></defs><g><rect fill="#FFFFFF" filter="url(#f1035xdhaq4c9s)" height="195.9297" style="stroke:#A80036;stroke-width:1.0;" width="10" x="37" y="98.2969"/><rect fill="#FFFFFF" filter="url(#f1035xdhaq4c9s)" height="145.6641" style="stroke:#A80036;stroke-width:1.0;" width="10" x="477.5" y="119.4297"/><rect fill="#FFFFFF" filter="url(#f1035xdhaq4c9s)" height="87.3984" style="stroke:#A80036;stroke-width:1.0;" width="10" x="704.5" y="148.5625"/><rect fill="#FFFFFF" filter="url(#f1035xdhaq4c9s)" height="29.1328" style="stroke:#A80036;stroke-width:1.0;" width="10" x="931.5" y="177.6953"/><line style="stroke:#A80036;stroke-width:1.0;stroke-dasharray:5.0,5.0;" x1="42" x2="42" y1="88.2969" y2="312.2266"/><line style="stroke:#A80036;stroke-width:1.0;stroke-dasharray:5.0,5.0;" x1="237.5" x2="237.5" y1="88.2969" y2="312.2266"/><line style="stroke:#A80036;stroke-width:1.0;stroke-dasharray:5.0,5.0;" x1="482.5" x2="482.5" y1="88.2969" y2="312.2266"/><line style="stroke:#A80036;stroke-width:1.0;stroke-dasharray:5.0,5.0;" x1="709.5" x2="709.5" y1="88.2969" y2="312.2266"/><line style="stroke:#A80036;stroke-width:1.0;stroke-dasharray:5.0,5.0;" x1="936" x2="936" y1="88.2969" y2="312.2266"/><text fill="#000000" font-family="sans-serif" font-size="14" lengthAdjust="spacing" textLength="68" x="5" y="84.9951">Utilizador</text><ellipse cx="42" cy="15" fill="#FEFECE" filter="url(#f1035xdhaq4c9s)" rx="8" ry="8" style="stroke:#A80036;stroke-width:2.0;"/><path d="M42,23 L42,50 M29,31 L55,31 M42,50 L29,65 M42,50 L55,65 " fill="none" filter="url(#f1035xdhaq4c9s)" style="stroke:#A80036;stroke-width:2.0;"/><text fill="#000000" font-family="sans-serif" font-size="14" lengthAdjust="spacing" textLength="68" x="5" y="324.2217">Utilizador</text><ellipse cx="42" cy="337.5234" fill="#FEFECE" filter="url(#f1035xdhaq4c9s)" rx="8" ry="8" style="stroke:#A80036;stroke-width:2.0;"/><path d="M42,345.5234 L42,372.5234 M29,353.5234 L55,353.5234 M42,372.5234 L29,387.5234 M42,372.5234 L55,387.5234 " fill="none" filter="url(#f1035xdhaq4c9s)" style="stroke:#A80036;stroke-width:2.0;"/><rect fill="#FEFECE" filter="url(#f1035xdhaq4c9s)" height="30.2969" style="stroke:#A80036;stroke-width:1.5;" width="239" x="116.5" y="53"/><text fill="#000000" font-family="sans-serif" font-size="14" lengthAdjust="spacing" textLength="225" x="123.5" y="72.9951">:app/Views/SubAlugueres/Index</text><rect fill="#FEFECE" filter="url(#f1035xdhaq4c9s)" height="30.2969" style="stroke:#A80036;stroke-width:1.5;" width="239" x="116.5" y="311.2266"/><text fill="#000000" font-family="sans-serif" font-size="14" lengthAdjust="spacing" textLength="225" x="123.5" y="331.2217">:app/Views/SubAlugueres/Index</text><rect fill="#FEFECE" filter="url(#f1035xdhaq4c9s)" height="30.2969" style="stroke:#A80036;stroke-width:1.5;" width="222" x="369.5" y="53"/><text fill="#000000" font-family="sans-serif" font-size="14" lengthAdjust="spacing" textLength="208" x="376.5" y="72.9951">:app/SubAlugueresController</text><rect fill="#FEFECE" filter="url(#f1035xdhaq4c9s)" height="30.2969" style="stroke:#A80036;stroke-width:1.5;" width="222" x="369.5" y="311.2266"/><text fill="#000000" font-family="sans-serif" font-size="14" lengthAdjust="spacing" textLength="208" x="376.5" y="331.2217">:app/SubAlugueresController</text><rect fill="#FEFECE" filter="url(#f1035xdhaq4c9s)" height="30.2969" style="stroke:#A80036;stroke-width:1.5;" width="186" x="614.5" y="53"/><text fill="#000000" font-family="sans-serif" font-size="14" lengthAdjust="spacing" textLength="172" x="621.5" y="72.9951">:app/SubAluguerService</text><rect fill="#FEFECE" filter="url(#f1035xdhaq4c9s)" height="30.2969" style="stroke:#A80036;stroke-width:1.5;" width="186" x="614.5" y="311.2266"/><text fill="#000000" font-family="sans-serif" font-size="14" lengthAdjust="spacing" textLength="172" x="621.5" y="331.2217">:app/SubAluguerService</text><rect fill="#FEFECE" filter="url(#f1035xdhaq4c9s)" height="30.2969" style="stroke:#A80036;stroke-width:1.5;" width="153" x="858" y="53"/><text fill="#000000" font-family="sans-serif" font-size="14" lengthAdjust="spacing" textLength="139" x="865" y="72.9951">API:SistemaCentral</text><rect fill="#FEFECE" filter="url(#f1035xdhaq4c9s)" height="30.2969" style="stroke:#A80036;stroke-width:1.5;" width="153" x="858" y="311.2266"/><text fill="#000000" font-family="sans-serif" font-size="14" lengthAdjust="spacing" textLength="139" x="865" y="331.2217">API:SistemaCentral</text><rect fill="#FFFFFF" filter="url(#f1035xdhaq4c9s)" height="195.9297" style="stroke:#A80036;stroke-width:1.0;" width="10" x="37" y="98.2969"/><rect fill="#FFFFFF" filter="url(#f1035xdhaq4c9s)" height="145.6641" style="stroke:#A80036;stroke-width:1.0;" width="10" x="477.5" y="119.4297"/><rect fill="#FFFFFF" filter="url(#f1035xdhaq4c9s)" height="87.3984" style="stroke:#A80036;stroke-width:1.0;" width="10" x="704.5" y="148.5625"/><rect fill="#FFFFFF" filter="url(#f1035xdhaq4c9s)" height="29.1328" style="stroke:#A80036;stroke-width:1.0;" width="10" x="931.5" y="177.6953"/><polygon fill="#A80036" points="465.5,115.4297,475.5,119.4297,465.5,123.4297,469.5,119.4297" style="stroke:#A80036;stroke-width:1.0;"/><line style="stroke:#A80036;stroke-width:1.0;stroke-dasharray:2.0,2.0;" x1="47" x2="471.5" y1="119.4297" y2="119.4297"/><text fill="#000000" font-family="sans-serif" font-size="13" font-weight="bold" lengthAdjust="spacing" textLength="9" x="54" y="114.3638">1</text><text fill="#000000" font-family="sans-serif" font-size="13" lengthAdjust="spacing" textLength="102" x="67" y="114.3638">inicia a consulta</text><polygon fill="#A80036" points="692.5,144.5625,702.5,148.5625,692.5,152.5625,696.5,148.5625" style="stroke:#A80036;stroke-width:1.0;"/><line style="stroke:#A80036;stroke-width:1.0;stroke-dasharray:2.0,2.0;" x1="487.5" x2="698.5" y1="148.5625" y2="148.5625"/><text fill="#000000" font-family="sans-serif" font-size="13" font-weight="bold" lengthAdjust="spacing" textLength="9" x="494.5" y="143.4966">2</text><text fill="#000000" font-family="sans-serif" font-size="13" lengthAdjust="spacing" textLength="156" x="507.5" y="143.4966">GetAllSubAluguerByNIF()</text><polygon fill="#A80036" points="919.5,173.6953,929.5,177.6953,919.5,181.6953,923.5,177.6953" style="stroke:#A80036;stroke-width:1.0;"/><line style="stroke:#A80036;stroke-width:1.0;stroke-dasharray:2.0,2.0;" x1="714.5" x2="925.5" y1="177.6953" y2="177.6953"/><text fill="#000000" font-family="sans-serif" font-size="13" font-weight="bold" lengthAdjust="spacing" textLength="8" x="721.5" y="172.6294">3</text><text fill="#000000" font-family="sans-serif" font-size="13" lengthAdjust="spacing" textLength="88" x="733.5" y="172.6294">GetAsync(nif)</text><polygon fill="#A80036" points="725.5,202.8281,715.5,206.8281,725.5,210.8281,721.5,206.8281" style="stroke:#A80036;stroke-width:1.0;"/><line style="stroke:#A80036;stroke-width:1.0;stroke-dasharray:2.0,2.0;" x1="719.5" x2="935.5" y1="206.8281" y2="206.8281"/><text fill="#000000" font-family="sans-serif" font-size="13" font-weight="bold" lengthAdjust="spacing" textLength="9" x="731.5" y="201.7622">4</text><text fill="#000000" font-family="sans-serif" font-size="13" lengthAdjust="spacing" textLength="180" x="744.5" y="201.7622">return(lista SubAluguerDTO)</text><polygon fill="#A80036" points="498.5,231.9609,488.5,235.9609,498.5,239.9609,494.5,235.9609" style="stroke:#A80036;stroke-width:1.0;"/><line style="stroke:#A80036;stroke-width:1.0;stroke-dasharray:2.0,2.0;" x1="492.5" x2="708.5" y1="235.9609" y2="235.9609"/><text fill="#000000" font-family="sans-serif" font-size="13" font-weight="bold" lengthAdjust="spacing" textLength="9" x="504.5" y="230.895">5</text><text fill="#000000" font-family="sans-serif" font-size="13" lengthAdjust="spacing" textLength="180" x="517.5" y="230.895">return(lista SubAluguerDTO)</text><polygon fill="#A80036" points="249,261.0938,239,265.0938,249,269.0938,245,265.0938" style="stroke:#A80036;stroke-width:1.0;"/><line style="stroke:#A80036;stroke-width:1.0;stroke-dasharray:2.0,2.0;" x1="243" x2="481.5" y1="265.0938" y2="265.0938"/><text fill="#000000" font-family="sans-serif" font-size="13" font-weight="bold" lengthAdjust="spacing" textLength="9" x="255" y="260.0278">6</text><text fill="#000000" font-family="sans-serif" font-size="13" lengthAdjust="spacing" textLength="110" x="268" y="260.0278">return View(lista)</text><polygon fill="#A80036" points="53,290.2266,43,294.2266,53,298.2266,49,294.2266" style="stroke:#A80036;stroke-width:1.0;"/><line style="stroke:#A80036;stroke-width:1.0;stroke-dasharray:2.0,2.0;" x1="47" x2="237" y1="294.2266" y2="294.2266"/><text fill="#000000" font-family="sans-serif" font-size="13" font-weight="bold" lengthAdjust="spacing" textLength="9" x="59" y="289.1606">7</text><text fill="#000000" font-family="sans-serif" font-size="13" lengthAdjust="spacing" textLength="154" x="72" y="289.1606">operacao bem sucedida</text><!--MD5=[4853a6296ed376e6ed5fbe93d83bce88]
@startuml
autonumber
actor "Utilizador" as U
participant ":app/Views/SubAlugueres/Index" as SV
participant ":app/SubAlugueresController" as SC
participant ":app/SubAluguerService" as SS
participant "API:SistemaCentral" as API

activate U

U - -> SC: inicia a consulta
activate SC

SC - -> SS: GetAllSubAluguerByNIF()
activate SS

SS - -> API: GetAsync(nif)
activate API

API - -> SS: return(lista SubAluguerDTO)
deactivate API

SS - -> SC: return(lista SubAluguerDTO)
deactivate SS

SC - -> SV: return View(lista)
deactivate SC

SV - -> U: operacao bem sucedida
deactivate SV

deactivate U
@enduml

PlantUML version 1.2021.2beta9(Unknown compile time)
(GPL source distribution)
Java Runtime: Java(TM) SE Runtime Environment
JVM: Java HotSpot(TM) 64-Bit Server VM
Default Encoding: UTF-8
Language: en
Country: US
--></g></svg>