<?xml version="1.0" encoding="UTF-8" standalone="no"?><svg xmlns="http://www.w3.org/2000/svg" xmlns:xlink="http://www.w3.org/1999/xlink" contentScriptType="application/ecmascript" contentStyleType="text/css" height="720px" preserveAspectRatio="none" style="width:1878px;height:720px;" version="1.1" viewBox="0 0 1878 720" width="1878px" zoomAndPan="magnify"><defs><filter height="300%" id="f62m8a1jcjfhs" width="300%" x="-1" y="-1"><feGaussianBlur result="blurOut" stdDeviation="2.0"/><feColorMatrix in="blurOut" result="blurOut2" type="matrix" values="0 0 0 0 0 0 0 0 0 0 0 0 0 0 0 0 0 0 .4 0"/><feOffset dx="4.0" dy="4.0" in="blurOut2" result="blurOut3"/><feBlend in="SourceGraphic" in2="blurOut3" mode="normal"/></filter></defs><g><rect fill="#FFFFFF" filter="url(#f62m8a1jcjfhs)" height="527.5234" style="stroke:#A80036;stroke-width:1.0;" width="10" x="52" y="98.2969"/><rect fill="#FFFFFF" filter="url(#f62m8a1jcjfhs)" height="219.0625" style="stroke:#A80036;stroke-width:1.0;" width="10" x="256" y="119.4297"/><rect fill="#FFFFFF" filter="url(#f62m8a1jcjfhs)" height="145.6641" style="stroke:#A80036;stroke-width:1.0;" width="10" x="483" y="148.5625"/><rect fill="#FFFFFF" filter="url(#f62m8a1jcjfhs)" height="87.3984" style="stroke:#A80036;stroke-width:1.0;" width="10" x="748" y="177.6953"/><rect fill="#FFFFFF" filter="url(#f62m8a1jcjfhs)" height="219.0625" style="stroke:#A80036;stroke-width:1.0;" width="10" x="926.5" y="391.7578"/><rect fill="#FFFFFF" filter="url(#f62m8a1jcjfhs)" height="145.6641" style="stroke:#A80036;stroke-width:1.0;" width="10" x="1210.5" y="420.8906"/><rect fill="#FFFFFF" filter="url(#f62m8a1jcjfhs)" height="87.3984" style="stroke:#A80036;stroke-width:1.0;" width="10" x="1547.5" y="450.0234"/><rect fill="#FFFFFF" filter="url(#f62m8a1jcjfhs)" height="29.1328" style="stroke:#A80036;stroke-width:1.0;" width="10" x="1770.5" y="206.8281"/><rect fill="#FFFFFF" filter="url(#f62m8a1jcjfhs)" height="29.1328" style="stroke:#A80036;stroke-width:1.0;" width="10" x="1770.5" y="479.1563"/><rect fill="#FFFFFF" filter="url(#f62m8a1jcjfhs)" height="265.3281" style="stroke:#000000;stroke-width:2.0;" width="1854" x="10" y="353.4922"/><line style="stroke:#A80036;stroke-width:1.0;stroke-dasharray:5.0,5.0;" x1="57" x2="57" y1="88.2969" y2="635.8203"/><line style="stroke:#A80036;stroke-width:1.0;stroke-dasharray:5.0,5.0;" x1="260.5" x2="260.5" y1="88.2969" y2="635.8203"/><line style="stroke:#A80036;stroke-width:1.0;stroke-dasharray:5.0,5.0;" x1="488" x2="488" y1="88.2969" y2="635.8203"/><line style="stroke:#A80036;stroke-width:1.0;stroke-dasharray:5.0,5.0;" x1="753" x2="753" y1="88.2969" y2="635.8203"/><line style="stroke:#A80036;stroke-width:1.0;stroke-dasharray:5.0,5.0;" x1="931" x2="931" y1="88.2969" y2="635.8203"/><line style="stroke:#A80036;stroke-width:1.0;stroke-dasharray:5.0,5.0;" x1="1215.5" x2="1215.5" y1="88.2969" y2="635.8203"/><line style="stroke:#A80036;stroke-width:1.0;stroke-dasharray:5.0,5.0;" x1="1552.5" x2="1552.5" y1="88.2969" y2="635.8203"/><line style="stroke:#A80036;stroke-width:1.0;stroke-dasharray:5.0,5.0;" x1="1775" x2="1775" y1="88.2969" y2="635.8203"/><text fill="#000000" font-family="sans-serif" font-size="14" lengthAdjust="spacing" textLength="68" x="20" y="84.9951">Utilizador</text><ellipse cx="57" cy="15" fill="#FEFECE" filter="url(#f62m8a1jcjfhs)" rx="8" ry="8" style="stroke:#A80036;stroke-width:2.0;"/><path d="M57,23 L57,50 M44,31 L70,31 M57,50 L44,65 M57,50 L70,65 " fill="none" filter="url(#f62m8a1jcjfhs)" style="stroke:#A80036;stroke-width:2.0;"/><text fill="#000000" font-family="sans-serif" font-size="14" lengthAdjust="spacing" textLength="68" x="20" y="647.8154">Utilizador</text><ellipse cx="57" cy="661.1172" fill="#FEFECE" filter="url(#f62m8a1jcjfhs)" rx="8" ry="8" style="stroke:#A80036;stroke-width:2.0;"/><path d="M57,669.1172 L57,696.1172 M44,677.1172 L70,677.1172 M57,696.1172 L44,711.1172 M57,696.1172 L70,711.1172 " fill="none" filter="url(#f62m8a1jcjfhs)" style="stroke:#A80036;stroke-width:2.0;"/><rect fill="#FEFECE" filter="url(#f62m8a1jcjfhs)" height="30.2969" style="stroke:#A80036;stroke-width:1.5;" width="167" x="175.5" y="53"/><text fill="#000000" font-family="sans-serif" font-size="14" lengthAdjust="spacing" textLength="153" x="182.5" y="72.9951">:app/SubAluguerView</text><rect fill="#FEFECE" filter="url(#f62m8a1jcjfhs)" height="30.2969" style="stroke:#A80036;stroke-width:1.5;" width="167" x="175.5" y="634.8203"/><text fill="#000000" font-family="sans-serif" font-size="14" lengthAdjust="spacing" textLength="153" x="182.5" y="654.8154">:app/SubAluguerView</text><rect fill="#FEFECE" filter="url(#f62m8a1jcjfhs)" height="30.2969" style="stroke:#A80036;stroke-width:1.5;" width="206" x="383" y="53"/><text fill="#000000" font-family="sans-serif" font-size="14" lengthAdjust="spacing" textLength="192" x="390" y="72.9951">:app/SubAluguerController</text><rect fill="#FEFECE" filter="url(#f62m8a1jcjfhs)" height="30.2969" style="stroke:#A80036;stroke-width:1.5;" width="206" x="383" y="634.8203"/><text fill="#000000" font-family="sans-serif" font-size="14" lengthAdjust="spacing" textLength="192" x="390" y="654.8154">:app/SubAluguerController</text><rect fill="#FEFECE" filter="url(#f62m8a1jcjfhs)" height="30.2969" style="stroke:#A80036;stroke-width:1.5;" width="186" x="658" y="53"/><text fill="#000000" font-family="sans-serif" font-size="14" lengthAdjust="spacing" textLength="172" x="665" y="72.9951">:app/SubAluguerService</text><rect fill="#FEFECE" filter="url(#f62m8a1jcjfhs)" height="30.2969" style="stroke:#A80036;stroke-width:1.5;" width="186" x="658" y="634.8203"/><text fill="#000000" font-family="sans-serif" font-size="14" lengthAdjust="spacing" textLength="172" x="665" y="654.8154">:app/SubAluguerService</text><rect fill="#FEFECE" filter="url(#f62m8a1jcjfhs)" height="30.2969" style="stroke:#A80036;stroke-width:1.5;" width="143" x="858" y="53"/><text fill="#000000" font-family="sans-serif" font-size="14" lengthAdjust="spacing" textLength="129" x="865" y="72.9951">:app/ReservaView</text><rect fill="#FEFECE" filter="url(#f62m8a1jcjfhs)" height="30.2969" style="stroke:#A80036;stroke-width:1.5;" width="143" x="858" y="634.8203"/><text fill="#000000" font-family="sans-serif" font-size="14" lengthAdjust="spacing" textLength="129" x="865" y="654.8154">:app/ReservaView</text><rect fill="#FEFECE" filter="url(#f62m8a1jcjfhs)" height="30.2969" style="stroke:#A80036;stroke-width:1.5;" width="182" x="1122.5" y="53"/><text fill="#000000" font-family="sans-serif" font-size="14" lengthAdjust="spacing" textLength="168" x="1129.5" y="72.9951">:app/ReservaController</text><rect fill="#FEFECE" filter="url(#f62m8a1jcjfhs)" height="30.2969" style="stroke:#A80036;stroke-width:1.5;" width="182" x="1122.5" y="634.8203"/><text fill="#000000" font-family="sans-serif" font-size="14" lengthAdjust="spacing" textLength="168" x="1129.5" y="654.8154">:app/ReservaController</text><rect fill="#FEFECE" filter="url(#f62m8a1jcjfhs)" height="30.2969" style="stroke:#A80036;stroke-width:1.5;" width="162" x="1469.5" y="53"/><text fill="#000000" font-family="sans-serif" font-size="14" lengthAdjust="spacing" textLength="148" x="1476.5" y="72.9951">:app/ReservaService</text><rect fill="#FEFECE" filter="url(#f62m8a1jcjfhs)" height="30.2969" style="stroke:#A80036;stroke-width:1.5;" width="162" x="1469.5" y="634.8203"/><text fill="#000000" font-family="sans-serif" font-size="14" lengthAdjust="spacing" textLength="148" x="1476.5" y="654.8154">:app/ReservaService</text><rect fill="#FEFECE" filter="url(#f62m8a1jcjfhs)" height="30.2969" style="stroke:#A80036;stroke-width:1.5;" width="153" x="1697" y="53"/><text fill="#000000" font-family="sans-serif" font-size="14" lengthAdjust="spacing" textLength="139" x="1704" y="72.9951">API.SistemaCentral</text><rect fill="#FEFECE" filter="url(#f62m8a1jcjfhs)" height="30.2969" style="stroke:#A80036;stroke-width:1.5;" width="153" x="1697" y="634.8203"/><text fill="#000000" font-family="sans-serif" font-size="14" lengthAdjust="spacing" textLength="139" x="1704" y="654.8154">API.SistemaCentral</text><rect fill="#FFFFFF" filter="url(#f62m8a1jcjfhs)" height="527.5234" style="stroke:#A80036;stroke-width:1.0;" width="10" x="52" y="98.2969"/><rect fill="#FFFFFF" filter="url(#f62m8a1jcjfhs)" height="219.0625" style="stroke:#A80036;stroke-width:1.0;" width="10" x="256" y="119.4297"/><rect fill="#FFFFFF" filter="url(#f62m8a1jcjfhs)" height="145.6641" style="stroke:#A80036;stroke-width:1.0;" width="10" x="483" y="148.5625"/><rect fill="#FFFFFF" filter="url(#f62m8a1jcjfhs)" height="87.3984" style="stroke:#A80036;stroke-width:1.0;" width="10" x="748" y="177.6953"/><rect fill="#FFFFFF" filter="url(#f62m8a1jcjfhs)" height="219.0625" style="stroke:#A80036;stroke-width:1.0;" width="10" x="926.5" y="391.7578"/><rect fill="#FFFFFF" filter="url(#f62m8a1jcjfhs)" height="145.6641" style="stroke:#A80036;stroke-width:1.0;" width="10" x="1210.5" y="420.8906"/><rect fill="#FFFFFF" filter="url(#f62m8a1jcjfhs)" height="87.3984" style="stroke:#A80036;stroke-width:1.0;" width="10" x="1547.5" y="450.0234"/><rect fill="#FFFFFF" filter="url(#f62m8a1jcjfhs)" height="29.1328" style="stroke:#A80036;stroke-width:1.0;" width="10" x="1770.5" y="206.8281"/><rect fill="#FFFFFF" filter="url(#f62m8a1jcjfhs)" height="29.1328" style="stroke:#A80036;stroke-width:1.0;" width="10" x="1770.5" y="479.1563"/><polygon fill="#A80036" points="244,115.4297,254,119.4297,244,123.4297,248,119.4297" style="stroke:#A80036;stroke-width:1.0;"/><line style="stroke:#A80036;stroke-width:1.0;stroke-dasharray:2.0,2.0;" x1="62" x2="250" y1="119.4297" y2="119.4297"/><text fill="#000000" font-family="sans-serif" font-size="13" font-weight="bold" lengthAdjust="spacing" textLength="9" x="69" y="114.3638">1</text><text fill="#000000" font-family="sans-serif" font-size="13" lengthAdjust="spacing" textLength="102" x="82" y="114.3638">Inicia a consulta</text><polygon fill="#A80036" points="471,144.5625,481,148.5625,471,152.5625,475,148.5625" style="stroke:#A80036;stroke-width:1.0;"/><line style="stroke:#A80036;stroke-width:1.0;stroke-dasharray:2.0,2.0;" x1="266" x2="477" y1="148.5625" y2="148.5625"/><text fill="#000000" font-family="sans-serif" font-size="13" font-weight="bold" lengthAdjust="spacing" textLength="9" x="273" y="143.4966">2</text><text fill="#000000" font-family="sans-serif" font-size="13" lengthAdjust="spacing" textLength="185" x="286" y="143.4966">GetAllSubAlugueresByNif(nif)</text><polygon fill="#A80036" points="736,173.6953,746,177.6953,736,181.6953,740,177.6953" style="stroke:#A80036;stroke-width:1.0;"/><line style="stroke:#A80036;stroke-width:1.0;stroke-dasharray:2.0,2.0;" x1="493" x2="742" y1="177.6953" y2="177.6953"/><text fill="#000000" font-family="sans-serif" font-size="13" font-weight="bold" lengthAdjust="spacing" textLength="8" x="500" y="172.6294">3</text><text fill="#000000" font-family="sans-serif" font-size="13" lengthAdjust="spacing" textLength="224" x="512" y="172.6294">GetAllSubAlugueresByNifAsync(nif)</text><polygon fill="#A80036" points="1758.5,202.8281,1768.5,206.8281,1758.5,210.8281,1762.5,206.8281" style="stroke:#A80036;stroke-width:1.0;"/><line style="stroke:#A80036;stroke-width:1.0;stroke-dasharray:2.0,2.0;" x1="758" x2="1764.5" y1="206.8281" y2="206.8281"/><text fill="#000000" font-family="sans-serif" font-size="13" font-weight="bold" lengthAdjust="spacing" textLength="9" x="765" y="201.7622">4</text><text fill="#000000" font-family="sans-serif" font-size="13" lengthAdjust="spacing" textLength="155" x="778" y="201.7622">GetSubAluguerByNif(nif)</text><polygon fill="#A80036" points="769,231.9609,759,235.9609,769,239.9609,765,235.9609" style="stroke:#A80036;stroke-width:1.0;"/><line style="stroke:#A80036;stroke-width:1.0;stroke-dasharray:2.0,2.0;" x1="763" x2="1774.5" y1="235.9609" y2="235.9609"/><text fill="#000000" font-family="sans-serif" font-size="13" font-weight="bold" lengthAdjust="spacing" textLength="9" x="775" y="230.895">5</text><text fill="#000000" font-family="sans-serif" font-size="13" lengthAdjust="spacing" textLength="157" x="788" y="230.895">return listaSubAlugueres</text><polygon fill="#A80036" points="504,261.0938,494,265.0938,504,269.0938,500,265.0938" style="stroke:#A80036;stroke-width:1.0;"/><line style="stroke:#A80036;stroke-width:1.0;stroke-dasharray:2.0,2.0;" x1="498" x2="752" y1="265.0938" y2="265.0938"/><text fill="#000000" font-family="sans-serif" font-size="13" font-weight="bold" lengthAdjust="spacing" textLength="9" x="510" y="260.0278">6</text><text fill="#000000" font-family="sans-serif" font-size="13" lengthAdjust="spacing" textLength="157" x="523" y="260.0278">return listaSubAlugueres</text><polygon fill="#A80036" points="277,290.2266,267,294.2266,277,298.2266,273,294.2266" style="stroke:#A80036;stroke-width:1.0;"/><line style="stroke:#A80036;stroke-width:1.0;stroke-dasharray:2.0,2.0;" x1="271" x2="487" y1="294.2266" y2="294.2266"/><text fill="#000000" font-family="sans-serif" font-size="13" font-weight="bold" lengthAdjust="spacing" textLength="9" x="283" y="289.1606">7</text><text fill="#000000" font-family="sans-serif" font-size="13" lengthAdjust="spacing" textLength="157" x="296" y="289.1606">return listaSubAlugueres</text><polygon fill="#A80036" points="73,334.4922,63,338.4922,73,342.4922,69,338.4922" style="stroke:#A80036;stroke-width:1.0;"/><line style="stroke:#A80036;stroke-width:1.0;stroke-dasharray:2.0,2.0;" x1="67" x2="260" y1="338.4922" y2="338.4922"/><text fill="#000000" font-family="sans-serif" font-size="13" font-weight="bold" lengthAdjust="spacing" textLength="9" x="79" y="325.8599">8</text><text fill="#000000" font-family="sans-serif" font-size="13" lengthAdjust="spacing" textLength="157" x="92" y="318.2935">return listaSubAlugueres</text><text fill="#000000" font-family="sans-serif" font-size="13" lengthAdjust="spacing" textLength="154" x="92" y="333.4263">operacao bem sucedida</text><path d="M10,353.4922 L76,353.4922 L76,360.4922 L66,370.4922 L10,370.4922 L10,353.4922 " fill="#EEEEEE" style="stroke:#000000;stroke-width:1.0;"/><rect fill="none" height="265.3281" style="stroke:#000000;stroke-width:2.0;" width="1854" x="10" y="353.4922"/><text fill="#000000" font-family="sans-serif" font-size="13" font-weight="bold" lengthAdjust="spacing" textLength="21" x="25" y="366.5591">alt</text><text fill="#000000" font-family="sans-serif" font-size="11" font-weight="bold" lengthAdjust="spacing" textLength="95" x="91" y="365.7026">[Ver detalhes]</text><polygon fill="#A80036" points="914.5,387.7578,924.5,391.7578,914.5,395.7578,918.5,391.7578" style="stroke:#A80036;stroke-width:1.0;"/><line style="stroke:#A80036;stroke-width:1.0;stroke-dasharray:2.0,2.0;" x1="62" x2="920.5" y1="391.7578" y2="391.7578"/><text fill="#000000" font-family="sans-serif" font-size="13" font-weight="bold" lengthAdjust="spacing" textLength="9" x="69" y="386.6919">9</text><text fill="#000000" font-family="sans-serif" font-size="13" lengthAdjust="spacing" textLength="173" x="82" y="386.6919">Selecciona um sub-aluguer</text><polygon fill="#A80036" points="1198.5,416.8906,1208.5,420.8906,1198.5,424.8906,1202.5,420.8906" style="stroke:#A80036;stroke-width:1.0;"/><line style="stroke:#A80036;stroke-width:1.0;stroke-dasharray:2.0,2.0;" x1="936.5" x2="1204.5" y1="420.8906" y2="420.8906"/><text fill="#000000" font-family="sans-serif" font-size="13" font-weight="bold" lengthAdjust="spacing" textLength="19" x="943.5" y="415.8247">10</text><text fill="#000000" font-family="sans-serif" font-size="13" lengthAdjust="spacing" textLength="232" x="966.5" y="415.8247">GetReservasByReservaOriginalId(id)</text><polygon fill="#A80036" points="1535.5,446.0234,1545.5,450.0234,1535.5,454.0234,1539.5,450.0234" style="stroke:#A80036;stroke-width:1.0;"/><line style="stroke:#A80036;stroke-width:1.0;stroke-dasharray:2.0,2.0;" x1="1220.5" x2="1541.5" y1="450.0234" y2="450.0234"/><text fill="#000000" font-family="sans-serif" font-size="13" font-weight="bold" lengthAdjust="spacing" textLength="18" x="1227.5" y="444.9575">11</text><text fill="#000000" font-family="sans-serif" font-size="13" lengthAdjust="spacing" textLength="286" x="1249.5" y="444.9575">GetAllReservasByReservaOriginalIdAsync(id)</text><polygon fill="#A80036" points="1758.5,475.1563,1768.5,479.1563,1758.5,483.1563,1762.5,479.1563" style="stroke:#A80036;stroke-width:1.0;"/><line style="stroke:#A80036;stroke-width:1.0;stroke-dasharray:2.0,2.0;" x1="1557.5" x2="1764.5" y1="479.1563" y2="479.1563"/><text fill="#000000" font-family="sans-serif" font-size="13" font-weight="bold" lengthAdjust="spacing" textLength="18" x="1564.5" y="474.0903">12</text><text fill="#000000" font-family="sans-serif" font-size="13" lengthAdjust="spacing" textLength="172" x="1586.5" y="474.0903">GetByReservaOriginalId(id)</text><polygon fill="#A80036" points="1568.5,504.2891,1558.5,508.2891,1568.5,512.2891,1564.5,508.2891" style="stroke:#A80036;stroke-width:1.0;"/><line style="stroke:#A80036;stroke-width:1.0;stroke-dasharray:2.0,2.0;" x1="1562.5" x2="1774.5" y1="508.2891" y2="508.2891"/><text fill="#000000" font-family="sans-serif" font-size="13" font-weight="bold" lengthAdjust="spacing" textLength="17" x="1574.5" y="503.2231">13</text><text fill="#000000" font-family="sans-serif" font-size="13" lengthAdjust="spacing" textLength="129" x="1595.5" y="503.2231">return listaReservas</text><polygon fill="#A80036" points="1231.5,533.4219,1221.5,537.4219,1231.5,541.4219,1227.5,537.4219" style="stroke:#A80036;stroke-width:1.0;"/><line style="stroke:#A80036;stroke-width:1.0;stroke-dasharray:2.0,2.0;" x1="1225.5" x2="1551.5" y1="537.4219" y2="537.4219"/><text fill="#000000" font-family="sans-serif" font-size="13" font-weight="bold" lengthAdjust="spacing" textLength="18" x="1237.5" y="532.356">14</text><text fill="#000000" font-family="sans-serif" font-size="13" lengthAdjust="spacing" textLength="129" x="1259.5" y="532.356">return listaReservas</text><polygon fill="#A80036" points="947.5,562.5547,937.5,566.5547,947.5,570.5547,943.5,566.5547" style="stroke:#A80036;stroke-width:1.0;"/><line style="stroke:#A80036;stroke-width:1.0;stroke-dasharray:2.0,2.0;" x1="941.5" x2="1214.5" y1="566.5547" y2="566.5547"/><text fill="#000000" font-family="sans-serif" font-size="13" font-weight="bold" lengthAdjust="spacing" textLength="18" x="953.5" y="561.4888">15</text><text fill="#000000" font-family="sans-serif" font-size="13" lengthAdjust="spacing" textLength="129" x="975.5" y="561.4888">return listaReservas</text><polygon fill="#A80036" points="73,606.8203,63,610.8203,73,614.8203,69,610.8203" style="stroke:#A80036;stroke-width:1.0;"/><line style="stroke:#A80036;stroke-width:1.0;stroke-dasharray:2.0,2.0;" x1="67" x2="930.5" y1="610.8203" y2="610.8203"/><text fill="#000000" font-family="sans-serif" font-size="13" font-weight="bold" lengthAdjust="spacing" textLength="18" x="79" y="598.188">16</text><text fill="#000000" font-family="sans-serif" font-size="13" lengthAdjust="spacing" textLength="129" x="101" y="590.6216">return listaReservas</text><text fill="#000000" font-family="sans-serif" font-size="13" lengthAdjust="spacing" textLength="154" x="101" y="605.7544">operacao bem sucedida</text><!--MD5=[2d3d02f6750d6acee340b9a608fcc63e]
@startuml
autonumber
actor "Utilizador" as U
participant ":app/SubAluguerView" as SV
participant ":app/SubAluguerController" as SC
participant ":app/SubAluguerService" as SS
participant ":app/ReservaView" as RV
participant ":app/ReservaController" as RC
participant ":app/ReservaService" as RS
participant "API.SistemaCentral" as API

activate U

U - -> SV: Inicia a consulta
activate SV

SV - -> SC: GetAllSubAlugueresByNif(nif)
activate SC

SC - -> SS: GetAllSubAlugueresByNifAsync(nif)
activate SS

SS - -> API: GetSubAluguerByNif(nif)
activate API

API - -> SS:return listaSubAlugueres
deactivate API

SS - -> SC: return listaSubAlugueres
deactivate SS

SC - -> SV: return listaSubAlugueres
deactivate SC

SV - -> U: return listaSubAlugueres\noperacao bem sucedida
deactivate SV

alt Ver detalhes

U - -> RV: Selecciona um sub-aluguer
activate RV

RV - -> RC: GetReservasByReservaOriginalId(id)
activate RC

RC - -> RS: GetAllReservasByReservaOriginalIdAsync(id)
activate RS

RS - -> API: GetByReservaOriginalId(id)
activate API

API - -> RS:return listaReservas
deactivate API

RS - -> RC: return listaReservas
deactivate RS

RC - -> RV: return listaReservas
deactivate RC

RV - -> U: return listaReservas\noperacao bem sucedida
deactivate RV

end

deactivate U
@enduml

PlantUML version 1.2021.2beta9(Unknown compile time)
(GPL source distribution)
Java Runtime: Java(TM) SE Runtime Environment
JVM: Java HotSpot(TM) 64-Bit Server VM
Default Encoding: UTF-8
Language: en
Country: US
--></g></svg>