<?xml version="1.0" encoding="UTF-8" standalone="no"?><svg xmlns="http://www.w3.org/2000/svg" xmlns:xlink="http://www.w3.org/1999/xlink" contentScriptType="application/ecmascript" contentStyleType="text/css" height="340px" preserveAspectRatio="none" style="width:390px;height:340px;" version="1.1" viewBox="0 0 390 340" width="390px" zoomAndPan="magnify"><defs><filter height="300%" id="f102vm1scxcpfe" width="300%" x="-1" y="-1"><feGaussianBlur result="blurOut" stdDeviation="2.0"/><feColorMatrix in="blurOut" result="blurOut2" type="matrix" values="0 0 0 0 0 0 0 0 0 0 0 0 0 0 0 0 0 0 .4 0"/><feOffset dx="4.0" dy="4.0" in="blurOut2" result="blurOut3"/><feBlend in="SourceGraphic" in2="blurOut3" mode="normal"/></filter></defs><g><rect fill="#FFFFFF" filter="url(#f102vm1scxcpfe)" height="147.6641" style="stroke:#A80036;stroke-width:1.0;" width="10" x="52" y="98.2969"/><rect fill="#FFFFFF" filter="url(#f102vm1scxcpfe)" height="29.1328" style="stroke:#A80036;stroke-width:1.0;" width="10" x="299" y="119.4297"/><rect fill="#FFFFFF" filter="url(#f102vm1scxcpfe)" height="29.1328" style="stroke:#A80036;stroke-width:1.0;" width="10" x="299" y="201.8281"/><rect fill="#FFFFFF" filter="url(#f102vm1scxcpfe)" height="75.3984" style="stroke:#000000;stroke-width:2.0;" width="366" x="10" y="163.5625"/><line style="stroke:#A80036;stroke-width:1.0;stroke-dasharray:5.0,5.0;" x1="57" x2="57" y1="88.2969" y2="255.9609"/><line style="stroke:#A80036;stroke-width:1.0;stroke-dasharray:5.0,5.0;" x1="304" x2="304" y1="88.2969" y2="255.9609"/><text fill="#000000" font-family="sans-serif" font-size="14" lengthAdjust="spacing" textLength="68" x="20" y="84.9951">Utilizador</text><ellipse cx="57" cy="15" fill="#FEFECE" filter="url(#f102vm1scxcpfe)" rx="8" ry="8" style="stroke:#A80036;stroke-width:2.0;"/><path d="M57,23 L57,50 M44,31 L70,31 M57,50 L44,65 M57,50 L70,65 " fill="none" filter="url(#f102vm1scxcpfe)" style="stroke:#A80036;stroke-width:2.0;"/><text fill="#000000" font-family="sans-serif" font-size="14" lengthAdjust="spacing" textLength="68" x="20" y="267.9561">Utilizador</text><ellipse cx="57" cy="281.2578" fill="#FEFECE" filter="url(#f102vm1scxcpfe)" rx="8" ry="8" style="stroke:#A80036;stroke-width:2.0;"/><path d="M57,289.2578 L57,316.2578 M44,297.2578 L70,297.2578 M57,316.2578 L44,331.2578 M57,316.2578 L70,331.2578 " fill="none" filter="url(#f102vm1scxcpfe)" style="stroke:#A80036;stroke-width:2.0;"/><rect fill="#FEFECE" filter="url(#f102vm1scxcpfe)" height="30.2969" style="stroke:#A80036;stroke-width:1.5;" width="120" x="242" y="53"/><text fill="#000000" font-family="sans-serif" font-size="14" lengthAdjust="spacing" textLength="106" x="249" y="72.9951">:App.FrontEnd</text><rect fill="#FEFECE" filter="url(#f102vm1scxcpfe)" height="30.2969" style="stroke:#A80036;stroke-width:1.5;" width="120" x="242" y="254.9609"/><text fill="#000000" font-family="sans-serif" font-size="14" lengthAdjust="spacing" textLength="106" x="249" y="274.9561">:App.FrontEnd</text><rect fill="#FFFFFF" filter="url(#f102vm1scxcpfe)" height="147.6641" style="stroke:#A80036;stroke-width:1.0;" width="10" x="52" y="98.2969"/><rect fill="#FFFFFF" filter="url(#f102vm1scxcpfe)" height="29.1328" style="stroke:#A80036;stroke-width:1.0;" width="10" x="299" y="119.4297"/><rect fill="#FFFFFF" filter="url(#f102vm1scxcpfe)" height="29.1328" style="stroke:#A80036;stroke-width:1.0;" width="10" x="299" y="201.8281"/><polygon fill="#A80036" points="287,115.4297,297,119.4297,287,123.4297,291,119.4297" style="stroke:#A80036;stroke-width:1.0;"/><line style="stroke:#A80036;stroke-width:1.0;" x1="62" x2="293" y1="119.4297" y2="119.4297"/><text fill="#000000" font-family="sans-serif" font-size="13" font-weight="bold" lengthAdjust="spacing" textLength="9" x="69" y="114.3638">1</text><text fill="#000000" font-family="sans-serif" font-size="13" lengthAdjust="spacing" textLength="205" x="82" y="114.3638">inicia consulta de sub-alugueres</text><polygon fill="#A80036" points="73,144.5625,63,148.5625,73,152.5625,69,148.5625" style="stroke:#A80036;stroke-width:1.0;"/><line style="stroke:#A80036;stroke-width:1.0;stroke-dasharray:2.0,2.0;" x1="67" x2="303" y1="148.5625" y2="148.5625"/><text fill="#000000" font-family="sans-serif" font-size="13" font-weight="bold" lengthAdjust="spacing" textLength="9" x="79" y="143.4966">2</text><text fill="#000000" font-family="sans-serif" font-size="13" lengthAdjust="spacing" textLength="157" x="92" y="143.4966">return listaSubAlugueres</text><path d="M10,163.5625 L76,163.5625 L76,170.5625 L66,180.5625 L10,180.5625 L10,163.5625 " fill="#EEEEEE" style="stroke:#000000;stroke-width:1.0;"/><rect fill="none" height="75.3984" style="stroke:#000000;stroke-width:2.0;" width="366" x="10" y="163.5625"/><text fill="#000000" font-family="sans-serif" font-size="13" font-weight="bold" lengthAdjust="spacing" textLength="21" x="25" y="176.6294">alt</text><text fill="#000000" font-family="sans-serif" font-size="11" font-weight="bold" lengthAdjust="spacing" textLength="95" x="91" y="175.7729">[Ver detalhes]</text><polygon fill="#A80036" points="287,197.8281,297,201.8281,287,205.8281,291,201.8281" style="stroke:#A80036;stroke-width:1.0;"/><line style="stroke:#A80036;stroke-width:1.0;" x1="62" x2="293" y1="201.8281" y2="201.8281"/><text fill="#000000" font-family="sans-serif" font-size="13" font-weight="bold" lengthAdjust="spacing" textLength="8" x="69" y="196.7622">3</text><text fill="#000000" font-family="sans-serif" font-size="13" lengthAdjust="spacing" textLength="172" x="81" y="196.7622">selecciona um sub-aluguer</text><polygon fill="#A80036" points="73,226.9609,63,230.9609,73,234.9609,69,230.9609" style="stroke:#A80036;stroke-width:1.0;"/><line style="stroke:#A80036;stroke-width:1.0;stroke-dasharray:2.0,2.0;" x1="67" x2="303" y1="230.9609" y2="230.9609"/><text fill="#000000" font-family="sans-serif" font-size="13" font-weight="bold" lengthAdjust="spacing" textLength="9" x="79" y="225.895">4</text><text fill="#000000" font-family="sans-serif" font-size="13" lengthAdjust="spacing" textLength="129" x="92" y="225.895">return listaReservas</text><!--MD5=[9dca379254625a7bd98e78e40e4ba63a]
@startuml
autonumber
actor "Utilizador" as UserNR
participant ":App.FrontEnd" as API

activate UserNR
UserNR -> "API" : inicia consulta de sub-alugueres
activate "API"
"API" - -> UserNR : return listaSubAlugueres
deactivate "API"

alt Ver detalhes

UserNR -> "API" : selecciona um sub-aluguer
activate "API"
"API" - -> UserNR : return listaReservas
deactivate "API"

end

deactivate UserNR
@enduml

PlantUML version 1.2021.2beta9(Unknown compile time)
(GPL source distribution)
Java Runtime: Java(TM) SE Runtime Environment
JVM: Java HotSpot(TM) 64-Bit Server VM
Default Encoding: UTF-8
Language: en
Country: US
--></g></svg>