<?xml version="1.0" encoding="UTF-8" standalone="no"?><svg xmlns="http://www.w3.org/2000/svg" xmlns:xlink="http://www.w3.org/1999/xlink" contentScriptType="application/ecmascript" contentStyleType="text/css" height="425px" preserveAspectRatio="none" style="width:1045px;height:425px;" version="1.1" viewBox="0 0 1045 425" width="1045px" zoomAndPan="magnify"><defs><filter height="300%" id="fli9d9y9vx30m" width="300%" x="-1" y="-1"><feGaussianBlur result="blurOut" stdDeviation="2.0"/><feColorMatrix in="blurOut" result="blurOut2" type="matrix" values="0 0 0 0 0 0 0 0 0 0 0 0 0 0 0 0 0 0 .4 0"/><feOffset dx="4.0" dy="4.0" in="blurOut2" result="blurOut3"/><feBlend in="SourceGraphic" in2="blurOut3" mode="normal"/></filter></defs><g><rect fill="#FFFFFF" filter="url(#fli9d9y9vx30m)" height="225.0625" style="stroke:#A80036;stroke-width:1.0;" width="10" x="37" y="98.2969"/><rect fill="#FFFFFF" filter="url(#fli9d9y9vx30m)" height="203.9297" style="stroke:#A80036;stroke-width:1.0;" width="10" x="283" y="119.4297"/><rect fill="#FFFFFF" filter="url(#fli9d9y9vx30m)" height="145.6641" style="stroke:#A80036;stroke-width:1.0;" width="10" x="513" y="148.5625"/><rect fill="#FFFFFF" filter="url(#fli9d9y9vx30m)" height="87.3984" style="stroke:#A80036;stroke-width:1.0;" width="10" x="722" y="177.6953"/><rect fill="#FFFFFF" filter="url(#fli9d9y9vx30m)" height="29.1328" style="stroke:#A80036;stroke-width:1.0;" width="10" x="983" y="206.8281"/><line style="stroke:#A80036;stroke-width:1.0;stroke-dasharray:5.0,5.0;" x1="42" x2="42" y1="88.2969" y2="341.3594"/><line style="stroke:#A80036;stroke-width:1.0;stroke-dasharray:5.0,5.0;" x1="287.5" x2="287.5" y1="88.2969" y2="341.3594"/><line style="stroke:#A80036;stroke-width:1.0;stroke-dasharray:5.0,5.0;" x1="518" x2="518" y1="88.2969" y2="341.3594"/><line style="stroke:#A80036;stroke-width:1.0;stroke-dasharray:5.0,5.0;" x1="727" x2="727" y1="88.2969" y2="341.3594"/><line style="stroke:#A80036;stroke-width:1.0;stroke-dasharray:5.0,5.0;" x1="987.5" x2="987.5" y1="88.2969" y2="341.3594"/><text fill="#000000" font-family="sans-serif" font-size="14" lengthAdjust="spacing" textLength="68" x="5" y="84.9951">Utilizador</text><ellipse cx="42" cy="15" fill="#FEFECE" filter="url(#fli9d9y9vx30m)" rx="8" ry="8" style="stroke:#A80036;stroke-width:2.0;"/><path d="M42,23 L42,50 M29,31 L55,31 M42,50 L29,65 M42,50 L55,65 " fill="none" filter="url(#fli9d9y9vx30m)" style="stroke:#A80036;stroke-width:2.0;"/><text fill="#000000" font-family="sans-serif" font-size="14" lengthAdjust="spacing" textLength="68" x="5" y="353.3545">Utilizador</text><ellipse cx="42" cy="366.6563" fill="#FEFECE" filter="url(#fli9d9y9vx30m)" rx="8" ry="8" style="stroke:#A80036;stroke-width:2.0;"/><path d="M42,374.6563 L42,401.6563 M29,382.6563 L55,382.6563 M42,401.6563 L29,416.6563 M42,401.6563 L55,416.6563 " fill="none" filter="url(#fli9d9y9vx30m)" style="stroke:#A80036;stroke-width:2.0;"/><rect fill="#FEFECE" filter="url(#fli9d9y9vx30m)" height="30.2969" style="stroke:#A80036;stroke-width:1.5;" width="143" x="214.5" y="53"/><text fill="#000000" font-family="sans-serif" font-size="14" lengthAdjust="spacing" textLength="129" x="221.5" y="72.9951">:app/ReservaView</text><rect fill="#FEFECE" filter="url(#fli9d9y9vx30m)" height="30.2969" style="stroke:#A80036;stroke-width:1.5;" width="143" x="214.5" y="340.3594"/><text fill="#000000" font-family="sans-serif" font-size="14" lengthAdjust="spacing" textLength="129" x="221.5" y="360.3545">:app/ReservaView</text><rect fill="#FEFECE" filter="url(#fli9d9y9vx30m)" height="30.2969" style="stroke:#A80036;stroke-width:1.5;" width="182" x="425" y="53"/><text fill="#000000" font-family="sans-serif" font-size="14" lengthAdjust="spacing" textLength="168" x="432" y="72.9951">:app/ReservaController</text><rect fill="#FEFECE" filter="url(#fli9d9y9vx30m)" height="30.2969" style="stroke:#A80036;stroke-width:1.5;" width="182" x="425" y="340.3594"/><text fill="#000000" font-family="sans-serif" font-size="14" lengthAdjust="spacing" textLength="168" x="432" y="360.3545">:app/ReservaController</text><rect fill="#FEFECE" filter="url(#fli9d9y9vx30m)" height="30.2969" style="stroke:#A80036;stroke-width:1.5;" width="162" x="644" y="53"/><text fill="#000000" font-family="sans-serif" font-size="14" lengthAdjust="spacing" textLength="148" x="651" y="72.9951">:app/ReservaService</text><rect fill="#FEFECE" filter="url(#fli9d9y9vx30m)" height="30.2969" style="stroke:#A80036;stroke-width:1.5;" width="162" x="644" y="340.3594"/><text fill="#000000" font-family="sans-serif" font-size="14" lengthAdjust="spacing" textLength="148" x="651" y="360.3545">:app/ReservaService</text><rect fill="#FEFECE" filter="url(#fli9d9y9vx30m)" height="30.2969" style="stroke:#A80036;stroke-width:1.5;" width="91" x="940.5" y="53"/><text fill="#000000" font-family="sans-serif" font-size="14" lengthAdjust="spacing" textLength="77" x="947.5" y="72.9951">API:Parque</text><rect fill="#FEFECE" filter="url(#fli9d9y9vx30m)" height="30.2969" style="stroke:#A80036;stroke-width:1.5;" width="91" x="940.5" y="340.3594"/><text fill="#000000" font-family="sans-serif" font-size="14" lengthAdjust="spacing" textLength="77" x="947.5" y="360.3545">API:Parque</text><rect fill="#FFFFFF" filter="url(#fli9d9y9vx30m)" height="225.0625" style="stroke:#A80036;stroke-width:1.0;" width="10" x="37" y="98.2969"/><rect fill="#FFFFFF" filter="url(#fli9d9y9vx30m)" height="203.9297" style="stroke:#A80036;stroke-width:1.0;" width="10" x="283" y="119.4297"/><rect fill="#FFFFFF" filter="url(#fli9d9y9vx30m)" height="145.6641" style="stroke:#A80036;stroke-width:1.0;" width="10" x="513" y="148.5625"/><rect fill="#FFFFFF" filter="url(#fli9d9y9vx30m)" height="87.3984" style="stroke:#A80036;stroke-width:1.0;" width="10" x="722" y="177.6953"/><rect fill="#FFFFFF" filter="url(#fli9d9y9vx30m)" height="29.1328" style="stroke:#A80036;stroke-width:1.0;" width="10" x="983" y="206.8281"/><polygon fill="#A80036" points="271,115.4297,281,119.4297,271,123.4297,275,119.4297" style="stroke:#A80036;stroke-width:1.0;"/><line style="stroke:#A80036;stroke-width:1.0;stroke-dasharray:2.0,2.0;" x1="47" x2="277" y1="119.4297" y2="119.4297"/><text fill="#000000" font-family="sans-serif" font-size="13" font-weight="bold" lengthAdjust="spacing" textLength="9" x="54" y="114.3638">1</text><text fill="#000000" font-family="sans-serif" font-size="13" lengthAdjust="spacing" textLength="102" x="67" y="114.3638">Solicita Reserva</text><polygon fill="#A80036" points="501,144.5625,511,148.5625,501,152.5625,505,148.5625" style="stroke:#A80036;stroke-width:1.0;"/><line style="stroke:#A80036;stroke-width:1.0;stroke-dasharray:2.0,2.0;" x1="293" x2="507" y1="148.5625" y2="148.5625"/><text fill="#000000" font-family="sans-serif" font-size="13" font-weight="bold" lengthAdjust="spacing" textLength="9" x="300" y="143.4966">2</text><text fill="#000000" font-family="sans-serif" font-size="13" lengthAdjust="spacing" textLength="188" x="313" y="143.4966">solicita reserva (reservaDTO)</text><polygon fill="#A80036" points="710,173.6953,720,177.6953,710,181.6953,714,177.6953" style="stroke:#A80036;stroke-width:1.0;"/><line style="stroke:#A80036;stroke-width:1.0;stroke-dasharray:2.0,2.0;" x1="523" x2="716" y1="177.6953" y2="177.6953"/><text fill="#000000" font-family="sans-serif" font-size="13" font-weight="bold" lengthAdjust="spacing" textLength="8" x="530" y="172.6294">3</text><text fill="#000000" font-family="sans-serif" font-size="13" lengthAdjust="spacing" textLength="168" x="542" y="172.6294">PostReserva(reservaDTO)</text><polygon fill="#A80036" points="971,202.8281,981,206.8281,971,210.8281,975,206.8281" style="stroke:#A80036;stroke-width:1.0;"/><line style="stroke:#A80036;stroke-width:1.0;stroke-dasharray:2.0,2.0;" x1="732" x2="977" y1="206.8281" y2="206.8281"/><text fill="#000000" font-family="sans-serif" font-size="13" font-weight="bold" lengthAdjust="spacing" textLength="9" x="739" y="201.7622">4</text><text fill="#000000" font-family="sans-serif" font-size="13" lengthAdjust="spacing" textLength="219" x="752" y="201.7622">PostAsync(reservaApiParqueDTO)</text><polygon fill="#A80036" points="743,231.9609,733,235.9609,743,239.9609,739,235.9609" style="stroke:#A80036;stroke-width:1.0;"/><line style="stroke:#A80036;stroke-width:1.0;stroke-dasharray:2.0,2.0;" x1="737" x2="987" y1="235.9609" y2="235.9609"/><text fill="#000000" font-family="sans-serif" font-size="13" font-weight="bold" lengthAdjust="spacing" textLength="9" x="749" y="230.895">5</text><text fill="#000000" font-family="sans-serif" font-size="13" lengthAdjust="spacing" textLength="137" x="762" y="230.895">return reservaParque</text><polygon fill="#A80036" points="534,261.0938,524,265.0938,534,269.0938,530,265.0938" style="stroke:#A80036;stroke-width:1.0;"/><line style="stroke:#A80036;stroke-width:1.0;stroke-dasharray:2.0,2.0;" x1="528" x2="726" y1="265.0938" y2="265.0938"/><text fill="#000000" font-family="sans-serif" font-size="13" font-weight="bold" lengthAdjust="spacing" textLength="9" x="540" y="260.0278">6</text><text fill="#000000" font-family="sans-serif" font-size="13" lengthAdjust="spacing" textLength="92" x="553" y="260.0278">return reserva</text><polygon fill="#A80036" points="304,290.2266,294,294.2266,304,298.2266,300,294.2266" style="stroke:#A80036;stroke-width:1.0;"/><line style="stroke:#A80036;stroke-width:1.0;stroke-dasharray:2.0,2.0;" x1="298" x2="517" y1="294.2266" y2="294.2266"/><text fill="#000000" font-family="sans-serif" font-size="13" font-weight="bold" lengthAdjust="spacing" textLength="9" x="310" y="289.1606">7</text><text fill="#000000" font-family="sans-serif" font-size="13" lengthAdjust="spacing" textLength="92" x="323" y="289.1606">return reserva</text><polygon fill="#A80036" points="53,319.3594,43,323.3594,53,327.3594,49,323.3594" style="stroke:#A80036;stroke-width:1.0;"/><line style="stroke:#A80036;stroke-width:1.0;stroke-dasharray:2.0,2.0;" x1="47" x2="287" y1="323.3594" y2="323.3594"/><text fill="#000000" font-family="sans-serif" font-size="13" font-weight="bold" lengthAdjust="spacing" textLength="9" x="59" y="318.2935">8</text><text fill="#000000" font-family="sans-serif" font-size="13" lengthAdjust="spacing" textLength="199" x="72" y="318.2935">return Operação bem sucedida</text><!--MD5=[f407aea5ce9764b60de0443f7231b457]
@startuml
autonumber
actor "Utilizador" as U
participant ":app/ReservaView" as RV
participant ":app/ReservaController" as RC
participant ":app/ReservaService" as RS
participant "API:Parque" as API

activate U

U - -> RV: Solicita Reserva
activate RV

RV - -> RC: solicita reserva (reservaDTO)
activate RC

RC - -> RS: PostReserva(reservaDTO)
activate RS

RS - -> API: PostAsync(reservaApiParqueDTO)
activate API

API - -> RS: return reservaParque
deactivate API

RS - -> RC: return reserva
deactivate RS

RC - -> RV: return reserva
deactivate RC

RV - -> U: return Operação bem sucedida
deactivate RV

deactivate U
@enduml

PlantUML version 1.2021.2beta9(Unknown compile time)
(GPL source distribution)
Java Runtime: Java(TM) SE Runtime Environment
JVM: Java HotSpot(TM) 64-Bit Server VM
Default Encoding: UTF-8
Language: en
Country: US
--></g></svg>