<?xml version="1.0" encoding="UTF-8" standalone="no"?><svg xmlns="http://www.w3.org/2000/svg" xmlns:xlink="http://www.w3.org/1999/xlink" contentScriptType="application/ecmascript" contentStyleType="text/css" height="584px" preserveAspectRatio="none" style="width:1490px;height:584px;" version="1.1" viewBox="0 0 1490 584" width="1490px" zoomAndPan="magnify"><defs><filter height="300%" id="f1p2moum7sl1pq" width="300%" x="-1" y="-1"><feGaussianBlur result="blurOut" stdDeviation="2.0"/><feColorMatrix in="blurOut" result="blurOut2" type="matrix" values="0 0 0 0 0 0 0 0 0 0 0 0 0 0 0 0 0 0 .4 0"/><feOffset dx="4.0" dy="4.0" in="blurOut2" result="blurOut3"/><feBlend in="SourceGraphic" in2="blurOut3" mode="normal"/></filter></defs><g><rect fill="#FFFFFF" filter="url(#f1p2moum7sl1pq)" height="383.7266" style="stroke:#A80036;stroke-width:1.0;" width="10" x="37" y="98.2969"/><rect fill="#FFFFFF" filter="url(#f1p2moum7sl1pq)" height="29.1328" style="stroke:#A80036;stroke-width:1.0;" width="10" x="225" y="119.4297"/><rect fill="#FFFFFF" filter="url(#f1p2moum7sl1pq)" height="29.1328" style="stroke:#A80036;stroke-width:1.0;" width="10" x="481" y="452.8906"/><rect fill="#FFFFFF" filter="url(#f1p2moum7sl1pq)" height="87.3984" style="stroke:#A80036;stroke-width:1.0;" width="10" x="713" y="177.6953"/><rect fill="#FFFFFF" filter="url(#f1p2moum7sl1pq)" height="304.3281" style="stroke:#A80036;stroke-width:1.0;" width="10" x="936.5" y="148.5625"/><rect fill="#FFFFFF" filter="url(#f1p2moum7sl1pq)" height="87.3984" style="stroke:#A80036;stroke-width:1.0;" width="10" x="1196.5" y="294.2266"/><rect fill="#FFFFFF" filter="url(#f1p2moum7sl1pq)" height="29.1328" style="stroke:#A80036;stroke-width:1.0;" width="10" x="1396.5" y="323.3594"/><line style="stroke:#A80036;stroke-width:1.0;stroke-dasharray:5.0,5.0;" x1="42" x2="42" y1="88.2969" y2="500.0234"/><line style="stroke:#A80036;stroke-width:1.0;stroke-dasharray:5.0,5.0;" x1="230" x2="230" y1="88.2969" y2="500.0234"/><line style="stroke:#A80036;stroke-width:1.0;stroke-dasharray:5.0,5.0;" x1="486" x2="486" y1="88.2969" y2="500.0234"/><line style="stroke:#A80036;stroke-width:1.0;stroke-dasharray:5.0,5.0;" x1="718" x2="718" y1="88.2969" y2="500.0234"/><line style="stroke:#A80036;stroke-width:1.0;stroke-dasharray:5.0,5.0;" x1="941" x2="941" y1="88.2969" y2="500.0234"/><line style="stroke:#A80036;stroke-width:1.0;stroke-dasharray:5.0,5.0;" x1="1201.5" x2="1201.5" y1="88.2969" y2="500.0234"/><line style="stroke:#A80036;stroke-width:1.0;stroke-dasharray:5.0,5.0;" x1="1401" x2="1401" y1="88.2969" y2="500.0234"/><text fill="#000000" font-family="sans-serif" font-size="14" lengthAdjust="spacing" textLength="68" x="5" y="84.9951">Utilizador</text><ellipse cx="42" cy="15" fill="#FEFECE" filter="url(#f1p2moum7sl1pq)" rx="8" ry="8" style="stroke:#A80036;stroke-width:2.0;"/><path d="M42,23 L42,50 M29,31 L55,31 M42,50 L29,65 M42,50 L55,65 " fill="none" filter="url(#f1p2moum7sl1pq)" style="stroke:#A80036;stroke-width:2.0;"/><text fill="#000000" font-family="sans-serif" font-size="14" lengthAdjust="spacing" textLength="68" x="5" y="512.0186">Utilizador</text><ellipse cx="42" cy="525.3203" fill="#FEFECE" filter="url(#f1p2moum7sl1pq)" rx="8" ry="8" style="stroke:#A80036;stroke-width:2.0;"/><path d="M42,533.3203 L42,560.3203 M29,541.3203 L55,541.3203 M42,560.3203 L29,575.3203 M42,560.3203 L55,575.3203 " fill="none" filter="url(#f1p2moum7sl1pq)" style="stroke:#A80036;stroke-width:2.0;"/><rect fill="#FEFECE" filter="url(#f1p2moum7sl1pq)" height="30.2969" style="stroke:#A80036;stroke-width:1.5;" width="278" x="89" y="53"/><text fill="#000000" font-family="sans-serif" font-size="14" lengthAdjust="spacing" textLength="264" x="96" y="72.9951">:app/Views/Reservas/Disponibilidade</text><rect fill="#FEFECE" filter="url(#f1p2moum7sl1pq)" height="30.2969" style="stroke:#A80036;stroke-width:1.5;" width="278" x="89" y="499.0234"/><text fill="#000000" font-family="sans-serif" font-size="14" lengthAdjust="spacing" textLength="264" x="96" y="519.0186">:app/Views/Reservas/Disponibilidade</text><rect fill="#FEFECE" filter="url(#f1p2moum7sl1pq)" height="30.2969" style="stroke:#A80036;stroke-width:1.5;" width="206" x="381" y="53"/><text fill="#000000" font-family="sans-serif" font-size="14" lengthAdjust="spacing" textLength="192" x="388" y="72.9951">:app/Views/Reservas/Index</text><rect fill="#FEFECE" filter="url(#f1p2moum7sl1pq)" height="30.2969" style="stroke:#A80036;stroke-width:1.5;" width="206" x="381" y="499.0234"/><text fill="#000000" font-family="sans-serif" font-size="14" lengthAdjust="spacing" textLength="192" x="388" y="519.0186">:app/Views/Reservas/Index</text><rect fill="#FEFECE" filter="url(#f1p2moum7sl1pq)" height="30.2969" style="stroke:#A80036;stroke-width:1.5;" width="230" x="601" y="53"/><text fill="#000000" font-family="sans-serif" font-size="14" lengthAdjust="spacing" textLength="216" x="608" y="72.9951">:app/Views/Reservas/Reservar</text><rect fill="#FEFECE" filter="url(#f1p2moum7sl1pq)" height="30.2969" style="stroke:#A80036;stroke-width:1.5;" width="230" x="601" y="499.0234"/><text fill="#000000" font-family="sans-serif" font-size="14" lengthAdjust="spacing" textLength="216" x="608" y="519.0186">:app/Views/Reservas/Reservar</text><rect fill="#FEFECE" filter="url(#f1p2moum7sl1pq)" height="30.2969" style="stroke:#A80036;stroke-width:1.5;" width="189" x="845" y="53"/><text fill="#000000" font-family="sans-serif" font-size="14" lengthAdjust="spacing" textLength="175" x="852" y="72.9951">:app/ReservasController</text><rect fill="#FEFECE" filter="url(#f1p2moum7sl1pq)" height="30.2969" style="stroke:#A80036;stroke-width:1.5;" width="189" x="845" y="499.0234"/><text fill="#000000" font-family="sans-serif" font-size="14" lengthAdjust="spacing" textLength="175" x="852" y="519.0186">:app/ReservasController</text><rect fill="#FEFECE" filter="url(#f1p2moum7sl1pq)" height="30.2969" style="stroke:#A80036;stroke-width:1.5;" width="162" x="1118.5" y="53"/><text fill="#000000" font-family="sans-serif" font-size="14" lengthAdjust="spacing" textLength="148" x="1125.5" y="72.9951">:app/ReservaService</text><rect fill="#FEFECE" filter="url(#f1p2moum7sl1pq)" height="30.2969" style="stroke:#A80036;stroke-width:1.5;" width="162" x="1118.5" y="499.0234"/><text fill="#000000" font-family="sans-serif" font-size="14" lengthAdjust="spacing" textLength="148" x="1125.5" y="519.0186">:app/ReservaService</text><rect fill="#FEFECE" filter="url(#f1p2moum7sl1pq)" height="30.2969" style="stroke:#A80036;stroke-width:1.5;" width="153" x="1323" y="53"/><text fill="#000000" font-family="sans-serif" font-size="14" lengthAdjust="spacing" textLength="139" x="1330" y="72.9951">API:SistemaCentral</text><rect fill="#FEFECE" filter="url(#f1p2moum7sl1pq)" height="30.2969" style="stroke:#A80036;stroke-width:1.5;" width="153" x="1323" y="499.0234"/><text fill="#000000" font-family="sans-serif" font-size="14" lengthAdjust="spacing" textLength="139" x="1330" y="519.0186">API:SistemaCentral</text><rect fill="#FFFFFF" filter="url(#f1p2moum7sl1pq)" height="383.7266" style="stroke:#A80036;stroke-width:1.0;" width="10" x="37" y="98.2969"/><rect fill="#FFFFFF" filter="url(#f1p2moum7sl1pq)" height="29.1328" style="stroke:#A80036;stroke-width:1.0;" width="10" x="225" y="119.4297"/><rect fill="#FFFFFF" filter="url(#f1p2moum7sl1pq)" height="29.1328" style="stroke:#A80036;stroke-width:1.0;" width="10" x="481" y="452.8906"/><rect fill="#FFFFFF" filter="url(#f1p2moum7sl1pq)" height="87.3984" style="stroke:#A80036;stroke-width:1.0;" width="10" x="713" y="177.6953"/><rect fill="#FFFFFF" filter="url(#f1p2moum7sl1pq)" height="304.3281" style="stroke:#A80036;stroke-width:1.0;" width="10" x="936.5" y="148.5625"/><rect fill="#FFFFFF" filter="url(#f1p2moum7sl1pq)" height="87.3984" style="stroke:#A80036;stroke-width:1.0;" width="10" x="1196.5" y="294.2266"/><rect fill="#FFFFFF" filter="url(#f1p2moum7sl1pq)" height="29.1328" style="stroke:#A80036;stroke-width:1.0;" width="10" x="1396.5" y="323.3594"/><polygon fill="#A80036" points="213,115.4297,223,119.4297,213,123.4297,217,119.4297" style="stroke:#A80036;stroke-width:1.0;"/><line style="stroke:#A80036;stroke-width:1.0;stroke-dasharray:2.0,2.0;" x1="47" x2="219" y1="119.4297" y2="119.4297"/><text fill="#000000" font-family="sans-serif" font-size="13" font-weight="bold" lengthAdjust="spacing" textLength="9" x="54" y="114.3638">1</text><text fill="#000000" font-family="sans-serif" font-size="13" lengthAdjust="spacing" textLength="132" x="67" y="114.3638">inicia pedido reserva</text><polygon fill="#A80036" points="924.5,144.5625,934.5,148.5625,924.5,152.5625,928.5,148.5625" style="stroke:#A80036;stroke-width:1.0;"/><line style="stroke:#A80036;stroke-width:1.0;stroke-dasharray:2.0,2.0;" x1="230" x2="930.5" y1="148.5625" y2="148.5625"/><text fill="#000000" font-family="sans-serif" font-size="13" font-weight="bold" lengthAdjust="spacing" textLength="9" x="237" y="143.4966">2</text><text fill="#000000" font-family="sans-serif" font-size="13" lengthAdjust="spacing" textLength="132" x="250" y="143.4966">Reservar(LugarDTO)</text><polygon fill="#A80036" points="734,173.6953,724,177.6953,734,181.6953,730,177.6953" style="stroke:#A80036;stroke-width:1.0;"/><line style="stroke:#A80036;stroke-width:1.0;stroke-dasharray:2.0,2.0;" x1="728" x2="935.5" y1="177.6953" y2="177.6953"/><text fill="#000000" font-family="sans-serif" font-size="13" font-weight="bold" lengthAdjust="spacing" textLength="8" x="740" y="172.6294">3</text><text fill="#000000" font-family="sans-serif" font-size="13" lengthAdjust="spacing" textLength="165" x="752" y="172.6294">return View(ReservaDTO)</text><polygon fill="#A80036" points="58,202.8281,48,206.8281,58,210.8281,54,206.8281" style="stroke:#A80036;stroke-width:1.0;"/><line style="stroke:#A80036;stroke-width:1.0;stroke-dasharray:2.0,2.0;" x1="52" x2="712" y1="206.8281" y2="206.8281"/><text fill="#000000" font-family="sans-serif" font-size="13" font-weight="bold" lengthAdjust="spacing" textLength="9" x="64" y="201.7622">4</text><text fill="#000000" font-family="sans-serif" font-size="13" lengthAdjust="spacing" textLength="266" x="77" y="201.7622">pede método de pagamento ao utilizador</text><polygon fill="#A80036" points="701,231.9609,711,235.9609,701,239.9609,705,235.9609" style="stroke:#A80036;stroke-width:1.0;"/><line style="stroke:#A80036;stroke-width:1.0;stroke-dasharray:2.0,2.0;" x1="47" x2="707" y1="235.9609" y2="235.9609"/><text fill="#000000" font-family="sans-serif" font-size="13" font-weight="bold" lengthAdjust="spacing" textLength="9" x="54" y="230.895">5</text><text fill="#000000" font-family="sans-serif" font-size="13" lengthAdjust="spacing" textLength="201" x="67" y="230.895">escolhe método de pagamento</text><polygon fill="#A80036" points="924.5,261.0938,934.5,265.0938,924.5,269.0938,928.5,265.0938" style="stroke:#A80036;stroke-width:1.0;"/><line style="stroke:#A80036;stroke-width:1.0;stroke-dasharray:2.0,2.0;" x1="718" x2="930.5" y1="265.0938" y2="265.0938"/><text fill="#000000" font-family="sans-serif" font-size="13" font-weight="bold" lengthAdjust="spacing" textLength="9" x="725" y="260.0278">6</text><text fill="#000000" font-family="sans-serif" font-size="13" lengthAdjust="spacing" textLength="149" x="738" y="260.0278">Reservar(ReservaDTO)</text><polygon fill="#A80036" points="1184.5,290.2266,1194.5,294.2266,1184.5,298.2266,1188.5,294.2266" style="stroke:#A80036;stroke-width:1.0;"/><line style="stroke:#A80036;stroke-width:1.0;stroke-dasharray:2.0,2.0;" x1="946.5" x2="1190.5" y1="294.2266" y2="294.2266"/><text fill="#000000" font-family="sans-serif" font-size="13" font-weight="bold" lengthAdjust="spacing" textLength="9" x="953.5" y="289.1606">7</text><text fill="#000000" font-family="sans-serif" font-size="13" lengthAdjust="spacing" textLength="158" x="966.5" y="289.1606">PostAsync(ReservaDTO)</text><polygon fill="#A80036" points="1384.5,319.3594,1394.5,323.3594,1384.5,327.3594,1388.5,323.3594" style="stroke:#A80036;stroke-width:1.0;"/><line style="stroke:#A80036;stroke-width:1.0;stroke-dasharray:2.0,2.0;" x1="1206.5" x2="1390.5" y1="323.3594" y2="323.3594"/><text fill="#000000" font-family="sans-serif" font-size="13" font-weight="bold" lengthAdjust="spacing" textLength="9" x="1213.5" y="318.2935">8</text><text fill="#000000" font-family="sans-serif" font-size="13" lengthAdjust="spacing" textLength="158" x="1226.5" y="318.2935">PostAsync(ReservaDTO)</text><polygon fill="#A80036" points="1217.5,348.4922,1207.5,352.4922,1217.5,356.4922,1213.5,352.4922" style="stroke:#A80036;stroke-width:1.0;"/><line style="stroke:#A80036;stroke-width:1.0;stroke-dasharray:2.0,2.0;" x1="1211.5" x2="1400.5" y1="352.4922" y2="352.4922"/><text fill="#000000" font-family="sans-serif" font-size="13" font-weight="bold" lengthAdjust="spacing" textLength="9" x="1223.5" y="347.4263">9</text><text fill="#000000" font-family="sans-serif" font-size="13" lengthAdjust="spacing" textLength="115" x="1236.5" y="347.4263">CreatedAtAction()</text><polygon fill="#A80036" points="957.5,377.625,947.5,381.625,957.5,385.625,953.5,381.625" style="stroke:#A80036;stroke-width:1.0;"/><line style="stroke:#A80036;stroke-width:1.0;stroke-dasharray:2.0,2.0;" x1="951.5" x2="1200.5" y1="381.625" y2="381.625"/><text fill="#000000" font-family="sans-serif" font-size="13" font-weight="bold" lengthAdjust="spacing" textLength="19" x="963.5" y="376.5591">10</text><text fill="#000000" font-family="sans-serif" font-size="13" lengthAdjust="spacing" textLength="49" x="986.5" y="376.5591">Task ok</text><line style="stroke:#A80036;stroke-width:1.0;stroke-dasharray:2.0,2.0;" x1="946.5" x2="988.5" y1="410.7578" y2="410.7578"/><line style="stroke:#A80036;stroke-width:1.0;stroke-dasharray:2.0,2.0;" x1="988.5" x2="988.5" y1="410.7578" y2="423.7578"/><line style="stroke:#A80036;stroke-width:1.0;stroke-dasharray:2.0,2.0;" x1="947.5" x2="988.5" y1="423.7578" y2="423.7578"/><polygon fill="#A80036" points="957.5,419.7578,947.5,423.7578,957.5,427.7578,953.5,423.7578" style="stroke:#A80036;stroke-width:1.0;"/><text fill="#000000" font-family="sans-serif" font-size="13" font-weight="bold" lengthAdjust="spacing" textLength="18" x="953.5" y="405.6919">11</text><text fill="#000000" font-family="sans-serif" font-size="13" lengthAdjust="spacing" textLength="214" x="975.5" y="405.6919">RedirectToAction(nameof(Index))</text><polygon fill="#A80036" points="502,448.8906,492,452.8906,502,456.8906,498,452.8906" style="stroke:#A80036;stroke-width:1.0;"/><line style="stroke:#A80036;stroke-width:1.0;stroke-dasharray:2.0,2.0;" x1="496" x2="940.5" y1="452.8906" y2="452.8906"/><text fill="#000000" font-family="sans-serif" font-size="13" font-weight="bold" lengthAdjust="spacing" textLength="18" x="508" y="447.8247">12</text><text fill="#000000" font-family="sans-serif" font-size="13" lengthAdjust="spacing" textLength="249" x="530" y="447.8247">Return View(lista DetalheReservaDTO)</text><polygon fill="#A80036" points="53,478.0234,43,482.0234,53,486.0234,49,482.0234" style="stroke:#A80036;stroke-width:1.0;"/><line style="stroke:#A80036;stroke-width:1.0;stroke-dasharray:2.0,2.0;" x1="47" x2="485" y1="482.0234" y2="482.0234"/><text fill="#000000" font-family="sans-serif" font-size="13" font-weight="bold" lengthAdjust="spacing" textLength="17" x="59" y="476.9575">13</text><text fill="#000000" font-family="sans-serif" font-size="13" lengthAdjust="spacing" textLength="154" x="80" y="476.9575">operação bem sucedida</text><!--MD5=[830d3141b76d7ad48001916c6e0bfc6c]
@startuml
autonumber
actor "Utilizador" as U
participant ":app/Views/Reservas/Disponibilidade" as RDV
participant ":app/Views/Reservas/Index" as RIV
participant ":app/Views/Reservas/Reservar" as RRV
participant ":app/ReservasController" as RC
participant ":app/ReservaService" as RS
participant "API:SistemaCentral" as API

activate U
U - -> RDV : inicia pedido reserva
activate RDV

RDV - -> RC : Reservar(LugarDTO)
deactivate RDV
activate RC

RC - -> RRV: return View(ReservaDTO)
activate RRV

RRV - -> U: pede método de pagamento ao utilizador

U - -> RRV: escolhe método de pagamento

RRV - -> RC: Reservar(ReservaDTO)
deactivate RRV

RC - -> RS: PostAsync(ReservaDTO)
activate RS

RS - -> API : PostAsync(ReservaDTO)
activate API

API - -> RS : CreatedAtAction()
deactivate API

RS - -> RC : Task ok
deactivate RS

RC - -> RC : RedirectToAction(nameof(Index))

RC - -> RIV : Return View(lista DetalheReservaDTO)
deactivate RC
activate RIV

RIV - -> U: operação bem sucedida
deactivate RIV
deactivate U
@enduml

PlantUML version 1.2021.2beta9(Unknown compile time)
(GPL source distribution)
Java Runtime: Java(TM) SE Runtime Environment
JVM: Java HotSpot(TM) 64-Bit Server VM
Default Encoding: UTF-8
Language: en
Country: US
--></g></svg>