<?xml version="1.0" encoding="UTF-8" standalone="no"?><svg xmlns="http://www.w3.org/2000/svg" xmlns:xlink="http://www.w3.org/1999/xlink" contentScriptType="application/ecmascript" contentStyleType="text/css" height="440px" preserveAspectRatio="none" style="width:986px;height:440px;" version="1.1" viewBox="0 0 986 440" width="986px" zoomAndPan="magnify"><defs><filter height="300%" id="f130ptx75kcjt6" width="300%" x="-1" y="-1"><feGaussianBlur result="blurOut" stdDeviation="2.0"/><feColorMatrix in="blurOut" result="blurOut2" type="matrix" values="0 0 0 0 0 0 0 0 0 0 0 0 0 0 0 0 0 0 .4 0"/><feOffset dx="4.0" dy="4.0" in="blurOut2" result="blurOut3"/><feBlend in="SourceGraphic" in2="blurOut3" mode="normal"/></filter></defs><g><rect fill="#FFFFFF" filter="url(#f130ptx75kcjt6)" height="240.1953" style="stroke:#A80036;stroke-width:1.0;" width="10" x="37" y="98.2969"/><rect fill="#FFFFFF" filter="url(#f130ptx75kcjt6)" height="219.0625" style="stroke:#A80036;stroke-width:1.0;" width="10" x="238" y="119.4297"/><rect fill="#FFFFFF" filter="url(#f130ptx75kcjt6)" height="145.6641" style="stroke:#A80036;stroke-width:1.0;" width="10" x="451" y="148.5625"/><rect fill="#FFFFFF" filter="url(#f130ptx75kcjt6)" height="87.3984" style="stroke:#A80036;stroke-width:1.0;" width="10" x="702" y="177.6953"/><rect fill="#FFFFFF" filter="url(#f130ptx75kcjt6)" height="29.1328" style="stroke:#A80036;stroke-width:1.0;" width="10" x="893" y="206.8281"/><line style="stroke:#A80036;stroke-width:1.0;stroke-dasharray:5.0,5.0;" x1="42" x2="42" y1="88.2969" y2="356.4922"/><line style="stroke:#A80036;stroke-width:1.0;stroke-dasharray:5.0,5.0;" x1="243" x2="243" y1="88.2969" y2="356.4922"/><line style="stroke:#A80036;stroke-width:1.0;stroke-dasharray:5.0,5.0;" x1="455.5" x2="455.5" y1="88.2969" y2="356.4922"/><line style="stroke:#A80036;stroke-width:1.0;stroke-dasharray:5.0,5.0;" x1="706.5" x2="706.5" y1="88.2969" y2="356.4922"/><line style="stroke:#A80036;stroke-width:1.0;stroke-dasharray:5.0,5.0;" x1="897.5" x2="897.5" y1="88.2969" y2="356.4922"/><text fill="#000000" font-family="sans-serif" font-size="14" lengthAdjust="spacing" textLength="68" x="5" y="84.9951">Utilizador</text><ellipse cx="42" cy="15" fill="#FEFECE" filter="url(#f130ptx75kcjt6)" rx="8" ry="8" style="stroke:#A80036;stroke-width:2.0;"/><path d="M42,23 L42,50 M29,31 L55,31 M42,50 L29,65 M42,50 L55,65 " fill="none" filter="url(#f130ptx75kcjt6)" style="stroke:#A80036;stroke-width:2.0;"/><text fill="#000000" font-family="sans-serif" font-size="14" lengthAdjust="spacing" textLength="68" x="5" y="368.4873">Utilizador</text><ellipse cx="42" cy="381.7891" fill="#FEFECE" filter="url(#f130ptx75kcjt6)" rx="8" ry="8" style="stroke:#A80036;stroke-width:2.0;"/><path d="M42,389.7891 L42,416.7891 M29,397.7891 L55,397.7891 M42,416.7891 L29,431.7891 M42,416.7891 L55,431.7891 " fill="none" filter="url(#f130ptx75kcjt6)" style="stroke:#A80036;stroke-width:2.0;"/><rect fill="#FEFECE" filter="url(#f130ptx75kcjt6)" height="30.2969" style="stroke:#A80036;stroke-width:1.5;" width="158" x="162" y="53"/><text fill="#000000" font-family="sans-serif" font-size="14" lengthAdjust="spacing" textLength="144" x="169" y="72.9951">:app/TransacaoView</text><rect fill="#FEFECE" filter="url(#f130ptx75kcjt6)" height="30.2969" style="stroke:#A80036;stroke-width:1.5;" width="158" x="162" y="355.4922"/><text fill="#000000" font-family="sans-serif" font-size="14" lengthAdjust="spacing" textLength="144" x="169" y="375.4873">:app/TransacaoView</text><rect fill="#FEFECE" filter="url(#f130ptx75kcjt6)" height="30.2969" style="stroke:#A80036;stroke-width:1.5;" width="197" x="355.5" y="53"/><text fill="#000000" font-family="sans-serif" font-size="14" lengthAdjust="spacing" textLength="183" x="362.5" y="72.9951">:app/TransacaoController</text><rect fill="#FEFECE" filter="url(#f130ptx75kcjt6)" height="30.2969" style="stroke:#A80036;stroke-width:1.5;" width="197" x="355.5" y="355.4922"/><text fill="#000000" font-family="sans-serif" font-size="14" lengthAdjust="spacing" textLength="183" x="362.5" y="375.4873">:app/TransacaoController</text><rect fill="#FEFECE" filter="url(#f130ptx75kcjt6)" height="30.2969" style="stroke:#A80036;stroke-width:1.5;" width="177" x="616.5" y="53"/><text fill="#000000" font-family="sans-serif" font-size="14" lengthAdjust="spacing" textLength="163" x="623.5" y="72.9951">:app/TransacaoService</text><rect fill="#FEFECE" filter="url(#f130ptx75kcjt6)" height="30.2969" style="stroke:#A80036;stroke-width:1.5;" width="177" x="616.5" y="355.4922"/><text fill="#000000" font-family="sans-serif" font-size="14" lengthAdjust="spacing" textLength="163" x="623.5" y="375.4873">:app/TransacaoService</text><rect fill="#FEFECE" filter="url(#f130ptx75kcjt6)" height="30.2969" style="stroke:#A80036;stroke-width:1.5;" width="153" x="819.5" y="53"/><text fill="#000000" font-family="sans-serif" font-size="14" lengthAdjust="spacing" textLength="139" x="826.5" y="72.9951">API.SistemaCentral</text><rect fill="#FEFECE" filter="url(#f130ptx75kcjt6)" height="30.2969" style="stroke:#A80036;stroke-width:1.5;" width="153" x="819.5" y="355.4922"/><text fill="#000000" font-family="sans-serif" font-size="14" lengthAdjust="spacing" textLength="139" x="826.5" y="375.4873">API.SistemaCentral</text><rect fill="#FFFFFF" filter="url(#f130ptx75kcjt6)" height="240.1953" style="stroke:#A80036;stroke-width:1.0;" width="10" x="37" y="98.2969"/><rect fill="#FFFFFF" filter="url(#f130ptx75kcjt6)" height="219.0625" style="stroke:#A80036;stroke-width:1.0;" width="10" x="238" y="119.4297"/><rect fill="#FFFFFF" filter="url(#f130ptx75kcjt6)" height="145.6641" style="stroke:#A80036;stroke-width:1.0;" width="10" x="451" y="148.5625"/><rect fill="#FFFFFF" filter="url(#f130ptx75kcjt6)" height="87.3984" style="stroke:#A80036;stroke-width:1.0;" width="10" x="702" y="177.6953"/><rect fill="#FFFFFF" filter="url(#f130ptx75kcjt6)" height="29.1328" style="stroke:#A80036;stroke-width:1.0;" width="10" x="893" y="206.8281"/><polygon fill="#A80036" points="226,115.4297,236,119.4297,226,123.4297,230,119.4297" style="stroke:#A80036;stroke-width:1.0;"/><line style="stroke:#A80036;stroke-width:1.0;stroke-dasharray:2.0,2.0;" x1="47" x2="232" y1="119.4297" y2="119.4297"/><text fill="#000000" font-family="sans-serif" font-size="13" font-weight="bold" lengthAdjust="spacing" textLength="9" x="54" y="114.3638">1</text><text fill="#000000" font-family="sans-serif" font-size="13" lengthAdjust="spacing" textLength="102" x="67" y="114.3638">Inicia a consulta</text><polygon fill="#A80036" points="439,144.5625,449,148.5625,439,152.5625,443,148.5625" style="stroke:#A80036;stroke-width:1.0;"/><line style="stroke:#A80036;stroke-width:1.0;stroke-dasharray:2.0,2.0;" x1="248" x2="445" y1="148.5625" y2="148.5625"/><text fill="#000000" font-family="sans-serif" font-size="13" font-weight="bold" lengthAdjust="spacing" textLength="9" x="255" y="143.4966">2</text><text fill="#000000" font-family="sans-serif" font-size="13" lengthAdjust="spacing" textLength="171" x="268" y="143.4966">GetAllTransacoesByNif(nif)</text><polygon fill="#A80036" points="690,173.6953,700,177.6953,690,181.6953,694,177.6953" style="stroke:#A80036;stroke-width:1.0;"/><line style="stroke:#A80036;stroke-width:1.0;stroke-dasharray:2.0,2.0;" x1="461" x2="696" y1="177.6953" y2="177.6953"/><text fill="#000000" font-family="sans-serif" font-size="13" font-weight="bold" lengthAdjust="spacing" textLength="8" x="468" y="172.6294">3</text><text fill="#000000" font-family="sans-serif" font-size="13" lengthAdjust="spacing" textLength="210" x="480" y="172.6294">GetAllTransacoesByNifAsync(nif)</text><polygon fill="#A80036" points="881,202.8281,891,206.8281,881,210.8281,885,206.8281" style="stroke:#A80036;stroke-width:1.0;"/><line style="stroke:#A80036;stroke-width:1.0;stroke-dasharray:2.0,2.0;" x1="712" x2="887" y1="206.8281" y2="206.8281"/><text fill="#000000" font-family="sans-serif" font-size="13" font-weight="bold" lengthAdjust="spacing" textLength="9" x="719" y="201.7622">4</text><text fill="#000000" font-family="sans-serif" font-size="13" lengthAdjust="spacing" textLength="149" x="732" y="201.7622">GetTransacaoByNif(nif)</text><polygon fill="#A80036" points="723,231.9609,713,235.9609,723,239.9609,719,235.9609" style="stroke:#A80036;stroke-width:1.0;"/><line style="stroke:#A80036;stroke-width:1.0;stroke-dasharray:2.0,2.0;" x1="717" x2="897" y1="235.9609" y2="235.9609"/><text fill="#000000" font-family="sans-serif" font-size="13" font-weight="bold" lengthAdjust="spacing" textLength="9" x="729" y="230.895">5</text><text fill="#000000" font-family="sans-serif" font-size="13" lengthAdjust="spacing" textLength="143" x="742" y="230.895">return listaTransacoes</text><polygon fill="#A80036" points="472,261.0938,462,265.0938,472,269.0938,468,265.0938" style="stroke:#A80036;stroke-width:1.0;"/><line style="stroke:#A80036;stroke-width:1.0;stroke-dasharray:2.0,2.0;" x1="466" x2="706" y1="265.0938" y2="265.0938"/><text fill="#000000" font-family="sans-serif" font-size="13" font-weight="bold" lengthAdjust="spacing" textLength="9" x="478" y="260.0278">6</text><text fill="#000000" font-family="sans-serif" font-size="13" lengthAdjust="spacing" textLength="143" x="491" y="260.0278">return listaTransacoes</text><polygon fill="#A80036" points="259,290.2266,249,294.2266,259,298.2266,255,294.2266" style="stroke:#A80036;stroke-width:1.0;"/><line style="stroke:#A80036;stroke-width:1.0;stroke-dasharray:2.0,2.0;" x1="253" x2="455" y1="294.2266" y2="294.2266"/><text fill="#000000" font-family="sans-serif" font-size="13" font-weight="bold" lengthAdjust="spacing" textLength="9" x="265" y="289.1606">7</text><text fill="#000000" font-family="sans-serif" font-size="13" lengthAdjust="spacing" textLength="143" x="278" y="289.1606">return listaTransacoes</text><polygon fill="#A80036" points="53,334.4922,43,338.4922,53,342.4922,49,338.4922" style="stroke:#A80036;stroke-width:1.0;"/><line style="stroke:#A80036;stroke-width:1.0;stroke-dasharray:2.0,2.0;" x1="47" x2="242" y1="338.4922" y2="338.4922"/><text fill="#000000" font-family="sans-serif" font-size="13" font-weight="bold" lengthAdjust="spacing" textLength="9" x="59" y="325.8599">8</text><text fill="#000000" font-family="sans-serif" font-size="13" lengthAdjust="spacing" textLength="143" x="72" y="318.2935">return listaTransacoes</text><text fill="#000000" font-family="sans-serif" font-size="13" lengthAdjust="spacing" textLength="154" x="72" y="333.4263">operacao bem sucedida</text><!--MD5=[b813cd43d8a53179cb8aa919fbd9a49c]
@startuml
autonumber
actor "Utilizador" as U
participant ":app/TransacaoView" as TV
participant ":app/TransacaoController" as TC
participant ":app/TransacaoService" as TS
participant "API.SistemaCentral" as API

activate U

U - -> TV: Inicia a consulta
activate TV

TV - -> TC: GetAllTransacoesByNif(nif)
activate TC

TC - -> TS: GetAllTransacoesByNifAsync(nif)
activate TS

TS - -> API: GetTransacaoByNif(nif)
activate API

API - -> TS:return listaTransacoes
deactivate API

TS - -> TC: return listaTransacoes
deactivate TS

TC - -> TV: return listaTransacoes
deactivate TC

TV - -> U: return listaTransacoes\noperacao bem sucedida
deactivate TV

deactivate U
@enduml

PlantUML version 1.2021.2beta9(Unknown compile time)
(GPL source distribution)
Java Runtime: Java(TM) SE Runtime Environment
JVM: Java HotSpot(TM) 64-Bit Server VM
Default Encoding: UTF-8
Language: en
Country: US
--></g></svg>