<?xml version="1.0" encoding="UTF-8" standalone="no"?><svg xmlns="http://www.w3.org/2000/svg" xmlns:xlink="http://www.w3.org/1999/xlink" contentScriptType="application/ecmascript" contentStyleType="text/css" height="396px" preserveAspectRatio="none" style="width:1011px;height:396px;" version="1.1" viewBox="0 0 1011 396" width="1011px" zoomAndPan="magnify"><defs><filter height="300%" id="f1orszt7g3q083" width="300%" x="-1" y="-1"><feGaussianBlur result="blurOut" stdDeviation="2.0"/><feColorMatrix in="blurOut" result="blurOut2" type="matrix" values="0 0 0 0 0 0 0 0 0 0 0 0 0 0 0 0 0 0 .4 0"/><feOffset dx="4.0" dy="4.0" in="blurOut2" result="blurOut3"/><feBlend in="SourceGraphic" in2="blurOut3" mode="normal"/></filter></defs><g><rect fill="#FFFFFF" filter="url(#f1orszt7g3q083)" height="195.9297" style="stroke:#A80036;stroke-width:1.0;" width="10" x="37" y="98.2969"/><rect fill="#FFFFFF" filter="url(#f1orszt7g3q083)" height="145.6641" style="stroke:#A80036;stroke-width:1.0;" width="10" x="460.5" y="119.4297"/><rect fill="#FFFFFF" filter="url(#f1orszt7g3q083)" height="87.3984" style="stroke:#A80036;stroke-width:1.0;" width="10" x="696.5" y="148.5625"/><rect fill="#FFFFFF" filter="url(#f1orszt7g3q083)" height="29.1328" style="stroke:#A80036;stroke-width:1.0;" width="10" x="917.5" y="177.6953"/><line style="stroke:#A80036;stroke-width:1.0;stroke-dasharray:5.0,5.0;" x1="42" x2="42" y1="88.2969" y2="312.2266"/><line style="stroke:#A80036;stroke-width:1.0;stroke-dasharray:5.0,5.0;" x1="238" x2="238" y1="88.2969" y2="312.2266"/><line style="stroke:#A80036;stroke-width:1.0;stroke-dasharray:5.0,5.0;" x1="465" x2="465" y1="88.2969" y2="312.2266"/><line style="stroke:#A80036;stroke-width:1.0;stroke-dasharray:5.0,5.0;" x1="701" x2="701" y1="88.2969" y2="312.2266"/><line style="stroke:#A80036;stroke-width:1.0;stroke-dasharray:5.0,5.0;" x1="922" x2="922" y1="88.2969" y2="312.2266"/><text fill="#000000" font-family="sans-serif" font-size="14" lengthAdjust="spacing" textLength="68" x="5" y="84.9951">Utilizador</text><ellipse cx="42" cy="15" fill="#FEFECE" filter="url(#f1orszt7g3q083)" rx="8" ry="8" style="stroke:#A80036;stroke-width:2.0;"/><path d="M42,23 L42,50 M29,31 L55,31 M42,50 L29,65 M42,50 L55,65 " fill="none" filter="url(#f1orszt7g3q083)" style="stroke:#A80036;stroke-width:2.0;"/><text fill="#000000" font-family="sans-serif" font-size="14" lengthAdjust="spacing" textLength="68" x="5" y="324.2217">Utilizador</text><ellipse cx="42" cy="337.5234" fill="#FEFECE" filter="url(#f1orszt7g3q083)" rx="8" ry="8" style="stroke:#A80036;stroke-width:2.0;"/><path d="M42,345.5234 L42,372.5234 M29,353.5234 L55,353.5234 M42,372.5234 L29,387.5234 M42,372.5234 L55,387.5234 " fill="none" filter="url(#f1orszt7g3q083)" style="stroke:#A80036;stroke-width:2.0;"/><rect fill="#FEFECE" filter="url(#f1orszt7g3q083)" height="30.2969" style="stroke:#A80036;stroke-width:1.5;" width="222" x="125" y="53"/><text fill="#000000" font-family="sans-serif" font-size="14" lengthAdjust="spacing" textLength="208" x="132" y="72.9951">:app/Views/Transacoes/Index</text><rect fill="#FEFECE" filter="url(#f1orszt7g3q083)" height="30.2969" style="stroke:#A80036;stroke-width:1.5;" width="222" x="125" y="311.2266"/><text fill="#000000" font-family="sans-serif" font-size="14" lengthAdjust="spacing" textLength="208" x="132" y="331.2217">:app/Views/Transacoes/Index</text><rect fill="#FEFECE" filter="url(#f1orszt7g3q083)" height="30.2969" style="stroke:#A80036;stroke-width:1.5;" width="205" x="361" y="53"/><text fill="#000000" font-family="sans-serif" font-size="14" lengthAdjust="spacing" textLength="191" x="368" y="72.9951">:app/TransacoesController</text><rect fill="#FEFECE" filter="url(#f1orszt7g3q083)" height="30.2969" style="stroke:#A80036;stroke-width:1.5;" width="205" x="361" y="311.2266"/><text fill="#000000" font-family="sans-serif" font-size="14" lengthAdjust="spacing" textLength="191" x="368" y="331.2217">:app/TransacoesController</text><rect fill="#FEFECE" filter="url(#f1orszt7g3q083)" height="30.2969" style="stroke:#A80036;stroke-width:1.5;" width="177" x="611" y="53"/><text fill="#000000" font-family="sans-serif" font-size="14" lengthAdjust="spacing" textLength="163" x="618" y="72.9951">:app/TransacaoService</text><rect fill="#FEFECE" filter="url(#f1orszt7g3q083)" height="30.2969" style="stroke:#A80036;stroke-width:1.5;" width="177" x="611" y="311.2266"/><text fill="#000000" font-family="sans-serif" font-size="14" lengthAdjust="spacing" textLength="163" x="618" y="331.2217">:app/TransacaoService</text><rect fill="#FEFECE" filter="url(#f1orszt7g3q083)" height="30.2969" style="stroke:#A80036;stroke-width:1.5;" width="153" x="844" y="53"/><text fill="#000000" font-family="sans-serif" font-size="14" lengthAdjust="spacing" textLength="139" x="851" y="72.9951">API:SistemaCentral</text><rect fill="#FEFECE" filter="url(#f1orszt7g3q083)" height="30.2969" style="stroke:#A80036;stroke-width:1.5;" width="153" x="844" y="311.2266"/><text fill="#000000" font-family="sans-serif" font-size="14" lengthAdjust="spacing" textLength="139" x="851" y="331.2217">API:SistemaCentral</text><rect fill="#FFFFFF" filter="url(#f1orszt7g3q083)" height="195.9297" style="stroke:#A80036;stroke-width:1.0;" width="10" x="37" y="98.2969"/><rect fill="#FFFFFF" filter="url(#f1orszt7g3q083)" height="145.6641" style="stroke:#A80036;stroke-width:1.0;" width="10" x="460.5" y="119.4297"/><rect fill="#FFFFFF" filter="url(#f1orszt7g3q083)" height="87.3984" style="stroke:#A80036;stroke-width:1.0;" width="10" x="696.5" y="148.5625"/><rect fill="#FFFFFF" filter="url(#f1orszt7g3q083)" height="29.1328" style="stroke:#A80036;stroke-width:1.0;" width="10" x="917.5" y="177.6953"/><polygon fill="#A80036" points="448.5,115.4297,458.5,119.4297,448.5,123.4297,452.5,119.4297" style="stroke:#A80036;stroke-width:1.0;"/><line style="stroke:#A80036;stroke-width:1.0;stroke-dasharray:2.0,2.0;" x1="47" x2="454.5" y1="119.4297" y2="119.4297"/><text fill="#000000" font-family="sans-serif" font-size="13" font-weight="bold" lengthAdjust="spacing" textLength="9" x="54" y="114.3638">1</text><text fill="#000000" font-family="sans-serif" font-size="13" lengthAdjust="spacing" textLength="102" x="67" y="114.3638">inicia a consulta</text><polygon fill="#A80036" points="684.5,144.5625,694.5,148.5625,684.5,152.5625,688.5,148.5625" style="stroke:#A80036;stroke-width:1.0;"/><line style="stroke:#A80036;stroke-width:1.0;stroke-dasharray:2.0,2.0;" x1="470.5" x2="690.5" y1="148.5625" y2="148.5625"/><text fill="#000000" font-family="sans-serif" font-size="13" font-weight="bold" lengthAdjust="spacing" textLength="9" x="477.5" y="143.4966">2</text><text fill="#000000" font-family="sans-serif" font-size="13" lengthAdjust="spacing" textLength="194" x="490.5" y="143.4966">GetAllTransacoesByNifAsync()</text><polygon fill="#A80036" points="905.5,173.6953,915.5,177.6953,905.5,181.6953,909.5,177.6953" style="stroke:#A80036;stroke-width:1.0;"/><line style="stroke:#A80036;stroke-width:1.0;stroke-dasharray:2.0,2.0;" x1="706.5" x2="911.5" y1="177.6953" y2="177.6953"/><text fill="#000000" font-family="sans-serif" font-size="13" font-weight="bold" lengthAdjust="spacing" textLength="8" x="713.5" y="172.6294">3</text><text fill="#000000" font-family="sans-serif" font-size="13" lengthAdjust="spacing" textLength="88" x="725.5" y="172.6294">GetAsync(nif)</text><polygon fill="#A80036" points="717.5,202.8281,707.5,206.8281,717.5,210.8281,713.5,206.8281" style="stroke:#A80036;stroke-width:1.0;"/><line style="stroke:#A80036;stroke-width:1.0;stroke-dasharray:2.0,2.0;" x1="711.5" x2="921.5" y1="206.8281" y2="206.8281"/><text fill="#000000" font-family="sans-serif" font-size="13" font-weight="bold" lengthAdjust="spacing" textLength="9" x="723.5" y="201.7622">4</text><text fill="#000000" font-family="sans-serif" font-size="13" lengthAdjust="spacing" textLength="174" x="736.5" y="201.7622">return(lista TransacaoDTO)</text><polygon fill="#A80036" points="481.5,231.9609,471.5,235.9609,481.5,239.9609,477.5,235.9609" style="stroke:#A80036;stroke-width:1.0;"/><line style="stroke:#A80036;stroke-width:1.0;stroke-dasharray:2.0,2.0;" x1="475.5" x2="700.5" y1="235.9609" y2="235.9609"/><text fill="#000000" font-family="sans-serif" font-size="13" font-weight="bold" lengthAdjust="spacing" textLength="9" x="487.5" y="230.895">5</text><text fill="#000000" font-family="sans-serif" font-size="13" lengthAdjust="spacing" textLength="174" x="500.5" y="230.895">return(lista TransacaoDTO)</text><polygon fill="#A80036" points="249,261.0938,239,265.0938,249,269.0938,245,265.0938" style="stroke:#A80036;stroke-width:1.0;"/><line style="stroke:#A80036;stroke-width:1.0;stroke-dasharray:2.0,2.0;" x1="243" x2="464.5" y1="265.0938" y2="265.0938"/><text fill="#000000" font-family="sans-serif" font-size="13" font-weight="bold" lengthAdjust="spacing" textLength="9" x="255" y="260.0278">6</text><text fill="#000000" font-family="sans-serif" font-size="13" lengthAdjust="spacing" textLength="110" x="268" y="260.0278">return View(lista)</text><polygon fill="#A80036" points="53,290.2266,43,294.2266,53,298.2266,49,294.2266" style="stroke:#A80036;stroke-width:1.0;"/><line style="stroke:#A80036;stroke-width:1.0;stroke-dasharray:2.0,2.0;" x1="47" x2="237" y1="294.2266" y2="294.2266"/><text fill="#000000" font-family="sans-serif" font-size="13" font-weight="bold" lengthAdjust="spacing" textLength="9" x="59" y="289.1606">7</text><text fill="#000000" font-family="sans-serif" font-size="13" lengthAdjust="spacing" textLength="154" x="72" y="289.1606">operacao bem sucedida</text><!--MD5=[352ce7b22e7a995bca63b4499755b284]
@startuml
autonumber
actor "Utilizador" as U
participant ":app/Views/Transacoes/Index" as TV
participant ":app/TransacoesController" as TC
participant ":app/TransacaoService" as TS
participant "API:SistemaCentral" as API

activate U

U - -> TC: inicia a consulta
activate TC

TC - -> TS: GetAllTransacoesByNifAsync()
activate TS

TS - -> API: GetAsync(nif)
activate API

API - -> TS: return(lista TransacaoDTO)
deactivate API

TS - -> TC: return(lista TransacaoDTO)
deactivate TS

TC - -> TV: return View(lista)
deactivate TC

TV - -> U: operacao bem sucedida
deactivate TV

deactivate U
@enduml

PlantUML version 1.2021.2beta9(Unknown compile time)
(GPL source distribution)
Java Runtime: Java(TM) SE Runtime Environment
JVM: Java HotSpot(TM) 64-Bit Server VM
Default Encoding: UTF-8
Language: en
Country: US
--></g></svg>