<?xml version="1.0" encoding="UTF-8" standalone="no"?><svg xmlns="http://www.w3.org/2000/svg" xmlns:xlink="http://www.w3.org/1999/xlink" contentScriptType="application/ecmascript" contentStyleType="text/css" height="440px" preserveAspectRatio="none" style="width:870px;height:440px;" version="1.1" viewBox="0 0 870 440" width="870px" zoomAndPan="magnify"><defs><filter height="300%" id="fgjlfccdwzftr" width="300%" x="-1" y="-1"><feGaussianBlur result="blurOut" stdDeviation="2.0"/><feColorMatrix in="blurOut" result="blurOut2" type="matrix" values="0 0 0 0 0 0 0 0 0 0 0 0 0 0 0 0 0 0 .4 0"/><feOffset dx="4.0" dy="4.0" in="blurOut2" result="blurOut3"/><feBlend in="SourceGraphic" in2="blurOut3" mode="normal"/></filter></defs><g><rect fill="#FFFFFF" filter="url(#fgjlfccdwzftr)" height="240.1953" style="stroke:#A80036;stroke-width:1.0;" width="10" x="37" y="98.2969"/><rect fill="#FFFFFF" filter="url(#fgjlfccdwzftr)" height="219.0625" style="stroke:#A80036;stroke-width:1.0;" width="10" x="238" y="119.4297"/><rect fill="#FFFFFF" filter="url(#fgjlfccdwzftr)" height="145.6641" style="stroke:#A80036;stroke-width:1.0;" width="10" x="414.5" y="148.5625"/><rect fill="#FFFFFF" filter="url(#fgjlfccdwzftr)" height="87.3984" style="stroke:#A80036;stroke-width:1.0;" width="10" x="600.5" y="177.6953"/><rect fill="#FFFFFF" filter="url(#fgjlfccdwzftr)" height="29.1328" style="stroke:#A80036;stroke-width:1.0;" width="10" x="774.5" y="206.8281"/><line style="stroke:#A80036;stroke-width:1.0;stroke-dasharray:5.0,5.0;" x1="42" x2="42" y1="88.2969" y2="356.4922"/><line style="stroke:#A80036;stroke-width:1.0;stroke-dasharray:5.0,5.0;" x1="242.5" x2="242.5" y1="88.2969" y2="356.4922"/><line style="stroke:#A80036;stroke-width:1.0;stroke-dasharray:5.0,5.0;" x1="419.5" x2="419.5" y1="88.2969" y2="356.4922"/><line style="stroke:#A80036;stroke-width:1.0;stroke-dasharray:5.0,5.0;" x1="605.5" x2="605.5" y1="88.2969" y2="356.4922"/><line style="stroke:#A80036;stroke-width:1.0;stroke-dasharray:5.0,5.0;" x1="779.5" x2="779.5" y1="88.2969" y2="356.4922"/><text fill="#000000" font-family="sans-serif" font-size="14" lengthAdjust="spacing" textLength="68" x="5" y="84.9951">Utilizador</text><ellipse cx="42" cy="15" fill="#FEFECE" filter="url(#fgjlfccdwzftr)" rx="8" ry="8" style="stroke:#A80036;stroke-width:2.0;"/><path d="M42,23 L42,50 M29,31 L55,31 M42,50 L29,65 M42,50 L55,65 " fill="none" filter="url(#fgjlfccdwzftr)" style="stroke:#A80036;stroke-width:2.0;"/><text fill="#000000" font-family="sans-serif" font-size="14" lengthAdjust="spacing" textLength="68" x="5" y="368.4873">Utilizador</text><ellipse cx="42" cy="381.7891" fill="#FEFECE" filter="url(#fgjlfccdwzftr)" rx="8" ry="8" style="stroke:#A80036;stroke-width:2.0;"/><path d="M42,389.7891 L42,416.7891 M29,397.7891 L55,397.7891 M42,416.7891 L29,431.7891 M42,416.7891 L55,431.7891 " fill="none" filter="url(#fgjlfccdwzftr)" style="stroke:#A80036;stroke-width:2.0;"/><rect fill="#FEFECE" filter="url(#fgjlfccdwzftr)" height="30.2969" style="stroke:#A80036;stroke-width:1.5;" width="143" x="169.5" y="53"/><text fill="#000000" font-family="sans-serif" font-size="14" lengthAdjust="spacing" textLength="129" x="176.5" y="72.9951">:app/ReservaView</text><rect fill="#FEFECE" filter="url(#fgjlfccdwzftr)" height="30.2969" style="stroke:#A80036;stroke-width:1.5;" width="143" x="169.5" y="355.4922"/><text fill="#000000" font-family="sans-serif" font-size="14" lengthAdjust="spacing" textLength="129" x="176.5" y="375.4873">:app/ReservaView</text><rect fill="#FEFECE" filter="url(#fgjlfccdwzftr)" height="30.2969" style="stroke:#A80036;stroke-width:1.5;" width="182" x="326.5" y="53"/><text fill="#000000" font-family="sans-serif" font-size="14" lengthAdjust="spacing" textLength="168" x="333.5" y="72.9951">:app/ReservaController</text><rect fill="#FEFECE" filter="url(#fgjlfccdwzftr)" height="30.2969" style="stroke:#A80036;stroke-width:1.5;" width="182" x="326.5" y="355.4922"/><text fill="#000000" font-family="sans-serif" font-size="14" lengthAdjust="spacing" textLength="168" x="333.5" y="375.4873">:app/ReservaController</text><rect fill="#FEFECE" filter="url(#fgjlfccdwzftr)" height="30.2969" style="stroke:#A80036;stroke-width:1.5;" width="162" x="522.5" y="53"/><text fill="#000000" font-family="sans-serif" font-size="14" lengthAdjust="spacing" textLength="148" x="529.5" y="72.9951">:app/ReservaService</text><rect fill="#FEFECE" filter="url(#fgjlfccdwzftr)" height="30.2969" style="stroke:#A80036;stroke-width:1.5;" width="162" x="522.5" y="355.4922"/><text fill="#000000" font-family="sans-serif" font-size="14" lengthAdjust="spacing" textLength="148" x="529.5" y="375.4873">:app/ReservaService</text><rect fill="#FEFECE" filter="url(#fgjlfccdwzftr)" height="30.2969" style="stroke:#A80036;stroke-width:1.5;" width="158" x="698.5" y="53"/><text fill="#000000" font-family="sans-serif" font-size="14" lengthAdjust="spacing" textLength="144" x="705.5" y="72.9951">app.SistemaCentral</text><rect fill="#FEFECE" filter="url(#fgjlfccdwzftr)" height="30.2969" style="stroke:#A80036;stroke-width:1.5;" width="158" x="698.5" y="355.4922"/><text fill="#000000" font-family="sans-serif" font-size="14" lengthAdjust="spacing" textLength="144" x="705.5" y="375.4873">app.SistemaCentral</text><rect fill="#FFFFFF" filter="url(#fgjlfccdwzftr)" height="240.1953" style="stroke:#A80036;stroke-width:1.0;" width="10" x="37" y="98.2969"/><rect fill="#FFFFFF" filter="url(#fgjlfccdwzftr)" height="219.0625" style="stroke:#A80036;stroke-width:1.0;" width="10" x="238" y="119.4297"/><rect fill="#FFFFFF" filter="url(#fgjlfccdwzftr)" height="145.6641" style="stroke:#A80036;stroke-width:1.0;" width="10" x="414.5" y="148.5625"/><rect fill="#FFFFFF" filter="url(#fgjlfccdwzftr)" height="87.3984" style="stroke:#A80036;stroke-width:1.0;" width="10" x="600.5" y="177.6953"/><rect fill="#FFFFFF" filter="url(#fgjlfccdwzftr)" height="29.1328" style="stroke:#A80036;stroke-width:1.0;" width="10" x="774.5" y="206.8281"/><polygon fill="#A80036" points="226,115.4297,236,119.4297,226,123.4297,230,119.4297" style="stroke:#A80036;stroke-width:1.0;"/><line style="stroke:#A80036;stroke-width:1.0;stroke-dasharray:2.0,2.0;" x1="47" x2="232" y1="119.4297" y2="119.4297"/><text fill="#000000" font-family="sans-serif" font-size="13" font-weight="bold" lengthAdjust="spacing" textLength="9" x="54" y="114.3638">1</text><text fill="#000000" font-family="sans-serif" font-size="13" lengthAdjust="spacing" textLength="139" x="67" y="114.3638">Inicia o cancelamento</text><polygon fill="#A80036" points="402.5,144.5625,412.5,148.5625,402.5,152.5625,406.5,148.5625" style="stroke:#A80036;stroke-width:1.0;"/><line style="stroke:#A80036;stroke-width:1.0;stroke-dasharray:2.0,2.0;" x1="248" x2="408.5" y1="148.5625" y2="148.5625"/><text fill="#000000" font-family="sans-serif" font-size="13" font-weight="bold" lengthAdjust="spacing" textLength="9" x="255" y="143.4966">2</text><text fill="#000000" font-family="sans-serif" font-size="13" lengthAdjust="spacing" textLength="116" x="268" y="143.4966">DeleteReserva(id)</text><polygon fill="#A80036" points="588.5,173.6953,598.5,177.6953,588.5,181.6953,592.5,177.6953" style="stroke:#A80036;stroke-width:1.0;"/><line style="stroke:#A80036;stroke-width:1.0;stroke-dasharray:2.0,2.0;" x1="424.5" x2="594.5" y1="177.6953" y2="177.6953"/><text fill="#000000" font-family="sans-serif" font-size="13" font-weight="bold" lengthAdjust="spacing" textLength="8" x="431.5" y="172.6294">3</text><text fill="#000000" font-family="sans-serif" font-size="13" lengthAdjust="spacing" textLength="102" x="443.5" y="172.6294">DeleteAsync(id)</text><polygon fill="#A80036" points="762.5,202.8281,772.5,206.8281,762.5,210.8281,766.5,206.8281" style="stroke:#A80036;stroke-width:1.0;"/><line style="stroke:#A80036;stroke-width:1.0;stroke-dasharray:2.0,2.0;" x1="610.5" x2="768.5" y1="206.8281" y2="206.8281"/><text fill="#000000" font-family="sans-serif" font-size="13" font-weight="bold" lengthAdjust="spacing" textLength="9" x="617.5" y="201.7622">4</text><text fill="#000000" font-family="sans-serif" font-size="13" lengthAdjust="spacing" textLength="116" x="630.5" y="201.7622">DeleteReserva(id)</text><polygon fill="#A80036" points="621.5,231.9609,611.5,235.9609,621.5,239.9609,617.5,235.9609" style="stroke:#A80036;stroke-width:1.0;"/><line style="stroke:#A80036;stroke-width:1.0;stroke-dasharray:2.0,2.0;" x1="615.5" x2="778.5" y1="235.9609" y2="235.9609"/><text fill="#000000" font-family="sans-serif" font-size="13" font-weight="bold" lengthAdjust="spacing" textLength="9" x="627.5" y="230.895">5</text><text fill="#000000" font-family="sans-serif" font-size="13" lengthAdjust="spacing" textLength="72" x="640.5" y="230.895">No Content</text><polygon fill="#A80036" points="435.5,261.0938,425.5,265.0938,435.5,269.0938,431.5,265.0938" style="stroke:#A80036;stroke-width:1.0;"/><line style="stroke:#A80036;stroke-width:1.0;stroke-dasharray:2.0,2.0;" x1="429.5" x2="604.5" y1="265.0938" y2="265.0938"/><text fill="#000000" font-family="sans-serif" font-size="13" font-weight="bold" lengthAdjust="spacing" textLength="9" x="441.5" y="260.0278">6</text><text fill="#000000" font-family="sans-serif" font-size="13" lengthAdjust="spacing" textLength="72" x="454.5" y="260.0278">No Content</text><polygon fill="#A80036" points="259,290.2266,249,294.2266,259,298.2266,255,294.2266" style="stroke:#A80036;stroke-width:1.0;"/><line style="stroke:#A80036;stroke-width:1.0;stroke-dasharray:2.0,2.0;" x1="253" x2="418.5" y1="294.2266" y2="294.2266"/><text fill="#000000" font-family="sans-serif" font-size="13" font-weight="bold" lengthAdjust="spacing" textLength="9" x="265" y="289.1606">7</text><text fill="#000000" font-family="sans-serif" font-size="13" lengthAdjust="spacing" textLength="72" x="278" y="289.1606">No Content</text><polygon fill="#A80036" points="53,334.4922,43,338.4922,53,342.4922,49,338.4922" style="stroke:#A80036;stroke-width:1.0;"/><line style="stroke:#A80036;stroke-width:1.0;stroke-dasharray:2.0,2.0;" x1="47" x2="242" y1="338.4922" y2="338.4922"/><text fill="#000000" font-family="sans-serif" font-size="13" font-weight="bold" lengthAdjust="spacing" textLength="9" x="59" y="325.8599">8</text><text fill="#000000" font-family="sans-serif" font-size="13" lengthAdjust="spacing" textLength="72" x="72" y="318.2935">No Content</text><text fill="#000000" font-family="sans-serif" font-size="13" lengthAdjust="spacing" textLength="154" x="72" y="333.4263">operacao bem sucedida</text><!--MD5=[ebff785777741b4f9d24f493c4df7022]
@startuml
autonumber
actor "Utilizador" as U
participant ":app/ReservaView" as RV
participant ":app/ReservaController" as RC
participant ":app/ReservaService" as RS
participant "app.SistemaCentral" as API

activate U

U - -> RV: Inicia o cancelamento
activate RV

RV - -> RC: DeleteReserva(id)
activate RC

RC - -> RS: DeleteAsync(id)
activate RS

RS - -> API: DeleteReserva(id)
activate API

API - -> RS:No Content
deactivate API

RS - -> RC: No Content
deactivate RS

RC - -> RV: No Content
deactivate RC

RV - -> U: No Content\noperacao bem sucedida
deactivate RV

deactivate U
@enduml

PlantUML version 1.2021.2beta9(Unknown compile time)
(GPL source distribution)
Java Runtime: Java(TM) SE Runtime Environment
JVM: Java HotSpot(TM) 64-Bit Server VM
Default Encoding: UTF-8
Language: en
Country: US
--></g></svg>