<?xml version="1.0" encoding="UTF-8" standalone="no"?><svg xmlns="http://www.w3.org/2000/svg" xmlns:xlink="http://www.w3.org/1999/xlink" contentScriptType="application/ecmascript" contentStyleType="text/css" height="658px" preserveAspectRatio="none" style="width:1283px;height:658px;" version="1.1" viewBox="0 0 1283 658" width="1283px" zoomAndPan="magnify"><defs><filter height="300%" id="fkdoenz810jdj" width="300%" x="-1" y="-1"><feGaussianBlur result="blurOut" stdDeviation="2.0"/><feColorMatrix in="blurOut" result="blurOut2" type="matrix" values="0 0 0 0 0 0 0 0 0 0 0 0 0 0 0 0 0 0 .4 0"/><feOffset dx="4.0" dy="4.0" in="blurOut2" result="blurOut3"/><feBlend in="SourceGraphic" in2="blurOut3" mode="normal"/></filter></defs><g><rect fill="#FFFFFF" filter="url(#fkdoenz810jdj)" height="458.125" style="stroke:#A80036;stroke-width:1.0;" width="10" x="37" y="98.2969"/><rect fill="#FFFFFF" filter="url(#fkdoenz810jdj)" height="436.9922" style="stroke:#A80036;stroke-width:1.0;" width="10" x="247" y="119.4297"/><rect fill="#FFFFFF" filter="url(#fkdoenz810jdj)" height="87.3984" style="stroke:#A80036;stroke-width:1.0;" width="10" x="478.5" y="294.2266"/><rect fill="#FFFFFF" filter="url(#fkdoenz810jdj)" height="378.7266" style="stroke:#A80036;stroke-width:1.0;" width="10" x="735.5" y="148.5625"/><rect fill="#FFFFFF" filter="url(#fkdoenz810jdj)" height="87.3984" style="stroke:#A80036;stroke-width:1.0;" width="10" x="962.5" y="177.6953"/><rect fill="#FFFFFF" filter="url(#fkdoenz810jdj)" height="87.3984" style="stroke:#A80036;stroke-width:1.0;" width="10" x="962.5" y="410.7578"/><rect fill="#FFFFFF" filter="url(#fkdoenz810jdj)" height="29.1328" style="stroke:#A80036;stroke-width:1.0;" width="10" x="1189.5" y="206.8281"/><rect fill="#FFFFFF" filter="url(#fkdoenz810jdj)" height="29.1328" style="stroke:#A80036;stroke-width:1.0;" width="10" x="1189.5" y="439.8906"/><line style="stroke:#A80036;stroke-width:1.0;stroke-dasharray:5.0,5.0;" x1="42" x2="42" y1="88.2969" y2="574.4219"/><line style="stroke:#A80036;stroke-width:1.0;stroke-dasharray:5.0,5.0;" x1="252" x2="252" y1="88.2969" y2="574.4219"/><line style="stroke:#A80036;stroke-width:1.0;stroke-dasharray:5.0,5.0;" x1="483" x2="483" y1="88.2969" y2="574.4219"/><line style="stroke:#A80036;stroke-width:1.0;stroke-dasharray:5.0,5.0;" x1="740.5" x2="740.5" y1="88.2969" y2="574.4219"/><line style="stroke:#A80036;stroke-width:1.0;stroke-dasharray:5.0,5.0;" x1="967.5" x2="967.5" y1="88.2969" y2="574.4219"/><line style="stroke:#A80036;stroke-width:1.0;stroke-dasharray:5.0,5.0;" x1="1194" x2="1194" y1="88.2969" y2="574.4219"/><text fill="#000000" font-family="sans-serif" font-size="14" lengthAdjust="spacing" textLength="68" x="5" y="84.9951">Utilizador</text><ellipse cx="42" cy="15" fill="#FEFECE" filter="url(#fkdoenz810jdj)" rx="8" ry="8" style="stroke:#A80036;stroke-width:2.0;"/><path d="M42,23 L42,50 M29,31 L55,31 M42,50 L29,65 M42,50 L55,65 " fill="none" filter="url(#fkdoenz810jdj)" style="stroke:#A80036;stroke-width:2.0;"/><text fill="#000000" font-family="sans-serif" font-size="14" lengthAdjust="spacing" textLength="68" x="5" y="586.417">Utilizador</text><ellipse cx="42" cy="599.7188" fill="#FEFECE" filter="url(#fkdoenz810jdj)" rx="8" ry="8" style="stroke:#A80036;stroke-width:2.0;"/><path d="M42,607.7188 L42,634.7188 M29,615.7188 L55,615.7188 M42,634.7188 L29,649.7188 M42,634.7188 L55,649.7188 " fill="none" filter="url(#fkdoenz810jdj)" style="stroke:#A80036;stroke-width:2.0;"/><rect fill="#FEFECE" filter="url(#fkdoenz810jdj)" height="30.2969" style="stroke:#A80036;stroke-width:1.5;" width="206" x="147" y="53"/><text fill="#000000" font-family="sans-serif" font-size="14" lengthAdjust="spacing" textLength="192" x="154" y="72.9951">:app/Views/Reservas/Index</text><rect fill="#FEFECE" filter="url(#fkdoenz810jdj)" height="30.2969" style="stroke:#A80036;stroke-width:1.5;" width="206" x="147" y="573.4219"/><text fill="#000000" font-family="sans-serif" font-size="14" lengthAdjust="spacing" textLength="192" x="154" y="593.417">:app/Views/Reservas/Index</text><rect fill="#FEFECE" filter="url(#fkdoenz810jdj)" height="30.2969" style="stroke:#A80036;stroke-width:1.5;" width="229" x="367" y="53"/><text fill="#000000" font-family="sans-serif" font-size="14" lengthAdjust="spacing" textLength="215" x="374" y="72.9951">:app/Views/Reservas/Cancelar</text><rect fill="#FEFECE" filter="url(#fkdoenz810jdj)" height="30.2969" style="stroke:#A80036;stroke-width:1.5;" width="229" x="367" y="573.4219"/><text fill="#000000" font-family="sans-serif" font-size="14" lengthAdjust="spacing" textLength="215" x="374" y="593.417">:app/Views/Reservas/Cancelar</text><rect fill="#FEFECE" filter="url(#fkdoenz810jdj)" height="30.2969" style="stroke:#A80036;stroke-width:1.5;" width="182" x="647.5" y="53"/><text fill="#000000" font-family="sans-serif" font-size="14" lengthAdjust="spacing" textLength="168" x="654.5" y="72.9951">:app/ReservaController</text><rect fill="#FEFECE" filter="url(#fkdoenz810jdj)" height="30.2969" style="stroke:#A80036;stroke-width:1.5;" width="182" x="647.5" y="573.4219"/><text fill="#000000" font-family="sans-serif" font-size="14" lengthAdjust="spacing" textLength="168" x="654.5" y="593.417">:app/ReservaController</text><rect fill="#FEFECE" filter="url(#fkdoenz810jdj)" height="30.2969" style="stroke:#A80036;stroke-width:1.5;" width="162" x="884.5" y="53"/><text fill="#000000" font-family="sans-serif" font-size="14" lengthAdjust="spacing" textLength="148" x="891.5" y="72.9951">:app/ReservaService</text><rect fill="#FEFECE" filter="url(#fkdoenz810jdj)" height="30.2969" style="stroke:#A80036;stroke-width:1.5;" width="162" x="884.5" y="573.4219"/><text fill="#000000" font-family="sans-serif" font-size="14" lengthAdjust="spacing" textLength="148" x="891.5" y="593.417">:app/ReservaService</text><rect fill="#FEFECE" filter="url(#fkdoenz810jdj)" height="30.2969" style="stroke:#A80036;stroke-width:1.5;" width="153" x="1116" y="53"/><text fill="#000000" font-family="sans-serif" font-size="14" lengthAdjust="spacing" textLength="139" x="1123" y="72.9951">API:SistemaCentral</text><rect fill="#FEFECE" filter="url(#fkdoenz810jdj)" height="30.2969" style="stroke:#A80036;stroke-width:1.5;" width="153" x="1116" y="573.4219"/><text fill="#000000" font-family="sans-serif" font-size="14" lengthAdjust="spacing" textLength="139" x="1123" y="593.417">API:SistemaCentral</text><rect fill="#FFFFFF" filter="url(#fkdoenz810jdj)" height="458.125" style="stroke:#A80036;stroke-width:1.0;" width="10" x="37" y="98.2969"/><rect fill="#FFFFFF" filter="url(#fkdoenz810jdj)" height="436.9922" style="stroke:#A80036;stroke-width:1.0;" width="10" x="247" y="119.4297"/><rect fill="#FFFFFF" filter="url(#fkdoenz810jdj)" height="87.3984" style="stroke:#A80036;stroke-width:1.0;" width="10" x="478.5" y="294.2266"/><rect fill="#FFFFFF" filter="url(#fkdoenz810jdj)" height="378.7266" style="stroke:#A80036;stroke-width:1.0;" width="10" x="735.5" y="148.5625"/><rect fill="#FFFFFF" filter="url(#fkdoenz810jdj)" height="87.3984" style="stroke:#A80036;stroke-width:1.0;" width="10" x="962.5" y="177.6953"/><rect fill="#FFFFFF" filter="url(#fkdoenz810jdj)" height="87.3984" style="stroke:#A80036;stroke-width:1.0;" width="10" x="962.5" y="410.7578"/><rect fill="#FFFFFF" filter="url(#fkdoenz810jdj)" height="29.1328" style="stroke:#A80036;stroke-width:1.0;" width="10" x="1189.5" y="206.8281"/><rect fill="#FFFFFF" filter="url(#fkdoenz810jdj)" height="29.1328" style="stroke:#A80036;stroke-width:1.0;" width="10" x="1189.5" y="439.8906"/><polygon fill="#A80036" points="235,115.4297,245,119.4297,235,123.4297,239,119.4297" style="stroke:#A80036;stroke-width:1.0;"/><line style="stroke:#A80036;stroke-width:1.0;stroke-dasharray:2.0,2.0;" x1="47" x2="241" y1="119.4297" y2="119.4297"/><text fill="#000000" font-family="sans-serif" font-size="13" font-weight="bold" lengthAdjust="spacing" textLength="9" x="54" y="114.3638">1</text><text fill="#000000" font-family="sans-serif" font-size="13" lengthAdjust="spacing" textLength="139" x="67" y="114.3638">Inicia o cancelamento</text><polygon fill="#A80036" points="723.5,144.5625,733.5,148.5625,723.5,152.5625,727.5,148.5625" style="stroke:#A80036;stroke-width:1.0;"/><line style="stroke:#A80036;stroke-width:1.0;stroke-dasharray:2.0,2.0;" x1="257" x2="729.5" y1="148.5625" y2="148.5625"/><text fill="#000000" font-family="sans-serif" font-size="13" font-weight="bold" lengthAdjust="spacing" textLength="9" x="264" y="143.4966">2</text><text fill="#000000" font-family="sans-serif" font-size="13" lengthAdjust="spacing" textLength="77" x="277" y="143.4966">Cancelar(id)</text><polygon fill="#A80036" points="950.5,173.6953,960.5,177.6953,950.5,181.6953,954.5,177.6953" style="stroke:#A80036;stroke-width:1.0;"/><line style="stroke:#A80036;stroke-width:1.0;stroke-dasharray:2.0,2.0;" x1="745.5" x2="956.5" y1="177.6953" y2="177.6953"/><text fill="#000000" font-family="sans-serif" font-size="13" font-weight="bold" lengthAdjust="spacing" textLength="8" x="752.5" y="172.6294">3</text><text fill="#000000" font-family="sans-serif" font-size="13" lengthAdjust="spacing" textLength="110" x="764.5" y="172.6294">GetByIdAsync(id)</text><polygon fill="#A80036" points="1177.5,202.8281,1187.5,206.8281,1177.5,210.8281,1181.5,206.8281" style="stroke:#A80036;stroke-width:1.0;"/><line style="stroke:#A80036;stroke-width:1.0;stroke-dasharray:2.0,2.0;" x1="972.5" x2="1183.5" y1="206.8281" y2="206.8281"/><text fill="#000000" font-family="sans-serif" font-size="13" font-weight="bold" lengthAdjust="spacing" textLength="9" x="979.5" y="201.7622">4</text><text fill="#000000" font-family="sans-serif" font-size="13" lengthAdjust="spacing" textLength="83" x="992.5" y="201.7622">GetAsync(id)</text><polygon fill="#A80036" points="983.5,231.9609,973.5,235.9609,983.5,239.9609,979.5,235.9609" style="stroke:#A80036;stroke-width:1.0;"/><line style="stroke:#A80036;stroke-width:1.0;stroke-dasharray:2.0,2.0;" x1="977.5" x2="1193.5" y1="235.9609" y2="235.9609"/><text fill="#000000" font-family="sans-serif" font-size="13" font-weight="bold" lengthAdjust="spacing" textLength="9" x="989.5" y="230.895">5</text><text fill="#000000" font-family="sans-serif" font-size="13" lengthAdjust="spacing" textLength="180" x="1002.5" y="230.895">return(DetalheReservaDTO)</text><polygon fill="#A80036" points="756.5,261.0938,746.5,265.0938,756.5,269.0938,752.5,265.0938" style="stroke:#A80036;stroke-width:1.0;"/><line style="stroke:#A80036;stroke-width:1.0;stroke-dasharray:2.0,2.0;" x1="750.5" x2="966.5" y1="265.0938" y2="265.0938"/><text fill="#000000" font-family="sans-serif" font-size="13" font-weight="bold" lengthAdjust="spacing" textLength="9" x="762.5" y="260.0278">6</text><text fill="#000000" font-family="sans-serif" font-size="13" lengthAdjust="spacing" textLength="180" x="775.5" y="260.0278">return(DetalheReservaDTO)</text><polygon fill="#A80036" points="499.5,290.2266,489.5,294.2266,499.5,298.2266,495.5,294.2266" style="stroke:#A80036;stroke-width:1.0;"/><line style="stroke:#A80036;stroke-width:1.0;stroke-dasharray:2.0,2.0;" x1="493.5" x2="734.5" y1="294.2266" y2="294.2266"/><text fill="#000000" font-family="sans-serif" font-size="13" font-weight="bold" lengthAdjust="spacing" textLength="9" x="505.5" y="289.1606">7</text><text fill="#000000" font-family="sans-serif" font-size="13" lengthAdjust="spacing" textLength="215" x="518.5" y="289.1606">return View(DetalheReservaDTO)</text><polygon fill="#A80036" points="58,319.3594,48,323.3594,58,327.3594,54,323.3594" style="stroke:#A80036;stroke-width:1.0;"/><line style="stroke:#A80036;stroke-width:1.0;stroke-dasharray:2.0,2.0;" x1="52" x2="477.5" y1="323.3594" y2="323.3594"/><text fill="#000000" font-family="sans-serif" font-size="13" font-weight="bold" lengthAdjust="spacing" textLength="9" x="64" y="318.2935">8</text><text fill="#000000" font-family="sans-serif" font-size="13" lengthAdjust="spacing" textLength="131" x="77" y="318.2935">pede para confirmar</text><polygon fill="#A80036" points="466.5,348.4922,476.5,352.4922,466.5,356.4922,470.5,352.4922" style="stroke:#A80036;stroke-width:1.0;"/><line style="stroke:#A80036;stroke-width:1.0;stroke-dasharray:2.0,2.0;" x1="47" x2="472.5" y1="352.4922" y2="352.4922"/><text fill="#000000" font-family="sans-serif" font-size="13" font-weight="bold" lengthAdjust="spacing" textLength="9" x="54" y="347.4263">9</text><text fill="#000000" font-family="sans-serif" font-size="13" lengthAdjust="spacing" textLength="57" x="67" y="347.4263">confirma</text><polygon fill="#A80036" points="723.5,377.625,733.5,381.625,723.5,385.625,727.5,381.625" style="stroke:#A80036;stroke-width:1.0;"/><line style="stroke:#A80036;stroke-width:1.0;stroke-dasharray:2.0,2.0;" x1="483.5" x2="729.5" y1="381.625" y2="381.625"/><text fill="#000000" font-family="sans-serif" font-size="13" font-weight="bold" lengthAdjust="spacing" textLength="19" x="490.5" y="376.5591">10</text><text fill="#000000" font-family="sans-serif" font-size="13" lengthAdjust="spacing" textLength="152" x="513.5" y="376.5591">CancelarConfirmado(id)</text><polygon fill="#A80036" points="950.5,406.7578,960.5,410.7578,950.5,414.7578,954.5,410.7578" style="stroke:#A80036;stroke-width:1.0;"/><line style="stroke:#A80036;stroke-width:1.0;stroke-dasharray:2.0,2.0;" x1="745.5" x2="956.5" y1="410.7578" y2="410.7578"/><text fill="#000000" font-family="sans-serif" font-size="13" font-weight="bold" lengthAdjust="spacing" textLength="18" x="752.5" y="405.6919">11</text><text fill="#000000" font-family="sans-serif" font-size="13" lengthAdjust="spacing" textLength="102" x="774.5" y="405.6919">DeleteAsync(id)</text><polygon fill="#A80036" points="1177.5,435.8906,1187.5,439.8906,1177.5,443.8906,1181.5,439.8906" style="stroke:#A80036;stroke-width:1.0;"/><line style="stroke:#A80036;stroke-width:1.0;stroke-dasharray:2.0,2.0;" x1="972.5" x2="1183.5" y1="439.8906" y2="439.8906"/><text fill="#000000" font-family="sans-serif" font-size="13" font-weight="bold" lengthAdjust="spacing" textLength="18" x="979.5" y="434.8247">12</text><text fill="#000000" font-family="sans-serif" font-size="13" lengthAdjust="spacing" textLength="102" x="1001.5" y="434.8247">DeleteAsync(id)</text><polygon fill="#A80036" points="983.5,465.0234,973.5,469.0234,983.5,473.0234,979.5,469.0234" style="stroke:#A80036;stroke-width:1.0;"/><line style="stroke:#A80036;stroke-width:1.0;stroke-dasharray:2.0,2.0;" x1="977.5" x2="1193.5" y1="469.0234" y2="469.0234"/><text fill="#000000" font-family="sans-serif" font-size="13" font-weight="bold" lengthAdjust="spacing" textLength="17" x="989.5" y="463.9575">13</text><text fill="#000000" font-family="sans-serif" font-size="13" lengthAdjust="spacing" textLength="72" x="1010.5" y="463.9575">No Content</text><polygon fill="#A80036" points="756.5,494.1563,746.5,498.1563,756.5,502.1563,752.5,498.1563" style="stroke:#A80036;stroke-width:1.0;"/><line style="stroke:#A80036;stroke-width:1.0;stroke-dasharray:2.0,2.0;" x1="750.5" x2="966.5" y1="498.1563" y2="498.1563"/><text fill="#000000" font-family="sans-serif" font-size="13" font-weight="bold" lengthAdjust="spacing" textLength="18" x="762.5" y="493.0903">14</text><text fill="#000000" font-family="sans-serif" font-size="13" lengthAdjust="spacing" textLength="49" x="784.5" y="493.0903">Task ok</text><polygon fill="#A80036" points="268,523.2891,258,527.2891,268,531.2891,264,527.2891" style="stroke:#A80036;stroke-width:1.0;"/><line style="stroke:#A80036;stroke-width:1.0;stroke-dasharray:2.0,2.0;" x1="262" x2="739.5" y1="527.2891" y2="527.2891"/><text fill="#000000" font-family="sans-serif" font-size="13" font-weight="bold" lengthAdjust="spacing" textLength="18" x="274" y="522.2231">15</text><text fill="#000000" font-family="sans-serif" font-size="13" lengthAdjust="spacing" textLength="214" x="296" y="522.2231">RedirectToAction(nameof(Index))</text><polygon fill="#A80036" points="53,552.4219,43,556.4219,53,560.4219,49,556.4219" style="stroke:#A80036;stroke-width:1.0;"/><line style="stroke:#A80036;stroke-width:1.0;stroke-dasharray:2.0,2.0;" x1="47" x2="251" y1="556.4219" y2="556.4219"/><text fill="#000000" font-family="sans-serif" font-size="13" font-weight="bold" lengthAdjust="spacing" textLength="18" x="59" y="551.356">16</text><text fill="#000000" font-family="sans-serif" font-size="13" lengthAdjust="spacing" textLength="154" x="81" y="551.356">operacao bem sucedida</text><!--MD5=[f83f9b33cb984364ae728374d5db401a]
@startuml
autonumber
actor "Utilizador" as U
participant ":app/Views/Reservas/Index" as RV
participant ":app/Views/Reservas/Cancelar" as RCV
participant ":app/ReservaController" as RC
participant ":app/ReservaService" as RS
participant "API:SistemaCentral" as API

activate U

U - -> RV: Inicia o cancelamento
activate RV

RV - -> RC: Cancelar(id)
activate RC

RC - -> RS: GetByIdAsync(id)
activate RS

RS - -> API: GetAsync(id)
activate API

API - -> RS: return(DetalheReservaDTO)
deactivate API

RS - -> RC: return(DetalheReservaDTO)
deactivate RS

RC - -> RCV: return View(DetalheReservaDTO)
activate RCV

RCV - -> U: pede para confirmar

U - -> RCV: confirma

RCV - -> RC: CancelarConfirmado(id)
deactivate RCV

RC - -> RS: DeleteAsync(id)
activate RS

RS - -> API: DeleteAsync(id)
activate API

API - -> RS:No Content
deactivate API

RS - -> RC: Task ok
deactivate RS

RC - -> RV: RedirectToAction(nameof(Index))
deactivate RC

RV - -> U: operacao bem sucedida
deactivate RV

deactivate U
@enduml

PlantUML version 1.2021.2beta9(Unknown compile time)
(GPL source distribution)
Java Runtime: Java(TM) SE Runtime Environment
JVM: Java HotSpot(TM) 64-Bit Server VM
Default Encoding: UTF-8
Language: en
Country: US
--></g></svg>