<?xml version="1.0" encoding="UTF-8" standalone="no"?><svg xmlns="http://www.w3.org/2000/svg" xmlns:xlink="http://www.w3.org/1999/xlink" contentScriptType="application/ecmascript" contentStyleType="text/css" height="348px" preserveAspectRatio="none" style="width:571px;height:348px;" version="1.1" viewBox="0 0 571 348" width="571px" zoomAndPan="magnify"><defs><filter height="300%" id="ftffy7ra5cjty" width="300%" x="-1" y="-1"><feGaussianBlur result="blurOut" stdDeviation="2.0"/><feColorMatrix in="blurOut" result="blurOut2" type="matrix" values="0 0 0 0 0 0 0 0 0 0 0 0 0 0 0 0 0 0 .4 0"/><feOffset dx="4.0" dy="4.0" in="blurOut2" result="blurOut3"/><feBlend in="SourceGraphic" in2="blurOut3" mode="normal"/></filter></defs><g><!--MD5=[0e96757b62d87977fef6136f868af74c]
entity unr--><ellipse cx="93.5" cy="271" fill="#FEFECE" filter="url(#ftffy7ra5cjty)" rx="8" ry="8" style="stroke:#A80036;stroke-width:1.5;"/><path d="M93.5,279 L93.5,306 M80.5,287 L106.5,287 M93.5,306 L80.5,321 M93.5,306 L106.5,321 " fill="none" filter="url(#ftffy7ra5cjty)" style="stroke:#A80036;stroke-width:1.5;"/><text fill="#000000" font-family="sans-serif" font-size="14" lengthAdjust="spacing" textLength="175" x="6" y="339.4951">Utilizador Não Registado</text><!--MD5=[f6c8693f2725baec96dbc257309cbcf0]
entity sc--><ellipse cx="93.5" cy="88" fill="#FEFECE" filter="url(#ftffy7ra5cjty)" rx="8" ry="8" style="stroke:#A80036;stroke-width:1.5;"/><path d="M93.5,96 L93.5,123 M80.5,104 L106.5,104 M93.5,123 L80.5,138 M93.5,123 L106.5,138 " fill="none" filter="url(#ftffy7ra5cjty)" style="stroke:#A80036;stroke-width:1.5;"/><text fill="#000000" font-family="sans-serif" font-size="14" lengthAdjust="spacing" textLength="115" x="36" y="156.4951">Sistema Central</text><ellipse cx="400.4032" cy="301.7806" fill="#FEFECE" filter="url(#ftffy7ra5cjty)" rx="159.4032" ry="34.2806" style="stroke:#A80036;stroke-width:1.5;"/><text fill="#000000" font-family="sans-serif" font-size="14" lengthAdjust="spacing" textLength="28" x="386.4032" y="296.4789">UC1</text><text fill="#000000" font-family="sans-serif" font-size="14" lengthAdjust="spacing" textLength="255" x="272.9032" y="312.7758">Registar Utilizador na API do Parque</text><ellipse cx="400.2523" cy="32.0473" fill="#FEFECE" filter="url(#ftffy7ra5cjty)" rx="97.7523" ry="26.0473" style="stroke:#A80036;stroke-width:1.5;"/><text fill="#000000" font-family="sans-serif" font-size="14" lengthAdjust="spacing" textLength="27" x="386.7523" y="26.7455">UC2</text><text fill="#000000" font-family="sans-serif" font-size="14" lengthAdjust="spacing" textLength="122" x="339.2523" y="43.0424">Efectuar Reserva</text><ellipse cx="400.4594" cy="119.0473" fill="#FEFECE" filter="url(#ftffy7ra5cjty)" rx="98.4594" ry="26.0473" style="stroke:#A80036;stroke-width:1.5;"/><text fill="#000000" font-family="sans-serif" font-size="14" lengthAdjust="spacing" textLength="28" x="386.4594" y="113.7455">UC3</text><text fill="#000000" font-family="sans-serif" font-size="14" lengthAdjust="spacing" textLength="123" x="338.9594" y="130.0424">Cancelar Reserva</text><ellipse cx="400.5244" cy="206.0473" fill="#FEFECE" filter="url(#ftffy7ra5cjty)" rx="85.0244" ry="26.0473" style="stroke:#A80036;stroke-width:1.5;"/><text fill="#000000" font-family="sans-serif" font-size="14" lengthAdjust="spacing" textLength="27" x="387.0244" y="200.7455">UC4</text><text fill="#000000" font-family="sans-serif" font-size="14" lengthAdjust="spacing" textLength="104" x="348.5244" y="217.0424">Editar Reserva</text><!--MD5=[b21d2a1dcec11667d63182d62c961c85]
link unr to UC1--><path d="M181.085,302 C198.229,302 216.75,302 235.504,302 " fill="none" id="unr-to-UC1" style="stroke:#A80036;stroke-width:1.0;"/><polygon fill="#A80036" points="240.799,302,231.799,298,235.799,302,231.799,306,240.799,302" style="stroke:#A80036;stroke-width:1.0;"/><!--MD5=[dc7eaf7b7ae25fb307f43ea945d18fd1]
link sc to UC2--><path d="M151.095,101.616 C178.24,93.377 211.253,83.501 241,75 C268.486,67.146 298.754,58.848 325.408,51.659 " fill="none" id="sc-to-UC2" style="stroke:#A80036;stroke-width:1.0;"/><polygon fill="#A80036" points="330.342,50.33,320.6115,48.808,325.514,51.6302,322.6918,56.5328,330.342,50.33" style="stroke:#A80036;stroke-width:1.0;"/><!--MD5=[92830afcf361c90db9b17eb9a9fb10f0]
link sc to UC3--><path d="M151.153,119 C191.876,119 247.934,119 296.486,119 " fill="none" id="sc-to-UC3" style="stroke:#A80036;stroke-width:1.0;"/><polygon fill="#A80036" points="301.762,119,292.762,115,296.762,119,292.762,123,301.762,119" style="stroke:#A80036;stroke-width:1.0;"/><!--MD5=[33e0fe02ca7b49f2d5b77625ea3ab09f]
link sc to UC4--><path d="M151.143,135.837 C178.299,143.854 211.306,153.521 241,162 C270.723,170.487 303.646,179.663 331.75,187.428 " fill="none" id="sc-to-UC4" style="stroke:#A80036;stroke-width:1.0;"/><polygon fill="#A80036" points="336.577,188.761,328.9652,182.5112,331.7571,187.431,326.8373,190.223,336.577,188.761" style="stroke:#A80036;stroke-width:1.0;"/><!--MD5=[acb60f08981cc1710169f3490c386862]
@startuml
left to right direction

actor "Utilizador Não Registado" as unr
actor "Sistema Central" as sc

usecase "UC1\nRegistar Utilizador na API do Parque" as UC1
usecase "UC2\nEfectuar Reserva" as UC2
usecase "UC3\nCancelar Reserva" as UC3
usecase "UC4\nEditar Reserva" as UC4

unr- -> UC1
sc - -> UC2
sc - -> UC3
sc - -> UC4
@enduml

PlantUML version 1.2021.01beta3(Unknown compile time)
(GPL source distribution)
Java Runtime: Java(TM) SE Runtime Environment
JVM: Java HotSpot(TM) 64-Bit Server VM
Default Encoding: UTF-8
Language: en
Country: US
--></g></svg>