<?xml version="1.0" encoding="UTF-8" standalone="no"?><svg xmlns="http://www.w3.org/2000/svg" xmlns:xlink="http://www.w3.org/1999/xlink" contentScriptType="application/ecmascript" contentStyleType="text/css" height="347px" preserveAspectRatio="none" style="width:607px;height:347px;" version="1.1" viewBox="0 0 607 347" width="607px" zoomAndPan="magnify"><defs><filter height="300%" id="f1dphpv9j10d26" width="300%" x="-1" y="-1"><feGaussianBlur result="blurOut" stdDeviation="2.0"/><feColorMatrix in="blurOut" result="blurOut2" type="matrix" values="0 0 0 0 0 0 0 0 0 0 0 0 0 0 0 0 0 0 .4 0"/><feOffset dx="4.0" dy="4.0" in="blurOut2" result="blurOut3"/><feBlend in="SourceGraphic" in2="blurOut3" mode="normal"/></filter></defs><g><!--MD5=[bd9d7f6f6ca3f49ec6576c568dc29889]
entity psc--><ellipse cx="112" cy="270" fill="#FEFECE" filter="url(#f1dphpv9j10d26)" rx="8" ry="8" style="stroke:#A80036;stroke-width:1.5;"/><path d="M112,278 L112,305 M99,286 L125,286 M112,305 L99,320 M112,305 L125,320 " fill="none" filter="url(#f1dphpv9j10d26)" style="stroke:#A80036;stroke-width:1.5;"/><text fill="#000000" font-family="sans-serif" font-size="14" lengthAdjust="spacing" textLength="212" x="6" y="338.4951">Programador Sistema Central</text><!--MD5=[f6c8693f2725baec96dbc257309cbcf0]
entity sc--><ellipse cx="112" cy="88" fill="#FEFECE" filter="url(#f1dphpv9j10d26)" rx="8" ry="8" style="stroke:#A80036;stroke-width:1.5;"/><path d="M112,96 L112,123 M99,104 L125,104 M112,123 L99,138 M112,123 L125,138 " fill="none" filter="url(#f1dphpv9j10d26)" style="stroke:#A80036;stroke-width:1.5;"/><text fill="#000000" font-family="sans-serif" font-size="14" lengthAdjust="spacing" textLength="115" x="54.5" y="156.4951">Sistema Central</text><ellipse cx="436.9766" cy="301.1953" fill="#FEFECE" filter="url(#f1dphpv9j10d26)" rx="158.9766" ry="34.1953" style="stroke:#A80036;stroke-width:1.5;"/><text fill="#000000" font-family="sans-serif" font-size="14" lengthAdjust="spacing" textLength="28" x="422.9766" y="295.8936">UC1</text><text fill="#000000" font-family="sans-serif" font-size="14" lengthAdjust="spacing" textLength="254" x="309.9766" y="312.1904">Registar utilizador da API do Parque</text><ellipse cx="436.9239" cy="32.0473" fill="#FEFECE" filter="url(#f1dphpv9j10d26)" rx="94.9239" ry="26.0473" style="stroke:#A80036;stroke-width:1.5;"/><text fill="#000000" font-family="sans-serif" font-size="14" lengthAdjust="spacing" textLength="27" x="423.4239" y="26.7455">UC2</text><text fill="#000000" font-family="sans-serif" font-size="14" lengthAdjust="spacing" textLength="118" x="377.9239" y="43.0424">Efectuar reserva</text><ellipse cx="437.131" cy="119.0473" fill="#FEFECE" filter="url(#f1dphpv9j10d26)" rx="95.631" ry="26.0473" style="stroke:#A80036;stroke-width:1.5;"/><text fill="#000000" font-family="sans-serif" font-size="14" lengthAdjust="spacing" textLength="28" x="423.131" y="113.7455">UC3</text><text fill="#000000" font-family="sans-serif" font-size="14" lengthAdjust="spacing" textLength="119" x="377.631" y="130.0424">Cancelar reserva</text><ellipse cx="437.196" cy="206.0473" fill="#FEFECE" filter="url(#f1dphpv9j10d26)" rx="82.196" ry="26.0473" style="stroke:#A80036;stroke-width:1.5;"/><text fill="#000000" font-family="sans-serif" font-size="14" lengthAdjust="spacing" textLength="27" x="423.696" y="200.7455">UC4</text><text fill="#000000" font-family="sans-serif" font-size="14" lengthAdjust="spacing" textLength="100" x="387.196" y="217.0424">Editar reserva</text><!--MD5=[fe06fe0016910942d2f119c83337c949]
link psc to UC1--><path d="M218.315,301 C235.732,301 254.144,301 272.59,301 " fill="none" id="psc-to-UC1" style="stroke:#A80036;stroke-width:1.0;"/><polygon fill="#A80036" points="277.793,301,268.793,297,272.793,301,268.793,305,277.793,301" style="stroke:#A80036;stroke-width:1.0;"/><!--MD5=[dc7eaf7b7ae25fb307f43ea945d18fd1]
link sc to UC2--><path d="M169.632,103.746 C223.57,89.218 305.003,67.284 363.625,51.494 " fill="none" id="sc-to-UC2" style="stroke:#A80036;stroke-width:1.0;"/><polygon fill="#A80036" points="368.514,50.177,358.7836,48.6543,363.6859,51.4769,360.8634,56.3792,368.514,50.177" style="stroke:#A80036;stroke-width:1.0;"/><!--MD5=[92830afcf361c90db9b17eb9a9fb10f0]
link sc to UC3--><path d="M169.632,119 C215.554,119 281.405,119 336.141,119 " fill="none" id="sc-to-UC3" style="stroke:#A80036;stroke-width:1.0;"/><polygon fill="#A80036" points="341.403,119,332.403,115,336.403,119,332.403,123,341.403,119" style="stroke:#A80036;stroke-width:1.0;"/><!--MD5=[33e0fe02ca7b49f2d5b77625ea3ab09f]
link sc to UC4--><path d="M169.632,134.254 C225.242,149.232 310.077,172.083 369.009,187.956 " fill="none" id="sc-to-UC4" style="stroke:#A80036;stroke-width:1.0;"/><polygon fill="#A80036" points="373.917,189.278,366.2685,183.0731,369.0894,187.9764,364.186,190.7973,373.917,189.278" style="stroke:#A80036;stroke-width:1.0;"/><!--MD5=[c14716e4fda2d358e01b53fa46fad779]
@startuml
left to right direction

actor "Programador Sistema Central" as psc
actor "Sistema Central" as sc

usecase "UC1\nRegistar utilizador da API do Parque" as UC1
usecase "UC2\nEfectuar reserva" as UC2
usecase "UC3\nCancelar reserva" as UC3
usecase "UC4\nEditar reserva" as UC4

psc - -> UC1
sc - -> UC2
sc - -> UC3
sc - -> UC4
@enduml

PlantUML version 1.2021.01beta3(Unknown compile time)
(GPL source distribution)
Java Runtime: Java(TM) SE Runtime Environment
JVM: Java HotSpot(TM) 64-Bit Server VM
Default Encoding: UTF-8
Language: en
Country: US
--></g></svg>