<?xml version="1.0" encoding="UTF-8" standalone="no"?><svg xmlns="http://www.w3.org/2000/svg" xmlns:xlink="http://www.w3.org/1999/xlink" contentScriptType="application/ecmascript" contentStyleType="text/css" height="347px" preserveAspectRatio="none" style="width:570px;height:347px;" version="1.1" viewBox="0 0 570 347" width="570px" zoomAndPan="magnify"><defs><filter height="300%" id="f2cqb2exa1q3g" width="300%" x="-1" y="-1"><feGaussianBlur result="blurOut" stdDeviation="2.0"/><feColorMatrix in="blurOut" result="blurOut2" type="matrix" values="0 0 0 0 0 0 0 0 0 0 0 0 0 0 0 0 0 0 .4 0"/><feOffset dx="4.0" dy="4.0" in="blurOut2" result="blurOut3"/><feBlend in="SourceGraphic" in2="blurOut3" mode="normal"/></filter></defs><g><!--MD5=[0e96757b62d87977fef6136f868af74c]
entity unr--><ellipse cx="93.5" cy="270" fill="#FEFECE" filter="url(#f2cqb2exa1q3g)" rx="8" ry="8" style="stroke:#A80036;stroke-width:1.5;"/><path d="M93.5,278 L93.5,305 M80.5,286 L106.5,286 M93.5,305 L80.5,320 M93.5,305 L106.5,320 " fill="none" filter="url(#f2cqb2exa1q3g)" style="stroke:#A80036;stroke-width:1.5;"/><text fill="#000000" font-family="sans-serif" font-size="14" lengthAdjust="spacing" textLength="175" x="6" y="338.4951">Utilizador Não Registado</text><!--MD5=[f6c8693f2725baec96dbc257309cbcf0]
entity sc--><ellipse cx="93.5" cy="88" fill="#FEFECE" filter="url(#f2cqb2exa1q3g)" rx="8" ry="8" style="stroke:#A80036;stroke-width:1.5;"/><path d="M93.5,96 L93.5,123 M80.5,104 L106.5,104 M93.5,123 L80.5,138 M93.5,123 L106.5,138 " fill="none" filter="url(#f2cqb2exa1q3g)" style="stroke:#A80036;stroke-width:1.5;"/><text fill="#000000" font-family="sans-serif" font-size="14" lengthAdjust="spacing" textLength="115" x="36" y="156.4951">Sistema Central</text><ellipse cx="399.9766" cy="301.1953" fill="#FEFECE" filter="url(#f2cqb2exa1q3g)" rx="158.9766" ry="34.1953" style="stroke:#A80036;stroke-width:1.5;"/><text fill="#000000" font-family="sans-serif" font-size="14" lengthAdjust="spacing" textLength="28" x="385.9766" y="295.8936">UC1</text><text fill="#000000" font-family="sans-serif" font-size="14" lengthAdjust="spacing" textLength="254" x="272.9766" y="312.1904">Registar utilizador da API do Parque</text><ellipse cx="399.9239" cy="32.0473" fill="#FEFECE" filter="url(#f2cqb2exa1q3g)" rx="94.9239" ry="26.0473" style="stroke:#A80036;stroke-width:1.5;"/><text fill="#000000" font-family="sans-serif" font-size="14" lengthAdjust="spacing" textLength="27" x="386.4239" y="26.7455">UC2</text><text fill="#000000" font-family="sans-serif" font-size="14" lengthAdjust="spacing" textLength="118" x="340.9239" y="43.0424">Efectuar reserva</text><ellipse cx="400.131" cy="119.0473" fill="#FEFECE" filter="url(#f2cqb2exa1q3g)" rx="95.631" ry="26.0473" style="stroke:#A80036;stroke-width:1.5;"/><text fill="#000000" font-family="sans-serif" font-size="14" lengthAdjust="spacing" textLength="28" x="386.131" y="113.7455">UC3</text><text fill="#000000" font-family="sans-serif" font-size="14" lengthAdjust="spacing" textLength="119" x="340.631" y="130.0424">Cancelar reserva</text><ellipse cx="400.196" cy="206.0473" fill="#FEFECE" filter="url(#f2cqb2exa1q3g)" rx="82.196" ry="26.0473" style="stroke:#A80036;stroke-width:1.5;"/><text fill="#000000" font-family="sans-serif" font-size="14" lengthAdjust="spacing" textLength="27" x="386.696" y="200.7455">UC4</text><text fill="#000000" font-family="sans-serif" font-size="14" lengthAdjust="spacing" textLength="100" x="350.196" y="217.0424">Editar reserva</text><!--MD5=[b21d2a1dcec11667d63182d62c961c85]
link unr to UC1--><path d="M181.35,301 C198.462,301 216.935,301 235.633,301 " fill="none" id="unr-to-UC1" style="stroke:#A80036;stroke-width:1.0;"/><polygon fill="#A80036" points="240.912,301,231.912,297,235.912,301,231.912,305,240.912,301" style="stroke:#A80036;stroke-width:1.0;"/><!--MD5=[dc7eaf7b7ae25fb307f43ea945d18fd1]
link sc to UC2--><path d="M151.098,101.626 C178.244,93.39 211.256,83.513 241,75 C268.788,67.047 299.425,58.629 326.266,51.369 " fill="none" id="sc-to-UC2" style="stroke:#A80036;stroke-width:1.0;"/><polygon fill="#A80036" points="331.232,50.028,321.5002,48.5141,326.4051,51.3322,323.5869,56.2371,331.232,50.028" style="stroke:#A80036;stroke-width:1.0;"/><!--MD5=[92830afcf361c90db9b17eb9a9fb10f0]
link sc to UC3--><path d="M151.06,119 C192.63,119 250.206,119 299.411,119 " fill="none" id="sc-to-UC3" style="stroke:#A80036;stroke-width:1.0;"/><polygon fill="#A80036" points="304.45,119,295.45,115,299.45,119,295.45,123,304.45,119" style="stroke:#A80036;stroke-width:1.0;"/><!--MD5=[33e0fe02ca7b49f2d5b77625ea3ab09f]
link sc to UC4--><path d="M151.146,135.826 C178.303,143.841 211.31,153.509 241,162 C271.02,170.585 304.312,179.889 332.565,187.72 " fill="none" id="sc-to-UC4" style="stroke:#A80036;stroke-width:1.0;"/><polygon fill="#A80036" points="337.416,189.064,329.8116,182.8052,332.5977,187.7284,327.6745,190.5145,337.416,189.064" style="stroke:#A80036;stroke-width:1.0;"/><!--MD5=[e340e134e9e390489cb97ebf6340aac2]
@startuml
left to right direction

actor "Utilizador Não Registado" as unr
actor "Sistema Central" as sc

usecase "UC1\nRegistar utilizador da API do Parque" as UC1
usecase "UC2\nEfectuar reserva" as UC2
usecase "UC3\nCancelar reserva" as UC3
usecase "UC4\nEditar reserva" as UC4

unr- -> UC1
sc - -> UC2
sc - -> UC3
sc - -> UC4
@enduml

PlantUML version 1.2021.01beta3(Unknown compile time)
(GPL source distribution)
Java Runtime: Java(TM) SE Runtime Environment
JVM: Java HotSpot(TM) 64-Bit Server VM
Default Encoding: UTF-8
Language: en
Country: US
--></g></svg>