<?xml version="1.0" encoding="UTF-8" standalone="no"?><svg xmlns="http://www.w3.org/2000/svg" xmlns:xlink="http://www.w3.org/1999/xlink" contentScriptType="application/ecmascript" contentStyleType="text/css" height="436px" preserveAspectRatio="none" style="width:542px;height:436px;" version="1.1" viewBox="0 0 542 436" width="542px" zoomAndPan="magnify"><defs><filter height="300%" id="f1fo5rbs51go8s" width="300%" x="-1" y="-1"><feGaussianBlur result="blurOut" stdDeviation="2.0"/><feColorMatrix in="blurOut" result="blurOut2" type="matrix" values="0 0 0 0 0 0 0 0 0 0 0 0 0 0 0 0 0 0 .4 0"/><feOffset dx="4.0" dy="4.0" in="blurOut2" result="blurOut3"/><feBlend in="SourceGraphic" in2="blurOut3" mode="normal"/></filter></defs><g><!--MD5=[16fab723be418f7eaf2ea4bd895a8e51]
entity C--><ellipse cx="85.5" cy="360" fill="#FEFECE" filter="url(#f1fo5rbs51go8s)" rx="8" ry="8" style="stroke:#A80036;stroke-width:1.5;"/><path d="M85.5,368 L85.5,395 M72.5,376 L98.5,376 M85.5,395 L72.5,410 M85.5,395 L98.5,410 " fill="none" filter="url(#f1fo5rbs51go8s)" style="stroke:#A80036;stroke-width:1.5;"/><text fill="#000000" font-family="sans-serif" font-size="14" lengthAdjust="spacing" textLength="159" x="6" y="428.4951">Cliente Não Registado</text><!--MD5=[8b944653c655024075d894af29a33c78]
entity SC--><ellipse cx="85.5" cy="132" fill="#FEFECE" filter="url(#f1fo5rbs51go8s)" rx="8" ry="8" style="stroke:#A80036;stroke-width:1.5;"/><path d="M85.5,140 L85.5,167 M72.5,148 L98.5,148 M85.5,167 L72.5,182 M85.5,167 L98.5,182 " fill="none" filter="url(#f1fo5rbs51go8s)" style="stroke:#A80036;stroke-width:1.5;"/><text fill="#000000" font-family="sans-serif" font-size="14" lengthAdjust="spacing" textLength="52" x="59.5" y="200.4951">Cliente</text><ellipse cx="377.6327" cy="390.9265" fill="#FEFECE" filter="url(#f1fo5rbs51go8s)" rx="152.6327" ry="32.9265" style="stroke:#A80036;stroke-width:1.5;"/><text fill="#000000" font-family="sans-serif" font-size="14" lengthAdjust="spacing" textLength="28" x="363.6327" y="385.6248">UC1</text><text fill="#000000" font-family="sans-serif" font-size="14" lengthAdjust="spacing" textLength="239" x="258.1327" y="401.9217">Registar Cliente na API do Parque</text><ellipse cx="377.4239" cy="32.0473" fill="#FEFECE" filter="url(#f1fo5rbs51go8s)" rx="94.9239" ry="26.0473" style="stroke:#A80036;stroke-width:1.5;"/><text fill="#000000" font-family="sans-serif" font-size="14" lengthAdjust="spacing" textLength="27" x="363.9239" y="26.7455">UC2</text><text fill="#000000" font-family="sans-serif" font-size="14" lengthAdjust="spacing" textLength="118" x="318.4239" y="43.0424">Efectuar reserva</text><ellipse cx="377.631" cy="119.0473" fill="#FEFECE" filter="url(#f1fo5rbs51go8s)" rx="95.631" ry="26.0473" style="stroke:#A80036;stroke-width:1.5;"/><text fill="#000000" font-family="sans-serif" font-size="14" lengthAdjust="spacing" textLength="28" x="363.631" y="113.7455">UC3</text><text fill="#000000" font-family="sans-serif" font-size="14" lengthAdjust="spacing" textLength="119" x="318.131" y="130.0424">Cancelar reserva</text><ellipse cx="377.696" cy="206.0473" fill="#FEFECE" filter="url(#f1fo5rbs51go8s)" rx="82.196" ry="26.0473" style="stroke:#A80036;stroke-width:1.5;"/><text fill="#000000" font-family="sans-serif" font-size="14" lengthAdjust="spacing" textLength="27" x="364.196" y="200.7455">UC4</text><text fill="#000000" font-family="sans-serif" font-size="14" lengthAdjust="spacing" textLength="100" x="327.696" y="217.0424">Editar reserva</text><ellipse cx="377.4194" cy="295.1839" fill="#FEFECE" filter="url(#f1fo5rbs51go8s)" rx="128.9194" ry="28.1839" style="stroke:#A80036;stroke-width:1.5;"/><text fill="#000000" font-family="sans-serif" font-size="14" lengthAdjust="spacing" textLength="28" x="363.4194" y="289.8821">UC5</text><text fill="#000000" font-family="sans-serif" font-size="14" lengthAdjust="spacing" textLength="180" x="287.4194" y="306.179">Pesquisar disponibilidade</text><!--MD5=[9030d6887516f535981585d735d1cddc]
link C to UC1--><path d="M165.361,391 C182.302,391 200.775,391 219.518,391 " fill="none" id="C-to-UC1" style="stroke:#A80036;stroke-width:1.0;"/><polygon fill="#A80036" points="224.81,391,215.81,387,219.81,391,215.81,395,224.81,391" style="stroke:#A80036;stroke-width:1.0;"/><!--MD5=[58b936e1220848af319df1a452ed3a39]
link SC to UC2--><path d="M111.772,143.753 C138.609,124.1 182.884,93.873 225,75 C247.944,64.718 273.953,56.275 297.865,49.675 " fill="none" id="SC-to-UC2" style="stroke:#A80036;stroke-width:1.0;"/><polygon fill="#A80036" points="302.934,48.295,293.1995,46.7986,298.1095,49.6079,295.3002,54.5179,302.934,48.295" style="stroke:#A80036;stroke-width:1.0;"/><!--MD5=[db9258631c8bb72881dfb33b62b7d69e]
link SC to UC3--><path d="M111.728,159.172 C150.8,153.244 227.793,141.562 288.726,132.317 " fill="none" id="SC-to-UC3" style="stroke:#A80036;stroke-width:1.0;"/><polygon fill="#A80036" points="293.826,131.544,284.3278,128.9394,288.8826,132.2941,285.5279,136.8489,293.826,131.544" style="stroke:#A80036;stroke-width:1.0;"/><!--MD5=[a3baba731af77950f00949301bebde38]
link SC to UC4--><path d="M111.728,166.741 C152.743,172.822 235.546,185.1 297.693,194.315 " fill="none" id="SC-to-UC4" style="stroke:#A80036;stroke-width:1.0;"/><polygon fill="#A80036" points="302.884,195.085,294.5675,189.809,297.938,194.3521,293.3949,197.7226,302.884,195.085" style="stroke:#A80036;stroke-width:1.0;"/><!--MD5=[f407cbc4fe270362af11dd37502d064c]
link SC to UC5--><path d="M111.913,181.619 C138.864,200.67 183.232,230.085 225,249 C244.704,257.923 266.61,265.707 287.501,272.209 " fill="none" id="SC-to-UC5" style="stroke:#A80036;stroke-width:1.0;"/><polygon fill="#A80036" points="292.504,273.748,285.0779,267.2786,287.725,272.2779,282.7257,274.925,292.504,273.748" style="stroke:#A80036;stroke-width:1.0;"/><!--MD5=[aa5a16e4ed4f8c2669e6730974fc9003]
@startuml
left to right direction

actor "Cliente Não Registado" as C
actor "Cliente" as SC

usecase "UC1\nRegistar Cliente na API do Parque" as UC1
usecase "UC2\nEfectuar reserva" as UC2
usecase "UC3\nCancelar reserva" as UC3
usecase "UC4\nEditar reserva" as UC4
usecase "UC5\nPesquisar disponibilidade" as UC5

C - -> UC1
SC - -> UC2
SC - -> UC3
SC - -> UC4
SC - -> UC5
@enduml

PlantUML version 1.2021.01beta3(Unknown compile time)
(GPL source distribution)
Java Runtime: Java(TM) SE Runtime Environment
JVM: Java HotSpot(TM) 64-Bit Server VM
Default Encoding: UTF-8
Language: en
Country: US
--></g></svg>