<?xml version="1.0" encoding="UTF-8" standalone="no"?><svg xmlns="http://www.w3.org/2000/svg" xmlns:xlink="http://www.w3.org/1999/xlink" contentScriptType="application/ecmascript" contentStyleType="text/css" height="338px" preserveAspectRatio="none" style="width:885px;height:338px;" version="1.1" viewBox="0 0 885 338" width="885px" zoomAndPan="magnify"><defs><filter height="300%" id="f7f6exb3q9uxl" width="300%" x="-1" y="-1"><feGaussianBlur result="blurOut" stdDeviation="2.0"/><feColorMatrix in="blurOut" result="blurOut2" type="matrix" values="0 0 0 0 0 0 0 0 0 0 0 0 0 0 0 0 0 0 .4 0"/><feOffset dx="4.0" dy="4.0" in="blurOut2" result="blurOut3"/><feBlend in="SourceGraphic" in2="blurOut3" mode="normal"/></filter></defs><g><rect fill="#FFFFFF" filter="url(#f7f6exb3q9uxl)" height="137.6641" style="stroke:#A80036;stroke-width:1.0;" width="10" x="29" y="98.2969"/><rect fill="#FFFFFF" filter="url(#f7f6exb3q9uxl)" height="116.5313" style="stroke:#A80036;stroke-width:1.0;" width="10" x="436" y="119.4297"/><rect fill="#FFFFFF" filter="url(#f7f6exb3q9uxl)" height="29.1328" style="stroke:#A80036;stroke-width:1.0;" width="10" x="636" y="177.6953"/><rect fill="#FFFFFF" filter="url(#f7f6exb3q9uxl)" height="29.1328" style="stroke:#A80036;stroke-width:1.0;" width="10" x="830" y="148.5625"/><line style="stroke:#A80036;stroke-width:1.0;stroke-dasharray:5.0,5.0;" x1="34" x2="34" y1="88.2969" y2="253.9609"/><line style="stroke:#A80036;stroke-width:1.0;stroke-dasharray:5.0,5.0;" x1="441" x2="441" y1="88.2969" y2="253.9609"/><line style="stroke:#A80036;stroke-width:1.0;stroke-dasharray:5.0,5.0;" x1="640.5" x2="640.5" y1="88.2969" y2="253.9609"/><line style="stroke:#A80036;stroke-width:1.0;stroke-dasharray:5.0,5.0;" x1="835" x2="835" y1="88.2969" y2="253.9609"/><text fill="#000000" font-family="sans-serif" font-size="14" lengthAdjust="spacing" textLength="52" x="5" y="84.9951">Cliente</text><ellipse cx="34" cy="15" fill="#FEFECE" filter="url(#f7f6exb3q9uxl)" rx="8" ry="8" style="stroke:#A80036;stroke-width:2.0;"/><path d="M34,23 L34,50 M21,31 L47,31 M34,50 L21,65 M34,50 L47,65 " fill="none" filter="url(#f7f6exb3q9uxl)" style="stroke:#A80036;stroke-width:2.0;"/><text fill="#000000" font-family="sans-serif" font-size="14" lengthAdjust="spacing" textLength="52" x="5" y="265.9561">Cliente</text><ellipse cx="34" cy="279.2578" fill="#FEFECE" filter="url(#f7f6exb3q9uxl)" rx="8" ry="8" style="stroke:#A80036;stroke-width:2.0;"/><path d="M34,287.2578 L34,314.2578 M21,295.2578 L47,295.2578 M34,314.2578 L21,329.2578 M34,314.2578 L47,329.2578 " fill="none" filter="url(#f7f6exb3q9uxl)" style="stroke:#A80036;stroke-width:2.0;"/><rect fill="#FEFECE" filter="url(#f7f6exb3q9uxl)" height="30.2969" style="stroke:#A80036;stroke-width:1.5;" width="170" x="354" y="53"/><text fill="#000000" font-family="sans-serif" font-size="14" lengthAdjust="spacing" textLength="156" x="361" y="72.9951">:api/lugaresController</text><rect fill="#FEFECE" filter="url(#f7f6exb3q9uxl)" height="30.2969" style="stroke:#A80036;stroke-width:1.5;" width="170" x="354" y="252.9609"/><text fill="#000000" font-family="sans-serif" font-size="14" lengthAdjust="spacing" textLength="156" x="361" y="272.9561">:api/lugaresController</text><rect fill="#FEFECE" filter="url(#f7f6exb3q9uxl)" height="30.2969" style="stroke:#A80036;stroke-width:1.5;" width="81" x="598.5" y="53"/><text fill="#000000" font-family="sans-serif" font-size="14" lengthAdjust="spacing" textLength="67" x="605.5" y="72.9951">:api/lugar</text><rect fill="#FEFECE" filter="url(#f7f6exb3q9uxl)" height="30.2969" style="stroke:#A80036;stroke-width:1.5;" width="81" x="598.5" y="252.9609"/><text fill="#000000" font-family="sans-serif" font-size="14" lengthAdjust="spacing" textLength="67" x="605.5" y="272.9561">:api/lugar</text><rect fill="#FEFECE" filter="url(#f7f6exb3q9uxl)" height="30.2969" style="stroke:#A80036;stroke-width:1.5;" width="76" x="795" y="53"/><text fill="#000000" font-family="sans-serif" font-size="14" lengthAdjust="spacing" textLength="62" x="802" y="72.9951">:context</text><rect fill="#FEFECE" filter="url(#f7f6exb3q9uxl)" height="30.2969" style="stroke:#A80036;stroke-width:1.5;" width="76" x="795" y="252.9609"/><text fill="#000000" font-family="sans-serif" font-size="14" lengthAdjust="spacing" textLength="62" x="802" y="272.9561">:context</text><rect fill="#FFFFFF" filter="url(#f7f6exb3q9uxl)" height="137.6641" style="stroke:#A80036;stroke-width:1.0;" width="10" x="29" y="98.2969"/><rect fill="#FFFFFF" filter="url(#f7f6exb3q9uxl)" height="116.5313" style="stroke:#A80036;stroke-width:1.0;" width="10" x="436" y="119.4297"/><rect fill="#FFFFFF" filter="url(#f7f6exb3q9uxl)" height="29.1328" style="stroke:#A80036;stroke-width:1.0;" width="10" x="636" y="177.6953"/><rect fill="#FFFFFF" filter="url(#f7f6exb3q9uxl)" height="29.1328" style="stroke:#A80036;stroke-width:1.0;" width="10" x="830" y="148.5625"/><polygon fill="#A80036" points="424,115.4297,434,119.4297,424,123.4297,428,119.4297" style="stroke:#A80036;stroke-width:1.0;"/><line style="stroke:#A80036;stroke-width:1.0;stroke-dasharray:2.0,2.0;" x1="39" x2="430" y1="119.4297" y2="119.4297"/><text fill="#000000" font-family="sans-serif" font-size="13" font-weight="bold" lengthAdjust="spacing" textLength="9" x="46" y="114.3638">1</text><text fill="#000000" font-family="sans-serif" font-size="13" lengthAdjust="spacing" textLength="354" x="59" y="114.3638">inicia pesquisa de disponibilidade(localidade, inicio, fim)</text><polygon fill="#A80036" points="818,144.5625,828,148.5625,818,152.5625,822,148.5625" style="stroke:#A80036;stroke-width:1.0;"/><line style="stroke:#A80036;stroke-width:1.0;stroke-dasharray:2.0,2.0;" x1="446" x2="824" y1="148.5625" y2="148.5625"/><text fill="#000000" font-family="sans-serif" font-size="13" font-weight="bold" lengthAdjust="spacing" textLength="9" x="453" y="143.4966">2</text><text fill="#000000" font-family="sans-serif" font-size="13" lengthAdjust="spacing" textLength="276" x="466" y="143.4966">FindAvailableAsync((localidade, inicio, fim))</text><polygon fill="#A80036" points="657,173.6953,647,177.6953,657,181.6953,653,177.6953" style="stroke:#A80036;stroke-width:1.0;"/><line style="stroke:#A80036;stroke-width:1.0;stroke-dasharray:2.0,2.0;" x1="651" x2="834" y1="177.6953" y2="177.6953"/><text fill="#000000" font-family="sans-serif" font-size="13" font-weight="bold" lengthAdjust="spacing" textLength="8" x="663" y="172.6294">3</text><text fill="#000000" font-family="sans-serif" font-size="13" lengthAdjust="spacing" textLength="153" x="675" y="172.6294">List&lt;Lugar&gt; disponiveis</text><polygon fill="#A80036" points="457,202.8281,447,206.8281,457,210.8281,453,206.8281" style="stroke:#A80036;stroke-width:1.0;"/><line style="stroke:#A80036;stroke-width:1.0;stroke-dasharray:2.0,2.0;" x1="451" x2="640" y1="206.8281" y2="206.8281"/><text fill="#000000" font-family="sans-serif" font-size="13" font-weight="bold" lengthAdjust="spacing" textLength="9" x="463" y="201.7622">4</text><text fill="#000000" font-family="sans-serif" font-size="13" lengthAdjust="spacing" textLength="153" x="476" y="201.7622">List&lt;Lugar&gt; disponiveis</text><polygon fill="#A80036" points="45,231.9609,35,235.9609,45,239.9609,41,235.9609" style="stroke:#A80036;stroke-width:1.0;"/><line style="stroke:#A80036;stroke-width:1.0;stroke-dasharray:2.0,2.0;" x1="39" x2="440" y1="235.9609" y2="235.9609"/><text fill="#000000" font-family="sans-serif" font-size="13" font-weight="bold" lengthAdjust="spacing" textLength="9" x="51" y="230.895">5</text><text fill="#000000" font-family="sans-serif" font-size="13" lengthAdjust="spacing" textLength="360" x="64" y="230.895">return(List&lt;Lugar&gt; disponiveis) operação bem sucedida</text><!--MD5=[913d8c3aed6f66ae593cb261469d950d]
@startuml
autonumber
actor "Cliente" as SC
participant ":api/lugaresController" as RC
participant ":api/lugar" as R
participant ":context" as C

activate SC
SC - -> RC : inicia pesquisa de disponibilidade(localidade, inicio, fim)
activate RC

RC - -> C : FindAvailableAsync((localidade, inicio, fim))
activate C

C - -> R : List<Lugar> disponiveis
deactivate C
activate R

R - -> RC : List<Lugar> disponiveis
deactivate R

RC - -> SC: return(List<Lugar> disponiveis) operação bem sucedida
deactivate RC
deactivate SC
@enduml

PlantUML version 1.2021.01beta3(Unknown compile time)
(GPL source distribution)
Java Runtime: Java(TM) SE Runtime Environment
JVM: Java HotSpot(TM) 64-Bit Server VM
Default Encoding: UTF-8
Language: en
Country: US
--></g></svg>