<?xml version="1.0" encoding="UTF-8" standalone="no"?><svg xmlns="http://www.w3.org/2000/svg" xmlns:xlink="http://www.w3.org/1999/xlink" contentScriptType="application/ecmascript" contentStyleType="text/css" height="309px" preserveAspectRatio="none" style="width:760px;height:309px;" version="1.1" viewBox="0 0 760 309" width="760px" zoomAndPan="magnify"><defs><filter height="300%" id="f18h3gils6yl99" width="300%" x="-1" y="-1"><feGaussianBlur result="blurOut" stdDeviation="2.0"/><feColorMatrix in="blurOut" result="blurOut2" type="matrix" values="0 0 0 0 0 0 0 0 0 0 0 0 0 0 0 0 0 0 .4 0"/><feOffset dx="4.0" dy="4.0" in="blurOut2" result="blurOut3"/><feBlend in="SourceGraphic" in2="blurOut3" mode="normal"/></filter></defs><g><rect fill="#FFFFFF" filter="url(#f18h3gils6yl99)" height="108.5313" style="stroke:#A80036;stroke-width:1.0;" width="10" x="29" y="98.2969"/><rect fill="#FFFFFF" filter="url(#f18h3gils6yl99)" height="87.3984" style="stroke:#A80036;stroke-width:1.0;" width="10" x="436" y="119.4297"/><rect fill="#FFFFFF" filter="url(#f18h3gils6yl99)" height="29.1328" style="stroke:#A80036;stroke-width:1.0;" width="10" x="705" y="148.5625"/><line style="stroke:#A80036;stroke-width:1.0;stroke-dasharray:5.0,5.0;" x1="34" x2="34" y1="88.2969" y2="224.8281"/><line style="stroke:#A80036;stroke-width:1.0;stroke-dasharray:5.0,5.0;" x1="441" x2="441" y1="88.2969" y2="224.8281"/><line style="stroke:#A80036;stroke-width:1.0;stroke-dasharray:5.0,5.0;" x1="710" x2="710" y1="88.2969" y2="224.8281"/><text fill="#000000" font-family="sans-serif" font-size="14" lengthAdjust="spacing" textLength="52" x="5" y="84.9951">Cliente</text><ellipse cx="34" cy="15" fill="#FEFECE" filter="url(#f18h3gils6yl99)" rx="8" ry="8" style="stroke:#A80036;stroke-width:2.0;"/><path d="M34,23 L34,50 M21,31 L47,31 M34,50 L21,65 M34,50 L47,65 " fill="none" filter="url(#f18h3gils6yl99)" style="stroke:#A80036;stroke-width:2.0;"/><text fill="#000000" font-family="sans-serif" font-size="14" lengthAdjust="spacing" textLength="52" x="5" y="236.8232">Cliente</text><ellipse cx="34" cy="250.125" fill="#FEFECE" filter="url(#f18h3gils6yl99)" rx="8" ry="8" style="stroke:#A80036;stroke-width:2.0;"/><path d="M34,258.125 L34,285.125 M21,266.125 L47,266.125 M34,285.125 L21,300.125 M34,285.125 L47,300.125 " fill="none" filter="url(#f18h3gils6yl99)" style="stroke:#A80036;stroke-width:2.0;"/><rect fill="#FEFECE" filter="url(#f18h3gils6yl99)" height="30.2969" style="stroke:#A80036;stroke-width:1.5;" width="170" x="354" y="53"/><text fill="#000000" font-family="sans-serif" font-size="14" lengthAdjust="spacing" textLength="156" x="361" y="72.9951">:api/lugaresController</text><rect fill="#FEFECE" filter="url(#f18h3gils6yl99)" height="30.2969" style="stroke:#A80036;stroke-width:1.5;" width="170" x="354" y="223.8281"/><text fill="#000000" font-family="sans-serif" font-size="14" lengthAdjust="spacing" textLength="156" x="361" y="243.8232">:api/lugaresController</text><rect fill="#FEFECE" filter="url(#f18h3gils6yl99)" height="30.2969" style="stroke:#A80036;stroke-width:1.5;" width="76" x="670" y="53"/><text fill="#000000" font-family="sans-serif" font-size="14" lengthAdjust="spacing" textLength="62" x="677" y="72.9951">:context</text><rect fill="#FEFECE" filter="url(#f18h3gils6yl99)" height="30.2969" style="stroke:#A80036;stroke-width:1.5;" width="76" x="670" y="223.8281"/><text fill="#000000" font-family="sans-serif" font-size="14" lengthAdjust="spacing" textLength="62" x="677" y="243.8232">:context</text><rect fill="#FFFFFF" filter="url(#f18h3gils6yl99)" height="108.5313" style="stroke:#A80036;stroke-width:1.0;" width="10" x="29" y="98.2969"/><rect fill="#FFFFFF" filter="url(#f18h3gils6yl99)" height="87.3984" style="stroke:#A80036;stroke-width:1.0;" width="10" x="436" y="119.4297"/><rect fill="#FFFFFF" filter="url(#f18h3gils6yl99)" height="29.1328" style="stroke:#A80036;stroke-width:1.0;" width="10" x="705" y="148.5625"/><polygon fill="#A80036" points="424,115.4297,434,119.4297,424,123.4297,428,119.4297" style="stroke:#A80036;stroke-width:1.0;"/><line style="stroke:#A80036;stroke-width:1.0;stroke-dasharray:2.0,2.0;" x1="39" x2="430" y1="119.4297" y2="119.4297"/><text fill="#000000" font-family="sans-serif" font-size="13" font-weight="bold" lengthAdjust="spacing" textLength="9" x="46" y="114.3638">1</text><text fill="#000000" font-family="sans-serif" font-size="13" lengthAdjust="spacing" textLength="354" x="59" y="114.3638">inicia pesquisa de disponibilidade(localidade, inicio, fim)</text><polygon fill="#A80036" points="693,144.5625,703,148.5625,693,152.5625,697,148.5625" style="stroke:#A80036;stroke-width:1.0;"/><line style="stroke:#A80036;stroke-width:1.0;stroke-dasharray:2.0,2.0;" x1="446" x2="699" y1="148.5625" y2="148.5625"/><text fill="#000000" font-family="sans-serif" font-size="13" font-weight="bold" lengthAdjust="spacing" textLength="9" x="453" y="143.4966">2</text><text fill="#000000" font-family="sans-serif" font-size="13" lengthAdjust="spacing" textLength="227" x="466" y="143.4966">FindAvailable(localidade, inicio, fim)</text><polygon fill="#A80036" points="457,173.6953,447,177.6953,457,181.6953,453,177.6953" style="stroke:#A80036;stroke-width:1.0;"/><line style="stroke:#A80036;stroke-width:1.0;stroke-dasharray:2.0,2.0;" x1="451" x2="709" y1="177.6953" y2="177.6953"/><text fill="#000000" font-family="sans-serif" font-size="13" font-weight="bold" lengthAdjust="spacing" textLength="8" x="463" y="172.6294">3</text><text fill="#000000" font-family="sans-serif" font-size="13" lengthAdjust="spacing" textLength="153" x="475" y="172.6294">List&lt;Lugar&gt; disponiveis</text><polygon fill="#A80036" points="45,202.8281,35,206.8281,45,210.8281,41,206.8281" style="stroke:#A80036;stroke-width:1.0;"/><line style="stroke:#A80036;stroke-width:1.0;stroke-dasharray:2.0,2.0;" x1="39" x2="440" y1="206.8281" y2="206.8281"/><text fill="#000000" font-family="sans-serif" font-size="13" font-weight="bold" lengthAdjust="spacing" textLength="9" x="51" y="201.7622">4</text><text fill="#000000" font-family="sans-serif" font-size="13" lengthAdjust="spacing" textLength="360" x="64" y="201.7622">return(List&lt;Lugar&gt; disponiveis) operação bem sucedida</text><!--MD5=[311813d1db442724ff9e281004228e08]
@startuml
autonumber
actor "Cliente" as SC
participant ":api/lugaresController" as RC
participant ":context" as C

activate SC
SC - -> RC : inicia pesquisa de disponibilidade(localidade, inicio, fim)
activate RC

RC - -> C : FindAvailable(localidade, inicio, fim)
activate C

C - -> RC : List<Lugar> disponiveis
deactivate C

RC - -> SC: return(List<Lugar> disponiveis) operação bem sucedida
deactivate RC
deactivate SC
@enduml

PlantUML version 1.2021.01beta7(Unknown compile time)
(GPL source distribution)
Java Runtime: Java(TM) SE Runtime Environment
JVM: Java HotSpot(TM) 64-Bit Server VM
Default Encoding: UTF-8
Language: en
Country: US
--></g></svg>