<?xml version="1.0" encoding="UTF-8" standalone="no"?><svg xmlns="http://www.w3.org/2000/svg" xmlns:xlink="http://www.w3.org/1999/xlink" contentScriptType="application/ecmascript" contentStyleType="text/css" height="626px" preserveAspectRatio="none" style="width:1743px;height:626px;" version="1.1" viewBox="0 0 1743 626" width="1743px" zoomAndPan="magnify"><defs><filter height="300%" id="f1w5asuuhfhulf" width="300%" x="-1" y="-1"><feGaussianBlur result="blurOut" stdDeviation="2.0"/><feColorMatrix in="blurOut" result="blurOut2" type="matrix" values="0 0 0 0 0 0 0 0 0 0 0 0 0 0 0 0 0 0 .4 0"/><feOffset dx="4.0" dy="4.0" in="blurOut2" result="blurOut3"/><feBlend in="SourceGraphic" in2="blurOut3" mode="normal"/></filter></defs><g><!--MD5=[38129dd771424f36b121b079983d2f41]
class APISistemaCentral--><rect codeLine="5" fill="#FEFECE" filter="url(#f1w5asuuhfhulf)" height="40" id="APISistemaCentral" style="stroke:#A80036;stroke-width:1.5;" width="139" x="7" y="378"/><ellipse cx="22" cy="394" fill="#ADD1B2" rx="11" ry="11" style="stroke:#A80036;stroke-width:1.0;"/><path d="M24.3438,389.6719 C23.4063,389.2344 22.8125,389.0938 21.9375,389.0938 C19.3125,389.0938 17.3125,391.1719 17.3125,393.8906 L17.3125,395.0156 C17.3125,397.5938 19.4219,399.4844 22.3125,399.4844 C23.5313,399.4844 24.6875,399.1875 25.4375,398.6406 C26.0156,398.2344 26.3438,397.7813 26.3438,397.3906 C26.3438,396.9375 25.9531,396.5469 25.4844,396.5469 C25.2656,396.5469 25.0625,396.625 24.875,396.8125 C24.4219,397.2969 24.4219,397.2969 24.2344,397.3906 C23.8125,397.6563 23.125,397.7813 22.3594,397.7813 C20.3125,397.7813 19.0156,396.6875 19.0156,394.9844 L19.0156,393.8906 C19.0156,392.1094 20.2656,390.7969 22,390.7969 C22.5781,390.7969 23.1875,390.9531 23.6563,391.2031 C24.1406,391.4844 24.3125,391.7031 24.4063,392.1094 C24.4688,392.5156 24.5,392.6406 24.6406,392.7656 C24.7813,392.9063 25.0156,393.0156 25.2344,393.0156 C25.5,393.0156 25.7656,392.875 25.9375,392.6563 C26.0469,392.5 26.0781,392.3125 26.0781,391.8906 L26.0781,390.4688 C26.0781,390.0313 26.0625,389.9063 25.9688,389.75 C25.8125,389.4844 25.5313,389.3438 25.2344,389.3438 C24.9375,389.3438 24.7344,389.4375 24.5156,389.75 L24.3438,389.6719 Z " fill="#000000"/><text fill="#000000" font-family="sans-serif" font-size="12" lengthAdjust="spacing" textLength="107" x="36" y="398.1543">APISistemaCentral</text><line style="stroke:#A80036;stroke-width:1.5;" x1="8" x2="145" y1="410" y2="410"/><!--MD5=[1654698dbf1dab33aeaf9b6eaf8a8ac4]
class APIParque--><rect codeLine="7" fill="#FEFECE" filter="url(#f1w5asuuhfhulf)" height="40" id="APIParque" style="stroke:#A80036;stroke-width:1.5;" width="90" x="924.5" y="61"/><ellipse cx="939.5" cy="77" fill="#ADD1B2" rx="11" ry="11" style="stroke:#A80036;stroke-width:1.0;"/><path d="M941.8438,72.6719 C940.9063,72.2344 940.3125,72.0938 939.4375,72.0938 C936.8125,72.0938 934.8125,74.1719 934.8125,76.8906 L934.8125,78.0156 C934.8125,80.5938 936.9219,82.4844 939.8125,82.4844 C941.0313,82.4844 942.1875,82.1875 942.9375,81.6406 C943.5156,81.2344 943.8438,80.7813 943.8438,80.3906 C943.8438,79.9375 943.4531,79.5469 942.9844,79.5469 C942.7656,79.5469 942.5625,79.625 942.375,79.8125 C941.9219,80.2969 941.9219,80.2969 941.7344,80.3906 C941.3125,80.6563 940.625,80.7813 939.8594,80.7813 C937.8125,80.7813 936.5156,79.6875 936.5156,77.9844 L936.5156,76.8906 C936.5156,75.1094 937.7656,73.7969 939.5,73.7969 C940.0781,73.7969 940.6875,73.9531 941.1563,74.2031 C941.6406,74.4844 941.8125,74.7031 941.9063,75.1094 C941.9688,75.5156 942,75.6406 942.1406,75.7656 C942.2813,75.9063 942.5156,76.0156 942.7344,76.0156 C943,76.0156 943.2656,75.875 943.4375,75.6563 C943.5469,75.5 943.5781,75.3125 943.5781,74.8906 L943.5781,73.4688 C943.5781,73.0313 943.5625,72.9063 943.4688,72.75 C943.3125,72.4844 943.0313,72.3438 942.7344,72.3438 C942.4375,72.3438 942.2344,72.4375 942.0156,72.75 L941.8438,72.6719 Z " fill="#000000"/><text fill="#000000" font-family="sans-serif" font-size="12" lengthAdjust="spacing" textLength="58" x="953.5" y="81.1543">APIParque</text><line style="stroke:#A80036;stroke-width:1.5;" x1="925.5" x2="1013.5" y1="93" y2="93"/><!--MD5=[20a748d5ee336a9a91751b0a3d4f0beb]
class Cliente--><rect codeLine="9" fill="#FEFECE" filter="url(#f1w5asuuhfhulf)" height="78.4141" id="Cliente" style="stroke:#A80036;stroke-width:1.5;" width="85" x="627" y="111"/><ellipse cx="647.4" cy="127" fill="#ADD1B2" rx="11" ry="11" style="stroke:#A80036;stroke-width:1.0;"/><path d="M649.7438,122.6719 C648.8063,122.2344 648.2125,122.0938 647.3375,122.0938 C644.7125,122.0938 642.7125,124.1719 642.7125,126.8906 L642.7125,128.0156 C642.7125,130.5938 644.8219,132.4844 647.7125,132.4844 C648.9313,132.4844 650.0875,132.1875 650.8375,131.6406 C651.4156,131.2344 651.7438,130.7813 651.7438,130.3906 C651.7438,129.9375 651.3531,129.5469 650.8844,129.5469 C650.6656,129.5469 650.4625,129.625 650.275,129.8125 C649.8219,130.2969 649.8219,130.2969 649.6344,130.3906 C649.2125,130.6563 648.525,130.7813 647.7594,130.7813 C645.7125,130.7813 644.4156,129.6875 644.4156,127.9844 L644.4156,126.8906 C644.4156,125.1094 645.6656,123.7969 647.4,123.7969 C647.9781,123.7969 648.5875,123.9531 649.0563,124.2031 C649.5406,124.4844 649.7125,124.7031 649.8063,125.1094 C649.8688,125.5156 649.9,125.6406 650.0406,125.7656 C650.1813,125.9063 650.4156,126.0156 650.6344,126.0156 C650.9,126.0156 651.1656,125.875 651.3375,125.6563 C651.4469,125.5 651.4781,125.3125 651.4781,124.8906 L651.4781,123.4688 C651.4781,123.0313 651.4625,122.9063 651.3688,122.75 C651.2125,122.4844 650.9313,122.3438 650.6344,122.3438 C650.3375,122.3438 650.1344,122.4375 649.9156,122.75 L649.7438,122.6719 Z " fill="#000000"/><text fill="#000000" font-family="sans-serif" font-size="12" lengthAdjust="spacing" textLength="41" x="662.6" y="131.1543">Cliente</text><line style="stroke:#A80036;stroke-width:1.5;" x1="628" x2="711" y1="143" y2="143"/><text fill="#000000" font-family="sans-serif" font-size="11" lengthAdjust="spacing" textLength="37" x="633" y="157.2104">-int Nif</text><text fill="#000000" font-family="sans-serif" font-size="11" lengthAdjust="spacing" textLength="73" x="633" y="170.0151">-string Nome</text><text fill="#000000" font-family="sans-serif" font-size="11" lengthAdjust="spacing" textLength="70" x="633" y="182.8198">-string Email</text><!--MD5=[5dd1d6732c071e710b9290b531f2fa3b]
class Utilizador--><rect codeLine="15" fill="#FEFECE" filter="url(#f1w5asuuhfhulf)" height="91.2188" id="Utilizador" style="stroke:#A80036;stroke-width:1.5;" width="181" x="579" y="320.5"/><ellipse cx="636.75" cy="336.5" fill="#ADD1B2" rx="11" ry="11" style="stroke:#A80036;stroke-width:1.0;"/><path d="M639.0938,332.1719 C638.1563,331.7344 637.5625,331.5938 636.6875,331.5938 C634.0625,331.5938 632.0625,333.6719 632.0625,336.3906 L632.0625,337.5156 C632.0625,340.0938 634.1719,341.9844 637.0625,341.9844 C638.2813,341.9844 639.4375,341.6875 640.1875,341.1406 C640.7656,340.7344 641.0938,340.2813 641.0938,339.8906 C641.0938,339.4375 640.7031,339.0469 640.2344,339.0469 C640.0156,339.0469 639.8125,339.125 639.625,339.3125 C639.1719,339.7969 639.1719,339.7969 638.9844,339.8906 C638.5625,340.1563 637.875,340.2813 637.1094,340.2813 C635.0625,340.2813 633.7656,339.1875 633.7656,337.4844 L633.7656,336.3906 C633.7656,334.6094 635.0156,333.2969 636.75,333.2969 C637.3281,333.2969 637.9375,333.4531 638.4063,333.7031 C638.8906,333.9844 639.0625,334.2031 639.1563,334.6094 C639.2188,335.0156 639.25,335.1406 639.3906,335.2656 C639.5313,335.4063 639.7656,335.5156 639.9844,335.5156 C640.25,335.5156 640.5156,335.375 640.6875,335.1563 C640.7969,335 640.8281,334.8125 640.8281,334.3906 L640.8281,332.9688 C640.8281,332.5313 640.8125,332.4063 640.7188,332.25 C640.5625,331.9844 640.2813,331.8438 639.9844,331.8438 C639.6875,331.8438 639.4844,331.9375 639.2656,332.25 L639.0938,332.1719 Z " fill="#000000"/><text fill="#000000" font-family="sans-serif" font-size="12" lengthAdjust="spacing" textLength="57" x="657.25" y="340.6543">Utilizador</text><line style="stroke:#A80036;stroke-width:1.5;" x1="580" x2="759" y1="352.5" y2="352.5"/><text fill="#000000" font-family="sans-serif" font-size="11" lengthAdjust="spacing" textLength="37" x="585" y="366.7104">-int Nif</text><text fill="#000000" font-family="sans-serif" font-size="11" lengthAdjust="spacing" textLength="73" x="585" y="379.5151">-string Nome</text><text fill="#000000" font-family="sans-serif" font-size="11" lengthAdjust="spacing" textLength="70" x="585" y="392.3198">-string Email</text><text fill="#000000" font-family="sans-serif" font-size="11" lengthAdjust="spacing" textLength="169" x="585" y="405.1245">-string Método de pagamento</text><!--MD5=[6ea9d6598d9760662639554c9857ab6b]
class Reserva--><rect codeLine="22" fill="#FEFECE" filter="url(#f1w5asuuhfhulf)" height="40" id="Reserva" style="stroke:#A80036;stroke-width:1.5;" width="81" x="1179" y="221"/><ellipse cx="1194" cy="237" fill="#ADD1B2" rx="11" ry="11" style="stroke:#A80036;stroke-width:1.0;"/><path d="M1196.3438,232.6719 C1195.4063,232.2344 1194.8125,232.0938 1193.9375,232.0938 C1191.3125,232.0938 1189.3125,234.1719 1189.3125,236.8906 L1189.3125,238.0156 C1189.3125,240.5938 1191.4219,242.4844 1194.3125,242.4844 C1195.5313,242.4844 1196.6875,242.1875 1197.4375,241.6406 C1198.0156,241.2344 1198.3438,240.7813 1198.3438,240.3906 C1198.3438,239.9375 1197.9531,239.5469 1197.4844,239.5469 C1197.2656,239.5469 1197.0625,239.625 1196.875,239.8125 C1196.4219,240.2969 1196.4219,240.2969 1196.2344,240.3906 C1195.8125,240.6563 1195.125,240.7813 1194.3594,240.7813 C1192.3125,240.7813 1191.0156,239.6875 1191.0156,237.9844 L1191.0156,236.8906 C1191.0156,235.1094 1192.2656,233.7969 1194,233.7969 C1194.5781,233.7969 1195.1875,233.9531 1195.6563,234.2031 C1196.1406,234.4844 1196.3125,234.7031 1196.4063,235.1094 C1196.4688,235.5156 1196.5,235.6406 1196.6406,235.7656 C1196.7813,235.9063 1197.0156,236.0156 1197.2344,236.0156 C1197.5,236.0156 1197.7656,235.875 1197.9375,235.6563 C1198.0469,235.5 1198.0781,235.3125 1198.0781,234.8906 L1198.0781,233.4688 C1198.0781,233.0313 1198.0625,232.9063 1197.9688,232.75 C1197.8125,232.4844 1197.5313,232.3438 1197.2344,232.3438 C1196.9375,232.3438 1196.7344,232.4375 1196.5156,232.75 L1196.3438,232.6719 Z " fill="#000000"/><text fill="#000000" font-family="sans-serif" font-size="12" lengthAdjust="spacing" textLength="49" x="1208" y="241.1543">Reserva</text><line style="stroke:#A80036;stroke-width:1.5;" x1="1180" x2="1259" y1="253" y2="253"/><!--MD5=[422caa1b20ead34cd492b75378c11008]
class EmailDeConfirmação--><rect codeLine="24" fill="#FEFECE" filter="url(#f1w5asuuhfhulf)" height="40" id="EmailDeConfirmação" style="stroke:#A80036;stroke-width:1.5;" width="155" x="259" y="468"/><ellipse cx="274" cy="484" fill="#ADD1B2" rx="11" ry="11" style="stroke:#A80036;stroke-width:1.0;"/><path d="M276.3438,479.6719 C275.4063,479.2344 274.8125,479.0938 273.9375,479.0938 C271.3125,479.0938 269.3125,481.1719 269.3125,483.8906 L269.3125,485.0156 C269.3125,487.5938 271.4219,489.4844 274.3125,489.4844 C275.5313,489.4844 276.6875,489.1875 277.4375,488.6406 C278.0156,488.2344 278.3438,487.7813 278.3438,487.3906 C278.3438,486.9375 277.9531,486.5469 277.4844,486.5469 C277.2656,486.5469 277.0625,486.625 276.875,486.8125 C276.4219,487.2969 276.4219,487.2969 276.2344,487.3906 C275.8125,487.6563 275.125,487.7813 274.3594,487.7813 C272.3125,487.7813 271.0156,486.6875 271.0156,484.9844 L271.0156,483.8906 C271.0156,482.1094 272.2656,480.7969 274,480.7969 C274.5781,480.7969 275.1875,480.9531 275.6563,481.2031 C276.1406,481.4844 276.3125,481.7031 276.4063,482.1094 C276.4688,482.5156 276.5,482.6406 276.6406,482.7656 C276.7813,482.9063 277.0156,483.0156 277.2344,483.0156 C277.5,483.0156 277.7656,482.875 277.9375,482.6563 C278.0469,482.5 278.0781,482.3125 278.0781,481.8906 L278.0781,480.4688 C278.0781,480.0313 278.0625,479.9063 277.9688,479.75 C277.8125,479.4844 277.5313,479.3438 277.2344,479.3438 C276.9375,479.3438 276.7344,479.4375 276.5156,479.75 L276.3438,479.6719 Z " fill="#000000"/><text fill="#000000" font-family="sans-serif" font-size="12" lengthAdjust="spacing" textLength="123" x="288" y="488.1543">EmailDeConfirmação</text><line style="stroke:#A80036;stroke-width:1.5;" x1="260" x2="413" y1="500" y2="500"/><!--MD5=[ec8f5e6a0bb5c1192bcc4a64c9a89492]
class Preço--><rect codeLine="26" fill="#FEFECE" filter="url(#f1w5asuuhfhulf)" height="40" id="Preço" style="stroke:#A80036;stroke-width:1.5;" width="66" x="1645" y="79"/><ellipse cx="1660" cy="95" fill="#ADD1B2" rx="11" ry="11" style="stroke:#A80036;stroke-width:1.0;"/><path d="M1662.3438,90.6719 C1661.4063,90.2344 1660.8125,90.0938 1659.9375,90.0938 C1657.3125,90.0938 1655.3125,92.1719 1655.3125,94.8906 L1655.3125,96.0156 C1655.3125,98.5938 1657.4219,100.4844 1660.3125,100.4844 C1661.5313,100.4844 1662.6875,100.1875 1663.4375,99.6406 C1664.0156,99.2344 1664.3438,98.7813 1664.3438,98.3906 C1664.3438,97.9375 1663.9531,97.5469 1663.4844,97.5469 C1663.2656,97.5469 1663.0625,97.625 1662.875,97.8125 C1662.4219,98.2969 1662.4219,98.2969 1662.2344,98.3906 C1661.8125,98.6563 1661.125,98.7813 1660.3594,98.7813 C1658.3125,98.7813 1657.0156,97.6875 1657.0156,95.9844 L1657.0156,94.8906 C1657.0156,93.1094 1658.2656,91.7969 1660,91.7969 C1660.5781,91.7969 1661.1875,91.9531 1661.6563,92.2031 C1662.1406,92.4844 1662.3125,92.7031 1662.4063,93.1094 C1662.4688,93.5156 1662.5,93.6406 1662.6406,93.7656 C1662.7813,93.9063 1663.0156,94.0156 1663.2344,94.0156 C1663.5,94.0156 1663.7656,93.875 1663.9375,93.6563 C1664.0469,93.5 1664.0781,93.3125 1664.0781,92.8906 L1664.0781,91.4688 C1664.0781,91.0313 1664.0625,90.9063 1663.9688,90.75 C1663.8125,90.4844 1663.5313,90.3438 1663.2344,90.3438 C1662.9375,90.3438 1662.7344,90.4375 1662.5156,90.75 L1662.3438,90.6719 Z " fill="#000000"/><text fill="#000000" font-family="sans-serif" font-size="12" lengthAdjust="spacing" textLength="34" x="1674" y="99.1543">Preço</text><line style="stroke:#A80036;stroke-width:1.5;" x1="1646" x2="1710" y1="111" y2="111"/><!--MD5=[6f49f9179445ef1754d85aa01a9c4eb7]
class Custo--><rect codeLine="28" fill="#FEFECE" filter="url(#f1w5asuuhfhulf)" height="40" id="Custo" style="stroke:#A80036;stroke-width:1.5;" width="66" x="1439.5" y="219"/><ellipse cx="1454.5" cy="235" fill="#ADD1B2" rx="11" ry="11" style="stroke:#A80036;stroke-width:1.0;"/><path d="M1456.8438,230.6719 C1455.9063,230.2344 1455.3125,230.0938 1454.4375,230.0938 C1451.8125,230.0938 1449.8125,232.1719 1449.8125,234.8906 L1449.8125,236.0156 C1449.8125,238.5938 1451.9219,240.4844 1454.8125,240.4844 C1456.0313,240.4844 1457.1875,240.1875 1457.9375,239.6406 C1458.5156,239.2344 1458.8438,238.7813 1458.8438,238.3906 C1458.8438,237.9375 1458.4531,237.5469 1457.9844,237.5469 C1457.7656,237.5469 1457.5625,237.625 1457.375,237.8125 C1456.9219,238.2969 1456.9219,238.2969 1456.7344,238.3906 C1456.3125,238.6563 1455.625,238.7813 1454.8594,238.7813 C1452.8125,238.7813 1451.5156,237.6875 1451.5156,235.9844 L1451.5156,234.8906 C1451.5156,233.1094 1452.7656,231.7969 1454.5,231.7969 C1455.0781,231.7969 1455.6875,231.9531 1456.1563,232.2031 C1456.6406,232.4844 1456.8125,232.7031 1456.9063,233.1094 C1456.9688,233.5156 1457,233.6406 1457.1406,233.7656 C1457.2813,233.9063 1457.5156,234.0156 1457.7344,234.0156 C1458,234.0156 1458.2656,233.875 1458.4375,233.6563 C1458.5469,233.5 1458.5781,233.3125 1458.5781,232.8906 L1458.5781,231.4688 C1458.5781,231.0313 1458.5625,230.9063 1458.4688,230.75 C1458.3125,230.4844 1458.0313,230.3438 1457.7344,230.3438 C1457.4375,230.3438 1457.2344,230.4375 1457.0156,230.75 L1456.8438,230.6719 Z " fill="#000000"/><text fill="#000000" font-family="sans-serif" font-size="12" lengthAdjust="spacing" textLength="34" x="1468.5" y="239.1543">Custo</text><line style="stroke:#A80036;stroke-width:1.5;" x1="1440.5" x2="1504.5" y1="251" y2="251"/><!--MD5=[1a083dbe42a284ae0ea7f6f701783206]
class Parque--><rect codeLine="30" fill="#FEFECE" filter="url(#f1w5asuuhfhulf)" height="40" id="Parque" style="stroke:#A80036;stroke-width:1.5;" width="73" x="1183" y="20"/><ellipse cx="1198" cy="36" fill="#ADD1B2" rx="11" ry="11" style="stroke:#A80036;stroke-width:1.0;"/><path d="M1200.3438,31.6719 C1199.4063,31.2344 1198.8125,31.0938 1197.9375,31.0938 C1195.3125,31.0938 1193.3125,33.1719 1193.3125,35.8906 L1193.3125,37.0156 C1193.3125,39.5938 1195.4219,41.4844 1198.3125,41.4844 C1199.5313,41.4844 1200.6875,41.1875 1201.4375,40.6406 C1202.0156,40.2344 1202.3438,39.7813 1202.3438,39.3906 C1202.3438,38.9375 1201.9531,38.5469 1201.4844,38.5469 C1201.2656,38.5469 1201.0625,38.625 1200.875,38.8125 C1200.4219,39.2969 1200.4219,39.2969 1200.2344,39.3906 C1199.8125,39.6563 1199.125,39.7813 1198.3594,39.7813 C1196.3125,39.7813 1195.0156,38.6875 1195.0156,36.9844 L1195.0156,35.8906 C1195.0156,34.1094 1196.2656,32.7969 1198,32.7969 C1198.5781,32.7969 1199.1875,32.9531 1199.6563,33.2031 C1200.1406,33.4844 1200.3125,33.7031 1200.4063,34.1094 C1200.4688,34.5156 1200.5,34.6406 1200.6406,34.7656 C1200.7813,34.9063 1201.0156,35.0156 1201.2344,35.0156 C1201.5,35.0156 1201.7656,34.875 1201.9375,34.6563 C1202.0469,34.5 1202.0781,34.3125 1202.0781,33.8906 L1202.0781,32.4688 C1202.0781,32.0313 1202.0625,31.9063 1201.9688,31.75 C1201.8125,31.4844 1201.5313,31.3438 1201.2344,31.3438 C1200.9375,31.3438 1200.7344,31.4375 1200.5156,31.75 L1200.3438,31.6719 Z " fill="#000000"/><text fill="#000000" font-family="sans-serif" font-size="12" lengthAdjust="spacing" textLength="41" x="1212" y="40.1543">Parque</text><line style="stroke:#A80036;stroke-width:1.5;" x1="1184" x2="1255" y1="52" y2="52"/><!--MD5=[6129de384f1bcacbc1ea3ec83eb0d64e]
class Lugar--><rect codeLine="32" fill="#FEFECE" filter="url(#f1w5asuuhfhulf)" height="40" id="Lugar" style="stroke:#A80036;stroke-width:1.5;" width="65" x="1440" y="126"/><ellipse cx="1455" cy="142" fill="#ADD1B2" rx="11" ry="11" style="stroke:#A80036;stroke-width:1.0;"/><path d="M1457.3438,137.6719 C1456.4063,137.2344 1455.8125,137.0938 1454.9375,137.0938 C1452.3125,137.0938 1450.3125,139.1719 1450.3125,141.8906 L1450.3125,143.0156 C1450.3125,145.5938 1452.4219,147.4844 1455.3125,147.4844 C1456.5313,147.4844 1457.6875,147.1875 1458.4375,146.6406 C1459.0156,146.2344 1459.3438,145.7813 1459.3438,145.3906 C1459.3438,144.9375 1458.9531,144.5469 1458.4844,144.5469 C1458.2656,144.5469 1458.0625,144.625 1457.875,144.8125 C1457.4219,145.2969 1457.4219,145.2969 1457.2344,145.3906 C1456.8125,145.6563 1456.125,145.7813 1455.3594,145.7813 C1453.3125,145.7813 1452.0156,144.6875 1452.0156,142.9844 L1452.0156,141.8906 C1452.0156,140.1094 1453.2656,138.7969 1455,138.7969 C1455.5781,138.7969 1456.1875,138.9531 1456.6563,139.2031 C1457.1406,139.4844 1457.3125,139.7031 1457.4063,140.1094 C1457.4688,140.5156 1457.5,140.6406 1457.6406,140.7656 C1457.7813,140.9063 1458.0156,141.0156 1458.2344,141.0156 C1458.5,141.0156 1458.7656,140.875 1458.9375,140.6563 C1459.0469,140.5 1459.0781,140.3125 1459.0781,139.8906 L1459.0781,138.4688 C1459.0781,138.0313 1459.0625,137.9063 1458.9688,137.75 C1458.8125,137.4844 1458.5313,137.3438 1458.2344,137.3438 C1457.9375,137.3438 1457.7344,137.4375 1457.5156,137.75 L1457.3438,137.6719 Z " fill="#000000"/><text fill="#000000" font-family="sans-serif" font-size="12" lengthAdjust="spacing" textLength="33" x="1469" y="146.1543">Lugar</text><line style="stroke:#A80036;stroke-width:1.5;" x1="1441" x2="1504" y1="158" y2="158"/><!--MD5=[53d7157415ddfdf8a565a9d974d385cc]
class Localização--><rect codeLine="34" fill="#FEFECE" filter="url(#f1w5asuuhfhulf)" height="78.4141" id="Localização" style="stroke:#A80036;stroke-width:1.5;" width="102" x="1627" y="154"/><ellipse cx="1642" cy="170" fill="#ADD1B2" rx="11" ry="11" style="stroke:#A80036;stroke-width:1.0;"/><path d="M1644.3438,165.6719 C1643.4063,165.2344 1642.8125,165.0938 1641.9375,165.0938 C1639.3125,165.0938 1637.3125,167.1719 1637.3125,169.8906 L1637.3125,171.0156 C1637.3125,173.5938 1639.4219,175.4844 1642.3125,175.4844 C1643.5313,175.4844 1644.6875,175.1875 1645.4375,174.6406 C1646.0156,174.2344 1646.3438,173.7813 1646.3438,173.3906 C1646.3438,172.9375 1645.9531,172.5469 1645.4844,172.5469 C1645.2656,172.5469 1645.0625,172.625 1644.875,172.8125 C1644.4219,173.2969 1644.4219,173.2969 1644.2344,173.3906 C1643.8125,173.6563 1643.125,173.7813 1642.3594,173.7813 C1640.3125,173.7813 1639.0156,172.6875 1639.0156,170.9844 L1639.0156,169.8906 C1639.0156,168.1094 1640.2656,166.7969 1642,166.7969 C1642.5781,166.7969 1643.1875,166.9531 1643.6563,167.2031 C1644.1406,167.4844 1644.3125,167.7031 1644.4063,168.1094 C1644.4688,168.5156 1644.5,168.6406 1644.6406,168.7656 C1644.7813,168.9063 1645.0156,169.0156 1645.2344,169.0156 C1645.5,169.0156 1645.7656,168.875 1645.9375,168.6563 C1646.0469,168.5 1646.0781,168.3125 1646.0781,167.8906 L1646.0781,166.4688 C1646.0781,166.0313 1646.0625,165.9063 1645.9688,165.75 C1645.8125,165.4844 1645.5313,165.3438 1645.2344,165.3438 C1644.9375,165.3438 1644.7344,165.4375 1644.5156,165.75 L1644.3438,165.6719 Z " fill="#000000"/><text fill="#000000" font-family="sans-serif" font-size="12" lengthAdjust="spacing" textLength="70" x="1656" y="174.1543">Localização</text><line style="stroke:#A80036;stroke-width:1.5;" x1="1628" x2="1728" y1="186" y2="186"/><text fill="#000000" font-family="sans-serif" font-size="11" lengthAdjust="spacing" textLength="67" x="1633" y="200.2104">-int Numero</text><text fill="#000000" font-family="sans-serif" font-size="11" lengthAdjust="spacing" textLength="41" x="1633" y="213.0151">-int Fila</text><text fill="#000000" font-family="sans-serif" font-size="11" lengthAdjust="spacing" textLength="55" x="1633" y="225.8198">-int Andar</text><!--MD5=[15ae23301f4536208a2daf13431a8a82]
class SubAluguer--><rect codeLine="40" fill="#FEFECE" filter="url(#f1w5asuuhfhulf)" height="40" id="SubAluguer" style="stroke:#A80036;stroke-width:1.5;" width="101" x="919" y="381"/><ellipse cx="934" cy="397" fill="#ADD1B2" rx="11" ry="11" style="stroke:#A80036;stroke-width:1.0;"/><path d="M936.3438,392.6719 C935.4063,392.2344 934.8125,392.0938 933.9375,392.0938 C931.3125,392.0938 929.3125,394.1719 929.3125,396.8906 L929.3125,398.0156 C929.3125,400.5938 931.4219,402.4844 934.3125,402.4844 C935.5313,402.4844 936.6875,402.1875 937.4375,401.6406 C938.0156,401.2344 938.3438,400.7813 938.3438,400.3906 C938.3438,399.9375 937.9531,399.5469 937.4844,399.5469 C937.2656,399.5469 937.0625,399.625 936.875,399.8125 C936.4219,400.2969 936.4219,400.2969 936.2344,400.3906 C935.8125,400.6563 935.125,400.7813 934.3594,400.7813 C932.3125,400.7813 931.0156,399.6875 931.0156,397.9844 L931.0156,396.8906 C931.0156,395.1094 932.2656,393.7969 934,393.7969 C934.5781,393.7969 935.1875,393.9531 935.6563,394.2031 C936.1406,394.4844 936.3125,394.7031 936.4063,395.1094 C936.4688,395.5156 936.5,395.6406 936.6406,395.7656 C936.7813,395.9063 937.0156,396.0156 937.2344,396.0156 C937.5,396.0156 937.7656,395.875 937.9375,395.6563 C938.0469,395.5 938.0781,395.3125 938.0781,394.8906 L938.0781,393.4688 C938.0781,393.0313 938.0625,392.9063 937.9688,392.75 C937.8125,392.4844 937.5313,392.3438 937.2344,392.3438 C936.9375,392.3438 936.7344,392.4375 936.5156,392.75 L936.3438,392.6719 Z " fill="#000000"/><text fill="#000000" font-family="sans-serif" font-size="12" lengthAdjust="spacing" textLength="69" x="948" y="401.1543">SubAluguer</text><line style="stroke:#A80036;stroke-width:1.5;" x1="920" x2="1019" y1="413" y2="413"/><!--MD5=[ec92ce9971d25c6d018a00153947441a]
class MétodoDePagamento--><rect codeLine="42" fill="#FEFECE" filter="url(#f1w5asuuhfhulf)" height="40" id="MétodoDePagamento" style="stroke:#A80036;stroke-width:1.5;" width="161" x="256" y="306"/><ellipse cx="271" cy="322" fill="#ADD1B2" rx="11" ry="11" style="stroke:#A80036;stroke-width:1.0;"/><path d="M273.3438,317.6719 C272.4063,317.2344 271.8125,317.0938 270.9375,317.0938 C268.3125,317.0938 266.3125,319.1719 266.3125,321.8906 L266.3125,323.0156 C266.3125,325.5938 268.4219,327.4844 271.3125,327.4844 C272.5313,327.4844 273.6875,327.1875 274.4375,326.6406 C275.0156,326.2344 275.3438,325.7813 275.3438,325.3906 C275.3438,324.9375 274.9531,324.5469 274.4844,324.5469 C274.2656,324.5469 274.0625,324.625 273.875,324.8125 C273.4219,325.2969 273.4219,325.2969 273.2344,325.3906 C272.8125,325.6563 272.125,325.7813 271.3594,325.7813 C269.3125,325.7813 268.0156,324.6875 268.0156,322.9844 L268.0156,321.8906 C268.0156,320.1094 269.2656,318.7969 271,318.7969 C271.5781,318.7969 272.1875,318.9531 272.6563,319.2031 C273.1406,319.4844 273.3125,319.7031 273.4063,320.1094 C273.4688,320.5156 273.5,320.6406 273.6406,320.7656 C273.7813,320.9063 274.0156,321.0156 274.2344,321.0156 C274.5,321.0156 274.7656,320.875 274.9375,320.6563 C275.0469,320.5 275.0781,320.3125 275.0781,319.8906 L275.0781,318.4688 C275.0781,318.0313 275.0625,317.9063 274.9688,317.75 C274.8125,317.4844 274.5313,317.3438 274.2344,317.3438 C273.9375,317.3438 273.7344,317.4375 273.5156,317.75 L273.3438,317.6719 Z " fill="#000000"/><text fill="#000000" font-family="sans-serif" font-size="12" lengthAdjust="spacing" textLength="129" x="285" y="326.1543">MétodoDePagamento</text><line style="stroke:#A80036;stroke-width:1.5;" x1="257" x2="416" y1="338" y2="338"/><!--MD5=[db710054b49517484ab0764fde030c77]
class APIQRCode--><rect codeLine="44" fill="#FEFECE" filter="url(#f1w5asuuhfhulf)" height="40" id="APIQRCode" style="stroke:#A80036;stroke-width:1.5;" width="98" x="620.5" y="539.0004"/><ellipse cx="635.5" cy="555.0004" fill="#ADD1B2" rx="11" ry="11" style="stroke:#A80036;stroke-width:1.0;"/><path d="M637.8438,550.6723 C636.9063,550.2348 636.3125,550.0942 635.4375,550.0942 C632.8125,550.0942 630.8125,552.1723 630.8125,554.891 L630.8125,556.016 C630.8125,558.5942 632.9219,560.4848 635.8125,560.4848 C637.0313,560.4848 638.1875,560.1879 638.9375,559.641 C639.5156,559.2348 639.8438,558.7817 639.8438,558.391 C639.8438,557.9379 639.4531,557.5473 638.9844,557.5473 C638.7656,557.5473 638.5625,557.6254 638.375,557.8129 C637.9219,558.2973 637.9219,558.2973 637.7344,558.391 C637.3125,558.6567 636.625,558.7817 635.8594,558.7817 C633.8125,558.7817 632.5156,557.6879 632.5156,555.9848 L632.5156,554.891 C632.5156,553.1098 633.7656,551.7973 635.5,551.7973 C636.0781,551.7973 636.6875,551.9535 637.1563,552.2035 C637.6406,552.4848 637.8125,552.7035 637.9063,553.1098 C637.9688,553.516 638,553.641 638.1406,553.766 C638.2813,553.9067 638.5156,554.016 638.7344,554.016 C639,554.016 639.2656,553.8754 639.4375,553.6567 C639.5469,553.5004 639.5781,553.3129 639.5781,552.891 L639.5781,551.4692 C639.5781,551.0317 639.5625,550.9067 639.4688,550.7504 C639.3125,550.4848 639.0313,550.3442 638.7344,550.3442 C638.4375,550.3442 638.2344,550.4379 638.0156,550.7504 L637.8438,550.6723 Z " fill="#000000"/><text fill="#000000" font-family="sans-serif" font-size="12" lengthAdjust="spacing" textLength="66" x="649.5" y="559.1547">APIQRCode</text><line style="stroke:#A80036;stroke-width:1.5;" x1="621.5" x2="717.5" y1="571.0004" y2="571.0004"/><!--MD5=[3008f5efaa3e7cb421914c717b209816]
class Duração--><rect codeLine="46" fill="#FEFECE" filter="url(#f1w5asuuhfhulf)" height="65.6094" id="Duração" style="stroke:#A80036;stroke-width:1.5;" width="104" x="1420.5" y="294"/><ellipse cx="1445.4" cy="310" fill="#ADD1B2" rx="11" ry="11" style="stroke:#A80036;stroke-width:1.0;"/><path d="M1447.7438,305.6719 C1446.8063,305.2344 1446.2125,305.0938 1445.3375,305.0938 C1442.7125,305.0938 1440.7125,307.1719 1440.7125,309.8906 L1440.7125,311.0156 C1440.7125,313.5938 1442.8219,315.4844 1445.7125,315.4844 C1446.9313,315.4844 1448.0875,315.1875 1448.8375,314.6406 C1449.4156,314.2344 1449.7438,313.7813 1449.7438,313.3906 C1449.7438,312.9375 1449.3531,312.5469 1448.8844,312.5469 C1448.6656,312.5469 1448.4625,312.625 1448.275,312.8125 C1447.8219,313.2969 1447.8219,313.2969 1447.6344,313.3906 C1447.2125,313.6563 1446.525,313.7813 1445.7594,313.7813 C1443.7125,313.7813 1442.4156,312.6875 1442.4156,310.9844 L1442.4156,309.8906 C1442.4156,308.1094 1443.6656,306.7969 1445.4,306.7969 C1445.9781,306.7969 1446.5875,306.9531 1447.0563,307.2031 C1447.5406,307.4844 1447.7125,307.7031 1447.8063,308.1094 C1447.8688,308.5156 1447.9,308.6406 1448.0406,308.7656 C1448.1813,308.9063 1448.4156,309.0156 1448.6344,309.0156 C1448.9,309.0156 1449.1656,308.875 1449.3375,308.6563 C1449.4469,308.5 1449.4781,308.3125 1449.4781,307.8906 L1449.4781,306.4688 C1449.4781,306.0313 1449.4625,305.9063 1449.3688,305.75 C1449.2125,305.4844 1448.9313,305.3438 1448.6344,305.3438 C1448.3375,305.3438 1448.1344,305.4375 1447.9156,305.75 L1447.7438,305.6719 Z " fill="#000000"/><text fill="#000000" font-family="sans-serif" font-size="12" lengthAdjust="spacing" textLength="50" x="1461.6" y="314.1543">Duração</text><line style="stroke:#A80036;stroke-width:1.5;" x1="1421.5" x2="1523.5" y1="326" y2="326"/><text fill="#000000" font-family="sans-serif" font-size="11" lengthAdjust="spacing" textLength="92" x="1426.5" y="340.2104">-dateTime Inicio</text><text fill="#000000" font-family="sans-serif" font-size="11" lengthAdjust="spacing" textLength="83" x="1426.5" y="353.0151">-dateTime Fim</text><!--MD5=[77c6229b59f71ada4b7bed0495e5baba]
class Morada--><rect codeLine="51" fill="#FEFECE" filter="url(#f1w5asuuhfhulf)" height="65.6094" id="Morada" style="stroke:#A80036;stroke-width:1.5;" width="107" x="1419" y="7"/><ellipse cx="1447.5" cy="23" fill="#ADD1B2" rx="11" ry="11" style="stroke:#A80036;stroke-width:1.0;"/><path d="M1449.8438,18.6719 C1448.9063,18.2344 1448.3125,18.0938 1447.4375,18.0938 C1444.8125,18.0938 1442.8125,20.1719 1442.8125,22.8906 L1442.8125,24.0156 C1442.8125,26.5938 1444.9219,28.4844 1447.8125,28.4844 C1449.0313,28.4844 1450.1875,28.1875 1450.9375,27.6406 C1451.5156,27.2344 1451.8438,26.7813 1451.8438,26.3906 C1451.8438,25.9375 1451.4531,25.5469 1450.9844,25.5469 C1450.7656,25.5469 1450.5625,25.625 1450.375,25.8125 C1449.9219,26.2969 1449.9219,26.2969 1449.7344,26.3906 C1449.3125,26.6563 1448.625,26.7813 1447.8594,26.7813 C1445.8125,26.7813 1444.5156,25.6875 1444.5156,23.9844 L1444.5156,22.8906 C1444.5156,21.1094 1445.7656,19.7969 1447.5,19.7969 C1448.0781,19.7969 1448.6875,19.9531 1449.1563,20.2031 C1449.6406,20.4844 1449.8125,20.7031 1449.9063,21.1094 C1449.9688,21.5156 1450,21.6406 1450.1406,21.7656 C1450.2813,21.9063 1450.5156,22.0156 1450.7344,22.0156 C1451,22.0156 1451.2656,21.875 1451.4375,21.6563 C1451.5469,21.5 1451.5781,21.3125 1451.5781,20.8906 L1451.5781,19.4688 C1451.5781,19.0313 1451.5625,18.9063 1451.4688,18.75 C1451.3125,18.4844 1451.0313,18.3438 1450.7344,18.3438 C1450.4375,18.3438 1450.2344,18.4375 1450.0156,18.75 L1449.8438,18.6719 Z " fill="#000000"/><text fill="#000000" font-family="sans-serif" font-size="12" lengthAdjust="spacing" textLength="45" x="1464.5" y="27.1543">Morada</text><line style="stroke:#A80036;stroke-width:1.5;" x1="1420" x2="1525" y1="39" y2="39"/><text fill="#000000" font-family="sans-serif" font-size="11" lengthAdjust="spacing" textLength="60" x="1425" y="53.2104">-string Rua</text><text fill="#000000" font-family="sans-serif" font-size="11" lengthAdjust="spacing" textLength="95" x="1425" y="66.0151">-string Freguesia</text><!--MD5=[d0b076322fca75d93501f04c1a1688f9]
link APISistemaCentral to Cliente--><path codeLine="56" d="M81.8972,377.995 C91.5299,339.353 118.393,254.761 176,215 C317.072,117.632 535.949,132.272 626.79,143.69 " fill="none" id="APISistemaCentral-Cliente" style="stroke:#A80036;stroke-width:1.0;"/><polygon fill="#000000" points="334.5933,129.5913,325.1229,130.4644,327.4449,135.8642,334.5933,129.5913" style="stroke:#000000;stroke-width:1.0;"/><text fill="#000000" font-family="sans-serif" font-size="13" lengthAdjust="spacing" textLength="8" x="339" y="136.0669">é</text><text fill="#000000" font-family="sans-serif" font-size="13" lengthAdjust="spacing" textLength="8" x="74.3076" y="367.0018">1</text><text fill="#000000" font-family="sans-serif" font-size="13" lengthAdjust="spacing" textLength="8" x="611.0537" y="155.9307">1</text><!--MD5=[7ebaec570886048606a7307f203d3561]
link APISistemaCentral to Reserva--><path codeLine="57" d="M94.9485,377.797 C133.628,335.394 231.42,241 335.5,241 C335.5,241 335.5,241 970.5,241 C1044.12,241 1130.04,241 1178.98,241 " fill="none" id="APISistemaCentral-Reserva" style="stroke:#A80036;stroke-width:1.0;"/><polygon fill="#000000" points="651.4607,231.9404,642.1188,230.157,642.8547,235.9887,651.4607,231.9404" style="stroke:#000000;stroke-width:1.0;"/><text fill="#000000" font-family="sans-serif" font-size="13" lengthAdjust="spacing" textLength="41" x="655.5" y="237.0669">possui</text><text fill="#000000" font-family="sans-serif" font-size="13" lengthAdjust="spacing" textLength="8" x="91.0121" y="367.0911">1</text><text fill="#000000" font-family="sans-serif" font-size="13" lengthAdjust="spacing" textLength="15" x="1156.0267" y="254.3201">0*</text><!--MD5=[2be4e2485f6429e226a7cf3e69e5d4db]
link APISistemaCentral to Utilizador--><path codeLine="58" d="M146.111,394.757 C214.693,391.47 323.16,386.148 417,381 C470.72,378.053 530.878,374.476 578.885,371.553 " fill="none" id="APISistemaCentral-Utilizador" style="stroke:#A80036;stroke-width:1.0;"/><polygon fill="#000000" points="318.4928,372.2987,309.3034,369.8483,309.6181,375.7177,318.4928,372.2987" style="stroke:#000000;stroke-width:1.0;"/><text fill="#000000" font-family="sans-serif" font-size="13" lengthAdjust="spacing" textLength="41" x="322.5" y="377.0669">possui</text><text fill="#000000" font-family="sans-serif" font-size="13" lengthAdjust="spacing" textLength="8" x="154.1622" y="407.2968">1</text><text fill="#000000" font-family="sans-serif" font-size="13" lengthAdjust="spacing" textLength="15" x="556.0665" y="384.6566">0*</text><!--MD5=[76c6aa6dbc5e70634267b8f8c5324695]
link APISistemaCentral to MétodoDePagamento--><path codeLine="59" d="M146.3,378.8 C182.574,368.677 227.034,356.27 263.739,346.027 " fill="none" id="APISistemaCentral-MétodoDePagamento" style="stroke:#A80036;stroke-width:1.0;"/><polygon fill="#000000" points="190.316,347.2224,180.8138,346.8229,182.3937,352.4845,190.316,347.2224" style="stroke:#000000;stroke-width:1.0;"/><text fill="#000000" font-family="sans-serif" font-size="13" lengthAdjust="spacing" textLength="26" x="194.5" y="353.0669">tem</text><text fill="#000000" font-family="sans-serif" font-size="13" lengthAdjust="spacing" textLength="8" x="153.9106" y="389.6672">1</text><text fill="#000000" font-family="sans-serif" font-size="13" lengthAdjust="spacing" textLength="15" x="232.9376" y="363.5263">1*</text><!--MD5=[8e96fee9880a4ba3b131d16794c405f4]
link APISistemaCentral to APIQRCode--><path codeLine="60" d="M94.1864,418.184 C123.095,451.434 186.138,516.665 256,543.0004 C380.4,589.8944 541.104,577.2297 620.182,566.6977 " fill="none" id="APISistemaCentral-APIQRCode" style="stroke:#A80036;stroke-width:1.0;"/><polygon fill="#000000" points="327.3119,535.9254,319.4057,530.6393,317.8085,536.296,327.3119,535.9254" style="stroke:#000000;stroke-width:1.0;"/><text fill="#000000" font-family="sans-serif" font-size="13" lengthAdjust="spacing" textLength="23" x="331.5" y="539.0673">usa</text><text fill="#000000" font-family="sans-serif" font-size="13" lengthAdjust="spacing" textLength="8" x="100.2857" y="438.0557">1</text><text fill="#000000" font-family="sans-serif" font-size="13" lengthAdjust="spacing" textLength="8" x="604.3509" y="581.0065">1</text><!--MD5=[1e30445b45991c0f6b0377df5c4b1f9b]
link APISistemaCentral to EmailDeConfirmação--><path codeLine="61" d="M120.179,418.021 C137.332,425.7 157.414,434.235 176,441 C203.127,450.874 233.399,460.206 260.219,467.912 " fill="none" id="APISistemaCentral-EmailDeConfirmação" style="stroke:#A80036;stroke-width:1.0;"/><polygon fill="#000000" points="185.71,434.2444,178.1758,428.4404,176.2032,433.9774,185.71,434.2444" style="stroke:#000000;stroke-width:1.0;"/><text fill="#000000" font-family="sans-serif" font-size="13" lengthAdjust="spacing" textLength="35" x="190" y="437.0669">envia</text><text fill="#000000" font-family="sans-serif" font-size="13" lengthAdjust="spacing" textLength="8" x="123.8347" y="438.1917">1</text><text fill="#000000" font-family="sans-serif" font-size="13" lengthAdjust="spacing" textLength="15" x="236.0555" y="461.9687">0*</text><!--MD5=[e5fcc2a48c85fe2f47cefd50ae821e7e]
link APISistemaCentral to SubAluguer--><path codeLine="62" d="M88.2777,418.34 C104.3587,447.244 136.962,500.615 176,536.0004 C267.77,619.1847 323.292,594.8625 447,601.0004 C517.245,604.4856 756.55,598.0188 760,597.0004 C824.703,577.9011 840.218,563.6014 889,517.0004 C919.188,488.162 944.518,446.093 958.011,421.335 " fill="none" id="APISistemaCentral-SubAluguer" style="stroke:#A80036;stroke-width:1.0;"/><polygon fill="#000000" points="457,592.584,447.9651,589.614,447.9448,595.4918,457,592.584" style="stroke:#000000;stroke-width:1.0;"/><text fill="#000000" font-family="sans-serif" font-size="13" lengthAdjust="spacing" textLength="87" x="461" y="597.0673">permite fazer</text><text fill="#000000" font-family="sans-serif" font-size="13" lengthAdjust="spacing" textLength="8" x="82.368" y="437.9067">1</text><text fill="#000000" font-family="sans-serif" font-size="13" lengthAdjust="spacing" textLength="15" x="937.9077" y="440.9004">0*</text><!--MD5=[1fe00d9aa06cae4131be0830c01d75e9]
link APIParque to Parque--><path codeLine="64" d="M1014.55,73.718 C1062.57,65.779 1138.48,53.23 1182.89,45.888 " fill="none" id="APIParque-Parque" style="stroke:#A80036;stroke-width:1.0;"/><polygon fill="#000000" points="1059.933,43.7509,1050.5297,42.3266,1051.4884,48.1258,1059.933,43.7509" style="stroke:#000000;stroke-width:1.0;"/><text fill="#000000" font-family="sans-serif" font-size="13" lengthAdjust="spacing" textLength="84" x="1064" y="49.0669">é referente a</text><text fill="#000000" font-family="sans-serif" font-size="13" lengthAdjust="spacing" textLength="8" x="1022.3673" y="85.8302">1</text><text fill="#000000" font-family="sans-serif" font-size="13" lengthAdjust="spacing" textLength="15" x="1160.0329" y="60.3515">1*</text><!--MD5=[72a1d6bba75ee92fed661f2768de78fb]
link APIParque to Reserva--><path codeLine="65" d="M1014.86,90.468 C1060.48,100.845 1127.76,118.134 1149,134 C1179.34,156.672 1200.16,196.798 1210.64,220.944 " fill="none" id="APIParque-Reserva" style="stroke:#A80036;stroke-width:1.0;"/><polygon fill="#000000" points="1080.6607,94.3393,1074.7638,86.8775,1071.5041,91.7687,1080.6607,94.3393" style="stroke:#000000;stroke-width:1.0;"/><text fill="#000000" font-family="sans-serif" font-size="13" lengthAdjust="spacing" textLength="41" x="1085.5" y="96.0669">possui</text><text fill="#000000" font-family="sans-serif" font-size="13" lengthAdjust="spacing" textLength="8" x="1022.4183" y="105.1433">1</text><text fill="#000000" font-family="sans-serif" font-size="13" lengthAdjust="spacing" textLength="15" x="1190.8343" y="209.9358">0*</text><!--MD5=[55a59268352d08cbaca9c2ff75c5c8f9]
link Cliente to Reserva--><path codeLine="67" d="M712.053,152.519 C795.813,158.276 990.462,175.11 1149,215 C1158.87,217.484 1169.27,220.91 1178.92,224.462 " fill="none" id="Cliente-Reserva" style="stroke:#A80036;stroke-width:1.0;"/><polygon fill="#000000" points="957.4417,166.3279,948.9497,162.0457,948.0545,167.855,957.4417,166.3279" style="stroke:#000000;stroke-width:1.0;"/><text fill="#000000" font-family="sans-serif" font-size="13" lengthAdjust="spacing" textLength="29" x="961.5" y="170.0669">gere</text><text fill="#000000" font-family="sans-serif" font-size="13" lengthAdjust="spacing" textLength="8" x="720.0543" y="166.2837">1</text><text fill="#000000" font-family="sans-serif" font-size="13" lengthAdjust="spacing" textLength="15" x="1155.9568" y="235.043">0*</text><!--MD5=[3f0b9e36c3799f23c457718e45148a47]
link Cliente to APIParque--><path codeLine="68" d="M712.249,140.334 C768.153,127.389 866.907,104.524 924.12,91.276 " fill="none" id="Cliente-APIParque" style="stroke:#A80036;stroke-width:1.0;"/><polygon fill="#000000" points="811.6289,92.6943,821.1038,93.5171,819.7779,87.7907,811.6289,92.6943" style="stroke:#000000;stroke-width:1.0;"/><text fill="#000000" font-family="sans-serif" font-size="13" lengthAdjust="spacing" textLength="41" x="825.5" y="96.0669">possui</text><text fill="#000000" font-family="sans-serif" font-size="13" lengthAdjust="spacing" textLength="15" x="719.9434" y="152.0477">0*</text><text fill="#000000" font-family="sans-serif" font-size="13" lengthAdjust="spacing" textLength="8" x="908.5587" y="106.075">1</text><!--MD5=[1492914144cf663272cc43c5021c3ad7]
link Utilizador to Reserva--><path codeLine="70" d="M760.131,351.706 C857.033,335.27 1015.54,305.523 1149,267 C1158.78,264.178 1169.14,260.622 1178.79,257.053 " fill="none" id="Utilizador-Reserva" style="stroke:#A80036;stroke-width:1.0;"/><polygon fill="#000000" points="957.3769,290.4638,947.9064,289.5919,949.2026,295.325,957.3769,290.4638" style="stroke:#000000;stroke-width:1.0;"/><text fill="#000000" font-family="sans-serif" font-size="13" lengthAdjust="spacing" textLength="29" x="961.5" y="296.0669">gere</text><text fill="#000000" font-family="sans-serif" font-size="13" lengthAdjust="spacing" textLength="8" x="767.9676" y="363.2067">1</text><text fill="#000000" font-family="sans-serif" font-size="13" lengthAdjust="spacing" textLength="15" x="1156.1065" y="272.8842">0*</text><!--MD5=[9546632d76aeb95481d4dc97fc6ae240]
link Utilizador to SubAluguer--><path codeLine="71" d="M760.314,376.549 C812.241,382.648 875.619,390.092 918.709,395.152 " fill="none" id="Utilizador-SubAluguer" style="stroke:#A80036;stroke-width:1.0;"/><polygon fill="#000000" points="831.9659,372.1496,823.3253,368.1757,822.6397,374.0134,831.9659,372.1496" style="stroke:#000000;stroke-width:1.0;"/><text fill="#000000" font-family="sans-serif" font-size="13" lengthAdjust="spacing" textLength="20" x="836" y="376.0669">faz</text><text fill="#000000" font-family="sans-serif" font-size="13" lengthAdjust="spacing" textLength="8" x="767.8695" y="390.0508">1</text><text fill="#000000" font-family="sans-serif" font-size="13" lengthAdjust="spacing" textLength="15" x="895.8761" y="407.4498">0*</text><!--MD5=[d75ccf407ddc5af61a41230a97fe5acc]
link Reserva to Lugar--><path codeLine="73" d="M1260.27,225.947 C1310.04,207.112 1394.25,175.24 1439.86,157.975 " fill="none" id="Reserva-Lugar" style="stroke:#A80036;stroke-width:1.0;"/><polygon fill="#000000" points="1299.6763,169.7965,1290.1765,170.2496,1292.2571,175.7469,1299.6763,169.7965" style="stroke:#000000;stroke-width:1.0;"/><text fill="#000000" font-family="sans-serif" font-size="13" lengthAdjust="spacing" textLength="84" x="1304" y="176.0669">é referente a</text><text fill="#000000" font-family="sans-serif" font-size="13" lengthAdjust="spacing" textLength="15" x="1267.963" y="236.8207">0*</text><text fill="#000000" font-family="sans-serif" font-size="13" lengthAdjust="spacing" textLength="8" x="1423.845" y="174.3166">1</text><!--MD5=[394e3bec980ca78a75a075ce7537c7d8]
link Reserva to Custo--><path codeLine="74" d="M1260.27,240.683 C1309.9,240.288 1393.78,239.62 1439.48,239.256 " fill="none" id="Reserva-Custo" style="stroke:#A80036;stroke-width:1.0;"/><polygon fill="#000000" points="1328.9998,231.5266,1319.9316,228.6598,1319.9784,234.5374,1328.9998,231.5266" style="stroke:#000000;stroke-width:1.0;"/><text fill="#000000" font-family="sans-serif" font-size="13" lengthAdjust="spacing" textLength="26" x="1333" y="236.0669">tem</text><text fill="#000000" font-family="sans-serif" font-size="13" lengthAdjust="spacing" textLength="8" x="1267.9648" y="253.9959">1</text><text fill="#000000" font-family="sans-serif" font-size="13" lengthAdjust="spacing" textLength="8" x="1423.3819" y="253.034">1</text><!--MD5=[3147b653d631aff453645938f05f69e4]
link Reserva to Duração--><path codeLine="75" d="M1260.14,255.423 C1269.89,258.925 1280.31,262.63 1290,266 C1333.8,281.236 1383.76,297.981 1420.16,310.065 " fill="none" id="Reserva-Duração" style="stroke:#A80036;stroke-width:1.0;"/><polygon fill="#000000" points="1328.7317,259.1822,1321.1217,253.478,1319.2222,259.0405,1328.7317,259.1822" style="stroke:#000000;stroke-width:1.0;"/><text fill="#000000" font-family="sans-serif" font-size="13" lengthAdjust="spacing" textLength="26" x="1333" y="262.0669">tem</text><text fill="#000000" font-family="sans-serif" font-size="13" lengthAdjust="spacing" textLength="8" x="1268.0915" y="271.4068">1</text><text fill="#000000" font-family="sans-serif" font-size="13" lengthAdjust="spacing" textLength="8" x="1404.5893" y="320.8992">1</text><!--MD5=[56324d45d85896dd9362f79db6a3f999]
link EmailDeConfirmação to Reserva--><path codeLine="77" d="M414.2,488.012 C541.238,486.803 802.863,479.103 1020,439 C1078.9,428.122 1104.21,439.771 1149,400 C1191.24,362.494 1208.89,294.634 1215.31,261.004 " fill="none" id="EmailDeConfirmação-Reserva" style="stroke:#A80036;stroke-width:1.0;"/><polygon fill="#000000" points="799.8106,449.2032,790.3069,448.8416,791.9094,454.4968,799.8106,449.2032" style="stroke:#000000;stroke-width:1.0;"/><text fill="#000000" font-family="sans-serif" font-size="13" lengthAdjust="spacing" textLength="84" x="804" y="455.0669">é referente a</text><text fill="#000000" font-family="sans-serif" font-size="13" lengthAdjust="spacing" textLength="8" x="421.987" y="500.8012">1</text><text fill="#000000" font-family="sans-serif" font-size="13" lengthAdjust="spacing" textLength="8" x="1204.9042" y="281.1697">1</text><!--MD5=[3e39808c68d75979d0227602cd2392f7]
link Lugar to Preço--><path codeLine="79" d="M1505.3,138.657 C1543.3,129.879 1606.55,115.271 1644.75,106.448 " fill="none" id="Lugar-Preço" style="stroke:#A80036;stroke-width:1.0;"/><polygon fill="#000000" points="1565.8717,109.4412,1556.3973,108.6132,1557.7201,114.3403,1565.8717,109.4412" style="stroke:#000000;stroke-width:1.0;"/><text fill="#000000" font-family="sans-serif" font-size="13" lengthAdjust="spacing" textLength="26" x="1570" y="115.0669">tem</text><text fill="#000000" font-family="sans-serif" font-size="13" lengthAdjust="spacing" textLength="8" x="1512.89" y="150.77">1</text><text fill="#000000" font-family="sans-serif" font-size="13" lengthAdjust="spacing" textLength="8" x="1629.0672" y="121.6116">1</text><!--MD5=[72517315f51e3c1cfdb97a2270c0d927]
link Parque to Lugar--><path codeLine="81" d="M1256.2,55.075 C1305.33,75.823 1393.02,112.856 1439.89,132.652 " fill="none" id="Parque-Lugar" style="stroke:#A80036;stroke-width:1.0;"/><polygon fill="#000000" points="1328.6061,65.5117,1321.417,59.2853,1319.1302,64.7,1328.6061,65.5117" style="stroke:#000000;stroke-width:1.0;"/><text fill="#000000" font-family="sans-serif" font-size="13" lengthAdjust="spacing" textLength="26" x="1333" y="68.0669">tem</text><text fill="#000000" font-family="sans-serif" font-size="13" lengthAdjust="spacing" textLength="8" x="1263.9584" y="71.4579">1</text><text fill="#000000" font-family="sans-serif" font-size="13" lengthAdjust="spacing" textLength="15" x="1416.9933" y="143.5806">1*</text><!--MD5=[3f7724b18204e3b9d88ba74c97f9e53e]
link Parque to Morada--><path codeLine="82" d="M1256.2,40 C1298.69,40 1370.04,40 1418.87,40 " fill="none" id="Parque-Morada" style="stroke:#A80036;stroke-width:1.0;"/><polygon fill="#000000" points="1329,31.5664,1319.9549,28.6275,1319.9549,34.5053,1329,31.5664" style="stroke:#000000;stroke-width:1.0;"/><text fill="#000000" font-family="sans-serif" font-size="13" lengthAdjust="spacing" textLength="26" x="1333" y="36.0669">tem</text><text fill="#000000" font-family="sans-serif" font-size="13" lengthAdjust="spacing" textLength="8" x="1263.9584" y="53.5092">1</text><text fill="#000000" font-family="sans-serif" font-size="13" lengthAdjust="spacing" textLength="8" x="1403.126" y="53.1099">1</text><!--MD5=[5f363e7da27d4325081f8fe75b17f797]
link Lugar to Localização--><path codeLine="84" d="M1505.3,153.344 C1537.83,160.857 1588.84,172.64 1626.83,181.413 " fill="none" id="Lugar-Localização" style="stroke:#A80036;stroke-width:1.0;"/><polygon fill="#000000" points="1565.8717,158.6916,1557.72,153.7926,1556.3973,159.5196,1565.8717,158.6916" style="stroke:#000000;stroke-width:1.0;"/><text fill="#000000" font-family="sans-serif" font-size="13" lengthAdjust="spacing" textLength="26" x="1570" y="162.0669">tem</text><text fill="#000000" font-family="sans-serif" font-size="13" lengthAdjust="spacing" textLength="8" x="1512.89" y="168.4862">1</text><text fill="#000000" font-family="sans-serif" font-size="13" lengthAdjust="spacing" textLength="8" x="1611.0717" y="192.8854">1</text><!--MD5=[5d7300fd354e8d9cb95ffaec1da927e3]
link SubAluguer to Reserva--><path codeLine="86" d="M1020.24,397.868 C1058.65,393.248 1111.43,381.882 1149,354 C1181.18,330.118 1201.72,286.498 1211.58,261.004 " fill="none" id="SubAluguer-Reserva" style="stroke:#A80036;stroke-width:1.0;"/><polygon fill="#000000" points="1097.0667,342.6575,1088.0001,345.5294,1091.4198,350.3101,1097.0667,342.6575" style="stroke:#000000;stroke-width:1.0;"/><text fill="#000000" font-family="sans-serif" font-size="13" lengthAdjust="spacing" textLength="8" x="1102" y="350.0669">é</text><text fill="#000000" font-family="sans-serif" font-size="13" lengthAdjust="spacing" textLength="8" x="1027.9378" y="410.5585">1</text><text fill="#000000" font-family="sans-serif" font-size="13" lengthAdjust="spacing" textLength="8" x="1200.0785" y="281.1697">1</text><!--MD5=[036ade5de4ed590df57af213c2ee7a7a]
link MétodoDePagamento to Utilizador--><path codeLine="88" d="M417.204,335.632 C465.984,341.527 528.509,349.083 578.987,355.183 " fill="none" id="MétodoDePagamento-Utilizador" style="stroke:#A80036;stroke-width:1.0;"/><polygon fill="#000000" points="462.4639,332.1663,453.8367,328.1634,453.1315,333.9988,462.4639,332.1663" style="stroke:#000000;stroke-width:1.0;"/><text fill="#000000" font-family="sans-serif" font-size="13" lengthAdjust="spacing" textLength="76" x="466.5" y="336.0669">é usado por</text><text fill="#000000" font-family="sans-serif" font-size="13" lengthAdjust="spacing" textLength="8" x="425.0127" y="349.2844">1</text><text fill="#000000" font-family="sans-serif" font-size="13" lengthAdjust="spacing" textLength="15" x="555.8703" y="366.9716">0*</text><!--MD5=[ad8becfcaf113e1d7d13482b49ea52a4]
link EmailDeConfirmação to APIQRCode--><path codeLine="90" d="M410.357,508.0727 C422.556,511.2099 435.109,514.3021 447,517.0004 C506.354,530.4691 575.327,543.0718 620.334,550.8911 " fill="none" id="EmailDeConfirmação-APIQRCode" style="stroke:#A80036;stroke-width:1.0;"/><text fill="#000000" font-family="sans-serif" font-size="13" lengthAdjust="spacing" textLength="33" x="481.5" y="513.0669">usa&gt;</text><text fill="#000000" font-family="sans-serif" font-size="13" lengthAdjust="spacing" textLength="15" x="414.0199" y="527.9131">0*</text><text fill="#000000" font-family="sans-serif" font-size="13" lengthAdjust="spacing" textLength="8" x="604.5252" y="562.8783">1</text><!--MD5=[e1349e1e13815f300d29a6792d93c3ba]
@startuml
skinparam classAttributeIconSize 0
hide methods
left to right direction

class APISistemaCentral {}

class APIParque {}

class Cliente {
 -int Nif
 -string Nome
 -string Email
}

class Utilizador {
 -int Nif
 -string Nome
 -string Email
 -string Método de pagamento
}

class Reserva {}

class EmailDeConfirmação {}

class Preço {}

class Custo {}

class Parque {}

class Lugar {}

class Localização {
 -int Numero
 -int Fila
 -int Andar
}

class SubAluguer {}

class MétodoDePagamento {}

class APIQRCode {}

class Duração {
 -dateTime Inicio
 -dateTime Fim
}

class Morada {
 -string Rua
 -string Freguesia
}

APISistemaCentral "1" - - "1" Cliente : é >
APISistemaCentral "1" - - "0*" Reserva : possui >
APISistemaCentral "1" - - "0*" Utilizador : possui >
APISistemaCentral "1" - - "1*" MétodoDePagamento : tem >
APISistemaCentral "1" - - "1" APIQRCode : usa >
APISistemaCentral "1" - - "0*" EmailDeConfirmação : envia >
APISistemaCentral "1" - - "0*" SubAluguer : permite fazer >

APIParque "1" - - "1*" Parque : é referente a >
APIParque "1" - - "0*" Reserva : possui >

Cliente "1" - - "0*" Reserva : gere >
Cliente "0*" - - "1" APIParque : possui <

Utilizador "1" - - "0*" Reserva : gere >
Utilizador "1" - - "0*" SubAluguer : faz >

Reserva "0*" - - "1" Lugar : é referente a >
Reserva "1" - - "1" Custo: tem >
Reserva "1" - - "1" Duração : tem >

EmailDeConfirmação "1" - - "1" Reserva : é referente a >

Lugar "1" - - "1" Preço : tem >

Parque "1" - - "1*" Lugar : tem >
Parque "1" - - "1" Morada : tem >

Lugar "1" - - "1" Localização : tem >

SubAluguer "1" - - "1" Reserva : é >

MétodoDePagamento "1" - - "0*" Utilizador : é usado por >

EmailDeConfirmação "0*" - - "1" APIQRCode : usa>
@enduml

PlantUML version 1.2021.01(Tue Feb 02 07:55:08 UTC 2021)
(GPL source distribution)
Java Runtime: Java(TM) SE Runtime Environment
JVM: Java HotSpot(TM) 64-Bit Server VM
Default Encoding: UTF-8
Language: en
Country: US
--></g></svg>