<?xml version="1.0" encoding="UTF-8" standalone="no"?><svg xmlns="http://www.w3.org/2000/svg" xmlns:xlink="http://www.w3.org/1999/xlink" contentScriptType="application/ecmascript" contentStyleType="text/css" height="775px" preserveAspectRatio="none" style="width:2447px;height:775px;" version="1.1" viewBox="0 0 2447 775" width="2447px" zoomAndPan="magnify"><defs><filter height="300%" id="f11ho8anenv234" width="300%" x="-1" y="-1"><feGaussianBlur result="blurOut" stdDeviation="2.0"/><feColorMatrix in="blurOut" result="blurOut2" type="matrix" values="0 0 0 0 0 0 0 0 0 0 0 0 0 0 0 0 0 0 .4 0"/><feOffset dx="4.0" dy="4.0" in="blurOut2" result="blurOut3"/><feBlend in="SourceGraphic" in2="blurOut3" mode="normal"/></filter></defs><g><!--MD5=[38129dd771424f36b121b079983d2f41]
class APISistemaCentral--><rect codeLine="5" fill="#FEFECE" filter="url(#f11ho8anenv234)" height="40" id="APISistemaCentral" style="stroke:#A80036;stroke-width:1.5;" width="139" x="7" y="188"/><ellipse cx="22" cy="204" fill="#ADD1B2" rx="11" ry="11" style="stroke:#A80036;stroke-width:1.0;"/><path d="M24.3438,199.6719 C23.4063,199.2344 22.8125,199.0938 21.9375,199.0938 C19.3125,199.0938 17.3125,201.1719 17.3125,203.8906 L17.3125,205.0156 C17.3125,207.5938 19.4219,209.4844 22.3125,209.4844 C23.5313,209.4844 24.6875,209.1875 25.4375,208.6406 C26.0156,208.2344 26.3438,207.7813 26.3438,207.3906 C26.3438,206.9375 25.9531,206.5469 25.4844,206.5469 C25.2656,206.5469 25.0625,206.625 24.875,206.8125 C24.4219,207.2969 24.4219,207.2969 24.2344,207.3906 C23.8125,207.6563 23.125,207.7813 22.3594,207.7813 C20.3125,207.7813 19.0156,206.6875 19.0156,204.9844 L19.0156,203.8906 C19.0156,202.1094 20.2656,200.7969 22,200.7969 C22.5781,200.7969 23.1875,200.9531 23.6563,201.2031 C24.1406,201.4844 24.3125,201.7031 24.4063,202.1094 C24.4688,202.5156 24.5,202.6406 24.6406,202.7656 C24.7813,202.9063 25.0156,203.0156 25.2344,203.0156 C25.5,203.0156 25.7656,202.875 25.9375,202.6563 C26.0469,202.5 26.0781,202.3125 26.0781,201.8906 L26.0781,200.4688 C26.0781,200.0313 26.0625,199.9063 25.9688,199.75 C25.8125,199.4844 25.5313,199.3438 25.2344,199.3438 C24.9375,199.3438 24.7344,199.4375 24.5156,199.75 L24.3438,199.6719 Z " fill="#000000"/><text fill="#000000" font-family="sans-serif" font-size="12" lengthAdjust="spacing" textLength="107" x="36" y="208.1543">APISistemaCentral</text><line style="stroke:#A80036;stroke-width:1.5;" x1="8" x2="145" y1="220" y2="220"/><!--MD5=[1654698dbf1dab33aeaf9b6eaf8a8ac4]
class APIParque--><rect codeLine="7" fill="#FEFECE" filter="url(#f11ho8anenv234)" height="40" id="APIParque" style="stroke:#A80036;stroke-width:1.5;" width="90" x="1782" y="362"/><ellipse cx="1797" cy="378" fill="#ADD1B2" rx="11" ry="11" style="stroke:#A80036;stroke-width:1.0;"/><path d="M1799.3438,373.6719 C1798.4063,373.2344 1797.8125,373.0938 1796.9375,373.0938 C1794.3125,373.0938 1792.3125,375.1719 1792.3125,377.8906 L1792.3125,379.0156 C1792.3125,381.5938 1794.4219,383.4844 1797.3125,383.4844 C1798.5313,383.4844 1799.6875,383.1875 1800.4375,382.6406 C1801.0156,382.2344 1801.3438,381.7813 1801.3438,381.3906 C1801.3438,380.9375 1800.9531,380.5469 1800.4844,380.5469 C1800.2656,380.5469 1800.0625,380.625 1799.875,380.8125 C1799.4219,381.2969 1799.4219,381.2969 1799.2344,381.3906 C1798.8125,381.6563 1798.125,381.7813 1797.3594,381.7813 C1795.3125,381.7813 1794.0156,380.6875 1794.0156,378.9844 L1794.0156,377.8906 C1794.0156,376.1094 1795.2656,374.7969 1797,374.7969 C1797.5781,374.7969 1798.1875,374.9531 1798.6563,375.2031 C1799.1406,375.4844 1799.3125,375.7031 1799.4063,376.1094 C1799.4688,376.5156 1799.5,376.6406 1799.6406,376.7656 C1799.7813,376.9063 1800.0156,377.0156 1800.2344,377.0156 C1800.5,377.0156 1800.7656,376.875 1800.9375,376.6563 C1801.0469,376.5 1801.0781,376.3125 1801.0781,375.8906 L1801.0781,374.4688 C1801.0781,374.0313 1801.0625,373.9063 1800.9688,373.75 C1800.8125,373.4844 1800.5313,373.3438 1800.2344,373.3438 C1799.9375,373.3438 1799.7344,373.4375 1799.5156,373.75 L1799.3438,373.6719 Z " fill="#000000"/><text fill="#000000" font-family="sans-serif" font-size="12" lengthAdjust="spacing" textLength="58" x="1811" y="382.1543">APIParque</text><line style="stroke:#A80036;stroke-width:1.5;" x1="1783" x2="1871" y1="394" y2="394"/><!--MD5=[ab1f8c4ed88b9a6ebac327864b941958]
class APISubAluguer--><rect codeLine="9" fill="#FEFECE" filter="url(#f11ho8anenv234)" height="40" id="APISubAluguer" style="stroke:#A80036;stroke-width:1.5;" width="118" x="1634" y="525"/><ellipse cx="1649" cy="541" fill="#ADD1B2" rx="11" ry="11" style="stroke:#A80036;stroke-width:1.0;"/><path d="M1651.3438,536.6719 C1650.4063,536.2344 1649.8125,536.0938 1648.9375,536.0938 C1646.3125,536.0938 1644.3125,538.1719 1644.3125,540.8906 L1644.3125,542.0156 C1644.3125,544.5938 1646.4219,546.4844 1649.3125,546.4844 C1650.5313,546.4844 1651.6875,546.1875 1652.4375,545.6406 C1653.0156,545.2344 1653.3438,544.7813 1653.3438,544.3906 C1653.3438,543.9375 1652.9531,543.5469 1652.4844,543.5469 C1652.2656,543.5469 1652.0625,543.625 1651.875,543.8125 C1651.4219,544.2969 1651.4219,544.2969 1651.2344,544.3906 C1650.8125,544.6563 1650.125,544.7813 1649.3594,544.7813 C1647.3125,544.7813 1646.0156,543.6875 1646.0156,541.9844 L1646.0156,540.8906 C1646.0156,539.1094 1647.2656,537.7969 1649,537.7969 C1649.5781,537.7969 1650.1875,537.9531 1650.6563,538.2031 C1651.1406,538.4844 1651.3125,538.7031 1651.4063,539.1094 C1651.4688,539.5156 1651.5,539.6406 1651.6406,539.7656 C1651.7813,539.9063 1652.0156,540.0156 1652.2344,540.0156 C1652.5,540.0156 1652.7656,539.875 1652.9375,539.6563 C1653.0469,539.5 1653.0781,539.3125 1653.0781,538.8906 L1653.0781,537.4688 C1653.0781,537.0313 1653.0625,536.9063 1652.9688,536.75 C1652.8125,536.4844 1652.5313,536.3438 1652.2344,536.3438 C1651.9375,536.3438 1651.7344,536.4375 1651.5156,536.75 L1651.3438,536.6719 Z " fill="#000000"/><text fill="#000000" font-family="sans-serif" font-size="12" lengthAdjust="spacing" textLength="86" x="1663" y="545.1543">APISubAluguer</text><line style="stroke:#A80036;stroke-width:1.5;" x1="1635" x2="1751" y1="557" y2="557"/><!--MD5=[20a748d5ee336a9a91751b0a3d4f0beb]
class Cliente--><rect codeLine="11" fill="#FEFECE" filter="url(#f11ho8anenv234)" height="78.4141" id="Cliente" style="stroke:#A80036;stroke-width:1.5;" width="85" x="1426" y="453"/><ellipse cx="1446.4" cy="469" fill="#ADD1B2" rx="11" ry="11" style="stroke:#A80036;stroke-width:1.0;"/><path d="M1448.7438,464.6719 C1447.8063,464.2344 1447.2125,464.0938 1446.3375,464.0938 C1443.7125,464.0938 1441.7125,466.1719 1441.7125,468.8906 L1441.7125,470.0156 C1441.7125,472.5938 1443.8219,474.4844 1446.7125,474.4844 C1447.9313,474.4844 1449.0875,474.1875 1449.8375,473.6406 C1450.4156,473.2344 1450.7438,472.7813 1450.7438,472.3906 C1450.7438,471.9375 1450.3531,471.5469 1449.8844,471.5469 C1449.6656,471.5469 1449.4625,471.625 1449.275,471.8125 C1448.8219,472.2969 1448.8219,472.2969 1448.6344,472.3906 C1448.2125,472.6563 1447.525,472.7813 1446.7594,472.7813 C1444.7125,472.7813 1443.4156,471.6875 1443.4156,469.9844 L1443.4156,468.8906 C1443.4156,467.1094 1444.6656,465.7969 1446.4,465.7969 C1446.9781,465.7969 1447.5875,465.9531 1448.0563,466.2031 C1448.5406,466.4844 1448.7125,466.7031 1448.8063,467.1094 C1448.8688,467.5156 1448.9,467.6406 1449.0406,467.7656 C1449.1813,467.9063 1449.4156,468.0156 1449.6344,468.0156 C1449.9,468.0156 1450.1656,467.875 1450.3375,467.6563 C1450.4469,467.5 1450.4781,467.3125 1450.4781,466.8906 L1450.4781,465.4688 C1450.4781,465.0313 1450.4625,464.9063 1450.3688,464.75 C1450.2125,464.4844 1449.9313,464.3438 1449.6344,464.3438 C1449.3375,464.3438 1449.1344,464.4375 1448.9156,464.75 L1448.7438,464.6719 Z " fill="#000000"/><text fill="#000000" font-family="sans-serif" font-size="12" lengthAdjust="spacing" textLength="41" x="1461.6" y="473.1543">Cliente</text><line style="stroke:#A80036;stroke-width:1.5;" x1="1427" x2="1510" y1="485" y2="485"/><text fill="#000000" font-family="sans-serif" font-size="11" lengthAdjust="spacing" textLength="37" x="1432" y="499.2104">-int Nif</text><text fill="#000000" font-family="sans-serif" font-size="11" lengthAdjust="spacing" textLength="73" x="1432" y="512.0151">-string Nome</text><text fill="#000000" font-family="sans-serif" font-size="11" lengthAdjust="spacing" textLength="70" x="1432" y="524.8198">-string Email</text><!--MD5=[5dd1d6732c071e710b9290b531f2fa3b]
class Utilizador--><rect codeLine="17" fill="#FEFECE" filter="url(#f11ho8anenv234)" height="104.0234" id="Utilizador" style="stroke:#A80036;stroke-width:1.5;" width="104" x="881" y="193"/><ellipse cx="902.75" cy="209" fill="#ADD1B2" rx="11" ry="11" style="stroke:#A80036;stroke-width:1.0;"/><path d="M905.0938,204.6719 C904.1563,204.2344 903.5625,204.0938 902.6875,204.0938 C900.0625,204.0938 898.0625,206.1719 898.0625,208.8906 L898.0625,210.0156 C898.0625,212.5938 900.1719,214.4844 903.0625,214.4844 C904.2813,214.4844 905.4375,214.1875 906.1875,213.6406 C906.7656,213.2344 907.0938,212.7813 907.0938,212.3906 C907.0938,211.9375 906.7031,211.5469 906.2344,211.5469 C906.0156,211.5469 905.8125,211.625 905.625,211.8125 C905.1719,212.2969 905.1719,212.2969 904.9844,212.3906 C904.5625,212.6563 903.875,212.7813 903.1094,212.7813 C901.0625,212.7813 899.7656,211.6875 899.7656,209.9844 L899.7656,208.8906 C899.7656,207.1094 901.0156,205.7969 902.75,205.7969 C903.3281,205.7969 903.9375,205.9531 904.4063,206.2031 C904.8906,206.4844 905.0625,206.7031 905.1563,207.1094 C905.2188,207.5156 905.25,207.6406 905.3906,207.7656 C905.5313,207.9063 905.7656,208.0156 905.9844,208.0156 C906.25,208.0156 906.5156,207.875 906.6875,207.6563 C906.7969,207.5 906.8281,207.3125 906.8281,206.8906 L906.8281,205.4688 C906.8281,205.0313 906.8125,204.9063 906.7188,204.75 C906.5625,204.4844 906.2813,204.3438 905.9844,204.3438 C905.6875,204.3438 905.4844,204.4375 905.2656,204.75 L905.0938,204.6719 Z " fill="#000000"/><text fill="#000000" font-family="sans-serif" font-size="12" lengthAdjust="spacing" textLength="57" x="918.25" y="213.1543">Utilizador</text><line style="stroke:#A80036;stroke-width:1.5;" x1="882" x2="984" y1="225" y2="225"/><text fill="#000000" font-family="sans-serif" font-size="11" lengthAdjust="spacing" textLength="37" x="887" y="239.2104">-int Nif</text><text fill="#000000" font-family="sans-serif" font-size="11" lengthAdjust="spacing" textLength="73" x="887" y="252.0151">-string Nome</text><text fill="#000000" font-family="sans-serif" font-size="11" lengthAdjust="spacing" textLength="70" x="887" y="264.8198">-string Email</text><text fill="#000000" font-family="sans-serif" font-size="11" lengthAdjust="spacing" textLength="92" x="887" y="277.6245">-double Carteira</text><text fill="#000000" font-family="sans-serif" font-size="11" lengthAdjust="spacing" textLength="74" x="887" y="290.4292">-int MétodoId</text><!--MD5=[6ea9d6598d9760662639554c9857ab6b]
class Reserva--><rect codeLine="25" fill="#FEFECE" filter="url(#f11ho8anenv234)" height="40" id="Reserva" style="stroke:#A80036;stroke-width:1.5;" width="81" x="2136.5" y="397"/><ellipse cx="2151.5" cy="413" fill="#ADD1B2" rx="11" ry="11" style="stroke:#A80036;stroke-width:1.0;"/><path d="M2153.8438,408.6719 C2152.9063,408.2344 2152.3125,408.0938 2151.4375,408.0938 C2148.8125,408.0938 2146.8125,410.1719 2146.8125,412.8906 L2146.8125,414.0156 C2146.8125,416.5938 2148.9219,418.4844 2151.8125,418.4844 C2153.0313,418.4844 2154.1875,418.1875 2154.9375,417.6406 C2155.5156,417.2344 2155.8438,416.7813 2155.8438,416.3906 C2155.8438,415.9375 2155.4531,415.5469 2154.9844,415.5469 C2154.7656,415.5469 2154.5625,415.625 2154.375,415.8125 C2153.9219,416.2969 2153.9219,416.2969 2153.7344,416.3906 C2153.3125,416.6563 2152.625,416.7813 2151.8594,416.7813 C2149.8125,416.7813 2148.5156,415.6875 2148.5156,413.9844 L2148.5156,412.8906 C2148.5156,411.1094 2149.7656,409.7969 2151.5,409.7969 C2152.0781,409.7969 2152.6875,409.9531 2153.1563,410.2031 C2153.6406,410.4844 2153.8125,410.7031 2153.9063,411.1094 C2153.9688,411.5156 2154,411.6406 2154.1406,411.7656 C2154.2813,411.9063 2154.5156,412.0156 2154.7344,412.0156 C2155,412.0156 2155.2656,411.875 2155.4375,411.6563 C2155.5469,411.5 2155.5781,411.3125 2155.5781,410.8906 L2155.5781,409.4688 C2155.5781,409.0313 2155.5625,408.9063 2155.4688,408.75 C2155.3125,408.4844 2155.0313,408.3438 2154.7344,408.3438 C2154.4375,408.3438 2154.2344,408.4375 2154.0156,408.75 L2153.8438,408.6719 Z " fill="#000000"/><text fill="#000000" font-family="sans-serif" font-size="12" lengthAdjust="spacing" textLength="49" x="2165.5" y="417.1543">Reserva</text><line style="stroke:#A80036;stroke-width:1.5;" x1="2137.5" x2="2216.5" y1="429" y2="429"/><!--MD5=[2de463454f7588e20c9a29e8d111f9cc]
class Transacao--><rect codeLine="27" fill="#FEFECE" filter="url(#f11ho8anenv234)" height="40" id="Transacao" style="stroke:#A80036;stroke-width:1.5;" width="94" x="571.5" y="327"/><ellipse cx="586.5" cy="343" fill="#ADD1B2" rx="11" ry="11" style="stroke:#A80036;stroke-width:1.0;"/><path d="M588.8438,338.6719 C587.9063,338.2344 587.3125,338.0938 586.4375,338.0938 C583.8125,338.0938 581.8125,340.1719 581.8125,342.8906 L581.8125,344.0156 C581.8125,346.5938 583.9219,348.4844 586.8125,348.4844 C588.0313,348.4844 589.1875,348.1875 589.9375,347.6406 C590.5156,347.2344 590.8438,346.7813 590.8438,346.3906 C590.8438,345.9375 590.4531,345.5469 589.9844,345.5469 C589.7656,345.5469 589.5625,345.625 589.375,345.8125 C588.9219,346.2969 588.9219,346.2969 588.7344,346.3906 C588.3125,346.6563 587.625,346.7813 586.8594,346.7813 C584.8125,346.7813 583.5156,345.6875 583.5156,343.9844 L583.5156,342.8906 C583.5156,341.1094 584.7656,339.7969 586.5,339.7969 C587.0781,339.7969 587.6875,339.9531 588.1563,340.2031 C588.6406,340.4844 588.8125,340.7031 588.9063,341.1094 C588.9688,341.5156 589,341.6406 589.1406,341.7656 C589.2813,341.9063 589.5156,342.0156 589.7344,342.0156 C590,342.0156 590.2656,341.875 590.4375,341.6563 C590.5469,341.5 590.5781,341.3125 590.5781,340.8906 L590.5781,339.4688 C590.5781,339.0313 590.5625,338.9063 590.4688,338.75 C590.3125,338.4844 590.0313,338.3438 589.7344,338.3438 C589.4375,338.3438 589.2344,338.4375 589.0156,338.75 L588.8438,338.6719 Z " fill="#000000"/><text fill="#000000" font-family="sans-serif" font-size="12" lengthAdjust="spacing" textLength="62" x="600.5" y="347.1543">Transacao</text><line style="stroke:#A80036;stroke-width:1.5;" x1="572.5" x2="664.5" y1="359" y2="359"/><!--MD5=[c2cbf43fb4ac2fdedfecca4489007120]
class ReservaSistemaCentral--><rect codeLine="29" fill="#FEFECE" filter="url(#f11ho8anenv234)" height="40" id="ReservaSistemaCentral" style="stroke:#A80036;stroke-width:1.5;" width="171" x="1089" y="342"/><ellipse cx="1104" cy="358" fill="#ADD1B2" rx="11" ry="11" style="stroke:#A80036;stroke-width:1.0;"/><path d="M1106.3438,353.6719 C1105.4063,353.2344 1104.8125,353.0938 1103.9375,353.0938 C1101.3125,353.0938 1099.3125,355.1719 1099.3125,357.8906 L1099.3125,359.0156 C1099.3125,361.5938 1101.4219,363.4844 1104.3125,363.4844 C1105.5313,363.4844 1106.6875,363.1875 1107.4375,362.6406 C1108.0156,362.2344 1108.3438,361.7813 1108.3438,361.3906 C1108.3438,360.9375 1107.9531,360.5469 1107.4844,360.5469 C1107.2656,360.5469 1107.0625,360.625 1106.875,360.8125 C1106.4219,361.2969 1106.4219,361.2969 1106.2344,361.3906 C1105.8125,361.6563 1105.125,361.7813 1104.3594,361.7813 C1102.3125,361.7813 1101.0156,360.6875 1101.0156,358.9844 L1101.0156,357.8906 C1101.0156,356.1094 1102.2656,354.7969 1104,354.7969 C1104.5781,354.7969 1105.1875,354.9531 1105.6563,355.2031 C1106.1406,355.4844 1106.3125,355.7031 1106.4063,356.1094 C1106.4688,356.5156 1106.5,356.6406 1106.6406,356.7656 C1106.7813,356.9063 1107.0156,357.0156 1107.2344,357.0156 C1107.5,357.0156 1107.7656,356.875 1107.9375,356.6563 C1108.0469,356.5 1108.0781,356.3125 1108.0781,355.8906 L1108.0781,354.4688 C1108.0781,354.0313 1108.0625,353.9063 1107.9688,353.75 C1107.8125,353.4844 1107.5313,353.3438 1107.2344,353.3438 C1106.9375,353.3438 1106.7344,353.4375 1106.5156,353.75 L1106.3438,353.6719 Z " fill="#000000"/><text fill="#000000" font-family="sans-serif" font-size="12" lengthAdjust="spacing" textLength="139" x="1118" y="362.1543">ReservaSistemaCentral</text><line style="stroke:#A80036;stroke-width:1.5;" x1="1090" x2="1259" y1="374" y2="374"/><!--MD5=[422caa1b20ead34cd492b75378c11008]
class EmailDeConfirmação--><rect codeLine="31" fill="#FEFECE" filter="url(#f11ho8anenv234)" height="40" id="EmailDeConfirmação" style="stroke:#A80036;stroke-width:1.5;" width="155" x="541" y="79"/><ellipse cx="556" cy="95" fill="#ADD1B2" rx="11" ry="11" style="stroke:#A80036;stroke-width:1.0;"/><path d="M558.3438,90.6719 C557.4063,90.2344 556.8125,90.0938 555.9375,90.0938 C553.3125,90.0938 551.3125,92.1719 551.3125,94.8906 L551.3125,96.0156 C551.3125,98.5938 553.4219,100.4844 556.3125,100.4844 C557.5313,100.4844 558.6875,100.1875 559.4375,99.6406 C560.0156,99.2344 560.3438,98.7813 560.3438,98.3906 C560.3438,97.9375 559.9531,97.5469 559.4844,97.5469 C559.2656,97.5469 559.0625,97.625 558.875,97.8125 C558.4219,98.2969 558.4219,98.2969 558.2344,98.3906 C557.8125,98.6563 557.125,98.7813 556.3594,98.7813 C554.3125,98.7813 553.0156,97.6875 553.0156,95.9844 L553.0156,94.8906 C553.0156,93.1094 554.2656,91.7969 556,91.7969 C556.5781,91.7969 557.1875,91.9531 557.6563,92.2031 C558.1406,92.4844 558.3125,92.7031 558.4063,93.1094 C558.4688,93.5156 558.5,93.6406 558.6406,93.7656 C558.7813,93.9063 559.0156,94.0156 559.2344,94.0156 C559.5,94.0156 559.7656,93.875 559.9375,93.6563 C560.0469,93.5 560.0781,93.3125 560.0781,92.8906 L560.0781,91.4688 C560.0781,91.0313 560.0625,90.9063 559.9688,90.75 C559.8125,90.4844 559.5313,90.3438 559.2344,90.3438 C558.9375,90.3438 558.7344,90.4375 558.5156,90.75 L558.3438,90.6719 Z " fill="#000000"/><text fill="#000000" font-family="sans-serif" font-size="12" lengthAdjust="spacing" textLength="123" x="570" y="99.1543">EmailDeConfirmação</text><line style="stroke:#A80036;stroke-width:1.5;" x1="542" x2="695" y1="111" y2="111"/><!--MD5=[ec8f5e6a0bb5c1192bcc4a64c9a89492]
class Preço--><rect codeLine="33" fill="#FEFECE" filter="url(#f11ho8anenv234)" height="40" id="Preço" style="stroke:#A80036;stroke-width:1.5;" width="66" x="2144" y="608"/><ellipse cx="2159" cy="624" fill="#ADD1B2" rx="11" ry="11" style="stroke:#A80036;stroke-width:1.0;"/><path d="M2161.3438,619.6719 C2160.4063,619.2344 2159.8125,619.0938 2158.9375,619.0938 C2156.3125,619.0938 2154.3125,621.1719 2154.3125,623.8906 L2154.3125,625.0156 C2154.3125,627.5938 2156.4219,629.4844 2159.3125,629.4844 C2160.5313,629.4844 2161.6875,629.1875 2162.4375,628.6406 C2163.0156,628.2344 2163.3438,627.7813 2163.3438,627.3906 C2163.3438,626.9375 2162.9531,626.5469 2162.4844,626.5469 C2162.2656,626.5469 2162.0625,626.625 2161.875,626.8125 C2161.4219,627.2969 2161.4219,627.2969 2161.2344,627.3906 C2160.8125,627.6563 2160.125,627.7813 2159.3594,627.7813 C2157.3125,627.7813 2156.0156,626.6875 2156.0156,624.9844 L2156.0156,623.8906 C2156.0156,622.1094 2157.2656,620.7969 2159,620.7969 C2159.5781,620.7969 2160.1875,620.9531 2160.6563,621.2031 C2161.1406,621.4844 2161.3125,621.7031 2161.4063,622.1094 C2161.4688,622.5156 2161.5,622.6406 2161.6406,622.7656 C2161.7813,622.9063 2162.0156,623.0156 2162.2344,623.0156 C2162.5,623.0156 2162.7656,622.875 2162.9375,622.6563 C2163.0469,622.5 2163.0781,622.3125 2163.0781,621.8906 L2163.0781,620.4688 C2163.0781,620.0313 2163.0625,619.9063 2162.9688,619.75 C2162.8125,619.4844 2162.5313,619.3438 2162.2344,619.3438 C2161.9375,619.3438 2161.7344,619.4375 2161.5156,619.75 L2161.3438,619.6719 Z " fill="#000000"/><text fill="#000000" font-family="sans-serif" font-size="12" lengthAdjust="spacing" textLength="34" x="2173" y="628.1543">Preço</text><line style="stroke:#A80036;stroke-width:1.5;" x1="2145" x2="2209" y1="640" y2="640"/><!--MD5=[6f49f9179445ef1754d85aa01a9c4eb7]
class Custo--><rect codeLine="35" fill="#FEFECE" filter="url(#f11ho8anenv234)" height="40" id="Custo" style="stroke:#A80036;stroke-width:1.5;" width="66" x="1435.5" y="355"/><ellipse cx="1450.5" cy="371" fill="#ADD1B2" rx="11" ry="11" style="stroke:#A80036;stroke-width:1.0;"/><path d="M1452.8438,366.6719 C1451.9063,366.2344 1451.3125,366.0938 1450.4375,366.0938 C1447.8125,366.0938 1445.8125,368.1719 1445.8125,370.8906 L1445.8125,372.0156 C1445.8125,374.5938 1447.9219,376.4844 1450.8125,376.4844 C1452.0313,376.4844 1453.1875,376.1875 1453.9375,375.6406 C1454.5156,375.2344 1454.8438,374.7813 1454.8438,374.3906 C1454.8438,373.9375 1454.4531,373.5469 1453.9844,373.5469 C1453.7656,373.5469 1453.5625,373.625 1453.375,373.8125 C1452.9219,374.2969 1452.9219,374.2969 1452.7344,374.3906 C1452.3125,374.6563 1451.625,374.7813 1450.8594,374.7813 C1448.8125,374.7813 1447.5156,373.6875 1447.5156,371.9844 L1447.5156,370.8906 C1447.5156,369.1094 1448.7656,367.7969 1450.5,367.7969 C1451.0781,367.7969 1451.6875,367.9531 1452.1563,368.2031 C1452.6406,368.4844 1452.8125,368.7031 1452.9063,369.1094 C1452.9688,369.5156 1453,369.6406 1453.1406,369.7656 C1453.2813,369.9063 1453.5156,370.0156 1453.7344,370.0156 C1454,370.0156 1454.2656,369.875 1454.4375,369.6563 C1454.5469,369.5 1454.5781,369.3125 1454.5781,368.8906 L1454.5781,367.4688 C1454.5781,367.0313 1454.5625,366.9063 1454.4688,366.75 C1454.3125,366.4844 1454.0313,366.3438 1453.7344,366.3438 C1453.4375,366.3438 1453.2344,366.4375 1453.0156,366.75 L1452.8438,366.6719 Z " fill="#000000"/><text fill="#000000" font-family="sans-serif" font-size="12" lengthAdjust="spacing" textLength="34" x="1464.5" y="375.1543">Custo</text><line style="stroke:#A80036;stroke-width:1.5;" x1="1436.5" x2="1500.5" y1="387" y2="387"/><!--MD5=[1a083dbe42a284ae0ea7f6f701783206]
class Parque--><rect codeLine="37" fill="#FEFECE" filter="url(#f11ho8anenv234)" height="40" id="Parque" style="stroke:#A80036;stroke-width:1.5;" width="73" x="1432" y="569"/><ellipse cx="1447" cy="585" fill="#ADD1B2" rx="11" ry="11" style="stroke:#A80036;stroke-width:1.0;"/><path d="M1449.3438,580.6719 C1448.4063,580.2344 1447.8125,580.0938 1446.9375,580.0938 C1444.3125,580.0938 1442.3125,582.1719 1442.3125,584.8906 L1442.3125,586.0156 C1442.3125,588.5938 1444.4219,590.4844 1447.3125,590.4844 C1448.5313,590.4844 1449.6875,590.1875 1450.4375,589.6406 C1451.0156,589.2344 1451.3438,588.7813 1451.3438,588.3906 C1451.3438,587.9375 1450.9531,587.5469 1450.4844,587.5469 C1450.2656,587.5469 1450.0625,587.625 1449.875,587.8125 C1449.4219,588.2969 1449.4219,588.2969 1449.2344,588.3906 C1448.8125,588.6563 1448.125,588.7813 1447.3594,588.7813 C1445.3125,588.7813 1444.0156,587.6875 1444.0156,585.9844 L1444.0156,584.8906 C1444.0156,583.1094 1445.2656,581.7969 1447,581.7969 C1447.5781,581.7969 1448.1875,581.9531 1448.6563,582.2031 C1449.1406,582.4844 1449.3125,582.7031 1449.4063,583.1094 C1449.4688,583.5156 1449.5,583.6406 1449.6406,583.7656 C1449.7813,583.9063 1450.0156,584.0156 1450.2344,584.0156 C1450.5,584.0156 1450.7656,583.875 1450.9375,583.6563 C1451.0469,583.5 1451.0781,583.3125 1451.0781,582.8906 L1451.0781,581.4688 C1451.0781,581.0313 1451.0625,580.9063 1450.9688,580.75 C1450.8125,580.4844 1450.5313,580.3438 1450.2344,580.3438 C1449.9375,580.3438 1449.7344,580.4375 1449.5156,580.75 L1449.3438,580.6719 Z " fill="#000000"/><text fill="#000000" font-family="sans-serif" font-size="12" lengthAdjust="spacing" textLength="41" x="1461" y="589.1543">Parque</text><line style="stroke:#A80036;stroke-width:1.5;" x1="1433" x2="1504" y1="601" y2="601"/><!--MD5=[6129de384f1bcacbc1ea3ec83eb0d64e]
class Lugar--><rect codeLine="39" fill="#FEFECE" filter="url(#f11ho8anenv234)" height="40" id="Lugar" style="stroke:#A80036;stroke-width:1.5;" width="65" x="1902" y="608"/><ellipse cx="1917" cy="624" fill="#ADD1B2" rx="11" ry="11" style="stroke:#A80036;stroke-width:1.0;"/><path d="M1919.3438,619.6719 C1918.4063,619.2344 1917.8125,619.0938 1916.9375,619.0938 C1914.3125,619.0938 1912.3125,621.1719 1912.3125,623.8906 L1912.3125,625.0156 C1912.3125,627.5938 1914.4219,629.4844 1917.3125,629.4844 C1918.5313,629.4844 1919.6875,629.1875 1920.4375,628.6406 C1921.0156,628.2344 1921.3438,627.7813 1921.3438,627.3906 C1921.3438,626.9375 1920.9531,626.5469 1920.4844,626.5469 C1920.2656,626.5469 1920.0625,626.625 1919.875,626.8125 C1919.4219,627.2969 1919.4219,627.2969 1919.2344,627.3906 C1918.8125,627.6563 1918.125,627.7813 1917.3594,627.7813 C1915.3125,627.7813 1914.0156,626.6875 1914.0156,624.9844 L1914.0156,623.8906 C1914.0156,622.1094 1915.2656,620.7969 1917,620.7969 C1917.5781,620.7969 1918.1875,620.9531 1918.6563,621.2031 C1919.1406,621.4844 1919.3125,621.7031 1919.4063,622.1094 C1919.4688,622.5156 1919.5,622.6406 1919.6406,622.7656 C1919.7813,622.9063 1920.0156,623.0156 1920.2344,623.0156 C1920.5,623.0156 1920.7656,622.875 1920.9375,622.6563 C1921.0469,622.5 1921.0781,622.3125 1921.0781,621.8906 L1921.0781,620.4688 C1921.0781,620.0313 1921.0625,619.9063 1920.9688,619.75 C1920.8125,619.4844 1920.5313,619.3438 1920.2344,619.3438 C1919.9375,619.3438 1919.7344,619.4375 1919.5156,619.75 L1919.3438,619.6719 Z " fill="#000000"/><text fill="#000000" font-family="sans-serif" font-size="12" lengthAdjust="spacing" textLength="33" x="1931" y="628.1543">Lugar</text><line style="stroke:#A80036;stroke-width:1.5;" x1="1903" x2="1966" y1="640" y2="640"/><!--MD5=[53d7157415ddfdf8a565a9d974d385cc]
class Localização--><rect codeLine="41" fill="#FEFECE" filter="url(#f11ho8anenv234)" height="78.4141" id="Localização" style="stroke:#A80036;stroke-width:1.5;" width="102" x="2126" y="683"/><ellipse cx="2141" cy="699" fill="#ADD1B2" rx="11" ry="11" style="stroke:#A80036;stroke-width:1.0;"/><path d="M2143.3438,694.6719 C2142.4063,694.2344 2141.8125,694.0938 2140.9375,694.0938 C2138.3125,694.0938 2136.3125,696.1719 2136.3125,698.8906 L2136.3125,700.0156 C2136.3125,702.5938 2138.4219,704.4844 2141.3125,704.4844 C2142.5313,704.4844 2143.6875,704.1875 2144.4375,703.6406 C2145.0156,703.2344 2145.3438,702.7813 2145.3438,702.3906 C2145.3438,701.9375 2144.9531,701.5469 2144.4844,701.5469 C2144.2656,701.5469 2144.0625,701.625 2143.875,701.8125 C2143.4219,702.2969 2143.4219,702.2969 2143.2344,702.3906 C2142.8125,702.6563 2142.125,702.7813 2141.3594,702.7813 C2139.3125,702.7813 2138.0156,701.6875 2138.0156,699.9844 L2138.0156,698.8906 C2138.0156,697.1094 2139.2656,695.7969 2141,695.7969 C2141.5781,695.7969 2142.1875,695.9531 2142.6563,696.2031 C2143.1406,696.4844 2143.3125,696.7031 2143.4063,697.1094 C2143.4688,697.5156 2143.5,697.6406 2143.6406,697.7656 C2143.7813,697.9063 2144.0156,698.0156 2144.2344,698.0156 C2144.5,698.0156 2144.7656,697.875 2144.9375,697.6563 C2145.0469,697.5 2145.0781,697.3125 2145.0781,696.8906 L2145.0781,695.4688 C2145.0781,695.0313 2145.0625,694.9063 2144.9688,694.75 C2144.8125,694.4844 2144.5313,694.3438 2144.2344,694.3438 C2143.9375,694.3438 2143.7344,694.4375 2143.5156,694.75 L2143.3438,694.6719 Z " fill="#000000"/><text fill="#000000" font-family="sans-serif" font-size="12" lengthAdjust="spacing" textLength="70" x="2155" y="703.1543">Localização</text><line style="stroke:#A80036;stroke-width:1.5;" x1="2127" x2="2227" y1="715" y2="715"/><text fill="#000000" font-family="sans-serif" font-size="11" lengthAdjust="spacing" textLength="67" x="2132" y="729.2104">-int Numero</text><text fill="#000000" font-family="sans-serif" font-size="11" lengthAdjust="spacing" textLength="41" x="2132" y="742.0151">-int Fila</text><text fill="#000000" font-family="sans-serif" font-size="11" lengthAdjust="spacing" textLength="55" x="2132" y="754.8198">-int Andar</text><!--MD5=[7be03d3694ab14778567bba1cd2b0a47]
class APIMetodoDePagamento--><rect codeLine="47" fill="#FEFECE" filter="url(#f11ho8anenv234)" height="40" id="APIMetodoDePagamento" style="stroke:#A80036;stroke-width:1.5;" width="178" x="247" y="240"/><ellipse cx="262" cy="256" fill="#ADD1B2" rx="11" ry="11" style="stroke:#A80036;stroke-width:1.0;"/><path d="M264.3438,251.6719 C263.4063,251.2344 262.8125,251.0938 261.9375,251.0938 C259.3125,251.0938 257.3125,253.1719 257.3125,255.8906 L257.3125,257.0156 C257.3125,259.5938 259.4219,261.4844 262.3125,261.4844 C263.5313,261.4844 264.6875,261.1875 265.4375,260.6406 C266.0156,260.2344 266.3438,259.7813 266.3438,259.3906 C266.3438,258.9375 265.9531,258.5469 265.4844,258.5469 C265.2656,258.5469 265.0625,258.625 264.875,258.8125 C264.4219,259.2969 264.4219,259.2969 264.2344,259.3906 C263.8125,259.6563 263.125,259.7813 262.3594,259.7813 C260.3125,259.7813 259.0156,258.6875 259.0156,256.9844 L259.0156,255.8906 C259.0156,254.1094 260.2656,252.7969 262,252.7969 C262.5781,252.7969 263.1875,252.9531 263.6563,253.2031 C264.1406,253.4844 264.3125,253.7031 264.4063,254.1094 C264.4688,254.5156 264.5,254.6406 264.6406,254.7656 C264.7813,254.9063 265.0156,255.0156 265.2344,255.0156 C265.5,255.0156 265.7656,254.875 265.9375,254.6563 C266.0469,254.5 266.0781,254.3125 266.0781,253.8906 L266.0781,252.4688 C266.0781,252.0313 266.0625,251.9063 265.9688,251.75 C265.8125,251.4844 265.5313,251.3438 265.2344,251.3438 C264.9375,251.3438 264.7344,251.4375 264.5156,251.75 L264.3438,251.6719 Z " fill="#000000"/><text fill="#000000" font-family="sans-serif" font-size="12" lengthAdjust="spacing" textLength="146" x="276" y="260.1543">APIMetodoDePagamento</text><line style="stroke:#A80036;stroke-width:1.5;" x1="248" x2="424" y1="272" y2="272"/><!--MD5=[db710054b49517484ab0764fde030c77]
class APIQRCode--><rect codeLine="49" fill="#FEFECE" filter="url(#f11ho8anenv234)" height="40" id="APIQRCode" style="stroke:#A80036;stroke-width:1.5;" width="98" x="287" y="7"/><ellipse cx="302" cy="23" fill="#ADD1B2" rx="11" ry="11" style="stroke:#A80036;stroke-width:1.0;"/><path d="M304.3438,18.6719 C303.4063,18.2344 302.8125,18.0938 301.9375,18.0938 C299.3125,18.0938 297.3125,20.1719 297.3125,22.8906 L297.3125,24.0156 C297.3125,26.5938 299.4219,28.4844 302.3125,28.4844 C303.5313,28.4844 304.6875,28.1875 305.4375,27.6406 C306.0156,27.2344 306.3438,26.7813 306.3438,26.3906 C306.3438,25.9375 305.9531,25.5469 305.4844,25.5469 C305.2656,25.5469 305.0625,25.625 304.875,25.8125 C304.4219,26.2969 304.4219,26.2969 304.2344,26.3906 C303.8125,26.6563 303.125,26.7813 302.3594,26.7813 C300.3125,26.7813 299.0156,25.6875 299.0156,23.9844 L299.0156,22.8906 C299.0156,21.1094 300.2656,19.7969 302,19.7969 C302.5781,19.7969 303.1875,19.9531 303.6563,20.2031 C304.1406,20.4844 304.3125,20.7031 304.4063,21.1094 C304.4688,21.5156 304.5,21.6406 304.6406,21.7656 C304.7813,21.9063 305.0156,22.0156 305.2344,22.0156 C305.5,22.0156 305.7656,21.875 305.9375,21.6563 C306.0469,21.5 306.0781,21.3125 306.0781,20.8906 L306.0781,19.4688 C306.0781,19.0313 306.0625,18.9063 305.9688,18.75 C305.8125,18.4844 305.5313,18.3438 305.2344,18.3438 C304.9375,18.3438 304.7344,18.4375 304.5156,18.75 L304.3438,18.6719 Z " fill="#000000"/><text fill="#000000" font-family="sans-serif" font-size="12" lengthAdjust="spacing" textLength="66" x="316" y="27.1543">APIQRCode</text><line style="stroke:#A80036;stroke-width:1.5;" x1="288" x2="384" y1="39" y2="39"/><!--MD5=[3008f5efaa3e7cb421914c717b209816]
class Duração--><rect codeLine="51" fill="#FEFECE" filter="url(#f11ho8anenv234)" height="65.6094" id="Duração" style="stroke:#A80036;stroke-width:1.5;" width="104" x="2329" y="384"/><ellipse cx="2353.9" cy="400" fill="#ADD1B2" rx="11" ry="11" style="stroke:#A80036;stroke-width:1.0;"/><path d="M2356.2438,395.6719 C2355.3063,395.2344 2354.7125,395.0938 2353.8375,395.0938 C2351.2125,395.0938 2349.2125,397.1719 2349.2125,399.8906 L2349.2125,401.0156 C2349.2125,403.5938 2351.3219,405.4844 2354.2125,405.4844 C2355.4313,405.4844 2356.5875,405.1875 2357.3375,404.6406 C2357.9156,404.2344 2358.2438,403.7813 2358.2438,403.3906 C2358.2438,402.9375 2357.8531,402.5469 2357.3844,402.5469 C2357.1656,402.5469 2356.9625,402.625 2356.775,402.8125 C2356.3219,403.2969 2356.3219,403.2969 2356.1344,403.3906 C2355.7125,403.6563 2355.025,403.7813 2354.2594,403.7813 C2352.2125,403.7813 2350.9156,402.6875 2350.9156,400.9844 L2350.9156,399.8906 C2350.9156,398.1094 2352.1656,396.7969 2353.9,396.7969 C2354.4781,396.7969 2355.0875,396.9531 2355.5563,397.2031 C2356.0406,397.4844 2356.2125,397.7031 2356.3063,398.1094 C2356.3688,398.5156 2356.4,398.6406 2356.5406,398.7656 C2356.6813,398.9063 2356.9156,399.0156 2357.1344,399.0156 C2357.4,399.0156 2357.6656,398.875 2357.8375,398.6563 C2357.9469,398.5 2357.9781,398.3125 2357.9781,397.8906 L2357.9781,396.4688 C2357.9781,396.0313 2357.9625,395.9063 2357.8688,395.75 C2357.7125,395.4844 2357.4313,395.3438 2357.1344,395.3438 C2356.8375,395.3438 2356.6344,395.4375 2356.4156,395.75 L2356.2438,395.6719 Z " fill="#000000"/><text fill="#000000" font-family="sans-serif" font-size="12" lengthAdjust="spacing" textLength="50" x="2370.1" y="404.1543">Duração</text><line style="stroke:#A80036;stroke-width:1.5;" x1="2330" x2="2432" y1="416" y2="416"/><text fill="#000000" font-family="sans-serif" font-size="11" lengthAdjust="spacing" textLength="92" x="2335" y="430.2104">-dateTime Inicio</text><text fill="#000000" font-family="sans-serif" font-size="11" lengthAdjust="spacing" textLength="83" x="2335" y="443.0151">-dateTime Fim</text><!--MD5=[77c6229b59f71ada4b7bed0495e5baba]
class Morada--><rect codeLine="56" fill="#FEFECE" filter="url(#f11ho8anenv234)" height="65.6094" id="Morada" style="stroke:#A80036;stroke-width:1.5;" width="107" x="1121" y="563"/><ellipse cx="1149.5" cy="579" fill="#ADD1B2" rx="11" ry="11" style="stroke:#A80036;stroke-width:1.0;"/><path d="M1151.8438,574.6719 C1150.9063,574.2344 1150.3125,574.0938 1149.4375,574.0938 C1146.8125,574.0938 1144.8125,576.1719 1144.8125,578.8906 L1144.8125,580.0156 C1144.8125,582.5938 1146.9219,584.4844 1149.8125,584.4844 C1151.0313,584.4844 1152.1875,584.1875 1152.9375,583.6406 C1153.5156,583.2344 1153.8438,582.7813 1153.8438,582.3906 C1153.8438,581.9375 1153.4531,581.5469 1152.9844,581.5469 C1152.7656,581.5469 1152.5625,581.625 1152.375,581.8125 C1151.9219,582.2969 1151.9219,582.2969 1151.7344,582.3906 C1151.3125,582.6563 1150.625,582.7813 1149.8594,582.7813 C1147.8125,582.7813 1146.5156,581.6875 1146.5156,579.9844 L1146.5156,578.8906 C1146.5156,577.1094 1147.7656,575.7969 1149.5,575.7969 C1150.0781,575.7969 1150.6875,575.9531 1151.1563,576.2031 C1151.6406,576.4844 1151.8125,576.7031 1151.9063,577.1094 C1151.9688,577.5156 1152,577.6406 1152.1406,577.7656 C1152.2813,577.9063 1152.5156,578.0156 1152.7344,578.0156 C1153,578.0156 1153.2656,577.875 1153.4375,577.6563 C1153.5469,577.5 1153.5781,577.3125 1153.5781,576.8906 L1153.5781,575.4688 C1153.5781,575.0313 1153.5625,574.9063 1153.4688,574.75 C1153.3125,574.4844 1153.0313,574.3438 1152.7344,574.3438 C1152.4375,574.3438 1152.2344,574.4375 1152.0156,574.75 L1151.8438,574.6719 Z " fill="#000000"/><text fill="#000000" font-family="sans-serif" font-size="12" lengthAdjust="spacing" textLength="45" x="1166.5" y="583.1543">Morada</text><line style="stroke:#A80036;stroke-width:1.5;" x1="1122" x2="1227" y1="595" y2="595"/><text fill="#000000" font-family="sans-serif" font-size="11" lengthAdjust="spacing" textLength="60" x="1127" y="609.2104">-string Rua</text><text fill="#000000" font-family="sans-serif" font-size="11" lengthAdjust="spacing" textLength="95" x="1127" y="622.0151">-string Freguesia</text><!--MD5=[8e96fee9880a4ba3b131d16794c405f4]
link APISistemaCentral to APIQRCode--><path codeLine="61" d="M86.8342,187.786 C101.5586,158.139 132.989,103.128 176,73 C208.951,49.919 253.414,38.325 286.944,32.558 " fill="none" id="APISistemaCentral-APIQRCode" style="stroke:#A80036;stroke-width:1.0;"/><polygon fill="#000000" points="186.4507,41.5018,177.5025,44.7236,181.1051,49.3679,186.4507,41.5018" style="stroke:#000000;stroke-width:1.0;"/><text fill="#000000" font-family="sans-serif" font-size="13" lengthAdjust="spacing" textLength="23" x="191.5" y="49.0669">usa</text><text fill="#000000" font-family="sans-serif" font-size="13" lengthAdjust="spacing" textLength="8" x="80.6157" y="177.077">1</text><text fill="#000000" font-family="sans-serif" font-size="13" lengthAdjust="spacing" textLength="8" x="271.1514" y="46.5525">1</text><!--MD5=[d0b076322fca75d93501f04c1a1688f9]
link APISistemaCentral to Cliente--><path codeLine="62" d="M83.6463,228.284 C105.5486,295.996 186.516,510 335,510 C335,510 335,510 1175.5,510 C1264.89,510 1369.39,501.492 1425.96,496.175 " fill="none" id="APISistemaCentral-Cliente" style="stroke:#A80036;stroke-width:1.0;"/><polygon fill="#000000" points="786.9033,502.545,778.6083,497.8926,777.458,503.6568,786.9033,502.545" style="stroke:#000000;stroke-width:1.0;"/><text fill="#000000" font-family="sans-serif" font-size="13" lengthAdjust="spacing" textLength="8" x="791" y="506.0669">é</text><text fill="#000000" font-family="sans-serif" font-size="13" lengthAdjust="spacing" textLength="8" x="76.5312" y="248.1838">1</text><text fill="#000000" font-family="sans-serif" font-size="13" lengthAdjust="spacing" textLength="8" x="1409.9609" y="510.2244">1</text><!--MD5=[764e92dc44028a62883198ad423dbc84]
link APISistemaCentral to ReservaSistemaCentral--><path codeLine="63" d="M110.478,228.039 C184.27,271.441 369.694,372.594 541,402 C735.112,435.321 967.004,402.488 1088.94,379.723 " fill="none" id="APISistemaCentral-ReservaSistemaCentral" style="stroke:#A80036;stroke-width:1.0;"/><polygon fill="#000000" points="600.441,394.3324,591.9529,390.0425,591.0524,395.851,600.441,394.3324" style="stroke:#000000;stroke-width:1.0;"/><text fill="#000000" font-family="sans-serif" font-size="13" lengthAdjust="spacing" textLength="41" x="604.5" y="398.0669">possui</text><text fill="#000000" font-family="sans-serif" font-size="13" lengthAdjust="spacing" textLength="8" x="111.2844" y="248.215">1</text><text fill="#000000" font-family="sans-serif" font-size="13" lengthAdjust="spacing" textLength="15" x="1065.9427" y="393.9632">0*</text><!--MD5=[2be4e2485f6429e226a7cf3e69e5d4db]
link APISistemaCentral to Utilizador--><path codeLine="64" d="M146.328,208.311 C168.852,208.462 193.994,208.682 217,209 C498.81,212.899 572.268,180.277 851,222 C860.686,223.45 870.851,225.716 880.58,228.273 " fill="none" id="APISistemaCentral-Utilizador" style="stroke:#A80036;stroke-width:1.0;"/><polygon fill="#000000" points="464.9982,193.7023,456.0363,190.5186,455.8765,196.3943,464.9982,193.7023" style="stroke:#000000;stroke-width:1.0;"/><text fill="#000000" font-family="sans-serif" font-size="13" lengthAdjust="spacing" textLength="41" x="469" y="198.0669">possui</text><text fill="#000000" font-family="sans-serif" font-size="13" lengthAdjust="spacing" textLength="8" x="153.9415" y="221.1903">1</text><text fill="#000000" font-family="sans-serif" font-size="13" lengthAdjust="spacing" textLength="15" x="857.9028" y="239.1647">0*</text><!--MD5=[abd5d82ba9b5a9047ededb361b6d62ae]
link APISistemaCentral to APIMetodoDePagamento--><path codeLine="65" d="M146.058,223.62 C156.089,225.816 166.304,228.003 176,230 C198.836,234.703 223.579,239.51 246.59,243.859 " fill="none" id="APISistemaCentral-APIMetodoDePagamento" style="stroke:#A80036;stroke-width:1.0;"/><polygon fill="#000000" points="185.9017,222.5532,177.6145,217.8869,176.4545,223.6492,185.9017,222.5532" style="stroke:#000000;stroke-width:1.0;"/><text fill="#000000" font-family="sans-serif" font-size="13" lengthAdjust="spacing" textLength="26" x="190" y="226.0669">tem</text><text fill="#000000" font-family="sans-serif" font-size="13" lengthAdjust="spacing" textLength="8" x="154.1034" y="238.2229">1</text><text fill="#000000" font-family="sans-serif" font-size="13" lengthAdjust="spacing" textLength="15" x="223.8675" y="255.2426">1*</text><!--MD5=[1e30445b45991c0f6b0377df5c4b1f9b]
link APISistemaCentral to EmailDeConfirmação--><path codeLine="66" d="M112.927,187.848 C131.224,178.29 154.228,167.553 176,161 C300.516,123.522 451.743,108.533 540.998,102.656 " fill="none" id="APISistemaCentral-EmailDeConfirmação" style="stroke:#A80036;stroke-width:1.0;"/><polygon fill="#000000" points="320.9038,104.5905,311.4591,103.4736,312.6064,109.2383,320.9038,104.5905" style="stroke:#000000;stroke-width:1.0;"/><text fill="#000000" font-family="sans-serif" font-size="13" lengthAdjust="spacing" textLength="35" x="325" y="110.0669">envia</text><text fill="#000000" font-family="sans-serif" font-size="13" lengthAdjust="spacing" textLength="8" x="114.4523" y="176.8116">1</text><text fill="#000000" font-family="sans-serif" font-size="13" lengthAdjust="spacing" textLength="15" x="517.8962" y="115.7925">0*</text><!--MD5=[da43d5c1f41abad1ffc5b729cd3100d7]
link APISubAluguer to Reserva--><path codeLine="68" d="M1752.14,546.736 C1833,546.956 1982.29,539.297 2096,487 C2121.15,475.433 2144.29,453.389 2159.15,437.116 " fill="none" id="APISubAluguer-Reserva" style="stroke:#A80036;stroke-width:1.0;"/><polygon fill="#000000" points="1916.328,518.2661,1906.8298,517.7806,1908.3584,523.4562,1916.328,518.2661" style="stroke:#000000;stroke-width:1.0;"/><text fill="#000000" font-family="sans-serif" font-size="13" lengthAdjust="spacing" textLength="41" x="1920.5" y="524.0669">possui</text><text fill="#000000" font-family="sans-serif" font-size="13" lengthAdjust="spacing" textLength="8" x="1759.8352" y="559.9366">1</text><text fill="#000000" font-family="sans-serif" font-size="13" lengthAdjust="spacing" textLength="15" x="2137.0203" y="456.9686">0*</text><!--MD5=[dd618ab5b71d40962e122f89a4de6650]
link APISubAluguer to Lugar--><path codeLine="69" d="M1751.98,565.092 C1799.05,581.404 1863.65,603.793 1901.74,616.994 " fill="none" id="APISubAluguer-Lugar" style="stroke:#A80036;stroke-width:1.0;"/><polygon fill="#000000" points="1808.7243,569.2037,1801.1403,563.4649,1799.2156,569.0187,1808.7243,569.2037" style="stroke:#000000;stroke-width:1.0;"/><text fill="#000000" font-family="sans-serif" font-size="13" lengthAdjust="spacing" textLength="41" x="1813" y="572.0669">possui</text><text fill="#000000" font-family="sans-serif" font-size="13" lengthAdjust="spacing" textLength="8" x="1759.4431" y="584.9378">1</text><text fill="#000000" font-family="sans-serif" font-size="13" lengthAdjust="spacing" textLength="15" x="1879.0654" y="628.4052">1*</text><!--MD5=[72a1d6bba75ee92fed661f2768de78fb]
link APIParque to Reserva--><path codeLine="71" d="M1872.07,386.433 C1940.39,393.303 2070.77,406.416 2136.31,413.008 " fill="none" id="APIParque-Reserva" style="stroke:#A80036;stroke-width:1.0;"/><polygon fill="#000000" points="1916.4749,381.0667,1907.7693,377.2375,1907.1811,383.0858,1916.4749,381.0667" style="stroke:#000000;stroke-width:1.0;"/><text fill="#000000" font-family="sans-serif" font-size="13" lengthAdjust="spacing" textLength="41" x="1920.5" y="385.0669">possui</text><text fill="#000000" font-family="sans-serif" font-size="13" lengthAdjust="spacing" textLength="8" x="1879.8905" y="400.4123">1</text><text fill="#000000" font-family="sans-serif" font-size="13" lengthAdjust="spacing" textLength="15" x="2113.6297" y="408.2539">0*</text><!--MD5=[eeb48a213d139b75bbbca503f45bfd8b]
link Transacao to ReservaSistemaCentral--><path codeLine="73" d="M665.781,348.253 C758.881,350.774 970.014,356.49 1088.6,359.701 " fill="none" id="Transacao-ReservaSistemaCentral" style="stroke:#A80036;stroke-width:1.0;"/><polygon fill="#000000" points="893.4982,345.7017,884.5359,342.5191,884.3769,348.3948,893.4982,345.7017" style="stroke:#000000;stroke-width:1.0;"/><text fill="#000000" font-family="sans-serif" font-size="13" lengthAdjust="spacing" textLength="84" x="897.5" y="350.0669">é referente a</text><text fill="#000000" font-family="sans-serif" font-size="13" lengthAdjust="spacing" textLength="8" x="673.6334" y="361.6704">1</text><text fill="#000000" font-family="sans-serif" font-size="13" lengthAdjust="spacing" textLength="8" x="1072.8742" y="372.2206">1</text><!--MD5=[a66db3cfeacd8c7e9291bf922367903c]
link Transacao to Utilizador--><path codeLine="74" d="M665.801,338.215 C723.297,326.993 817.845,307.418 851,294 C861.055,289.931 871.309,284.703 880.992,279.184 " fill="none" id="Transacao-Utilizador" style="stroke:#A80036;stroke-width:1.0;"/><polygon fill="#000000" points="735.8219,284.2437,726.3215,283.8023,727.8765,289.4707,735.8219,284.2437" style="stroke:#000000;stroke-width:1.0;"/><text fill="#000000" font-family="sans-serif" font-size="13" lengthAdjust="spacing" textLength="110" x="740" y="290.0669">foi efectuada por</text><text fill="#000000" font-family="sans-serif" font-size="13" lengthAdjust="spacing" textLength="15" x="673.5074" y="350.1105">0*</text><text fill="#000000" font-family="sans-serif" font-size="13" lengthAdjust="spacing" textLength="8" x="865.1159" y="297.1204">1</text><!--MD5=[55a59268352d08cbaca9c2ff75c5c8f9]
link Cliente to Reserva--><path codeLine="76" d="M1511.06,487.588 C1636.91,474.228 2012.83,434.322 2136.25,421.22 " fill="none" id="Cliente-Reserva" style="stroke:#A80036;stroke-width:1.0;"/><polygon fill="#000000" points="1814.9721,440.0386,1805.6673,438.0709,1806.2878,443.9159,1814.9721,440.0386" style="stroke:#000000;stroke-width:1.0;"/><text fill="#000000" font-family="sans-serif" font-size="13" lengthAdjust="spacing" textLength="29" x="1819" y="445.0669">gere</text><text fill="#000000" font-family="sans-serif" font-size="13" lengthAdjust="spacing" textLength="8" x="1519.0625" y="482.5833">1</text><text fill="#000000" font-family="sans-serif" font-size="13" lengthAdjust="spacing" textLength="15" x="2113.5602" y="435.1654">0*</text><!--MD5=[3f0b9e36c3799f23c457718e45148a47]
link Cliente to APIParque--><path codeLine="77" d="M1511.02,456.693 C1522.41,448.492 1535.17,440.549 1548,435 C1626.02,401.257 1725.55,388.916 1781.88,384.46 " fill="none" id="Cliente-APIParque" style="stroke:#A80036;stroke-width:1.0;"/><polygon fill="#000000" points="1548.1688,408.8548,1557.6658,409.3638,1556.1512,403.6844,1548.1688,408.8548" style="stroke:#000000;stroke-width:1.0;"/><text fill="#000000" font-family="sans-serif" font-size="13" lengthAdjust="spacing" textLength="41" x="1562" y="412.0669">possui</text><text fill="#000000" font-family="sans-serif" font-size="13" lengthAdjust="spacing" textLength="15" x="1518.9919" y="464.3057">0*</text><text fill="#000000" font-family="sans-serif" font-size="13" lengthAdjust="spacing" textLength="8" x="1766.0515" y="398.1249">1</text><!--MD5=[e91d9badb799306b1495d38493af454b]
link Cliente to APISubAluguer--><path codeLine="78" d="M1511.09,501.907 C1545.68,510.146 1595.3,521.966 1633.83,531.144 " fill="none" id="Cliente-APISubAluguer" style="stroke:#A80036;stroke-width:1.0;"/><polygon fill="#000000" points="1548.1361,502.4078,1556.254,507.3627,1557.616,501.6448,1548.1361,502.4078" style="stroke:#000000;stroke-width:1.0;"/><text fill="#000000" font-family="sans-serif" font-size="13" lengthAdjust="spacing" textLength="41" x="1562" y="508.0669">possui</text><text fill="#000000" font-family="sans-serif" font-size="13" lengthAdjust="spacing" textLength="15" x="1519.0731" y="516.7257">0*</text><text fill="#000000" font-family="sans-serif" font-size="13" lengthAdjust="spacing" textLength="8" x="1618.1312" y="542.4444">1</text><!--MD5=[3e11ebb6d65e0417a9299d07831913bc]
link Utilizador to ReservaSistemaCentral--><path codeLine="80" d="M985.085,269.956 C1029.05,291.432 1091.66,322.018 1132.43,341.937 " fill="none" id="Utilizador-ReservaSistemaCentral" style="stroke:#A80036;stroke-width:1.0;"/><polygon fill="#000000" points="1024.4926,279.7611,1017.6555,273.1502,1015.0754,278.4315,1024.4926,279.7611" style="stroke:#000000;stroke-width:1.0;"/><text fill="#000000" font-family="sans-serif" font-size="13" lengthAdjust="spacing" textLength="29" x="1029" y="282.0669">gere</text><text fill="#000000" font-family="sans-serif" font-size="13" lengthAdjust="spacing" textLength="8" x="992.972" y="286.5947">1</text><text fill="#000000" font-family="sans-serif" font-size="13" lengthAdjust="spacing" textLength="15" x="1102.8688" y="330.9268">0*</text><!--MD5=[3147b653d631aff453645938f05f69e4]
link Reserva to Duração--><path codeLine="82" d="M2217.91,417 C2249.64,417 2294.27,417 2328.66,417 " fill="none" id="Reserva-Duração" style="stroke:#A80036;stroke-width:1.0;"/><polygon fill="#000000" points="2268,408.5664,2258.9549,405.6275,2258.9549,411.5053,2268,408.5664" style="stroke:#000000;stroke-width:1.0;"/><text fill="#000000" font-family="sans-serif" font-size="13" lengthAdjust="spacing" textLength="26" x="2272" y="413.0669">tem</text><text fill="#000000" font-family="sans-serif" font-size="13" lengthAdjust="spacing" textLength="8" x="2225.6289" y="430.3674">1</text><text fill="#000000" font-family="sans-serif" font-size="13" lengthAdjust="spacing" textLength="8" x="2313.0893" y="430.1099">1</text><!--MD5=[f24d9605b6661c1b9d9ecda50b5b6f18]
link ReservaSistemaCentral to Custo--><path codeLine="84" d="M1260.35,365.778 C1318.95,368.386 1393.59,371.709 1435.39,373.571 " fill="none" id="ReservaSistemaCentral-Custo" style="stroke:#A80036;stroke-width:1.0;"/><polygon fill="#000000" points="1328.9951,358.7888,1320.0896,355.4505,1319.8282,361.3225,1328.9951,358.7888" style="stroke:#000000;stroke-width:1.0;"/><text fill="#000000" font-family="sans-serif" font-size="13" lengthAdjust="spacing" textLength="26" x="1333" y="363.0669">tem</text><text fill="#000000" font-family="sans-serif" font-size="13" lengthAdjust="spacing" textLength="8" x="1268.0715" y="378.8198">1</text><text fill="#000000" font-family="sans-serif" font-size="13" lengthAdjust="spacing" textLength="8" x="1419.2722" y="386.9805">1</text><!--MD5=[c27e72e5e8b283d8bd9dad8368f9baa4]
link ReservaSistemaCentral to Reserva--><path codeLine="85" d="M1236.56,341.937 C1295.12,324.495 1386.38,302 1467.5,302 C1467.5,302 1467.5,302 1935.5,302 C2022.51,302 2111.43,364.02 2152.53,396.969 " fill="none" id="ReservaSistemaCentral-Reserva" style="stroke:#A80036;stroke-width:1.0;"/><polygon fill="#000000" points="1653.491,293.8663,1644.6385,290.3902,1644.2859,296.2574,1653.491,293.8663" style="stroke:#000000;stroke-width:1.0;"/><text fill="#000000" font-family="sans-serif" font-size="13" lengthAdjust="spacing" textLength="84" x="1657.5" y="298.0669">é referente a</text><text fill="#000000" font-family="sans-serif" font-size="13" lengthAdjust="spacing" textLength="8" x="1245.6151" y="330.9268">1</text><text fill="#000000" font-family="sans-serif" font-size="13" lengthAdjust="spacing" textLength="8" x="2136.1669" y="385.9682">1</text><!--MD5=[31c6bb5cbe1008a9eae8687518bfaadf]
link ReservaSistemaCentral to Parque--><path codeLine="86" d="M1201.41,382.145 C1256.83,425.222 1386.28,525.864 1441.65,568.9 " fill="none" id="ReservaSistemaCentral-Parque" style="stroke:#A80036;stroke-width:1.0;"/><polygon fill="#000000" points="1298.9475,449.6351,1293.6101,441.7635,1290.0026,446.4041,1298.9475,449.6351" style="stroke:#000000;stroke-width:1.0;"/><text fill="#000000" font-family="sans-serif" font-size="13" lengthAdjust="spacing" textLength="84" x="1304" y="451.0669">é referente a</text><text fill="#000000" font-family="sans-serif" font-size="13" lengthAdjust="spacing" textLength="15" x="1191.8691" y="402.0057">0*</text><text fill="#000000" font-family="sans-serif" font-size="13" lengthAdjust="spacing" textLength="8" x="1424.5878" y="557.8789">1</text><!--MD5=[56324d45d85896dd9362f79db6a3f999]
link EmailDeConfirmação to Reserva--><path codeLine="88" d="M696.138,107.029 C759.341,112.957 851.388,120 932,120 C932,120 932,120 1935.5,120 C2078.15,120 2150.83,329.485 2170.45,396.586 " fill="none" id="EmailDeConfirmação-Reserva" style="stroke:#A80036;stroke-width:1.0;"/><polygon fill="#000000" points="1428.9063,112.53,1420.5971,107.903,1419.4644,113.6707,1428.9063,112.53" style="stroke:#000000;stroke-width:1.0;"/><text fill="#000000" font-family="sans-serif" font-size="13" lengthAdjust="spacing" textLength="84" x="1433" y="116.0669">é referente a</text><text fill="#000000" font-family="sans-serif" font-size="13" lengthAdjust="spacing" textLength="8" x="703.9191" y="120.5823">1</text><text fill="#000000" font-family="sans-serif" font-size="13" lengthAdjust="spacing" textLength="8" x="2159.4828" y="385.8208">1</text><!--MD5=[48cc7fab403880e403ecd97702b70130]
link APIQRCode to EmailDeConfirmação--><path codeLine="90" d="M385.22,39.377 C427.982,50.354 491.181,66.576 540.865,79.329 " fill="none" id="APIQRCode-EmailDeConfirmação" style="stroke:#A80036;stroke-width:1.0;"/><polygon fill="#000000" points="464.157,49.3233,472.1874,54.4188,473.6488,48.7255,464.157,49.3233" style="stroke:#000000;stroke-width:1.0;"/><text fill="#000000" font-family="sans-serif" font-size="13" lengthAdjust="spacing" textLength="23" x="478" y="55.0669">usa</text><text fill="#000000" font-family="sans-serif" font-size="13" lengthAdjust="spacing" textLength="8" x="393.0367" y="54.3731">1</text><text fill="#000000" font-family="sans-serif" font-size="13" lengthAdjust="spacing" textLength="15" x="518.0166" y="90.28">0*</text><!--MD5=[4a4c9c563e490f6a2cc6c0aed1088a27]
link Lugar to Reserva--><path codeLine="92" d="M1967.26,618.725 C2011.12,605.7 2086.01,582.62 2096,574 C2139.19,536.722 2161.91,470.434 2171.06,437.189 " fill="none" id="Lugar-Reserva" style="stroke:#A80036;stroke-width:1.0;"/><polygon fill="#000000" points="1998.2664,568.8921,2006.9753,565.0704,2003.0657,560.6813,1998.2664,568.8921" style="stroke:#000000;stroke-width:1.0;"/><text fill="#000000" font-family="sans-serif" font-size="13" lengthAdjust="spacing" textLength="84" x="2011" y="570.0669">é referente a</text><text fill="#000000" font-family="sans-serif" font-size="13" lengthAdjust="spacing" textLength="8" x="1974.8418" y="630.4395">1</text><text fill="#000000" font-family="sans-serif" font-size="13" lengthAdjust="spacing" textLength="15" x="2171.4987" y="457.0621">0*</text><!--MD5=[3e39808c68d75979d0227602cd2392f7]
link Lugar to Preço--><path codeLine="93" d="M1967.09,629.837 C1976.69,630.315 1987.28,630.763 1997,631 C2040.99,632.072 2052.01,631.825 2096,631 C2111.7,630.706 2129.13,630.087 2143.7,629.487 " fill="none" id="Lugar-Preço" style="stroke:#A80036;stroke-width:1.0;"/><polygon fill="#000000" points="2036,622.5565,2026.9491,619.6355,2026.9607,625.5133,2036,622.5565" style="stroke:#000000;stroke-width:1.0;"/><text fill="#000000" font-family="sans-serif" font-size="13" lengthAdjust="spacing" textLength="26" x="2040" y="627.0669">tem</text><text fill="#000000" font-family="sans-serif" font-size="13" lengthAdjust="spacing" textLength="8" x="1975.0941" y="643.9609">1</text><text fill="#000000" font-family="sans-serif" font-size="13" lengthAdjust="spacing" textLength="8" x="2128.0069" y="643.4212">1</text><!--MD5=[5f363e7da27d4325081f8fe75b17f797]
link Lugar to Localização--><path codeLine="94" d="M1967.22,642.985 C1976.74,647.33 1987.24,651.983 1997,656 C2040.04,673.7029 2089.75,691.8541 2125.85,704.6292 " fill="none" id="Lugar-Localização" style="stroke:#A80036;stroke-width:1.0;"/><polygon fill="#000000" points="2035.6605,649.3775,2028.2941,643.3619,2026.1651,648.8406,2035.6605,649.3775" style="stroke:#000000;stroke-width:1.0;"/><text fill="#000000" font-family="sans-serif" font-size="13" lengthAdjust="spacing" textLength="26" x="2040" y="652.0669">tem</text><text fill="#000000" font-family="sans-serif" font-size="13" lengthAdjust="spacing" textLength="8" x="1974.7935" y="659.7031">1</text><text fill="#000000" font-family="sans-serif" font-size="13" lengthAdjust="spacing" textLength="8" x="2110.0945" y="715.2882">1</text><!--MD5=[72517315f51e3c1cfdb97a2270c0d927]
link Parque to Lugar--><path codeLine="96" d="M1505.14,591.996 C1592.89,599.371 1818.3,618.317 1901.78,625.334 " fill="none" id="Parque-Lugar" style="stroke:#A80036;stroke-width:1.0;"/><polygon fill="#000000" points="1682.4824,594.9852,1673.7153,591.299,1673.223,597.1562,1682.4824,594.9852" style="stroke:#000000;stroke-width:1.0;"/><text fill="#000000" font-family="sans-serif" font-size="13" lengthAdjust="spacing" textLength="26" x="1686.5" y="599.0669">tem</text><text fill="#000000" font-family="sans-serif" font-size="13" lengthAdjust="spacing" textLength="8" x="1512.887" y="606.0764">1</text><text fill="#000000" font-family="sans-serif" font-size="13" lengthAdjust="spacing" textLength="15" x="1879.1131" y="638.335">1*</text><!--MD5=[ef3cde18cabd8ee8cd51240df560450a]
link Parque to APISubAluguer--><path codeLine="97" d="M1505.27,583.087 C1532.42,578.485 1570.64,571.763 1604,565 C1613.67,563.039 1623.92,560.832 1633.86,558.618 " fill="none" id="Parque-APISubAluguer" style="stroke:#A80036;stroke-width:1.0;"/><polygon fill="#000000" points="1555.5881,557.5011,1565.0232,558.6974,1563.9244,552.9231,1555.5881,557.5011" style="stroke:#000000;stroke-width:1.0;"/><text fill="#000000" font-family="sans-serif" font-size="13" lengthAdjust="spacing" textLength="26" x="1569.5" y="561.0669">tem</text><text fill="#000000" font-family="sans-serif" font-size="13" lengthAdjust="spacing" textLength="15" x="1512.8789" y="595.4381">0*</text><text fill="#000000" font-family="sans-serif" font-size="13" lengthAdjust="spacing" textLength="8" x="1618.1648" y="573.2667">1</text><!--MD5=[8648428ff4567698d9fd32a485cc3737]
link Morada to Parque--><path codeLine="99" d="M1228.04,594.74 C1286.99,593.327 1381,591.074 1431.92,589.853 " fill="none" id="Morada-Parque" style="stroke:#A80036;stroke-width:1.0;"/><polygon fill="#000000" points="1319.0014,582.6862,1328.1143,585.4076,1327.9735,579.5314,1319.0014,582.6862" style="stroke:#000000;stroke-width:1.0;"/><text fill="#000000" font-family="sans-serif" font-size="13" lengthAdjust="spacing" textLength="26" x="1333" y="587.0669">tem</text><text fill="#000000" font-family="sans-serif" font-size="13" lengthAdjust="spacing" textLength="8" x="1236.1316" y="607.7212">1</text><text fill="#000000" font-family="sans-serif" font-size="13" lengthAdjust="spacing" textLength="8" x="1415.9308" y="603.5775">1</text><!--MD5=[8476bf2b095230313fe67fba0c48c761]
link APIMetodoDePagamento to Transacao--><path codeLine="101" d="M394.446,280.055 C413.641,286.6 435.187,293.78 455,300 C494.088,312.271 538.829,325.125 571.455,334.282 " fill="none" id="APIMetodoDePagamento-Transacao" style="stroke:#A80036;stroke-width:1.0;"/><polygon fill="#000000" points="464.2193,290.1018,472.0068,295.5613,473.7285,289.9413,464.2193,290.1018" style="stroke:#000000;stroke-width:1.0;"/><text fill="#000000" font-family="sans-serif" font-size="13" lengthAdjust="spacing" textLength="23" x="478" y="296.0669">usa</text><text fill="#000000" font-family="sans-serif" font-size="13" lengthAdjust="spacing" textLength="8" x="402.4395" y="300.2357">1</text><text fill="#000000" font-family="sans-serif" font-size="13" lengthAdjust="spacing" textLength="15" x="548.4437" y="345.5923">0*</text><!--MD5=[281e94f745178524e14573ef683eb2aa]
link APIMetodoDePagamento to Utilizador--><path codeLine="102" d="M425.114,257.779 C551.277,254.598 779.342,248.849 880.865,246.289 " fill="none" id="APIMetodoDePagamento-Utilizador" style="stroke:#A80036;stroke-width:1.0;"/><polygon fill="#000000" points="582.9984,242.4404,573.8821,239.7304,574.0303,245.6063,582.9984,242.4404" style="stroke:#000000;stroke-width:1.0;"/><text fill="#000000" font-family="sans-serif" font-size="13" lengthAdjust="spacing" textLength="76" x="587" y="247.0669">é usado por</text><text fill="#000000" font-family="sans-serif" font-size="13" lengthAdjust="spacing" textLength="8" x="433.116" y="270.3053">1</text><text fill="#000000" font-family="sans-serif" font-size="13" lengthAdjust="spacing" textLength="15" x="857.8515" y="259.5443">0*</text><!--MD5=[aac8336d2503e1331a3842f2858ef735]
@startuml
skinparam classAttributeIconSize 0
hide methods
left to right direction

class APISistemaCentral {}

class APIParque {}

class APISubAluguer {}

class Cliente {
 -int Nif
 -string Nome
 -string Email
}

class Utilizador {
 -int Nif
 -string Nome
 -string Email
 -double Carteira
 -int MétodoId
}

class Reserva {}

class Transacao {}

class ReservaSistemaCentral {}

class EmailDeConfirmação {}

class Preço {}

class Custo {}

class Parque {}

class Lugar {}

class Localização {
 -int Numero
 -int Fila
 -int Andar
}

class APIMetodoDePagamento {}

class APIQRCode {}

class Duração {
 -dateTime Inicio
 -dateTime Fim
}

class Morada {
 -string Rua
 -string Freguesia
}

APISistemaCentral "1" - - "1" APIQRCode : usa >
APISistemaCentral "1" - - "1" Cliente : é >
APISistemaCentral "1" - - "0*" ReservaSistemaCentral : possui >
APISistemaCentral "1" - - "0*" Utilizador : possui >
APISistemaCentral "1" - - "1*" APIMetodoDePagamento : tem >
APISistemaCentral "1" - - "0*" EmailDeConfirmação : envia >

APISubAluguer "1" - - "0*" Reserva : possui >
APISubAluguer "1" - - "1*" Lugar : possui >

APIParque "1" - - "0*" Reserva : possui >

Transacao"1" - - "1" ReservaSistemaCentral : é referente a >
Transacao"0*" - - "1" Utilizador : foi efectuada por >

Cliente "1" - - "0*" Reserva : gere >
Cliente "0*" - - "1" APIParque : possui <
Cliente "0*" - - "1" APISubAluguer : possui <

Utilizador "1" - - "0*" ReservaSistemaCentral : gere >

Reserva "1" - - "1" Duração : tem >

ReservaSistemaCentral "1" - - "1" Custo: tem >
ReservaSistemaCentral "1" - - "1" Reserva: é referente a >
ReservaSistemaCentral "0*" - - "1" Parque: é referente a >

EmailDeConfirmação "1" - - "1" Reserva : é referente a >

APIQRCode "1" - - "0*" EmailDeConfirmação : usa <

Lugar "1" - - "0*" Reserva : é referente a <
Lugar "1" - - "1" Preço : tem >
Lugar "1" - - "1" Localização : tem >

Parque "1" - - "1*" Lugar : tem >
Parque"0*" - - "1" APISubAluguer : tem <

Morada "1" - - "1" Parque : tem <

APIMetodoDePagamento "1" - - "0*" Transacao: usa <
APIMetodoDePagamento "1" - - "0*" Utilizador : é usado por >
@enduml

PlantUML version 1.2021.01(Tue Feb 02 07:55:08 UTC 2021)
(GPL source distribution)
Java Runtime: Java(TM) SE Runtime Environment
JVM: Java HotSpot(TM) 64-Bit Server VM
Default Encoding: UTF-8
Language: en
Country: US
--></g></svg>