<?xml version="1.0" encoding="UTF-8" standalone="no"?><svg xmlns="http://www.w3.org/2000/svg" xmlns:xlink="http://www.w3.org/1999/xlink" contentScriptType="application/ecmascript" contentStyleType="text/css" height="688px" preserveAspectRatio="none" style="width:1759px;height:688px;" version="1.1" viewBox="0 0 1759 688" width="1759px" zoomAndPan="magnify"><defs><filter height="300%" id="f1bjgbiydc6fqd" width="300%" x="-1" y="-1"><feGaussianBlur result="blurOut" stdDeviation="2.0"/><feColorMatrix in="blurOut" result="blurOut2" type="matrix" values="0 0 0 0 0 0 0 0 0 0 0 0 0 0 0 0 0 0 .4 0"/><feOffset dx="4.0" dy="4.0" in="blurOut2" result="blurOut3"/><feBlend in="SourceGraphic" in2="blurOut3" mode="normal"/></filter></defs><g><!--MD5=[38129dd771424f36b121b079983d2f41]
class APISistemaCentral--><rect codeLine="9" fill="#FEFECE" filter="url(#f1bjgbiydc6fqd)" height="40" id="APISistemaCentral" style="stroke:#A80036;stroke-width:1.5;" width="139" x="7" y="406"/><ellipse cx="22" cy="422" fill="#ADD1B2" rx="11" ry="11" style="stroke:#A80036;stroke-width:1.0;"/><path d="M24.3438,417.6719 C23.4063,417.2344 22.8125,417.0938 21.9375,417.0938 C19.3125,417.0938 17.3125,419.1719 17.3125,421.8906 L17.3125,423.0156 C17.3125,425.5938 19.4219,427.4844 22.3125,427.4844 C23.5313,427.4844 24.6875,427.1875 25.4375,426.6406 C26.0156,426.2344 26.3438,425.7813 26.3438,425.3906 C26.3438,424.9375 25.9531,424.5469 25.4844,424.5469 C25.2656,424.5469 25.0625,424.625 24.875,424.8125 C24.4219,425.2969 24.4219,425.2969 24.2344,425.3906 C23.8125,425.6563 23.125,425.7813 22.3594,425.7813 C20.3125,425.7813 19.0156,424.6875 19.0156,422.9844 L19.0156,421.8906 C19.0156,420.1094 20.2656,418.7969 22,418.7969 C22.5781,418.7969 23.1875,418.9531 23.6563,419.2031 C24.1406,419.4844 24.3125,419.7031 24.4063,420.1094 C24.4688,420.5156 24.5,420.6406 24.6406,420.7656 C24.7813,420.9063 25.0156,421.0156 25.2344,421.0156 C25.5,421.0156 25.7656,420.875 25.9375,420.6563 C26.0469,420.5 26.0781,420.3125 26.0781,419.8906 L26.0781,418.4688 C26.0781,418.0313 26.0625,417.9063 25.9688,417.75 C25.8125,417.4844 25.5313,417.3438 25.2344,417.3438 C24.9375,417.3438 24.7344,417.4375 24.5156,417.75 L24.3438,417.6719 Z " fill="#000000"/><text fill="#000000" font-family="sans-serif" font-size="12" lengthAdjust="spacing" textLength="107" x="36" y="426.1543">APISistemaCentral</text><line style="stroke:#A80036;stroke-width:1.5;" x1="8" x2="145" y1="438" y2="438"/><!--MD5=[1654698dbf1dab33aeaf9b6eaf8a8ac4]
class APIParque--><rect codeLine="7" fill="#FEFECE" filter="url(#f1bjgbiydc6fqd)" height="40" id="APIParque" style="stroke:#A80036;stroke-width:1.5;" width="90" x="940.5" y="61"/><ellipse cx="955.5" cy="77" fill="#ADD1B2" rx="11" ry="11" style="stroke:#A80036;stroke-width:1.0;"/><path d="M957.8438,72.6719 C956.9063,72.2344 956.3125,72.0938 955.4375,72.0938 C952.8125,72.0938 950.8125,74.1719 950.8125,76.8906 L950.8125,78.0156 C950.8125,80.5938 952.9219,82.4844 955.8125,82.4844 C957.0313,82.4844 958.1875,82.1875 958.9375,81.6406 C959.5156,81.2344 959.8438,80.7813 959.8438,80.3906 C959.8438,79.9375 959.4531,79.5469 958.9844,79.5469 C958.7656,79.5469 958.5625,79.625 958.375,79.8125 C957.9219,80.2969 957.9219,80.2969 957.7344,80.3906 C957.3125,80.6563 956.625,80.7813 955.8594,80.7813 C953.8125,80.7813 952.5156,79.6875 952.5156,77.9844 L952.5156,76.8906 C952.5156,75.1094 953.7656,73.7969 955.5,73.7969 C956.0781,73.7969 956.6875,73.9531 957.1563,74.2031 C957.6406,74.4844 957.8125,74.7031 957.9063,75.1094 C957.9688,75.5156 958,75.6406 958.1406,75.7656 C958.2813,75.9063 958.5156,76.0156 958.7344,76.0156 C959,76.0156 959.2656,75.875 959.4375,75.6563 C959.5469,75.5 959.5781,75.3125 959.5781,74.8906 L959.5781,73.4688 C959.5781,73.0313 959.5625,72.9063 959.4688,72.75 C959.3125,72.4844 959.0313,72.3438 958.7344,72.3438 C958.4375,72.3438 958.2344,72.4375 958.0156,72.75 L957.8438,72.6719 Z " fill="#000000"/><text fill="#000000" font-family="sans-serif" font-size="12" lengthAdjust="spacing" textLength="58" x="969.5" y="81.1543">APIParque</text><line style="stroke:#A80036;stroke-width:1.5;" x1="941.5" x2="1029.5" y1="93" y2="93"/><!--MD5=[19853574c7a77dd38c1a45d47059c05f]
class APPWeb--><rect codeLine="11" fill="#FEFECE" filter="url(#f1bjgbiydc6fqd)" height="40" id="APPWeb" style="stroke:#A80036;stroke-width:1.5;" width="80" x="312.5" y="463"/><ellipse cx="327.5" cy="479" fill="#ADD1B2" rx="11" ry="11" style="stroke:#A80036;stroke-width:1.0;"/><path d="M329.8438,474.6719 C328.9063,474.2344 328.3125,474.0938 327.4375,474.0938 C324.8125,474.0938 322.8125,476.1719 322.8125,478.8906 L322.8125,480.0156 C322.8125,482.5938 324.9219,484.4844 327.8125,484.4844 C329.0313,484.4844 330.1875,484.1875 330.9375,483.6406 C331.5156,483.2344 331.8438,482.7813 331.8438,482.3906 C331.8438,481.9375 331.4531,481.5469 330.9844,481.5469 C330.7656,481.5469 330.5625,481.625 330.375,481.8125 C329.9219,482.2969 329.9219,482.2969 329.7344,482.3906 C329.3125,482.6563 328.625,482.7813 327.8594,482.7813 C325.8125,482.7813 324.5156,481.6875 324.5156,479.9844 L324.5156,478.8906 C324.5156,477.1094 325.7656,475.7969 327.5,475.7969 C328.0781,475.7969 328.6875,475.9531 329.1563,476.2031 C329.6406,476.4844 329.8125,476.7031 329.9063,477.1094 C329.9688,477.5156 330,477.6406 330.1406,477.7656 C330.2813,477.9063 330.5156,478.0156 330.7344,478.0156 C331,478.0156 331.2656,477.875 331.4375,477.6563 C331.5469,477.5 331.5781,477.3125 331.5781,476.8906 L331.5781,475.4688 C331.5781,475.0313 331.5625,474.9063 331.4688,474.75 C331.3125,474.4844 331.0313,474.3438 330.7344,474.3438 C330.4375,474.3438 330.2344,474.4375 330.0156,474.75 L329.8438,474.6719 Z " fill="#000000"/><text fill="#000000" font-family="sans-serif" font-size="12" lengthAdjust="spacing" textLength="48" x="341.5" y="483.1543">APPWeb</text><line style="stroke:#A80036;stroke-width:1.5;" x1="313.5" x2="391.5" y1="495" y2="495"/><!--MD5=[20a748d5ee336a9a91751b0a3d4f0beb]
class Cliente--><rect codeLine="13" fill="#FEFECE" filter="url(#f1bjgbiydc6fqd)" height="78.4141" id="Cliente" style="stroke:#A80036;stroke-width:1.5;" width="85" x="643" y="111"/><ellipse cx="663.4" cy="127" fill="#ADD1B2" rx="11" ry="11" style="stroke:#A80036;stroke-width:1.0;"/><path d="M665.7438,122.6719 C664.8063,122.2344 664.2125,122.0938 663.3375,122.0938 C660.7125,122.0938 658.7125,124.1719 658.7125,126.8906 L658.7125,128.0156 C658.7125,130.5938 660.8219,132.4844 663.7125,132.4844 C664.9313,132.4844 666.0875,132.1875 666.8375,131.6406 C667.4156,131.2344 667.7438,130.7813 667.7438,130.3906 C667.7438,129.9375 667.3531,129.5469 666.8844,129.5469 C666.6656,129.5469 666.4625,129.625 666.275,129.8125 C665.8219,130.2969 665.8219,130.2969 665.6344,130.3906 C665.2125,130.6563 664.525,130.7813 663.7594,130.7813 C661.7125,130.7813 660.4156,129.6875 660.4156,127.9844 L660.4156,126.8906 C660.4156,125.1094 661.6656,123.7969 663.4,123.7969 C663.9781,123.7969 664.5875,123.9531 665.0563,124.2031 C665.5406,124.4844 665.7125,124.7031 665.8063,125.1094 C665.8688,125.5156 665.9,125.6406 666.0406,125.7656 C666.1813,125.9063 666.4156,126.0156 666.6344,126.0156 C666.9,126.0156 667.1656,125.875 667.3375,125.6563 C667.4469,125.5 667.4781,125.3125 667.4781,124.8906 L667.4781,123.4688 C667.4781,123.0313 667.4625,122.9063 667.3688,122.75 C667.2125,122.4844 666.9313,122.3438 666.6344,122.3438 C666.3375,122.3438 666.1344,122.4375 665.9156,122.75 L665.7438,122.6719 Z " fill="#000000"/><text fill="#000000" font-family="sans-serif" font-size="12" lengthAdjust="spacing" textLength="41" x="678.6" y="131.1543">Cliente</text><line style="stroke:#A80036;stroke-width:1.5;" x1="644" x2="727" y1="143" y2="143"/><text fill="#000000" font-family="sans-serif" font-size="11" lengthAdjust="spacing" textLength="37" x="649" y="157.2104">-int Nif</text><text fill="#000000" font-family="sans-serif" font-size="11" lengthAdjust="spacing" textLength="73" x="649" y="170.0151">-string Nome</text><text fill="#000000" font-family="sans-serif" font-size="11" lengthAdjust="spacing" textLength="70" x="649" y="182.8198">-string Email</text><!--MD5=[5dd1d6732c071e710b9290b531f2fa3b]
class Utilizador--><rect codeLine="19" fill="#FEFECE" filter="url(#f1bjgbiydc6fqd)" height="91.2188" id="Utilizador" style="stroke:#A80036;stroke-width:1.5;" width="181" x="595" y="482.5"/><ellipse cx="652.75" cy="498.5" fill="#ADD1B2" rx="11" ry="11" style="stroke:#A80036;stroke-width:1.0;"/><path d="M655.0938,494.1719 C654.1563,493.7344 653.5625,493.5938 652.6875,493.5938 C650.0625,493.5938 648.0625,495.6719 648.0625,498.3906 L648.0625,499.5156 C648.0625,502.0938 650.1719,503.9844 653.0625,503.9844 C654.2813,503.9844 655.4375,503.6875 656.1875,503.1406 C656.7656,502.7344 657.0938,502.2813 657.0938,501.8906 C657.0938,501.4375 656.7031,501.0469 656.2344,501.0469 C656.0156,501.0469 655.8125,501.125 655.625,501.3125 C655.1719,501.7969 655.1719,501.7969 654.9844,501.8906 C654.5625,502.1563 653.875,502.2813 653.1094,502.2813 C651.0625,502.2813 649.7656,501.1875 649.7656,499.4844 L649.7656,498.3906 C649.7656,496.6094 651.0156,495.2969 652.75,495.2969 C653.3281,495.2969 653.9375,495.4531 654.4063,495.7031 C654.8906,495.9844 655.0625,496.2031 655.1563,496.6094 C655.2188,497.0156 655.25,497.1406 655.3906,497.2656 C655.5313,497.4063 655.7656,497.5156 655.9844,497.5156 C656.25,497.5156 656.5156,497.375 656.6875,497.1563 C656.7969,497 656.8281,496.8125 656.8281,496.3906 L656.8281,494.9688 C656.8281,494.5313 656.8125,494.4063 656.7188,494.25 C656.5625,493.9844 656.2813,493.8438 655.9844,493.8438 C655.6875,493.8438 655.4844,493.9375 655.2656,494.25 L655.0938,494.1719 Z " fill="#000000"/><text fill="#000000" font-family="sans-serif" font-size="12" lengthAdjust="spacing" textLength="57" x="673.25" y="502.6543">Utilizador</text><line style="stroke:#A80036;stroke-width:1.5;" x1="596" x2="775" y1="514.5" y2="514.5"/><text fill="#000000" font-family="sans-serif" font-size="11" lengthAdjust="spacing" textLength="37" x="601" y="528.7104">-int Nif</text><text fill="#000000" font-family="sans-serif" font-size="11" lengthAdjust="spacing" textLength="73" x="601" y="541.5151">-string Nome</text><text fill="#000000" font-family="sans-serif" font-size="11" lengthAdjust="spacing" textLength="70" x="601" y="554.3198">-string Email</text><text fill="#000000" font-family="sans-serif" font-size="11" lengthAdjust="spacing" textLength="169" x="601" y="567.1245">-string Método de pagamento</text><!--MD5=[6ea9d6598d9760662639554c9857ab6b]
class Reserva--><rect codeLine="26" fill="#FEFECE" filter="url(#f1bjgbiydc6fqd)" height="40" id="Reserva" style="stroke:#A80036;stroke-width:1.5;" width="81" x="1195" y="221"/><ellipse cx="1210" cy="237" fill="#ADD1B2" rx="11" ry="11" style="stroke:#A80036;stroke-width:1.0;"/><path d="M1212.3438,232.6719 C1211.4063,232.2344 1210.8125,232.0937 1209.9375,232.0937 C1207.3125,232.0937 1205.3125,234.1719 1205.3125,236.8906 L1205.3125,238.0156 C1205.3125,240.5937 1207.4219,242.4844 1210.3125,242.4844 C1211.5313,242.4844 1212.6875,242.1875 1213.4375,241.6406 C1214.0156,241.2344 1214.3438,240.7812 1214.3438,240.3906 C1214.3438,239.9375 1213.9531,239.5469 1213.4844,239.5469 C1213.2656,239.5469 1213.0625,239.625 1212.875,239.8125 C1212.4219,240.2969 1212.4219,240.2969 1212.2344,240.3906 C1211.8125,240.6562 1211.125,240.7812 1210.3594,240.7812 C1208.3125,240.7812 1207.0156,239.6875 1207.0156,237.9844 L1207.0156,236.8906 C1207.0156,235.1094 1208.2656,233.7969 1210,233.7969 C1210.5781,233.7969 1211.1875,233.9531 1211.6563,234.2031 C1212.1406,234.4844 1212.3125,234.7031 1212.4063,235.1094 C1212.4688,235.5156 1212.5,235.6406 1212.6406,235.7656 C1212.7813,235.9062 1213.0156,236.0156 1213.2344,236.0156 C1213.5,236.0156 1213.7656,235.875 1213.9375,235.6562 C1214.0469,235.5 1214.0781,235.3125 1214.0781,234.8906 L1214.0781,233.4687 C1214.0781,233.0312 1214.0625,232.9062 1213.9688,232.75 C1213.8125,232.4844 1213.5313,232.3437 1213.2344,232.3437 C1212.9375,232.3437 1212.7344,232.4375 1212.5156,232.75 L1212.3438,232.6719 Z " fill="#000000"/><text fill="#000000" font-family="sans-serif" font-size="12" lengthAdjust="spacing" textLength="49" x="1224" y="241.1543">Reserva</text><line style="stroke:#A80036;stroke-width:1.5;" x1="1196" x2="1275" y1="253" y2="253"/><!--MD5=[422caa1b20ead34cd492b75378c11008]
class EmailDeConfirmação--><rect codeLine="28" fill="#FEFECE" filter="url(#f1bjgbiydc6fqd)" height="40" id="EmailDeConfirmação" style="stroke:#A80036;stroke-width:1.5;" width="155" x="275" y="301"/><ellipse cx="290" cy="317" fill="#ADD1B2" rx="11" ry="11" style="stroke:#A80036;stroke-width:1.0;"/><path d="M292.3438,312.6719 C291.4063,312.2344 290.8125,312.0937 289.9375,312.0937 C287.3125,312.0937 285.3125,314.1719 285.3125,316.8906 L285.3125,318.0156 C285.3125,320.5937 287.4219,322.4844 290.3125,322.4844 C291.5313,322.4844 292.6875,322.1875 293.4375,321.6406 C294.0156,321.2344 294.3438,320.7812 294.3438,320.3906 C294.3438,319.9375 293.9531,319.5469 293.4844,319.5469 C293.2656,319.5469 293.0625,319.625 292.875,319.8125 C292.4219,320.2969 292.4219,320.2969 292.2344,320.3906 C291.8125,320.6562 291.125,320.7812 290.3594,320.7812 C288.3125,320.7812 287.0156,319.6875 287.0156,317.9844 L287.0156,316.8906 C287.0156,315.1094 288.2656,313.7969 290,313.7969 C290.5781,313.7969 291.1875,313.9531 291.6563,314.2031 C292.1406,314.4844 292.3125,314.7031 292.4063,315.1094 C292.4688,315.5156 292.5,315.6406 292.6406,315.7656 C292.7813,315.9062 293.0156,316.0156 293.2344,316.0156 C293.5,316.0156 293.7656,315.875 293.9375,315.6562 C294.0469,315.5 294.0781,315.3125 294.0781,314.8906 L294.0781,313.4687 C294.0781,313.0312 294.0625,312.9062 293.9688,312.75 C293.8125,312.4844 293.5313,312.3437 293.2344,312.3437 C292.9375,312.3437 292.7344,312.4375 292.5156,312.75 L292.3438,312.6719 Z " fill="#000000"/><text fill="#000000" font-family="sans-serif" font-size="12" lengthAdjust="spacing" textLength="123" x="304" y="321.1543">EmailDeConfirmação</text><line style="stroke:#A80036;stroke-width:1.5;" x1="276" x2="429" y1="333" y2="333"/><!--MD5=[ec8f5e6a0bb5c1192bcc4a64c9a89492]
class Preço--><rect codeLine="30" fill="#FEFECE" filter="url(#f1bjgbiydc6fqd)" height="40" id="Preço" style="stroke:#A80036;stroke-width:1.5;" width="66" x="1661" y="79"/><ellipse cx="1676" cy="95" fill="#ADD1B2" rx="11" ry="11" style="stroke:#A80036;stroke-width:1.0;"/><path d="M1678.3438,90.6719 C1677.4063,90.2344 1676.8125,90.0938 1675.9375,90.0938 C1673.3125,90.0938 1671.3125,92.1719 1671.3125,94.8906 L1671.3125,96.0156 C1671.3125,98.5938 1673.4219,100.4844 1676.3125,100.4844 C1677.5313,100.4844 1678.6875,100.1875 1679.4375,99.6406 C1680.0156,99.2344 1680.3438,98.7813 1680.3438,98.3906 C1680.3438,97.9375 1679.9531,97.5469 1679.4844,97.5469 C1679.2656,97.5469 1679.0625,97.625 1678.875,97.8125 C1678.4219,98.2969 1678.4219,98.2969 1678.2344,98.3906 C1677.8125,98.6563 1677.125,98.7813 1676.3594,98.7813 C1674.3125,98.7813 1673.0156,97.6875 1673.0156,95.9844 L1673.0156,94.8906 C1673.0156,93.1094 1674.2656,91.7969 1676,91.7969 C1676.5781,91.7969 1677.1875,91.9531 1677.6563,92.2031 C1678.1406,92.4844 1678.3125,92.7031 1678.4063,93.1094 C1678.4688,93.5156 1678.5,93.6406 1678.6406,93.7656 C1678.7813,93.9063 1679.0156,94.0156 1679.2344,94.0156 C1679.5,94.0156 1679.7656,93.875 1679.9375,93.6563 C1680.0469,93.5 1680.0781,93.3125 1680.0781,92.8906 L1680.0781,91.4688 C1680.0781,91.0313 1680.0625,90.9063 1679.9688,90.75 C1679.8125,90.4844 1679.5313,90.3438 1679.2344,90.3438 C1678.9375,90.3438 1678.7344,90.4375 1678.5156,90.75 L1678.3438,90.6719 Z " fill="#000000"/><text fill="#000000" font-family="sans-serif" font-size="12" lengthAdjust="spacing" textLength="34" x="1690" y="99.1543">Preço</text><line style="stroke:#A80036;stroke-width:1.5;" x1="1662" x2="1726" y1="111" y2="111"/><!--MD5=[6f49f9179445ef1754d85aa01a9c4eb7]
class Custo--><rect codeLine="32" fill="#FEFECE" filter="url(#f1bjgbiydc6fqd)" height="40" id="Custo" style="stroke:#A80036;stroke-width:1.5;" width="66" x="1455.5" y="219"/><ellipse cx="1470.5" cy="235" fill="#ADD1B2" rx="11" ry="11" style="stroke:#A80036;stroke-width:1.0;"/><path d="M1472.8438,230.6719 C1471.9063,230.2344 1471.3125,230.0937 1470.4375,230.0937 C1467.8125,230.0937 1465.8125,232.1719 1465.8125,234.8906 L1465.8125,236.0156 C1465.8125,238.5937 1467.9219,240.4844 1470.8125,240.4844 C1472.0313,240.4844 1473.1875,240.1875 1473.9375,239.6406 C1474.5156,239.2344 1474.8438,238.7812 1474.8438,238.3906 C1474.8438,237.9375 1474.4531,237.5469 1473.9844,237.5469 C1473.7656,237.5469 1473.5625,237.625 1473.375,237.8125 C1472.9219,238.2969 1472.9219,238.2969 1472.7344,238.3906 C1472.3125,238.6562 1471.625,238.7812 1470.8594,238.7812 C1468.8125,238.7812 1467.5156,237.6875 1467.5156,235.9844 L1467.5156,234.8906 C1467.5156,233.1094 1468.7656,231.7969 1470.5,231.7969 C1471.0781,231.7969 1471.6875,231.9531 1472.1563,232.2031 C1472.6406,232.4844 1472.8125,232.7031 1472.9063,233.1094 C1472.9688,233.5156 1473,233.6406 1473.1406,233.7656 C1473.2813,233.9062 1473.5156,234.0156 1473.7344,234.0156 C1474,234.0156 1474.2656,233.875 1474.4375,233.6562 C1474.5469,233.5 1474.5781,233.3125 1474.5781,232.8906 L1474.5781,231.4687 C1474.5781,231.0312 1474.5625,230.9062 1474.4688,230.75 C1474.3125,230.4844 1474.0313,230.3437 1473.7344,230.3437 C1473.4375,230.3437 1473.2344,230.4375 1473.0156,230.75 L1472.8438,230.6719 Z " fill="#000000"/><text fill="#000000" font-family="sans-serif" font-size="12" lengthAdjust="spacing" textLength="34" x="1484.5" y="239.1543">Custo</text><line style="stroke:#A80036;stroke-width:1.5;" x1="1456.5" x2="1520.5" y1="251" y2="251"/><!--MD5=[1a083dbe42a284ae0ea7f6f701783206]
class Parque--><rect codeLine="34" fill="#FEFECE" filter="url(#f1bjgbiydc6fqd)" height="40" id="Parque" style="stroke:#A80036;stroke-width:1.5;" width="73" x="1199" y="20"/><ellipse cx="1214" cy="36" fill="#ADD1B2" rx="11" ry="11" style="stroke:#A80036;stroke-width:1.0;"/><path d="M1216.3438,31.6719 C1215.4063,31.2344 1214.8125,31.0938 1213.9375,31.0938 C1211.3125,31.0938 1209.3125,33.1719 1209.3125,35.8906 L1209.3125,37.0156 C1209.3125,39.5938 1211.4219,41.4844 1214.3125,41.4844 C1215.5313,41.4844 1216.6875,41.1875 1217.4375,40.6406 C1218.0156,40.2344 1218.3438,39.7813 1218.3438,39.3906 C1218.3438,38.9375 1217.9531,38.5469 1217.4844,38.5469 C1217.2656,38.5469 1217.0625,38.625 1216.875,38.8125 C1216.4219,39.2969 1216.4219,39.2969 1216.2344,39.3906 C1215.8125,39.6563 1215.125,39.7813 1214.3594,39.7813 C1212.3125,39.7813 1211.0156,38.6875 1211.0156,36.9844 L1211.0156,35.8906 C1211.0156,34.1094 1212.2656,32.7969 1214,32.7969 C1214.5781,32.7969 1215.1875,32.9531 1215.6563,33.2031 C1216.1406,33.4844 1216.3125,33.7031 1216.4063,34.1094 C1216.4688,34.5156 1216.5,34.6406 1216.6406,34.7656 C1216.7813,34.9063 1217.0156,35.0156 1217.2344,35.0156 C1217.5,35.0156 1217.7656,34.875 1217.9375,34.6563 C1218.0469,34.5 1218.0781,34.3125 1218.0781,33.8906 L1218.0781,32.4688 C1218.0781,32.0313 1218.0625,31.9063 1217.9688,31.75 C1217.8125,31.4844 1217.5313,31.3438 1217.2344,31.3438 C1216.9375,31.3438 1216.7344,31.4375 1216.5156,31.75 L1216.3438,31.6719 Z " fill="#000000"/><text fill="#000000" font-family="sans-serif" font-size="12" lengthAdjust="spacing" textLength="41" x="1228" y="40.1543">Parque</text><line style="stroke:#A80036;stroke-width:1.5;" x1="1200" x2="1271" y1="52" y2="52"/><!--MD5=[6129de384f1bcacbc1ea3ec83eb0d64e]
class Lugar--><rect codeLine="36" fill="#FEFECE" filter="url(#f1bjgbiydc6fqd)" height="40" id="Lugar" style="stroke:#A80036;stroke-width:1.5;" width="65" x="1456" y="126"/><ellipse cx="1471" cy="142" fill="#ADD1B2" rx="11" ry="11" style="stroke:#A80036;stroke-width:1.0;"/><path d="M1473.3438,137.6719 C1472.4063,137.2344 1471.8125,137.0938 1470.9375,137.0938 C1468.3125,137.0938 1466.3125,139.1719 1466.3125,141.8906 L1466.3125,143.0156 C1466.3125,145.5938 1468.4219,147.4844 1471.3125,147.4844 C1472.5313,147.4844 1473.6875,147.1875 1474.4375,146.6406 C1475.0156,146.2344 1475.3438,145.7813 1475.3438,145.3906 C1475.3438,144.9375 1474.9531,144.5469 1474.4844,144.5469 C1474.2656,144.5469 1474.0625,144.625 1473.875,144.8125 C1473.4219,145.2969 1473.4219,145.2969 1473.2344,145.3906 C1472.8125,145.6563 1472.125,145.7813 1471.3594,145.7813 C1469.3125,145.7813 1468.0156,144.6875 1468.0156,142.9844 L1468.0156,141.8906 C1468.0156,140.1094 1469.2656,138.7969 1471,138.7969 C1471.5781,138.7969 1472.1875,138.9531 1472.6563,139.2031 C1473.1406,139.4844 1473.3125,139.7031 1473.4063,140.1094 C1473.4688,140.5156 1473.5,140.6406 1473.6406,140.7656 C1473.7813,140.9063 1474.0156,141.0156 1474.2344,141.0156 C1474.5,141.0156 1474.7656,140.875 1474.9375,140.6563 C1475.0469,140.5 1475.0781,140.3125 1475.0781,139.8906 L1475.0781,138.4688 C1475.0781,138.0313 1475.0625,137.9063 1474.9688,137.75 C1474.8125,137.4844 1474.5313,137.3438 1474.2344,137.3438 C1473.9375,137.3438 1473.7344,137.4375 1473.5156,137.75 L1473.3438,137.6719 Z " fill="#000000"/><text fill="#000000" font-family="sans-serif" font-size="12" lengthAdjust="spacing" textLength="33" x="1485" y="146.1543">Lugar</text><line style="stroke:#A80036;stroke-width:1.5;" x1="1457" x2="1520" y1="158" y2="158"/><!--MD5=[53d7157415ddfdf8a565a9d974d385cc]
class Localização--><rect codeLine="38" fill="#FEFECE" filter="url(#f1bjgbiydc6fqd)" height="78.4141" id="Localização" style="stroke:#A80036;stroke-width:1.5;" width="102" x="1643" y="154"/><ellipse cx="1658" cy="170" fill="#ADD1B2" rx="11" ry="11" style="stroke:#A80036;stroke-width:1.0;"/><path d="M1660.3438,165.6719 C1659.4063,165.2344 1658.8125,165.0937 1657.9375,165.0937 C1655.3125,165.0937 1653.3125,167.1719 1653.3125,169.8906 L1653.3125,171.0156 C1653.3125,173.5937 1655.4219,175.4844 1658.3125,175.4844 C1659.5313,175.4844 1660.6875,175.1875 1661.4375,174.6406 C1662.0156,174.2344 1662.3438,173.7812 1662.3438,173.3906 C1662.3438,172.9375 1661.9531,172.5469 1661.4844,172.5469 C1661.2656,172.5469 1661.0625,172.625 1660.875,172.8125 C1660.4219,173.2969 1660.4219,173.2969 1660.2344,173.3906 C1659.8125,173.6562 1659.125,173.7812 1658.3594,173.7812 C1656.3125,173.7812 1655.0156,172.6875 1655.0156,170.9844 L1655.0156,169.8906 C1655.0156,168.1094 1656.2656,166.7969 1658,166.7969 C1658.5781,166.7969 1659.1875,166.9531 1659.6563,167.2031 C1660.1406,167.4844 1660.3125,167.7031 1660.4063,168.1094 C1660.4688,168.5156 1660.5,168.6406 1660.6406,168.7656 C1660.7813,168.9062 1661.0156,169.0156 1661.2344,169.0156 C1661.5,169.0156 1661.7656,168.875 1661.9375,168.6562 C1662.0469,168.5 1662.0781,168.3125 1662.0781,167.8906 L1662.0781,166.4687 C1662.0781,166.0312 1662.0625,165.9062 1661.9688,165.75 C1661.8125,165.4844 1661.5313,165.3437 1661.2344,165.3437 C1660.9375,165.3437 1660.7344,165.4375 1660.5156,165.75 L1660.3438,165.6719 Z " fill="#000000"/><text fill="#000000" font-family="sans-serif" font-size="12" lengthAdjust="spacing" textLength="70" x="1672" y="174.1543">Localização</text><line style="stroke:#A80036;stroke-width:1.5;" x1="1644" x2="1744" y1="186" y2="186"/><text fill="#000000" font-family="sans-serif" font-size="11" lengthAdjust="spacing" textLength="67" x="1649" y="200.2104">-int Numero</text><text fill="#000000" font-family="sans-serif" font-size="11" lengthAdjust="spacing" textLength="41" x="1649" y="213.0151">-int Fila</text><text fill="#000000" font-family="sans-serif" font-size="11" lengthAdjust="spacing" textLength="55" x="1649" y="225.8198">-int Andar</text><!--MD5=[15ae23301f4536208a2daf13431a8a82]
class SubAluguer--><rect codeLine="44" fill="#FEFECE" filter="url(#f1bjgbiydc6fqd)" height="40" id="SubAluguer" style="stroke:#A80036;stroke-width:1.5;" width="101" x="935" y="508"/><ellipse cx="950" cy="524" fill="#ADD1B2" rx="11" ry="11" style="stroke:#A80036;stroke-width:1.0;"/><path d="M952.3438,519.6719 C951.4063,519.2344 950.8125,519.0938 949.9375,519.0938 C947.3125,519.0938 945.3125,521.1719 945.3125,523.8906 L945.3125,525.0156 C945.3125,527.5938 947.4219,529.4844 950.3125,529.4844 C951.5313,529.4844 952.6875,529.1875 953.4375,528.6406 C954.0156,528.2344 954.3438,527.7813 954.3438,527.3906 C954.3438,526.9375 953.9531,526.5469 953.4844,526.5469 C953.2656,526.5469 953.0625,526.625 952.875,526.8125 C952.4219,527.2969 952.4219,527.2969 952.2344,527.3906 C951.8125,527.6563 951.125,527.7813 950.3594,527.7813 C948.3125,527.7813 947.0156,526.6875 947.0156,524.9844 L947.0156,523.8906 C947.0156,522.1094 948.2656,520.7969 950,520.7969 C950.5781,520.7969 951.1875,520.9531 951.6563,521.2031 C952.1406,521.4844 952.3125,521.7031 952.4063,522.1094 C952.4688,522.5156 952.5,522.6406 952.6406,522.7656 C952.7813,522.9063 953.0156,523.0156 953.2344,523.0156 C953.5,523.0156 953.7656,522.875 953.9375,522.6563 C954.0469,522.5 954.0781,522.3125 954.0781,521.8906 L954.0781,520.4688 C954.0781,520.0313 954.0625,519.9063 953.9688,519.75 C953.8125,519.4844 953.5313,519.3438 953.2344,519.3438 C952.9375,519.3438 952.7344,519.4375 952.5156,519.75 L952.3438,519.6719 Z " fill="#000000"/><text fill="#000000" font-family="sans-serif" font-size="12" lengthAdjust="spacing" textLength="69" x="964" y="528.1543">SubAluguer</text><line style="stroke:#A80036;stroke-width:1.5;" x1="936" x2="1035" y1="540" y2="540"/><!--MD5=[ec92ce9971d25c6d018a00153947441a]
class MétodoDePagamento--><rect codeLine="46" fill="#FEFECE" filter="url(#f1bjgbiydc6fqd)" height="40" id="MétodoDePagamento" style="stroke:#A80036;stroke-width:1.5;" width="161" x="272" y="538"/><ellipse cx="287" cy="554" fill="#ADD1B2" rx="11" ry="11" style="stroke:#A80036;stroke-width:1.0;"/><path d="M289.3438,549.6719 C288.4063,549.2344 287.8125,549.0938 286.9375,549.0938 C284.3125,549.0938 282.3125,551.1719 282.3125,553.8906 L282.3125,555.0156 C282.3125,557.5938 284.4219,559.4844 287.3125,559.4844 C288.5313,559.4844 289.6875,559.1875 290.4375,558.6406 C291.0156,558.2344 291.3438,557.7813 291.3438,557.3906 C291.3438,556.9375 290.9531,556.5469 290.4844,556.5469 C290.2656,556.5469 290.0625,556.625 289.875,556.8125 C289.4219,557.2969 289.4219,557.2969 289.2344,557.3906 C288.8125,557.6563 288.125,557.7813 287.3594,557.7813 C285.3125,557.7813 284.0156,556.6875 284.0156,554.9844 L284.0156,553.8906 C284.0156,552.1094 285.2656,550.7969 287,550.7969 C287.5781,550.7969 288.1875,550.9531 288.6563,551.2031 C289.1406,551.4844 289.3125,551.7031 289.4063,552.1094 C289.4688,552.5156 289.5,552.6406 289.6406,552.7656 C289.7813,552.9063 290.0156,553.0156 290.2344,553.0156 C290.5,553.0156 290.7656,552.875 290.9375,552.6563 C291.0469,552.5 291.0781,552.3125 291.0781,551.8906 L291.0781,550.4688 C291.0781,550.0313 291.0625,549.9063 290.9688,549.75 C290.8125,549.4844 290.5313,549.3438 290.2344,549.3438 C289.9375,549.3438 289.7344,549.4375 289.5156,549.75 L289.3438,549.6719 Z " fill="#000000"/><text fill="#000000" font-family="sans-serif" font-size="12" lengthAdjust="spacing" textLength="129" x="301" y="558.1543">MétodoDePagamento</text><line style="stroke:#A80036;stroke-width:1.5;" x1="273" x2="432" y1="570" y2="570"/><!--MD5=[db710054b49517484ab0764fde030c77]
class APIQRCode--><rect codeLine="48" fill="#FEFECE" filter="url(#f1bjgbiydc6fqd)" height="40" id="APIQRCode" style="stroke:#A80036;stroke-width:1.5;" width="98" x="636.5" y="387"/><ellipse cx="651.5" cy="403" fill="#ADD1B2" rx="11" ry="11" style="stroke:#A80036;stroke-width:1.0;"/><path d="M653.8438,398.6719 C652.9063,398.2344 652.3125,398.0937 651.4375,398.0937 C648.8125,398.0937 646.8125,400.1719 646.8125,402.8906 L646.8125,404.0156 C646.8125,406.5937 648.9219,408.4844 651.8125,408.4844 C653.0313,408.4844 654.1875,408.1875 654.9375,407.6406 C655.5156,407.2344 655.8438,406.7812 655.8438,406.3906 C655.8438,405.9375 655.4531,405.5469 654.9844,405.5469 C654.7656,405.5469 654.5625,405.625 654.375,405.8125 C653.9219,406.2969 653.9219,406.2969 653.7344,406.3906 C653.3125,406.6562 652.625,406.7812 651.8594,406.7812 C649.8125,406.7812 648.5156,405.6875 648.5156,403.9844 L648.5156,402.8906 C648.5156,401.1094 649.7656,399.7969 651.5,399.7969 C652.0781,399.7969 652.6875,399.9531 653.1563,400.2031 C653.6406,400.4844 653.8125,400.7031 653.9063,401.1094 C653.9688,401.5156 654,401.6406 654.1406,401.7656 C654.2813,401.9062 654.5156,402.0156 654.7344,402.0156 C655,402.0156 655.2656,401.875 655.4375,401.6562 C655.5469,401.5 655.5781,401.3125 655.5781,400.8906 L655.5781,399.4687 C655.5781,399.0312 655.5625,398.9062 655.4688,398.75 C655.3125,398.4844 655.0313,398.3437 654.7344,398.3437 C654.4375,398.3437 654.2344,398.4375 654.0156,398.75 L653.8438,398.6719 Z " fill="#000000"/><text fill="#000000" font-family="sans-serif" font-size="12" lengthAdjust="spacing" textLength="66" x="665.5" y="407.1543">APIQRCode</text><line style="stroke:#A80036;stroke-width:1.5;" x1="637.5" x2="733.5" y1="419" y2="419"/><!--MD5=[3008f5efaa3e7cb421914c717b209816]
class Duração--><rect codeLine="50" fill="#FEFECE" filter="url(#f1bjgbiydc6fqd)" height="65.6094" id="Duração" style="stroke:#A80036;stroke-width:1.5;" width="104" x="1436.5" y="294"/><ellipse cx="1461.4" cy="310" fill="#ADD1B2" rx="11" ry="11" style="stroke:#A80036;stroke-width:1.0;"/><path d="M1463.7438,305.6719 C1462.8063,305.2344 1462.2125,305.0937 1461.3375,305.0937 C1458.7125,305.0937 1456.7125,307.1719 1456.7125,309.8906 L1456.7125,311.0156 C1456.7125,313.5937 1458.8219,315.4844 1461.7125,315.4844 C1462.9313,315.4844 1464.0875,315.1875 1464.8375,314.6406 C1465.4156,314.2344 1465.7438,313.7812 1465.7438,313.3906 C1465.7438,312.9375 1465.3531,312.5469 1464.8844,312.5469 C1464.6656,312.5469 1464.4625,312.625 1464.275,312.8125 C1463.8219,313.2969 1463.8219,313.2969 1463.6344,313.3906 C1463.2125,313.6562 1462.525,313.7812 1461.7594,313.7812 C1459.7125,313.7812 1458.4156,312.6875 1458.4156,310.9844 L1458.4156,309.8906 C1458.4156,308.1094 1459.6656,306.7969 1461.4,306.7969 C1461.9781,306.7969 1462.5875,306.9531 1463.0563,307.2031 C1463.5406,307.4844 1463.7125,307.7031 1463.8063,308.1094 C1463.8688,308.5156 1463.9,308.6406 1464.0406,308.7656 C1464.1813,308.9062 1464.4156,309.0156 1464.6344,309.0156 C1464.9,309.0156 1465.1656,308.875 1465.3375,308.6562 C1465.4469,308.5 1465.4781,308.3125 1465.4781,307.8906 L1465.4781,306.4687 C1465.4781,306.0312 1465.4625,305.9062 1465.3688,305.75 C1465.2125,305.4844 1464.9313,305.3437 1464.6344,305.3437 C1464.3375,305.3437 1464.1344,305.4375 1463.9156,305.75 L1463.7438,305.6719 Z " fill="#000000"/><text fill="#000000" font-family="sans-serif" font-size="12" lengthAdjust="spacing" textLength="50" x="1477.6" y="314.1543">Duração</text><line style="stroke:#A80036;stroke-width:1.5;" x1="1437.5" x2="1539.5" y1="326" y2="326"/><text fill="#000000" font-family="sans-serif" font-size="11" lengthAdjust="spacing" textLength="92" x="1442.5" y="340.2104">-dateTime Inicio</text><text fill="#000000" font-family="sans-serif" font-size="11" lengthAdjust="spacing" textLength="83" x="1442.5" y="353.0151">-dateTime Fim</text><!--MD5=[77c6229b59f71ada4b7bed0495e5baba]
class Morada--><rect codeLine="55" fill="#FEFECE" filter="url(#f1bjgbiydc6fqd)" height="65.6094" id="Morada" style="stroke:#A80036;stroke-width:1.5;" width="107" x="1435" y="7"/><ellipse cx="1463.5" cy="23" fill="#ADD1B2" rx="11" ry="11" style="stroke:#A80036;stroke-width:1.0;"/><path d="M1465.8438,18.6719 C1464.9063,18.2344 1464.3125,18.0938 1463.4375,18.0938 C1460.8125,18.0938 1458.8125,20.1719 1458.8125,22.8906 L1458.8125,24.0156 C1458.8125,26.5938 1460.9219,28.4844 1463.8125,28.4844 C1465.0313,28.4844 1466.1875,28.1875 1466.9375,27.6406 C1467.5156,27.2344 1467.8438,26.7813 1467.8438,26.3906 C1467.8438,25.9375 1467.4531,25.5469 1466.9844,25.5469 C1466.7656,25.5469 1466.5625,25.625 1466.375,25.8125 C1465.9219,26.2969 1465.9219,26.2969 1465.7344,26.3906 C1465.3125,26.6563 1464.625,26.7813 1463.8594,26.7813 C1461.8125,26.7813 1460.5156,25.6875 1460.5156,23.9844 L1460.5156,22.8906 C1460.5156,21.1094 1461.7656,19.7969 1463.5,19.7969 C1464.0781,19.7969 1464.6875,19.9531 1465.1563,20.2031 C1465.6406,20.4844 1465.8125,20.7031 1465.9063,21.1094 C1465.9688,21.5156 1466,21.6406 1466.1406,21.7656 C1466.2813,21.9063 1466.5156,22.0156 1466.7344,22.0156 C1467,22.0156 1467.2656,21.875 1467.4375,21.6563 C1467.5469,21.5 1467.5781,21.3125 1467.5781,20.8906 L1467.5781,19.4688 C1467.5781,19.0313 1467.5625,18.9063 1467.4688,18.75 C1467.3125,18.4844 1467.0313,18.3438 1466.7344,18.3438 C1466.4375,18.3438 1466.2344,18.4375 1466.0156,18.75 L1465.8438,18.6719 Z " fill="#000000"/><text fill="#000000" font-family="sans-serif" font-size="12" lengthAdjust="spacing" textLength="45" x="1480.5" y="27.1543">Morada</text><line style="stroke:#A80036;stroke-width:1.5;" x1="1436" x2="1541" y1="39" y2="39"/><text fill="#000000" font-family="sans-serif" font-size="11" lengthAdjust="spacing" textLength="60" x="1441" y="53.2104">-string Rua</text><text fill="#000000" font-family="sans-serif" font-size="11" lengthAdjust="spacing" textLength="95" x="1441" y="66.0151">-string Freguesia</text><!--MD5=[d0b076322fca75d93501f04c1a1688f9]
link APISistemaCentral to Cliente--><path codeLine="60" d="M80.4214,405.683 C87.7818,362.607 111.349,262.196 176,215 C319.766,110.048 549.262,129.41 642.786,142.903 " fill="none" id="APISistemaCentral-Cliente" style="stroke:#A80036;stroke-width:1.0;"/><polygon fill="#000000" points="350.5299,124.4497,341.0911,125.6163,343.5794,130.9414,350.5299,124.4497" style="stroke:#000000;stroke-width:1.0;"/><text fill="#000000" font-family="sans-serif" font-size="13" lengthAdjust="spacing" textLength="8" x="355" y="131.0669">é</text><text fill="#000000" font-family="sans-serif" font-size="13" lengthAdjust="spacing" textLength="8" x="72.3993" y="394.945">1</text><text fill="#000000" font-family="sans-serif" font-size="13" lengthAdjust="spacing" textLength="8" x="627.049" y="155.0134">1</text><!--MD5=[91749c56b4c61a039bb52ea243960566]
link APISistemaCentral to APPWeb--><path codeLine="61" d="M146.288,440.309 C198.759,451.225 269.154,465.869 312.367,474.859 " fill="none" id="APISistemaCentral-APPWeb" style="stroke:#A80036;stroke-width:1.0;"/><polygon fill="#000000" points="185.8952,439.5848,177.6383,434.8652,176.4411,440.6199,185.8952,439.5848" style="stroke:#000000;stroke-width:1.0;"/><text fill="#000000" font-family="sans-serif" font-size="13" lengthAdjust="spacing" textLength="51" x="190" y="443.0669">é usado</text><text fill="#000000" font-family="sans-serif" font-size="13" lengthAdjust="spacing" textLength="8" x="153.8974" y="454.6318">1</text><text fill="#000000" font-family="sans-serif" font-size="13" lengthAdjust="spacing" textLength="8" x="296.5058" y="486.8235">1</text><!--MD5=[7ebaec570886048606a7307f203d3561]
link APISistemaCentral to Reserva--><path codeLine="62" d="M92.6072,405.849 C130.452,357.901 234.697,241 351.5,241 C351.5,241 351.5,241 986.5,241 C1060.12,241 1146.04,241 1194.98,241 " fill="none" id="APISistemaCentral-Reserva" style="stroke:#A80036;stroke-width:1.0;"/><polygon fill="#000000" points="667.445,231.8269,658.0647,230.258,658.9341,236.0713,667.445,231.8269" style="stroke:#000000;stroke-width:1.0;"/><text fill="#000000" font-family="sans-serif" font-size="13" lengthAdjust="spacing" textLength="41" x="671.5" y="237.0669">possui</text><text fill="#000000" font-family="sans-serif" font-size="13" lengthAdjust="spacing" textLength="8" x="88.1637" y="394.8129">1</text><text fill="#000000" font-family="sans-serif" font-size="13" lengthAdjust="spacing" textLength="15" x="1172.0267" y="254.3201">0*</text><!--MD5=[2be4e2485f6429e226a7cf3e69e5d4db]
link APISistemaCentral to Utilizador--><path codeLine="63" d="M90.2997,446.036 C117.716,486.839 186.619,578.6127 272,612.9995 C380.351,656.6372 514.104,612.7136 599.364,573.5165 " fill="none" id="APISistemaCentral-Utilizador" style="stroke:#A80036;stroke-width:1.0;"/><polygon fill="#000000" points="334.3502,605.7805,326.29,600.7324,324.8622,606.4342,334.3502,605.7805" style="stroke:#000000;stroke-width:1.0;"/><text fill="#000000" font-family="sans-serif" font-size="13" lengthAdjust="spacing" textLength="41" x="338.5" y="609.0664">possui</text><text fill="#000000" font-family="sans-serif" font-size="13" lengthAdjust="spacing" textLength="8" x="95.5284" y="466.2111">1</text><text fill="#000000" font-family="sans-serif" font-size="13" lengthAdjust="spacing" textLength="15" x="571.7817" y="592.7017">0*</text><!--MD5=[76c6aa6dbc5e70634267b8f8c5324695]
link APISistemaCentral to MétodoDePagamento--><path codeLine="64" d="M109.284,446.174 C128.292,457.868 153.125,472.506 176,484 C216.331,504.264 263.549,523.957 298.842,537.926 " fill="none" id="APISistemaCentral-MétodoDePagamento" style="stroke:#A80036;stroke-width:1.0;"/><polygon fill="#000000" points="198.0005,477.7448,191.1394,471.1587,188.5786,476.4494,198.0005,477.7448" style="stroke:#000000;stroke-width:1.0;"/><text fill="#000000" font-family="sans-serif" font-size="13" lengthAdjust="spacing" textLength="26" x="202.5" y="480.0669">tem</text><text fill="#000000" font-family="sans-serif" font-size="13" lengthAdjust="spacing" textLength="8" x="109.379" y="466.0429">1</text><text fill="#000000" font-family="sans-serif" font-size="13" lengthAdjust="spacing" textLength="15" x="265.8768" y="526.9125">1*</text><!--MD5=[8e96fee9880a4ba3b131d16794c405f4]
link APISistemaCentral to APIQRCode--><path codeLine="65" d="M146.117,423.115 C156.14,422.722 166.336,422.338 176,422 C345.249,416.067 546.242,410.606 636.47,408.239 " fill="none" id="APISistemaCentral-APIQRCode" style="stroke:#A80036;stroke-width:1.0;"/><polygon fill="#000000" points="343.4977,404.4148,334.3677,401.7515,334.5459,407.6266,343.4977,404.4148" style="stroke:#000000;stroke-width:1.0;"/><text fill="#000000" font-family="sans-serif" font-size="13" lengthAdjust="spacing" textLength="23" x="347.5" y="409.0669">usa</text><text fill="#000000" font-family="sans-serif" font-size="13" lengthAdjust="spacing" textLength="8" x="154.1689" y="435.6939">1</text><text fill="#000000" font-family="sans-serif" font-size="13" lengthAdjust="spacing" textLength="8" x="620.3498" y="421.6542">1</text><!--MD5=[1e30445b45991c0f6b0377df5c4b1f9b]
link APISistemaCentral to EmailDeConfirmação--><path codeLine="66" d="M106.088,405.907 C125.158,393.267 151.193,377.43 176,367 C207.359,353.815 243.494,343.568 274.794,336.126 " fill="none" id="APISistemaCentral-EmailDeConfirmação" style="stroke:#A80036;stroke-width:1.0;"/><polygon fill="#000000" points="193.6204,333.6553,184.1387,334.3967,186.3854,339.8283,193.6204,333.6553" style="stroke:#000000;stroke-width:1.0;"/><text fill="#000000" font-family="sans-serif" font-size="13" lengthAdjust="spacing" textLength="35" x="198" y="340.0669">envia</text><text fill="#000000" font-family="sans-serif" font-size="13" lengthAdjust="spacing" textLength="8" x="105.6045" y="394.888">1</text><text fill="#000000" font-family="sans-serif" font-size="13" lengthAdjust="spacing" textLength="15" x="251.9391" y="350.2849">0*</text><!--MD5=[e5fcc2a48c85fe2f47cefd50ae821e7e]
link APISistemaCentral to SubAluguer--><path codeLine="67" d="M83.4101,446.119 C95.1346,482.651 124.731,560.1562 176,603.9995 C210.514,633.5152 227.385,630.5169 272,638.9995 C493.053,681.0289 559.124,650.9667 776,590.9995 C830.67,575.883 892.856,556.852 934.981,543.683 " fill="none" id="APISistemaCentral-SubAluguer" style="stroke:#A80036;stroke-width:1.0;"/><polygon fill="#000000" points="472.9675,639.135,464.3157,635.1856,463.6467,641.0253,472.9675,639.135" style="stroke:#000000;stroke-width:1.0;"/><text fill="#000000" font-family="sans-serif" font-size="13" lengthAdjust="spacing" textLength="87" x="477" y="643.0664">permite fazer</text><text fill="#000000" font-family="sans-serif" font-size="13" lengthAdjust="spacing" textLength="8" x="76.2286" y="465.9724">1</text><text fill="#000000" font-family="sans-serif" font-size="13" lengthAdjust="spacing" textLength="15" x="911.8221" y="559.0193">0*</text><!--MD5=[1fe00d9aa06cae4131be0830c01d75e9]
link APIParque to Parque--><path codeLine="69" d="M1030.55,73.717 C1078.57,65.778 1154.48,53.229 1198.89,45.887 " fill="none" id="APIParque-Parque" style="stroke:#A80036;stroke-width:1.0;"/><polygon fill="#000000" points="1075.933,43.7509,1066.5297,42.3266,1067.4884,48.1258,1075.933,43.7509" style="stroke:#000000;stroke-width:1.0;"/><text fill="#000000" font-family="sans-serif" font-size="13" lengthAdjust="spacing" textLength="84" x="1080" y="49.0669">é referente a</text><text fill="#000000" font-family="sans-serif" font-size="13" lengthAdjust="spacing" textLength="8" x="1038.3673" y="85.8291">1</text><text fill="#000000" font-family="sans-serif" font-size="13" lengthAdjust="spacing" textLength="15" x="1176.0329" y="60.3503">1*</text><!--MD5=[72a1d6bba75ee92fed661f2768de78fb]
link APIParque to Reserva--><path codeLine="70" d="M1030.86,90.467 C1076.48,100.844 1143.76,118.133 1165,134 C1195.34,156.672 1216.16,196.797 1226.64,220.943 " fill="none" id="APIParque-Reserva" style="stroke:#A80036;stroke-width:1.0;"/><polygon fill="#000000" points="1096.6607,94.3393,1090.7638,86.8775,1087.5041,91.7687,1096.6607,94.3393" style="stroke:#000000;stroke-width:1.0;"/><text fill="#000000" font-family="sans-serif" font-size="13" lengthAdjust="spacing" textLength="41" x="1101.5" y="96.0669">possui</text><text fill="#000000" font-family="sans-serif" font-size="13" lengthAdjust="spacing" textLength="8" x="1038.4183" y="105.1421">1</text><text fill="#000000" font-family="sans-serif" font-size="13" lengthAdjust="spacing" textLength="15" x="1206.8343" y="209.9345">0*</text><!--MD5=[48e15ec256c0f4ba946937a35aef8489]
link APPWeb to Utilizador--><path codeLine="72" d="M392.77,488.338 C442.26,495.067 528.828,506.836 594.848,515.811 " fill="none" id="APPWeb-Utilizador" style="stroke:#A80036;stroke-width:1.0;"/><polygon fill="#000000" points="495.9544,490.24,487.3877,486.1093,486.5959,491.9336,495.9544,490.24" style="stroke:#000000;stroke-width:1.0;"/><text fill="#000000" font-family="sans-serif" font-size="13" lengthAdjust="spacing" textLength="41" x="500" y="494.0669">possui</text><text fill="#000000" font-family="sans-serif" font-size="13" lengthAdjust="spacing" textLength="8" x="400.3789" y="502.6228">1</text><text fill="#000000" font-family="sans-serif" font-size="13" lengthAdjust="spacing" textLength="15" x="572.0265" y="527.5008">0*</text><!--MD5=[55a59268352d08cbaca9c2ff75c5c8f9]
link Cliente to Reserva--><path codeLine="74" d="M728.053,152.518 C811.813,158.275 1006.462,175.109 1165,215 C1174.87,217.483 1185.27,220.91 1194.92,224.461 " fill="none" id="Cliente-Reserva" style="stroke:#A80036;stroke-width:1.0;"/><polygon fill="#000000" points="955.4417,166.3279,946.9497,162.0457,946.0545,167.855,955.4417,166.3279" style="stroke:#000000;stroke-width:1.0;"/><text fill="#000000" font-family="sans-serif" font-size="13" lengthAdjust="spacing" textLength="65" x="959.5" y="170.0669">faz e gere</text><text fill="#000000" font-family="sans-serif" font-size="13" lengthAdjust="spacing" textLength="8" x="736.0543" y="166.2826">1</text><text fill="#000000" font-family="sans-serif" font-size="13" lengthAdjust="spacing" textLength="15" x="1171.9568" y="235.0418">0*</text><!--MD5=[3f0b9e36c3799f23c457718e45148a47]
link Cliente to APIParque--><path codeLine="75" d="M728.249,140.333 C784.153,127.389 882.907,104.523 940.12,91.276 " fill="none" id="Cliente-APIParque" style="stroke:#A80036;stroke-width:1.0;"/><polygon fill="#000000" points="827.6289,92.6943,837.1038,93.5171,835.7779,87.7908,827.6289,92.6943" style="stroke:#000000;stroke-width:1.0;"/><text fill="#000000" font-family="sans-serif" font-size="13" lengthAdjust="spacing" textLength="41" x="841.5" y="96.0669">possui</text><text fill="#000000" font-family="sans-serif" font-size="13" lengthAdjust="spacing" textLength="15" x="735.9434" y="152.0465">0*</text><text fill="#000000" font-family="sans-serif" font-size="13" lengthAdjust="spacing" textLength="8" x="924.5587" y="106.075">1</text><!--MD5=[1492914144cf663272cc43c5021c3ad7]
link Utilizador to Reserva--><path codeLine="77" d="M776.25,503.314 C897.15,468.772 1104.21,404.677 1165,355 C1196.05,329.625 1216.87,286.484 1227.11,261.177 " fill="none" id="Utilizador-Reserva" style="stroke:#A80036;stroke-width:1.0;"/><polygon fill="#000000" points="954.9049,410.2007,945.5458,411.8911,948.3269,417.0695,954.9049,410.2007" style="stroke:#000000;stroke-width:1.0;"/><text fill="#000000" font-family="sans-serif" font-size="13" lengthAdjust="spacing" textLength="65" x="959.5" y="417.0669">faz e gere</text><text fill="#000000" font-family="sans-serif" font-size="13" lengthAdjust="spacing" textLength="8" x="784.0965" y="513.9541">1</text><text fill="#000000" font-family="sans-serif" font-size="13" lengthAdjust="spacing" textLength="15" x="1207.6409" y="281.0467">0*</text><!--MD5=[9546632d76aeb95481d4dc97fc6ae240]
link Utilizador to SubAluguer--><path codeLine="78" d="M776.314,528 C828.241,528 891.619,528 934.709,528 " fill="none" id="Utilizador-SubAluguer" style="stroke:#A80036;stroke-width:1.0;"/><polygon fill="#000000" points="848,519.5664,838.9549,516.6275,838.9549,522.5053,848,519.5664" style="stroke:#000000;stroke-width:1.0;"/><text fill="#000000" font-family="sans-serif" font-size="13" lengthAdjust="spacing" textLength="20" x="852" y="524.0669">faz</text><text fill="#000000" font-family="sans-serif" font-size="13" lengthAdjust="spacing" textLength="8" x="783.8695" y="540.6611">1</text><text fill="#000000" font-family="sans-serif" font-size="13" lengthAdjust="spacing" textLength="15" x="911.8761" y="541.0836">0*</text><!--MD5=[d75ccf407ddc5af61a41230a97fe5acc]
link Reserva to Lugar--><path codeLine="80" d="M1276.27,225.947 C1326.04,207.112 1410.25,175.239 1455.86,157.974 " fill="none" id="Reserva-Lugar" style="stroke:#A80036;stroke-width:1.0;"/><polygon fill="#000000" points="1315.6763,169.7965,1306.1765,170.2497,1308.2572,175.7469,1315.6763,169.7965" style="stroke:#000000;stroke-width:1.0;"/><text fill="#000000" font-family="sans-serif" font-size="13" lengthAdjust="spacing" textLength="84" x="1320" y="176.0669">é referente a</text><text fill="#000000" font-family="sans-serif" font-size="13" lengthAdjust="spacing" textLength="15" x="1283.963" y="236.8207">0*</text><text fill="#000000" font-family="sans-serif" font-size="13" lengthAdjust="spacing" textLength="8" x="1439.845" y="174.3154">1</text><!--MD5=[394e3bec980ca78a75a075ce7537c7d8]
link Reserva to Custo--><path codeLine="81" d="M1276.27,240.683 C1325.9,240.287 1409.78,239.619 1455.48,239.255 " fill="none" id="Reserva-Custo" style="stroke:#A80036;stroke-width:1.0;"/><polygon fill="#000000" points="1344.9998,231.5266,1335.9316,228.6598,1335.9785,234.5375,1344.9998,231.5266" style="stroke:#000000;stroke-width:1.0;"/><text fill="#000000" font-family="sans-serif" font-size="13" lengthAdjust="spacing" textLength="26" x="1349" y="236.0669">tem</text><text fill="#000000" font-family="sans-serif" font-size="13" lengthAdjust="spacing" textLength="8" x="1283.9648" y="253.9959">1</text><text fill="#000000" font-family="sans-serif" font-size="13" lengthAdjust="spacing" textLength="8" x="1439.3819" y="253.0328">1</text><!--MD5=[3147b653d631aff453645938f05f69e4]
link Reserva to Duração--><path codeLine="82" d="M1276.14,255.422 C1285.89,258.924 1296.31,262.629 1306,266 C1349.8,281.235 1399.76,297.98 1436.16,310.065 " fill="none" id="Reserva-Duração" style="stroke:#A80036;stroke-width:1.0;"/><polygon fill="#000000" points="1344.7317,259.1822,1337.1217,253.478,1335.2222,259.0405,1344.7317,259.1822" style="stroke:#000000;stroke-width:1.0;"/><text fill="#000000" font-family="sans-serif" font-size="13" lengthAdjust="spacing" textLength="26" x="1349" y="262.0669">tem</text><text fill="#000000" font-family="sans-serif" font-size="13" lengthAdjust="spacing" textLength="8" x="1284.0915" y="271.4056">1</text><text fill="#000000" font-family="sans-serif" font-size="13" lengthAdjust="spacing" textLength="8" x="1420.5893" y="320.8992">1</text><!--MD5=[56324d45d85896dd9362f79db6a3f999]
link EmailDeConfirmação to Reserva--><path codeLine="84" d="M430.039,323.258 C575.179,325.929 899.638,324.174 1165,267 C1174.82,264.883 1185.11,261.643 1194.67,258.16 " fill="none" id="EmailDeConfirmação-Reserva" style="stroke:#A80036;stroke-width:1.0;"/><polygon fill="#000000" points="815.982,297.1423,806.7202,294.9812,807.2188,300.8379,815.982,297.1423" style="stroke:#000000;stroke-width:1.0;"/><text fill="#000000" font-family="sans-serif" font-size="13" lengthAdjust="spacing" textLength="84" x="820" y="302.0669">é referente a</text><text fill="#000000" font-family="sans-serif" font-size="13" lengthAdjust="spacing" textLength="8" x="438.0655" y="336.292">1</text><text fill="#000000" font-family="sans-serif" font-size="13" lengthAdjust="spacing" textLength="8" x="1178.9648" y="274.4767">1</text><!--MD5=[3e39808c68d75979d0227602cd2392f7]
link Lugar to Preço--><path codeLine="86" d="M1521.3,138.656 C1559.3,129.878 1622.55,115.27 1660.75,106.447 " fill="none" id="Lugar-Preço" style="stroke:#A80036;stroke-width:1.0;"/><polygon fill="#000000" points="1581.8717,109.4412,1572.3973,108.6132,1573.7201,114.3403,1581.8717,109.4412" style="stroke:#000000;stroke-width:1.0;"/><text fill="#000000" font-family="sans-serif" font-size="13" lengthAdjust="spacing" textLength="26" x="1586" y="115.0669">tem</text><text fill="#000000" font-family="sans-serif" font-size="13" lengthAdjust="spacing" textLength="8" x="1528.89" y="150.7688">1</text><text fill="#000000" font-family="sans-serif" font-size="13" lengthAdjust="spacing" textLength="8" x="1645.0672" y="121.6104">1</text><!--MD5=[72517315f51e3c1cfdb97a2270c0d927]
link Parque to Lugar--><path codeLine="88" d="M1272.2,55.074 C1321.33,75.822 1409.02,112.855 1455.89,132.652 " fill="none" id="Parque-Lugar" style="stroke:#A80036;stroke-width:1.0;"/><polygon fill="#000000" points="1344.6061,65.5117,1337.417,59.2853,1335.1302,64.7,1344.6061,65.5117" style="stroke:#000000;stroke-width:1.0;"/><text fill="#000000" font-family="sans-serif" font-size="13" lengthAdjust="spacing" textLength="26" x="1349" y="68.0669">tem</text><text fill="#000000" font-family="sans-serif" font-size="13" lengthAdjust="spacing" textLength="8" x="1279.9584" y="71.4567">1</text><text fill="#000000" font-family="sans-serif" font-size="13" lengthAdjust="spacing" textLength="15" x="1432.9933" y="143.5806">1*</text><!--MD5=[3f7724b18204e3b9d88ba74c97f9e53e]
link Parque to Morada--><path codeLine="89" d="M1272.2,40 C1314.69,40 1386.04,40 1434.87,40 " fill="none" id="Parque-Morada" style="stroke:#A80036;stroke-width:1.0;"/><polygon fill="#000000" points="1345,31.5664,1335.9549,28.6275,1335.9549,34.5053,1345,31.5664" style="stroke:#000000;stroke-width:1.0;"/><text fill="#000000" font-family="sans-serif" font-size="13" lengthAdjust="spacing" textLength="26" x="1349" y="36.0669">tem</text><text fill="#000000" font-family="sans-serif" font-size="13" lengthAdjust="spacing" textLength="8" x="1279.9584" y="53.5092">1</text><text fill="#000000" font-family="sans-serif" font-size="13" lengthAdjust="spacing" textLength="8" x="1419.126" y="53.1099">1</text><!--MD5=[5f363e7da27d4325081f8fe75b17f797]
link Lugar to Localização--><path codeLine="91" d="M1521.3,153.343 C1553.83,160.856 1604.84,172.639 1642.83,181.412 " fill="none" id="Lugar-Localização" style="stroke:#A80036;stroke-width:1.0;"/><polygon fill="#000000" points="1581.8717,158.6916,1573.72,153.7926,1572.3973,159.5196,1581.8717,158.6916" style="stroke:#000000;stroke-width:1.0;"/><text fill="#000000" font-family="sans-serif" font-size="13" lengthAdjust="spacing" textLength="26" x="1586" y="162.0669">tem</text><text fill="#000000" font-family="sans-serif" font-size="13" lengthAdjust="spacing" textLength="8" x="1528.89" y="168.485">1</text><text fill="#000000" font-family="sans-serif" font-size="13" lengthAdjust="spacing" textLength="8" x="1627.0717" y="192.8842">1</text><!--MD5=[5d7300fd354e8d9cb95ffaec1da927e3]
link SubAluguer to Reserva--><path codeLine="93" d="M1036.2,521.426 C1076.16,513.613 1131.06,496.787 1165,461 C1219.43,403.596 1231.24,303.823 1233.8,261.221 " fill="none" id="SubAluguer-Reserva" style="stroke:#A80036;stroke-width:1.0;"/><polygon fill="#000000" points="1112.0239,448.5844,1104.2131,454.0105,1108.8941,457.5653,1112.0239,448.5844" style="stroke:#000000;stroke-width:1.0;"/><text fill="#000000" font-family="sans-serif" font-size="13" lengthAdjust="spacing" textLength="8" x="1118" y="457.0669">é</text><text fill="#000000" font-family="sans-serif" font-size="13" lengthAdjust="spacing" textLength="8" x="1043.8922" y="533.6325">1</text><text fill="#000000" font-family="sans-serif" font-size="13" lengthAdjust="spacing" textLength="8" x="1234.4469" y="281.1031">1</text><!--MD5=[036ade5de4ed590df57af213c2ee7a7a]
link MétodoDePagamento to Utilizador--><path codeLine="95" d="M433.249,555.844 C472.93,554.265 521.577,551.568 565,547 C574.715,545.978 584.843,544.7 594.914,543.293 " fill="none" id="MétodoDePagamento-Utilizador" style="stroke:#A80036;stroke-width:1.0;"/><polygon fill="#000000" points="478.485,538.1794,469.2396,535.9494,469.6945,541.8096,478.485,538.1794" style="stroke:#000000;stroke-width:1.0;"/><text fill="#000000" font-family="sans-serif" font-size="13" lengthAdjust="spacing" textLength="76" x="482.5" y="543.0669">é usado por</text><text fill="#000000" font-family="sans-serif" font-size="13" lengthAdjust="spacing" textLength="8" x="441.0618" y="568.4097">1</text><text fill="#000000" font-family="sans-serif" font-size="13" lengthAdjust="spacing" textLength="15" x="572.0978" y="557.1728">0*</text><!--MD5=[ad8becfcaf113e1d7d13482b49ea52a4]
link EmailDeConfirmação to APIQRCode--><path codeLine="97" d="M413.189,341.068 C429.28,346.206 446.737,351.536 463,356 C522.174,372.239 591.186,387.567 636.251,397.099 " fill="none" id="EmailDeConfirmação-APIQRCode" style="stroke:#A80036;stroke-width:1.0;"/><text fill="#000000" font-family="sans-serif" font-size="13" lengthAdjust="spacing" textLength="33" x="497.5" y="352.0669">usa&gt;</text><text fill="#000000" font-family="sans-serif" font-size="13" lengthAdjust="spacing" textLength="15" x="413.1484" y="360.9071">0*</text><text fill="#000000" font-family="sans-serif" font-size="13" lengthAdjust="spacing" textLength="8" x="620.4301" y="391.6199">1</text><!--MD5=[9ca7f21a5bc6c5245b1e89c3aa2c7697]
@startuml
skinparam classAttributeIconSize 0
hide methods
left to right direction

class APISistemaCentral {}

class APIParque {}

class APISistemaCentral {}

class APPWeb {}

class Cliente {
 -int Nif
 -string Nome
 -string Email
}

class Utilizador {
 -int Nif
 -string Nome
 -string Email
 -string Método de pagamento
}

class Reserva {}

class EmailDeConfirmação {}

class Preço {}

class Custo {}

class Parque {}

class Lugar {}

class Localização {
 -int Numero
 -int Fila
 -int Andar
}

class SubAluguer {}

class MétodoDePagamento {}

class APIQRCode {}

class Duração {
 -dateTime Inicio
 -dateTime Fim
}

class Morada {
 -string Rua
 -string Freguesia
}

APISistemaCentral "1" - - "1" Cliente : é >
APISistemaCentral "1" - - "1" APPWeb : é usado >
APISistemaCentral "1" - - "0*" Reserva : possui >
APISistemaCentral "1" - - "0*" Utilizador : possui >
APISistemaCentral "1" - - "1*" MétodoDePagamento : tem >
APISistemaCentral "1" - - "1" APIQRCode : usa >
APISistemaCentral "1" - - "0*" EmailDeConfirmação : envia >
APISistemaCentral "1" - - "0*" SubAluguer : permite fazer >

APIParque "1" - - "1*" Parque : é referente a >
APIParque "1" - - "0*" Reserva : possui >

APPWeb "1" - - "0*" Utilizador : possui >

Cliente "1" - - "0*" Reserva : faz e gere >
Cliente "0*" - - "1" APIParque : possui <

Utilizador "1" - - "0*" Reserva : faz e gere >
Utilizador "1" - - "0*" SubAluguer : faz >

Reserva "0*" - - "1" Lugar : é referente a >
Reserva "1" - - "1" Custo: tem >
Reserva "1" - - "1" Duração : tem >

EmailDeConfirmação "1" - - "1" Reserva : é referente a >

Lugar "1" - - "1" Preço : tem >

Parque "1" - - "1*" Lugar : tem >
Parque "1" - - "1" Morada : tem >

Lugar "1" - - "1" Localização : tem >

SubAluguer "1" - - "1" Reserva : é >

MétodoDePagamento "1" - - "0*" Utilizador : é usado por >

EmailDeConfirmação "0*" - - "1" APIQRCode : usa>
@enduml

PlantUML version 1.2021.01beta7(Unknown compile time)
(GPL source distribution)
Java Runtime: Java(TM) SE Runtime Environment
JVM: Java HotSpot(TM) 64-Bit Server VM
Default Encoding: UTF-8
Language: en
Country: US
--></g></svg>