<?xml version="1.0" encoding="UTF-8" standalone="no"?><svg xmlns="http://www.w3.org/2000/svg" xmlns:xlink="http://www.w3.org/1999/xlink" contentScriptType="application/ecmascript" contentStyleType="text/css" height="382px" preserveAspectRatio="none" style="width:940px;height:382px;" version="1.1" viewBox="0 0 940 382" width="940px" zoomAndPan="magnify"><defs><filter height="300%" id="fvlrpytfgzmq3" width="300%" x="-1" y="-1"><feGaussianBlur result="blurOut" stdDeviation="2.0"/><feColorMatrix in="blurOut" result="blurOut2" type="matrix" values="0 0 0 0 0 0 0 0 0 0 0 0 0 0 0 0 0 0 .4 0"/><feOffset dx="4.0" dy="4.0" in="blurOut2" result="blurOut3"/><feBlend in="SourceGraphic" in2="blurOut3" mode="normal"/></filter></defs><g><rect fill="#FFFFFF" filter="url(#fvlrpytfgzmq3)" height="181.9297" style="stroke:#A80036;stroke-width:1.0;" width="10" x="37" y="98.2969"/><rect fill="#FFFFFF" filter="url(#fvlrpytfgzmq3)" height="160.7969" style="stroke:#A80036;stroke-width:1.0;" width="10" x="352" y="119.4297"/><rect fill="#FFFFFF" filter="url(#fvlrpytfgzmq3)" height="87.3984" style="stroke:#A80036;stroke-width:1.0;" width="10" x="644" y="148.5625"/><rect fill="#FFFFFF" filter="url(#fvlrpytfgzmq3)" height="29.1328" style="stroke:#A80036;stroke-width:1.0;" width="10" x="862" y="177.6953"/><line style="stroke:#A80036;stroke-width:1.0;stroke-dasharray:5.0,5.0;" x1="42" x2="42" y1="88.2969" y2="298.2266"/><line style="stroke:#A80036;stroke-width:1.0;stroke-dasharray:5.0,5.0;" x1="357" x2="357" y1="88.2969" y2="298.2266"/><line style="stroke:#A80036;stroke-width:1.0;stroke-dasharray:5.0,5.0;" x1="649" x2="649" y1="88.2969" y2="298.2266"/><line style="stroke:#A80036;stroke-width:1.0;stroke-dasharray:5.0,5.0;" x1="866.5" x2="866.5" y1="88.2969" y2="298.2266"/><text fill="#000000" font-family="sans-serif" font-size="14" lengthAdjust="spacing" textLength="68" x="5" y="84.9951">Utilizador</text><ellipse cx="42" cy="15" fill="#FEFECE" filter="url(#fvlrpytfgzmq3)" rx="8" ry="8" style="stroke:#A80036;stroke-width:2.0;"/><path d="M42,23 L42,50 M29,31 L55,31 M42,50 L29,65 M42,50 L55,65 " fill="none" filter="url(#fvlrpytfgzmq3)" style="stroke:#A80036;stroke-width:2.0;"/><text fill="#000000" font-family="sans-serif" font-size="14" lengthAdjust="spacing" textLength="68" x="5" y="310.2217">Utilizador</text><ellipse cx="42" cy="323.5234" fill="#FEFECE" filter="url(#fvlrpytfgzmq3)" rx="8" ry="8" style="stroke:#A80036;stroke-width:2.0;"/><path d="M42,331.5234 L42,358.5234 M29,339.5234 L55,339.5234 M42,358.5234 L29,373.5234 M42,358.5234 L55,373.5234 " fill="none" filter="url(#fvlrpytfgzmq3)" style="stroke:#A80036;stroke-width:2.0;"/><rect fill="#FEFECE" filter="url(#fvlrpytfgzmq3)" height="30.2969" style="stroke:#A80036;stroke-width:1.5;" width="214" x="248" y="53"/><text fill="#000000" font-family="sans-serif" font-size="14" lengthAdjust="spacing" textLength="200" x="255" y="72.9951">:api/subAlugueresController</text><rect fill="#FEFECE" filter="url(#fvlrpytfgzmq3)" height="30.2969" style="stroke:#A80036;stroke-width:1.5;" width="214" x="248" y="297.2266"/><text fill="#000000" font-family="sans-serif" font-size="14" lengthAdjust="spacing" textLength="200" x="255" y="317.2217">:api/subAlugueresController</text><rect fill="#FEFECE" filter="url(#fvlrpytfgzmq3)" height="30.2969" style="stroke:#A80036;stroke-width:1.5;" width="178" x="558" y="53"/><text fill="#000000" font-family="sans-serif" font-size="14" lengthAdjust="spacing" textLength="164" x="565" y="72.9951">:api/subAluguerService</text><rect fill="#FEFECE" filter="url(#fvlrpytfgzmq3)" height="30.2969" style="stroke:#A80036;stroke-width:1.5;" width="178" x="558" y="297.2266"/><text fill="#000000" font-family="sans-serif" font-size="14" lengthAdjust="spacing" textLength="164" x="565" y="317.2217">:api/subAluguerService</text><rect fill="#FEFECE" filter="url(#fvlrpytfgzmq3)" height="30.2969" style="stroke:#A80036;stroke-width:1.5;" width="123" x="803.5" y="53"/><text fill="#000000" font-family="sans-serif" font-size="14" lengthAdjust="spacing" textLength="109" x="810.5" y="72.9951">API:SubAluguer</text><rect fill="#FEFECE" filter="url(#fvlrpytfgzmq3)" height="30.2969" style="stroke:#A80036;stroke-width:1.5;" width="123" x="803.5" y="297.2266"/><text fill="#000000" font-family="sans-serif" font-size="14" lengthAdjust="spacing" textLength="109" x="810.5" y="317.2217">API:SubAluguer</text><rect fill="#FFFFFF" filter="url(#fvlrpytfgzmq3)" height="181.9297" style="stroke:#A80036;stroke-width:1.0;" width="10" x="37" y="98.2969"/><rect fill="#FFFFFF" filter="url(#fvlrpytfgzmq3)" height="160.7969" style="stroke:#A80036;stroke-width:1.0;" width="10" x="352" y="119.4297"/><rect fill="#FFFFFF" filter="url(#fvlrpytfgzmq3)" height="87.3984" style="stroke:#A80036;stroke-width:1.0;" width="10" x="644" y="148.5625"/><rect fill="#FFFFFF" filter="url(#fvlrpytfgzmq3)" height="29.1328" style="stroke:#A80036;stroke-width:1.0;" width="10" x="862" y="177.6953"/><polygon fill="#A80036" points="340,115.4297,350,119.4297,340,123.4297,344,119.4297" style="stroke:#A80036;stroke-width:1.0;"/><line style="stroke:#A80036;stroke-width:1.0;stroke-dasharray:2.0,2.0;" x1="47" x2="346" y1="119.4297" y2="119.4297"/><text fill="#000000" font-family="sans-serif" font-size="13" font-weight="bold" lengthAdjust="spacing" textLength="9" x="54" y="114.3638">1</text><text fill="#000000" font-family="sans-serif" font-size="13" lengthAdjust="spacing" textLength="273" x="67" y="114.3638">inicia pedido sub-aluguer (subAluguerDTO)</text><polygon fill="#A80036" points="632,144.5625,642,148.5625,632,152.5625,636,148.5625" style="stroke:#A80036;stroke-width:1.0;"/><line style="stroke:#A80036;stroke-width:1.0;stroke-dasharray:2.0,2.0;" x1="362" x2="638" y1="148.5625" y2="148.5625"/><text fill="#000000" font-family="sans-serif" font-size="13" font-weight="bold" lengthAdjust="spacing" textLength="9" x="369" y="143.4966">2</text><text fill="#000000" font-family="sans-serif" font-size="13" lengthAdjust="spacing" textLength="250" x="382" y="143.4966">PostSubAluguerAsync(subAluguerDTO)</text><polygon fill="#A80036" points="850,173.6953,860,177.6953,850,181.6953,854,177.6953" style="stroke:#A80036;stroke-width:1.0;"/><line style="stroke:#A80036;stroke-width:1.0;stroke-dasharray:2.0,2.0;" x1="654" x2="856" y1="177.6953" y2="177.6953"/><text fill="#000000" font-family="sans-serif" font-size="13" font-weight="bold" lengthAdjust="spacing" textLength="8" x="661" y="172.6294">3</text><text fill="#000000" font-family="sans-serif" font-size="13" lengthAdjust="spacing" textLength="177" x="673" y="172.6294">PostAsync(subAluguerDTO)</text><polygon fill="#A80036" points="665,202.8281,655,206.8281,665,210.8281,661,206.8281" style="stroke:#A80036;stroke-width:1.0;"/><line style="stroke:#A80036;stroke-width:1.0;stroke-dasharray:2.0,2.0;" x1="659" x2="866" y1="206.8281" y2="206.8281"/><text fill="#000000" font-family="sans-serif" font-size="13" font-weight="bold" lengthAdjust="spacing" textLength="9" x="671" y="201.7622">4</text><text fill="#000000" font-family="sans-serif" font-size="13" lengthAdjust="spacing" textLength="115" x="684" y="201.7622">CreatedAtAction()</text><polygon fill="#A80036" points="373,231.9609,363,235.9609,373,239.9609,369,235.9609" style="stroke:#A80036;stroke-width:1.0;"/><line style="stroke:#A80036;stroke-width:1.0;stroke-dasharray:2.0,2.0;" x1="367" x2="648" y1="235.9609" y2="235.9609"/><text fill="#000000" font-family="sans-serif" font-size="13" font-weight="bold" lengthAdjust="spacing" textLength="9" x="379" y="230.895">5</text><text fill="#000000" font-family="sans-serif" font-size="13" lengthAdjust="spacing" textLength="143" x="392" y="230.895">return subAluguerDTO</text><polygon fill="#A80036" points="53,276.2266,43,280.2266,53,284.2266,49,280.2266" style="stroke:#A80036;stroke-width:1.0;"/><line style="stroke:#A80036;stroke-width:1.0;stroke-dasharray:2.0,2.0;" x1="47" x2="356" y1="280.2266" y2="280.2266"/><text fill="#000000" font-family="sans-serif" font-size="13" font-weight="bold" lengthAdjust="spacing" textLength="9" x="59" y="267.5942">6</text><text fill="#000000" font-family="sans-serif" font-size="13" lengthAdjust="spacing" textLength="115" x="72" y="260.0278">CreatedAtAction()</text><text fill="#000000" font-family="sans-serif" font-size="13" lengthAdjust="spacing" textLength="154" x="72" y="275.1606">operação bem sucedida</text><!--MD5=[f41560b9439f75f3f0f769f9cbe6a63a]
@startuml
autonumber
actor "Utilizador" as U
participant ":api/subAlugueresController" as SC
participant ":api/subAluguerService" as SS
participant "API:SubAluguer" as API

activate U
U - -> SC : inicia pedido sub-aluguer (subAluguerDTO)
activate SC

SC - -> SS : PostSubAluguerAsync(subAluguerDTO)
activate SS

SS - -> API : PostAsync(subAluguerDTO)
activate API

API - -> SS : CreatedAtAction()
deactivate API

SS - -> SC : return subAluguerDTO
deactivate SS

SC - -> U: CreatedAtAction()\noperação bem sucedida
deactivate SC
deactivate U
@enduml

PlantUML version 1.2021.2beta7(Unknown compile time)
(GPL source distribution)
Java Runtime: Java(TM) SE Runtime Environment
JVM: Java HotSpot(TM) 64-Bit Server VM
Default Encoding: UTF-8
Language: en
Country: US
--></g></svg>