<?xml version="1.0" encoding="UTF-8" standalone="no"?><svg xmlns="http://www.w3.org/2000/svg" xmlns:xlink="http://www.w3.org/1999/xlink" contentScriptType="application/ecmascript" contentStyleType="text/css" height="729px" preserveAspectRatio="none" style="width:2069px;height:729px;" version="1.1" viewBox="0 0 2069 729" width="2069px" zoomAndPan="magnify"><defs><filter height="300%" id="f1eymf1bkuus58" width="300%" x="-1" y="-1"><feGaussianBlur result="blurOut" stdDeviation="2.0"/><feColorMatrix in="blurOut" result="blurOut2" type="matrix" values="0 0 0 0 0 0 0 0 0 0 0 0 0 0 0 0 0 0 .4 0"/><feOffset dx="4.0" dy="4.0" in="blurOut2" result="blurOut3"/><feBlend in="SourceGraphic" in2="blurOut3" mode="normal"/></filter></defs><g><rect fill="#FFFFFF" filter="url(#f1eymf1bkuus58)" height="529.3906" style="stroke:#A80036;stroke-width:1.0;" width="10" x="37" y="98.2969"/><rect fill="#FFFFFF" filter="url(#f1eymf1bkuus58)" height="29.1328" style="stroke:#A80036;stroke-width:1.0;" width="10" x="238" y="119.4297"/><rect fill="#FFFFFF" filter="url(#f1eymf1bkuus58)" height="87.3984" style="stroke:#A80036;stroke-width:1.0;" width="10" x="485" y="323.3594"/><rect fill="#FFFFFF" filter="url(#f1eymf1bkuus58)" height="29.1328" style="stroke:#A80036;stroke-width:1.0;" width="10" x="748.5" y="598.5547"/><rect fill="#FFFFFF" filter="url(#f1eymf1bkuus58)" height="145.6641" style="stroke:#A80036;stroke-width:1.0;" width="10" x="976.5" y="148.5625"/><rect fill="#FFFFFF" filter="url(#f1eymf1bkuus58)" height="87.3984" style="stroke:#A80036;stroke-width:1.0;" width="10" x="1203.5" y="177.6953"/><rect fill="#FFFFFF" filter="url(#f1eymf1bkuus58)" height="304.3281" style="stroke:#A80036;stroke-width:1.0;" width="10" x="1445.5" y="294.2266"/><rect fill="#FFFFFF" filter="url(#f1eymf1bkuus58)" height="87.3984" style="stroke:#A80036;stroke-width:1.0;" width="10" x="1747.5" y="439.8906"/><rect fill="#FFFFFF" filter="url(#f1eymf1bkuus58)" height="29.1328" style="stroke:#A80036;stroke-width:1.0;" width="10" x="1975.5" y="206.8281"/><rect fill="#FFFFFF" filter="url(#f1eymf1bkuus58)" height="29.1328" style="stroke:#A80036;stroke-width:1.0;" width="10" x="1975.5" y="469.0234"/><line style="stroke:#A80036;stroke-width:1.0;stroke-dasharray:5.0,5.0;" x1="42" x2="42" y1="88.2969" y2="645.6875"/><line style="stroke:#A80036;stroke-width:1.0;stroke-dasharray:5.0,5.0;" x1="243" x2="243" y1="88.2969" y2="645.6875"/><line style="stroke:#A80036;stroke-width:1.0;stroke-dasharray:5.0,5.0;" x1="490" x2="490" y1="88.2969" y2="645.6875"/><line style="stroke:#A80036;stroke-width:1.0;stroke-dasharray:5.0,5.0;" x1="753" x2="753" y1="88.2969" y2="645.6875"/><line style="stroke:#A80036;stroke-width:1.0;stroke-dasharray:5.0,5.0;" x1="981" x2="981" y1="88.2969" y2="645.6875"/><line style="stroke:#A80036;stroke-width:1.0;stroke-dasharray:5.0,5.0;" x1="1208.5" x2="1208.5" y1="88.2969" y2="645.6875"/><line style="stroke:#A80036;stroke-width:1.0;stroke-dasharray:5.0,5.0;" x1="1450.5" x2="1450.5" y1="88.2969" y2="645.6875"/><line style="stroke:#A80036;stroke-width:1.0;stroke-dasharray:5.0,5.0;" x1="1752.5" x2="1752.5" y1="88.2969" y2="645.6875"/><line style="stroke:#A80036;stroke-width:1.0;stroke-dasharray:5.0,5.0;" x1="1980" x2="1980" y1="88.2969" y2="645.6875"/><text fill="#000000" font-family="sans-serif" font-size="14" lengthAdjust="spacing" textLength="68" x="5" y="84.9951">Utilizador</text><ellipse cx="42" cy="15" fill="#FEFECE" filter="url(#f1eymf1bkuus58)" rx="8" ry="8" style="stroke:#A80036;stroke-width:2.0;"/><path d="M42,23 L42,50 M29,31 L55,31 M42,50 L29,65 M42,50 L55,65 " fill="none" filter="url(#f1eymf1bkuus58)" style="stroke:#A80036;stroke-width:2.0;"/><text fill="#000000" font-family="sans-serif" font-size="14" lengthAdjust="spacing" textLength="68" x="5" y="657.6826">Utilizador</text><ellipse cx="42" cy="670.9844" fill="#FEFECE" filter="url(#f1eymf1bkuus58)" rx="8" ry="8" style="stroke:#A80036;stroke-width:2.0;"/><path d="M42,678.9844 L42,705.9844 M29,686.9844 L55,686.9844 M42,705.9844 L29,720.9844 M42,705.9844 L55,720.9844 " fill="none" filter="url(#f1eymf1bkuus58)" style="stroke:#A80036;stroke-width:2.0;"/><rect fill="#FEFECE" filter="url(#f1eymf1bkuus58)" height="30.2969" style="stroke:#A80036;stroke-width:1.5;" width="206" x="138" y="53"/><text fill="#000000" font-family="sans-serif" font-size="14" lengthAdjust="spacing" textLength="192" x="145" y="72.9951">:app/Views/Reservas/Index</text><rect fill="#FEFECE" filter="url(#f1eymf1bkuus58)" height="30.2969" style="stroke:#A80036;stroke-width:1.5;" width="206" x="138" y="644.6875"/><text fill="#000000" font-family="sans-serif" font-size="14" lengthAdjust="spacing" textLength="192" x="145" y="664.6826">:app/Views/Reservas/Index</text><rect fill="#FEFECE" filter="url(#f1eymf1bkuus58)" height="30.2969" style="stroke:#A80036;stroke-width:1.5;" width="260" x="358" y="53"/><text fill="#000000" font-family="sans-serif" font-size="14" lengthAdjust="spacing" textLength="246" x="365" y="72.9951">:app/Views/SubAlugueres/Registar</text><rect fill="#FEFECE" filter="url(#f1eymf1bkuus58)" height="30.2969" style="stroke:#A80036;stroke-width:1.5;" width="260" x="358" y="644.6875"/><text fill="#000000" font-family="sans-serif" font-size="14" lengthAdjust="spacing" textLength="246" x="365" y="664.6826">:app/Views/SubAlugueres/Registar</text><rect fill="#FEFECE" filter="url(#f1eymf1bkuus58)" height="30.2969" style="stroke:#A80036;stroke-width:1.5;" width="239" x="632" y="53"/><text fill="#000000" font-family="sans-serif" font-size="14" lengthAdjust="spacing" textLength="225" x="639" y="72.9951">:app/Views/SubAlugueres/Index</text><rect fill="#FEFECE" filter="url(#f1eymf1bkuus58)" height="30.2969" style="stroke:#A80036;stroke-width:1.5;" width="239" x="632" y="644.6875"/><text fill="#000000" font-family="sans-serif" font-size="14" lengthAdjust="spacing" textLength="225" x="639" y="664.6826">:app/Views/SubAlugueres/Index</text><rect fill="#FEFECE" filter="url(#f1eymf1bkuus58)" height="30.2969" style="stroke:#A80036;stroke-width:1.5;" width="189" x="885" y="53"/><text fill="#000000" font-family="sans-serif" font-size="14" lengthAdjust="spacing" textLength="175" x="892" y="72.9951">:app/ReservasController</text><rect fill="#FEFECE" filter="url(#f1eymf1bkuus58)" height="30.2969" style="stroke:#A80036;stroke-width:1.5;" width="189" x="885" y="644.6875"/><text fill="#000000" font-family="sans-serif" font-size="14" lengthAdjust="spacing" textLength="175" x="892" y="664.6826">:app/ReservasController</text><rect fill="#FEFECE" filter="url(#f1eymf1bkuus58)" height="30.2969" style="stroke:#A80036;stroke-width:1.5;" width="162" x="1125.5" y="53"/><text fill="#000000" font-family="sans-serif" font-size="14" lengthAdjust="spacing" textLength="148" x="1132.5" y="72.9951">:app/ReservaService</text><rect fill="#FEFECE" filter="url(#f1eymf1bkuus58)" height="30.2969" style="stroke:#A80036;stroke-width:1.5;" width="162" x="1125.5" y="644.6875"/><text fill="#000000" font-family="sans-serif" font-size="14" lengthAdjust="spacing" textLength="148" x="1132.5" y="664.6826">:app/ReservaService</text><rect fill="#FEFECE" filter="url(#f1eymf1bkuus58)" height="30.2969" style="stroke:#A80036;stroke-width:1.5;" width="222" x="1337.5" y="53"/><text fill="#000000" font-family="sans-serif" font-size="14" lengthAdjust="spacing" textLength="208" x="1344.5" y="72.9951">:app/SubAlugueresController</text><rect fill="#FEFECE" filter="url(#f1eymf1bkuus58)" height="30.2969" style="stroke:#A80036;stroke-width:1.5;" width="222" x="1337.5" y="644.6875"/><text fill="#000000" font-family="sans-serif" font-size="14" lengthAdjust="spacing" textLength="208" x="1344.5" y="664.6826">:app/SubAlugueresController</text><rect fill="#FEFECE" filter="url(#f1eymf1bkuus58)" height="30.2969" style="stroke:#A80036;stroke-width:1.5;" width="186" x="1657.5" y="53"/><text fill="#000000" font-family="sans-serif" font-size="14" lengthAdjust="spacing" textLength="172" x="1664.5" y="72.9951">:app/SubAluguerService</text><rect fill="#FEFECE" filter="url(#f1eymf1bkuus58)" height="30.2969" style="stroke:#A80036;stroke-width:1.5;" width="186" x="1657.5" y="644.6875"/><text fill="#000000" font-family="sans-serif" font-size="14" lengthAdjust="spacing" textLength="172" x="1664.5" y="664.6826">:app/SubAluguerService</text><rect fill="#FEFECE" filter="url(#f1eymf1bkuus58)" height="30.2969" style="stroke:#A80036;stroke-width:1.5;" width="153" x="1902" y="53"/><text fill="#000000" font-family="sans-serif" font-size="14" lengthAdjust="spacing" textLength="139" x="1909" y="72.9951">API:SistemaCentral</text><rect fill="#FEFECE" filter="url(#f1eymf1bkuus58)" height="30.2969" style="stroke:#A80036;stroke-width:1.5;" width="153" x="1902" y="644.6875"/><text fill="#000000" font-family="sans-serif" font-size="14" lengthAdjust="spacing" textLength="139" x="1909" y="664.6826">API:SistemaCentral</text><rect fill="#FFFFFF" filter="url(#f1eymf1bkuus58)" height="529.3906" style="stroke:#A80036;stroke-width:1.0;" width="10" x="37" y="98.2969"/><rect fill="#FFFFFF" filter="url(#f1eymf1bkuus58)" height="29.1328" style="stroke:#A80036;stroke-width:1.0;" width="10" x="238" y="119.4297"/><rect fill="#FFFFFF" filter="url(#f1eymf1bkuus58)" height="87.3984" style="stroke:#A80036;stroke-width:1.0;" width="10" x="485" y="323.3594"/><rect fill="#FFFFFF" filter="url(#f1eymf1bkuus58)" height="29.1328" style="stroke:#A80036;stroke-width:1.0;" width="10" x="748.5" y="598.5547"/><rect fill="#FFFFFF" filter="url(#f1eymf1bkuus58)" height="145.6641" style="stroke:#A80036;stroke-width:1.0;" width="10" x="976.5" y="148.5625"/><rect fill="#FFFFFF" filter="url(#f1eymf1bkuus58)" height="87.3984" style="stroke:#A80036;stroke-width:1.0;" width="10" x="1203.5" y="177.6953"/><rect fill="#FFFFFF" filter="url(#f1eymf1bkuus58)" height="304.3281" style="stroke:#A80036;stroke-width:1.0;" width="10" x="1445.5" y="294.2266"/><rect fill="#FFFFFF" filter="url(#f1eymf1bkuus58)" height="87.3984" style="stroke:#A80036;stroke-width:1.0;" width="10" x="1747.5" y="439.8906"/><rect fill="#FFFFFF" filter="url(#f1eymf1bkuus58)" height="29.1328" style="stroke:#A80036;stroke-width:1.0;" width="10" x="1975.5" y="206.8281"/><rect fill="#FFFFFF" filter="url(#f1eymf1bkuus58)" height="29.1328" style="stroke:#A80036;stroke-width:1.0;" width="10" x="1975.5" y="469.0234"/><polygon fill="#A80036" points="226,115.4297,236,119.4297,226,123.4297,230,119.4297" style="stroke:#A80036;stroke-width:1.0;"/><line style="stroke:#A80036;stroke-width:1.0;stroke-dasharray:2.0,2.0;" x1="47" x2="232" y1="119.4297" y2="119.4297"/><text fill="#000000" font-family="sans-serif" font-size="13" font-weight="bold" lengthAdjust="spacing" textLength="9" x="54" y="114.3638">1</text><text fill="#000000" font-family="sans-serif" font-size="13" lengthAdjust="spacing" textLength="159" x="67" y="114.3638">inicia pedido sub-aluguer</text><polygon fill="#A80036" points="964.5,144.5625,974.5,148.5625,964.5,152.5625,968.5,148.5625" style="stroke:#A80036;stroke-width:1.0;"/><line style="stroke:#A80036;stroke-width:1.0;stroke-dasharray:2.0,2.0;" x1="243" x2="970.5" y1="148.5625" y2="148.5625"/><text fill="#000000" font-family="sans-serif" font-size="13" font-weight="bold" lengthAdjust="spacing" textLength="9" x="250" y="143.4966">2</text><text fill="#000000" font-family="sans-serif" font-size="13" lengthAdjust="spacing" textLength="85" x="263" y="143.4966">Subalugar(id)</text><polygon fill="#A80036" points="1191.5,173.6953,1201.5,177.6953,1191.5,181.6953,1195.5,177.6953" style="stroke:#A80036;stroke-width:1.0;"/><line style="stroke:#A80036;stroke-width:1.0;stroke-dasharray:2.0,2.0;" x1="986.5" x2="1197.5" y1="177.6953" y2="177.6953"/><text fill="#000000" font-family="sans-serif" font-size="13" font-weight="bold" lengthAdjust="spacing" textLength="8" x="993.5" y="172.6294">3</text><text fill="#000000" font-family="sans-serif" font-size="13" lengthAdjust="spacing" textLength="110" x="1005.5" y="172.6294">GetByIdAsync(id)</text><polygon fill="#A80036" points="1963.5,202.8281,1973.5,206.8281,1963.5,210.8281,1967.5,206.8281" style="stroke:#A80036;stroke-width:1.0;"/><line style="stroke:#A80036;stroke-width:1.0;stroke-dasharray:2.0,2.0;" x1="1213.5" x2="1969.5" y1="206.8281" y2="206.8281"/><text fill="#000000" font-family="sans-serif" font-size="13" font-weight="bold" lengthAdjust="spacing" textLength="9" x="1220.5" y="201.7622">4</text><text fill="#000000" font-family="sans-serif" font-size="13" lengthAdjust="spacing" textLength="83" x="1233.5" y="201.7622">GetAsync(id)</text><polygon fill="#A80036" points="1224.5,231.9609,1214.5,235.9609,1224.5,239.9609,1220.5,235.9609" style="stroke:#A80036;stroke-width:1.0;"/><line style="stroke:#A80036;stroke-width:1.0;stroke-dasharray:2.0,2.0;" x1="1218.5" x2="1979.5" y1="235.9609" y2="235.9609"/><text fill="#000000" font-family="sans-serif" font-size="13" font-weight="bold" lengthAdjust="spacing" textLength="9" x="1230.5" y="230.895">5</text><text fill="#000000" font-family="sans-serif" font-size="13" lengthAdjust="spacing" textLength="180" x="1243.5" y="230.895">return(DetalheReservaDTO)</text><polygon fill="#A80036" points="997.5,261.0938,987.5,265.0938,997.5,269.0938,993.5,265.0938" style="stroke:#A80036;stroke-width:1.0;"/><line style="stroke:#A80036;stroke-width:1.0;stroke-dasharray:2.0,2.0;" x1="991.5" x2="1207.5" y1="265.0938" y2="265.0938"/><text fill="#000000" font-family="sans-serif" font-size="13" font-weight="bold" lengthAdjust="spacing" textLength="9" x="1003.5" y="260.0278">6</text><text fill="#000000" font-family="sans-serif" font-size="13" lengthAdjust="spacing" textLength="180" x="1016.5" y="260.0278">return(DetalheReservaDTO)</text><polygon fill="#A80036" points="1433.5,290.2266,1443.5,294.2266,1433.5,298.2266,1437.5,294.2266" style="stroke:#A80036;stroke-width:1.0;"/><line style="stroke:#A80036;stroke-width:1.0;stroke-dasharray:2.0,2.0;" x1="981.5" x2="1439.5" y1="294.2266" y2="294.2266"/><text fill="#000000" font-family="sans-serif" font-size="13" font-weight="bold" lengthAdjust="spacing" textLength="9" x="988.5" y="289.1606">7</text><text fill="#000000" font-family="sans-serif" font-size="13" lengthAdjust="spacing" textLength="427" x="1001.5" y="289.1606">RedirectToAction("Registar", "SubAlugueres", DetalheReservaDTO)</text><polygon fill="#A80036" points="506,319.3594,496,323.3594,506,327.3594,502,323.3594" style="stroke:#A80036;stroke-width:1.0;"/><line style="stroke:#A80036;stroke-width:1.0;stroke-dasharray:2.0,2.0;" x1="500" x2="1444.5" y1="323.3594" y2="323.3594"/><text fill="#000000" font-family="sans-serif" font-size="13" font-weight="bold" lengthAdjust="spacing" textLength="9" x="512" y="318.2935">8</text><text fill="#000000" font-family="sans-serif" font-size="13" lengthAdjust="spacing" textLength="185" x="525" y="318.2935">return View(SubAluguerDTO)</text><polygon fill="#A80036" points="58,348.4922,48,352.4922,58,356.4922,54,352.4922" style="stroke:#A80036;stroke-width:1.0;"/><line style="stroke:#A80036;stroke-width:1.0;stroke-dasharray:2.0,2.0;" x1="52" x2="484" y1="352.4922" y2="352.4922"/><text fill="#000000" font-family="sans-serif" font-size="13" font-weight="bold" lengthAdjust="spacing" textLength="9" x="64" y="347.4263">9</text><text fill="#000000" font-family="sans-serif" font-size="13" lengthAdjust="spacing" textLength="154" x="77" y="347.4263">pede preço ao utilizador</text><polygon fill="#A80036" points="473,377.625,483,381.625,473,385.625,477,381.625" style="stroke:#A80036;stroke-width:1.0;"/><line style="stroke:#A80036;stroke-width:1.0;stroke-dasharray:2.0,2.0;" x1="47" x2="479" y1="381.625" y2="381.625"/><text fill="#000000" font-family="sans-serif" font-size="13" font-weight="bold" lengthAdjust="spacing" textLength="19" x="54" y="376.5591">10</text><text fill="#000000" font-family="sans-serif" font-size="13" lengthAdjust="spacing" textLength="138" x="77" y="376.5591">insere o preço pedido</text><polygon fill="#A80036" points="1433.5,406.7578,1443.5,410.7578,1433.5,414.7578,1437.5,410.7578" style="stroke:#A80036;stroke-width:1.0;"/><line style="stroke:#A80036;stroke-width:1.0;stroke-dasharray:2.0,2.0;" x1="490" x2="1439.5" y1="410.7578" y2="410.7578"/><text fill="#000000" font-family="sans-serif" font-size="13" font-weight="bold" lengthAdjust="spacing" textLength="18" x="497" y="405.6919">11</text><text fill="#000000" font-family="sans-serif" font-size="13" lengthAdjust="spacing" textLength="164" x="519" y="405.6919">Registar(SubAluguerDTO)</text><polygon fill="#A80036" points="1735.5,435.8906,1745.5,439.8906,1735.5,443.8906,1739.5,439.8906" style="stroke:#A80036;stroke-width:1.0;"/><line style="stroke:#A80036;stroke-width:1.0;stroke-dasharray:2.0,2.0;" x1="1455.5" x2="1741.5" y1="439.8906" y2="439.8906"/><text fill="#000000" font-family="sans-serif" font-size="13" font-weight="bold" lengthAdjust="spacing" textLength="18" x="1462.5" y="434.8247">12</text><text fill="#000000" font-family="sans-serif" font-size="13" lengthAdjust="spacing" textLength="251" x="1484.5" y="434.8247">PostSubAluguerAsync(SubAluguerDTO)</text><polygon fill="#A80036" points="1963.5,465.0234,1973.5,469.0234,1963.5,473.0234,1967.5,469.0234" style="stroke:#A80036;stroke-width:1.0;"/><line style="stroke:#A80036;stroke-width:1.0;stroke-dasharray:2.0,2.0;" x1="1757.5" x2="1969.5" y1="469.0234" y2="469.0234"/><text fill="#000000" font-family="sans-serif" font-size="13" font-weight="bold" lengthAdjust="spacing" textLength="17" x="1764.5" y="463.9575">13</text><text fill="#000000" font-family="sans-serif" font-size="13" lengthAdjust="spacing" textLength="178" x="1785.5" y="463.9575">PostAsync(SubAluguerDTO)</text><polygon fill="#A80036" points="1768.5,494.1563,1758.5,498.1563,1768.5,502.1563,1764.5,498.1563" style="stroke:#A80036;stroke-width:1.0;"/><line style="stroke:#A80036;stroke-width:1.0;stroke-dasharray:2.0,2.0;" x1="1762.5" x2="1979.5" y1="498.1563" y2="498.1563"/><text fill="#000000" font-family="sans-serif" font-size="13" font-weight="bold" lengthAdjust="spacing" textLength="18" x="1774.5" y="493.0903">14</text><text fill="#000000" font-family="sans-serif" font-size="13" lengthAdjust="spacing" textLength="115" x="1796.5" y="493.0903">CreatedAtAction()</text><polygon fill="#A80036" points="1466.5,523.2891,1456.5,527.2891,1466.5,531.2891,1462.5,527.2891" style="stroke:#A80036;stroke-width:1.0;"/><line style="stroke:#A80036;stroke-width:1.0;stroke-dasharray:2.0,2.0;" x1="1460.5" x2="1751.5" y1="527.2891" y2="527.2891"/><text fill="#000000" font-family="sans-serif" font-size="13" font-weight="bold" lengthAdjust="spacing" textLength="18" x="1472.5" y="522.2231">15</text><text fill="#000000" font-family="sans-serif" font-size="13" lengthAdjust="spacing" textLength="49" x="1494.5" y="522.2231">Task ok</text><line style="stroke:#A80036;stroke-width:1.0;stroke-dasharray:2.0,2.0;" x1="1455.5" x2="1497.5" y1="556.4219" y2="556.4219"/><line style="stroke:#A80036;stroke-width:1.0;stroke-dasharray:2.0,2.0;" x1="1497.5" x2="1497.5" y1="556.4219" y2="569.4219"/><line style="stroke:#A80036;stroke-width:1.0;stroke-dasharray:2.0,2.0;" x1="1456.5" x2="1497.5" y1="569.4219" y2="569.4219"/><polygon fill="#A80036" points="1466.5,565.4219,1456.5,569.4219,1466.5,573.4219,1462.5,569.4219" style="stroke:#A80036;stroke-width:1.0;"/><text fill="#000000" font-family="sans-serif" font-size="13" font-weight="bold" lengthAdjust="spacing" textLength="18" x="1462.5" y="551.356">16</text><text fill="#000000" font-family="sans-serif" font-size="13" lengthAdjust="spacing" textLength="214" x="1484.5" y="551.356">RedirectToAction(nameof(Index))</text><polygon fill="#A80036" points="769.5,594.5547,759.5,598.5547,769.5,602.5547,765.5,598.5547" style="stroke:#A80036;stroke-width:1.0;"/><line style="stroke:#A80036;stroke-width:1.0;stroke-dasharray:2.0,2.0;" x1="763.5" x2="1449.5" y1="598.5547" y2="598.5547"/><text fill="#000000" font-family="sans-serif" font-size="13" font-weight="bold" lengthAdjust="spacing" textLength="18" x="775.5" y="593.4888">17</text><text fill="#000000" font-family="sans-serif" font-size="13" lengthAdjust="spacing" textLength="219" x="797.5" y="593.4888">Return View(lista SubAluguerDTO)</text><polygon fill="#A80036" points="53,623.6875,43,627.6875,53,631.6875,49,627.6875" style="stroke:#A80036;stroke-width:1.0;"/><line style="stroke:#A80036;stroke-width:1.0;stroke-dasharray:2.0,2.0;" x1="47" x2="752.5" y1="627.6875" y2="627.6875"/><text fill="#000000" font-family="sans-serif" font-size="13" font-weight="bold" lengthAdjust="spacing" textLength="18" x="59" y="622.6216">18</text><text fill="#000000" font-family="sans-serif" font-size="13" lengthAdjust="spacing" textLength="154" x="81" y="622.6216">operação bem sucedida</text><!--MD5=[cd38f2cdfd8a7ef580c1de501e73e91e]
@startuml
autonumber
actor "Utilizador" as U
participant ":app/Views/Reservas/Index" as RIV
participant ":app/Views/SubAlugueres/Registar" as SRV
participant ":app/Views/SubAlugueres/Index" as SIV
participant ":app/ReservasController" as RC
participant ":app/ReservaService" as RS
participant ":app/SubAlugueresController" as SC
participant ":app/SubAluguerService" as SS
participant "API:SistemaCentral" as API

activate U
U - -> RIV : inicia pedido sub-aluguer
activate RIV

RIV - -> RC : Subalugar(id)
deactivate RIV
activate RC

RC - -> RS : GetByIdAsync(id)
activate RS

RS - -> API : GetAsync(id)
activate API

API - -> RS : return(DetalheReservaDTO)
deactivate API

RS - -> RC : return(DetalheReservaDTO)
deactivate RS

RC - -> SC : RedirectToAction("Registar", "SubAlugueres", DetalheReservaDTO)
deactivate RC
activate SC

SC - -> SRV: return View(SubAluguerDTO)
activate SRV

SRV - -> U: pede preço ao utilizador

U - -> SRV: insere o preço pedido

SRV - -> SC: Registar(SubAluguerDTO)
deactivate SRV

SC - -> SS: PostSubAluguerAsync(SubAluguerDTO)
activate SS

SS - -> API : PostAsync(SubAluguerDTO)
activate API

API - -> SS : CreatedAtAction()
deactivate API

SS - -> SC : Task ok
deactivate SS

SC - -> SC : RedirectToAction(nameof(Index))

SC - -> SIV : Return View(lista SubAluguerDTO)
deactivate SC
activate SIV

SIV - -> U: operação bem sucedida
deactivate SIV
deactivate U
@enduml

PlantUML version 1.2021.2beta9(Unknown compile time)
(GPL source distribution)
Java Runtime: Java(TM) SE Runtime Environment
JVM: Java HotSpot(TM) 64-Bit Server VM
Default Encoding: UTF-8
Language: en
Country: US
--></g></svg>