<?xml version="1.0" encoding="UTF-8" standalone="no"?><svg xmlns="http://www.w3.org/2000/svg" xmlns:xlink="http://www.w3.org/1999/xlink" contentScriptType="application/ecmascript" contentStyleType="text/css" height="250px" preserveAspectRatio="none" style="width:334px;height:250px;" version="1.1" viewBox="0 0 334 250" width="334px" zoomAndPan="magnify"><defs><filter height="300%" id="f1kz6tp7je9pwx" width="300%" x="-1" y="-1"><feGaussianBlur result="blurOut" stdDeviation="2.0"/><feColorMatrix in="blurOut" result="blurOut2" type="matrix" values="0 0 0 0 0 0 0 0 0 0 0 0 0 0 0 0 0 0 .4 0"/><feOffset dx="4.0" dy="4.0" in="blurOut2" result="blurOut3"/><feBlend in="SourceGraphic" in2="blurOut3" mode="normal"/></filter></defs><g><rect fill="#FFFFFF" filter="url(#f1kz6tp7je9pwx)" height="50.2656" style="stroke:#A80036;stroke-width:1.0;" width="10" x="37" y="98.2969"/><rect fill="#FFFFFF" filter="url(#f1kz6tp7je9pwx)" height="29.1328" style="stroke:#A80036;stroke-width:1.0;" width="10" x="258" y="119.4297"/><line style="stroke:#A80036;stroke-width:1.0;stroke-dasharray:5.0,5.0;" x1="42" x2="42" y1="88.2969" y2="166.5625"/><line style="stroke:#A80036;stroke-width:1.0;stroke-dasharray:5.0,5.0;" x1="263" x2="263" y1="88.2969" y2="166.5625"/><text fill="#000000" font-family="sans-serif" font-size="14" lengthAdjust="spacing" textLength="68" x="5" y="84.9951">Utilizador</text><ellipse cx="42" cy="15" fill="#FEFECE" filter="url(#f1kz6tp7je9pwx)" rx="8" ry="8" style="stroke:#A80036;stroke-width:2.0;"/><path d="M42,23 L42,50 M29,31 L55,31 M42,50 L29,65 M42,50 L55,65 " fill="none" filter="url(#f1kz6tp7je9pwx)" style="stroke:#A80036;stroke-width:2.0;"/><text fill="#000000" font-family="sans-serif" font-size="14" lengthAdjust="spacing" textLength="68" x="5" y="178.5576">Utilizador</text><ellipse cx="42" cy="191.8594" fill="#FEFECE" filter="url(#f1kz6tp7je9pwx)" rx="8" ry="8" style="stroke:#A80036;stroke-width:2.0;"/><path d="M42,199.8594 L42,226.8594 M29,207.8594 L55,207.8594 M42,226.8594 L29,241.8594 M42,226.8594 L55,241.8594 " fill="none" filter="url(#f1kz6tp7je9pwx)" style="stroke:#A80036;stroke-width:2.0;"/><rect fill="#FEFECE" filter="url(#f1kz6tp7je9pwx)" height="30.2969" style="stroke:#A80036;stroke-width:1.5;" width="118" x="202" y="53"/><text fill="#000000" font-family="sans-serif" font-size="14" lengthAdjust="spacing" textLength="104" x="209" y="72.9951">:APP.FrontEnd</text><rect fill="#FEFECE" filter="url(#f1kz6tp7je9pwx)" height="30.2969" style="stroke:#A80036;stroke-width:1.5;" width="118" x="202" y="165.5625"/><text fill="#000000" font-family="sans-serif" font-size="14" lengthAdjust="spacing" textLength="104" x="209" y="185.5576">:APP.FrontEnd</text><rect fill="#FFFFFF" filter="url(#f1kz6tp7je9pwx)" height="50.2656" style="stroke:#A80036;stroke-width:1.0;" width="10" x="37" y="98.2969"/><rect fill="#FFFFFF" filter="url(#f1kz6tp7je9pwx)" height="29.1328" style="stroke:#A80036;stroke-width:1.0;" width="10" x="258" y="119.4297"/><polygon fill="#A80036" points="246,115.4297,256,119.4297,246,123.4297,250,119.4297" style="stroke:#A80036;stroke-width:1.0;"/><line style="stroke:#A80036;stroke-width:1.0;" x1="47" x2="252" y1="119.4297" y2="119.4297"/><text fill="#000000" font-family="sans-serif" font-size="13" font-weight="bold" lengthAdjust="spacing" textLength="9" x="54" y="114.3638">1</text><text fill="#000000" font-family="sans-serif" font-size="13" lengthAdjust="spacing" textLength="179" x="67" y="114.3638">inicia pedido de sub-aluguer</text><polygon fill="#A80036" points="53,144.5625,43,148.5625,53,152.5625,49,148.5625" style="stroke:#A80036;stroke-width:1.0;"/><line style="stroke:#A80036;stroke-width:1.0;stroke-dasharray:2.0,2.0;" x1="47" x2="262" y1="148.5625" y2="148.5625"/><text fill="#000000" font-family="sans-serif" font-size="13" font-weight="bold" lengthAdjust="spacing" textLength="9" x="59" y="143.4966">2</text><text fill="#000000" font-family="sans-serif" font-size="13" lengthAdjust="spacing" textLength="154" x="72" y="143.4966">operação bem sucedida</text><!--MD5=[be61c60b8d280e6a19d9398fd491567c]
@startuml
autonumber
actor "Utilizador" as User
participant ":APP.FrontEnd" as FE

activate User
User -> FE : inicia pedido de sub-aluguer
activate FE

FE - -> User : operação bem sucedida

deactivate FE

deactivate User
@enduml

PlantUML version 1.2021.2beta9(Unknown compile time)
(GPL source distribution)
Java Runtime: Java(TM) SE Runtime Environment
JVM: Java HotSpot(TM) 64-Bit Server VM
Default Encoding: UTF-8
Language: en
Country: US
--></g></svg>