<?xml version="1.0" encoding="UTF-8" standalone="no"?><svg xmlns="http://www.w3.org/2000/svg" xmlns:xlink="http://www.w3.org/1999/xlink" contentScriptType="application/ecmascript" contentStyleType="text/css" height="499px" preserveAspectRatio="none" style="width:1126px;height:499px;" version="1.1" viewBox="0 0 1126 499" width="1126px" zoomAndPan="magnify"><defs><filter height="300%" id="fmeeaybenq8wi" width="300%" x="-1" y="-1"><feGaussianBlur result="blurOut" stdDeviation="2.0"/><feColorMatrix in="blurOut" result="blurOut2" type="matrix" values="0 0 0 0 0 0 0 0 0 0 0 0 0 0 0 0 0 0 .4 0"/><feOffset dx="4.0" dy="4.0" in="blurOut2" result="blurOut3"/><feBlend in="SourceGraphic" in2="blurOut3" mode="normal"/></filter></defs><g><rect fill="#FFFFFF" filter="url(#fmeeaybenq8wi)" height="298.4609" style="stroke:#A80036;stroke-width:1.0;" width="10" x="90.5" y="98.2969"/><rect fill="#FFFFFF" filter="url(#fmeeaybenq8wi)" height="277.3281" style="stroke:#A80036;stroke-width:1.0;" width="10" x="301.5" y="119.4297"/><rect fill="#FFFFFF" filter="url(#fmeeaybenq8wi)" height="145.6641" style="stroke:#A80036;stroke-width:1.0;" width="10" x="486.5" y="148.5625"/><rect fill="#FFFFFF" filter="url(#fmeeaybenq8wi)" height="87.3984" style="stroke:#A80036;stroke-width:1.0;" width="10" x="747.5" y="177.6953"/><rect fill="#FFFFFF" filter="url(#fmeeaybenq8wi)" height="29.1328" style="stroke:#A80036;stroke-width:1.0;" width="10" x="925.5" y="206.8281"/><rect fill="#FFFFFF" filter="url(#fmeeaybenq8wi)" height="29.1328" style="stroke:#A80036;stroke-width:1.0;" width="10" x="1054" y="323.3594"/><line style="stroke:#A80036;stroke-width:1.0;stroke-dasharray:5.0,5.0;" x1="95" x2="95" y1="88.2969" y2="414.7578"/><line style="stroke:#A80036;stroke-width:1.0;stroke-dasharray:5.0,5.0;" x1="306.5" x2="306.5" y1="88.2969" y2="414.7578"/><line style="stroke:#A80036;stroke-width:1.0;stroke-dasharray:5.0,5.0;" x1="491.5" x2="491.5" y1="88.2969" y2="414.7578"/><line style="stroke:#A80036;stroke-width:1.0;stroke-dasharray:5.0,5.0;" x1="752" x2="752" y1="88.2969" y2="414.7578"/><line style="stroke:#A80036;stroke-width:1.0;stroke-dasharray:5.0,5.0;" x1="930" x2="930" y1="88.2969" y2="414.7578"/><line style="stroke:#A80036;stroke-width:1.0;stroke-dasharray:5.0,5.0;" x1="1059" x2="1059" y1="88.2969" y2="414.7578"/><text fill="#000000" font-family="sans-serif" font-size="14" lengthAdjust="spacing" textLength="175" x="5" y="84.9951">Utilizador Não Registado</text><ellipse cx="95.5" cy="15" fill="#FEFECE" filter="url(#fmeeaybenq8wi)" rx="8" ry="8" style="stroke:#A80036;stroke-width:2.0;"/><path d="M95.5,23 L95.5,50 M82.5,31 L108.5,31 M95.5,50 L82.5,65 M95.5,50 L108.5,65 " fill="none" filter="url(#fmeeaybenq8wi)" style="stroke:#A80036;stroke-width:2.0;"/><text fill="#000000" font-family="sans-serif" font-size="14" lengthAdjust="spacing" textLength="175" x="5" y="426.7529">Utilizador Não Registado</text><ellipse cx="95.5" cy="440.0547" fill="#FEFECE" filter="url(#fmeeaybenq8wi)" rx="8" ry="8" style="stroke:#A80036;stroke-width:2.0;"/><path d="M95.5,448.0547 L95.5,475.0547 M82.5,456.0547 L108.5,456.0547 M95.5,475.0547 L82.5,490.0547 M95.5,475.0547 L108.5,490.0547 " fill="none" filter="url(#fmeeaybenq8wi)" style="stroke:#A80036;stroke-width:2.0;"/><rect fill="#FEFECE" filter="url(#fmeeaybenq8wi)" height="30.2969" style="stroke:#A80036;stroke-width:1.5;" width="208" x="200.5" y="53"/><text fill="#000000" font-family="sans-serif" font-size="14" lengthAdjust="spacing" textLength="194" x="207.5" y="72.9951">:app/utilizadoresController</text><rect fill="#FEFECE" filter="url(#fmeeaybenq8wi)" height="30.2969" style="stroke:#A80036;stroke-width:1.5;" width="208" x="200.5" y="413.7578"/><text fill="#000000" font-family="sans-serif" font-size="14" lengthAdjust="spacing" textLength="194" x="207.5" y="433.7529">:app/utilizadoresController</text><rect fill="#FEFECE" filter="url(#fmeeaybenq8wi)" height="30.2969" style="stroke:#A80036;stroke-width:1.5;" width="134" x="422.5" y="53"/><text fill="#000000" font-family="sans-serif" font-size="14" lengthAdjust="spacing" textLength="120" x="429.5" y="72.9951">utilizadorService</text><rect fill="#FEFECE" filter="url(#fmeeaybenq8wi)" height="30.2969" style="stroke:#A80036;stroke-width:1.5;" width="134" x="422.5" y="413.7578"/><text fill="#000000" font-family="sans-serif" font-size="14" lengthAdjust="spacing" textLength="120" x="429.5" y="433.7529">utilizadorService</text><rect fill="#FEFECE" filter="url(#fmeeaybenq8wi)" height="30.2969" style="stroke:#A80036;stroke-width:1.5;" width="105" x="698" y="53"/><text fill="#000000" font-family="sans-serif" font-size="14" lengthAdjust="spacing" textLength="91" x="705" y="72.9951">userManager</text><rect fill="#FEFECE" filter="url(#fmeeaybenq8wi)" height="30.2969" style="stroke:#A80036;stroke-width:1.5;" width="105" x="698" y="413.7578"/><text fill="#000000" font-family="sans-serif" font-size="14" lengthAdjust="spacing" textLength="91" x="705" y="433.7529">userManager</text><rect fill="#FEFECE" filter="url(#fmeeaybenq8wi)" height="30.2969" style="stroke:#A80036;stroke-width:1.5;" width="119" x="869" y="53"/><text fill="#000000" font-family="sans-serif" font-size="14" lengthAdjust="spacing" textLength="105" x="876" y="72.9951">:app/utilizador</text><rect fill="#FEFECE" filter="url(#fmeeaybenq8wi)" height="30.2969" style="stroke:#A80036;stroke-width:1.5;" width="119" x="869" y="413.7578"/><text fill="#000000" font-family="sans-serif" font-size="14" lengthAdjust="spacing" textLength="105" x="876" y="433.7529">:app/utilizador</text><rect fill="#FEFECE" filter="url(#fmeeaybenq8wi)" height="30.2969" style="stroke:#A80036;stroke-width:1.5;" width="110" x="1002" y="53"/><text fill="#000000" font-family="sans-serif" font-size="14" lengthAdjust="spacing" textLength="96" x="1009" y="72.9951">tokenService</text><rect fill="#FEFECE" filter="url(#fmeeaybenq8wi)" height="30.2969" style="stroke:#A80036;stroke-width:1.5;" width="110" x="1002" y="413.7578"/><text fill="#000000" font-family="sans-serif" font-size="14" lengthAdjust="spacing" textLength="96" x="1009" y="433.7529">tokenService</text><rect fill="#FFFFFF" filter="url(#fmeeaybenq8wi)" height="298.4609" style="stroke:#A80036;stroke-width:1.0;" width="10" x="90.5" y="98.2969"/><rect fill="#FFFFFF" filter="url(#fmeeaybenq8wi)" height="277.3281" style="stroke:#A80036;stroke-width:1.0;" width="10" x="301.5" y="119.4297"/><rect fill="#FFFFFF" filter="url(#fmeeaybenq8wi)" height="145.6641" style="stroke:#A80036;stroke-width:1.0;" width="10" x="486.5" y="148.5625"/><rect fill="#FFFFFF" filter="url(#fmeeaybenq8wi)" height="87.3984" style="stroke:#A80036;stroke-width:1.0;" width="10" x="747.5" y="177.6953"/><rect fill="#FFFFFF" filter="url(#fmeeaybenq8wi)" height="29.1328" style="stroke:#A80036;stroke-width:1.0;" width="10" x="925.5" y="206.8281"/><rect fill="#FFFFFF" filter="url(#fmeeaybenq8wi)" height="29.1328" style="stroke:#A80036;stroke-width:1.0;" width="10" x="1054" y="323.3594"/><polygon fill="#A80036" points="289.5,115.4297,299.5,119.4297,289.5,123.4297,293.5,119.4297" style="stroke:#A80036;stroke-width:1.0;"/><line style="stroke:#A80036;stroke-width:1.0;stroke-dasharray:2.0,2.0;" x1="100.5" x2="295.5" y1="119.4297" y2="119.4297"/><text fill="#000000" font-family="sans-serif" font-size="13" font-weight="bold" lengthAdjust="spacing" textLength="9" x="107.5" y="114.3638">1</text><text fill="#000000" font-family="sans-serif" font-size="13" lengthAdjust="spacing" textLength="92" x="120.5" y="114.3638">solicita registo</text><polygon fill="#A80036" points="474.5,144.5625,484.5,148.5625,474.5,152.5625,478.5,148.5625" style="stroke:#A80036;stroke-width:1.0;"/><line style="stroke:#A80036;stroke-width:1.0;stroke-dasharray:2.0,2.0;" x1="311.5" x2="480.5" y1="148.5625" y2="148.5625"/><text fill="#000000" font-family="sans-serif" font-size="13" font-weight="bold" lengthAdjust="spacing" textLength="9" x="318.5" y="143.4966">2</text><text fill="#000000" font-family="sans-serif" font-size="13" lengthAdjust="spacing" textLength="112" x="331.5" y="143.4966">RegistarUtilizador</text><polygon fill="#A80036" points="735.5,173.6953,745.5,177.6953,735.5,181.6953,739.5,177.6953" style="stroke:#A80036;stroke-width:1.0;"/><line style="stroke:#A80036;stroke-width:1.0;stroke-dasharray:2.0,2.0;" x1="496.5" x2="741.5" y1="177.6953" y2="177.6953"/><text fill="#000000" font-family="sans-serif" font-size="13" font-weight="bold" lengthAdjust="spacing" textLength="8" x="503.5" y="172.6294">3</text><text fill="#000000" font-family="sans-serif" font-size="13" lengthAdjust="spacing" textLength="220" x="515.5" y="172.6294">CreateAsync(utilizador, password)</text><polygon fill="#A80036" points="913.5,202.8281,923.5,206.8281,913.5,210.8281,917.5,206.8281" style="stroke:#A80036;stroke-width:1.0;"/><line style="stroke:#A80036;stroke-width:1.0;stroke-dasharray:2.0,2.0;" x1="757.5" x2="919.5" y1="206.8281" y2="206.8281"/><text fill="#000000" font-family="sans-serif" font-size="13" font-weight="bold" lengthAdjust="spacing" textLength="9" x="764.5" y="201.7622">4</text><text fill="#000000" font-family="sans-serif" font-size="13" lengthAdjust="spacing" textLength="136" x="777.5" y="201.7622">Regista um Utilizador</text><polygon fill="#A80036" points="768.5,231.9609,758.5,235.9609,768.5,239.9609,764.5,235.9609" style="stroke:#A80036;stroke-width:1.0;"/><line style="stroke:#A80036;stroke-width:1.0;stroke-dasharray:2.0,2.0;" x1="762.5" x2="929.5" y1="235.9609" y2="235.9609"/><text fill="#000000" font-family="sans-serif" font-size="13" font-weight="bold" lengthAdjust="spacing" textLength="9" x="774.5" y="230.895">5</text><text fill="#000000" font-family="sans-serif" font-size="13" lengthAdjust="spacing" textLength="127" x="787.5" y="230.895">Utilizador Registado</text><polygon fill="#A80036" points="507.5,261.0938,497.5,265.0938,507.5,269.0938,503.5,265.0938" style="stroke:#A80036;stroke-width:1.0;"/><line style="stroke:#A80036;stroke-width:1.0;stroke-dasharray:2.0,2.0;" x1="501.5" x2="751.5" y1="265.0938" y2="265.0938"/><text fill="#000000" font-family="sans-serif" font-size="13" font-weight="bold" lengthAdjust="spacing" textLength="9" x="513.5" y="260.0278">6</text><text fill="#000000" font-family="sans-serif" font-size="13" lengthAdjust="spacing" textLength="88" x="526.5" y="260.0278">IdentityResult</text><polygon fill="#A80036" points="322.5,290.2266,312.5,294.2266,322.5,298.2266,318.5,294.2266" style="stroke:#A80036;stroke-width:1.0;"/><line style="stroke:#A80036;stroke-width:1.0;stroke-dasharray:2.0,2.0;" x1="316.5" x2="490.5" y1="294.2266" y2="294.2266"/><text fill="#000000" font-family="sans-serif" font-size="13" font-weight="bold" lengthAdjust="spacing" textLength="9" x="328.5" y="289.1606">7</text><text fill="#000000" font-family="sans-serif" font-size="13" lengthAdjust="spacing" textLength="88" x="341.5" y="289.1606">IdentityResult</text><polygon fill="#A80036" points="1042,319.3594,1052,323.3594,1042,327.3594,1046,323.3594" style="stroke:#A80036;stroke-width:1.0;"/><line style="stroke:#A80036;stroke-width:1.0;stroke-dasharray:2.0,2.0;" x1="311.5" x2="1048" y1="323.3594" y2="323.3594"/><text fill="#000000" font-family="sans-serif" font-size="13" font-weight="bold" lengthAdjust="spacing" textLength="9" x="318.5" y="318.2935">8</text><text fill="#000000" font-family="sans-serif" font-size="13" lengthAdjust="spacing" textLength="69" x="331.5" y="318.2935">BuildToken</text><polygon fill="#A80036" points="322.5,348.4922,312.5,352.4922,322.5,356.4922,318.5,352.4922" style="stroke:#A80036;stroke-width:1.0;"/><line style="stroke:#A80036;stroke-width:1.0;stroke-dasharray:2.0,2.0;" x1="316.5" x2="1058" y1="352.4922" y2="352.4922"/><text fill="#000000" font-family="sans-serif" font-size="13" font-weight="bold" lengthAdjust="spacing" textLength="9" x="328.5" y="347.4263">9</text><text fill="#000000" font-family="sans-serif" font-size="13" lengthAdjust="spacing" textLength="86" x="341.5" y="347.4263">Return Token</text><polygon fill="#A80036" points="106.5,392.7578,96.5,396.7578,106.5,400.7578,102.5,396.7578" style="stroke:#A80036;stroke-width:1.0;"/><line style="stroke:#A80036;stroke-width:1.0;stroke-dasharray:2.0,2.0;" x1="100.5" x2="305.5" y1="396.7578" y2="396.7578"/><text fill="#000000" font-family="sans-serif" font-size="13" font-weight="bold" lengthAdjust="spacing" textLength="19" x="112.5" y="384.1255">10</text><text fill="#000000" font-family="sans-serif" font-size="13" lengthAdjust="spacing" textLength="86" x="135.5" y="376.5591">Return Token</text><text fill="#000000" font-family="sans-serif" font-size="13" lengthAdjust="spacing" textLength="154" x="135.5" y="391.6919">operação bem sucedida</text><!--MD5=[2ceb22c15437cde2cbd1f86578cababd]
@startuml
autonumber
actor "Utilizador Não Registado" as UNR
participant ":app/utilizadoresController" as UC
participant "utilizadorService" as S
participant "userManager" as UM
participant ":app/utilizador" as U
participant "tokenService" as TS


activate UNR
UNR - -> UC : solicita registo
activate UC

UC - -> S : RegistarUtilizador
activate S

S - -> UM : CreateAsync(utilizador, password)
activate UM

UM - -> U : Regista um Utilizador
activate U

U - -> UM : Utilizador Registado
deactivate U

UM - -> S : IdentityResult
deactivate UM

S - -> UC : IdentityResult
deactivate S

UC - -> TS : BuildToken
activate TS

TS - -> UC : Return Token
deactivate TS

UC - -> UNR : Return Token\noperação bem sucedida

deactivate UC
deactivate UNR
@enduml

PlantUML version 1.2021.2beta9(Unknown compile time)
(GPL source distribution)
Java Runtime: Java(TM) SE Runtime Environment
JVM: Java HotSpot(TM) 64-Bit Server VM
Default Encoding: UTF-8
Language: en
Country: US
--></g></svg>