<?xml version="1.0" encoding="UTF-8" standalone="no"?><svg xmlns="http://www.w3.org/2000/svg" xmlns:xlink="http://www.w3.org/1999/xlink" contentScriptType="application/ecmascript" contentStyleType="text/css" height="324px" preserveAspectRatio="none" style="width:539px;height:324px;" version="1.1" viewBox="0 0 539 324" width="539px" zoomAndPan="magnify"><defs><filter height="300%" id="f1qntevof8unbf" width="300%" x="-1" y="-1"><feGaussianBlur result="blurOut" stdDeviation="2.0"/><feColorMatrix in="blurOut" result="blurOut2" type="matrix" values="0 0 0 0 0 0 0 0 0 0 0 0 0 0 0 0 0 0 .4 0"/><feOffset dx="4.0" dy="4.0" in="blurOut2" result="blurOut3"/><feBlend in="SourceGraphic" in2="blurOut3" mode="normal"/></filter></defs><g><rect fill="#FFFFFF" filter="url(#f1qntevof8unbf)" height="123.6641" style="stroke:#A80036;stroke-width:1.0;" width="10" x="90.5" y="98.2969"/><rect fill="#FFFFFF" filter="url(#f1qntevof8unbf)" height="44.2656" style="stroke:#A80036;stroke-width:1.0;" width="10" x="470.5" y="119.4297"/><rect fill="#FFFFFF" filter="url(#f1qntevof8unbf)" height="29.1328" style="stroke:#A80036;stroke-width:1.0;" width="10" x="470.5" y="192.8281"/><line style="stroke:#A80036;stroke-width:1.0;stroke-dasharray:5.0,5.0;" x1="95" x2="95" y1="88.2969" y2="239.9609"/><line style="stroke:#A80036;stroke-width:1.0;stroke-dasharray:5.0,5.0;" x1="475.5" x2="475.5" y1="88.2969" y2="239.9609"/><text fill="#000000" font-family="sans-serif" font-size="14" lengthAdjust="spacing" textLength="175" x="5" y="84.9951">Utilizador Não Registado</text><ellipse cx="95.5" cy="15" fill="#FEFECE" filter="url(#f1qntevof8unbf)" rx="8" ry="8" style="stroke:#A80036;stroke-width:2.0;"/><path d="M95.5,23 L95.5,50 M82.5,31 L108.5,31 M95.5,50 L82.5,65 M95.5,50 L108.5,65 " fill="none" filter="url(#f1qntevof8unbf)" style="stroke:#A80036;stroke-width:2.0;"/><text fill="#000000" font-family="sans-serif" font-size="14" lengthAdjust="spacing" textLength="175" x="5" y="251.9561">Utilizador Não Registado</text><ellipse cx="95.5" cy="265.2578" fill="#FEFECE" filter="url(#f1qntevof8unbf)" rx="8" ry="8" style="stroke:#A80036;stroke-width:2.0;"/><path d="M95.5,273.2578 L95.5,300.2578 M82.5,281.2578 L108.5,281.2578 M95.5,300.2578 L82.5,315.2578 M95.5,300.2578 L108.5,315.2578 " fill="none" filter="url(#f1qntevof8unbf)" style="stroke:#A80036;stroke-width:2.0;"/><text fill="#000000" font-family="sans-serif" font-size="14" lengthAdjust="spacing" textLength="120" x="412.5" y="84.9951">:Sistema Central</text><ellipse cx="475.5" cy="15" fill="#FEFECE" filter="url(#f1qntevof8unbf)" rx="8" ry="8" style="stroke:#A80036;stroke-width:2.0;"/><path d="M475.5,23 L475.5,50 M462.5,31 L488.5,31 M475.5,50 L462.5,65 M475.5,50 L488.5,65 " fill="none" filter="url(#f1qntevof8unbf)" style="stroke:#A80036;stroke-width:2.0;"/><text fill="#000000" font-family="sans-serif" font-size="14" lengthAdjust="spacing" textLength="120" x="412.5" y="251.9561">:Sistema Central</text><ellipse cx="475.5" cy="265.2578" fill="#FEFECE" filter="url(#f1qntevof8unbf)" rx="8" ry="8" style="stroke:#A80036;stroke-width:2.0;"/><path d="M475.5,273.2578 L475.5,300.2578 M462.5,281.2578 L488.5,281.2578 M475.5,300.2578 L462.5,315.2578 M475.5,300.2578 L488.5,315.2578 " fill="none" filter="url(#f1qntevof8unbf)" style="stroke:#A80036;stroke-width:2.0;"/><rect fill="#FFFFFF" filter="url(#f1qntevof8unbf)" height="123.6641" style="stroke:#A80036;stroke-width:1.0;" width="10" x="90.5" y="98.2969"/><rect fill="#FFFFFF" filter="url(#f1qntevof8unbf)" height="44.2656" style="stroke:#A80036;stroke-width:1.0;" width="10" x="470.5" y="119.4297"/><rect fill="#FFFFFF" filter="url(#f1qntevof8unbf)" height="29.1328" style="stroke:#A80036;stroke-width:1.0;" width="10" x="470.5" y="192.8281"/><polygon fill="#A80036" points="458.5,115.4297,468.5,119.4297,458.5,123.4297,462.5,119.4297" style="stroke:#A80036;stroke-width:1.0;"/><line style="stroke:#A80036;stroke-width:1.0;" x1="100.5" x2="464.5" y1="119.4297" y2="119.4297"/><text fill="#000000" font-family="sans-serif" font-size="13" font-weight="bold" lengthAdjust="spacing" textLength="9" x="107.5" y="114.3638">1</text><text fill="#000000" font-family="sans-serif" font-size="13" lengthAdjust="spacing" textLength="106" x="120.5" y="114.3638">regista utilizador</text><polygon fill="#A80036" points="111.5,159.6953,101.5,163.6953,111.5,167.6953,107.5,163.6953" style="stroke:#A80036;stroke-width:1.0;"/><line style="stroke:#A80036;stroke-width:1.0;stroke-dasharray:2.0,2.0;" x1="105.5" x2="474.5" y1="163.6953" y2="163.6953"/><text fill="#000000" font-family="sans-serif" font-size="13" font-weight="bold" lengthAdjust="spacing" textLength="9" x="117.5" y="151.063">2</text><text fill="#000000" font-family="sans-serif" font-size="13" lengthAdjust="spacing" textLength="133" x="130.5" y="143.4966">solicita dados cliente</text><text fill="#000000" font-family="sans-serif" font-size="13" lengthAdjust="spacing" textLength="333" x="130.5" y="158.6294">(nome, NIF, email, método pagamento preferencial)</text><polygon fill="#A80036" points="458.5,188.8281,468.5,192.8281,458.5,196.8281,462.5,192.8281" style="stroke:#A80036;stroke-width:1.0;"/><line style="stroke:#A80036;stroke-width:1.0;" x1="100.5" x2="464.5" y1="192.8281" y2="192.8281"/><text fill="#000000" font-family="sans-serif" font-size="13" font-weight="bold" lengthAdjust="spacing" textLength="8" x="107.5" y="187.7622">3</text><text fill="#000000" font-family="sans-serif" font-size="13" lengthAdjust="spacing" textLength="185" x="119.5" y="187.7622">introduz os dados solicitados</text><polygon fill="#A80036" points="106.5,217.9609,96.5,221.9609,106.5,225.9609,102.5,221.9609" style="stroke:#A80036;stroke-width:1.0;"/><line style="stroke:#A80036;stroke-width:1.0;stroke-dasharray:2.0,2.0;" x1="100.5" x2="474.5" y1="221.9609" y2="221.9609"/><text fill="#000000" font-family="sans-serif" font-size="13" font-weight="bold" lengthAdjust="spacing" textLength="9" x="112.5" y="216.895">4</text><text fill="#000000" font-family="sans-serif" font-size="13" lengthAdjust="spacing" textLength="154" x="125.5" y="216.895">operação bem sucedida</text><!--MD5=[b0c7049dcf542040fc1b30ab2fdaefc6]
@startuml
autonumber
actor "Utilizador Não Registado" as UserNR
actor ":Sistema Central" as SC

activate UserNR
UserNR -> SC : regista utilizador
activate SC
SC - -> UserNR : solicita dados cliente \n(nome, NIF, email, método pagamento preferencial)
deactivate SC

UserNR -> SC : introduz os dados solicitados
activate SC

SC - -> UserNR : operação bem sucedida
deactivate SC

deactivate UserNR
@enduml

PlantUML version 1.2021.01(Tue Feb 02 07:55:08 UTC 2021)
(GPL source distribution)
Java Runtime: Java(TM) SE Runtime Environment
JVM: Java HotSpot(TM) 64-Bit Server VM
Default Encoding: UTF-8
Language: en
Country: US
--></g></svg>