<?xml version="1.0" encoding="UTF-8" standalone="no"?><svg xmlns="http://www.w3.org/2000/svg" xmlns:xlink="http://www.w3.org/1999/xlink" contentScriptType="application/ecmascript" contentStyleType="text/css" height="382px" preserveAspectRatio="none" style="width:588px;height:382px;" version="1.1" viewBox="0 0 588 382" width="588px" zoomAndPan="magnify"><defs><filter height="300%" id="figxw8kcftzw" width="300%" x="-1" y="-1"><feGaussianBlur result="blurOut" stdDeviation="2.0"/><feColorMatrix in="blurOut" result="blurOut2" type="matrix" values="0 0 0 0 0 0 0 0 0 0 0 0 0 0 0 0 0 0 .4 0"/><feOffset dx="4.0" dy="4.0" in="blurOut2" result="blurOut3"/><feBlend in="SourceGraphic" in2="blurOut3" mode="normal"/></filter></defs><g><rect fill="#FFFFFF" filter="url(#figxw8kcftzw)" height="181.9297" style="stroke:#A80036;stroke-width:1.0;" width="10" x="82.5" y="98.2969"/><rect fill="#FFFFFF" filter="url(#figxw8kcftzw)" height="160.7969" style="stroke:#A80036;stroke-width:1.0;" width="10" x="283.5" y="119.4297"/><rect fill="#FFFFFF" filter="url(#figxw8kcftzw)" height="29.1328" style="stroke:#A80036;stroke-width:1.0;" width="10" x="433.5" y="148.5625"/><rect fill="#FFFFFF" filter="url(#figxw8kcftzw)" height="29.1328" style="stroke:#A80036;stroke-width:1.0;" width="10" x="533.5" y="206.8281"/><line style="stroke:#A80036;stroke-width:1.0;stroke-dasharray:5.0,5.0;" x1="87" x2="87" y1="88.2969" y2="298.2266"/><line style="stroke:#A80036;stroke-width:1.0;stroke-dasharray:5.0,5.0;" x1="288.5" x2="288.5" y1="88.2969" y2="298.2266"/><line style="stroke:#A80036;stroke-width:1.0;stroke-dasharray:5.0,5.0;" x1="438.5" x2="438.5" y1="88.2969" y2="298.2266"/><line style="stroke:#A80036;stroke-width:1.0;stroke-dasharray:5.0,5.0;" x1="538.5" x2="538.5" y1="88.2969" y2="298.2266"/><text fill="#000000" font-family="sans-serif" font-size="14" lengthAdjust="spacing" textLength="159" x="5" y="84.9951">Cliente Não Registado</text><ellipse cx="87.5" cy="15" fill="#FEFECE" filter="url(#figxw8kcftzw)" rx="8" ry="8" style="stroke:#A80036;stroke-width:2.0;"/><path d="M87.5,23 L87.5,50 M74.5,31 L100.5,31 M87.5,50 L74.5,65 M87.5,50 L100.5,65 " fill="none" filter="url(#figxw8kcftzw)" style="stroke:#A80036;stroke-width:2.0;"/><text fill="#000000" font-family="sans-serif" font-size="14" lengthAdjust="spacing" textLength="159" x="5" y="310.2217">Cliente Não Registado</text><ellipse cx="87.5" cy="323.5234" fill="#FEFECE" filter="url(#figxw8kcftzw)" rx="8" ry="8" style="stroke:#A80036;stroke-width:2.0;"/><path d="M87.5,331.5234 L87.5,358.5234 M74.5,339.5234 L100.5,339.5234 M87.5,358.5234 L74.5,373.5234 M87.5,358.5234 L100.5,373.5234 " fill="none" filter="url(#figxw8kcftzw)" style="stroke:#A80036;stroke-width:2.0;"/><rect fill="#FEFECE" filter="url(#figxw8kcftzw)" height="30.2969" style="stroke:#A80036;stroke-width:1.5;" width="176" x="198.5" y="53"/><text fill="#000000" font-family="sans-serif" font-size="14" lengthAdjust="spacing" textLength="162" x="205.5" y="72.9951">:api/clientesController</text><rect fill="#FEFECE" filter="url(#figxw8kcftzw)" height="30.2969" style="stroke:#A80036;stroke-width:1.5;" width="176" x="198.5" y="297.2266"/><text fill="#000000" font-family="sans-serif" font-size="14" lengthAdjust="spacing" textLength="162" x="205.5" y="317.2217">:api/clientesController</text><rect fill="#FEFECE" filter="url(#figxw8kcftzw)" height="30.2969" style="stroke:#A80036;stroke-width:1.5;" width="96" x="388.5" y="53"/><text fill="#000000" font-family="sans-serif" font-size="14" lengthAdjust="spacing" textLength="82" x="395.5" y="72.9951">:api/cliente</text><rect fill="#FEFECE" filter="url(#figxw8kcftzw)" height="30.2969" style="stroke:#A80036;stroke-width:1.5;" width="96" x="388.5" y="297.2266"/><text fill="#000000" font-family="sans-serif" font-size="14" lengthAdjust="spacing" textLength="82" x="395.5" y="317.2217">:api/cliente</text><rect fill="#FEFECE" filter="url(#figxw8kcftzw)" height="30.2969" style="stroke:#A80036;stroke-width:1.5;" width="76" x="498.5" y="53"/><text fill="#000000" font-family="sans-serif" font-size="14" lengthAdjust="spacing" textLength="62" x="505.5" y="72.9951">:context</text><rect fill="#FEFECE" filter="url(#figxw8kcftzw)" height="30.2969" style="stroke:#A80036;stroke-width:1.5;" width="76" x="498.5" y="297.2266"/><text fill="#000000" font-family="sans-serif" font-size="14" lengthAdjust="spacing" textLength="62" x="505.5" y="317.2217">:context</text><rect fill="#FFFFFF" filter="url(#figxw8kcftzw)" height="181.9297" style="stroke:#A80036;stroke-width:1.0;" width="10" x="82.5" y="98.2969"/><rect fill="#FFFFFF" filter="url(#figxw8kcftzw)" height="160.7969" style="stroke:#A80036;stroke-width:1.0;" width="10" x="283.5" y="119.4297"/><rect fill="#FFFFFF" filter="url(#figxw8kcftzw)" height="29.1328" style="stroke:#A80036;stroke-width:1.0;" width="10" x="433.5" y="148.5625"/><rect fill="#FFFFFF" filter="url(#figxw8kcftzw)" height="29.1328" style="stroke:#A80036;stroke-width:1.0;" width="10" x="533.5" y="206.8281"/><polygon fill="#A80036" points="271.5,115.4297,281.5,119.4297,271.5,123.4297,275.5,119.4297" style="stroke:#A80036;stroke-width:1.0;"/><line style="stroke:#A80036;stroke-width:1.0;stroke-dasharray:2.0,2.0;" x1="92.5" x2="277.5" y1="119.4297" y2="119.4297"/><text fill="#000000" font-family="sans-serif" font-size="13" font-weight="bold" lengthAdjust="spacing" textLength="9" x="99.5" y="114.3638">1</text><text fill="#000000" font-family="sans-serif" font-size="13" lengthAdjust="spacing" textLength="153" x="112.5" y="114.3638">solicita registo empresa</text><polygon fill="#A80036" points="421.5,144.5625,431.5,148.5625,421.5,152.5625,425.5,148.5625" style="stroke:#A80036;stroke-width:1.0;"/><line style="stroke:#A80036;stroke-width:1.0;stroke-dasharray:2.0,2.0;" x1="293.5" x2="427.5" y1="148.5625" y2="148.5625"/><text fill="#000000" font-family="sans-serif" font-size="13" font-weight="bold" lengthAdjust="spacing" textLength="9" x="300.5" y="143.4966">2</text><text fill="#000000" font-family="sans-serif" font-size="13" lengthAdjust="spacing" textLength="84" x="313.5" y="143.4966">valida cliente</text><polygon fill="#A80036" points="304.5,173.6953,294.5,177.6953,304.5,181.6953,300.5,177.6953" style="stroke:#A80036;stroke-width:1.0;"/><line style="stroke:#A80036;stroke-width:1.0;stroke-dasharray:2.0,2.0;" x1="298.5" x2="437.5" y1="177.6953" y2="177.6953"/><text fill="#000000" font-family="sans-serif" font-size="13" font-weight="bold" lengthAdjust="spacing" textLength="8" x="310.5" y="172.6294">3</text><text fill="#000000" font-family="sans-serif" font-size="13" lengthAdjust="spacing" textLength="100" x="322.5" y="172.6294">cliente validado</text><polygon fill="#A80036" points="521.5,202.8281,531.5,206.8281,521.5,210.8281,525.5,206.8281" style="stroke:#A80036;stroke-width:1.0;"/><line style="stroke:#A80036;stroke-width:1.0;stroke-dasharray:2.0,2.0;" x1="293.5" x2="527.5" y1="206.8281" y2="206.8281"/><text fill="#000000" font-family="sans-serif" font-size="13" font-weight="bold" lengthAdjust="spacing" textLength="9" x="300.5" y="201.7622">4</text><text fill="#000000" font-family="sans-serif" font-size="13" lengthAdjust="spacing" textLength="77" x="313.5" y="201.7622">Add(cliente)</text><polygon fill="#A80036" points="304.5,231.9609,294.5,235.9609,304.5,239.9609,300.5,235.9609" style="stroke:#A80036;stroke-width:1.0;"/><line style="stroke:#A80036;stroke-width:1.0;stroke-dasharray:2.0,2.0;" x1="298.5" x2="537.5" y1="235.9609" y2="235.9609"/><text fill="#000000" font-family="sans-serif" font-size="13" font-weight="bold" lengthAdjust="spacing" textLength="9" x="310.5" y="230.895">5</text><text fill="#000000" font-family="sans-serif" font-size="13" lengthAdjust="spacing" textLength="137" x="323.5" y="230.895">SaveChangesAsync()</text><polygon fill="#A80036" points="98.5,276.2266,88.5,280.2266,98.5,284.2266,94.5,280.2266" style="stroke:#A80036;stroke-width:1.0;"/><line style="stroke:#A80036;stroke-width:1.0;stroke-dasharray:2.0,2.0;" x1="92.5" x2="287.5" y1="280.2266" y2="280.2266"/><text fill="#000000" font-family="sans-serif" font-size="13" font-weight="bold" lengthAdjust="spacing" textLength="9" x="104.5" y="267.5942">6</text><text fill="#000000" font-family="sans-serif" font-size="13" lengthAdjust="spacing" textLength="115" x="117.5" y="260.0278">CreatedAtAction()</text><text fill="#000000" font-family="sans-serif" font-size="13" lengthAdjust="spacing" textLength="154" x="117.5" y="275.1606">operação bem sucedida</text><!--MD5=[c35753a74cf68d01ecb484889673fcb8]
@startuml
autonumber
actor "Cliente Não Registado" as UNR
participant ":api/clientesController" as UC
participant ":api/cliente" as U
participant ":context" as C

activate UNR
UNR - -> UC : solicita registo empresa
activate UC

UC - -> U : valida cliente
activate U

U - -> UC : cliente validado
deactivate U

UC - -> C : Add(cliente)
activate C

C - -> UC : SaveChangesAsync()
deactivate C

UC - -> UNR: CreatedAtAction()\noperação bem sucedida
deactivate UC
deactivate UNR
@enduml

PlantUML version 1.2021.01beta7(Unknown compile time)
(GPL source distribution)
Java Runtime: Java(TM) SE Runtime Environment
JVM: Java HotSpot(TM) 64-Bit Server VM
Default Encoding: UTF-8
Language: en
Country: US
--></g></svg>