<?xml version="1.0" encoding="UTF-8" standalone="no"?><svg xmlns="http://www.w3.org/2000/svg" xmlns:xlink="http://www.w3.org/1999/xlink" contentScriptType="application/ecmascript" contentStyleType="text/css" height="456px" preserveAspectRatio="none" style="width:492px;height:456px;" version="1.1" viewBox="0 0 492 456" width="492px" zoomAndPan="magnify"><defs><filter height="300%" id="fiz09xhsifv9a" width="300%" x="-1" y="-1"><feGaussianBlur result="blurOut" stdDeviation="2.0"/><feColorMatrix in="blurOut" result="blurOut2" type="matrix" values="0 0 0 0 0 0 0 0 0 0 0 0 0 0 0 0 0 0 .4 0"/><feOffset dx="4.0" dy="4.0" in="blurOut2" result="blurOut3"/><feBlend in="SourceGraphic" in2="blurOut3" mode="normal"/></filter></defs><g><!--MD5=[cf9db1cf459c0bf5fadcb49d5c759371]
class UsersController--><rect codeLine="3" fill="#FEFECE" filter="url(#fiz09xhsifv9a)" height="99.2188" id="UsersController" style="stroke:#A80036;stroke-width:1.5;" width="182" x="131.5" y="7"/><ellipse cx="171.25" cy="23" fill="#ADD1B2" rx="11" ry="11" style="stroke:#A80036;stroke-width:1.0;"/><path d="M173.5938,18.6719 C172.6563,18.2344 172.0625,18.0938 171.1875,18.0938 C168.5625,18.0938 166.5625,20.1719 166.5625,22.8906 L166.5625,24.0156 C166.5625,26.5938 168.6719,28.4844 171.5625,28.4844 C172.7813,28.4844 173.9375,28.1875 174.6875,27.6406 C175.2656,27.2344 175.5938,26.7813 175.5938,26.3906 C175.5938,25.9375 175.2031,25.5469 174.7344,25.5469 C174.5156,25.5469 174.3125,25.625 174.125,25.8125 C173.6719,26.2969 173.6719,26.2969 173.4844,26.3906 C173.0625,26.6563 172.375,26.7813 171.6094,26.7813 C169.5625,26.7813 168.2656,25.6875 168.2656,23.9844 L168.2656,22.8906 C168.2656,21.1094 169.5156,19.7969 171.25,19.7969 C171.8281,19.7969 172.4375,19.9531 172.9063,20.2031 C173.3906,20.4844 173.5625,20.7031 173.6563,21.1094 C173.7188,21.5156 173.75,21.6406 173.8906,21.7656 C174.0313,21.9063 174.2656,22.0156 174.4844,22.0156 C174.75,22.0156 175.0156,21.875 175.1875,21.6563 C175.2969,21.5 175.3281,21.3125 175.3281,20.8906 L175.3281,19.4688 C175.3281,19.0313 175.3125,18.9063 175.2188,18.75 C175.0625,18.4844 174.7813,18.3438 174.4844,18.3438 C174.1875,18.3438 173.9844,18.4375 173.7656,18.75 L173.5938,18.6719 Z " fill="#000000"/><text fill="#000000" font-family="sans-serif" font-size="12" lengthAdjust="spacing" textLength="95" x="190.75" y="27.1543">UsersController</text><line style="stroke:#A80036;stroke-width:1.5;" x1="132.5" x2="312.5" y1="39" y2="39"/><line style="stroke:#A80036;stroke-width:1.5;" x1="132.5" x2="312.5" y1="47" y2="47"/><text fill="#000000" font-family="sans-serif" font-size="11" lengthAdjust="spacing" textLength="74" x="137.5" y="61.2104">+Post Login()</text><text fill="#000000" font-family="sans-serif" font-size="11" lengthAdjust="spacing" textLength="91" x="137.5" y="74.0151">+Post Register()</text><text fill="#000000" font-family="sans-serif" font-size="11" lengthAdjust="spacing" textLength="141" x="137.5" y="86.8198">+Delete DeleteUser(nif)</text><text fill="#000000" font-family="sans-serif" font-size="11" lengthAdjust="spacing" textLength="170" x="137.5" y="99.6245">+UserToken BuildToken(user)</text><!--MD5=[3fd616f346a44cd59a91eb10b19e157c]
class User--><rect codeLine="10" fill="#FEFECE" filter="url(#fiz09xhsifv9a)" height="112.0234" id="User" style="stroke:#A80036;stroke-width:1.5;" width="249" x="7" y="330"/><ellipse cx="112.75" cy="346" fill="#ADD1B2" rx="11" ry="11" style="stroke:#A80036;stroke-width:1.0;"/><path d="M115.0938,341.6719 C114.1563,341.2344 113.5625,341.0938 112.6875,341.0938 C110.0625,341.0938 108.0625,343.1719 108.0625,345.8906 L108.0625,347.0156 C108.0625,349.5938 110.1719,351.4844 113.0625,351.4844 C114.2813,351.4844 115.4375,351.1875 116.1875,350.6406 C116.7656,350.2344 117.0938,349.7813 117.0938,349.3906 C117.0938,348.9375 116.7031,348.5469 116.2344,348.5469 C116.0156,348.5469 115.8125,348.625 115.625,348.8125 C115.1719,349.2969 115.1719,349.2969 114.9844,349.3906 C114.5625,349.6563 113.875,349.7813 113.1094,349.7813 C111.0625,349.7813 109.7656,348.6875 109.7656,346.9844 L109.7656,345.8906 C109.7656,344.1094 111.0156,342.7969 112.75,342.7969 C113.3281,342.7969 113.9375,342.9531 114.4063,343.2031 C114.8906,343.4844 115.0625,343.7031 115.1563,344.1094 C115.2188,344.5156 115.25,344.6406 115.3906,344.7656 C115.5313,344.9063 115.7656,345.0156 115.9844,345.0156 C116.25,345.0156 116.5156,344.875 116.6875,344.6563 C116.7969,344.5 116.8281,344.3125 116.8281,343.8906 L116.8281,342.4688 C116.8281,342.0313 116.8125,341.9063 116.7188,341.75 C116.5625,341.4844 116.2813,341.3438 115.9844,341.3438 C115.6875,341.3438 115.4844,341.4375 115.2656,341.75 L115.0938,341.6719 Z " fill="#000000"/><text fill="#000000" font-family="sans-serif" font-size="12" lengthAdjust="spacing" textLength="29" x="133.25" y="350.1543">User</text><line style="stroke:#A80036;stroke-width:1.5;" x1="8" x2="255" y1="362" y2="362"/><text fill="#000000" font-family="sans-serif" font-size="11" lengthAdjust="spacing" textLength="53" x="13" y="376.2104">-Int nif PK</text><text fill="#000000" font-family="sans-serif" font-size="11" lengthAdjust="spacing" textLength="127" x="13" y="389.0151">-String companyName</text><text fill="#000000" font-family="sans-serif" font-size="11" lengthAdjust="spacing" textLength="73" x="13" y="401.8198">-String email</text><text fill="#000000" font-family="sans-serif" font-size="11" lengthAdjust="spacing" textLength="94" x="13" y="414.6245">-String password</text><line style="stroke:#A80036;stroke-width:1.5;" x1="8" x2="255" y1="421.2188" y2="421.2188"/><text fill="#000000" font-family="sans-serif" font-size="11" lengthAdjust="spacing" textLength="237" x="13" y="435.4292">+User(nif,companyName,email,password)</text><!--MD5=[6754354365917abf8f1a56af1b7e344c]
class Context--><rect codeLine="19" fill="#FEFECE" filter="url(#fiz09xhsifv9a)" height="86.4141" id="Context" style="stroke:#A80036;stroke-width:1.5;" width="174" x="135.5" y="167"/><ellipse cx="195.25" cy="183" fill="#ADD1B2" rx="11" ry="11" style="stroke:#A80036;stroke-width:1.0;"/><path d="M197.5938,178.6719 C196.6563,178.2344 196.0625,178.0938 195.1875,178.0938 C192.5625,178.0938 190.5625,180.1719 190.5625,182.8906 L190.5625,184.0156 C190.5625,186.5938 192.6719,188.4844 195.5625,188.4844 C196.7813,188.4844 197.9375,188.1875 198.6875,187.6406 C199.2656,187.2344 199.5938,186.7813 199.5938,186.3906 C199.5938,185.9375 199.2031,185.5469 198.7344,185.5469 C198.5156,185.5469 198.3125,185.625 198.125,185.8125 C197.6719,186.2969 197.6719,186.2969 197.4844,186.3906 C197.0625,186.6563 196.375,186.7813 195.6094,186.7813 C193.5625,186.7813 192.2656,185.6875 192.2656,183.9844 L192.2656,182.8906 C192.2656,181.1094 193.5156,179.7969 195.25,179.7969 C195.8281,179.7969 196.4375,179.9531 196.9063,180.2031 C197.3906,180.4844 197.5625,180.7031 197.6563,181.1094 C197.7188,181.5156 197.75,181.6406 197.8906,181.7656 C198.0313,181.9063 198.2656,182.0156 198.4844,182.0156 C198.75,182.0156 199.0156,181.875 199.1875,181.6563 C199.2969,181.5 199.3281,181.3125 199.3281,180.8906 L199.3281,179.4688 C199.3281,179.0313 199.3125,178.9063 199.2188,178.75 C199.0625,178.4844 198.7813,178.3438 198.4844,178.3438 C198.1875,178.3438 197.9844,178.4375 197.7656,178.75 L197.5938,178.6719 Z " fill="#000000"/><text fill="#000000" font-family="sans-serif" font-size="12" lengthAdjust="spacing" textLength="46" x="215.75" y="187.1543">Context</text><line style="stroke:#A80036;stroke-width:1.5;" x1="136.5" x2="308.5" y1="199" y2="199"/><text fill="#000000" font-family="sans-serif" font-size="11" lengthAdjust="spacing" textLength="120" x="141.5" y="213.2104">-DbSet&lt;User&gt; Users</text><text fill="#000000" font-family="sans-serif" font-size="11" lengthAdjust="spacing" textLength="162" x="141.5" y="226.0151">-DbSet&lt;Reserva&gt; Reservas</text><text fill="#000000" font-family="sans-serif" font-size="11" lengthAdjust="spacing" textLength="138" x="141.5" y="238.8198">-DbSet&lt;Lugar&gt; Lugares</text><line style="stroke:#A80036;stroke-width:1.5;" x1="136.5" x2="308.5" y1="245.4141" y2="245.4141"/><!--MD5=[88f66da615ead437be96f70edff3214c]
class UserToken--><rect codeLine="25" fill="#FEFECE" filter="url(#fiz09xhsifv9a)" height="73.6094" id="UserToken" style="stroke:#A80036;stroke-width:1.5;" width="134" x="344.5" y="173"/><ellipse cx="375.7" cy="189" fill="#ADD1B2" rx="11" ry="11" style="stroke:#A80036;stroke-width:1.0;"/><path d="M378.0438,184.6719 C377.1063,184.2344 376.5125,184.0938 375.6375,184.0938 C373.0125,184.0938 371.0125,186.1719 371.0125,188.8906 L371.0125,190.0156 C371.0125,192.5938 373.1219,194.4844 376.0125,194.4844 C377.2313,194.4844 378.3875,194.1875 379.1375,193.6406 C379.7156,193.2344 380.0438,192.7813 380.0438,192.3906 C380.0438,191.9375 379.6531,191.5469 379.1844,191.5469 C378.9656,191.5469 378.7625,191.625 378.575,191.8125 C378.1219,192.2969 378.1219,192.2969 377.9344,192.3906 C377.5125,192.6563 376.825,192.7813 376.0594,192.7813 C374.0125,192.7813 372.7156,191.6875 372.7156,189.9844 L372.7156,188.8906 C372.7156,187.1094 373.9656,185.7969 375.7,185.7969 C376.2781,185.7969 376.8875,185.9531 377.3563,186.2031 C377.8406,186.4844 378.0125,186.7031 378.1063,187.1094 C378.1688,187.5156 378.2,187.6406 378.3406,187.7656 C378.4813,187.9063 378.7156,188.0156 378.9344,188.0156 C379.2,188.0156 379.4656,187.875 379.6375,187.6563 C379.7469,187.5 379.7781,187.3125 379.7781,186.8906 L379.7781,185.4688 C379.7781,185.0313 379.7625,184.9063 379.6688,184.75 C379.5125,184.4844 379.2313,184.3438 378.9344,184.3438 C378.6375,184.3438 378.4344,184.4375 378.2156,184.75 L378.0438,184.6719 Z " fill="#000000"/><text fill="#000000" font-family="sans-serif" font-size="12" lengthAdjust="spacing" textLength="66" x="393.3" y="193.1543">UserToken</text><line style="stroke:#A80036;stroke-width:1.5;" x1="345.5" x2="477.5" y1="205" y2="205"/><text fill="#000000" font-family="sans-serif" font-size="11" lengthAdjust="spacing" textLength="73" x="350.5" y="219.2104">-String token</text><text fill="#000000" font-family="sans-serif" font-size="11" lengthAdjust="spacing" textLength="122" x="350.5" y="232.0151">-DateTime expiration</text><line style="stroke:#A80036;stroke-width:1.5;" x1="345.5" x2="477.5" y1="238.6094" y2="238.6094"/><!--MD5=[fb310e120a121586f86382bf218eb1e8]
link UsersController to User--><path codeLine="30" d="M160.391,106.23 C143.167,123.385 126.685,144.151 117.5,167 C97.2741,217.316 104.0103,279.435 113.899,324.475 " fill="none" id="UsersController-to-User" style="stroke:#A80036;stroke-width:1.0;stroke-dasharray:7.0,7.0;"/><polygon fill="#A80036" points="115.055,329.605,116.9768,319.9455,113.9549,324.7275,109.1729,321.7056,115.055,329.605" style="stroke:#A80036;stroke-width:1.0;"/><!--MD5=[51642da9ca127b2a00ba49d5d374490d]
link UsersController to Context--><path codeLine="31" d="M222.5,106.269 C222.5,123.986 222.5,143.967 222.5,161.566 " fill="none" id="UsersController-to-Context" style="stroke:#A80036;stroke-width:1.0;stroke-dasharray:7.0,7.0;"/><polygon fill="#A80036" points="222.5,166.947,226.5,157.947,222.5,161.947,218.5,157.947,222.5,166.947" style="stroke:#A80036;stroke-width:1.0;"/><!--MD5=[5dd57688f83bae63d9fb123d003e143e]
link UsersController to UserToken--><path codeLine="32" d="M283.081,106.061 C308.7,126.596 338.153,150.206 362.385,169.63 " fill="none" id="UsersController-to-UserToken" style="stroke:#A80036;stroke-width:1.0;stroke-dasharray:7.0,7.0;"/><polygon fill="#A80036" points="366.537,172.958,362.0162,164.208,362.6356,169.8309,357.0127,170.4503,366.537,172.958" style="stroke:#A80036;stroke-width:1.0;"/><!--MD5=[9ffd9ab4100d6389137b12948d44f5a7]
link Context to User--><path codeLine="34" d="M200.471,253.121 C189.179,274.713 175.23,301.385 162.837,325.08 " fill="none" id="Context-to-User" style="stroke:#A80036;stroke-width:1.0;"/><polygon fill="#A80036" points="160.381,329.777,168.096,323.655,162.6978,325.3462,161.0066,319.948,160.381,329.777" style="stroke:#A80036;stroke-width:1.0;"/><text fill="#000000" font-family="sans-serif" font-size="13" lengthAdjust="spacing" textLength="26" x="183.5" y="296.0669">tem</text><text fill="#000000" font-family="sans-serif" font-size="13" lengthAdjust="spacing" textLength="8" x="188.1599" y="273.5487">1</text><text fill="#000000" font-family="sans-serif" font-size="13" lengthAdjust="spacing" textLength="23" x="139.4993" y="319.0843">0..*</text><!--MD5=[588cfdd657bec8d3e55abb96dc62522a]
@startuml
skinparam classAttributeIconSize 0

class UsersController {
  +Post Login()
  +Post Register()
  +Delete DeleteUser(nif)
  +UserToken BuildToken(user)
}

class User {
  -Int nif PK
  -String companyName
  -String email
  -String password

  +User(nif,companyName,email,password)
}

class Context {
  -DbSet<User> Users
  -DbSet<Reserva> Reservas
  -DbSet<Lugar> Lugares
}

class UserToken{
  -String token
  -DateTime expiration
}

UsersController ..> User
UsersController ..> Context
UsersController ..> UserToken

Context "1" - -> "0..*" User: tem
@enduml

PlantUML version 1.2021.01beta3(Unknown compile time)
(GPL source distribution)
Java Runtime: Java(TM) SE Runtime Environment
JVM: Java HotSpot(TM) 64-Bit Server VM
Default Encoding: UTF-8
Language: en
Country: US
--></g></svg>