<?xml version="1.0" encoding="UTF-8" standalone="no"?><svg xmlns="http://www.w3.org/2000/svg" xmlns:xlink="http://www.w3.org/1999/xlink" contentScriptType="application/ecmascript" contentStyleType="text/css" height="324px" preserveAspectRatio="none" style="width:373px;height:324px;" version="1.1" viewBox="0 0 373 324" width="373px" zoomAndPan="magnify"><defs><filter height="300%" id="f4run0yaf0gvf" width="300%" x="-1" y="-1"><feGaussianBlur result="blurOut" stdDeviation="2.0"/><feColorMatrix in="blurOut" result="blurOut2" type="matrix" values="0 0 0 0 0 0 0 0 0 0 0 0 0 0 0 0 0 0 .4 0"/><feOffset dx="4.0" dy="4.0" in="blurOut2" result="blurOut3"/><feBlend in="SourceGraphic" in2="blurOut3" mode="normal"/></filter></defs><g><rect fill="#FFFFFF" filter="url(#f4run0yaf0gvf)" height="123.6641" style="stroke:#A80036;stroke-width:1.0;" width="10" x="82.5" y="98.2969"/><rect fill="#FFFFFF" filter="url(#f4run0yaf0gvf)" height="44.2656" style="stroke:#A80036;stroke-width:1.0;" width="10" x="308.5" y="119.4297"/><rect fill="#FFFFFF" filter="url(#f4run0yaf0gvf)" height="29.1328" style="stroke:#A80036;stroke-width:1.0;" width="10" x="308.5" y="192.8281"/><line style="stroke:#A80036;stroke-width:1.0;stroke-dasharray:5.0,5.0;" x1="87" x2="87" y1="88.2969" y2="239.9609"/><line style="stroke:#A80036;stroke-width:1.0;stroke-dasharray:5.0,5.0;" x1="313.5" x2="313.5" y1="88.2969" y2="239.9609"/><text fill="#000000" font-family="sans-serif" font-size="14" lengthAdjust="spacing" textLength="159" x="5" y="84.9951">Cliente Não Registado</text><ellipse cx="87.5" cy="15" fill="#FEFECE" filter="url(#f4run0yaf0gvf)" rx="8" ry="8" style="stroke:#A80036;stroke-width:2.0;"/><path d="M87.5,23 L87.5,50 M74.5,31 L100.5,31 M87.5,50 L74.5,65 M87.5,50 L100.5,65 " fill="none" filter="url(#f4run0yaf0gvf)" style="stroke:#A80036;stroke-width:2.0;"/><text fill="#000000" font-family="sans-serif" font-size="14" lengthAdjust="spacing" textLength="159" x="5" y="251.9561">Cliente Não Registado</text><ellipse cx="87.5" cy="265.2578" fill="#FEFECE" filter="url(#f4run0yaf0gvf)" rx="8" ry="8" style="stroke:#A80036;stroke-width:2.0;"/><path d="M87.5,273.2578 L87.5,300.2578 M74.5,281.2578 L100.5,281.2578 M87.5,300.2578 L74.5,315.2578 M87.5,300.2578 L100.5,315.2578 " fill="none" filter="url(#f4run0yaf0gvf)" style="stroke:#A80036;stroke-width:2.0;"/><rect fill="#FEFECE" filter="url(#f4run0yaf0gvf)" height="30.2969" style="stroke:#A80036;stroke-width:1.5;" width="96" x="263.5" y="53"/><text fill="#000000" font-family="sans-serif" font-size="14" lengthAdjust="spacing" textLength="82" x="270.5" y="72.9951">:API.Parque</text><rect fill="#FEFECE" filter="url(#f4run0yaf0gvf)" height="30.2969" style="stroke:#A80036;stroke-width:1.5;" width="96" x="263.5" y="238.9609"/><text fill="#000000" font-family="sans-serif" font-size="14" lengthAdjust="spacing" textLength="82" x="270.5" y="258.9561">:API.Parque</text><rect fill="#FFFFFF" filter="url(#f4run0yaf0gvf)" height="123.6641" style="stroke:#A80036;stroke-width:1.0;" width="10" x="82.5" y="98.2969"/><rect fill="#FFFFFF" filter="url(#f4run0yaf0gvf)" height="44.2656" style="stroke:#A80036;stroke-width:1.0;" width="10" x="308.5" y="119.4297"/><rect fill="#FFFFFF" filter="url(#f4run0yaf0gvf)" height="29.1328" style="stroke:#A80036;stroke-width:1.0;" width="10" x="308.5" y="192.8281"/><polygon fill="#A80036" points="296.5,115.4297,306.5,119.4297,296.5,123.4297,300.5,119.4297" style="stroke:#A80036;stroke-width:1.0;"/><line style="stroke:#A80036;stroke-width:1.0;" x1="92.5" x2="302.5" y1="119.4297" y2="119.4297"/><text fill="#000000" font-family="sans-serif" font-size="13" font-weight="bold" lengthAdjust="spacing" textLength="9" x="99.5" y="114.3638">1</text><text fill="#000000" font-family="sans-serif" font-size="13" lengthAdjust="spacing" textLength="105" x="112.5" y="114.3638">regista empresa</text><polygon fill="#A80036" points="103.5,159.6953,93.5,163.6953,103.5,167.6953,99.5,163.6953" style="stroke:#A80036;stroke-width:1.0;"/><line style="stroke:#A80036;stroke-width:1.0;stroke-dasharray:2.0,2.0;" x1="97.5" x2="312.5" y1="163.6953" y2="163.6953"/><text fill="#000000" font-family="sans-serif" font-size="13" font-weight="bold" lengthAdjust="spacing" textLength="9" x="109.5" y="151.063">2</text><text fill="#000000" font-family="sans-serif" font-size="13" lengthAdjust="spacing" textLength="133" x="122.5" y="143.4966">solicita dados cliente</text><text fill="#000000" font-family="sans-serif" font-size="13" lengthAdjust="spacing" textLength="117" x="122.5" y="158.6294">(nome, NIF, email)</text><polygon fill="#A80036" points="296.5,188.8281,306.5,192.8281,296.5,196.8281,300.5,192.8281" style="stroke:#A80036;stroke-width:1.0;"/><line style="stroke:#A80036;stroke-width:1.0;" x1="92.5" x2="302.5" y1="192.8281" y2="192.8281"/><text fill="#000000" font-family="sans-serif" font-size="13" font-weight="bold" lengthAdjust="spacing" textLength="8" x="99.5" y="187.7622">3</text><text fill="#000000" font-family="sans-serif" font-size="13" lengthAdjust="spacing" textLength="185" x="111.5" y="187.7622">introduz os dados solicitados</text><polygon fill="#A80036" points="98.5,217.9609,88.5,221.9609,98.5,225.9609,94.5,221.9609" style="stroke:#A80036;stroke-width:1.0;"/><line style="stroke:#A80036;stroke-width:1.0;stroke-dasharray:2.0,2.0;" x1="92.5" x2="312.5" y1="221.9609" y2="221.9609"/><text fill="#000000" font-family="sans-serif" font-size="13" font-weight="bold" lengthAdjust="spacing" textLength="9" x="104.5" y="216.895">4</text><text fill="#000000" font-family="sans-serif" font-size="13" lengthAdjust="spacing" textLength="154" x="117.5" y="216.895">operação bem sucedida</text><!--MD5=[6237da4f6c86d7f8c4a5663d593df95f]
@startuml
autonumber
actor "Cliente Não Registado" as UserNR
participant ":API.Parque" as API

activate UserNR
UserNR -> "API" : regista empresa
activate "API"
"API" - -> UserNR : solicita dados cliente \n(nome, NIF, email)
deactivate "API"

UserNR -> "API" : introduz os dados solicitados
activate "API"

"API" - -> UserNR : operação bem sucedida
deactivate "API"

deactivate UserNR
@enduml

PlantUML version 1.2021.01(Tue Feb 02 07:55:08 UTC 2021)
(GPL source distribution)
Java Runtime: Java(TM) SE Runtime Environment
JVM: Java HotSpot(TM) 64-Bit Server VM
Default Encoding: UTF-8
Language: en
Country: US
--></g></svg>