<?xml version="1.0" encoding="UTF-8" standalone="no"?><svg xmlns="http://www.w3.org/2000/svg" xmlns:xlink="http://www.w3.org/1999/xlink" contentScriptType="application/ecmascript" contentStyleType="text/css" height="440px" preserveAspectRatio="none" style="width:944px;height:440px;" version="1.1" viewBox="0 0 944 440" width="944px" zoomAndPan="magnify"><defs><filter height="300%" id="fvaxz1296gu4" width="300%" x="-1" y="-1"><feGaussianBlur result="blurOut" stdDeviation="2.0"/><feColorMatrix in="blurOut" result="blurOut2" type="matrix" values="0 0 0 0 0 0 0 0 0 0 0 0 0 0 0 0 0 0 .4 0"/><feOffset dx="4.0" dy="4.0" in="blurOut2" result="blurOut3"/><feBlend in="SourceGraphic" in2="blurOut3" mode="normal"/></filter></defs><g><rect fill="#FFFFFF" filter="url(#fvaxz1296gu4)" height="240.1953" style="stroke:#A80036;stroke-width:1.0;" width="10" x="37" y="98.2969"/><rect fill="#FFFFFF" filter="url(#fvaxz1296gu4)" height="219.0625" style="stroke:#A80036;stroke-width:1.0;" width="10" x="238" y="119.4297"/><rect fill="#FFFFFF" filter="url(#fvaxz1296gu4)" height="145.6641" style="stroke:#A80036;stroke-width:1.0;" width="10" x="437" y="148.5625"/><rect fill="#FFFFFF" filter="url(#fvaxz1296gu4)" height="87.3984" style="stroke:#A80036;stroke-width:1.0;" width="10" x="674" y="177.6953"/><rect fill="#FFFFFF" filter="url(#fvaxz1296gu4)" height="29.1328" style="stroke:#A80036;stroke-width:1.0;" width="10" x="851" y="206.8281"/><line style="stroke:#A80036;stroke-width:1.0;stroke-dasharray:5.0,5.0;" x1="42" x2="42" y1="88.2969" y2="356.4922"/><line style="stroke:#A80036;stroke-width:1.0;stroke-dasharray:5.0,5.0;" x1="242.5" x2="242.5" y1="88.2969" y2="356.4922"/><line style="stroke:#A80036;stroke-width:1.0;stroke-dasharray:5.0,5.0;" x1="442" x2="442" y1="88.2969" y2="356.4922"/><line style="stroke:#A80036;stroke-width:1.0;stroke-dasharray:5.0,5.0;" x1="679" x2="679" y1="88.2969" y2="356.4922"/><line style="stroke:#A80036;stroke-width:1.0;stroke-dasharray:5.0,5.0;" x1="855.5" x2="855.5" y1="88.2969" y2="356.4922"/><text fill="#000000" font-family="sans-serif" font-size="14" lengthAdjust="spacing" textLength="68" x="5" y="84.9951">Utilizador</text><ellipse cx="42" cy="15" fill="#FEFECE" filter="url(#fvaxz1296gu4)" rx="8" ry="8" style="stroke:#A80036;stroke-width:2.0;"/><path d="M42,23 L42,50 M29,31 L55,31 M42,50 L29,65 M42,50 L55,65 " fill="none" filter="url(#fvaxz1296gu4)" style="stroke:#A80036;stroke-width:2.0;"/><text fill="#000000" font-family="sans-serif" font-size="14" lengthAdjust="spacing" textLength="68" x="5" y="368.4873">Utilizador</text><ellipse cx="42" cy="381.7891" fill="#FEFECE" filter="url(#fvaxz1296gu4)" rx="8" ry="8" style="stroke:#A80036;stroke-width:2.0;"/><path d="M42,389.7891 L42,416.7891 M29,397.7891 L55,397.7891 M42,416.7891 L29,431.7891 M42,416.7891 L55,431.7891 " fill="none" filter="url(#fvaxz1296gu4)" style="stroke:#A80036;stroke-width:2.0;"/><rect fill="#FEFECE" filter="url(#fvaxz1296gu4)" height="30.2969" style="stroke:#A80036;stroke-width:1.5;" width="143" x="169.5" y="53"/><text fill="#000000" font-family="sans-serif" font-size="14" lengthAdjust="spacing" textLength="129" x="176.5" y="72.9951">:app/ReservaView</text><rect fill="#FEFECE" filter="url(#fvaxz1296gu4)" height="30.2969" style="stroke:#A80036;stroke-width:1.5;" width="143" x="169.5" y="355.4922"/><text fill="#000000" font-family="sans-serif" font-size="14" lengthAdjust="spacing" textLength="129" x="176.5" y="375.4873">:app/ReservaView</text><rect fill="#FEFECE" filter="url(#fvaxz1296gu4)" height="30.2969" style="stroke:#A80036;stroke-width:1.5;" width="182" x="349" y="53"/><text fill="#000000" font-family="sans-serif" font-size="14" lengthAdjust="spacing" textLength="168" x="356" y="72.9951">:app/ReservaController</text><rect fill="#FEFECE" filter="url(#fvaxz1296gu4)" height="30.2969" style="stroke:#A80036;stroke-width:1.5;" width="182" x="349" y="355.4922"/><text fill="#000000" font-family="sans-serif" font-size="14" lengthAdjust="spacing" textLength="168" x="356" y="375.4873">:app/ReservaController</text><rect fill="#FEFECE" filter="url(#fvaxz1296gu4)" height="30.2969" style="stroke:#A80036;stroke-width:1.5;" width="162" x="596" y="53"/><text fill="#000000" font-family="sans-serif" font-size="14" lengthAdjust="spacing" textLength="148" x="603" y="72.9951">:app/ReservaService</text><rect fill="#FEFECE" filter="url(#fvaxz1296gu4)" height="30.2969" style="stroke:#A80036;stroke-width:1.5;" width="162" x="596" y="355.4922"/><text fill="#000000" font-family="sans-serif" font-size="14" lengthAdjust="spacing" textLength="148" x="603" y="375.4873">:app/ReservaService</text><rect fill="#FEFECE" filter="url(#fvaxz1296gu4)" height="30.2969" style="stroke:#A80036;stroke-width:1.5;" width="153" x="777.5" y="53"/><text fill="#000000" font-family="sans-serif" font-size="14" lengthAdjust="spacing" textLength="139" x="784.5" y="72.9951">API.SistemaCentral</text><rect fill="#FEFECE" filter="url(#fvaxz1296gu4)" height="30.2969" style="stroke:#A80036;stroke-width:1.5;" width="153" x="777.5" y="355.4922"/><text fill="#000000" font-family="sans-serif" font-size="14" lengthAdjust="spacing" textLength="139" x="784.5" y="375.4873">API.SistemaCentral</text><rect fill="#FFFFFF" filter="url(#fvaxz1296gu4)" height="240.1953" style="stroke:#A80036;stroke-width:1.0;" width="10" x="37" y="98.2969"/><rect fill="#FFFFFF" filter="url(#fvaxz1296gu4)" height="219.0625" style="stroke:#A80036;stroke-width:1.0;" width="10" x="238" y="119.4297"/><rect fill="#FFFFFF" filter="url(#fvaxz1296gu4)" height="145.6641" style="stroke:#A80036;stroke-width:1.0;" width="10" x="437" y="148.5625"/><rect fill="#FFFFFF" filter="url(#fvaxz1296gu4)" height="87.3984" style="stroke:#A80036;stroke-width:1.0;" width="10" x="674" y="177.6953"/><rect fill="#FFFFFF" filter="url(#fvaxz1296gu4)" height="29.1328" style="stroke:#A80036;stroke-width:1.0;" width="10" x="851" y="206.8281"/><polygon fill="#A80036" points="226,115.4297,236,119.4297,226,123.4297,230,119.4297" style="stroke:#A80036;stroke-width:1.0;"/><line style="stroke:#A80036;stroke-width:1.0;stroke-dasharray:2.0,2.0;" x1="47" x2="232" y1="119.4297" y2="119.4297"/><text fill="#000000" font-family="sans-serif" font-size="13" font-weight="bold" lengthAdjust="spacing" textLength="9" x="54" y="114.3638">1</text><text fill="#000000" font-family="sans-serif" font-size="13" lengthAdjust="spacing" textLength="102" x="67" y="114.3638">Inicia a consulta</text><polygon fill="#A80036" points="425,144.5625,435,148.5625,425,152.5625,429,148.5625" style="stroke:#A80036;stroke-width:1.0;"/><line style="stroke:#A80036;stroke-width:1.0;stroke-dasharray:2.0,2.0;" x1="248" x2="431" y1="148.5625" y2="148.5625"/><text fill="#000000" font-family="sans-serif" font-size="13" font-weight="bold" lengthAdjust="spacing" textLength="9" x="255" y="143.4966">2</text><text fill="#000000" font-family="sans-serif" font-size="13" lengthAdjust="spacing" textLength="157" x="268" y="143.4966">GetAllReservasByNif(nif)</text><polygon fill="#A80036" points="662,173.6953,672,177.6953,662,181.6953,666,177.6953" style="stroke:#A80036;stroke-width:1.0;"/><line style="stroke:#A80036;stroke-width:1.0;stroke-dasharray:2.0,2.0;" x1="447" x2="668" y1="177.6953" y2="177.6953"/><text fill="#000000" font-family="sans-serif" font-size="13" font-weight="bold" lengthAdjust="spacing" textLength="8" x="454" y="172.6294">3</text><text fill="#000000" font-family="sans-serif" font-size="13" lengthAdjust="spacing" textLength="196" x="466" y="172.6294">GetAllReservasByNifAsync(nif)</text><polygon fill="#A80036" points="839,202.8281,849,206.8281,839,210.8281,843,206.8281" style="stroke:#A80036;stroke-width:1.0;"/><line style="stroke:#A80036;stroke-width:1.0;stroke-dasharray:2.0,2.0;" x1="684" x2="845" y1="206.8281" y2="206.8281"/><text fill="#000000" font-family="sans-serif" font-size="13" font-weight="bold" lengthAdjust="spacing" textLength="9" x="691" y="201.7622">4</text><text fill="#000000" font-family="sans-serif" font-size="13" lengthAdjust="spacing" textLength="135" x="704" y="201.7622">GetReservaByNif(nif)</text><polygon fill="#A80036" points="695,231.9609,685,235.9609,695,239.9609,691,235.9609" style="stroke:#A80036;stroke-width:1.0;"/><line style="stroke:#A80036;stroke-width:1.0;stroke-dasharray:2.0,2.0;" x1="689" x2="855" y1="235.9609" y2="235.9609"/><text fill="#000000" font-family="sans-serif" font-size="13" font-weight="bold" lengthAdjust="spacing" textLength="9" x="701" y="230.895">5</text><text fill="#000000" font-family="sans-serif" font-size="13" lengthAdjust="spacing" textLength="129" x="714" y="230.895">return listaReservas</text><polygon fill="#A80036" points="458,261.0938,448,265.0938,458,269.0938,454,265.0938" style="stroke:#A80036;stroke-width:1.0;"/><line style="stroke:#A80036;stroke-width:1.0;stroke-dasharray:2.0,2.0;" x1="452" x2="678" y1="265.0938" y2="265.0938"/><text fill="#000000" font-family="sans-serif" font-size="13" font-weight="bold" lengthAdjust="spacing" textLength="9" x="464" y="260.0278">6</text><text fill="#000000" font-family="sans-serif" font-size="13" lengthAdjust="spacing" textLength="129" x="477" y="260.0278">return listaReservas</text><polygon fill="#A80036" points="259,290.2266,249,294.2266,259,298.2266,255,294.2266" style="stroke:#A80036;stroke-width:1.0;"/><line style="stroke:#A80036;stroke-width:1.0;stroke-dasharray:2.0,2.0;" x1="253" x2="441" y1="294.2266" y2="294.2266"/><text fill="#000000" font-family="sans-serif" font-size="13" font-weight="bold" lengthAdjust="spacing" textLength="9" x="265" y="289.1606">7</text><text fill="#000000" font-family="sans-serif" font-size="13" lengthAdjust="spacing" textLength="129" x="278" y="289.1606">return listaReservas</text><polygon fill="#A80036" points="53,334.4922,43,338.4922,53,342.4922,49,338.4922" style="stroke:#A80036;stroke-width:1.0;"/><line style="stroke:#A80036;stroke-width:1.0;stroke-dasharray:2.0,2.0;" x1="47" x2="242" y1="338.4922" y2="338.4922"/><text fill="#000000" font-family="sans-serif" font-size="13" font-weight="bold" lengthAdjust="spacing" textLength="9" x="59" y="325.8599">8</text><text fill="#000000" font-family="sans-serif" font-size="13" lengthAdjust="spacing" textLength="129" x="72" y="318.2935">return listaReservas</text><text fill="#000000" font-family="sans-serif" font-size="13" lengthAdjust="spacing" textLength="154" x="72" y="333.4263">operacao bem sucedida</text><!--MD5=[8be932616035aebe35438219c9f6b6bb]
@startuml
autonumber
actor "Utilizador" as U
participant ":app/ReservaView" as RV
participant ":app/ReservaController" as RC
participant ":app/ReservaService" as RS
participant "API.SistemaCentral" as API

activate U

U - -> RV: Inicia a consulta
activate RV

RV - -> RC: GetAllReservasByNif(nif)
activate RC

RC - -> RS: GetAllReservasByNifAsync(nif)
activate RS

RS - -> API: GetReservaByNif(nif)
activate API

API - -> RS:return listaReservas
deactivate API

RS - -> RC: return listaReservas
deactivate RS

RC - -> RV: return listaReservas
deactivate RC

RV - -> U: return listaReservas\noperacao bem sucedida
deactivate RV

deactivate U
@enduml

PlantUML version 1.2021.2beta9(Unknown compile time)
(GPL source distribution)
Java Runtime: Java(TM) SE Runtime Environment
JVM: Java HotSpot(TM) 64-Bit Server VM
Default Encoding: UTF-8
Language: en
Country: US
--></g></svg>