<?xml version="1.0" encoding="UTF-8" standalone="no"?><svg xmlns="http://www.w3.org/2000/svg" xmlns:xlink="http://www.w3.org/1999/xlink" contentScriptType="application/ecmascript" contentStyleType="text/css" height="396px" preserveAspectRatio="none" style="width:1057px;height:396px;" version="1.1" viewBox="0 0 1057 396" width="1057px" zoomAndPan="magnify"><defs><filter height="300%" id="f6y40lakk04y7" width="300%" x="-1" y="-1"><feGaussianBlur result="blurOut" stdDeviation="2.0"/><feColorMatrix in="blurOut" result="blurOut2" type="matrix" values="0 0 0 0 0 0 0 0 0 0 0 0 0 0 0 0 0 0 .4 0"/><feOffset dx="4.0" dy="4.0" in="blurOut2" result="blurOut3"/><feBlend in="SourceGraphic" in2="blurOut3" mode="normal"/></filter></defs><g><rect fill="#FFFFFF" filter="url(#f6y40lakk04y7)" height="195.9297" style="stroke:#A80036;stroke-width:1.0;" width="10" x="37" y="98.2969"/><rect fill="#FFFFFF" filter="url(#f6y40lakk04y7)" height="29.1328" style="stroke:#A80036;stroke-width:1.0;" width="10" x="238" y="265.0938"/><rect fill="#FFFFFF" filter="url(#f6y40lakk04y7)" height="145.6641" style="stroke:#A80036;stroke-width:1.0;" width="10" x="449.5" y="119.4297"/><rect fill="#FFFFFF" filter="url(#f6y40lakk04y7)" height="87.3984" style="stroke:#A80036;stroke-width:1.0;" width="10" x="706.5" y="148.5625"/><rect fill="#FFFFFF" filter="url(#f6y40lakk04y7)" height="29.1328" style="stroke:#A80036;stroke-width:1.0;" width="10" x="963.5" y="177.6953"/><line style="stroke:#A80036;stroke-width:1.0;stroke-dasharray:5.0,5.0;" x1="42" x2="42" y1="88.2969" y2="312.2266"/><line style="stroke:#A80036;stroke-width:1.0;stroke-dasharray:5.0,5.0;" x1="243" x2="243" y1="88.2969" y2="312.2266"/><line style="stroke:#A80036;stroke-width:1.0;stroke-dasharray:5.0,5.0;" x1="454" x2="454" y1="88.2969" y2="312.2266"/><line style="stroke:#A80036;stroke-width:1.0;stroke-dasharray:5.0,5.0;" x1="711.5" x2="711.5" y1="88.2969" y2="312.2266"/><line style="stroke:#A80036;stroke-width:1.0;stroke-dasharray:5.0,5.0;" x1="968" x2="968" y1="88.2969" y2="312.2266"/><text fill="#000000" font-family="sans-serif" font-size="14" lengthAdjust="spacing" textLength="68" x="5" y="84.9951">Utilizador</text><ellipse cx="42" cy="15" fill="#FEFECE" filter="url(#f6y40lakk04y7)" rx="8" ry="8" style="stroke:#A80036;stroke-width:2.0;"/><path d="M42,23 L42,50 M29,31 L55,31 M42,50 L29,65 M42,50 L55,65 " fill="none" filter="url(#f6y40lakk04y7)" style="stroke:#A80036;stroke-width:2.0;"/><text fill="#000000" font-family="sans-serif" font-size="14" lengthAdjust="spacing" textLength="68" x="5" y="324.2217">Utilizador</text><ellipse cx="42" cy="337.5234" fill="#FEFECE" filter="url(#f6y40lakk04y7)" rx="8" ry="8" style="stroke:#A80036;stroke-width:2.0;"/><path d="M42,345.5234 L42,372.5234 M29,353.5234 L55,353.5234 M42,372.5234 L29,387.5234 M42,372.5234 L55,387.5234 " fill="none" filter="url(#f6y40lakk04y7)" style="stroke:#A80036;stroke-width:2.0;"/><rect fill="#FEFECE" filter="url(#f6y40lakk04y7)" height="30.2969" style="stroke:#A80036;stroke-width:1.5;" width="206" x="138" y="53"/><text fill="#000000" font-family="sans-serif" font-size="14" lengthAdjust="spacing" textLength="192" x="145" y="72.9951">:app/Views/Reservas/Index</text><rect fill="#FEFECE" filter="url(#f6y40lakk04y7)" height="30.2969" style="stroke:#A80036;stroke-width:1.5;" width="206" x="138" y="311.2266"/><text fill="#000000" font-family="sans-serif" font-size="14" lengthAdjust="spacing" textLength="192" x="145" y="331.2217">:app/Views/Reservas/Index</text><rect fill="#FEFECE" filter="url(#f6y40lakk04y7)" height="30.2969" style="stroke:#A80036;stroke-width:1.5;" width="189" x="358" y="53"/><text fill="#000000" font-family="sans-serif" font-size="14" lengthAdjust="spacing" textLength="175" x="365" y="72.9951">:app/ReservasController</text><rect fill="#FEFECE" filter="url(#f6y40lakk04y7)" height="30.2969" style="stroke:#A80036;stroke-width:1.5;" width="189" x="358" y="311.2266"/><text fill="#000000" font-family="sans-serif" font-size="14" lengthAdjust="spacing" textLength="175" x="365" y="331.2217">:app/ReservasController</text><rect fill="#FEFECE" filter="url(#f6y40lakk04y7)" height="30.2969" style="stroke:#A80036;stroke-width:1.5;" width="162" x="628.5" y="53"/><text fill="#000000" font-family="sans-serif" font-size="14" lengthAdjust="spacing" textLength="148" x="635.5" y="72.9951">:app/ReservaService</text><rect fill="#FEFECE" filter="url(#f6y40lakk04y7)" height="30.2969" style="stroke:#A80036;stroke-width:1.5;" width="162" x="628.5" y="311.2266"/><text fill="#000000" font-family="sans-serif" font-size="14" lengthAdjust="spacing" textLength="148" x="635.5" y="331.2217">:app/ReservaService</text><rect fill="#FEFECE" filter="url(#f6y40lakk04y7)" height="30.2969" style="stroke:#A80036;stroke-width:1.5;" width="153" x="890" y="53"/><text fill="#000000" font-family="sans-serif" font-size="14" lengthAdjust="spacing" textLength="139" x="897" y="72.9951">API:SistemaCentral</text><rect fill="#FEFECE" filter="url(#f6y40lakk04y7)" height="30.2969" style="stroke:#A80036;stroke-width:1.5;" width="153" x="890" y="311.2266"/><text fill="#000000" font-family="sans-serif" font-size="14" lengthAdjust="spacing" textLength="139" x="897" y="331.2217">API:SistemaCentral</text><rect fill="#FFFFFF" filter="url(#f6y40lakk04y7)" height="195.9297" style="stroke:#A80036;stroke-width:1.0;" width="10" x="37" y="98.2969"/><rect fill="#FFFFFF" filter="url(#f6y40lakk04y7)" height="29.1328" style="stroke:#A80036;stroke-width:1.0;" width="10" x="238" y="265.0938"/><rect fill="#FFFFFF" filter="url(#f6y40lakk04y7)" height="145.6641" style="stroke:#A80036;stroke-width:1.0;" width="10" x="449.5" y="119.4297"/><rect fill="#FFFFFF" filter="url(#f6y40lakk04y7)" height="87.3984" style="stroke:#A80036;stroke-width:1.0;" width="10" x="706.5" y="148.5625"/><rect fill="#FFFFFF" filter="url(#f6y40lakk04y7)" height="29.1328" style="stroke:#A80036;stroke-width:1.0;" width="10" x="963.5" y="177.6953"/><polygon fill="#A80036" points="437.5,115.4297,447.5,119.4297,437.5,123.4297,441.5,119.4297" style="stroke:#A80036;stroke-width:1.0;"/><line style="stroke:#A80036;stroke-width:1.0;stroke-dasharray:2.0,2.0;" x1="47" x2="443.5" y1="119.4297" y2="119.4297"/><text fill="#000000" font-family="sans-serif" font-size="13" font-weight="bold" lengthAdjust="spacing" textLength="9" x="54" y="114.3638">1</text><text fill="#000000" font-family="sans-serif" font-size="13" lengthAdjust="spacing" textLength="102" x="67" y="114.3638">inicia a consulta</text><polygon fill="#A80036" points="694.5,144.5625,704.5,148.5625,694.5,152.5625,698.5,148.5625" style="stroke:#A80036;stroke-width:1.0;"/><line style="stroke:#A80036;stroke-width:1.0;stroke-dasharray:2.0,2.0;" x1="459.5" x2="700.5" y1="148.5625" y2="148.5625"/><text fill="#000000" font-family="sans-serif" font-size="13" font-weight="bold" lengthAdjust="spacing" textLength="9" x="466.5" y="143.4966">2</text><text fill="#000000" font-family="sans-serif" font-size="13" lengthAdjust="spacing" textLength="105" x="479.5" y="143.4966">GetByNifAsync()</text><polygon fill="#A80036" points="951.5,173.6953,961.5,177.6953,951.5,181.6953,955.5,177.6953" style="stroke:#A80036;stroke-width:1.0;"/><line style="stroke:#A80036;stroke-width:1.0;stroke-dasharray:2.0,2.0;" x1="716.5" x2="957.5" y1="177.6953" y2="177.6953"/><text fill="#000000" font-family="sans-serif" font-size="13" font-weight="bold" lengthAdjust="spacing" textLength="8" x="723.5" y="172.6294">3</text><text fill="#000000" font-family="sans-serif" font-size="13" lengthAdjust="spacing" textLength="88" x="735.5" y="172.6294">GetAsync(nif)</text><polygon fill="#A80036" points="727.5,202.8281,717.5,206.8281,727.5,210.8281,723.5,206.8281" style="stroke:#A80036;stroke-width:1.0;"/><line style="stroke:#A80036;stroke-width:1.0;stroke-dasharray:2.0,2.0;" x1="721.5" x2="967.5" y1="206.8281" y2="206.8281"/><text fill="#000000" font-family="sans-serif" font-size="13" font-weight="bold" lengthAdjust="spacing" textLength="9" x="733.5" y="201.7622">4</text><text fill="#000000" font-family="sans-serif" font-size="13" lengthAdjust="spacing" textLength="210" x="746.5" y="201.7622">return(lista DetalheReservaDTO)</text><polygon fill="#A80036" points="470.5,231.9609,460.5,235.9609,470.5,239.9609,466.5,235.9609" style="stroke:#A80036;stroke-width:1.0;"/><line style="stroke:#A80036;stroke-width:1.0;stroke-dasharray:2.0,2.0;" x1="464.5" x2="710.5" y1="235.9609" y2="235.9609"/><text fill="#000000" font-family="sans-serif" font-size="13" font-weight="bold" lengthAdjust="spacing" textLength="9" x="476.5" y="230.895">5</text><text fill="#000000" font-family="sans-serif" font-size="13" lengthAdjust="spacing" textLength="210" x="489.5" y="230.895">return(lista DetalheReservaDTO)</text><polygon fill="#A80036" points="259,261.0938,249,265.0938,259,269.0938,255,265.0938" style="stroke:#A80036;stroke-width:1.0;"/><line style="stroke:#A80036;stroke-width:1.0;stroke-dasharray:2.0,2.0;" x1="253" x2="453.5" y1="265.0938" y2="265.0938"/><text fill="#000000" font-family="sans-serif" font-size="13" font-weight="bold" lengthAdjust="spacing" textLength="9" x="265" y="260.0278">6</text><text fill="#000000" font-family="sans-serif" font-size="13" lengthAdjust="spacing" textLength="110" x="278" y="260.0278">return View(lista)</text><polygon fill="#A80036" points="53,290.2266,43,294.2266,53,298.2266,49,294.2266" style="stroke:#A80036;stroke-width:1.0;"/><line style="stroke:#A80036;stroke-width:1.0;stroke-dasharray:2.0,2.0;" x1="47" x2="242" y1="294.2266" y2="294.2266"/><text fill="#000000" font-family="sans-serif" font-size="13" font-weight="bold" lengthAdjust="spacing" textLength="9" x="59" y="289.1606">7</text><text fill="#000000" font-family="sans-serif" font-size="13" lengthAdjust="spacing" textLength="154" x="72" y="289.1606">operacao bem sucedida</text><!--MD5=[6c4932e4fbb557c354d63a260e372026]
@startuml
autonumber
actor "Utilizador" as U
participant ":app/Views/Reservas/Index" as RV
participant ":app/ReservasController" as RC
participant ":app/ReservaService" as RS
participant "API:SistemaCentral" as API

activate U

U - -> RC: inicia a consulta
activate RC

RC - -> RS: GetByNifAsync()
activate RS

RS - -> API: GetAsync(nif)
activate API

API - -> RS: return(lista DetalheReservaDTO)
deactivate API

RS - -> RC: return(lista DetalheReservaDTO)
deactivate RS

RC - -> RV: return View(lista)
deactivate RC
activate RV

RV - -> U: operacao bem sucedida
deactivate RV

deactivate U
@enduml

PlantUML version 1.2021.2beta9(Unknown compile time)
(GPL source distribution)
Java Runtime: Java(TM) SE Runtime Environment
JVM: Java HotSpot(TM) 64-Bit Server VM
Default Encoding: UTF-8
Language: en
Country: US
--></g></svg>