<?xml version="1.0" encoding="UTF-8" standalone="no"?><svg xmlns="http://www.w3.org/2000/svg" xmlns:xlink="http://www.w3.org/1999/xlink" contentScriptType="application/ecmascript" contentStyleType="text/css" height="324px" preserveAspectRatio="none" style="width:350px;height:324px;" version="1.1" viewBox="0 0 350 324" width="350px" zoomAndPan="magnify"><defs><filter height="300%" id="f1vqu3lnf57tfx" width="300%" x="-1" y="-1"><feGaussianBlur result="blurOut" stdDeviation="2.0"/><feColorMatrix in="blurOut" result="blurOut2" type="matrix" values="0 0 0 0 0 0 0 0 0 0 0 0 0 0 0 0 0 0 .4 0"/><feOffset dx="4.0" dy="4.0" in="blurOut2" result="blurOut3"/><feBlend in="SourceGraphic" in2="blurOut3" mode="normal"/></filter></defs><g><rect fill="#FFFFFF" filter="url(#f1vqu3lnf57tfx)" height="123.6641" style="stroke:#A80036;stroke-width:1.0;" width="10" x="37" y="98.2969"/><rect fill="#FFFFFF" filter="url(#f1vqu3lnf57tfx)" height="44.2656" style="stroke:#A80036;stroke-width:1.0;" width="10" x="284" y="119.4297"/><rect fill="#FFFFFF" filter="url(#f1vqu3lnf57tfx)" height="29.1328" style="stroke:#A80036;stroke-width:1.0;" width="10" x="284" y="192.8281"/><line style="stroke:#A80036;stroke-width:1.0;stroke-dasharray:5.0,5.0;" x1="42" x2="42" y1="88.2969" y2="239.9609"/><line style="stroke:#A80036;stroke-width:1.0;stroke-dasharray:5.0,5.0;" x1="289" x2="289" y1="88.2969" y2="239.9609"/><text fill="#000000" font-family="sans-serif" font-size="14" lengthAdjust="spacing" textLength="68" x="5" y="84.9951">Utilizador</text><ellipse cx="42" cy="15" fill="#FEFECE" filter="url(#f1vqu3lnf57tfx)" rx="8" ry="8" style="stroke:#A80036;stroke-width:2.0;"/><path d="M42,23 L42,50 M29,31 L55,31 M42,50 L29,65 M42,50 L55,65 " fill="none" filter="url(#f1vqu3lnf57tfx)" style="stroke:#A80036;stroke-width:2.0;"/><text fill="#000000" font-family="sans-serif" font-size="14" lengthAdjust="spacing" textLength="68" x="5" y="251.9561">Utilizador</text><ellipse cx="42" cy="265.2578" fill="#FEFECE" filter="url(#f1vqu3lnf57tfx)" rx="8" ry="8" style="stroke:#A80036;stroke-width:2.0;"/><path d="M42,273.2578 L42,300.2578 M29,281.2578 L55,281.2578 M42,300.2578 L29,315.2578 M42,300.2578 L55,315.2578 " fill="none" filter="url(#f1vqu3lnf57tfx)" style="stroke:#A80036;stroke-width:2.0;"/><text fill="#000000" font-family="sans-serif" font-size="14" lengthAdjust="spacing" textLength="114" x="229" y="84.9951">:API.SubAluguer</text><ellipse cx="289" cy="15" fill="#FEFECE" filter="url(#f1vqu3lnf57tfx)" rx="8" ry="8" style="stroke:#A80036;stroke-width:2.0;"/><path d="M289,23 L289,50 M276,31 L302,31 M289,50 L276,65 M289,50 L302,65 " fill="none" filter="url(#f1vqu3lnf57tfx)" style="stroke:#A80036;stroke-width:2.0;"/><text fill="#000000" font-family="sans-serif" font-size="14" lengthAdjust="spacing" textLength="114" x="229" y="251.9561">:API.SubAluguer</text><ellipse cx="289" cy="265.2578" fill="#FEFECE" filter="url(#f1vqu3lnf57tfx)" rx="8" ry="8" style="stroke:#A80036;stroke-width:2.0;"/><path d="M289,273.2578 L289,300.2578 M276,281.2578 L302,281.2578 M289,300.2578 L276,315.2578 M289,300.2578 L302,315.2578 " fill="none" filter="url(#f1vqu3lnf57tfx)" style="stroke:#A80036;stroke-width:2.0;"/><rect fill="#FFFFFF" filter="url(#f1vqu3lnf57tfx)" height="123.6641" style="stroke:#A80036;stroke-width:1.0;" width="10" x="37" y="98.2969"/><rect fill="#FFFFFF" filter="url(#f1vqu3lnf57tfx)" height="44.2656" style="stroke:#A80036;stroke-width:1.0;" width="10" x="284" y="119.4297"/><rect fill="#FFFFFF" filter="url(#f1vqu3lnf57tfx)" height="29.1328" style="stroke:#A80036;stroke-width:1.0;" width="10" x="284" y="192.8281"/><polygon fill="#A80036" points="272,115.4297,282,119.4297,272,123.4297,276,119.4297" style="stroke:#A80036;stroke-width:1.0;"/><line style="stroke:#A80036;stroke-width:1.0;" x1="47" x2="278" y1="119.4297" y2="119.4297"/><text fill="#000000" font-family="sans-serif" font-size="13" font-weight="bold" lengthAdjust="spacing" textLength="9" x="54" y="114.3638">1</text><text fill="#000000" font-family="sans-serif" font-size="13" lengthAdjust="spacing" textLength="179" x="67" y="114.3638">inicia pedido de sub-aluguer</text><polygon fill="#A80036" points="58,159.6953,48,163.6953,58,167.6953,54,163.6953" style="stroke:#A80036;stroke-width:1.0;"/><line style="stroke:#A80036;stroke-width:1.0;stroke-dasharray:2.0,2.0;" x1="52" x2="288" y1="163.6953" y2="163.6953"/><text fill="#000000" font-family="sans-serif" font-size="13" font-weight="bold" lengthAdjust="spacing" textLength="9" x="64" y="151.063">2</text><text fill="#000000" font-family="sans-serif" font-size="13" lengthAdjust="spacing" textLength="196" x="77" y="143.4966">solicita dados lugar pretendido</text><text fill="#000000" font-family="sans-serif" font-size="13" lengthAdjust="spacing" textLength="99" x="77" y="158.6294">(id e data/hora)</text><polygon fill="#A80036" points="272,188.8281,282,192.8281,272,196.8281,276,192.8281" style="stroke:#A80036;stroke-width:1.0;"/><line style="stroke:#A80036;stroke-width:1.0;" x1="47" x2="278" y1="192.8281" y2="192.8281"/><text fill="#000000" font-family="sans-serif" font-size="13" font-weight="bold" lengthAdjust="spacing" textLength="8" x="54" y="187.7622">3</text><text fill="#000000" font-family="sans-serif" font-size="13" lengthAdjust="spacing" textLength="185" x="66" y="187.7622">introduz os dados solicitados</text><polygon fill="#A80036" points="53,217.9609,43,221.9609,53,225.9609,49,221.9609" style="stroke:#A80036;stroke-width:1.0;"/><line style="stroke:#A80036;stroke-width:1.0;stroke-dasharray:2.0,2.0;" x1="47" x2="288" y1="221.9609" y2="221.9609"/><text fill="#000000" font-family="sans-serif" font-size="13" font-weight="bold" lengthAdjust="spacing" textLength="9" x="59" y="216.895">4</text><text fill="#000000" font-family="sans-serif" font-size="13" lengthAdjust="spacing" textLength="154" x="72" y="216.895">operação bem sucedida</text><!--MD5=[06b0c88d9a05469065d7f57df6dfd723]
@startuml
autonumber
actor "Utilizador" as User
actor ":API.SubAluguer" as API

activate User
User -> API : inicia pedido de sub-aluguer
activate API
API - -> User : solicita dados lugar pretendido \n(id e data/hora)
deactivate API

User -> API : introduz os dados solicitados
activate API

API - -> User : operação bem sucedida

deactivate API

deactivate User
@enduml

PlantUML version 1.2021.01(Tue Feb 02 07:55:08 UTC 2021)
(GPL source distribution)
Java Runtime: Java(TM) SE Runtime Environment
JVM: Java HotSpot(TM) 64-Bit Server VM
Default Encoding: UTF-8
Language: en
Country: US
--></g></svg>