<?xml version="1.0" encoding="UTF-8" standalone="no"?><svg xmlns="http://www.w3.org/2000/svg" xmlns:xlink="http://www.w3.org/1999/xlink" contentScriptType="application/ecmascript" contentStyleType="text/css" height="382px" preserveAspectRatio="none" style="width:329px;height:382px;" version="1.1" viewBox="0 0 329 382" width="329px" zoomAndPan="magnify"><defs><filter height="300%" id="f1f857qira5w8k" width="300%" x="-1" y="-1"><feGaussianBlur result="blurOut" stdDeviation="2.0"/><feColorMatrix in="blurOut" result="blurOut2" type="matrix" values="0 0 0 0 0 0 0 0 0 0 0 0 0 0 0 0 0 0 .4 0"/><feOffset dx="4.0" dy="4.0" in="blurOut2" result="blurOut3"/><feBlend in="SourceGraphic" in2="blurOut3" mode="normal"/></filter></defs><g><rect fill="#FFFFFF" filter="url(#f1f857qira5w8k)" height="181.9297" style="stroke:#A80036;stroke-width:1.0;" width="10" x="37" y="98.2969"/><rect fill="#FFFFFF" filter="url(#f1f857qira5w8k)" height="44.2656" style="stroke:#A80036;stroke-width:1.0;" width="10" x="263" y="119.4297"/><rect fill="#FFFFFF" filter="url(#f1f857qira5w8k)" height="29.1328" style="stroke:#A80036;stroke-width:1.0;" width="10" x="263" y="192.8281"/><rect fill="#FFFFFF" filter="url(#f1f857qira5w8k)" height="29.1328" style="stroke:#A80036;stroke-width:1.0;" width="10" x="263" y="251.0938"/><line style="stroke:#A80036;stroke-width:1.0;stroke-dasharray:5.0,5.0;" x1="42" x2="42" y1="88.2969" y2="298.2266"/><line style="stroke:#A80036;stroke-width:1.0;stroke-dasharray:5.0,5.0;" x1="268" x2="268" y1="88.2969" y2="298.2266"/><text fill="#000000" font-family="sans-serif" font-size="14" lengthAdjust="spacing" textLength="68" x="5" y="84.9951">Utilizador</text><ellipse cx="42" cy="15" fill="#FEFECE" filter="url(#f1f857qira5w8k)" rx="8" ry="8" style="stroke:#A80036;stroke-width:2.0;"/><path d="M42,23 L42,50 M29,31 L55,31 M42,50 L29,65 M42,50 L55,65 " fill="none" filter="url(#f1f857qira5w8k)" style="stroke:#A80036;stroke-width:2.0;"/><text fill="#000000" font-family="sans-serif" font-size="14" lengthAdjust="spacing" textLength="68" x="5" y="310.2217">Utilizador</text><ellipse cx="42" cy="323.5234" fill="#FEFECE" filter="url(#f1f857qira5w8k)" rx="8" ry="8" style="stroke:#A80036;stroke-width:2.0;"/><path d="M42,331.5234 L42,358.5234 M29,339.5234 L55,339.5234 M42,358.5234 L29,373.5234 M42,358.5234 L55,373.5234 " fill="none" filter="url(#f1f857qira5w8k)" style="stroke:#A80036;stroke-width:2.0;"/><text fill="#000000" font-family="sans-serif" font-size="14" lengthAdjust="spacing" textLength="114" x="208" y="84.9951">:API.SubAluguer</text><ellipse cx="268" cy="15" fill="#FEFECE" filter="url(#f1f857qira5w8k)" rx="8" ry="8" style="stroke:#A80036;stroke-width:2.0;"/><path d="M268,23 L268,50 M255,31 L281,31 M268,50 L255,65 M268,50 L281,65 " fill="none" filter="url(#f1f857qira5w8k)" style="stroke:#A80036;stroke-width:2.0;"/><text fill="#000000" font-family="sans-serif" font-size="14" lengthAdjust="spacing" textLength="114" x="208" y="310.2217">:API.SubAluguer</text><ellipse cx="268" cy="323.5234" fill="#FEFECE" filter="url(#f1f857qira5w8k)" rx="8" ry="8" style="stroke:#A80036;stroke-width:2.0;"/><path d="M268,331.5234 L268,358.5234 M255,339.5234 L281,339.5234 M268,358.5234 L255,373.5234 M268,358.5234 L281,373.5234 " fill="none" filter="url(#f1f857qira5w8k)" style="stroke:#A80036;stroke-width:2.0;"/><rect fill="#FFFFFF" filter="url(#f1f857qira5w8k)" height="181.9297" style="stroke:#A80036;stroke-width:1.0;" width="10" x="37" y="98.2969"/><rect fill="#FFFFFF" filter="url(#f1f857qira5w8k)" height="44.2656" style="stroke:#A80036;stroke-width:1.0;" width="10" x="263" y="119.4297"/><rect fill="#FFFFFF" filter="url(#f1f857qira5w8k)" height="29.1328" style="stroke:#A80036;stroke-width:1.0;" width="10" x="263" y="192.8281"/><rect fill="#FFFFFF" filter="url(#f1f857qira5w8k)" height="29.1328" style="stroke:#A80036;stroke-width:1.0;" width="10" x="263" y="251.0938"/><polygon fill="#A80036" points="251,115.4297,261,119.4297,251,123.4297,255,119.4297" style="stroke:#A80036;stroke-width:1.0;"/><line style="stroke:#A80036;stroke-width:1.0;" x1="47" x2="257" y1="119.4297" y2="119.4297"/><text fill="#000000" font-family="sans-serif" font-size="13" font-weight="bold" lengthAdjust="spacing" textLength="9" x="54" y="114.3638">1</text><text fill="#000000" font-family="sans-serif" font-size="13" lengthAdjust="spacing" textLength="179" x="67" y="114.3638">inicia pedido de sub-aluguer</text><polygon fill="#A80036" points="58,159.6953,48,163.6953,58,167.6953,54,163.6953" style="stroke:#A80036;stroke-width:1.0;"/><line style="stroke:#A80036;stroke-width:1.0;stroke-dasharray:2.0,2.0;" x1="52" x2="267" y1="163.6953" y2="163.6953"/><text fill="#000000" font-family="sans-serif" font-size="13" font-weight="bold" lengthAdjust="spacing" textLength="9" x="64" y="151.063">2</text><text fill="#000000" font-family="sans-serif" font-size="13" lengthAdjust="spacing" textLength="167" x="77" y="143.4966">solicita dados pretendidos</text><text fill="#000000" font-family="sans-serif" font-size="13" lengthAdjust="spacing" textLength="70" x="77" y="158.6294">(reservaId)</text><polygon fill="#A80036" points="251,188.8281,261,192.8281,251,196.8281,255,192.8281" style="stroke:#A80036;stroke-width:1.0;"/><line style="stroke:#A80036;stroke-width:1.0;" x1="47" x2="257" y1="192.8281" y2="192.8281"/><text fill="#000000" font-family="sans-serif" font-size="13" font-weight="bold" lengthAdjust="spacing" textLength="8" x="54" y="187.7622">3</text><text fill="#000000" font-family="sans-serif" font-size="13" lengthAdjust="spacing" textLength="185" x="66" y="187.7622">introduz os dados solicitados</text><polygon fill="#A80036" points="58,217.9609,48,221.9609,58,225.9609,54,221.9609" style="stroke:#A80036;stroke-width:1.0;"/><line style="stroke:#A80036;stroke-width:1.0;stroke-dasharray:2.0,2.0;" x1="52" x2="267" y1="221.9609" y2="221.9609"/><text fill="#000000" font-family="sans-serif" font-size="13" font-weight="bold" lengthAdjust="spacing" textLength="9" x="64" y="216.895">4</text><text fill="#000000" font-family="sans-serif" font-size="13" lengthAdjust="spacing" textLength="176" x="77" y="216.895">solicita novo preço do lugar</text><polygon fill="#A80036" points="251,247.0938,261,251.0938,251,255.0938,255,251.0938" style="stroke:#A80036;stroke-width:1.0;"/><line style="stroke:#A80036;stroke-width:1.0;" x1="47" x2="257" y1="251.0938" y2="251.0938"/><text fill="#000000" font-family="sans-serif" font-size="13" font-weight="bold" lengthAdjust="spacing" textLength="9" x="54" y="246.0278">5</text><text fill="#000000" font-family="sans-serif" font-size="13" lengthAdjust="spacing" textLength="184" x="67" y="246.0278">introduz novo preço do lugar</text><polygon fill="#A80036" points="53,276.2266,43,280.2266,53,284.2266,49,280.2266" style="stroke:#A80036;stroke-width:1.0;"/><line style="stroke:#A80036;stroke-width:1.0;stroke-dasharray:2.0,2.0;" x1="47" x2="267" y1="280.2266" y2="280.2266"/><text fill="#000000" font-family="sans-serif" font-size="13" font-weight="bold" lengthAdjust="spacing" textLength="9" x="59" y="275.1606">6</text><text fill="#000000" font-family="sans-serif" font-size="13" lengthAdjust="spacing" textLength="154" x="72" y="275.1606">operação bem sucedida</text><!--MD5=[302dbee15d8fd7023693dad520314450]
@startuml
autonumber
actor "Utilizador" as User
actor ":API.SubAluguer" as API

activate User
User -> API : inicia pedido de sub-aluguer
activate API
API - -> User : solicita dados pretendidos \n(reservaId)
deactivate API

User -> API : introduz os dados solicitados
activate API

API - -> User : solicita novo preço do lugar
deactivate API

User -> API : introduz novo preço do lugar
activate API

API - -> User : operação bem sucedida

deactivate API

deactivate User
@enduml

PlantUML version 1.2021.01(Tue Feb 02 07:55:08 UTC 2021)
(GPL source distribution)
Java Runtime: Java(TM) SE Runtime Environment
JVM: Java HotSpot(TM) 64-Bit Server VM
Default Encoding: UTF-8
Language: en
Country: US
--></g></svg>