<?xml version="1.0" encoding="UTF-8" standalone="no"?><svg xmlns="http://www.w3.org/2000/svg" xmlns:xlink="http://www.w3.org/1999/xlink" contentScriptType="application/ecmascript" contentStyleType="text/css" height="292px" preserveAspectRatio="none" style="width:514px;height:292px;" version="1.1" viewBox="0 0 514 292" width="514px" zoomAndPan="magnify"><defs><filter height="300%" id="fk60gcfs7qx98" width="300%" x="-1" y="-1"><feGaussianBlur result="blurOut" stdDeviation="2.0"/><feColorMatrix in="blurOut" result="blurOut2" type="matrix" values="0 0 0 0 0 0 0 0 0 0 0 0 0 0 0 0 0 0 .4 0"/><feOffset dx="4.0" dy="4.0" in="blurOut2" result="blurOut3"/><feBlend in="SourceGraphic" in2="blurOut3" mode="normal"/></filter></defs><g><rect fill="#FFFFFF" filter="url(#fk60gcfs7qx98)" height="85.3984" style="stroke:#A80036;stroke-width:1.0;" width="10" x="75" y="98.2969"/><rect fill="#FFFFFF" filter="url(#fk60gcfs7qx98)" height="29.1328" style="stroke:#A80036;stroke-width:1.0;" width="10" x="447" y="119.4297"/><line style="stroke:#A80036;stroke-width:1.0;stroke-dasharray:5.0,5.0;" x1="80" x2="80" y1="88.2969" y2="208.6953"/><line style="stroke:#A80036;stroke-width:1.0;stroke-dasharray:5.0,5.0;" x1="452" x2="452" y1="88.2969" y2="208.6953"/><text fill="#000000" font-family="sans-serif" font-size="14" lengthAdjust="spacing" textLength="144" x="5" y="84.9951">:API.SistemaCentral</text><ellipse cx="80" cy="15" fill="#FEFECE" filter="url(#fk60gcfs7qx98)" rx="8" ry="8" style="stroke:#A80036;stroke-width:2.0;"/><path d="M80,23 L80,50 M67,31 L93,31 M80,50 L67,65 M80,50 L93,65 " fill="none" filter="url(#fk60gcfs7qx98)" style="stroke:#A80036;stroke-width:2.0;"/><text fill="#000000" font-family="sans-serif" font-size="14" lengthAdjust="spacing" textLength="144" x="5" y="220.6904">:API.SistemaCentral</text><ellipse cx="80" cy="233.9922" fill="#FEFECE" filter="url(#fk60gcfs7qx98)" rx="8" ry="8" style="stroke:#A80036;stroke-width:2.0;"/><path d="M80,241.9922 L80,268.9922 M67,249.9922 L93,249.9922 M80,268.9922 L67,283.9922 M80,268.9922 L93,283.9922 " fill="none" filter="url(#fk60gcfs7qx98)" style="stroke:#A80036;stroke-width:2.0;"/><rect fill="#FEFECE" filter="url(#fk60gcfs7qx98)" height="30.2969" style="stroke:#A80036;stroke-width:1.5;" width="100" x="400" y="53"/><text fill="#000000" font-family="sans-serif" font-size="14" lengthAdjust="spacing" textLength="86" x="407" y="72.9951">API.QRCode</text><rect fill="#FEFECE" filter="url(#fk60gcfs7qx98)" height="30.2969" style="stroke:#A80036;stroke-width:1.5;" width="100" x="400" y="207.6953"/><text fill="#000000" font-family="sans-serif" font-size="14" lengthAdjust="spacing" textLength="86" x="407" y="227.6904">API.QRCode</text><rect fill="#FFFFFF" filter="url(#fk60gcfs7qx98)" height="85.3984" style="stroke:#A80036;stroke-width:1.0;" width="10" x="75" y="98.2969"/><rect fill="#FFFFFF" filter="url(#fk60gcfs7qx98)" height="29.1328" style="stroke:#A80036;stroke-width:1.0;" width="10" x="447" y="119.4297"/><polygon fill="#A80036" points="435,115.4297,445,119.4297,435,123.4297,439,119.4297" style="stroke:#A80036;stroke-width:1.0;"/><line style="stroke:#A80036;stroke-width:1.0;" x1="85" x2="441" y1="119.4297" y2="119.4297"/><text fill="#000000" font-family="sans-serif" font-size="13" font-weight="bold" lengthAdjust="spacing" textLength="9" x="92" y="114.3638">1</text><text fill="#000000" font-family="sans-serif" font-size="13" lengthAdjust="spacing" textLength="330" x="105" y="114.3638">faz um pedido de criação de QR-Code(reservaDTO)</text><polygon fill="#A80036" points="96,144.5625,86,148.5625,96,152.5625,92,148.5625" style="stroke:#A80036;stroke-width:1.0;"/><line style="stroke:#A80036;stroke-width:1.0;stroke-dasharray:2.0,2.0;" x1="90" x2="451" y1="148.5625" y2="148.5625"/><text fill="#000000" font-family="sans-serif" font-size="13" font-weight="bold" lengthAdjust="spacing" textLength="9" x="102" y="143.4966">2</text><text fill="#000000" font-family="sans-serif" font-size="13" lengthAdjust="spacing" textLength="112" x="115" y="143.4966">devolve QR-Code</text><line style="stroke:#A80036;stroke-width:1.0;" x1="85" x2="127" y1="182.6953" y2="182.6953"/><line style="stroke:#A80036;stroke-width:1.0;" x1="127" x2="127" y1="182.6953" y2="195.6953"/><line style="stroke:#A80036;stroke-width:1.0;" x1="80" x2="127" y1="195.6953" y2="195.6953"/><polygon fill="#A80036" points="90,191.6953,80,195.6953,90,199.6953,86,195.6953" style="stroke:#A80036;stroke-width:1.0;"/><text fill="#000000" font-family="sans-serif" font-size="13" font-weight="bold" lengthAdjust="spacing" textLength="8" x="92" y="177.6294">3</text><text fill="#000000" font-family="sans-serif" font-size="13" lengthAdjust="spacing" textLength="156" x="104" y="177.6294">Envia email ao utilizador</text><!--MD5=[6cfe9c3af85b622a3d841303e28d4f2a]
@startuml
autonumber
actor ":API.SistemaCentral" as API
participant "API.QRCode" as U

activate API
API -> U : faz um pedido de criação de QR-Code(reservaDTO)
activate U
U - -> API : devolve QR-Code
deactivate U

API -> API : Envia email ao utilizador

deactivate API
@enduml

PlantUML version 1.2021.01(Tue Feb 02 07:55:08 UTC 2021)
(GPL source distribution)
Java Runtime: Java(TM) SE Runtime Environment
JVM: Java HotSpot(TM) 64-Bit Server VM
Default Encoding: UTF-8
Language: en
Country: US
--></g></svg>