<?xml version="1.0" encoding="UTF-8" standalone="no"?><svg xmlns="http://www.w3.org/2000/svg" xmlns:xlink="http://www.w3.org/1999/xlink" contentScriptType="application/ecmascript" contentStyleType="text/css" height="658px" preserveAspectRatio="none" style="width:1284px;height:658px;" version="1.1" viewBox="0 0 1284 658" width="1284px" zoomAndPan="magnify"><defs><filter height="300%" id="f674fm1momxbt" width="300%" x="-1" y="-1"><feGaussianBlur result="blurOut" stdDeviation="2.0"/><feColorMatrix in="blurOut" result="blurOut2" type="matrix" values="0 0 0 0 0 0 0 0 0 0 0 0 0 0 0 0 0 0 .4 0"/><feOffset dx="4.0" dy="4.0" in="blurOut2" result="blurOut3"/><feBlend in="SourceGraphic" in2="blurOut3" mode="normal"/></filter></defs><g><rect fill="#FFFFFF" filter="url(#f674fm1momxbt)" height="458.125" style="stroke:#A80036;stroke-width:1.0;" width="10" x="37" y="98.2969"/><rect fill="#FFFFFF" filter="url(#f674fm1momxbt)" height="29.1328" style="stroke:#A80036;stroke-width:1.0;" width="10" x="247" y="119.4297"/><rect fill="#FFFFFF" filter="url(#f674fm1momxbt)" height="29.1328" style="stroke:#A80036;stroke-width:1.0;" width="10" x="247" y="527.2891"/><rect fill="#FFFFFF" filter="url(#f674fm1momxbt)" height="87.3984" style="stroke:#A80036;stroke-width:1.0;" width="10" x="511.5" y="294.2266"/><rect fill="#FFFFFF" filter="url(#f674fm1momxbt)" height="378.7266" style="stroke:#A80036;stroke-width:1.0;" width="10" x="767.5" y="148.5625"/><rect fill="#FFFFFF" filter="url(#f674fm1momxbt)" height="87.3984" style="stroke:#A80036;stroke-width:1.0;" width="10" x="993.5" y="177.6953"/><rect fill="#FFFFFF" filter="url(#f674fm1momxbt)" height="87.3984" style="stroke:#A80036;stroke-width:1.0;" width="10" x="993.5" y="410.7578"/><rect fill="#FFFFFF" filter="url(#f674fm1momxbt)" height="29.1328" style="stroke:#A80036;stroke-width:1.0;" width="10" x="1190.5" y="206.8281"/><rect fill="#FFFFFF" filter="url(#f674fm1momxbt)" height="29.1328" style="stroke:#A80036;stroke-width:1.0;" width="10" x="1190.5" y="439.8906"/><line style="stroke:#A80036;stroke-width:1.0;stroke-dasharray:5.0,5.0;" x1="42" x2="42" y1="88.2969" y2="574.4219"/><line style="stroke:#A80036;stroke-width:1.0;stroke-dasharray:5.0,5.0;" x1="251.5" x2="251.5" y1="88.2969" y2="574.4219"/><line style="stroke:#A80036;stroke-width:1.0;stroke-dasharray:5.0,5.0;" x1="516.5" x2="516.5" y1="88.2969" y2="574.4219"/><line style="stroke:#A80036;stroke-width:1.0;stroke-dasharray:5.0,5.0;" x1="772.5" x2="772.5" y1="88.2969" y2="574.4219"/><line style="stroke:#A80036;stroke-width:1.0;stroke-dasharray:5.0,5.0;" x1="998.5" x2="998.5" y1="88.2969" y2="574.4219"/><line style="stroke:#A80036;stroke-width:1.0;stroke-dasharray:5.0,5.0;" x1="1195" x2="1195" y1="88.2969" y2="574.4219"/><text fill="#000000" font-family="sans-serif" font-size="14" lengthAdjust="spacing" textLength="68" x="5" y="84.9951">Utilizador</text><ellipse cx="42" cy="15" fill="#FEFECE" filter="url(#f674fm1momxbt)" rx="8" ry="8" style="stroke:#A80036;stroke-width:2.0;"/><path d="M42,23 L42,50 M29,31 L55,31 M42,50 L29,65 M42,50 L55,65 " fill="none" filter="url(#f674fm1momxbt)" style="stroke:#A80036;stroke-width:2.0;"/><text fill="#000000" font-family="sans-serif" font-size="14" lengthAdjust="spacing" textLength="68" x="5" y="586.417">Utilizador</text><ellipse cx="42" cy="599.7188" fill="#FEFECE" filter="url(#f674fm1momxbt)" rx="8" ry="8" style="stroke:#A80036;stroke-width:2.0;"/><path d="M42,607.7188 L42,634.7188 M29,615.7188 L55,615.7188 M42,634.7188 L29,649.7188 M42,634.7188 L55,649.7188 " fill="none" filter="url(#f674fm1momxbt)" style="stroke:#A80036;stroke-width:2.0;"/><rect fill="#FEFECE" filter="url(#f674fm1momxbt)" height="30.2969" style="stroke:#A80036;stroke-width:1.5;" width="239" x="130.5" y="53"/><text fill="#000000" font-family="sans-serif" font-size="14" lengthAdjust="spacing" textLength="225" x="137.5" y="72.9951">:app/Views/SubAlugueres/Index</text><rect fill="#FEFECE" filter="url(#f674fm1momxbt)" height="30.2969" style="stroke:#A80036;stroke-width:1.5;" width="239" x="130.5" y="573.4219"/><text fill="#000000" font-family="sans-serif" font-size="14" lengthAdjust="spacing" textLength="225" x="137.5" y="593.417">:app/Views/SubAlugueres/Index</text><rect fill="#FEFECE" filter="url(#f674fm1momxbt)" height="30.2969" style="stroke:#A80036;stroke-width:1.5;" width="262" x="383.5" y="53"/><text fill="#000000" font-family="sans-serif" font-size="14" lengthAdjust="spacing" textLength="248" x="390.5" y="72.9951">:app/Views/SubAlugueres/Cancelar</text><rect fill="#FEFECE" filter="url(#f674fm1momxbt)" height="30.2969" style="stroke:#A80036;stroke-width:1.5;" width="262" x="383.5" y="573.4219"/><text fill="#000000" font-family="sans-serif" font-size="14" lengthAdjust="spacing" textLength="248" x="390.5" y="593.417">:app/Views/SubAlugueres/Cancelar</text><rect fill="#FEFECE" filter="url(#f674fm1momxbt)" height="30.2969" style="stroke:#A80036;stroke-width:1.5;" width="222" x="659.5" y="53"/><text fill="#000000" font-family="sans-serif" font-size="14" lengthAdjust="spacing" textLength="208" x="666.5" y="72.9951">:app/SubAlugueresController</text><rect fill="#FEFECE" filter="url(#f674fm1momxbt)" height="30.2969" style="stroke:#A80036;stroke-width:1.5;" width="222" x="659.5" y="573.4219"/><text fill="#000000" font-family="sans-serif" font-size="14" lengthAdjust="spacing" textLength="208" x="666.5" y="593.417">:app/SubAlugueresController</text><rect fill="#FEFECE" filter="url(#f674fm1momxbt)" height="30.2969" style="stroke:#A80036;stroke-width:1.5;" width="186" x="903.5" y="53"/><text fill="#000000" font-family="sans-serif" font-size="14" lengthAdjust="spacing" textLength="172" x="910.5" y="72.9951">:app/SubAluguerService</text><rect fill="#FEFECE" filter="url(#f674fm1momxbt)" height="30.2969" style="stroke:#A80036;stroke-width:1.5;" width="186" x="903.5" y="573.4219"/><text fill="#000000" font-family="sans-serif" font-size="14" lengthAdjust="spacing" textLength="172" x="910.5" y="593.417">:app/SubAluguerService</text><rect fill="#FEFECE" filter="url(#f674fm1momxbt)" height="30.2969" style="stroke:#A80036;stroke-width:1.5;" width="153" x="1117" y="53"/><text fill="#000000" font-family="sans-serif" font-size="14" lengthAdjust="spacing" textLength="139" x="1124" y="72.9951">API:SistemaCentral</text><rect fill="#FEFECE" filter="url(#f674fm1momxbt)" height="30.2969" style="stroke:#A80036;stroke-width:1.5;" width="153" x="1117" y="573.4219"/><text fill="#000000" font-family="sans-serif" font-size="14" lengthAdjust="spacing" textLength="139" x="1124" y="593.417">API:SistemaCentral</text><rect fill="#FFFFFF" filter="url(#f674fm1momxbt)" height="458.125" style="stroke:#A80036;stroke-width:1.0;" width="10" x="37" y="98.2969"/><rect fill="#FFFFFF" filter="url(#f674fm1momxbt)" height="29.1328" style="stroke:#A80036;stroke-width:1.0;" width="10" x="247" y="119.4297"/><rect fill="#FFFFFF" filter="url(#f674fm1momxbt)" height="29.1328" style="stroke:#A80036;stroke-width:1.0;" width="10" x="247" y="527.2891"/><rect fill="#FFFFFF" filter="url(#f674fm1momxbt)" height="87.3984" style="stroke:#A80036;stroke-width:1.0;" width="10" x="511.5" y="294.2266"/><rect fill="#FFFFFF" filter="url(#f674fm1momxbt)" height="378.7266" style="stroke:#A80036;stroke-width:1.0;" width="10" x="767.5" y="148.5625"/><rect fill="#FFFFFF" filter="url(#f674fm1momxbt)" height="87.3984" style="stroke:#A80036;stroke-width:1.0;" width="10" x="993.5" y="177.6953"/><rect fill="#FFFFFF" filter="url(#f674fm1momxbt)" height="87.3984" style="stroke:#A80036;stroke-width:1.0;" width="10" x="993.5" y="410.7578"/><rect fill="#FFFFFF" filter="url(#f674fm1momxbt)" height="29.1328" style="stroke:#A80036;stroke-width:1.0;" width="10" x="1190.5" y="206.8281"/><rect fill="#FFFFFF" filter="url(#f674fm1momxbt)" height="29.1328" style="stroke:#A80036;stroke-width:1.0;" width="10" x="1190.5" y="439.8906"/><polygon fill="#A80036" points="235,115.4297,245,119.4297,235,123.4297,239,119.4297" style="stroke:#A80036;stroke-width:1.0;"/><line style="stroke:#A80036;stroke-width:1.0;stroke-dasharray:2.0,2.0;" x1="47" x2="241" y1="119.4297" y2="119.4297"/><text fill="#000000" font-family="sans-serif" font-size="13" font-weight="bold" lengthAdjust="spacing" textLength="9" x="54" y="114.3638">1</text><text fill="#000000" font-family="sans-serif" font-size="13" lengthAdjust="spacing" textLength="139" x="67" y="114.3638">Inicia o cancelamento</text><polygon fill="#A80036" points="755.5,144.5625,765.5,148.5625,755.5,152.5625,759.5,148.5625" style="stroke:#A80036;stroke-width:1.0;"/><line style="stroke:#A80036;stroke-width:1.0;stroke-dasharray:2.0,2.0;" x1="252" x2="761.5" y1="148.5625" y2="148.5625"/><text fill="#000000" font-family="sans-serif" font-size="13" font-weight="bold" lengthAdjust="spacing" textLength="9" x="259" y="143.4966">2</text><text fill="#000000" font-family="sans-serif" font-size="13" lengthAdjust="spacing" textLength="77" x="272" y="143.4966">Cancelar(id)</text><polygon fill="#A80036" points="981.5,173.6953,991.5,177.6953,981.5,181.6953,985.5,177.6953" style="stroke:#A80036;stroke-width:1.0;"/><line style="stroke:#A80036;stroke-width:1.0;stroke-dasharray:2.0,2.0;" x1="777.5" x2="987.5" y1="177.6953" y2="177.6953"/><text fill="#000000" font-family="sans-serif" font-size="13" font-weight="bold" lengthAdjust="spacing" textLength="8" x="784.5" y="172.6294">3</text><text fill="#000000" font-family="sans-serif" font-size="13" lengthAdjust="spacing" textLength="144" x="796.5" y="172.6294">GetSubAluguerById(id)</text><polygon fill="#A80036" points="1178.5,202.8281,1188.5,206.8281,1178.5,210.8281,1182.5,206.8281" style="stroke:#A80036;stroke-width:1.0;"/><line style="stroke:#A80036;stroke-width:1.0;stroke-dasharray:2.0,2.0;" x1="1003.5" x2="1184.5" y1="206.8281" y2="206.8281"/><text fill="#000000" font-family="sans-serif" font-size="13" font-weight="bold" lengthAdjust="spacing" textLength="9" x="1010.5" y="201.7622">4</text><text fill="#000000" font-family="sans-serif" font-size="13" lengthAdjust="spacing" textLength="83" x="1023.5" y="201.7622">GetAsync(id)</text><polygon fill="#A80036" points="1014.5,231.9609,1004.5,235.9609,1014.5,239.9609,1010.5,235.9609" style="stroke:#A80036;stroke-width:1.0;"/><line style="stroke:#A80036;stroke-width:1.0;stroke-dasharray:2.0,2.0;" x1="1008.5" x2="1194.5" y1="235.9609" y2="235.9609"/><text fill="#000000" font-family="sans-serif" font-size="13" font-weight="bold" lengthAdjust="spacing" textLength="9" x="1020.5" y="230.895">5</text><text fill="#000000" font-family="sans-serif" font-size="13" lengthAdjust="spacing" textLength="150" x="1033.5" y="230.895">return(SubAluguerDTO)</text><polygon fill="#A80036" points="788.5,261.0938,778.5,265.0938,788.5,269.0938,784.5,265.0938" style="stroke:#A80036;stroke-width:1.0;"/><line style="stroke:#A80036;stroke-width:1.0;stroke-dasharray:2.0,2.0;" x1="782.5" x2="997.5" y1="265.0938" y2="265.0938"/><text fill="#000000" font-family="sans-serif" font-size="13" font-weight="bold" lengthAdjust="spacing" textLength="9" x="794.5" y="260.0278">6</text><text fill="#000000" font-family="sans-serif" font-size="13" lengthAdjust="spacing" textLength="150" x="807.5" y="260.0278">return(SubAluguerDTO)</text><polygon fill="#A80036" points="532.5,290.2266,522.5,294.2266,532.5,298.2266,528.5,294.2266" style="stroke:#A80036;stroke-width:1.0;"/><line style="stroke:#A80036;stroke-width:1.0;stroke-dasharray:2.0,2.0;" x1="526.5" x2="766.5" y1="294.2266" y2="294.2266"/><text fill="#000000" font-family="sans-serif" font-size="13" font-weight="bold" lengthAdjust="spacing" textLength="9" x="538.5" y="289.1606">7</text><text fill="#000000" font-family="sans-serif" font-size="13" lengthAdjust="spacing" textLength="185" x="551.5" y="289.1606">return View(SubAluguerDTO)</text><polygon fill="#A80036" points="58,319.3594,48,323.3594,58,327.3594,54,323.3594" style="stroke:#A80036;stroke-width:1.0;"/><line style="stroke:#A80036;stroke-width:1.0;stroke-dasharray:2.0,2.0;" x1="52" x2="510.5" y1="323.3594" y2="323.3594"/><text fill="#000000" font-family="sans-serif" font-size="13" font-weight="bold" lengthAdjust="spacing" textLength="9" x="64" y="318.2935">8</text><text fill="#000000" font-family="sans-serif" font-size="13" lengthAdjust="spacing" textLength="131" x="77" y="318.2935">pede para confirmar</text><polygon fill="#A80036" points="499.5,348.4922,509.5,352.4922,499.5,356.4922,503.5,352.4922" style="stroke:#A80036;stroke-width:1.0;"/><line style="stroke:#A80036;stroke-width:1.0;stroke-dasharray:2.0,2.0;" x1="47" x2="505.5" y1="352.4922" y2="352.4922"/><text fill="#000000" font-family="sans-serif" font-size="13" font-weight="bold" lengthAdjust="spacing" textLength="9" x="54" y="347.4263">9</text><text fill="#000000" font-family="sans-serif" font-size="13" lengthAdjust="spacing" textLength="57" x="67" y="347.4263">confirma</text><polygon fill="#A80036" points="755.5,377.625,765.5,381.625,755.5,385.625,759.5,381.625" style="stroke:#A80036;stroke-width:1.0;"/><line style="stroke:#A80036;stroke-width:1.0;stroke-dasharray:2.0,2.0;" x1="516.5" x2="761.5" y1="381.625" y2="381.625"/><text fill="#000000" font-family="sans-serif" font-size="13" font-weight="bold" lengthAdjust="spacing" textLength="19" x="523.5" y="376.5591">10</text><text fill="#000000" font-family="sans-serif" font-size="13" lengthAdjust="spacing" textLength="152" x="546.5" y="376.5591">CancelarConfirmado(id)</text><polygon fill="#A80036" points="981.5,406.7578,991.5,410.7578,981.5,414.7578,985.5,410.7578" style="stroke:#A80036;stroke-width:1.0;"/><line style="stroke:#A80036;stroke-width:1.0;stroke-dasharray:2.0,2.0;" x1="777.5" x2="987.5" y1="410.7578" y2="410.7578"/><text fill="#000000" font-family="sans-serif" font-size="13" font-weight="bold" lengthAdjust="spacing" textLength="18" x="784.5" y="405.6919">11</text><text fill="#000000" font-family="sans-serif" font-size="13" lengthAdjust="spacing" textLength="175" x="806.5" y="405.6919">DeleteSubAluguerAsync(id)</text><polygon fill="#A80036" points="1178.5,435.8906,1188.5,439.8906,1178.5,443.8906,1182.5,439.8906" style="stroke:#A80036;stroke-width:1.0;"/><line style="stroke:#A80036;stroke-width:1.0;stroke-dasharray:2.0,2.0;" x1="1003.5" x2="1184.5" y1="439.8906" y2="439.8906"/><text fill="#000000" font-family="sans-serif" font-size="13" font-weight="bold" lengthAdjust="spacing" textLength="18" x="1010.5" y="434.8247">12</text><text fill="#000000" font-family="sans-serif" font-size="13" lengthAdjust="spacing" textLength="102" x="1032.5" y="434.8247">DeleteAsync(id)</text><polygon fill="#A80036" points="1014.5,465.0234,1004.5,469.0234,1014.5,473.0234,1010.5,469.0234" style="stroke:#A80036;stroke-width:1.0;"/><line style="stroke:#A80036;stroke-width:1.0;stroke-dasharray:2.0,2.0;" x1="1008.5" x2="1194.5" y1="469.0234" y2="469.0234"/><text fill="#000000" font-family="sans-serif" font-size="13" font-weight="bold" lengthAdjust="spacing" textLength="17" x="1020.5" y="463.9575">13</text><text fill="#000000" font-family="sans-serif" font-size="13" lengthAdjust="spacing" textLength="72" x="1041.5" y="463.9575">No Content</text><polygon fill="#A80036" points="788.5,494.1563,778.5,498.1563,788.5,502.1563,784.5,498.1563" style="stroke:#A80036;stroke-width:1.0;"/><line style="stroke:#A80036;stroke-width:1.0;stroke-dasharray:2.0,2.0;" x1="782.5" x2="997.5" y1="498.1563" y2="498.1563"/><text fill="#000000" font-family="sans-serif" font-size="13" font-weight="bold" lengthAdjust="spacing" textLength="18" x="794.5" y="493.0903">14</text><text fill="#000000" font-family="sans-serif" font-size="13" lengthAdjust="spacing" textLength="49" x="816.5" y="493.0903">Task ok</text><polygon fill="#A80036" points="268,523.2891,258,527.2891,268,531.2891,264,527.2891" style="stroke:#A80036;stroke-width:1.0;"/><line style="stroke:#A80036;stroke-width:1.0;stroke-dasharray:2.0,2.0;" x1="262" x2="771.5" y1="527.2891" y2="527.2891"/><text fill="#000000" font-family="sans-serif" font-size="13" font-weight="bold" lengthAdjust="spacing" textLength="18" x="274" y="522.2231">15</text><text fill="#000000" font-family="sans-serif" font-size="13" lengthAdjust="spacing" textLength="214" x="296" y="522.2231">RedirectToAction(nameof(Index))</text><polygon fill="#A80036" points="53,552.4219,43,556.4219,53,560.4219,49,556.4219" style="stroke:#A80036;stroke-width:1.0;"/><line style="stroke:#A80036;stroke-width:1.0;stroke-dasharray:2.0,2.0;" x1="47" x2="251" y1="556.4219" y2="556.4219"/><text fill="#000000" font-family="sans-serif" font-size="13" font-weight="bold" lengthAdjust="spacing" textLength="18" x="59" y="551.356">16</text><text fill="#000000" font-family="sans-serif" font-size="13" lengthAdjust="spacing" textLength="154" x="81" y="551.356">operacao bem sucedida</text><!--MD5=[1df93cc588fd119802ff033f2cc9fc62]
@startuml
autonumber
actor "Utilizador" as U
participant ":app/Views/SubAlugueres/Index" as SIV
participant ":app/Views/SubAlugueres/Cancelar" as SCV
participant ":app/SubAlugueresController" as SC
participant ":app/SubAluguerService" as SS
participant "API:SistemaCentral" as API

activate U

U - -> SIV: Inicia o cancelamento
activate SIV

SIV - -> SC: Cancelar(id)
deactivate SIV
activate SC

SC - -> SS: GetSubAluguerById(id)
activate SS

SS - -> API: GetAsync(id)
activate API

API - -> SS: return(SubAluguerDTO)
deactivate API

SS - -> SC: return(SubAluguerDTO)
deactivate SS

SC - -> SCV: return View(SubAluguerDTO)
activate SCV

SCV - -> U: pede para confirmar

U - -> SCV: confirma

SCV - -> SC: CancelarConfirmado(id)
deactivate SCV

SC - -> SS: DeleteSubAluguerAsync(id)
activate SS

SS - -> API: DeleteAsync(id)
activate API

API - -> SS:No Content
deactivate API

SS - -> SC: Task ok
deactivate SS

SC - -> SIV: RedirectToAction(nameof(Index))
deactivate SC
activate SIV

SIV - -> U: operacao bem sucedida
deactivate SIV

deactivate U
@enduml

PlantUML version 1.2021.2beta9(Unknown compile time)
(GPL source distribution)
Java Runtime: Java(TM) SE Runtime Environment
JVM: Java HotSpot(TM) 64-Bit Server VM
Default Encoding: UTF-8
Language: en
Country: US
--></g></svg>