<?xml version="1.0" encoding="UTF-8" standalone="no"?><svg xmlns="http://www.w3.org/2000/svg" xmlns:xlink="http://www.w3.org/1999/xlink" contentScriptType="application/ecmascript" contentStyleType="text/css" height="324px" preserveAspectRatio="none" style="width:353px;height:324px;" version="1.1" viewBox="0 0 353 324" width="353px" zoomAndPan="magnify"><defs><filter height="300%" id="f1a1r6rwe89v3f" width="300%" x="-1" y="-1"><feGaussianBlur result="blurOut" stdDeviation="2.0"/><feColorMatrix in="blurOut" result="blurOut2" type="matrix" values="0 0 0 0 0 0 0 0 0 0 0 0 0 0 0 0 0 0 .4 0"/><feOffset dx="4.0" dy="4.0" in="blurOut2" result="blurOut3"/><feBlend in="SourceGraphic" in2="blurOut3" mode="normal"/></filter></defs><g><rect fill="#FFFFFF" filter="url(#f1a1r6rwe89v3f)" height="123.6641" style="stroke:#A80036;stroke-width:1.0;" width="10" x="37" y="98.2969"/><rect fill="#FFFFFF" filter="url(#f1a1r6rwe89v3f)" height="29.1328" style="stroke:#A80036;stroke-width:1.0;" width="10" x="277" y="134.5625"/><rect fill="#FFFFFF" filter="url(#f1a1r6rwe89v3f)" height="29.1328" style="stroke:#A80036;stroke-width:1.0;" width="10" x="277" y="192.8281"/><line style="stroke:#A80036;stroke-width:1.0;stroke-dasharray:5.0,5.0;" x1="42" x2="42" y1="88.2969" y2="239.9609"/><line style="stroke:#A80036;stroke-width:1.0;stroke-dasharray:5.0,5.0;" x1="282" x2="282" y1="88.2969" y2="239.9609"/><text fill="#000000" font-family="sans-serif" font-size="14" lengthAdjust="spacing" textLength="68" x="5" y="84.9951">Utilizador</text><ellipse cx="42" cy="15" fill="#FEFECE" filter="url(#f1a1r6rwe89v3f)" rx="8" ry="8" style="stroke:#A80036;stroke-width:2.0;"/><path d="M42,23 L42,50 M29,31 L55,31 M42,50 L29,65 M42,50 L55,65 " fill="none" filter="url(#f1a1r6rwe89v3f)" style="stroke:#A80036;stroke-width:2.0;"/><text fill="#000000" font-family="sans-serif" font-size="14" lengthAdjust="spacing" textLength="68" x="5" y="251.9561">Utilizador</text><ellipse cx="42" cy="265.2578" fill="#FEFECE" filter="url(#f1a1r6rwe89v3f)" rx="8" ry="8" style="stroke:#A80036;stroke-width:2.0;"/><path d="M42,273.2578 L42,300.2578 M29,281.2578 L55,281.2578 M42,300.2578 L29,315.2578 M42,300.2578 L55,315.2578 " fill="none" filter="url(#f1a1r6rwe89v3f)" style="stroke:#A80036;stroke-width:2.0;"/><rect fill="#FEFECE" filter="url(#f1a1r6rwe89v3f)" height="30.2969" style="stroke:#A80036;stroke-width:1.5;" width="118" x="221" y="53"/><text fill="#000000" font-family="sans-serif" font-size="14" lengthAdjust="spacing" textLength="104" x="228" y="72.9951">:APP.FrontEnd</text><rect fill="#FEFECE" filter="url(#f1a1r6rwe89v3f)" height="30.2969" style="stroke:#A80036;stroke-width:1.5;" width="118" x="221" y="238.9609"/><text fill="#000000" font-family="sans-serif" font-size="14" lengthAdjust="spacing" textLength="104" x="228" y="258.9561">:APP.FrontEnd</text><rect fill="#FFFFFF" filter="url(#f1a1r6rwe89v3f)" height="123.6641" style="stroke:#A80036;stroke-width:1.0;" width="10" x="37" y="98.2969"/><rect fill="#FFFFFF" filter="url(#f1a1r6rwe89v3f)" height="29.1328" style="stroke:#A80036;stroke-width:1.0;" width="10" x="277" y="134.5625"/><rect fill="#FFFFFF" filter="url(#f1a1r6rwe89v3f)" height="29.1328" style="stroke:#A80036;stroke-width:1.0;" width="10" x="277" y="192.8281"/><polygon fill="#A80036" points="265,130.5625,275,134.5625,265,138.5625,269,134.5625" style="stroke:#A80036;stroke-width:1.0;"/><line style="stroke:#A80036;stroke-width:1.0;" x1="47" x2="271" y1="134.5625" y2="134.5625"/><text fill="#000000" font-family="sans-serif" font-size="13" font-weight="bold" lengthAdjust="spacing" textLength="9" x="54" y="121.9302">1</text><text fill="#000000" font-family="sans-serif" font-size="13" lengthAdjust="spacing" textLength="194" x="67" y="114.3638">inicia pedido de cancelamento</text><text fill="#000000" font-family="sans-serif" font-size="13" lengthAdjust="spacing" textLength="118" x="67" y="129.4966">de um SubAluguer</text><polygon fill="#A80036" points="58,159.6953,48,163.6953,58,167.6953,54,163.6953" style="stroke:#A80036;stroke-width:1.0;"/><line style="stroke:#A80036;stroke-width:1.0;" x1="52" x2="281" y1="163.6953" y2="163.6953"/><text fill="#000000" font-family="sans-serif" font-size="13" font-weight="bold" lengthAdjust="spacing" textLength="9" x="64" y="158.6294">2</text><text fill="#000000" font-family="sans-serif" font-size="13" lengthAdjust="spacing" textLength="116" x="77" y="158.6294">pede confirmação</text><polygon fill="#A80036" points="265,188.8281,275,192.8281,265,196.8281,269,192.8281" style="stroke:#A80036;stroke-width:1.0;"/><line style="stroke:#A80036;stroke-width:1.0;" x1="47" x2="271" y1="192.8281" y2="192.8281"/><text fill="#000000" font-family="sans-serif" font-size="13" font-weight="bold" lengthAdjust="spacing" textLength="8" x="54" y="187.7622">3</text><text fill="#000000" font-family="sans-serif" font-size="13" lengthAdjust="spacing" textLength="57" x="66" y="187.7622">confirma</text><polygon fill="#A80036" points="53,217.9609,43,221.9609,53,225.9609,49,221.9609" style="stroke:#A80036;stroke-width:1.0;"/><line style="stroke:#A80036;stroke-width:1.0;" x1="47" x2="281" y1="221.9609" y2="221.9609"/><text fill="#000000" font-family="sans-serif" font-size="13" font-weight="bold" lengthAdjust="spacing" textLength="9" x="59" y="216.895">4</text><text fill="#000000" font-family="sans-serif" font-size="13" lengthAdjust="spacing" textLength="154" x="72" y="216.895">operação bem sucedida</text><!--MD5=[98ef2cccc842697571a078e2507a9eff]
@startuml
autonumber
actor "Utilizador" as U
participant ":APP.FrontEnd" as APP

activate U
U -> APP : inicia pedido de cancelamento \nde um SubAluguer
activate APP

APP -> U : pede confirmação
deactivate "APP"

U -> APP : confirma
activate APP

APP -> U : operação bem sucedida
deactivate APP

deactivate U
@enduml

PlantUML version 1.2021.2beta9(Unknown compile time)
(GPL source distribution)
Java Runtime: Java(TM) SE Runtime Environment
JVM: Java HotSpot(TM) 64-Bit Server VM
Default Encoding: UTF-8
Language: en
Country: US
--></g></svg>