<?xml version="1.0" encoding="UTF-8" standalone="no"?><svg xmlns="http://www.w3.org/2000/svg" xmlns:xlink="http://www.w3.org/1999/xlink" contentScriptType="application/ecmascript" contentStyleType="text/css" height="404px" preserveAspectRatio="none" style="width:1068px;height:404px;" version="1.1" viewBox="0 0 1068 404" width="1068px" zoomAndPan="magnify"><defs><filter height="300%" id="fm2kq6zm6l88t" width="300%" x="-1" y="-1"><feGaussianBlur result="blurOut" stdDeviation="2.0"/><feColorMatrix in="blurOut" result="blurOut2" type="matrix" values="0 0 0 0 0 0 0 0 0 0 0 0 0 0 0 0 0 0 .4 0"/><feOffset dx="4.0" dy="4.0" in="blurOut2" result="blurOut3"/><feBlend in="SourceGraphic" in2="blurOut3" mode="normal"/></filter></defs><g><!--MD5=[1654698dbf1dab33aeaf9b6eaf8a8ac4]
class APIParque--><rect codeLine="5" fill="#FEFECE" filter="url(#fm2kq6zm6l88t)" height="40" id="APIParque" style="stroke:#A80036;stroke-width:1.5;" width="90" x="7" y="140"/><ellipse cx="22" cy="156" fill="#ADD1B2" rx="11" ry="11" style="stroke:#A80036;stroke-width:1.0;"/><path d="M24.3438,151.6719 C23.4063,151.2344 22.8125,151.0937 21.9375,151.0937 C19.3125,151.0937 17.3125,153.1719 17.3125,155.8906 L17.3125,157.0156 C17.3125,159.5937 19.4219,161.4844 22.3125,161.4844 C23.5313,161.4844 24.6875,161.1875 25.4375,160.6406 C26.0156,160.2344 26.3438,159.7812 26.3438,159.3906 C26.3438,158.9375 25.9531,158.5469 25.4844,158.5469 C25.2656,158.5469 25.0625,158.625 24.875,158.8125 C24.4219,159.2969 24.4219,159.2969 24.2344,159.3906 C23.8125,159.6562 23.125,159.7812 22.3594,159.7812 C20.3125,159.7812 19.0156,158.6875 19.0156,156.9844 L19.0156,155.8906 C19.0156,154.1094 20.2656,152.7969 22,152.7969 C22.5781,152.7969 23.1875,152.9531 23.6563,153.2031 C24.1406,153.4844 24.3125,153.7031 24.4063,154.1094 C24.4688,154.5156 24.5,154.6406 24.6406,154.7656 C24.7813,154.9062 25.0156,155.0156 25.2344,155.0156 C25.5,155.0156 25.7656,154.875 25.9375,154.6562 C26.0469,154.5 26.0781,154.3125 26.0781,153.8906 L26.0781,152.4687 C26.0781,152.0312 26.0625,151.9062 25.9688,151.75 C25.8125,151.4844 25.5313,151.3437 25.2344,151.3437 C24.9375,151.3437 24.7344,151.4375 24.5156,151.75 L24.3438,151.6719 Z " fill="#000000"/><text fill="#000000" font-family="sans-serif" font-size="12" lengthAdjust="spacing" textLength="58" x="36" y="160.1543">APIParque</text><line style="stroke:#A80036;stroke-width:1.5;" x1="8" x2="96" y1="172" y2="172"/><!--MD5=[20a748d5ee336a9a91751b0a3d4f0beb]
class Cliente--><rect codeLine="7" fill="#FEFECE" filter="url(#fm2kq6zm6l88t)" height="78.4141" id="Cliente" style="stroke:#A80036;stroke-width:1.5;" width="85" x="256" y="7"/><ellipse cx="276.4" cy="23" fill="#ADD1B2" rx="11" ry="11" style="stroke:#A80036;stroke-width:1.0;"/><path d="M278.7438,18.6719 C277.8063,18.2344 277.2125,18.0938 276.3375,18.0938 C273.7125,18.0938 271.7125,20.1719 271.7125,22.8906 L271.7125,24.0156 C271.7125,26.5938 273.8219,28.4844 276.7125,28.4844 C277.9313,28.4844 279.0875,28.1875 279.8375,27.6406 C280.4156,27.2344 280.7438,26.7813 280.7438,26.3906 C280.7438,25.9375 280.3531,25.5469 279.8844,25.5469 C279.6656,25.5469 279.4625,25.625 279.275,25.8125 C278.8219,26.2969 278.8219,26.2969 278.6344,26.3906 C278.2125,26.6563 277.525,26.7813 276.7594,26.7813 C274.7125,26.7813 273.4156,25.6875 273.4156,23.9844 L273.4156,22.8906 C273.4156,21.1094 274.6656,19.7969 276.4,19.7969 C276.9781,19.7969 277.5875,19.9531 278.0563,20.2031 C278.5406,20.4844 278.7125,20.7031 278.8063,21.1094 C278.8688,21.5156 278.9,21.6406 279.0406,21.7656 C279.1813,21.9063 279.4156,22.0156 279.6344,22.0156 C279.9,22.0156 280.1656,21.875 280.3375,21.6563 C280.4469,21.5 280.4781,21.3125 280.4781,20.8906 L280.4781,19.4688 C280.4781,19.0313 280.4625,18.9063 280.3688,18.75 C280.2125,18.4844 279.9313,18.3438 279.6344,18.3438 C279.3375,18.3438 279.1344,18.4375 278.9156,18.75 L278.7438,18.6719 Z " fill="#000000"/><text fill="#000000" font-family="sans-serif" font-size="12" lengthAdjust="spacing" textLength="41" x="291.6" y="27.1543">Cliente</text><line style="stroke:#A80036;stroke-width:1.5;" x1="257" x2="340" y1="39" y2="39"/><text fill="#000000" font-family="sans-serif" font-size="11" lengthAdjust="spacing" textLength="37" x="262" y="53.2104">-int Nif</text><text fill="#000000" font-family="sans-serif" font-size="11" lengthAdjust="spacing" textLength="73" x="262" y="66.0151">-string Nome</text><text fill="#000000" font-family="sans-serif" font-size="11" lengthAdjust="spacing" textLength="70" x="262" y="78.8198">-string Email</text><!--MD5=[6ea9d6598d9760662639554c9857ab6b]
class Reserva--><rect codeLine="13" fill="#FEFECE" filter="url(#fm2kq6zm6l88t)" height="40" id="Reserva" style="stroke:#A80036;stroke-width:1.5;" width="81" x="494" y="55"/><ellipse cx="509" cy="71" fill="#ADD1B2" rx="11" ry="11" style="stroke:#A80036;stroke-width:1.0;"/><path d="M511.3438,66.6719 C510.4063,66.2344 509.8125,66.0938 508.9375,66.0938 C506.3125,66.0938 504.3125,68.1719 504.3125,70.8906 L504.3125,72.0156 C504.3125,74.5938 506.4219,76.4844 509.3125,76.4844 C510.5313,76.4844 511.6875,76.1875 512.4375,75.6406 C513.0156,75.2344 513.3438,74.7813 513.3438,74.3906 C513.3438,73.9375 512.9531,73.5469 512.4844,73.5469 C512.2656,73.5469 512.0625,73.625 511.875,73.8125 C511.4219,74.2969 511.4219,74.2969 511.2344,74.3906 C510.8125,74.6563 510.125,74.7813 509.3594,74.7813 C507.3125,74.7813 506.0156,73.6875 506.0156,71.9844 L506.0156,70.8906 C506.0156,69.1094 507.2656,67.7969 509,67.7969 C509.5781,67.7969 510.1875,67.9531 510.6563,68.2031 C511.1406,68.4844 511.3125,68.7031 511.4063,69.1094 C511.4688,69.5156 511.5,69.6406 511.6406,69.7656 C511.7813,69.9063 512.0156,70.0156 512.2344,70.0156 C512.5,70.0156 512.7656,69.875 512.9375,69.6563 C513.0469,69.5 513.0781,69.3125 513.0781,68.8906 L513.0781,67.4688 C513.0781,67.0313 513.0625,66.9063 512.9688,66.75 C512.8125,66.4844 512.5313,66.3438 512.2344,66.3438 C511.9375,66.3438 511.7344,66.4375 511.5156,66.75 L511.3438,66.6719 Z " fill="#000000"/><text fill="#000000" font-family="sans-serif" font-size="12" lengthAdjust="spacing" textLength="49" x="523" y="75.1543">Reserva</text><line style="stroke:#A80036;stroke-width:1.5;" x1="495" x2="574" y1="87" y2="87"/><!--MD5=[ec8f5e6a0bb5c1192bcc4a64c9a89492]
class Preço--><rect codeLine="15" fill="#FEFECE" filter="url(#fm2kq6zm6l88t)" height="40" id="Preço" style="stroke:#A80036;stroke-width:1.5;" width="66" x="970" y="111"/><ellipse cx="985" cy="127" fill="#ADD1B2" rx="11" ry="11" style="stroke:#A80036;stroke-width:1.0;"/><path d="M987.3438,122.6719 C986.4063,122.2344 985.8125,122.0937 984.9375,122.0937 C982.3125,122.0937 980.3125,124.1719 980.3125,126.8906 L980.3125,128.0156 C980.3125,130.5937 982.4219,132.4844 985.3125,132.4844 C986.5313,132.4844 987.6875,132.1875 988.4375,131.6406 C989.0156,131.2344 989.3438,130.7812 989.3438,130.3906 C989.3438,129.9375 988.9531,129.5469 988.4844,129.5469 C988.2656,129.5469 988.0625,129.625 987.875,129.8125 C987.4219,130.2969 987.4219,130.2969 987.2344,130.3906 C986.8125,130.6562 986.125,130.7812 985.3594,130.7812 C983.3125,130.7812 982.0156,129.6875 982.0156,127.9844 L982.0156,126.8906 C982.0156,125.1094 983.2656,123.7969 985,123.7969 C985.5781,123.7969 986.1875,123.9531 986.6563,124.2031 C987.1406,124.4844 987.3125,124.7031 987.4063,125.1094 C987.4688,125.5156 987.5,125.6406 987.6406,125.7656 C987.7813,125.9062 988.0156,126.0156 988.2344,126.0156 C988.5,126.0156 988.7656,125.875 988.9375,125.6562 C989.0469,125.5 989.0781,125.3125 989.0781,124.8906 L989.0781,123.4687 C989.0781,123.0312 989.0625,122.9062 988.9688,122.75 C988.8125,122.4844 988.5313,122.3437 988.2344,122.3437 C987.9375,122.3437 987.7344,122.4375 987.5156,122.75 L987.3438,122.6719 Z " fill="#000000"/><text fill="#000000" font-family="sans-serif" font-size="12" lengthAdjust="spacing" textLength="34" x="999" y="131.1543">Preço</text><line style="stroke:#A80036;stroke-width:1.5;" x1="971" x2="1035" y1="143" y2="143"/><!--MD5=[1a083dbe42a284ae0ea7f6f701783206]
class Parque--><rect codeLine="17" fill="#FEFECE" filter="url(#fm2kq6zm6l88t)" height="40" id="Parque" style="stroke:#A80036;stroke-width:1.5;" width="73" x="262" y="207"/><ellipse cx="277" cy="223" fill="#ADD1B2" rx="11" ry="11" style="stroke:#A80036;stroke-width:1.0;"/><path d="M279.3438,218.6719 C278.4063,218.2344 277.8125,218.0937 276.9375,218.0937 C274.3125,218.0937 272.3125,220.1719 272.3125,222.8906 L272.3125,224.0156 C272.3125,226.5937 274.4219,228.4844 277.3125,228.4844 C278.5313,228.4844 279.6875,228.1875 280.4375,227.6406 C281.0156,227.2344 281.3438,226.7812 281.3438,226.3906 C281.3438,225.9375 280.9531,225.5469 280.4844,225.5469 C280.2656,225.5469 280.0625,225.625 279.875,225.8125 C279.4219,226.2969 279.4219,226.2969 279.2344,226.3906 C278.8125,226.6562 278.125,226.7812 277.3594,226.7812 C275.3125,226.7812 274.0156,225.6875 274.0156,223.9844 L274.0156,222.8906 C274.0156,221.1094 275.2656,219.7969 277,219.7969 C277.5781,219.7969 278.1875,219.9531 278.6563,220.2031 C279.1406,220.4844 279.3125,220.7031 279.4063,221.1094 C279.4688,221.5156 279.5,221.6406 279.6406,221.7656 C279.7813,221.9062 280.0156,222.0156 280.2344,222.0156 C280.5,222.0156 280.7656,221.875 280.9375,221.6562 C281.0469,221.5 281.0781,221.3125 281.0781,220.8906 L281.0781,219.4687 C281.0781,219.0312 281.0625,218.9062 280.9688,218.75 C280.8125,218.4844 280.5313,218.3437 280.2344,218.3437 C279.9375,218.3437 279.7344,218.4375 279.5156,218.75 L279.3438,218.6719 Z " fill="#000000"/><text fill="#000000" font-family="sans-serif" font-size="12" lengthAdjust="spacing" textLength="41" x="291" y="227.1543">Parque</text><line style="stroke:#A80036;stroke-width:1.5;" x1="263" x2="334" y1="239" y2="239"/><!--MD5=[6129de384f1bcacbc1ea3ec83eb0d64e]
class Lugar--><rect codeLine="19" fill="#FEFECE" filter="url(#fm2kq6zm6l88t)" height="40" id="Lugar" style="stroke:#A80036;stroke-width:1.5;" width="65" x="766.5" y="158"/><ellipse cx="781.5" cy="174" fill="#ADD1B2" rx="11" ry="11" style="stroke:#A80036;stroke-width:1.0;"/><path d="M783.8438,169.6719 C782.9063,169.2344 782.3125,169.0937 781.4375,169.0937 C778.8125,169.0937 776.8125,171.1719 776.8125,173.8906 L776.8125,175.0156 C776.8125,177.5937 778.9219,179.4844 781.8125,179.4844 C783.0313,179.4844 784.1875,179.1875 784.9375,178.6406 C785.5156,178.2344 785.8438,177.7812 785.8438,177.3906 C785.8438,176.9375 785.4531,176.5469 784.9844,176.5469 C784.7656,176.5469 784.5625,176.625 784.375,176.8125 C783.9219,177.2969 783.9219,177.2969 783.7344,177.3906 C783.3125,177.6562 782.625,177.7812 781.8594,177.7812 C779.8125,177.7812 778.5156,176.6875 778.5156,174.9844 L778.5156,173.8906 C778.5156,172.1094 779.7656,170.7969 781.5,170.7969 C782.0781,170.7969 782.6875,170.9531 783.1563,171.2031 C783.6406,171.4844 783.8125,171.7031 783.9063,172.1094 C783.9688,172.5156 784,172.6406 784.1406,172.7656 C784.2813,172.9062 784.5156,173.0156 784.7344,173.0156 C785,173.0156 785.2656,172.875 785.4375,172.6562 C785.5469,172.5 785.5781,172.3125 785.5781,171.8906 L785.5781,170.4687 C785.5781,170.0312 785.5625,169.9062 785.4688,169.75 C785.3125,169.4844 785.0313,169.3437 784.7344,169.3437 C784.4375,169.3437 784.2344,169.4375 784.0156,169.75 L783.8438,169.6719 Z " fill="#000000"/><text fill="#000000" font-family="sans-serif" font-size="12" lengthAdjust="spacing" textLength="33" x="795.5" y="178.1543">Lugar</text><line style="stroke:#A80036;stroke-width:1.5;" x1="767.5" x2="830.5" y1="190" y2="190"/><!--MD5=[53d7157415ddfdf8a565a9d974d385cc]
class Localização--><rect codeLine="21" fill="#FEFECE" filter="url(#fm2kq6zm6l88t)" height="78.4141" id="Localização" style="stroke:#A80036;stroke-width:1.5;" width="102" x="952" y="186"/><ellipse cx="967" cy="202" fill="#ADD1B2" rx="11" ry="11" style="stroke:#A80036;stroke-width:1.0;"/><path d="M969.3438,197.6719 C968.4063,197.2344 967.8125,197.0937 966.9375,197.0937 C964.3125,197.0937 962.3125,199.1719 962.3125,201.8906 L962.3125,203.0156 C962.3125,205.5937 964.4219,207.4844 967.3125,207.4844 C968.5313,207.4844 969.6875,207.1875 970.4375,206.6406 C971.0156,206.2344 971.3438,205.7812 971.3438,205.3906 C971.3438,204.9375 970.9531,204.5469 970.4844,204.5469 C970.2656,204.5469 970.0625,204.625 969.875,204.8125 C969.4219,205.2969 969.4219,205.2969 969.2344,205.3906 C968.8125,205.6562 968.125,205.7812 967.3594,205.7812 C965.3125,205.7812 964.0156,204.6875 964.0156,202.9844 L964.0156,201.8906 C964.0156,200.1094 965.2656,198.7969 967,198.7969 C967.5781,198.7969 968.1875,198.9531 968.6563,199.2031 C969.1406,199.4844 969.3125,199.7031 969.4063,200.1094 C969.4688,200.5156 969.5,200.6406 969.6406,200.7656 C969.7813,200.9062 970.0156,201.0156 970.2344,201.0156 C970.5,201.0156 970.7656,200.875 970.9375,200.6562 C971.0469,200.5 971.0781,200.3125 971.0781,199.8906 L971.0781,198.4687 C971.0781,198.0312 971.0625,197.9062 970.9688,197.75 C970.8125,197.4844 970.5313,197.3437 970.2344,197.3437 C969.9375,197.3437 969.7344,197.4375 969.5156,197.75 L969.3438,197.6719 Z " fill="#000000"/><text fill="#000000" font-family="sans-serif" font-size="12" lengthAdjust="spacing" textLength="70" x="981" y="206.1543">Localização</text><line style="stroke:#A80036;stroke-width:1.5;" x1="953" x2="1053" y1="218" y2="218"/><text fill="#000000" font-family="sans-serif" font-size="11" lengthAdjust="spacing" textLength="67" x="958" y="232.2104">-int Numero</text><text fill="#000000" font-family="sans-serif" font-size="11" lengthAdjust="spacing" textLength="41" x="958" y="245.0151">-int Fila</text><text fill="#000000" font-family="sans-serif" font-size="11" lengthAdjust="spacing" textLength="55" x="958" y="257.8198">-int Andar</text><!--MD5=[3008f5efaa3e7cb421914c717b209816]
class Duração--><rect codeLine="27" fill="#FEFECE" filter="url(#fm2kq6zm6l88t)" height="65.6094" id="Duração" style="stroke:#A80036;stroke-width:1.5;" width="104" x="747" y="30"/><ellipse cx="771.9" cy="46" fill="#ADD1B2" rx="11" ry="11" style="stroke:#A80036;stroke-width:1.0;"/><path d="M774.2438,41.6719 C773.3063,41.2344 772.7125,41.0938 771.8375,41.0938 C769.2125,41.0938 767.2125,43.1719 767.2125,45.8906 L767.2125,47.0156 C767.2125,49.5938 769.3219,51.4844 772.2125,51.4844 C773.4313,51.4844 774.5875,51.1875 775.3375,50.6406 C775.9156,50.2344 776.2438,49.7813 776.2438,49.3906 C776.2438,48.9375 775.8531,48.5469 775.3844,48.5469 C775.1656,48.5469 774.9625,48.625 774.775,48.8125 C774.3219,49.2969 774.3219,49.2969 774.1344,49.3906 C773.7125,49.6563 773.025,49.7813 772.2594,49.7813 C770.2125,49.7813 768.9156,48.6875 768.9156,46.9844 L768.9156,45.8906 C768.9156,44.1094 770.1656,42.7969 771.9,42.7969 C772.4781,42.7969 773.0875,42.9531 773.5563,43.2031 C774.0406,43.4844 774.2125,43.7031 774.3063,44.1094 C774.3688,44.5156 774.4,44.6406 774.5406,44.7656 C774.6813,44.9063 774.9156,45.0156 775.1344,45.0156 C775.4,45.0156 775.6656,44.875 775.8375,44.6563 C775.9469,44.5 775.9781,44.3125 775.9781,43.8906 L775.9781,42.4688 C775.9781,42.0313 775.9625,41.9063 775.8688,41.75 C775.7125,41.4844 775.4313,41.3438 775.1344,41.3438 C774.8375,41.3438 774.6344,41.4375 774.4156,41.75 L774.2438,41.6719 Z " fill="#000000"/><text fill="#000000" font-family="sans-serif" font-size="12" lengthAdjust="spacing" textLength="50" x="788.1" y="50.1543">Duração</text><line style="stroke:#A80036;stroke-width:1.5;" x1="748" x2="850" y1="62" y2="62"/><text fill="#000000" font-family="sans-serif" font-size="11" lengthAdjust="spacing" textLength="92" x="753" y="76.2104">-dateTime Inicio</text><text fill="#000000" font-family="sans-serif" font-size="11" lengthAdjust="spacing" textLength="83" x="753" y="89.0151">-dateTime Fim</text><!--MD5=[77c6229b59f71ada4b7bed0495e5baba]
class Morada--><rect codeLine="32" fill="#FEFECE" filter="url(#fm2kq6zm6l88t)" height="65.6094" id="Morada" style="stroke:#A80036;stroke-width:1.5;" width="107" x="481" y="248"/><ellipse cx="509.5" cy="264" fill="#ADD1B2" rx="11" ry="11" style="stroke:#A80036;stroke-width:1.0;"/><path d="M511.8438,259.6719 C510.9063,259.2344 510.3125,259.0938 509.4375,259.0938 C506.8125,259.0938 504.8125,261.1719 504.8125,263.8906 L504.8125,265.0156 C504.8125,267.5938 506.9219,269.4844 509.8125,269.4844 C511.0313,269.4844 512.1875,269.1875 512.9375,268.6406 C513.5156,268.2344 513.8438,267.7813 513.8438,267.3906 C513.8438,266.9375 513.4531,266.5469 512.9844,266.5469 C512.7656,266.5469 512.5625,266.625 512.375,266.8125 C511.9219,267.2969 511.9219,267.2969 511.7344,267.3906 C511.3125,267.6563 510.625,267.7813 509.8594,267.7813 C507.8125,267.7813 506.5156,266.6875 506.5156,264.9844 L506.5156,263.8906 C506.5156,262.1094 507.7656,260.7969 509.5,260.7969 C510.0781,260.7969 510.6875,260.9531 511.1563,261.2031 C511.6406,261.4844 511.8125,261.7031 511.9063,262.1094 C511.9688,262.5156 512,262.6406 512.1406,262.7656 C512.2813,262.9063 512.5156,263.0156 512.7344,263.0156 C513,263.0156 513.2656,262.875 513.4375,262.6563 C513.5469,262.5 513.5781,262.3125 513.5781,261.8906 L513.5781,260.4688 C513.5781,260.0313 513.5625,259.9063 513.4688,259.75 C513.3125,259.4844 513.0313,259.3438 512.7344,259.3438 C512.4375,259.3438 512.2344,259.4375 512.0156,259.75 L511.8438,259.6719 Z " fill="#000000"/><text fill="#000000" font-family="sans-serif" font-size="12" lengthAdjust="spacing" textLength="45" x="526.5" y="268.1543">Morada</text><line style="stroke:#A80036;stroke-width:1.5;" x1="482" x2="587" y1="280" y2="280"/><text fill="#000000" font-family="sans-serif" font-size="11" lengthAdjust="spacing" textLength="60" x="487" y="294.2104">-string Rua</text><text fill="#000000" font-family="sans-serif" font-size="11" lengthAdjust="spacing" textLength="95" x="487" y="307.0151">-string Freguesia</text><!--MD5=[ef3a0668dc252d6ed3c69a5c78b21f42]
link APIParque to Cliente--><path codeLine="37" d="M80.2282,139.878 C93.8414,130.368 110.827,119.308 127,111 C169.267,89.287 220.539,70.703 255.752,59.036 " fill="none" id="APIParque-Cliente" style="stroke:#A80036;stroke-width:1.0;"/><polygon fill="#000000" points="158.0415,60.4747,148.5964,61.5892,151.0553,66.928,158.0415,60.4747" style="stroke:#000000;stroke-width:1.0;"/><text fill="#000000" font-family="sans-serif" font-size="13" lengthAdjust="spacing" textLength="41" x="162.5" y="67.0669">possui</text><text fill="#000000" font-family="sans-serif" font-size="13" lengthAdjust="spacing" textLength="8" x="79.3452" y="128.8504">1</text><text fill="#000000" font-family="sans-serif" font-size="13" lengthAdjust="spacing" textLength="15" x="233.0578" y="74.2259">0*</text><!--MD5=[1fe00d9aa06cae4131be0830c01d75e9]
link APIParque to Parque--><path codeLine="38" d="M97.2771,172.133 C144.479,185.068 218.297,205.296 261.885,217.241 " fill="none" id="APIParque-Parque" style="stroke:#A80036;stroke-width:1.0;"/><polygon fill="#000000" points="136.8222,174.8879,128.8755,169.6629,127.322,175.3318,136.8222,174.8879" style="stroke:#000000;stroke-width:1.0;"/><text fill="#000000" font-family="sans-serif" font-size="13" lengthAdjust="spacing" textLength="84" x="141" y="178.0669">é referente a</text><text fill="#000000" font-family="sans-serif" font-size="13" lengthAdjust="spacing" textLength="8" x="105.1306" y="187.3395">1</text><text fill="#000000" font-family="sans-serif" font-size="13" lengthAdjust="spacing" textLength="15" x="239.027" y="228.9173">1*</text><!--MD5=[72a1d6bba75ee92fed661f2768de78fb]
link APIParque to Reserva--><path codeLine="39" d="M97.0983,154.881 C153.767,148.038 255.088,134.905 341,119 C394.261,109.14 455.105,94.69 493.884,85.072 " fill="none" id="APIParque-Reserva" style="stroke:#A80036;stroke-width:1.0;"/><polygon fill="#000000" points="280.4244,109.7,271.0069,108.3728,272.0253,114.1618,280.4244,109.7" style="stroke:#000000;stroke-width:1.0;"/><text fill="#000000" font-family="sans-serif" font-size="13" lengthAdjust="spacing" textLength="41" x="284.5" y="115.0669">possui</text><text fill="#000000" font-family="sans-serif" font-size="13" lengthAdjust="spacing" textLength="8" x="104.9233" y="167.3379">1</text><text fill="#000000" font-family="sans-serif" font-size="13" lengthAdjust="spacing" textLength="15" x="470.9148" y="100.0603">0*</text><!--MD5=[7dc9167f2154858c18b46b7fdb011fb6]
link APIParque to Lugar--><path codeLine="40" d="M76.1399,180.242 C90.1668,191.796 108.815,205.937 127,216 C311.861,318.293 387.21,397.7329 588,332.0001 C669.638,305.2744 745.771,233.39 779.601,198.101 " fill="none" id="APIParque-Lugar" style="stroke:#A80036;stroke-width:1.0;"/><polygon fill="#000000" points="395.9984,335.6934,387.0308,332.5259,386.8816,338.4018,395.9984,335.6934" style="stroke:#000000;stroke-width:1.0;"/><text fill="#000000" font-family="sans-serif" font-size="13" lengthAdjust="spacing" textLength="35" x="400" y="340.067">aluga</text><text fill="#000000" font-family="sans-serif" font-size="13" lengthAdjust="spacing" textLength="8" x="73.8042" y="200.13">1</text><text fill="#000000" font-family="sans-serif" font-size="13" lengthAdjust="spacing" textLength="15" x="757.0357" y="217.9494">0*</text><!--MD5=[55a59268352d08cbaca9c2ff75c5c8f9]
link Cliente to Reserva--><path codeLine="42" d="M341.065,51.151 C384.273,56.506 451.41,64.827 493.882,70.09 " fill="none" id="Cliente-Reserva" style="stroke:#A80036;stroke-width:1.0;"/><polygon fill="#000000" points="380.962,48.1814,372.3471,44.1523,371.6242,49.9855,380.962,48.1814" style="stroke:#000000;stroke-width:1.0;"/><text fill="#000000" font-family="sans-serif" font-size="13" lengthAdjust="spacing" textLength="65" x="385" y="52.0669">faz e gere</text><text fill="#000000" font-family="sans-serif" font-size="13" lengthAdjust="spacing" textLength="8" x="349.0684" y="65.3681">1</text><text fill="#000000" font-family="sans-serif" font-size="13" lengthAdjust="spacing" textLength="15" x="470.9125" y="82.5969">0*</text><!--MD5=[d75ccf407ddc5af61a41230a97fe5acc]
link Reserva to Lugar--><path codeLine="44" d="M575.083,90.532 C627.361,111.045 718.391,146.763 766.353,165.583 " fill="none" id="Reserva-Lugar" style="stroke:#A80036;stroke-width:1.0;"/><polygon fill="#000000" points="627.6545,102.3928,620.3079,96.353,618.1609,101.8247,627.6545,102.3928" style="stroke:#000000;stroke-width:1.0;"/><text fill="#000000" font-family="sans-serif" font-size="13" lengthAdjust="spacing" textLength="84" x="632" y="105.0669">é referente a</text><text fill="#000000" font-family="sans-serif" font-size="13" lengthAdjust="spacing" textLength="15" x="583.0467" y="106.4246">0*</text><text fill="#000000" font-family="sans-serif" font-size="13" lengthAdjust="spacing" textLength="8" x="750.3365" y="176.5888">1</text><!--MD5=[3147b653d631aff453645938f05f69e4]
link Reserva to Duração--><path codeLine="45" d="M575.083,73.191 C620.915,71.095 696.534,67.639 746.803,65.341 " fill="none" id="Reserva-Duração" style="stroke:#A80036;stroke-width:1.0;"/><polygon fill="#000000" points="656.9948,58.3381,647.8249,55.8153,648.0933,61.687,656.9948,58.3381" style="stroke:#000000;stroke-width:1.0;"/><text fill="#000000" font-family="sans-serif" font-size="13" lengthAdjust="spacing" textLength="26" x="661" y="63.0669">tem</text><text fill="#000000" font-family="sans-serif" font-size="13" lengthAdjust="spacing" textLength="8" x="583.0243" y="86.2834">1</text><text fill="#000000" font-family="sans-serif" font-size="13" lengthAdjust="spacing" textLength="8" x="730.9003" y="78.8286">1</text><!--MD5=[3e39808c68d75979d0227602cd2392f7]
link Lugar to Preço--><path codeLine="47" d="M831.562,170.656 C869.29,161.878 932.07,147.271 969.992,138.447 " fill="none" id="Lugar-Preço" style="stroke:#A80036;stroke-width:1.0;"/><polygon fill="#000000" points="890.8699,141.4333,881.3941,140.6206,882.7262,146.3456,890.8699,141.4333" style="stroke:#000000;stroke-width:1.0;"/><text fill="#000000" font-family="sans-serif" font-size="13" lengthAdjust="spacing" textLength="26" x="895" y="147.0669">tem</text><text fill="#000000" font-family="sans-serif" font-size="13" lengthAdjust="spacing" textLength="8" x="839.5599" y="182.7715">1</text><text fill="#000000" font-family="sans-serif" font-size="13" lengthAdjust="spacing" textLength="8" x="953.8965" y="153.7981">1</text><!--MD5=[72517315f51e3c1cfdb97a2270c0d927]
link Parque to Lugar--><path codeLine="49" d="M335.129,222.902 C346.58,221.615 359.322,220.214 371,219 C518.777,203.639 695.548,187.32 766.378,180.865 " fill="none" id="Parque-Lugar" style="stroke:#A80036;stroke-width:1.0;"/><polygon fill="#000000" points="523.9764,189.0813,514.6889,187.0338,515.2591,192.8839,523.9764,189.0813" style="stroke:#000000;stroke-width:1.0;"/><text fill="#000000" font-family="sans-serif" font-size="13" lengthAdjust="spacing" textLength="26" x="528" y="194.0669">tem</text><text fill="#000000" font-family="sans-serif" font-size="13" lengthAdjust="spacing" textLength="8" x="342.8739" y="235.6301">1</text><text fill="#000000" font-family="sans-serif" font-size="13" lengthAdjust="spacing" textLength="15" x="743.479" y="194.9856">1*</text><!--MD5=[3f7724b18204e3b9d88ba74c97f9e53e]
link Parque to Morada--><path codeLine="50" d="M335.04,235.202 C373.779,244.141 436.172,258.5399 480.655,268.8052 " fill="none" id="Parque-Morada" style="stroke:#A80036;stroke-width:1.0;"/><polygon fill="#000000" points="400.372,236.6907,392.2193,231.7932,390.8977,237.5205,400.372,236.6907" style="stroke:#000000;stroke-width:1.0;"/><text fill="#000000" font-family="sans-serif" font-size="13" lengthAdjust="spacing" textLength="26" x="404.5" y="240.0669">tem</text><text fill="#000000" font-family="sans-serif" font-size="13" lengthAdjust="spacing" textLength="8" x="343.0213" y="250.3733">1</text><text fill="#000000" font-family="sans-serif" font-size="13" lengthAdjust="spacing" textLength="8" x="464.8821" y="280.2764">1</text><!--MD5=[5f363e7da27d4325081f8fe75b17f797]
link Lugar to Localização--><path codeLine="52" d="M831.562,185.344 C863.741,192.831 914.147,204.559 951.808,213.322 " fill="none" id="Lugar-Localização" style="stroke:#A80036;stroke-width:1.0;"/><polygon fill="#000000" points="890.8699,190.6995,882.7262,185.7872,881.3941,191.5122,890.8699,190.6995" style="stroke:#000000;stroke-width:1.0;"/><text fill="#000000" font-family="sans-serif" font-size="13" lengthAdjust="spacing" textLength="26" x="895" y="194.0669">tem</text><text fill="#000000" font-family="sans-serif" font-size="13" lengthAdjust="spacing" textLength="8" x="839.5599" y="200.6725">1</text><text fill="#000000" font-family="sans-serif" font-size="13" lengthAdjust="spacing" textLength="8" x="936.0466" y="224.7816">1</text><!--MD5=[411ccfd4c81072ddfd32e781a7a767f7]
@startuml
skinparam classAttributeIconSize 0
hide methods
left to right direction

class APIParque {}

class Cliente {
 -int Nif
 -string Nome
 -string Email
}

class Reserva {}

class Preço {}

class Parque {}

class Lugar {}

class Localização {
 -int Numero
 -int Fila
 -int Andar
}

class Duração {
 -dateTime Inicio
 -dateTime Fim
}

class Morada {
 -string Rua
 -string Freguesia
}

APIParque "1" - - "0*" Cliente : possui >
APIParque "1" - - "1*" Parque : é referente a >
APIParque "1" - - "0*" Reserva : possui >
APIParque "1" - - "0*" Lugar : aluga >

Cliente "1" - - "0*" Reserva : faz e gere >

Reserva "0*" - - "1" Lugar : é referente a >
Reserva "1" - - "1" Duração : tem >

Lugar "1" - - "1" Preço : tem >

Parque "1" - - "1*" Lugar : tem >
Parque "1" - - "1" Morada : tem >

Lugar "1" - - "1" Localização : tem >
@enduml

PlantUML version 1.2021.01beta3(Unknown compile time)
(GPL source distribution)
Java Runtime: Java(TM) SE Runtime Environment
JVM: Java HotSpot(TM) 64-Bit Server VM
Default Encoding: UTF-8
Language: en
Country: US
--></g></svg>