<?xml version="1.0" encoding="UTF-8" standalone="no"?><svg xmlns="http://www.w3.org/2000/svg" xmlns:xlink="http://www.w3.org/1999/xlink" contentScriptType="application/ecmascript" contentStyleType="text/css" height="990px" preserveAspectRatio="none" style="width:1710px;height:990px;" version="1.1" viewBox="0 0 1710 990" width="1710px" zoomAndPan="magnify"><defs><filter height="300%" id="fh3zq87izzogq" width="300%" x="-1" y="-1"><feGaussianBlur result="blurOut" stdDeviation="2.0"/><feColorMatrix in="blurOut" result="blurOut2" type="matrix" values="0 0 0 0 0 0 0 0 0 0 0 0 0 0 0 0 0 0 .4 0"/><feOffset dx="4.0" dy="4.0" in="blurOut2" result="blurOut3"/><feBlend in="SourceGraphic" in2="blurOut3" mode="normal"/></filter></defs><g><!--MD5=[38129dd771424f36b121b079983d2f41]
class APISistemaCentral--><rect codeLine="9" fill="#FEFECE" filter="url(#fh3zq87izzogq)" height="40" id="APISistemaCentral" style="stroke:#A80036;stroke-width:1.5;" width="139" x="7" y="589.5659"/><ellipse cx="22" cy="605.5659" fill="#ADD1B2" rx="11" ry="11" style="stroke:#A80036;stroke-width:1.0;"/><path d="M24.3438,601.2378 C23.4063,600.8003 22.8125,600.6597 21.9375,600.6597 C19.3125,600.6597 17.3125,602.7378 17.3125,605.4565 L17.3125,606.5815 C17.3125,609.1597 19.4219,611.0503 22.3125,611.0503 C23.5313,611.0503 24.6875,610.7534 25.4375,610.2065 C26.0156,609.8003 26.3438,609.3472 26.3438,608.9565 C26.3438,608.5034 25.9531,608.1128 25.4844,608.1128 C25.2656,608.1128 25.0625,608.1909 24.875,608.3784 C24.4219,608.8628 24.4219,608.8628 24.2344,608.9565 C23.8125,609.2222 23.125,609.3472 22.3594,609.3472 C20.3125,609.3472 19.0156,608.2534 19.0156,606.5503 L19.0156,605.4565 C19.0156,603.6753 20.2656,602.3628 22,602.3628 C22.5781,602.3628 23.1875,602.519 23.6563,602.769 C24.1406,603.0503 24.3125,603.269 24.4063,603.6753 C24.4688,604.0815 24.5,604.2065 24.6406,604.3315 C24.7813,604.4722 25.0156,604.5815 25.2344,604.5815 C25.5,604.5815 25.7656,604.4409 25.9375,604.2222 C26.0469,604.0659 26.0781,603.8784 26.0781,603.4565 L26.0781,602.0347 C26.0781,601.5972 26.0625,601.4722 25.9688,601.3159 C25.8125,601.0503 25.5313,600.9097 25.2344,600.9097 C24.9375,600.9097 24.7344,601.0034 24.5156,601.3159 L24.3438,601.2378 Z " fill="#000000"/><text fill="#000000" font-family="sans-serif" font-size="12" lengthAdjust="spacing" textLength="107" x="36" y="609.7202">APISistemaCentral</text><line style="stroke:#A80036;stroke-width:1.5;" x1="8" x2="145" y1="621.5659" y2="621.5659"/><!--MD5=[1654698dbf1dab33aeaf9b6eaf8a8ac4]
class APIParque--><rect codeLine="7" fill="#FEFECE" filter="url(#fh3zq87izzogq)" height="40" id="APIParque" style="stroke:#A80036;stroke-width:1.5;" width="90" x="288.5" y="204.5659"/><ellipse cx="303.5" cy="220.5659" fill="#ADD1B2" rx="11" ry="11" style="stroke:#A80036;stroke-width:1.0;"/><path d="M305.8438,216.2378 C304.9063,215.8003 304.3125,215.6597 303.4375,215.6597 C300.8125,215.6597 298.8125,217.7378 298.8125,220.4565 L298.8125,221.5815 C298.8125,224.1597 300.9219,226.0503 303.8125,226.0503 C305.0313,226.0503 306.1875,225.7534 306.9375,225.2065 C307.5156,224.8003 307.8438,224.3472 307.8438,223.9565 C307.8438,223.5034 307.4531,223.1128 306.9844,223.1128 C306.7656,223.1128 306.5625,223.1909 306.375,223.3784 C305.9219,223.8628 305.9219,223.8628 305.7344,223.9565 C305.3125,224.2222 304.625,224.3472 303.8594,224.3472 C301.8125,224.3472 300.5156,223.2534 300.5156,221.5503 L300.5156,220.4565 C300.5156,218.6753 301.7656,217.3628 303.5,217.3628 C304.0781,217.3628 304.6875,217.519 305.1563,217.769 C305.6406,218.0503 305.8125,218.269 305.9063,218.6753 C305.9688,219.0815 306,219.2065 306.1406,219.3315 C306.2813,219.4722 306.5156,219.5815 306.7344,219.5815 C307,219.5815 307.2656,219.4409 307.4375,219.2222 C307.5469,219.0659 307.5781,218.8784 307.5781,218.4565 L307.5781,217.0347 C307.5781,216.5972 307.5625,216.4722 307.4688,216.3159 C307.3125,216.0503 307.0313,215.9097 306.7344,215.9097 C306.4375,215.9097 306.2344,216.0034 306.0156,216.3159 L305.8438,216.2378 Z " fill="#000000"/><text fill="#000000" font-family="sans-serif" font-size="12" lengthAdjust="spacing" textLength="58" x="317.5" y="224.7202">APIParque</text><line style="stroke:#A80036;stroke-width:1.5;" x1="289.5" x2="377.5" y1="236.5659" y2="236.5659"/><!--MD5=[19853574c7a77dd38c1a45d47059c05f]
class APPWeb--><rect codeLine="11" fill="#FEFECE" filter="url(#fh3zq87izzogq)" height="40" id="APPWeb" style="stroke:#A80036;stroke-width:1.5;" width="80" x="293.5" y="457.5659"/><ellipse cx="308.5" cy="473.5659" fill="#ADD1B2" rx="11" ry="11" style="stroke:#A80036;stroke-width:1.0;"/><path d="M310.8438,469.2378 C309.9063,468.8003 309.3125,468.6597 308.4375,468.6597 C305.8125,468.6597 303.8125,470.7378 303.8125,473.4565 L303.8125,474.5815 C303.8125,477.1597 305.9219,479.0503 308.8125,479.0503 C310.0313,479.0503 311.1875,478.7534 311.9375,478.2065 C312.5156,477.8003 312.8438,477.3472 312.8438,476.9565 C312.8438,476.5034 312.4531,476.1128 311.9844,476.1128 C311.7656,476.1128 311.5625,476.1909 311.375,476.3784 C310.9219,476.8628 310.9219,476.8628 310.7344,476.9565 C310.3125,477.2222 309.625,477.3472 308.8594,477.3472 C306.8125,477.3472 305.5156,476.2534 305.5156,474.5503 L305.5156,473.4565 C305.5156,471.6753 306.7656,470.3628 308.5,470.3628 C309.0781,470.3628 309.6875,470.519 310.1563,470.769 C310.6406,471.0503 310.8125,471.269 310.9063,471.6753 C310.9688,472.0815 311,472.2065 311.1406,472.3315 C311.2813,472.4722 311.5156,472.5815 311.7344,472.5815 C312,472.5815 312.2656,472.4409 312.4375,472.2222 C312.5469,472.0659 312.5781,471.8784 312.5781,471.4565 L312.5781,470.0347 C312.5781,469.5972 312.5625,469.4722 312.4688,469.3159 C312.3125,469.0503 312.0313,468.9097 311.7344,468.9097 C311.4375,468.9097 311.2344,469.0034 311.0156,469.3159 L310.8438,469.2378 Z " fill="#000000"/><text fill="#000000" font-family="sans-serif" font-size="12" lengthAdjust="spacing" textLength="48" x="322.5" y="477.7202">APPWeb</text><line style="stroke:#A80036;stroke-width:1.5;" x1="294.5" x2="372.5" y1="489.5659" y2="489.5659"/><!--MD5=[20a748d5ee336a9a91751b0a3d4f0beb]
class Cliente--><rect codeLine="13" fill="#FEFECE" filter="url(#fh3zq87izzogq)" height="78.4141" id="Cliente" style="stroke:#A80036;stroke-width:1.5;" width="85" x="640.5" y="520.5659"/><ellipse cx="660.9" cy="536.5659" fill="#ADD1B2" rx="11" ry="11" style="stroke:#A80036;stroke-width:1.0;"/><path d="M663.2438,532.2378 C662.3063,531.8003 661.7125,531.6597 660.8375,531.6597 C658.2125,531.6597 656.2125,533.7378 656.2125,536.4565 L656.2125,537.5815 C656.2125,540.1597 658.3219,542.0503 661.2125,542.0503 C662.4313,542.0503 663.5875,541.7534 664.3375,541.2065 C664.9156,540.8003 665.2438,540.3472 665.2438,539.9565 C665.2438,539.5034 664.8531,539.1128 664.3844,539.1128 C664.1656,539.1128 663.9625,539.1909 663.775,539.3784 C663.3219,539.8628 663.3219,539.8628 663.1344,539.9565 C662.7125,540.2222 662.025,540.3472 661.2594,540.3472 C659.2125,540.3472 657.9156,539.2534 657.9156,537.5503 L657.9156,536.4565 C657.9156,534.6753 659.1656,533.3628 660.9,533.3628 C661.4781,533.3628 662.0875,533.519 662.5563,533.769 C663.0406,534.0503 663.2125,534.269 663.3063,534.6753 C663.3688,535.0815 663.4,535.2065 663.5406,535.3315 C663.6813,535.4722 663.9156,535.5815 664.1344,535.5815 C664.4,535.5815 664.6656,535.4409 664.8375,535.2222 C664.9469,535.0659 664.9781,534.8784 664.9781,534.4565 L664.9781,533.0347 C664.9781,532.5972 664.9625,532.4722 664.8688,532.3159 C664.7125,532.0503 664.4313,531.9097 664.1344,531.9097 C663.8375,531.9097 663.6344,532.0034 663.4156,532.3159 L663.2438,532.2378 Z " fill="#000000"/><text fill="#000000" font-family="sans-serif" font-size="12" lengthAdjust="spacing" textLength="41" x="676.1" y="540.7202">Cliente</text><line style="stroke:#A80036;stroke-width:1.5;" x1="641.5" x2="724.5" y1="552.5659" y2="552.5659"/><text fill="#000000" font-family="sans-serif" font-size="11" lengthAdjust="spacing" textLength="37" x="646.5" y="566.7764">-int Nif</text><text fill="#000000" font-family="sans-serif" font-size="11" lengthAdjust="spacing" textLength="73" x="646.5" y="579.5811">-string Nome</text><text fill="#000000" font-family="sans-serif" font-size="11" lengthAdjust="spacing" textLength="70" x="646.5" y="592.3857">-string Email</text><!--MD5=[6ea9d6598d9760662639554c9857ab6b]
class Reserva--><rect codeLine="19" fill="#FEFECE" filter="url(#fh3zq87izzogq)" height="40" id="Reserva" style="stroke:#A80036;stroke-width:1.5;" width="81" x="1149" y="492.5659"/><ellipse cx="1164" cy="508.5659" fill="#ADD1B2" rx="11" ry="11" style="stroke:#A80036;stroke-width:1.0;"/><path d="M1166.3438,504.2378 C1165.4063,503.8003 1164.8125,503.6597 1163.9375,503.6597 C1161.3125,503.6597 1159.3125,505.7378 1159.3125,508.4565 L1159.3125,509.5815 C1159.3125,512.1597 1161.4219,514.0503 1164.3125,514.0503 C1165.5313,514.0503 1166.6875,513.7534 1167.4375,513.2065 C1168.0156,512.8003 1168.3438,512.3472 1168.3438,511.9565 C1168.3438,511.5034 1167.9531,511.1128 1167.4844,511.1128 C1167.2656,511.1128 1167.0625,511.1909 1166.875,511.3784 C1166.4219,511.8628 1166.4219,511.8628 1166.2344,511.9565 C1165.8125,512.2222 1165.125,512.3472 1164.3594,512.3472 C1162.3125,512.3472 1161.0156,511.2534 1161.0156,509.5503 L1161.0156,508.4565 C1161.0156,506.6753 1162.2656,505.3628 1164,505.3628 C1164.5781,505.3628 1165.1875,505.519 1165.6563,505.769 C1166.1406,506.0503 1166.3125,506.269 1166.4063,506.6753 C1166.4688,507.0815 1166.5,507.2065 1166.6406,507.3315 C1166.7813,507.4722 1167.0156,507.5815 1167.2344,507.5815 C1167.5,507.5815 1167.7656,507.4409 1167.9375,507.2222 C1168.0469,507.0659 1168.0781,506.8784 1168.0781,506.4565 L1168.0781,505.0347 C1168.0781,504.5972 1168.0625,504.4722 1167.9688,504.3159 C1167.8125,504.0503 1167.5313,503.9097 1167.2344,503.9097 C1166.9375,503.9097 1166.7344,504.0034 1166.5156,504.3159 L1166.3438,504.2378 Z " fill="#000000"/><text fill="#000000" font-family="sans-serif" font-size="12" lengthAdjust="spacing" textLength="49" x="1178" y="512.7202">Reserva</text><line style="stroke:#A80036;stroke-width:1.5;" x1="1150" x2="1229" y1="524.5659" y2="524.5659"/><!--MD5=[422caa1b20ead34cd492b75378c11008]
class EmailDeConfirmação--><rect codeLine="21" fill="#FEFECE" filter="url(#fh3zq87izzogq)" height="40" id="EmailDeConfirmação" style="stroke:#A80036;stroke-width:1.5;" width="155" x="256" y="793.5659"/><ellipse cx="271" cy="809.5659" fill="#ADD1B2" rx="11" ry="11" style="stroke:#A80036;stroke-width:1.0;"/><path d="M273.3438,805.2378 C272.4063,804.8003 271.8125,804.6597 270.9375,804.6597 C268.3125,804.6597 266.3125,806.7378 266.3125,809.4565 L266.3125,810.5815 C266.3125,813.1597 268.4219,815.0503 271.3125,815.0503 C272.5313,815.0503 273.6875,814.7534 274.4375,814.2065 C275.0156,813.8003 275.3438,813.3472 275.3438,812.9565 C275.3438,812.5034 274.9531,812.1128 274.4844,812.1128 C274.2656,812.1128 274.0625,812.1909 273.875,812.3784 C273.4219,812.8628 273.4219,812.8628 273.2344,812.9565 C272.8125,813.2222 272.125,813.3472 271.3594,813.3472 C269.3125,813.3472 268.0156,812.2534 268.0156,810.5503 L268.0156,809.4565 C268.0156,807.6753 269.2656,806.3628 271,806.3628 C271.5781,806.3628 272.1875,806.519 272.6563,806.769 C273.1406,807.0503 273.3125,807.269 273.4063,807.6753 C273.4688,808.0815 273.5,808.2065 273.6406,808.3315 C273.7813,808.4722 274.0156,808.5815 274.2344,808.5815 C274.5,808.5815 274.7656,808.4409 274.9375,808.2222 C275.0469,808.0659 275.0781,807.8784 275.0781,807.4565 L275.0781,806.0347 C275.0781,805.5972 275.0625,805.4722 274.9688,805.3159 C274.8125,805.0503 274.5313,804.9097 274.2344,804.9097 C273.9375,804.9097 273.7344,805.0034 273.5156,805.3159 L273.3438,805.2378 Z " fill="#000000"/><text fill="#000000" font-family="sans-serif" font-size="12" lengthAdjust="spacing" textLength="123" x="285" y="813.7202">EmailDeConfirmação</text><line style="stroke:#A80036;stroke-width:1.5;" x1="257" x2="410" y1="825.5659" y2="825.5659"/><!--MD5=[ec8f5e6a0bb5c1192bcc4a64c9a89492]
class Preço--><rect codeLine="23" fill="#FEFECE" filter="url(#fh3zq87izzogq)" height="40" id="Preço" style="stroke:#A80036;stroke-width:1.5;" width="66" x="1612" y="85.5659"/><ellipse cx="1627" cy="101.5659" fill="#ADD1B2" rx="11" ry="11" style="stroke:#A80036;stroke-width:1.0;"/><path d="M1629.3438,97.2378 C1628.4063,96.8003 1627.8125,96.6597 1626.9375,96.6597 C1624.3125,96.6597 1622.3125,98.7378 1622.3125,101.4565 L1622.3125,102.5815 C1622.3125,105.1597 1624.4219,107.0503 1627.3125,107.0503 C1628.5313,107.0503 1629.6875,106.7534 1630.4375,106.2065 C1631.0156,105.8003 1631.3438,105.3472 1631.3438,104.9565 C1631.3438,104.5034 1630.9531,104.1128 1630.4844,104.1128 C1630.2656,104.1128 1630.0625,104.1909 1629.875,104.3784 C1629.4219,104.8628 1629.4219,104.8628 1629.2344,104.9565 C1628.8125,105.2222 1628.125,105.3472 1627.3594,105.3472 C1625.3125,105.3472 1624.0156,104.2534 1624.0156,102.5503 L1624.0156,101.4565 C1624.0156,99.6753 1625.2656,98.3628 1627,98.3628 C1627.5781,98.3628 1628.1875,98.519 1628.6563,98.769 C1629.1406,99.0503 1629.3125,99.269 1629.4063,99.6753 C1629.4688,100.0815 1629.5,100.2065 1629.6406,100.3315 C1629.7813,100.4722 1630.0156,100.5815 1630.2344,100.5815 C1630.5,100.5815 1630.7656,100.4409 1630.9375,100.2222 C1631.0469,100.0659 1631.0781,99.8784 1631.0781,99.4565 L1631.0781,98.0347 C1631.0781,97.5972 1631.0625,97.4722 1630.9688,97.3159 C1630.8125,97.0503 1630.5313,96.9097 1630.2344,96.9097 C1629.9375,96.9097 1629.7344,97.0034 1629.5156,97.3159 L1629.3438,97.2378 Z " fill="#000000"/><text fill="#000000" font-family="sans-serif" font-size="12" lengthAdjust="spacing" textLength="34" x="1641" y="105.7202">Preço</text><line style="stroke:#A80036;stroke-width:1.5;" x1="1613" x2="1677" y1="117.5659" y2="117.5659"/><!--MD5=[6f49f9179445ef1754d85aa01a9c4eb7]
class Custo--><rect codeLine="25" fill="#FEFECE" filter="url(#fh3zq87izzogq)" height="40" id="Custo" style="stroke:#A80036;stroke-width:1.5;" width="66" x="1408" y="448.5659"/><ellipse cx="1423" cy="464.5659" fill="#ADD1B2" rx="11" ry="11" style="stroke:#A80036;stroke-width:1.0;"/><path d="M1425.3438,460.2378 C1424.4063,459.8003 1423.8125,459.6597 1422.9375,459.6597 C1420.3125,459.6597 1418.3125,461.7378 1418.3125,464.4565 L1418.3125,465.5815 C1418.3125,468.1597 1420.4219,470.0503 1423.3125,470.0503 C1424.5313,470.0503 1425.6875,469.7534 1426.4375,469.2065 C1427.0156,468.8003 1427.3438,468.3472 1427.3438,467.9565 C1427.3438,467.5034 1426.9531,467.1128 1426.4844,467.1128 C1426.2656,467.1128 1426.0625,467.1909 1425.875,467.3784 C1425.4219,467.8628 1425.4219,467.8628 1425.2344,467.9565 C1424.8125,468.2222 1424.125,468.3472 1423.3594,468.3472 C1421.3125,468.3472 1420.0156,467.2534 1420.0156,465.5503 L1420.0156,464.4565 C1420.0156,462.6753 1421.2656,461.3628 1423,461.3628 C1423.5781,461.3628 1424.1875,461.519 1424.6563,461.769 C1425.1406,462.0503 1425.3125,462.269 1425.4063,462.6753 C1425.4688,463.0815 1425.5,463.2065 1425.6406,463.3315 C1425.7813,463.4722 1426.0156,463.5815 1426.2344,463.5815 C1426.5,463.5815 1426.7656,463.4409 1426.9375,463.2222 C1427.0469,463.0659 1427.0781,462.8784 1427.0781,462.4565 L1427.0781,461.0347 C1427.0781,460.5972 1427.0625,460.4722 1426.9688,460.3159 C1426.8125,460.0503 1426.5313,459.9097 1426.2344,459.9097 C1425.9375,459.9097 1425.7344,460.0034 1425.5156,460.3159 L1425.3438,460.2378 Z " fill="#000000"/><text fill="#000000" font-family="sans-serif" font-size="12" lengthAdjust="spacing" textLength="34" x="1437" y="468.7202">Custo</text><line style="stroke:#A80036;stroke-width:1.5;" x1="1409" x2="1473" y1="480.5659" y2="480.5659"/><!--MD5=[1a083dbe42a284ae0ea7f6f701783206]
class Parque--><rect codeLine="27" fill="#FEFECE" filter="url(#fh3zq87izzogq)" height="40" id="Parque" style="stroke:#A80036;stroke-width:1.5;" width="73" x="646.5" y="47.5659"/><ellipse cx="661.5" cy="63.5659" fill="#ADD1B2" rx="11" ry="11" style="stroke:#A80036;stroke-width:1.0;"/><path d="M663.8438,59.2378 C662.9063,58.8003 662.3125,58.6597 661.4375,58.6597 C658.8125,58.6597 656.8125,60.7378 656.8125,63.4565 L656.8125,64.5815 C656.8125,67.1597 658.9219,69.0503 661.8125,69.0503 C663.0313,69.0503 664.1875,68.7534 664.9375,68.2065 C665.5156,67.8003 665.8438,67.3472 665.8438,66.9565 C665.8438,66.5034 665.4531,66.1128 664.9844,66.1128 C664.7656,66.1128 664.5625,66.1909 664.375,66.3784 C663.9219,66.8628 663.9219,66.8628 663.7344,66.9565 C663.3125,67.2222 662.625,67.3472 661.8594,67.3472 C659.8125,67.3472 658.5156,66.2534 658.5156,64.5503 L658.5156,63.4565 C658.5156,61.6753 659.7656,60.3628 661.5,60.3628 C662.0781,60.3628 662.6875,60.519 663.1563,60.769 C663.6406,61.0503 663.8125,61.269 663.9063,61.6753 C663.9688,62.0815 664,62.2065 664.1406,62.3315 C664.2813,62.4722 664.5156,62.5815 664.7344,62.5815 C665,62.5815 665.2656,62.4409 665.4375,62.2222 C665.5469,62.0659 665.5781,61.8784 665.5781,61.4565 L665.5781,60.0347 C665.5781,59.5972 665.5625,59.4722 665.4688,59.3159 C665.3125,59.0503 665.0313,58.9097 664.7344,58.9097 C664.4375,58.9097 664.2344,59.0034 664.0156,59.3159 L663.8438,59.2378 Z " fill="#000000"/><text fill="#000000" font-family="sans-serif" font-size="12" lengthAdjust="spacing" textLength="41" x="675.5" y="67.7202">Parque</text><line style="stroke:#A80036;stroke-width:1.5;" x1="647.5" x2="718.5" y1="79.5659" y2="79.5659"/><!--MD5=[6129de384f1bcacbc1ea3ec83eb0d64e]
class Lugar--><rect codeLine="29" fill="#FEFECE" filter="url(#fh3zq87izzogq)" height="40" id="Lugar" style="stroke:#A80036;stroke-width:1.5;" width="65" x="1408.5" y="132.5659"/><ellipse cx="1423.5" cy="148.5659" fill="#ADD1B2" rx="11" ry="11" style="stroke:#A80036;stroke-width:1.0;"/><path d="M1425.8438,144.2378 C1424.9063,143.8003 1424.3125,143.6597 1423.4375,143.6597 C1420.8125,143.6597 1418.8125,145.7378 1418.8125,148.4565 L1418.8125,149.5815 C1418.8125,152.1597 1420.9219,154.0503 1423.8125,154.0503 C1425.0313,154.0503 1426.1875,153.7534 1426.9375,153.2065 C1427.5156,152.8003 1427.8438,152.3472 1427.8438,151.9565 C1427.8438,151.5034 1427.4531,151.1128 1426.9844,151.1128 C1426.7656,151.1128 1426.5625,151.1909 1426.375,151.3784 C1425.9219,151.8628 1425.9219,151.8628 1425.7344,151.9565 C1425.3125,152.2222 1424.625,152.3472 1423.8594,152.3472 C1421.8125,152.3472 1420.5156,151.2534 1420.5156,149.5503 L1420.5156,148.4565 C1420.5156,146.6753 1421.7656,145.3628 1423.5,145.3628 C1424.0781,145.3628 1424.6875,145.519 1425.1563,145.769 C1425.6406,146.0503 1425.8125,146.269 1425.9063,146.6753 C1425.9688,147.0815 1426,147.2065 1426.1406,147.3315 C1426.2813,147.4722 1426.5156,147.5815 1426.7344,147.5815 C1427,147.5815 1427.2656,147.4409 1427.4375,147.2222 C1427.5469,147.0659 1427.5781,146.8784 1427.5781,146.4565 L1427.5781,145.0347 C1427.5781,144.5972 1427.5625,144.4722 1427.4688,144.3159 C1427.3125,144.0503 1427.0313,143.9097 1426.7344,143.9097 C1426.4375,143.9097 1426.2344,144.0034 1426.0156,144.3159 L1425.8438,144.2378 Z " fill="#000000"/><text fill="#000000" font-family="sans-serif" font-size="12" lengthAdjust="spacing" textLength="33" x="1437.5" y="152.7202">Lugar</text><line style="stroke:#A80036;stroke-width:1.5;" x1="1409.5" x2="1472.5" y1="164.5659" y2="164.5659"/><!--MD5=[53d7157415ddfdf8a565a9d974d385cc]
class Localização--><rect codeLine="31" fill="#FEFECE" filter="url(#fh3zq87izzogq)" height="78.4141" id="Localização" style="stroke:#A80036;stroke-width:1.5;" width="102" x="1594" y="160.5659"/><ellipse cx="1609" cy="176.5659" fill="#ADD1B2" rx="11" ry="11" style="stroke:#A80036;stroke-width:1.0;"/><path d="M1611.3438,172.2378 C1610.4063,171.8003 1609.8125,171.6597 1608.9375,171.6597 C1606.3125,171.6597 1604.3125,173.7378 1604.3125,176.4565 L1604.3125,177.5815 C1604.3125,180.1597 1606.4219,182.0503 1609.3125,182.0503 C1610.5313,182.0503 1611.6875,181.7534 1612.4375,181.2065 C1613.0156,180.8003 1613.3438,180.3472 1613.3438,179.9565 C1613.3438,179.5034 1612.9531,179.1128 1612.4844,179.1128 C1612.2656,179.1128 1612.0625,179.1909 1611.875,179.3784 C1611.4219,179.8628 1611.4219,179.8628 1611.2344,179.9565 C1610.8125,180.2222 1610.125,180.3472 1609.3594,180.3472 C1607.3125,180.3472 1606.0156,179.2534 1606.0156,177.5503 L1606.0156,176.4565 C1606.0156,174.6753 1607.2656,173.3628 1609,173.3628 C1609.5781,173.3628 1610.1875,173.519 1610.6563,173.769 C1611.1406,174.0503 1611.3125,174.269 1611.4063,174.6753 C1611.4688,175.0815 1611.5,175.2065 1611.6406,175.3315 C1611.7813,175.4722 1612.0156,175.5815 1612.2344,175.5815 C1612.5,175.5815 1612.7656,175.4409 1612.9375,175.2222 C1613.0469,175.0659 1613.0781,174.8784 1613.0781,174.4565 L1613.0781,173.0347 C1613.0781,172.5972 1613.0625,172.4722 1612.9688,172.3159 C1612.8125,172.0503 1612.5313,171.9097 1612.2344,171.9097 C1611.9375,171.9097 1611.7344,172.0034 1611.5156,172.3159 L1611.3438,172.2378 Z " fill="#000000"/><text fill="#000000" font-family="sans-serif" font-size="12" lengthAdjust="spacing" textLength="70" x="1623" y="180.7202">Localização</text><line style="stroke:#A80036;stroke-width:1.5;" x1="1595" x2="1695" y1="192.5659" y2="192.5659"/><text fill="#000000" font-family="sans-serif" font-size="11" lengthAdjust="spacing" textLength="67" x="1600" y="206.7764">-int Numero</text><text fill="#000000" font-family="sans-serif" font-size="11" lengthAdjust="spacing" textLength="41" x="1600" y="219.5811">-int Fila</text><text fill="#000000" font-family="sans-serif" font-size="11" lengthAdjust="spacing" textLength="55" x="1600" y="232.3857">-int Andar</text><!--MD5=[15ae23301f4536208a2daf13431a8a82]
class SubAluguer--><rect codeLine="37" fill="#FEFECE" filter="url(#fh3zq87izzogq)" height="40" id="SubAluguer" style="stroke:#A80036;stroke-width:1.5;" width="101" x="944" y="366.5659"/><ellipse cx="959" cy="382.5659" fill="#ADD1B2" rx="11" ry="11" style="stroke:#A80036;stroke-width:1.0;"/><path d="M961.3438,378.2378 C960.4063,377.8003 959.8125,377.6597 958.9375,377.6597 C956.3125,377.6597 954.3125,379.7378 954.3125,382.4565 L954.3125,383.5815 C954.3125,386.1597 956.4219,388.0503 959.3125,388.0503 C960.5313,388.0503 961.6875,387.7534 962.4375,387.2065 C963.0156,386.8003 963.3438,386.3472 963.3438,385.9565 C963.3438,385.5034 962.9531,385.1128 962.4844,385.1128 C962.2656,385.1128 962.0625,385.1909 961.875,385.3784 C961.4219,385.8628 961.4219,385.8628 961.2344,385.9565 C960.8125,386.2222 960.125,386.3472 959.3594,386.3472 C957.3125,386.3472 956.0156,385.2534 956.0156,383.5503 L956.0156,382.4565 C956.0156,380.6753 957.2656,379.3628 959,379.3628 C959.5781,379.3628 960.1875,379.519 960.6563,379.769 C961.1406,380.0503 961.3125,380.269 961.4063,380.6753 C961.4688,381.0815 961.5,381.2065 961.6406,381.3315 C961.7813,381.4722 962.0156,381.5815 962.2344,381.5815 C962.5,381.5815 962.7656,381.4409 962.9375,381.2222 C963.0469,381.0659 963.0781,380.8784 963.0781,380.4565 L963.0781,379.0347 C963.0781,378.5972 963.0625,378.4722 962.9688,378.3159 C962.8125,378.0503 962.5313,377.9097 962.2344,377.9097 C961.9375,377.9097 961.7344,378.0034 961.5156,378.3159 L961.3438,378.2378 Z " fill="#000000"/><text fill="#000000" font-family="sans-serif" font-size="12" lengthAdjust="spacing" textLength="69" x="973" y="386.7202">SubAluguer</text><line style="stroke:#A80036;stroke-width:1.5;" x1="945" x2="1044" y1="398.5659" y2="398.5659"/><!--MD5=[ec92ce9971d25c6d018a00153947441a]
class MétodoDePagamento--><rect codeLine="39" fill="#FEFECE" filter="url(#fh3zq87izzogq)" height="40" id="MétodoDePagamento" style="stroke:#A80036;stroke-width:1.5;" width="161" x="441" y="871.5654"/><ellipse cx="456" cy="887.5654" fill="#ADD1B2" rx="11" ry="11" style="stroke:#A80036;stroke-width:1.0;"/><path d="M458.3438,883.2373 C457.4063,882.7998 456.8125,882.6592 455.9375,882.6592 C453.3125,882.6592 451.3125,884.7373 451.3125,887.456 L451.3125,888.581 C451.3125,891.1592 453.4219,893.0498 456.3125,893.0498 C457.5313,893.0498 458.6875,892.7529 459.4375,892.206 C460.0156,891.7998 460.3438,891.3467 460.3438,890.956 C460.3438,890.5029 459.9531,890.1123 459.4844,890.1123 C459.2656,890.1123 459.0625,890.1904 458.875,890.3779 C458.4219,890.8623 458.4219,890.8623 458.2344,890.956 C457.8125,891.2217 457.125,891.3467 456.3594,891.3467 C454.3125,891.3467 453.0156,890.2529 453.0156,888.5498 L453.0156,887.456 C453.0156,885.6748 454.2656,884.3623 456,884.3623 C456.5781,884.3623 457.1875,884.5185 457.6563,884.7685 C458.1406,885.0498 458.3125,885.2685 458.4063,885.6748 C458.4688,886.081 458.5,886.206 458.6406,886.331 C458.7813,886.4717 459.0156,886.581 459.2344,886.581 C459.5,886.581 459.7656,886.4404 459.9375,886.2217 C460.0469,886.0654 460.0781,885.8779 460.0781,885.456 L460.0781,884.0342 C460.0781,883.5967 460.0625,883.4717 459.9688,883.3154 C459.8125,883.0498 459.5313,882.9092 459.2344,882.9092 C458.9375,882.9092 458.7344,883.0029 458.5156,883.3154 L458.3438,883.2373 Z " fill="#000000"/><text fill="#000000" font-family="sans-serif" font-size="12" lengthAdjust="spacing" textLength="129" x="470" y="891.7197">MétodoDePagamento</text><line style="stroke:#A80036;stroke-width:1.5;" x1="442" x2="601" y1="903.5654" y2="903.5654"/><!--MD5=[db710054b49517484ab0764fde030c77]
class APIQRCode--><rect codeLine="41" fill="#FEFECE" filter="url(#fh3zq87izzogq)" height="40" id="APIQRCode" style="stroke:#A80036;stroke-width:1.5;" width="98" x="634" y="725.5659"/><ellipse cx="649" cy="741.5659" fill="#ADD1B2" rx="11" ry="11" style="stroke:#A80036;stroke-width:1.0;"/><path d="M651.3438,737.2378 C650.4063,736.8003 649.8125,736.6597 648.9375,736.6597 C646.3125,736.6597 644.3125,738.7378 644.3125,741.4565 L644.3125,742.5815 C644.3125,745.1597 646.4219,747.0503 649.3125,747.0503 C650.5313,747.0503 651.6875,746.7534 652.4375,746.2065 C653.0156,745.8003 653.3438,745.3472 653.3438,744.9565 C653.3438,744.5034 652.9531,744.1128 652.4844,744.1128 C652.2656,744.1128 652.0625,744.1909 651.875,744.3784 C651.4219,744.8628 651.4219,744.8628 651.2344,744.9565 C650.8125,745.2222 650.125,745.3472 649.3594,745.3472 C647.3125,745.3472 646.0156,744.2534 646.0156,742.5503 L646.0156,741.4565 C646.0156,739.6753 647.2656,738.3628 649,738.3628 C649.5781,738.3628 650.1875,738.519 650.6563,738.769 C651.1406,739.0503 651.3125,739.269 651.4063,739.6753 C651.4688,740.0815 651.5,740.2065 651.6406,740.3315 C651.7813,740.4722 652.0156,740.5815 652.2344,740.5815 C652.5,740.5815 652.7656,740.4409 652.9375,740.2222 C653.0469,740.0659 653.0781,739.8784 653.0781,739.4565 L653.0781,738.0347 C653.0781,737.5972 653.0625,737.4722 652.9688,737.3159 C652.8125,737.0503 652.5313,736.9097 652.2344,736.9097 C651.9375,736.9097 651.7344,737.0034 651.5156,737.3159 L651.3438,737.2378 Z " fill="#000000"/><text fill="#000000" font-family="sans-serif" font-size="12" lengthAdjust="spacing" textLength="66" x="663" y="745.7202">APIQRCode</text><line style="stroke:#A80036;stroke-width:1.5;" x1="635" x2="731" y1="757.5659" y2="757.5659"/><!--MD5=[3008f5efaa3e7cb421914c717b209816]
class Duração--><rect codeLine="43" fill="#FEFECE" filter="url(#fh3zq87izzogq)" height="65.6094" id="Duração" style="stroke:#A80036;stroke-width:1.5;" width="104" x="1389" y="523.5659"/><ellipse cx="1413.9" cy="539.5659" fill="#ADD1B2" rx="11" ry="11" style="stroke:#A80036;stroke-width:1.0;"/><path d="M1416.2438,535.2378 C1415.3063,534.8003 1414.7125,534.6597 1413.8375,534.6597 C1411.2125,534.6597 1409.2125,536.7378 1409.2125,539.4565 L1409.2125,540.5815 C1409.2125,543.1597 1411.3219,545.0503 1414.2125,545.0503 C1415.4313,545.0503 1416.5875,544.7534 1417.3375,544.2065 C1417.9156,543.8003 1418.2438,543.3472 1418.2438,542.9565 C1418.2438,542.5034 1417.8531,542.1128 1417.3844,542.1128 C1417.1656,542.1128 1416.9625,542.1909 1416.775,542.3784 C1416.3219,542.8628 1416.3219,542.8628 1416.1344,542.9565 C1415.7125,543.2222 1415.025,543.3472 1414.2594,543.3472 C1412.2125,543.3472 1410.9156,542.2534 1410.9156,540.5503 L1410.9156,539.4565 C1410.9156,537.6753 1412.1656,536.3628 1413.9,536.3628 C1414.4781,536.3628 1415.0875,536.519 1415.5563,536.769 C1416.0406,537.0503 1416.2125,537.269 1416.3063,537.6753 C1416.3688,538.0815 1416.4,538.2065 1416.5406,538.3315 C1416.6813,538.4722 1416.9156,538.5815 1417.1344,538.5815 C1417.4,538.5815 1417.6656,538.4409 1417.8375,538.2222 C1417.9469,538.0659 1417.9781,537.8784 1417.9781,537.4565 L1417.9781,536.0347 C1417.9781,535.5972 1417.9625,535.4722 1417.8688,535.3159 C1417.7125,535.0503 1417.4313,534.9097 1417.1344,534.9097 C1416.8375,534.9097 1416.6344,535.0034 1416.4156,535.3159 L1416.2438,535.2378 Z " fill="#000000"/><text fill="#000000" font-family="sans-serif" font-size="12" lengthAdjust="spacing" textLength="50" x="1430.1" y="543.7202">Duração</text><line style="stroke:#A80036;stroke-width:1.5;" x1="1390" x2="1492" y1="555.5659" y2="555.5659"/><text fill="#000000" font-family="sans-serif" font-size="11" lengthAdjust="spacing" textLength="92" x="1395" y="569.7764">-dateTime Inicio</text><text fill="#000000" font-family="sans-serif" font-size="11" lengthAdjust="spacing" textLength="83" x="1395" y="582.5811">-dateTime Fim</text><!--MD5=[77c6229b59f71ada4b7bed0495e5baba]
class Morada--><rect codeLine="48" fill="#FEFECE" filter="url(#fh3zq87izzogq)" height="65.6094" id="Morada" style="stroke:#A80036;stroke-width:1.5;" width="107" x="941" y="34.5659"/><ellipse cx="969.5" cy="50.5659" fill="#ADD1B2" rx="11" ry="11" style="stroke:#A80036;stroke-width:1.0;"/><path d="M971.8438,46.2378 C970.9063,45.8003 970.3125,45.6597 969.4375,45.6597 C966.8125,45.6597 964.8125,47.7378 964.8125,50.4565 L964.8125,51.5815 C964.8125,54.1597 966.9219,56.0503 969.8125,56.0503 C971.0313,56.0503 972.1875,55.7534 972.9375,55.2065 C973.5156,54.8003 973.8438,54.3472 973.8438,53.9565 C973.8438,53.5034 973.4531,53.1128 972.9844,53.1128 C972.7656,53.1128 972.5625,53.1909 972.375,53.3784 C971.9219,53.8628 971.9219,53.8628 971.7344,53.9565 C971.3125,54.2222 970.625,54.3472 969.8594,54.3472 C967.8125,54.3472 966.5156,53.2534 966.5156,51.5503 L966.5156,50.4565 C966.5156,48.6753 967.7656,47.3628 969.5,47.3628 C970.0781,47.3628 970.6875,47.519 971.1563,47.769 C971.6406,48.0503 971.8125,48.269 971.9063,48.6753 C971.9688,49.0815 972,49.2065 972.1406,49.3315 C972.2813,49.4722 972.5156,49.5815 972.7344,49.5815 C973,49.5815 973.2656,49.4409 973.4375,49.2222 C973.5469,49.0659 973.5781,48.8784 973.5781,48.4565 L973.5781,47.0347 C973.5781,46.5972 973.5625,46.4722 973.4688,46.3159 C973.3125,46.0503 973.0313,45.9097 972.7344,45.9097 C972.4375,45.9097 972.2344,46.0034 972.0156,46.3159 L971.8438,46.2378 Z " fill="#000000"/><text fill="#000000" font-family="sans-serif" font-size="12" lengthAdjust="spacing" textLength="45" x="986.5" y="54.7202">Morada</text><line style="stroke:#A80036;stroke-width:1.5;" x1="942" x2="1047" y1="66.5659" y2="66.5659"/><text fill="#000000" font-family="sans-serif" font-size="11" lengthAdjust="spacing" textLength="60" x="947" y="80.7764">-string Rua</text><text fill="#000000" font-family="sans-serif" font-size="11" lengthAdjust="spacing" textLength="95" x="947" y="93.5811">-string Freguesia</text><!--MD5=[f4e6cf3ca9090901a1f1006f0c14e10f]
link APISistemaCentral to APIParque--><path codeLine="53" d="M78.3304,589.1919 C81.5951,534.7709 97.6242,384.1319 176,295.5659 C205.362,262.3859 253.32,243.8089 288.42,234.0579 " fill="none" id="APISistemaCentral-APIParque" style="stroke:#A80036;stroke-width:1.0;"/><polygon fill="#000000" points="189.5458,246.829,182.411,253.1175,187.4699,256.1102,189.5458,246.829" style="stroke:#000000;stroke-width:1.0;"/><text fill="#000000" font-family="sans-serif" font-size="13" lengthAdjust="spacing" textLength="23" x="196" y="255.6328">usa</text><text fill="#000000" font-family="sans-serif" font-size="13" lengthAdjust="spacing" textLength="15" x="61.7358" y="578.4379">1*</text><text fill="#000000" font-family="sans-serif" font-size="13" lengthAdjust="spacing" textLength="15" x="265.3687" y="248.7369">1*</text><!--MD5=[91749c56b4c61a039bb52ea243960566]
link APISistemaCentral to APPWeb--><path codeLine="54" d="M102.3196,589.3729 C121.605,574.3289 149.452,553.9829 176,539.5659 C214.266,518.7839 261.004,501.1899 293.389,490.1139 " fill="none" id="APISistemaCentral-APPWeb" style="stroke:#A80036;stroke-width:1.0;"/><polygon fill="#000000" points="191.437,506.8273,182.0555,508.3891,184.7652,513.6051,191.437,506.8273" style="stroke:#000000;stroke-width:1.0;"/><text fill="#000000" font-family="sans-serif" font-size="13" lengthAdjust="spacing" textLength="23" x="196" y="513.6328">usa</text><text fill="#000000" font-family="sans-serif" font-size="13" lengthAdjust="spacing" textLength="8" x="100.4564" y="578.6698">1</text><text fill="#000000" font-family="sans-serif" font-size="13" lengthAdjust="spacing" textLength="8" x="277.5317" y="505.7637">1</text><!--MD5=[7ebaec570886048606a7307f203d3561]
link APISistemaCentral to Reserva--><path codeLine="55" d="M146.214,627.9709 C197.226,640.0279 268.706,653.5659 332.5,653.5659 C332.5,653.5659 332.5,653.5659 995.5,653.5659 C1076.42,653.5659 1146.04,571.7549 1174.63,532.7669 " fill="none" id="APISistemaCentral-Reserva" style="stroke:#A80036;stroke-width:1.0;"/><polygon fill="#000000" points="664.9787,644.6714,655.7012,642.5788,656.243,648.4316,664.9787,644.6714" style="stroke:#000000;stroke-width:1.0;"/><text fill="#000000" font-family="sans-serif" font-size="13" lengthAdjust="spacing" textLength="41" x="669" y="649.6328">possui</text><text fill="#000000" font-family="sans-serif" font-size="13" lengthAdjust="spacing" textLength="8" x="153.8158" y="642.7161">1</text><text fill="#000000" font-family="sans-serif" font-size="13" lengthAdjust="spacing" textLength="15" x="1153.3384" y="552.6434">0*</text><!--MD5=[d0b076322fca75d93501f04c1a1688f9]
link APISistemaCentral to Cliente--><path codeLine="56" d="M146.255,603.8789 C272.511,593.4359 537.75,571.4969 640.294,563.0149 " fill="none" id="APISistemaCentral-Cliente" style="stroke:#A80036;stroke-width:1.0;"/><polygon fill="#000000" points="315.483,573.7202,306.2264,571.5368,306.7109,577.3947,315.483,573.7202" style="stroke:#000000;stroke-width:1.0;"/><text fill="#000000" font-family="sans-serif" font-size="13" lengthAdjust="spacing" textLength="41" x="319.5" y="578.6328">possui</text><text fill="#000000" font-family="sans-serif" font-size="13" lengthAdjust="spacing" textLength="8" x="153.861" y="616.1396">1</text><text fill="#000000" font-family="sans-serif" font-size="13" lengthAdjust="spacing" textLength="15" x="617.6062" y="576.7368">0*</text><!--MD5=[76c6aa6dbc5e70634267b8f8c5324695]
link APISistemaCentral to MétodoDePagamento--><path codeLine="57" d="M82.0403,629.7139 C92.1417,670.2559 120.117,762.4279 176,816.5659 C246.231,884.6029 362.961,896.9318 440.808,896.5849 " fill="none" id="APISistemaCentral-MétodoDePagamento" style="stroke:#A80036;stroke-width:1.0;"/><polygon fill="#000000" points="189.5118,811.1165,184.0085,803.36,180.5003,808.0761,189.5118,811.1165" style="stroke:#000000;stroke-width:1.0;"/><text fill="#000000" font-family="sans-serif" font-size="13" lengthAdjust="spacing" textLength="26" x="194.5" y="812.6328">tem</text><text fill="#000000" font-family="sans-serif" font-size="13" lengthAdjust="spacing" textLength="8" x="74.4735" y="649.5755">1</text><text fill="#000000" font-family="sans-serif" font-size="13" lengthAdjust="spacing" textLength="15" x="417.9534" y="909.7727">1*</text><!--MD5=[8e96fee9880a4ba3b131d16794c405f4]
link APISistemaCentral to APIQRCode--><path codeLine="58" d="M100.1207,629.7659 C119.09,645.6399 147.569,667.0859 176,679.5659 C257.628,715.3949 523.625,735.6789 633.668,742.7169 " fill="none" id="APISistemaCentral-APIQRCode" style="stroke:#A80036;stroke-width:1.0;"/><polygon fill="#000000" points="324.3916,695.1679,316.1513,690.4193,314.9339,696.1698,324.3916,695.1679" style="stroke:#000000;stroke-width:1.0;"/><text fill="#000000" font-family="sans-serif" font-size="13" lengthAdjust="spacing" textLength="23" x="328.5" y="698.6328">usa</text><text fill="#000000" font-family="sans-serif" font-size="13" lengthAdjust="spacing" textLength="8" x="97.639" y="649.6421">1</text><text fill="#000000" font-family="sans-serif" font-size="13" lengthAdjust="spacing" textLength="8" x="617.8349" y="755.4767">1</text><!--MD5=[1e30445b45991c0f6b0377df5c4b1f9b]
link APISistemaCentral to EmailDeConfirmação--><path codeLine="59" d="M84.679,629.6859 C97.6419,663.1339 128.139,730.0969 176,766.5659 C199.016,784.1029 228.536,795.1269 255.723,802.0429 " fill="none" id="APISistemaCentral-EmailDeConfirmação" style="stroke:#A80036;stroke-width:1.0;"/><polygon fill="#000000" points="184.522,761.6814,180.2367,753.1909,176.0646,757.3313,184.522,761.6814" style="stroke:#000000;stroke-width:1.0;"/><text fill="#000000" font-family="sans-serif" font-size="13" lengthAdjust="spacing" textLength="35" x="190" y="762.6328">envia</text><text fill="#000000" font-family="sans-serif" font-size="13" lengthAdjust="spacing" textLength="8" x="88.1043" y="649.5396">1</text><text fill="#000000" font-family="sans-serif" font-size="13" lengthAdjust="spacing" textLength="15" x="233.128" y="813.7574">0*</text><!--MD5=[e5fcc2a48c85fe2f47cefd50ae821e7e]
link APISistemaCentral to SubAluguer--><path codeLine="60" d="M90.738,589.4689 C116.965,551.6919 179.647,471.0629 256,439.5659 C466.802,352.6049 536.07,374.4659 764,367.5659 C829.303,365.5879 846.085,360.1869 911,367.5659 C921.661,368.7769 932.95,370.8429 943.642,373.1769 " fill="none" id="APISistemaCentral-SubAluguer" style="stroke:#A80036;stroke-width:1.0;"/><polygon fill="#000000" points="480.3466,360.9033,470.8566,360.2779,472.3015,365.9754,480.3466,360.9033" style="stroke:#000000;stroke-width:1.0;"/><text fill="#000000" font-family="sans-serif" font-size="13" lengthAdjust="spacing" textLength="87" x="484.5" y="366.6328">permite fazer</text><text fill="#000000" font-family="sans-serif" font-size="13" lengthAdjust="spacing" textLength="8" x="85.7454" y="578.4487">1</text><text fill="#000000" font-family="sans-serif" font-size="13" lengthAdjust="spacing" textLength="15" x="921.1649" y="384.4978">0*</text><!--MD5=[ef3a0668dc252d6ed3c69a5c78b21f42]
link APIParque to Cliente--><path codeLine="62" d="M378.733,244.3169 C397.655,252.2689 420.153,261.0739 441,267.5659 C511.007,289.3639 549.459,252.4229 602,303.5659 C641.085,341.6099 615.962,370.4329 632,422.5659 C642.274,455.9619 656.001,493.1629 666.472,520.3629 " fill="none" id="APIParque-Cliente" style="stroke:#A80036;stroke-width:1.0;"/><polygon fill="#000000" points="502.1081,262.5938,497.6156,254.2112,493.5464,258.4527,502.1081,262.5938" style="stroke:#000000;stroke-width:1.0;"/><text fill="#000000" font-family="sans-serif" font-size="13" lengthAdjust="spacing" textLength="41" x="507.5" y="263.6328">possui</text><text fill="#000000" font-family="sans-serif" font-size="13" lengthAdjust="spacing" textLength="8" x="383.3606" y="264.7498">1</text><text fill="#000000" font-family="sans-serif" font-size="13" lengthAdjust="spacing" textLength="15" x="647.3422" y="509.3786">0*</text><!--MD5=[1fe00d9aa06cae4131be0830c01d75e9]
link APIParque to Parque--><path codeLine="63" d="M350.756,204.4539 C369.963,182.0509 404.015,146.3869 441,126.5659 C508.012,90.6519 597.179,76.2139 646.098,70.7109 " fill="none" id="APIParque-Parque" style="stroke:#A80036;stroke-width:1.0;"/><polygon fill="#000000" points="481.5548,67.0697,472.1028,68.1238,474.5275,73.4782,481.5548,67.0697" style="stroke:#000000;stroke-width:1.0;"/><text fill="#000000" font-family="sans-serif" font-size="13" lengthAdjust="spacing" textLength="84" x="486" y="73.6328">é referente a</text><text fill="#000000" font-family="sans-serif" font-size="13" lengthAdjust="spacing" textLength="8" x="346.65" y="193.4293">1</text><text fill="#000000" font-family="sans-serif" font-size="13" lengthAdjust="spacing" textLength="15" x="623.4664" y="84.6188">1*</text><!--MD5=[72a1d6bba75ee92fed661f2768de78fb]
link APIParque to Reserva--><path codeLine="64" d="M378.883,225.8179 C493.748,230.4079 808.512,251.6049 1048,348.5659 C1082.2,362.4099 1093.22,365.1789 1119,391.5659 C1148.46,421.7149 1169.98,466.7789 1180.74,492.5549 " fill="none" id="APIParque-Reserva" style="stroke:#A80036;stroke-width:1.0;"/><polygon fill="#000000" points="819.2444,263.7105,811.5894,258.0668,809.7341,263.6442,819.2444,263.7105" style="stroke:#000000;stroke-width:1.0;"/><text fill="#000000" font-family="sans-serif" font-size="13" lengthAdjust="spacing" textLength="41" x="823.5" y="266.6328">possui</text><text fill="#000000" font-family="sans-serif" font-size="13" lengthAdjust="spacing" textLength="8" x="386.4448" y="239.2351">1</text><text fill="#000000" font-family="sans-serif" font-size="13" lengthAdjust="spacing" textLength="15" x="1180.3699" y="481.56">0*</text><!--MD5=[7dc9167f2154858c18b46b7fdb011fb6]
link APIParque to Lugar--><path codeLine="65" d="M378.601,209.3839 C444.002,188.2599 570.946,152.5659 682,152.5659 C682,152.5659 682,152.5659 1190.5,152.5659 C1268.9,152.5659 1361.16,152.5659 1408.49,152.5659 " fill="none" id="APIParque-Lugar" style="stroke:#A80036;stroke-width:1.0;"/><polygon fill="#000000" points="979.4924,143.8569,970.2992,141.4207,970.6229,147.2896,979.4924,143.8569" style="stroke:#000000;stroke-width:1.0;"/><text fill="#000000" font-family="sans-serif" font-size="13" lengthAdjust="spacing" textLength="35" x="983.5" y="148.6328">aluga</text><text fill="#000000" font-family="sans-serif" font-size="13" lengthAdjust="spacing" textLength="8" x="386.4265" y="220.2371">1</text><text fill="#000000" font-family="sans-serif" font-size="13" lengthAdjust="spacing" textLength="15" x="1385.613" y="166.1224">0*</text><!--MD5=[9de0c0f770848f212c2bb5193920029d]
link APPWeb to Cliente--><path codeLine="67" d="M373.683,490.7349 C393.69,497.1959 418.497,504.8069 441,510.5659 C510.284,528.2959 592.076,543.8009 640.348,552.4029 " fill="none" id="APPWeb-Cliente" style="stroke:#A80036;stroke-width:1.0;"/><polygon fill="#000000" points="503.3714,503.2589,495.2211,498.3576,493.8968,504.0843,503.3714,503.2589" style="stroke:#000000;stroke-width:1.0;"/><text fill="#000000" font-family="sans-serif" font-size="13" lengthAdjust="spacing" textLength="41" x="507.5" y="506.6328">possui</text><text fill="#000000" font-family="sans-serif" font-size="13" lengthAdjust="spacing" textLength="8" x="381.5531" y="506.4953">1</text><text fill="#000000" font-family="sans-serif" font-size="13" lengthAdjust="spacing" textLength="15" x="617.355" y="547.1105">0*</text><!--MD5=[c2153d1492787c3e39d56ea1b153bbf6]
link APPWeb to Reserva--><path codeLine="68" d="M373.742,477.8039 C488.538,478.7409 833.609,483.2629 1119,504.5659 C1128.69,505.2889 1139.11,506.3409 1148.86,507.4469 " fill="none" id="APPWeb-Reserva" style="stroke:#A80036;stroke-width:1.0;"/><polygon fill="#000000" points="773.9963,478.3234,765.0702,475.041,764.8456,480.9145,773.9963,478.3234" style="stroke:#000000;stroke-width:1.0;"/><text fill="#000000" font-family="sans-serif" font-size="13" lengthAdjust="spacing" textLength="132" x="778" y="482.6328">permite fazer e gerir</text><text fill="#000000" font-family="sans-serif" font-size="13" lengthAdjust="spacing" textLength="8" x="381.6226" y="473.5891">1</text><text fill="#000000" font-family="sans-serif" font-size="13" lengthAdjust="spacing" textLength="15" x="1125.8868" y="502.4348">0*</text><!--MD5=[d133d57abbd20800fb090646d0faeebb]
link APPWeb to SubAluguer--><path codeLine="69" d="M373.601,461.9729 C393.482,454.6579 418.202,446.4869 441,441.5659 C623.559,402.1589 846.256,390.8969 943.765,387.7499 " fill="none" id="APPWeb-SubAluguer" style="stroke:#A80036;stroke-width:1.0;"/><polygon fill="#000000" points="641.9582,391.4869,632.6094,389.7402,633.3681,395.5688,641.9582,391.4869" style="stroke:#000000;stroke-width:1.0;"/><text fill="#000000" font-family="sans-serif" font-size="13" lengthAdjust="spacing" textLength="87" x="646" y="396.6328">permite fazer</text><text fill="#000000" font-family="sans-serif" font-size="13" lengthAdjust="spacing" textLength="8" x="381.4565" y="454.9382">1</text><text fill="#000000" font-family="sans-serif" font-size="13" lengthAdjust="spacing" textLength="15" x="920.9397" y="400.9926">0*</text><!--MD5=[55a59268352d08cbaca9c2ff75c5c8f9]
link Cliente to Reserva--><path codeLine="71" d="M725.51,560.8049 C771.092,561.7499 846.401,562.0849 911,556.5659 C996.296,549.2779 1095.06,531.3029 1148.74,520.7199 " fill="none" id="Cliente-Reserva" style="stroke:#A80036;stroke-width:1.0;"/><polygon fill="#000000" points="964.4777,530.6609,955.1958,528.5879,955.75,534.4396,964.4777,530.6609" style="stroke:#000000;stroke-width:1.0;"/><text fill="#000000" font-family="sans-serif" font-size="13" lengthAdjust="spacing" textLength="65" x="968.5" y="535.6328">faz e gere</text><text fill="#000000" font-family="sans-serif" font-size="13" lengthAdjust="spacing" textLength="8" x="733.5039" y="574.3497">1</text><text fill="#000000" font-family="sans-serif" font-size="13" lengthAdjust="spacing" textLength="15" x="1126.0486" y="535.2923">0*</text><!--MD5=[cbf66c614648062d242e461098f2e52e]
link Cliente to SubAluguer--><path codeLine="72" d="M725.696,557.1369 C782.757,553.1189 881.468,543.4679 911,523.5659 C953.133,495.1699 977.187,437.3639 987.479,406.7049 " fill="none" id="Cliente-SubAluguer" style="stroke:#A80036;stroke-width:1.0;"/><polygon fill="#000000" points="829.3352,512.6411,820.0285,514.5996,822.957,519.6959,829.3352,512.6411" style="stroke:#000000;stroke-width:1.0;"/><text fill="#000000" font-family="sans-serif" font-size="13" lengthAdjust="spacing" textLength="20" x="834" y="519.6328">faz</text><text fill="#000000" font-family="sans-serif" font-size="13" lengthAdjust="spacing" textLength="8" x="733.43" y="552.536">1</text><text fill="#000000" font-family="sans-serif" font-size="13" lengthAdjust="spacing" textLength="15" x="968.395" y="426.564">0*</text><!--MD5=[d75ccf407ddc5af61a41230a97fe5acc]
link Reserva to Lugar--><path codeLine="74" d="M1204.45,492.4389 C1248.17,429.3589 1382.2,235.9619 1426,172.7719 " fill="none" id="Reserva-Lugar" style="stroke:#A80036;stroke-width:1.0;"/><polygon fill="#000000" points="1267.8482,267.0228,1260.2803,272.7829,1265.1113,276.1311,1267.8482,267.0228" style="stroke:#000000;stroke-width:1.0;"/><text fill="#000000" font-family="sans-serif" font-size="13" lengthAdjust="spacing" textLength="84" x="1274" y="275.6328">é referente a</text><text fill="#000000" font-family="sans-serif" font-size="13" lengthAdjust="spacing" textLength="15" x="1211.0447" y="481.4099">0*</text><text fill="#000000" font-family="sans-serif" font-size="13" lengthAdjust="spacing" textLength="8" x="1412.6563" y="192.6498">1</text><!--MD5=[394e3bec980ca78a75a075ce7537c7d8]
link Reserva to Custo--><path codeLine="75" d="M1230.03,505.5939 C1279.23,496.9189 1362.28,482.2719 1407.79,474.2459 " fill="none" id="Reserva-Custo" style="stroke:#A80036;stroke-width:1.0;"/><polygon fill="#000000" points="1298.924,475.264,1289.506,473.9406,1290.5268,479.7291,1298.924,475.264" style="stroke:#000000;stroke-width:1.0;"/><text fill="#000000" font-family="sans-serif" font-size="13" lengthAdjust="spacing" textLength="26" x="1303" y="480.6328">tem</text><text fill="#000000" font-family="sans-serif" font-size="13" lengthAdjust="spacing" textLength="8" x="1237.9619" y="517.7667">1</text><text fill="#000000" font-family="sans-serif" font-size="13" lengthAdjust="spacing" textLength="8" x="1392.1154" y="489.0449">1</text><!--MD5=[3147b653d631aff453645938f05f69e4]
link Reserva to Duração--><path codeLine="76" d="M1230.03,519.5369 C1273.04,527.1219 1341.94,539.2719 1388.99,547.5699 " fill="none" id="Reserva-Duração" style="stroke:#A80036;stroke-width:1.0;"/><polygon fill="#000000" points="1298.924,519.0007,1290.5268,514.5355,1289.506,520.3241,1298.924,519.0007" style="stroke:#000000;stroke-width:1.0;"/><text fill="#000000" font-family="sans-serif" font-size="13" lengthAdjust="spacing" textLength="26" x="1303" y="522.6328">tem</text><text fill="#000000" font-family="sans-serif" font-size="13" lengthAdjust="spacing" textLength="8" x="1237.9619" y="534.1933">1</text><text fill="#000000" font-family="sans-serif" font-size="13" lengthAdjust="spacing" textLength="8" x="1373.1136" y="559.4632">1</text><!--MD5=[56324d45d85896dd9362f79db6a3f999]
link EmailDeConfirmação to Reserva--><path codeLine="78" d="M411.213,824.4989 C565.508,841.9139 915.943,857.7073 1119,679.5659 C1163.73,640.3199 1180.32,567.6689 1185.92,532.5729 " fill="none" id="EmailDeConfirmação-Reserva" style="stroke:#A80036;stroke-width:1.0;"/><polygon fill="#000000" points="797.6788,782.3692,788.1784,782.8085,790.2511,788.3088,797.6788,782.3692" style="stroke:#000000;stroke-width:1.0;"/><text fill="#000000" font-family="sans-serif" font-size="13" lengthAdjust="spacing" textLength="84" x="802" y="788.6328">é referente a</text><text fill="#000000" font-family="sans-serif" font-size="13" lengthAdjust="spacing" textLength="8" x="419.0013" y="838.329">1</text><text fill="#000000" font-family="sans-serif" font-size="13" lengthAdjust="spacing" textLength="8" x="1175.6934" y="552.7395">1</text><!--MD5=[3e39808c68d75979d0227602cd2392f7]
link Lugar to Preço--><path codeLine="80" d="M1473.56,145.2219 C1511.29,136.4439 1574.07,121.8359 1611.99,113.0129 " fill="none" id="Lugar-Preço" style="stroke:#A80036;stroke-width:1.0;"/><polygon fill="#000000" points="1532.8699,115.9992,1523.3941,115.1866,1524.7262,120.9115,1532.8699,115.9992" style="stroke:#000000;stroke-width:1.0;"/><text fill="#000000" font-family="sans-serif" font-size="13" lengthAdjust="spacing" textLength="26" x="1537" y="121.6328">tem</text><text fill="#000000" font-family="sans-serif" font-size="13" lengthAdjust="spacing" textLength="8" x="1481.5575" y="157.3375">1</text><text fill="#000000" font-family="sans-serif" font-size="13" lengthAdjust="spacing" textLength="8" x="1595.8941" y="128.364">1</text><!--MD5=[72517315f51e3c1cfdb97a2270c0d927]
link Parque to Lugar--><path codeLine="82" d="M719.514,55.1519 C733.277,50.6899 749.246,45.9329 764,42.5659 C841.518,24.8749 861.7,22.3589 941,16.5659 C988.429,13.1009 1001.106,8.6619 1048,16.5659 C1187.23,40.0309 1343.04,107.2859 1408.44,137.5219 " fill="none" id="Parque-Lugar" style="stroke:#A80036;stroke-width:1.0;"/><polygon fill="#000000" points="1087.9646,15.7259,1079.3324,11.734,1078.6346,17.5702,1087.9646,15.7259" style="stroke:#000000;stroke-width:1.0;"/><text fill="#000000" font-family="sans-serif" font-size="13" lengthAdjust="spacing" textLength="26" x="1092" y="19.6328">tem</text><text fill="#000000" font-family="sans-serif" font-size="13" lengthAdjust="spacing" textLength="8" x="727.4902" y="66.2644">1</text><text fill="#000000" font-family="sans-serif" font-size="13" lengthAdjust="spacing" textLength="15" x="1385.5532" y="148.1167">1*</text><!--MD5=[3f7724b18204e3b9d88ba74c97f9e53e]
link Parque to Morada--><path codeLine="83" d="M719.504,67.5659 C773.807,67.5659 877.816,67.5659 940.899,67.5659 " fill="none" id="Parque-Morada" style="stroke:#A80036;stroke-width:1.0;"/><polygon fill="#000000" points="827,59.1323,817.9549,56.1934,817.9549,62.0713,827,59.1323" style="stroke:#000000;stroke-width:1.0;"/><text fill="#000000" font-family="sans-serif" font-size="13" lengthAdjust="spacing" textLength="26" x="831" y="63.6328">tem</text><text fill="#000000" font-family="sans-serif" font-size="13" lengthAdjust="spacing" textLength="8" x="727.4782" y="81.1224">1</text><text fill="#000000" font-family="sans-serif" font-size="13" lengthAdjust="spacing" textLength="8" x="925.1589" y="80.6758">1</text><!--MD5=[5f363e7da27d4325081f8fe75b17f797]
link Lugar to Localização--><path codeLine="85" d="M1473.56,159.9089 C1505.74,167.3959 1556.15,179.1239 1593.81,187.8869 " fill="none" id="Lugar-Localização" style="stroke:#A80036;stroke-width:1.0;"/><polygon fill="#000000" points="1532.8699,165.2654,1524.7261,160.3532,1523.3942,166.0781,1532.8699,165.2654" style="stroke:#000000;stroke-width:1.0;"/><text fill="#000000" font-family="sans-serif" font-size="13" lengthAdjust="spacing" textLength="26" x="1537" y="168.6328">tem</text><text fill="#000000" font-family="sans-serif" font-size="13" lengthAdjust="spacing" textLength="8" x="1481.5575" y="175.2372">1</text><text fill="#000000" font-family="sans-serif" font-size="13" lengthAdjust="spacing" textLength="8" x="1578.0489" y="199.3464">1</text><!--MD5=[5d7300fd354e8d9cb95ffaec1da927e3]
link SubAluguer to Reserva--><path codeLine="87" d="M1045.18,401.5339 C1068.77,409.9859 1096.62,422.0059 1119,437.5659 C1140.86,452.7659 1160.97,475.9029 1173.87,492.4559 " fill="none" id="SubAluguer-Reserva" style="stroke:#A80036;stroke-width:1.0;"/><polygon fill="#000000" points="1096.0836,411.0175,1090.3921,403.3979,1087.0004,408.1985,1096.0836,411.0175" style="stroke:#000000;stroke-width:1.0;"/><text fill="#000000" font-family="sans-serif" font-size="13" lengthAdjust="spacing" textLength="8" x="1101" y="412.6328">é</text><text fill="#000000" font-family="sans-serif" font-size="13" lengthAdjust="spacing" textLength="8" x="1052.8694" y="416.7697">1</text><text fill="#000000" font-family="sans-serif" font-size="13" lengthAdjust="spacing" textLength="8" x="1160.1037" y="481.4319">1</text><!--MD5=[90c33401299c0bea06e4ba599ef86fc3]
link MétodoDePagamento to Reserva--><path codeLine="89" d="M593.088,911.6415 C717.657,942.3013 976.743,983.8975 1119,847.5654 C1164.99,803.4879 1182.71,598.0839 1187.24,532.6469 " fill="none" id="MétodoDePagamento-Reserva" style="stroke:#A80036;stroke-width:1.0;"/><polygon fill="#000000" points="823.2154,926.4429,814.0092,928.8294,817.1702,933.785,823.2154,926.4429" style="stroke:#000000;stroke-width:1.0;"/><text fill="#000000" font-family="sans-serif" font-size="13" lengthAdjust="spacing" textLength="32" x="828" y="933.6323">paga</text><text fill="#000000" font-family="sans-serif" font-size="13" lengthAdjust="spacing" textLength="8" x="604.0971" y="931.4829">1</text><text fill="#000000" font-family="sans-serif" font-size="13" lengthAdjust="spacing" textLength="15" x="1188.7138" y="552.4896">0*</text><!--MD5=[ad8becfcaf113e1d7d13482b49ea52a4]
link EmailDeConfirmação to APIQRCode--><path codeLine="91" d="M411.219,801.8159 C464.875,793.1759 538.087,780.5439 602,766.5659 C612.381,764.2949 623.445,761.5829 633.929,758.8729 " fill="none" id="EmailDeConfirmação-APIQRCode" style="stroke:#A80036;stroke-width:1.0;"/><text fill="#000000" font-family="sans-serif" font-size="13" lengthAdjust="spacing" textLength="33" x="505" y="762.6328">usa&gt;</text><text fill="#000000" font-family="sans-serif" font-size="13" lengthAdjust="spacing" textLength="15" x="419.0751" y="813.4971">0*</text><text fill="#000000" font-family="sans-serif" font-size="13" lengthAdjust="spacing" textLength="8" x="618.1342" y="774.0056">1</text><!--MD5=[9ec5dc07eed52812b1d0e62737a58a2d]
@startuml
skinparam classAttributeIconSize 0
hide methods
left to right direction

class APISistemaCentral {}

class APIParque {}

class APISistemaCentral {}

class APPWeb {}

class Cliente {
 -int Nif
 -string Nome
 -string Email
}

class Reserva {}

class EmailDeConfirmação {}

class Preço {}

class Custo {}

class Parque {}

class Lugar {}

class Localização {
 -int Numero
 -int Fila
 -int Andar
}

class SubAluguer {}

class MétodoDePagamento {}

class APIQRCode {}

class Duração {
 -dateTime Inicio
 -dateTime Fim
}

class Morada {
 -string Rua
 -string Freguesia
}

APISistemaCentral "1*" - - "1*" APIParque : usa >
APISistemaCentral "1" - - "1" APPWeb : usa >
APISistemaCentral "1" - - "0*" Reserva : possui >
APISistemaCentral "1" - - "0*" Cliente : possui >
APISistemaCentral "1" - - "1*" MétodoDePagamento : tem >
APISistemaCentral "1" - - "1" APIQRCode : usa >
APISistemaCentral "1" - - "0*" EmailDeConfirmação : envia >
APISistemaCentral "1" - - "0*" SubAluguer : permite fazer >

APIParque "1" - - "0*" Cliente : possui >
APIParque "1" - - "1*" Parque : é referente a >
APIParque "1" - - "0*" Reserva : possui >
APIParque "1" - - "0*" Lugar : aluga >

APPWeb "1" - - "0*" Cliente : possui >
APPWeb "1" - - "0*" Reserva : permite fazer e gerir >
APPWeb "1" - - "0*" SubAluguer : permite fazer >

Cliente "1" - - "0*" Reserva : faz e gere >
Cliente "1" - - "0*" SubAluguer : faz >

Reserva "0*" - - "1" Lugar : é referente a >
Reserva "1" - - "1" Custo: tem >
Reserva "1" - - "1" Duração : tem >

EmailDeConfirmação "1" - - "1" Reserva : é referente a >

Lugar "1" - - "1" Preço : tem >

Parque "1" - - "1*" Lugar : tem >
Parque "1" - - "1" Morada : tem >

Lugar "1" - - "1" Localização : tem >

SubAluguer "1" - - "1" Reserva : é >

MétodoDePagamento "1" - - "0*" Reserva : paga >

EmailDeConfirmação "0*" - - "1" APIQRCode : usa>
@enduml

PlantUML version 1.2021.01beta3(Unknown compile time)
(GPL source distribution)
Java Runtime: Java(TM) SE Runtime Environment
JVM: Java HotSpot(TM) 64-Bit Server VM
Default Encoding: UTF-8
Language: en
Country: US
--></g></svg>