<?xml version="1.0" encoding="UTF-8" standalone="no"?><svg xmlns="http://www.w3.org/2000/svg" xmlns:xlink="http://www.w3.org/1999/xlink" contentScriptType="application/ecmascript" contentStyleType="text/css" height="1035px" preserveAspectRatio="none" style="width:1710px;height:1035px;" version="1.1" viewBox="0 0 1710 1035" width="1710px" zoomAndPan="magnify"><defs><filter height="300%" id="f1dlyc4frr879u" width="300%" x="-1" y="-1"><feGaussianBlur result="blurOut" stdDeviation="2.0"/><feColorMatrix in="blurOut" result="blurOut2" type="matrix" values="0 0 0 0 0 0 0 0 0 0 0 0 0 0 0 0 0 0 .4 0"/><feOffset dx="4.0" dy="4.0" in="blurOut2" result="blurOut3"/><feBlend in="SourceGraphic" in2="blurOut3" mode="normal"/></filter></defs><g><!--MD5=[38129dd771424f36b121b079983d2f41]
class APISistemaCentral--><rect codeLine="9" fill="#FEFECE" filter="url(#f1dlyc4frr879u)" height="40" id="APISistemaCentral" style="stroke:#A80036;stroke-width:1.5;" width="139" x="7" y="634.5659"/><ellipse cx="22" cy="650.5659" fill="#ADD1B2" rx="11" ry="11" style="stroke:#A80036;stroke-width:1.0;"/><path d="M24.3438,646.2378 C23.4063,645.8003 22.8125,645.6597 21.9375,645.6597 C19.3125,645.6597 17.3125,647.7378 17.3125,650.4565 L17.3125,651.5815 C17.3125,654.1597 19.4219,656.0503 22.3125,656.0503 C23.5313,656.0503 24.6875,655.7534 25.4375,655.2065 C26.0156,654.8003 26.3438,654.3472 26.3438,653.9565 C26.3438,653.5034 25.9531,653.1128 25.4844,653.1128 C25.2656,653.1128 25.0625,653.1909 24.875,653.3784 C24.4219,653.8628 24.4219,653.8628 24.2344,653.9565 C23.8125,654.2222 23.125,654.3472 22.3594,654.3472 C20.3125,654.3472 19.0156,653.2534 19.0156,651.5503 L19.0156,650.4565 C19.0156,648.6753 20.2656,647.3628 22,647.3628 C22.5781,647.3628 23.1875,647.519 23.6563,647.769 C24.1406,648.0503 24.3125,648.269 24.4063,648.6753 C24.4688,649.0815 24.5,649.2065 24.6406,649.3315 C24.7813,649.4722 25.0156,649.5815 25.2344,649.5815 C25.5,649.5815 25.7656,649.4409 25.9375,649.2222 C26.0469,649.0659 26.0781,648.8784 26.0781,648.4565 L26.0781,647.0347 C26.0781,646.5972 26.0625,646.4722 25.9688,646.3159 C25.8125,646.0503 25.5313,645.9097 25.2344,645.9097 C24.9375,645.9097 24.7344,646.0034 24.5156,646.3159 L24.3438,646.2378 Z " fill="#000000"/><text fill="#000000" font-family="sans-serif" font-size="12" lengthAdjust="spacing" textLength="107" x="36" y="654.7202">APISistemaCentral</text><line style="stroke:#A80036;stroke-width:1.5;" x1="8" x2="145" y1="666.5659" y2="666.5659"/><!--MD5=[1654698dbf1dab33aeaf9b6eaf8a8ac4]
class APIParque--><rect codeLine="7" fill="#FEFECE" filter="url(#f1dlyc4frr879u)" height="40" id="APIParque" style="stroke:#A80036;stroke-width:1.5;" width="90" x="288.5" y="249.5659"/><ellipse cx="303.5" cy="265.5659" fill="#ADD1B2" rx="11" ry="11" style="stroke:#A80036;stroke-width:1.0;"/><path d="M305.8438,261.2378 C304.9063,260.8003 304.3125,260.6597 303.4375,260.6597 C300.8125,260.6597 298.8125,262.7378 298.8125,265.4565 L298.8125,266.5815 C298.8125,269.1597 300.9219,271.0503 303.8125,271.0503 C305.0313,271.0503 306.1875,270.7534 306.9375,270.2065 C307.5156,269.8003 307.8438,269.3472 307.8438,268.9565 C307.8438,268.5034 307.4531,268.1128 306.9844,268.1128 C306.7656,268.1128 306.5625,268.1909 306.375,268.3784 C305.9219,268.8628 305.9219,268.8628 305.7344,268.9565 C305.3125,269.2222 304.625,269.3472 303.8594,269.3472 C301.8125,269.3472 300.5156,268.2534 300.5156,266.5503 L300.5156,265.4565 C300.5156,263.6753 301.7656,262.3628 303.5,262.3628 C304.0781,262.3628 304.6875,262.519 305.1563,262.769 C305.6406,263.0503 305.8125,263.269 305.9063,263.6753 C305.9688,264.0815 306,264.2065 306.1406,264.3315 C306.2813,264.4722 306.5156,264.5815 306.7344,264.5815 C307,264.5815 307.2656,264.4409 307.4375,264.2222 C307.5469,264.0659 307.5781,263.8784 307.5781,263.4565 L307.5781,262.0347 C307.5781,261.5972 307.5625,261.4722 307.4688,261.3159 C307.3125,261.0503 307.0313,260.9097 306.7344,260.9097 C306.4375,260.9097 306.2344,261.0034 306.0156,261.3159 L305.8438,261.2378 Z " fill="#000000"/><text fill="#000000" font-family="sans-serif" font-size="12" lengthAdjust="spacing" textLength="58" x="317.5" y="269.7202">APIParque</text><line style="stroke:#A80036;stroke-width:1.5;" x1="289.5" x2="377.5" y1="281.5659" y2="281.5659"/><!--MD5=[19853574c7a77dd38c1a45d47059c05f]
class APPWeb--><rect codeLine="11" fill="#FEFECE" filter="url(#f1dlyc4frr879u)" height="40" id="APPWeb" style="stroke:#A80036;stroke-width:1.5;" width="80" x="293.5" y="502.5659"/><ellipse cx="308.5" cy="518.5659" fill="#ADD1B2" rx="11" ry="11" style="stroke:#A80036;stroke-width:1.0;"/><path d="M310.8438,514.2378 C309.9063,513.8003 309.3125,513.6597 308.4375,513.6597 C305.8125,513.6597 303.8125,515.7378 303.8125,518.4565 L303.8125,519.5815 C303.8125,522.1597 305.9219,524.0503 308.8125,524.0503 C310.0313,524.0503 311.1875,523.7534 311.9375,523.2065 C312.5156,522.8003 312.8438,522.3472 312.8438,521.9565 C312.8438,521.5034 312.4531,521.1128 311.9844,521.1128 C311.7656,521.1128 311.5625,521.1909 311.375,521.3784 C310.9219,521.8628 310.9219,521.8628 310.7344,521.9565 C310.3125,522.2222 309.625,522.3472 308.8594,522.3472 C306.8125,522.3472 305.5156,521.2534 305.5156,519.5503 L305.5156,518.4565 C305.5156,516.6753 306.7656,515.3628 308.5,515.3628 C309.0781,515.3628 309.6875,515.519 310.1563,515.769 C310.6406,516.0503 310.8125,516.269 310.9063,516.6753 C310.9688,517.0815 311,517.2065 311.1406,517.3315 C311.2813,517.4722 311.5156,517.5815 311.7344,517.5815 C312,517.5815 312.2656,517.4409 312.4375,517.2222 C312.5469,517.0659 312.5781,516.8784 312.5781,516.4565 L312.5781,515.0347 C312.5781,514.5972 312.5625,514.4722 312.4688,514.3159 C312.3125,514.0503 312.0313,513.9097 311.7344,513.9097 C311.4375,513.9097 311.2344,514.0034 311.0156,514.3159 L310.8438,514.2378 Z " fill="#000000"/><text fill="#000000" font-family="sans-serif" font-size="12" lengthAdjust="spacing" textLength="48" x="322.5" y="522.7202">APPWeb</text><line style="stroke:#A80036;stroke-width:1.5;" x1="294.5" x2="372.5" y1="534.5659" y2="534.5659"/><!--MD5=[20a748d5ee336a9a91751b0a3d4f0beb]
class Cliente--><rect codeLine="13" fill="#FEFECE" filter="url(#f1dlyc4frr879u)" height="78.4141" id="Cliente" style="stroke:#A80036;stroke-width:1.5;" width="85" x="640.5" y="565.5659"/><ellipse cx="660.9" cy="581.5659" fill="#ADD1B2" rx="11" ry="11" style="stroke:#A80036;stroke-width:1.0;"/><path d="M663.2438,577.2378 C662.3063,576.8003 661.7125,576.6597 660.8375,576.6597 C658.2125,576.6597 656.2125,578.7378 656.2125,581.4565 L656.2125,582.5815 C656.2125,585.1597 658.3219,587.0503 661.2125,587.0503 C662.4313,587.0503 663.5875,586.7534 664.3375,586.2065 C664.9156,585.8003 665.2438,585.3472 665.2438,584.9565 C665.2438,584.5034 664.8531,584.1128 664.3844,584.1128 C664.1656,584.1128 663.9625,584.1909 663.775,584.3784 C663.3219,584.8628 663.3219,584.8628 663.1344,584.9565 C662.7125,585.2222 662.025,585.3472 661.2594,585.3472 C659.2125,585.3472 657.9156,584.2534 657.9156,582.5503 L657.9156,581.4565 C657.9156,579.6753 659.1656,578.3628 660.9,578.3628 C661.4781,578.3628 662.0875,578.519 662.5563,578.769 C663.0406,579.0503 663.2125,579.269 663.3063,579.6753 C663.3688,580.0815 663.4,580.2065 663.5406,580.3315 C663.6813,580.4722 663.9156,580.5815 664.1344,580.5815 C664.4,580.5815 664.6656,580.4409 664.8375,580.2222 C664.9469,580.0659 664.9781,579.8784 664.9781,579.4565 L664.9781,578.0347 C664.9781,577.5972 664.9625,577.4722 664.8688,577.3159 C664.7125,577.0503 664.4313,576.9097 664.1344,576.9097 C663.8375,576.9097 663.6344,577.0034 663.4156,577.3159 L663.2438,577.2378 Z " fill="#000000"/><text fill="#000000" font-family="sans-serif" font-size="12" lengthAdjust="spacing" textLength="41" x="676.1" y="585.7202">Cliente</text><line style="stroke:#A80036;stroke-width:1.5;" x1="641.5" x2="724.5" y1="597.5659" y2="597.5659"/><text fill="#000000" font-family="sans-serif" font-size="11" lengthAdjust="spacing" textLength="37" x="646.5" y="611.7764">-int Nif</text><text fill="#000000" font-family="sans-serif" font-size="11" lengthAdjust="spacing" textLength="73" x="646.5" y="624.5811">-string Nome</text><text fill="#000000" font-family="sans-serif" font-size="11" lengthAdjust="spacing" textLength="70" x="646.5" y="637.3857">-string Email</text><!--MD5=[6ea9d6598d9760662639554c9857ab6b]
class Reserva--><rect codeLine="19" fill="#FEFECE" filter="url(#f1dlyc4frr879u)" height="40" id="Reserva" style="stroke:#A80036;stroke-width:1.5;" width="81" x="1149" y="539.5659"/><ellipse cx="1164" cy="555.5659" fill="#ADD1B2" rx="11" ry="11" style="stroke:#A80036;stroke-width:1.0;"/><path d="M1166.3438,551.2378 C1165.4063,550.8003 1164.8125,550.6597 1163.9375,550.6597 C1161.3125,550.6597 1159.3125,552.7378 1159.3125,555.4565 L1159.3125,556.5815 C1159.3125,559.1597 1161.4219,561.0503 1164.3125,561.0503 C1165.5313,561.0503 1166.6875,560.7534 1167.4375,560.2065 C1168.0156,559.8003 1168.3438,559.3472 1168.3438,558.9565 C1168.3438,558.5034 1167.9531,558.1128 1167.4844,558.1128 C1167.2656,558.1128 1167.0625,558.1909 1166.875,558.3784 C1166.4219,558.8628 1166.4219,558.8628 1166.2344,558.9565 C1165.8125,559.2222 1165.125,559.3472 1164.3594,559.3472 C1162.3125,559.3472 1161.0156,558.2534 1161.0156,556.5503 L1161.0156,555.4565 C1161.0156,553.6753 1162.2656,552.3628 1164,552.3628 C1164.5781,552.3628 1165.1875,552.519 1165.6563,552.769 C1166.1406,553.0503 1166.3125,553.269 1166.4063,553.6753 C1166.4688,554.0815 1166.5,554.2065 1166.6406,554.3315 C1166.7813,554.4722 1167.0156,554.5815 1167.2344,554.5815 C1167.5,554.5815 1167.7656,554.4409 1167.9375,554.2222 C1168.0469,554.0659 1168.0781,553.8784 1168.0781,553.4565 L1168.0781,552.0347 C1168.0781,551.5972 1168.0625,551.4722 1167.9688,551.3159 C1167.8125,551.0503 1167.5313,550.9097 1167.2344,550.9097 C1166.9375,550.9097 1166.7344,551.0034 1166.5156,551.3159 L1166.3438,551.2378 Z " fill="#000000"/><text fill="#000000" font-family="sans-serif" font-size="12" lengthAdjust="spacing" textLength="49" x="1178" y="559.7202">Reserva</text><line style="stroke:#A80036;stroke-width:1.5;" x1="1150" x2="1229" y1="571.5659" y2="571.5659"/><!--MD5=[422caa1b20ead34cd492b75378c11008]
class EmailDeConfirmação--><rect codeLine="21" fill="#FEFECE" filter="url(#f1dlyc4frr879u)" height="40" id="EmailDeConfirmação" style="stroke:#A80036;stroke-width:1.5;" width="155" x="256" y="838.5659"/><ellipse cx="271" cy="854.5659" fill="#ADD1B2" rx="11" ry="11" style="stroke:#A80036;stroke-width:1.0;"/><path d="M273.3438,850.2378 C272.4063,849.8003 271.8125,849.6597 270.9375,849.6597 C268.3125,849.6597 266.3125,851.7378 266.3125,854.4565 L266.3125,855.5815 C266.3125,858.1597 268.4219,860.0503 271.3125,860.0503 C272.5313,860.0503 273.6875,859.7534 274.4375,859.2065 C275.0156,858.8003 275.3438,858.3472 275.3438,857.9565 C275.3438,857.5034 274.9531,857.1128 274.4844,857.1128 C274.2656,857.1128 274.0625,857.1909 273.875,857.3784 C273.4219,857.8628 273.4219,857.8628 273.2344,857.9565 C272.8125,858.2222 272.125,858.3472 271.3594,858.3472 C269.3125,858.3472 268.0156,857.2534 268.0156,855.5503 L268.0156,854.4565 C268.0156,852.6753 269.2656,851.3628 271,851.3628 C271.5781,851.3628 272.1875,851.519 272.6563,851.769 C273.1406,852.0503 273.3125,852.269 273.4063,852.6753 C273.4688,853.0815 273.5,853.2065 273.6406,853.3315 C273.7813,853.4722 274.0156,853.5815 274.2344,853.5815 C274.5,853.5815 274.7656,853.4409 274.9375,853.2222 C275.0469,853.0659 275.0781,852.8784 275.0781,852.4565 L275.0781,851.0347 C275.0781,850.5972 275.0625,850.4722 274.9688,850.3159 C274.8125,850.0503 274.5313,849.9097 274.2344,849.9097 C273.9375,849.9097 273.7344,850.0034 273.5156,850.3159 L273.3438,850.2378 Z " fill="#000000"/><text fill="#000000" font-family="sans-serif" font-size="12" lengthAdjust="spacing" textLength="123" x="285" y="858.7202">EmailDeConfirmação</text><line style="stroke:#A80036;stroke-width:1.5;" x1="257" x2="410" y1="870.5659" y2="870.5659"/><!--MD5=[ec8f5e6a0bb5c1192bcc4a64c9a89492]
class Preço--><rect codeLine="23" fill="#FEFECE" filter="url(#f1dlyc4frr879u)" height="40" id="Preço" style="stroke:#A80036;stroke-width:1.5;" width="66" x="1156.5" y="164.5659"/><ellipse cx="1171.5" cy="180.5659" fill="#ADD1B2" rx="11" ry="11" style="stroke:#A80036;stroke-width:1.0;"/><path d="M1173.8438,176.2378 C1172.9063,175.8003 1172.3125,175.6597 1171.4375,175.6597 C1168.8125,175.6597 1166.8125,177.7378 1166.8125,180.4565 L1166.8125,181.5815 C1166.8125,184.1597 1168.9219,186.0503 1171.8125,186.0503 C1173.0313,186.0503 1174.1875,185.7534 1174.9375,185.2065 C1175.5156,184.8003 1175.8438,184.3472 1175.8438,183.9565 C1175.8438,183.5034 1175.4531,183.1128 1174.9844,183.1128 C1174.7656,183.1128 1174.5625,183.1909 1174.375,183.3784 C1173.9219,183.8628 1173.9219,183.8628 1173.7344,183.9565 C1173.3125,184.2222 1172.625,184.3472 1171.8594,184.3472 C1169.8125,184.3472 1168.5156,183.2534 1168.5156,181.5503 L1168.5156,180.4565 C1168.5156,178.6753 1169.7656,177.3628 1171.5,177.3628 C1172.0781,177.3628 1172.6875,177.519 1173.1563,177.769 C1173.6406,178.0503 1173.8125,178.269 1173.9063,178.6753 C1173.9688,179.0815 1174,179.2065 1174.1406,179.3315 C1174.2813,179.4722 1174.5156,179.5815 1174.7344,179.5815 C1175,179.5815 1175.2656,179.4409 1175.4375,179.2222 C1175.5469,179.0659 1175.5781,178.8784 1175.5781,178.4565 L1175.5781,177.0347 C1175.5781,176.5972 1175.5625,176.4722 1175.4688,176.3159 C1175.3125,176.0503 1175.0313,175.9097 1174.7344,175.9097 C1174.4375,175.9097 1174.2344,176.0034 1174.0156,176.3159 L1173.8438,176.2378 Z " fill="#000000"/><text fill="#000000" font-family="sans-serif" font-size="12" lengthAdjust="spacing" textLength="34" x="1185.5" y="184.7202">Preço</text><line style="stroke:#A80036;stroke-width:1.5;" x1="1157.5" x2="1221.5" y1="196.5659" y2="196.5659"/><!--MD5=[6f49f9179445ef1754d85aa01a9c4eb7]
class Custo--><rect codeLine="25" fill="#FEFECE" filter="url(#f1dlyc4frr879u)" height="40" id="Custo" style="stroke:#A80036;stroke-width:1.5;" width="66" x="1408" y="495.5659"/><ellipse cx="1423" cy="511.5659" fill="#ADD1B2" rx="11" ry="11" style="stroke:#A80036;stroke-width:1.0;"/><path d="M1425.3438,507.2378 C1424.4063,506.8003 1423.8125,506.6597 1422.9375,506.6597 C1420.3125,506.6597 1418.3125,508.7378 1418.3125,511.4565 L1418.3125,512.5815 C1418.3125,515.1597 1420.4219,517.0503 1423.3125,517.0503 C1424.5313,517.0503 1425.6875,516.7534 1426.4375,516.2065 C1427.0156,515.8003 1427.3438,515.3472 1427.3438,514.9565 C1427.3438,514.5034 1426.9531,514.1128 1426.4844,514.1128 C1426.2656,514.1128 1426.0625,514.1909 1425.875,514.3784 C1425.4219,514.8628 1425.4219,514.8628 1425.2344,514.9565 C1424.8125,515.2222 1424.125,515.3472 1423.3594,515.3472 C1421.3125,515.3472 1420.0156,514.2534 1420.0156,512.5503 L1420.0156,511.4565 C1420.0156,509.6753 1421.2656,508.3628 1423,508.3628 C1423.5781,508.3628 1424.1875,508.519 1424.6563,508.769 C1425.1406,509.0503 1425.3125,509.269 1425.4063,509.6753 C1425.4688,510.0815 1425.5,510.2065 1425.6406,510.3315 C1425.7813,510.4722 1426.0156,510.5815 1426.2344,510.5815 C1426.5,510.5815 1426.7656,510.4409 1426.9375,510.2222 C1427.0469,510.0659 1427.0781,509.8784 1427.0781,509.4565 L1427.0781,508.0347 C1427.0781,507.5972 1427.0625,507.4722 1426.9688,507.3159 C1426.8125,507.0503 1426.5313,506.9097 1426.2344,506.9097 C1425.9375,506.9097 1425.7344,507.0034 1425.5156,507.3159 L1425.3438,507.2378 Z " fill="#000000"/><text fill="#000000" font-family="sans-serif" font-size="12" lengthAdjust="spacing" textLength="34" x="1437" y="515.7202">Custo</text><line style="stroke:#A80036;stroke-width:1.5;" x1="1409" x2="1473" y1="527.5659" y2="527.5659"/><!--MD5=[1a083dbe42a284ae0ea7f6f701783206]
class Parque--><rect codeLine="27" fill="#FEFECE" filter="url(#f1dlyc4frr879u)" height="40" id="Parque" style="stroke:#A80036;stroke-width:1.5;" width="73" x="646.5" y="177.5659"/><ellipse cx="661.5" cy="193.5659" fill="#ADD1B2" rx="11" ry="11" style="stroke:#A80036;stroke-width:1.0;"/><path d="M663.8438,189.2378 C662.9063,188.8003 662.3125,188.6597 661.4375,188.6597 C658.8125,188.6597 656.8125,190.7378 656.8125,193.4565 L656.8125,194.5815 C656.8125,197.1597 658.9219,199.0503 661.8125,199.0503 C663.0313,199.0503 664.1875,198.7534 664.9375,198.2065 C665.5156,197.8003 665.8438,197.3472 665.8438,196.9565 C665.8438,196.5034 665.4531,196.1128 664.9844,196.1128 C664.7656,196.1128 664.5625,196.1909 664.375,196.3784 C663.9219,196.8628 663.9219,196.8628 663.7344,196.9565 C663.3125,197.2222 662.625,197.3472 661.8594,197.3472 C659.8125,197.3472 658.5156,196.2534 658.5156,194.5503 L658.5156,193.4565 C658.5156,191.6753 659.7656,190.3628 661.5,190.3628 C662.0781,190.3628 662.6875,190.519 663.1563,190.769 C663.6406,191.0503 663.8125,191.269 663.9063,191.6753 C663.9688,192.0815 664,192.2065 664.1406,192.3315 C664.2813,192.4722 664.5156,192.5815 664.7344,192.5815 C665,192.5815 665.2656,192.4409 665.4375,192.2222 C665.5469,192.0659 665.5781,191.8784 665.5781,191.4565 L665.5781,190.0347 C665.5781,189.5972 665.5625,189.4722 665.4688,189.3159 C665.3125,189.0503 665.0313,188.9097 664.7344,188.9097 C664.4375,188.9097 664.2344,189.0034 664.0156,189.3159 L663.8438,189.2378 Z " fill="#000000"/><text fill="#000000" font-family="sans-serif" font-size="12" lengthAdjust="spacing" textLength="41" x="675.5" y="197.7202">Parque</text><line style="stroke:#A80036;stroke-width:1.5;" x1="647.5" x2="718.5" y1="209.5659" y2="209.5659"/><!--MD5=[6129de384f1bcacbc1ea3ec83eb0d64e]
class Lugar--><rect codeLine="29" fill="#FEFECE" filter="url(#f1dlyc4frr879u)" height="40" id="Lugar" style="stroke:#A80036;stroke-width:1.5;" width="65" x="1408.5" y="128.5659"/><ellipse cx="1423.5" cy="144.5659" fill="#ADD1B2" rx="11" ry="11" style="stroke:#A80036;stroke-width:1.0;"/><path d="M1425.8438,140.2378 C1424.9063,139.8003 1424.3125,139.6597 1423.4375,139.6597 C1420.8125,139.6597 1418.8125,141.7378 1418.8125,144.4565 L1418.8125,145.5815 C1418.8125,148.1597 1420.9219,150.0503 1423.8125,150.0503 C1425.0313,150.0503 1426.1875,149.7534 1426.9375,149.2065 C1427.5156,148.8003 1427.8438,148.3472 1427.8438,147.9565 C1427.8438,147.5034 1427.4531,147.1128 1426.9844,147.1128 C1426.7656,147.1128 1426.5625,147.1909 1426.375,147.3784 C1425.9219,147.8628 1425.9219,147.8628 1425.7344,147.9565 C1425.3125,148.2222 1424.625,148.3472 1423.8594,148.3472 C1421.8125,148.3472 1420.5156,147.2534 1420.5156,145.5503 L1420.5156,144.4565 C1420.5156,142.6753 1421.7656,141.3628 1423.5,141.3628 C1424.0781,141.3628 1424.6875,141.519 1425.1563,141.769 C1425.6406,142.0503 1425.8125,142.269 1425.9063,142.6753 C1425.9688,143.0815 1426,143.2065 1426.1406,143.3315 C1426.2813,143.4722 1426.5156,143.5815 1426.7344,143.5815 C1427,143.5815 1427.2656,143.4409 1427.4375,143.2222 C1427.5469,143.0659 1427.5781,142.8784 1427.5781,142.4565 L1427.5781,141.0347 C1427.5781,140.5972 1427.5625,140.4722 1427.4688,140.3159 C1427.3125,140.0503 1427.0313,139.9097 1426.7344,139.9097 C1426.4375,139.9097 1426.2344,140.0034 1426.0156,140.3159 L1425.8438,140.2378 Z " fill="#000000"/><text fill="#000000" font-family="sans-serif" font-size="12" lengthAdjust="spacing" textLength="33" x="1437.5" y="148.7202">Lugar</text><line style="stroke:#A80036;stroke-width:1.5;" x1="1409.5" x2="1472.5" y1="160.5659" y2="160.5659"/><!--MD5=[53d7157415ddfdf8a565a9d974d385cc]
class Localização--><rect codeLine="31" fill="#FEFECE" filter="url(#f1dlyc4frr879u)" height="78.4141" id="Localização" style="stroke:#A80036;stroke-width:1.5;" width="102" x="1594" y="109.5659"/><ellipse cx="1609" cy="125.5659" fill="#ADD1B2" rx="11" ry="11" style="stroke:#A80036;stroke-width:1.0;"/><path d="M1611.3438,121.2378 C1610.4063,120.8003 1609.8125,120.6597 1608.9375,120.6597 C1606.3125,120.6597 1604.3125,122.7378 1604.3125,125.4565 L1604.3125,126.5815 C1604.3125,129.1597 1606.4219,131.0503 1609.3125,131.0503 C1610.5313,131.0503 1611.6875,130.7534 1612.4375,130.2065 C1613.0156,129.8003 1613.3438,129.3472 1613.3438,128.9565 C1613.3438,128.5034 1612.9531,128.1128 1612.4844,128.1128 C1612.2656,128.1128 1612.0625,128.1909 1611.875,128.3784 C1611.4219,128.8628 1611.4219,128.8628 1611.2344,128.9565 C1610.8125,129.2222 1610.125,129.3472 1609.3594,129.3472 C1607.3125,129.3472 1606.0156,128.2534 1606.0156,126.5503 L1606.0156,125.4565 C1606.0156,123.6753 1607.2656,122.3628 1609,122.3628 C1609.5781,122.3628 1610.1875,122.519 1610.6563,122.769 C1611.1406,123.0503 1611.3125,123.269 1611.4063,123.6753 C1611.4688,124.0815 1611.5,124.2065 1611.6406,124.3315 C1611.7813,124.4722 1612.0156,124.5815 1612.2344,124.5815 C1612.5,124.5815 1612.7656,124.4409 1612.9375,124.2222 C1613.0469,124.0659 1613.0781,123.8784 1613.0781,123.4565 L1613.0781,122.0347 C1613.0781,121.5972 1613.0625,121.4722 1612.9688,121.3159 C1612.8125,121.0503 1612.5313,120.9097 1612.2344,120.9097 C1611.9375,120.9097 1611.7344,121.0034 1611.5156,121.3159 L1611.3438,121.2378 Z " fill="#000000"/><text fill="#000000" font-family="sans-serif" font-size="12" lengthAdjust="spacing" textLength="70" x="1623" y="129.7202">Localização</text><line style="stroke:#A80036;stroke-width:1.5;" x1="1595" x2="1695" y1="141.5659" y2="141.5659"/><text fill="#000000" font-family="sans-serif" font-size="11" lengthAdjust="spacing" textLength="67" x="1600" y="155.7764">-int Numero</text><text fill="#000000" font-family="sans-serif" font-size="11" lengthAdjust="spacing" textLength="41" x="1600" y="168.5811">-int Fila</text><text fill="#000000" font-family="sans-serif" font-size="11" lengthAdjust="spacing" textLength="55" x="1600" y="181.3857">-int Andar</text><!--MD5=[15ae23301f4536208a2daf13431a8a82]
class SubAluguer--><rect codeLine="37" fill="#FEFECE" filter="url(#f1dlyc4frr879u)" height="40" id="SubAluguer" style="stroke:#A80036;stroke-width:1.5;" width="101" x="944" y="411.5659"/><ellipse cx="959" cy="427.5659" fill="#ADD1B2" rx="11" ry="11" style="stroke:#A80036;stroke-width:1.0;"/><path d="M961.3438,423.2378 C960.4063,422.8003 959.8125,422.6597 958.9375,422.6597 C956.3125,422.6597 954.3125,424.7378 954.3125,427.4565 L954.3125,428.5815 C954.3125,431.1597 956.4219,433.0503 959.3125,433.0503 C960.5313,433.0503 961.6875,432.7534 962.4375,432.2065 C963.0156,431.8003 963.3438,431.3472 963.3438,430.9565 C963.3438,430.5034 962.9531,430.1128 962.4844,430.1128 C962.2656,430.1128 962.0625,430.1909 961.875,430.3784 C961.4219,430.8628 961.4219,430.8628 961.2344,430.9565 C960.8125,431.2222 960.125,431.3472 959.3594,431.3472 C957.3125,431.3472 956.0156,430.2534 956.0156,428.5503 L956.0156,427.4565 C956.0156,425.6753 957.2656,424.3628 959,424.3628 C959.5781,424.3628 960.1875,424.519 960.6563,424.769 C961.1406,425.0503 961.3125,425.269 961.4063,425.6753 C961.4688,426.0815 961.5,426.2065 961.6406,426.3315 C961.7813,426.4722 962.0156,426.5815 962.2344,426.5815 C962.5,426.5815 962.7656,426.4409 962.9375,426.2222 C963.0469,426.0659 963.0781,425.8784 963.0781,425.4565 L963.0781,424.0347 C963.0781,423.5972 963.0625,423.4722 962.9688,423.3159 C962.8125,423.0503 962.5313,422.9097 962.2344,422.9097 C961.9375,422.9097 961.7344,423.0034 961.5156,423.3159 L961.3438,423.2378 Z " fill="#000000"/><text fill="#000000" font-family="sans-serif" font-size="12" lengthAdjust="spacing" textLength="69" x="973" y="431.7202">SubAluguer</text><line style="stroke:#A80036;stroke-width:1.5;" x1="945" x2="1044" y1="443.5659" y2="443.5659"/><!--MD5=[ec92ce9971d25c6d018a00153947441a]
class MétodoDePagamento--><rect codeLine="39" fill="#FEFECE" filter="url(#f1dlyc4frr879u)" height="40" id="MétodoDePagamento" style="stroke:#A80036;stroke-width:1.5;" width="161" x="441" y="916.5662"/><ellipse cx="456" cy="932.5662" fill="#ADD1B2" rx="11" ry="11" style="stroke:#A80036;stroke-width:1.0;"/><path d="M458.3438,928.2381 C457.4063,927.8006 456.8125,927.66 455.9375,927.66 C453.3125,927.66 451.3125,929.7381 451.3125,932.4568 L451.3125,933.5818 C451.3125,936.16 453.4219,938.0506 456.3125,938.0506 C457.5313,938.0506 458.6875,937.7537 459.4375,937.2068 C460.0156,936.8006 460.3438,936.3475 460.3438,935.9568 C460.3438,935.5037 459.9531,935.1131 459.4844,935.1131 C459.2656,935.1131 459.0625,935.1912 458.875,935.3787 C458.4219,935.8631 458.4219,935.8631 458.2344,935.9568 C457.8125,936.2225 457.125,936.3475 456.3594,936.3475 C454.3125,936.3475 453.0156,935.2537 453.0156,933.5506 L453.0156,932.4568 C453.0156,930.6756 454.2656,929.3631 456,929.3631 C456.5781,929.3631 457.1875,929.5193 457.6563,929.7693 C458.1406,930.0506 458.3125,930.2693 458.4063,930.6756 C458.4688,931.0818 458.5,931.2068 458.6406,931.3318 C458.7813,931.4725 459.0156,931.5818 459.2344,931.5818 C459.5,931.5818 459.7656,931.4412 459.9375,931.2225 C460.0469,931.0662 460.0781,930.8787 460.0781,930.4568 L460.0781,929.035 C460.0781,928.5975 460.0625,928.4725 459.9688,928.3162 C459.8125,928.0506 459.5313,927.91 459.2344,927.91 C458.9375,927.91 458.7344,928.0037 458.5156,928.3162 L458.3438,928.2381 Z " fill="#000000"/><text fill="#000000" font-family="sans-serif" font-size="12" lengthAdjust="spacing" textLength="129" x="470" y="936.7205">MétodoDePagamento</text><line style="stroke:#A80036;stroke-width:1.5;" x1="442" x2="601" y1="948.5662" y2="948.5662"/><!--MD5=[db710054b49517484ab0764fde030c77]
class APIQRCode--><rect codeLine="41" fill="#FEFECE" filter="url(#f1dlyc4frr879u)" height="40" id="APIQRCode" style="stroke:#A80036;stroke-width:1.5;" width="98" x="634" y="770.5659"/><ellipse cx="649" cy="786.5659" fill="#ADD1B2" rx="11" ry="11" style="stroke:#A80036;stroke-width:1.0;"/><path d="M651.3438,782.2378 C650.4063,781.8003 649.8125,781.6597 648.9375,781.6597 C646.3125,781.6597 644.3125,783.7378 644.3125,786.4565 L644.3125,787.5815 C644.3125,790.1597 646.4219,792.0503 649.3125,792.0503 C650.5313,792.0503 651.6875,791.7534 652.4375,791.2065 C653.0156,790.8003 653.3438,790.3472 653.3438,789.9565 C653.3438,789.5034 652.9531,789.1128 652.4844,789.1128 C652.2656,789.1128 652.0625,789.1909 651.875,789.3784 C651.4219,789.8628 651.4219,789.8628 651.2344,789.9565 C650.8125,790.2222 650.125,790.3472 649.3594,790.3472 C647.3125,790.3472 646.0156,789.2534 646.0156,787.5503 L646.0156,786.4565 C646.0156,784.6753 647.2656,783.3628 649,783.3628 C649.5781,783.3628 650.1875,783.519 650.6563,783.769 C651.1406,784.0503 651.3125,784.269 651.4063,784.6753 C651.4688,785.0815 651.5,785.2065 651.6406,785.3315 C651.7813,785.4722 652.0156,785.5815 652.2344,785.5815 C652.5,785.5815 652.7656,785.4409 652.9375,785.2222 C653.0469,785.0659 653.0781,784.8784 653.0781,784.4565 L653.0781,783.0347 C653.0781,782.5972 653.0625,782.4722 652.9688,782.3159 C652.8125,782.0503 652.5313,781.9097 652.2344,781.9097 C651.9375,781.9097 651.7344,782.0034 651.5156,782.3159 L651.3438,782.2378 Z " fill="#000000"/><text fill="#000000" font-family="sans-serif" font-size="12" lengthAdjust="spacing" textLength="66" x="663" y="790.7202">APIQRCode</text><line style="stroke:#A80036;stroke-width:1.5;" x1="635" x2="731" y1="802.5659" y2="802.5659"/><!--MD5=[3008f5efaa3e7cb421914c717b209816]
class Duração--><rect codeLine="44" fill="#FEFECE" filter="url(#f1dlyc4frr879u)" height="65.6094" id="Duração" style="stroke:#A80036;stroke-width:1.5;" width="104" x="1389" y="570.5659"/><ellipse cx="1413.9" cy="586.5659" fill="#ADD1B2" rx="11" ry="11" style="stroke:#A80036;stroke-width:1.0;"/><path d="M1416.2438,582.2378 C1415.3063,581.8003 1414.7125,581.6597 1413.8375,581.6597 C1411.2125,581.6597 1409.2125,583.7378 1409.2125,586.4565 L1409.2125,587.5815 C1409.2125,590.1597 1411.3219,592.0503 1414.2125,592.0503 C1415.4313,592.0503 1416.5875,591.7534 1417.3375,591.2065 C1417.9156,590.8003 1418.2438,590.3472 1418.2438,589.9565 C1418.2438,589.5034 1417.8531,589.1128 1417.3844,589.1128 C1417.1656,589.1128 1416.9625,589.1909 1416.775,589.3784 C1416.3219,589.8628 1416.3219,589.8628 1416.1344,589.9565 C1415.7125,590.2222 1415.025,590.3472 1414.2594,590.3472 C1412.2125,590.3472 1410.9156,589.2534 1410.9156,587.5503 L1410.9156,586.4565 C1410.9156,584.6753 1412.1656,583.3628 1413.9,583.3628 C1414.4781,583.3628 1415.0875,583.519 1415.5563,583.769 C1416.0406,584.0503 1416.2125,584.269 1416.3063,584.6753 C1416.3688,585.0815 1416.4,585.2065 1416.5406,585.3315 C1416.6813,585.4722 1416.9156,585.5815 1417.1344,585.5815 C1417.4,585.5815 1417.6656,585.4409 1417.8375,585.2222 C1417.9469,585.0659 1417.9781,584.8784 1417.9781,584.4565 L1417.9781,583.0347 C1417.9781,582.5972 1417.9625,582.4722 1417.8688,582.3159 C1417.7125,582.0503 1417.4313,581.9097 1417.1344,581.9097 C1416.8375,581.9097 1416.6344,582.0034 1416.4156,582.3159 L1416.2438,582.2378 Z " fill="#000000"/><text fill="#000000" font-family="sans-serif" font-size="12" lengthAdjust="spacing" textLength="50" x="1430.1" y="590.7202">Duração</text><line style="stroke:#A80036;stroke-width:1.5;" x1="1390" x2="1492" y1="602.5659" y2="602.5659"/><text fill="#000000" font-family="sans-serif" font-size="11" lengthAdjust="spacing" textLength="92" x="1395" y="616.7764">-dateTime Inicio</text><text fill="#000000" font-family="sans-serif" font-size="11" lengthAdjust="spacing" textLength="83" x="1395" y="629.5811">-dateTime Fim</text><!--MD5=[77c6229b59f71ada4b7bed0495e5baba]
class Morada--><rect codeLine="49" fill="#FEFECE" filter="url(#f1dlyc4frr879u)" height="65.6094" id="Morada" style="stroke:#A80036;stroke-width:1.5;" width="107" x="941" y="164.5659"/><ellipse cx="969.5" cy="180.5659" fill="#ADD1B2" rx="11" ry="11" style="stroke:#A80036;stroke-width:1.0;"/><path d="M971.8438,176.2378 C970.9063,175.8003 970.3125,175.6597 969.4375,175.6597 C966.8125,175.6597 964.8125,177.7378 964.8125,180.4565 L964.8125,181.5815 C964.8125,184.1597 966.9219,186.0503 969.8125,186.0503 C971.0313,186.0503 972.1875,185.7534 972.9375,185.2065 C973.5156,184.8003 973.8438,184.3472 973.8438,183.9565 C973.8438,183.5034 973.4531,183.1128 972.9844,183.1128 C972.7656,183.1128 972.5625,183.1909 972.375,183.3784 C971.9219,183.8628 971.9219,183.8628 971.7344,183.9565 C971.3125,184.2222 970.625,184.3472 969.8594,184.3472 C967.8125,184.3472 966.5156,183.2534 966.5156,181.5503 L966.5156,180.4565 C966.5156,178.6753 967.7656,177.3628 969.5,177.3628 C970.0781,177.3628 970.6875,177.519 971.1563,177.769 C971.6406,178.0503 971.8125,178.269 971.9063,178.6753 C971.9688,179.0815 972,179.2065 972.1406,179.3315 C972.2813,179.4722 972.5156,179.5815 972.7344,179.5815 C973,179.5815 973.2656,179.4409 973.4375,179.2222 C973.5469,179.0659 973.5781,178.8784 973.5781,178.4565 L973.5781,177.0347 C973.5781,176.5972 973.5625,176.4722 973.4688,176.3159 C973.3125,176.0503 973.0313,175.9097 972.7344,175.9097 C972.4375,175.9097 972.2344,176.0034 972.0156,176.3159 L971.8438,176.2378 Z " fill="#000000"/><text fill="#000000" font-family="sans-serif" font-size="12" lengthAdjust="spacing" textLength="45" x="986.5" y="184.7202">Morada</text><line style="stroke:#A80036;stroke-width:1.5;" x1="942" x2="1047" y1="196.5659" y2="196.5659"/><text fill="#000000" font-family="sans-serif" font-size="11" lengthAdjust="spacing" textLength="60" x="947" y="210.7764">-string Rua</text><text fill="#000000" font-family="sans-serif" font-size="11" lengthAdjust="spacing" textLength="95" x="947" y="223.5811">-string Freguesia</text><!--MD5=[f4e6cf3ca9090901a1f1006f0c14e10f]
link APISistemaCentral to APIParque--><path codeLine="56" d="M78.3304,634.1929 C81.5951,579.7709 97.6242,429.1329 176,340.5659 C205.362,307.3869 253.32,288.8099 288.42,279.0589 " fill="none" id="APISistemaCentral-APIParque" style="stroke:#A80036;stroke-width:1.0;"/><polygon fill="#000000" points="189.5458,291.829,182.411,298.1175,187.4699,301.1102,189.5458,291.829" style="stroke:#000000;stroke-width:1.0;"/><text fill="#000000" font-family="sans-serif" font-size="13" lengthAdjust="spacing" textLength="23" x="196" y="300.6328">usa</text><text fill="#000000" font-family="sans-serif" font-size="13" lengthAdjust="spacing" textLength="15" x="61.7358" y="623.4392">1*</text><text fill="#000000" font-family="sans-serif" font-size="13" lengthAdjust="spacing" textLength="15" x="265.3687" y="293.738">1*</text><!--MD5=[91749c56b4c61a039bb52ea243960566]
link APISistemaCentral to APPWeb--><path codeLine="57" d="M102.3196,634.3729 C121.605,619.3299 149.452,598.9839 176,584.5659 C214.266,563.7849 261.004,546.1909 293.389,535.1139 " fill="none" id="APISistemaCentral-APPWeb" style="stroke:#A80036;stroke-width:1.0;"/><polygon fill="#000000" points="191.437,551.8273,182.0555,553.3891,184.7652,558.6051,191.437,551.8273" style="stroke:#000000;stroke-width:1.0;"/><text fill="#000000" font-family="sans-serif" font-size="13" lengthAdjust="spacing" textLength="23" x="196" y="558.6328">usa</text><text fill="#000000" font-family="sans-serif" font-size="13" lengthAdjust="spacing" textLength="8" x="100.4564" y="623.6698">1</text><text fill="#000000" font-family="sans-serif" font-size="13" lengthAdjust="spacing" textLength="8" x="277.5317" y="550.7637">1</text><!--MD5=[7ebaec570886048606a7307f203d3561]
link APISistemaCentral to Reserva--><path codeLine="58" d="M146.214,672.9709 C197.226,685.0279 268.706,698.5659 332.5,698.5659 C332.5,698.5659 332.5,698.5659 995.5,698.5659 C1075.81,698.5659 1145.5,618.3289 1174.34,579.7779 " fill="none" id="APISistemaCentral-Reserva" style="stroke:#A80036;stroke-width:1.0;"/><polygon fill="#000000" points="664.9796,689.681,655.7061,687.5706,656.2367,693.4244,664.9796,689.681" style="stroke:#000000;stroke-width:1.0;"/><text fill="#000000" font-family="sans-serif" font-size="13" lengthAdjust="spacing" textLength="41" x="669" y="694.6328">possui</text><text fill="#000000" font-family="sans-serif" font-size="13" lengthAdjust="spacing" textLength="8" x="153.8158" y="687.7161">1</text><text fill="#000000" font-family="sans-serif" font-size="13" lengthAdjust="spacing" textLength="15" x="1152.9669" y="599.6575">0*</text><!--MD5=[d0b076322fca75d93501f04c1a1688f9]
link APISistemaCentral to Cliente--><path codeLine="59" d="M146.255,648.8789 C272.511,638.4359 537.75,616.4979 640.294,608.0159 " fill="none" id="APISistemaCentral-Cliente" style="stroke:#A80036;stroke-width:1.0;"/><polygon fill="#000000" points="315.483,617.7202,306.2264,615.5368,306.7109,621.3947,315.483,617.7202" style="stroke:#000000;stroke-width:1.0;"/><text fill="#000000" font-family="sans-serif" font-size="13" lengthAdjust="spacing" textLength="41" x="319.5" y="622.6328">possui</text><text fill="#000000" font-family="sans-serif" font-size="13" lengthAdjust="spacing" textLength="8" x="153.861" y="661.1396">1</text><text fill="#000000" font-family="sans-serif" font-size="13" lengthAdjust="spacing" textLength="15" x="617.6062" y="621.738">0*</text><!--MD5=[76c6aa6dbc5e70634267b8f8c5324695]
link APISistemaCentral to MétodoDePagamento--><path codeLine="60" d="M82.0403,674.7139 C92.1417,715.2559 120.117,807.4279 176,861.5659 C246.231,929.6036 362.961,941.9326 440.808,941.5857 " fill="none" id="APISistemaCentral-MétodoDePagamento" style="stroke:#A80036;stroke-width:1.0;"/><polygon fill="#000000" points="189.5118,856.1165,184.0085,848.36,180.5003,853.0761,189.5118,856.1165" style="stroke:#000000;stroke-width:1.0;"/><text fill="#000000" font-family="sans-serif" font-size="13" lengthAdjust="spacing" textLength="26" x="194.5" y="857.6328">tem</text><text fill="#000000" font-family="sans-serif" font-size="13" lengthAdjust="spacing" textLength="8" x="74.4735" y="694.5755">1</text><text fill="#000000" font-family="sans-serif" font-size="13" lengthAdjust="spacing" textLength="15" x="417.9534" y="954.7735">1*</text><!--MD5=[8e96fee9880a4ba3b131d16794c405f4]
link APISistemaCentral to APIQRCode--><path codeLine="61" d="M100.1207,674.7669 C119.09,690.6409 147.569,712.0869 176,724.5659 C257.628,760.3959 523.625,780.6799 633.668,787.7179 " fill="none" id="APISistemaCentral-APIQRCode" style="stroke:#A80036;stroke-width:1.0;"/><polygon fill="#000000" points="324.3916,740.1679,316.1513,735.4193,314.9339,741.1698,324.3916,740.1679" style="stroke:#000000;stroke-width:1.0;"/><text fill="#000000" font-family="sans-serif" font-size="13" lengthAdjust="spacing" textLength="23" x="328.5" y="743.6328">usa</text><text fill="#000000" font-family="sans-serif" font-size="13" lengthAdjust="spacing" textLength="8" x="97.639" y="694.6434">1</text><text fill="#000000" font-family="sans-serif" font-size="13" lengthAdjust="spacing" textLength="8" x="617.8349" y="800.4778">1</text><!--MD5=[1e30445b45991c0f6b0377df5c4b1f9b]
link APISistemaCentral to EmailDeConfirmação--><path codeLine="62" d="M84.679,674.6869 C97.6419,708.1349 128.139,775.0979 176,811.5659 C199.016,829.1039 228.536,840.1279 255.723,847.0439 " fill="none" id="APISistemaCentral-EmailDeConfirmação" style="stroke:#A80036;stroke-width:1.0;"/><polygon fill="#000000" points="184.522,806.6814,180.2367,798.1909,176.0646,802.3313,184.522,806.6814" style="stroke:#000000;stroke-width:1.0;"/><text fill="#000000" font-family="sans-serif" font-size="13" lengthAdjust="spacing" textLength="35" x="190" y="807.6328">envia</text><text fill="#000000" font-family="sans-serif" font-size="13" lengthAdjust="spacing" textLength="8" x="88.1043" y="694.5409">1</text><text fill="#000000" font-family="sans-serif" font-size="13" lengthAdjust="spacing" textLength="15" x="233.128" y="858.7585">0*</text><!--MD5=[e5fcc2a48c85fe2f47cefd50ae821e7e]
link APISistemaCentral to SubAluguer--><path codeLine="63" d="M90.738,634.4699 C116.965,596.6929 179.647,516.0639 256,484.5659 C466.802,397.6059 536.07,419.4669 764,412.5659 C829.303,410.5889 846.085,405.1879 911,412.5659 C921.661,413.7779 932.95,415.8439 943.642,418.1779 " fill="none" id="APISistemaCentral-SubAluguer" style="stroke:#A80036;stroke-width:1.0;"/><polygon fill="#000000" points="480.3466,405.9033,470.8566,405.2779,472.3015,410.9754,480.3466,405.9033" style="stroke:#000000;stroke-width:1.0;"/><text fill="#000000" font-family="sans-serif" font-size="13" lengthAdjust="spacing" textLength="87" x="484.5" y="411.6328">permite fazer</text><text fill="#000000" font-family="sans-serif" font-size="13" lengthAdjust="spacing" textLength="8" x="85.7454" y="623.45">1</text><text fill="#000000" font-family="sans-serif" font-size="13" lengthAdjust="spacing" textLength="15" x="921.1649" y="429.4989">0*</text><!--MD5=[ef3a0668dc252d6ed3c69a5c78b21f42]
link APIParque to Cliente--><path codeLine="65" d="M378.733,289.3179 C397.655,297.2699 420.153,306.0749 441,312.5659 C511.007,334.3649 549.459,297.4229 602,348.5659 C641.085,386.6109 615.962,415.4339 632,467.5659 C642.274,500.9619 656.001,538.1639 666.472,565.3639 " fill="none" id="APIParque-Cliente" style="stroke:#A80036;stroke-width:1.0;"/><polygon fill="#000000" points="502.1081,307.5938,497.6156,299.2112,493.5464,303.4527,502.1081,307.5938" style="stroke:#000000;stroke-width:1.0;"/><text fill="#000000" font-family="sans-serif" font-size="13" lengthAdjust="spacing" textLength="41" x="507.5" y="308.6328">possui</text><text fill="#000000" font-family="sans-serif" font-size="13" lengthAdjust="spacing" textLength="8" x="383.3606" y="309.7511">1</text><text fill="#000000" font-family="sans-serif" font-size="13" lengthAdjust="spacing" textLength="15" x="647.3422" y="554.3797">0*</text><!--MD5=[1fe00d9aa06cae4131be0830c01d75e9]
link APIParque to Parque--><path codeLine="66" d="M378.686,258.2459 C397.797,253.4879 420.449,248.0329 441,243.5659 C513.633,227.7789 599.224,212.1409 646.359,203.7839 " fill="none" id="APIParque-Parque" style="stroke:#A80036;stroke-width:1.0;"/><polygon fill="#000000" points="481.8996,203.1354,472.4502,202.0589,473.6221,207.8188,481.8996,203.1354" style="stroke:#000000;stroke-width:1.0;"/><text fill="#000000" font-family="sans-serif" font-size="13" lengthAdjust="spacing" textLength="84" x="486" y="208.6328">é referente a</text><text fill="#000000" font-family="sans-serif" font-size="13" lengthAdjust="spacing" textLength="8" x="386.525" y="252.324">1</text><text fill="#000000" font-family="sans-serif" font-size="13" lengthAdjust="spacing" textLength="8" x="630.6118" y="218.4785">1</text><!--MD5=[72a1d6bba75ee92fed661f2768de78fb]
link APIParque to Reserva--><path codeLine="67" d="M378.883,270.8189 C493.748,275.4089 808.512,296.6059 1048,393.5659 C1082.2,407.4109 1093.31,410.0889 1119,436.5659 C1148.72,467.1969 1170.15,513.0119 1180.82,539.2189 " fill="none" id="APIParque-Reserva" style="stroke:#A80036;stroke-width:1.0;"/><polygon fill="#000000" points="819.2415,308.7192,811.5968,303.0615,809.7313,308.6354,819.2415,308.7192" style="stroke:#000000;stroke-width:1.0;"/><text fill="#000000" font-family="sans-serif" font-size="13" lengthAdjust="spacing" textLength="41" x="823.5" y="311.6328">possui</text><text fill="#000000" font-family="sans-serif" font-size="13" lengthAdjust="spacing" textLength="8" x="386.4448" y="284.2363">1</text><text fill="#000000" font-family="sans-serif" font-size="13" lengthAdjust="spacing" textLength="15" x="1161.2694" y="528.4725">0*</text><!--MD5=[7dc9167f2154858c18b46b7fdb011fb6]
link APIParque to Lugar--><path codeLine="68" d="M348.48,249.4349 C391.099,190.6829 526.036,23.5659 682,23.5659 C682,23.5659 682,23.5659 1190.5,23.5659 C1283.04,23.5659 1376.38,93.1479 1417.81,128.4829 " fill="none" id="APIParque-Lugar" style="stroke:#A80036;stroke-width:1.0;"/><polygon fill="#000000" points="979.4683,14.5704,970.1502,12.6667,970.8109,18.5073,979.4683,14.5704" style="stroke:#000000;stroke-width:1.0;"/><text fill="#000000" font-family="sans-serif" font-size="13" lengthAdjust="spacing" textLength="35" x="983.5" y="19.6328">aluga</text><text fill="#000000" font-family="sans-serif" font-size="13" lengthAdjust="spacing" textLength="8" x="343.7054" y="238.4047">1</text><text fill="#000000" font-family="sans-serif" font-size="13" lengthAdjust="spacing" textLength="15" x="1393.7948" y="117.4668">1*</text><!--MD5=[9de0c0f770848f212c2bb5193920029d]
link APPWeb to Cliente--><path codeLine="70" d="M373.683,535.7349 C393.69,542.1969 418.497,549.8079 441,555.5659 C510.284,573.2969 592.076,588.8019 640.348,597.4039 " fill="none" id="APPWeb-Cliente" style="stroke:#A80036;stroke-width:1.0;"/><polygon fill="#000000" points="503.3714,548.2589,495.2211,543.3576,493.8967,549.0843,503.3714,548.2589" style="stroke:#000000;stroke-width:1.0;"/><text fill="#000000" font-family="sans-serif" font-size="13" lengthAdjust="spacing" textLength="41" x="507.5" y="551.6328">possui</text><text fill="#000000" font-family="sans-serif" font-size="13" lengthAdjust="spacing" textLength="8" x="381.5531" y="551.4953">1</text><text fill="#000000" font-family="sans-serif" font-size="13" lengthAdjust="spacing" textLength="15" x="617.355" y="592.1116">0*</text><!--MD5=[c2153d1492787c3e39d56ea1b153bbf6]
link APPWeb to Reserva--><path codeLine="71" d="M373.758,522.6769 C488.595,523.2769 833.769,527.0589 1119,550.5659 C1128.7,551.3659 1139.13,552.5439 1148.87,553.7869 " fill="none" id="APPWeb-Reserva" style="stroke:#A80036;stroke-width:1.0;"/><polygon fill="#000000" points="773.996,523.3328,765.076,520.0335,764.8403,525.9067,773.996,523.3328" style="stroke:#000000;stroke-width:1.0;"/><text fill="#000000" font-family="sans-serif" font-size="13" lengthAdjust="spacing" textLength="132" x="778" y="527.6328">permite fazer e gerir</text><text fill="#000000" font-family="sans-serif" font-size="13" lengthAdjust="spacing" textLength="8" x="381.3648" y="518.4852">1</text><text fill="#000000" font-family="sans-serif" font-size="13" lengthAdjust="spacing" textLength="15" x="1125.8985" y="548.6655">1*</text><!--MD5=[d133d57abbd20800fb090646d0faeebb]
link APPWeb to SubAluguer--><path codeLine="72" d="M373.601,506.9729 C393.482,499.6589 418.202,491.4869 441,486.5659 C623.559,447.1599 846.256,435.8979 943.765,432.7509 " fill="none" id="APPWeb-SubAluguer" style="stroke:#A80036;stroke-width:1.0;"/><polygon fill="#000000" points="641.9582,436.4869,632.6094,434.7402,633.3681,440.5688,641.9582,436.4869" style="stroke:#000000;stroke-width:1.0;"/><text fill="#000000" font-family="sans-serif" font-size="13" lengthAdjust="spacing" textLength="87" x="646" y="441.6328">permite fazer</text><text fill="#000000" font-family="sans-serif" font-size="13" lengthAdjust="spacing" textLength="8" x="381.4565" y="499.9382">1</text><text fill="#000000" font-family="sans-serif" font-size="13" lengthAdjust="spacing" textLength="15" x="920.9397" y="445.9938">1*</text><!--MD5=[55a59268352d08cbaca9c2ff75c5c8f9]
link Cliente to Reserva--><path codeLine="74" d="M725.503,605.7189 C771.078,606.5879 846.382,606.8579 911,601.5659 C996.228,594.5859 1095.02,577.4379 1148.72,567.3429 " fill="none" id="Cliente-Reserva" style="stroke:#A80036;stroke-width:1.0;"/><polygon fill="#000000" points="964.4796,576.6808,955.206,574.5707,955.7368,580.4245,964.4796,576.6808" style="stroke:#000000;stroke-width:1.0;"/><text fill="#000000" font-family="sans-serif" font-size="13" lengthAdjust="spacing" textLength="65" x="968.5" y="581.6328">faz e gere</text><text fill="#000000" font-family="sans-serif" font-size="13" lengthAdjust="spacing" textLength="8" x="733.4957" y="619.2489">1</text><text fill="#000000" font-family="sans-serif" font-size="13" lengthAdjust="spacing" textLength="15" x="1126.0254" y="581.8552">0*</text><!--MD5=[cbf66c614648062d242e461098f2e52e]
link Cliente to SubAluguer--><path codeLine="75" d="M725.696,602.1379 C782.757,598.1189 881.468,588.4689 911,568.5659 C953.133,540.1709 977.187,482.3649 987.479,451.7059 " fill="none" id="Cliente-SubAluguer" style="stroke:#A80036;stroke-width:1.0;"/><polygon fill="#000000" points="829.3352,557.6411,820.0285,559.5996,822.957,564.6959,829.3352,557.6411" style="stroke:#000000;stroke-width:1.0;"/><text fill="#000000" font-family="sans-serif" font-size="13" lengthAdjust="spacing" textLength="20" x="834" y="564.6328">faz</text><text fill="#000000" font-family="sans-serif" font-size="13" lengthAdjust="spacing" textLength="8" x="733.43" y="597.5372">1</text><text fill="#000000" font-family="sans-serif" font-size="13" lengthAdjust="spacing" textLength="15" x="968.395" y="471.5652">0*</text><!--MD5=[d75ccf407ddc5af61a41230a97fe5acc]
link Reserva to Lugar--><path codeLine="77" d="M1202.7,539.4649 C1245.07,469.6799 1385.49,238.3539 1427.82,168.6289 " fill="none" id="Reserva-Lugar" style="stroke:#A80036;stroke-width:1.0;"/><polygon fill="#000000" points="1267.5946,280.8582,1260.3886,287.0651,1265.4131,290.1152,1267.5946,280.8582" style="stroke:#000000;stroke-width:1.0;"/><text fill="#000000" font-family="sans-serif" font-size="13" lengthAdjust="spacing" textLength="84" x="1274" y="289.6328">é referente a</text><text fill="#000000" font-family="sans-serif" font-size="13" lengthAdjust="spacing" textLength="8" x="1197.4025" y="528.4435">1</text><text fill="#000000" font-family="sans-serif" font-size="13" lengthAdjust="spacing" textLength="8" x="1414.9881" y="188.4666">1</text><!--MD5=[394e3bec980ca78a75a075ce7537c7d8]
link Reserva to Custo--><path codeLine="78" d="M1230.03,552.5939 C1279.23,543.9189 1362.28,529.2719 1407.79,521.2459 " fill="none" id="Reserva-Custo" style="stroke:#A80036;stroke-width:1.0;"/><polygon fill="#000000" points="1298.924,522.264,1289.506,520.9406,1290.5268,526.7291,1298.924,522.264" style="stroke:#000000;stroke-width:1.0;"/><text fill="#000000" font-family="sans-serif" font-size="13" lengthAdjust="spacing" textLength="26" x="1303" y="527.6328">tem</text><text fill="#000000" font-family="sans-serif" font-size="13" lengthAdjust="spacing" textLength="8" x="1237.9619" y="564.7667">1</text><text fill="#000000" font-family="sans-serif" font-size="13" lengthAdjust="spacing" textLength="8" x="1392.1154" y="536.0449">1</text><!--MD5=[3147b653d631aff453645938f05f69e4]
link Reserva to Duração--><path codeLine="79" d="M1230.03,566.5379 C1273.04,574.1229 1341.94,586.2719 1388.99,594.5709 " fill="none" id="Reserva-Duração" style="stroke:#A80036;stroke-width:1.0;"/><polygon fill="#000000" points="1298.924,566.0007,1290.5268,561.5355,1289.506,567.3241,1298.924,566.0007" style="stroke:#000000;stroke-width:1.0;"/><text fill="#000000" font-family="sans-serif" font-size="13" lengthAdjust="spacing" textLength="26" x="1303" y="569.6328">tem</text><text fill="#000000" font-family="sans-serif" font-size="13" lengthAdjust="spacing" textLength="8" x="1237.9619" y="581.1945">1</text><text fill="#000000" font-family="sans-serif" font-size="13" lengthAdjust="spacing" textLength="8" x="1373.1136" y="606.4644">1</text><!--MD5=[56324d45d85896dd9362f79db6a3f999]
link EmailDeConfirmação to Reserva--><path codeLine="81" d="M411.149,869.4269 C565.327,886.7079 915.561,902.2719 1119,724.5659 C1163.24,685.9179 1180.04,614.4019 1185.8,579.6139 " fill="none" id="EmailDeConfirmação-Reserva" style="stroke:#A80036;stroke-width:1.0;"/><polygon fill="#000000" points="797.683,827.3803,788.1816,827.7971,790.2412,833.3023,797.683,827.3803" style="stroke:#000000;stroke-width:1.0;"/><text fill="#000000" font-family="sans-serif" font-size="13" lengthAdjust="spacing" textLength="84" x="802" y="833.6328">é referente a</text><text fill="#000000" font-family="sans-serif" font-size="13" lengthAdjust="spacing" textLength="8" x="418.9312" y="883.2502">1</text><text fill="#000000" font-family="sans-serif" font-size="13" lengthAdjust="spacing" textLength="8" x="1175.5381" y="599.7925">1</text><!--MD5=[bd6f08b8d3e30f761df0a590a1aa81ef]
link Preço to Lugar--><path codeLine="83" d="M1222.61,179.9339 C1270.65,173.0019 1360.67,160.0119 1408.41,153.1239 " fill="none" id="Preço-Lugar" style="stroke:#A80036;stroke-width:1.0;"/><polygon fill="#000000" points="1289.0513,153.8464,1298.4233,155.4634,1297.5839,149.6458,1289.0513,153.8464" style="stroke:#000000;stroke-width:1.0;"/><text fill="#000000" font-family="sans-serif" font-size="13" lengthAdjust="spacing" textLength="26" x="1303" y="157.6328">tem</text><text fill="#000000" font-family="sans-serif" font-size="13" lengthAdjust="spacing" textLength="8" x="1230.7278" y="192.6427">1</text><text fill="#000000" font-family="sans-serif" font-size="13" lengthAdjust="spacing" textLength="8" x="1392.4059" y="167.843">1</text><!--MD5=[72517315f51e3c1cfdb97a2270c0d927]
link Parque to Lugar--><path codeLine="85" d="M719.514,185.1529 C733.277,180.6909 749.246,175.9329 764,172.5659 C979.484,123.3909 1039,140.0289 1260,136.5659 C1303.99,135.8769 1315.12,133.3329 1359,136.5659 C1375.3,137.7669 1393.31,140.3109 1408.19,142.7489 " fill="none" id="Parque-Lugar" style="stroke:#A80036;stroke-width:1.0;"/><polygon fill="#000000" points="1087.9905,127.825,1078.7819,125.4476,1079.1432,131.3143,1087.9905,127.825" style="stroke:#000000;stroke-width:1.0;"/><text fill="#000000" font-family="sans-serif" font-size="13" lengthAdjust="spacing" textLength="26" x="1092" y="132.6328">tem</text><text fill="#000000" font-family="sans-serif" font-size="13" lengthAdjust="spacing" textLength="8" x="727.4902" y="196.2656">1</text><text fill="#000000" font-family="sans-serif" font-size="13" lengthAdjust="spacing" textLength="15" x="1385.5059" y="137.2899">1*</text><!--MD5=[3f7724b18204e3b9d88ba74c97f9e53e]
link Parque to Morada--><path codeLine="86" d="M719.504,197.5659 C773.807,197.5659 877.816,197.5659 940.899,197.5659 " fill="none" id="Parque-Morada" style="stroke:#A80036;stroke-width:1.0;"/><polygon fill="#000000" points="827,189.1323,817.9549,186.1934,817.9549,192.0713,827,189.1323" style="stroke:#000000;stroke-width:1.0;"/><text fill="#000000" font-family="sans-serif" font-size="13" lengthAdjust="spacing" textLength="26" x="831" y="193.6328">tem</text><text fill="#000000" font-family="sans-serif" font-size="13" lengthAdjust="spacing" textLength="8" x="727.4782" y="211.1224">1</text><text fill="#000000" font-family="sans-serif" font-size="13" lengthAdjust="spacing" textLength="8" x="925.1589" y="210.6758">1</text><!--MD5=[5f363e7da27d4325081f8fe75b17f797]
link Lugar to Localização--><path codeLine="88" d="M1473.56,148.5659 C1505.74,148.5659 1556.15,148.5659 1593.81,148.5659 " fill="none" id="Lugar-Localização" style="stroke:#A80036;stroke-width:1.0;"/><polygon fill="#000000" points="1533,140.1323,1523.9549,137.1934,1523.9549,143.0713,1533,140.1323" style="stroke:#000000;stroke-width:1.0;"/><text fill="#000000" font-family="sans-serif" font-size="13" lengthAdjust="spacing" textLength="26" x="1537" y="144.6328">tem</text><text fill="#000000" font-family="sans-serif" font-size="13" lengthAdjust="spacing" textLength="8" x="1481.5575" y="162.288">1</text><text fill="#000000" font-family="sans-serif" font-size="13" lengthAdjust="spacing" textLength="8" x="1578.0489" y="161.6677">1</text><!--MD5=[5d7300fd354e8d9cb95ffaec1da927e3]
link SubAluguer to Reserva--><path codeLine="91" d="M1045.27,446.4059 C1068.88,454.8279 1096.72,466.8609 1119,482.5659 C1141.22,498.2349 1161.41,522.2089 1174.23,539.2389 " fill="none" id="SubAluguer-Reserva" style="stroke:#A80036;stroke-width:1.0;"/><polygon fill="#000000" points="1096.0579,456.0535,1090.4341,448.3839,1087,453.1543,1096.0579,456.0535" style="stroke:#000000;stroke-width:1.0;"/><text fill="#000000" font-family="sans-serif" font-size="13" lengthAdjust="spacing" textLength="8" x="1101" y="457.6328">é</text><text fill="#000000" font-family="sans-serif" font-size="13" lengthAdjust="spacing" textLength="8" x="1052.972" y="461.6237">1</text><text fill="#000000" font-family="sans-serif" font-size="13" lengthAdjust="spacing" textLength="8" x="1171.0603" y="528.4981">1</text><!--MD5=[90c33401299c0bea06e4ba599ef86fc3]
link MétodoDePagamento to Reserva--><path codeLine="93" d="M593.071,956.6252 C717.615,987.258 976.661,1028.8133 1119,892.5662 C1164.65,848.8699 1182.54,645.5309 1187.19,579.9859 " fill="none" id="MétodoDePagamento-Reserva" style="stroke:#A80036;stroke-width:1.0;"/><polygon fill="#000000" points="823.2229,971.4555,814.01,973.8163,817.1571,978.7806,823.2229,971.4555" style="stroke:#000000;stroke-width:1.0;"/><text fill="#000000" font-family="sans-serif" font-size="13" lengthAdjust="spacing" textLength="32" x="828" y="978.6331">paga</text><text fill="#000000" font-family="sans-serif" font-size="13" lengthAdjust="spacing" textLength="8" x="604.0753" y="976.4618">1</text><text fill="#000000" font-family="sans-serif" font-size="13" lengthAdjust="spacing" textLength="15" x="1188.5848" y="599.5742">1*</text><!--MD5=[ad8becfcaf113e1d7d13482b49ea52a4]
link EmailDeConfirmação to APIQRCode--><path codeLine="95" d="M411.219,846.8159 C464.875,838.1769 538.087,825.5449 602,811.5659 C612.381,809.2959 623.445,806.5829 633.929,803.8739 " fill="none" id="EmailDeConfirmação-APIQRCode" style="stroke:#A80036;stroke-width:1.0;"/><text fill="#000000" font-family="sans-serif" font-size="13" lengthAdjust="spacing" textLength="33" x="505" y="807.6328">usa&gt;</text><text fill="#000000" font-family="sans-serif" font-size="13" lengthAdjust="spacing" textLength="15" x="419.0751" y="858.4971">1*</text><text fill="#000000" font-family="sans-serif" font-size="13" lengthAdjust="spacing" textLength="8" x="618.1342" y="819.0067">1</text><!--MD5=[6222a41887d22bc766698f4abf9e3558]
@startuml
skinparam classAttributeIconSize 0
hide methods
left to right direction

class APISistemaCentral {}

class APIParque {}

class APISistemaCentral {}

class APPWeb {}

class Cliente {
 -int Nif
 -string Nome
 -string Email
}

class Reserva {}

class EmailDeConfirmação {}

class Preço {}

class Custo {}

class Parque {}

class Lugar {}

class Localização {
 -int Numero
 -int Fila
 -int Andar
}

class SubAluguer {}

class MétodoDePagamento {}

class APIQRCode {}


class Duração {
 -dateTime Inicio
 -dateTime Fim
}

class Morada {
 -string Rua
 -string Freguesia
}



APISistemaCentral "1*" - - "1*" APIParque : usa >
APISistemaCentral "1" - - "1" APPWeb : usa >
APISistemaCentral "1" - - "0*" Reserva : possui >
APISistemaCentral "1" - - "0*" Cliente : possui >
APISistemaCentral "1" - - "1*" MétodoDePagamento : tem >
APISistemaCentral "1" - - "1" APIQRCode : usa >
APISistemaCentral "1" - - "0*" EmailDeConfirmação : envia >
APISistemaCentral "1" - - "0*" SubAluguer : permite fazer >

APIParque "1" - - "0*" Cliente : possui >
APIParque "1" - - "1" Parque : é referente a >
APIParque "1" - - "0*" Reserva : possui >
APIParque "1" - - "1*" Lugar : aluga >

APPWeb "1" - - "0*" Cliente : possui >
APPWeb "1" - - "1*" Reserva : permite fazer e gerir >
APPWeb "1" - - "1*" SubAluguer : permite fazer >

Cliente "1" - - "0*" Reserva : faz e gere >
Cliente "1" - - "0*" SubAluguer : faz >

Reserva "1" - - "1" Lugar : é referente a >
Reserva "1" - - "1" Custo: tem >
Reserva "1" - - "1" Duração : tem >

EmailDeConfirmação "1" - - "1" Reserva : é referente a >

Preço "1" - - "1" Lugar : tem <

Parque "1" - - "1*" Lugar : tem >
Parque "1" - - "1" Morada : tem >

Lugar "1" - - "1" Localização : tem >


SubAluguer "1" - - "1" Reserva : é >

MétodoDePagamento "1" - - "1*" Reserva : paga >

EmailDeConfirmação "1*" - - "1" APIQRCode : usa>
@enduml

PlantUML version 1.2021.01beta3(Unknown compile time)
(GPL source distribution)
Java Runtime: Java(TM) SE Runtime Environment
JVM: Java HotSpot(TM) 64-Bit Server VM
Default Encoding: UTF-8
Language: en
Country: US
--></g></svg>