<?xml version="1.0" encoding="UTF-8" standalone="no"?><svg xmlns="http://www.w3.org/2000/svg" xmlns:xlink="http://www.w3.org/1999/xlink" contentScriptType="application/ecmascript" contentStyleType="text/css" height="876px" preserveAspectRatio="none" style="width:2325px;height:876px;" version="1.1" viewBox="0 0 2325 876" width="2325px" zoomAndPan="magnify"><defs><filter height="300%" id="fl65iypx01aeo" width="300%" x="-1" y="-1"><feGaussianBlur result="blurOut" stdDeviation="2.0"/><feColorMatrix in="blurOut" result="blurOut2" type="matrix" values="0 0 0 0 0 0 0 0 0 0 0 0 0 0 0 0 0 0 .4 0"/><feOffset dx="4.0" dy="4.0" in="blurOut2" result="blurOut3"/><feBlend in="SourceGraphic" in2="blurOut3" mode="normal"/></filter></defs><g><!--MD5=[38129dd771424f36b121b079983d2f41]
class APISistemaCentral--><rect codeLine="9" fill="#FEFECE" filter="url(#fl65iypx01aeo)" height="40" id="APISistemaCentral" style="stroke:#A80036;stroke-width:1.5;" width="139" x="7" y="560.5659"/><ellipse cx="22" cy="576.5659" fill="#ADD1B2" rx="11" ry="11" style="stroke:#A80036;stroke-width:1.0;"/><path d="M24.3438,572.2378 C23.4063,571.8003 22.8125,571.6597 21.9375,571.6597 C19.3125,571.6597 17.3125,573.7378 17.3125,576.4565 L17.3125,577.5815 C17.3125,580.1597 19.4219,582.0503 22.3125,582.0503 C23.5313,582.0503 24.6875,581.7534 25.4375,581.2065 C26.0156,580.8003 26.3438,580.3472 26.3438,579.9565 C26.3438,579.5034 25.9531,579.1128 25.4844,579.1128 C25.2656,579.1128 25.0625,579.1909 24.875,579.3784 C24.4219,579.8628 24.4219,579.8628 24.2344,579.9565 C23.8125,580.2222 23.125,580.3472 22.3594,580.3472 C20.3125,580.3472 19.0156,579.2534 19.0156,577.5503 L19.0156,576.4565 C19.0156,574.6753 20.2656,573.3628 22,573.3628 C22.5781,573.3628 23.1875,573.519 23.6563,573.769 C24.1406,574.0503 24.3125,574.269 24.4063,574.6753 C24.4688,575.0815 24.5,575.2065 24.6406,575.3315 C24.7813,575.4722 25.0156,575.5815 25.2344,575.5815 C25.5,575.5815 25.7656,575.4409 25.9375,575.2222 C26.0469,575.0659 26.0781,574.8784 26.0781,574.4565 L26.0781,573.0347 C26.0781,572.5972 26.0625,572.4722 25.9688,572.3159 C25.8125,572.0503 25.5313,571.9097 25.2344,571.9097 C24.9375,571.9097 24.7344,572.0034 24.5156,572.3159 L24.3438,572.2378 Z " fill="#000000"/><text fill="#000000" font-family="sans-serif" font-size="12" lengthAdjust="spacing" textLength="107" x="36" y="580.7202">APISistemaCentral</text><line style="stroke:#A80036;stroke-width:1.5;" x1="8" x2="145" y1="592.5659" y2="592.5659"/><!--MD5=[1654698dbf1dab33aeaf9b6eaf8a8ac4]
class APIParque--><rect codeLine="7" fill="#FEFECE" filter="url(#fl65iypx01aeo)" height="40" id="APIParque" style="stroke:#A80036;stroke-width:1.5;" width="90" x="288.5" y="217.5659"/><ellipse cx="303.5" cy="233.5659" fill="#ADD1B2" rx="11" ry="11" style="stroke:#A80036;stroke-width:1.0;"/><path d="M305.8438,229.2378 C304.9063,228.8003 304.3125,228.6597 303.4375,228.6597 C300.8125,228.6597 298.8125,230.7378 298.8125,233.4565 L298.8125,234.5815 C298.8125,237.1597 300.9219,239.0503 303.8125,239.0503 C305.0313,239.0503 306.1875,238.7534 306.9375,238.2065 C307.5156,237.8003 307.8438,237.3472 307.8438,236.9565 C307.8438,236.5034 307.4531,236.1128 306.9844,236.1128 C306.7656,236.1128 306.5625,236.1909 306.375,236.3784 C305.9219,236.8628 305.9219,236.8628 305.7344,236.9565 C305.3125,237.2222 304.625,237.3472 303.8594,237.3472 C301.8125,237.3472 300.5156,236.2534 300.5156,234.5503 L300.5156,233.4565 C300.5156,231.6753 301.7656,230.3628 303.5,230.3628 C304.0781,230.3628 304.6875,230.519 305.1563,230.769 C305.6406,231.0503 305.8125,231.269 305.9063,231.6753 C305.9688,232.0815 306,232.2065 306.1406,232.3315 C306.2813,232.4722 306.5156,232.5815 306.7344,232.5815 C307,232.5815 307.2656,232.4409 307.4375,232.2222 C307.5469,232.0659 307.5781,231.8784 307.5781,231.4565 L307.5781,230.0347 C307.5781,229.5972 307.5625,229.4722 307.4688,229.3159 C307.3125,229.0503 307.0313,228.9097 306.7344,228.9097 C306.4375,228.9097 306.2344,229.0034 306.0156,229.3159 L305.8438,229.2378 Z " fill="#000000"/><text fill="#000000" font-family="sans-serif" font-size="12" lengthAdjust="spacing" textLength="58" x="317.5" y="237.7202">APIParque</text><line style="stroke:#A80036;stroke-width:1.5;" x1="289.5" x2="377.5" y1="249.5659" y2="249.5659"/><!--MD5=[19853574c7a77dd38c1a45d47059c05f]
class APPWeb--><rect codeLine="11" fill="#FEFECE" filter="url(#fl65iypx01aeo)" height="40" id="APPWeb" style="stroke:#A80036;stroke-width:1.5;" width="80" x="293.5" y="515.5659"/><ellipse cx="308.5" cy="531.5659" fill="#ADD1B2" rx="11" ry="11" style="stroke:#A80036;stroke-width:1.0;"/><path d="M310.8438,527.2378 C309.9063,526.8003 309.3125,526.6597 308.4375,526.6597 C305.8125,526.6597 303.8125,528.7378 303.8125,531.4565 L303.8125,532.5815 C303.8125,535.1597 305.9219,537.0503 308.8125,537.0503 C310.0313,537.0503 311.1875,536.7534 311.9375,536.2065 C312.5156,535.8003 312.8438,535.3472 312.8438,534.9565 C312.8438,534.5034 312.4531,534.1128 311.9844,534.1128 C311.7656,534.1128 311.5625,534.1909 311.375,534.3784 C310.9219,534.8628 310.9219,534.8628 310.7344,534.9565 C310.3125,535.2222 309.625,535.3472 308.8594,535.3472 C306.8125,535.3472 305.5156,534.2534 305.5156,532.5503 L305.5156,531.4565 C305.5156,529.6753 306.7656,528.3628 308.5,528.3628 C309.0781,528.3628 309.6875,528.519 310.1563,528.769 C310.6406,529.0503 310.8125,529.269 310.9063,529.6753 C310.9688,530.0815 311,530.2065 311.1406,530.3315 C311.2813,530.4722 311.5156,530.5815 311.7344,530.5815 C312,530.5815 312.2656,530.4409 312.4375,530.2222 C312.5469,530.0659 312.5781,529.8784 312.5781,529.4565 L312.5781,528.0347 C312.5781,527.5972 312.5625,527.4722 312.4688,527.3159 C312.3125,527.0503 312.0313,526.9097 311.7344,526.9097 C311.4375,526.9097 311.2344,527.0034 311.0156,527.3159 L310.8438,527.2378 Z " fill="#000000"/><text fill="#000000" font-family="sans-serif" font-size="12" lengthAdjust="spacing" textLength="48" x="322.5" y="535.7202">APPWeb</text><line style="stroke:#A80036;stroke-width:1.5;" x1="294.5" x2="372.5" y1="547.5659" y2="547.5659"/><!--MD5=[5dd1d6732c071e710b9290b531f2fa3b]
class Utilizador--><rect codeLine="13" fill="#FEFECE" filter="url(#fl65iypx01aeo)" height="40" id="Utilizador" style="stroke:#A80036;stroke-width:1.5;" width="89" x="638.5" y="519.5659"/><ellipse cx="653.5" cy="535.5659" fill="#ADD1B2" rx="11" ry="11" style="stroke:#A80036;stroke-width:1.0;"/><path d="M655.8438,531.2378 C654.9063,530.8003 654.3125,530.6597 653.4375,530.6597 C650.8125,530.6597 648.8125,532.7378 648.8125,535.4565 L648.8125,536.5815 C648.8125,539.1597 650.9219,541.0503 653.8125,541.0503 C655.0313,541.0503 656.1875,540.7534 656.9375,540.2065 C657.5156,539.8003 657.8438,539.3472 657.8438,538.9565 C657.8438,538.5034 657.4531,538.1128 656.9844,538.1128 C656.7656,538.1128 656.5625,538.1909 656.375,538.3784 C655.9219,538.8628 655.9219,538.8628 655.7344,538.9565 C655.3125,539.2222 654.625,539.3472 653.8594,539.3472 C651.8125,539.3472 650.5156,538.2534 650.5156,536.5503 L650.5156,535.4565 C650.5156,533.6753 651.7656,532.3628 653.5,532.3628 C654.0781,532.3628 654.6875,532.519 655.1563,532.769 C655.6406,533.0503 655.8125,533.269 655.9063,533.6753 C655.9688,534.0815 656,534.2065 656.1406,534.3315 C656.2813,534.4722 656.5156,534.5815 656.7344,534.5815 C657,534.5815 657.2656,534.4409 657.4375,534.2222 C657.5469,534.0659 657.5781,533.8784 657.5781,533.4565 L657.5781,532.0347 C657.5781,531.5972 657.5625,531.4722 657.4688,531.3159 C657.3125,531.0503 657.0313,530.9097 656.7344,530.9097 C656.4375,530.9097 656.2344,531.0034 656.0156,531.3159 L655.8438,531.2378 Z " fill="#000000"/><text fill="#000000" font-family="sans-serif" font-size="12" lengthAdjust="spacing" textLength="57" x="667.5" y="539.7202">Utilizador</text><line style="stroke:#A80036;stroke-width:1.5;" x1="639.5" x2="726.5" y1="551.5659" y2="551.5659"/><!--MD5=[6ea9d6598d9760662639554c9857ab6b]
class Reserva--><rect codeLine="15" fill="#FEFECE" filter="url(#fl65iypx01aeo)" height="40" id="Reserva" style="stroke:#A80036;stroke-width:1.5;" width="81" x="1152" y="421.5659"/><ellipse cx="1167" cy="437.5659" fill="#ADD1B2" rx="11" ry="11" style="stroke:#A80036;stroke-width:1.0;"/><path d="M1169.3438,433.2378 C1168.4063,432.8003 1167.8125,432.6597 1166.9375,432.6597 C1164.3125,432.6597 1162.3125,434.7378 1162.3125,437.4565 L1162.3125,438.5815 C1162.3125,441.1597 1164.4219,443.0503 1167.3125,443.0503 C1168.5313,443.0503 1169.6875,442.7534 1170.4375,442.2065 C1171.0156,441.8003 1171.3438,441.3472 1171.3438,440.9565 C1171.3438,440.5034 1170.9531,440.1128 1170.4844,440.1128 C1170.2656,440.1128 1170.0625,440.1909 1169.875,440.3784 C1169.4219,440.8628 1169.4219,440.8628 1169.2344,440.9565 C1168.8125,441.2222 1168.125,441.3472 1167.3594,441.3472 C1165.3125,441.3472 1164.0156,440.2534 1164.0156,438.5503 L1164.0156,437.4565 C1164.0156,435.6753 1165.2656,434.3628 1167,434.3628 C1167.5781,434.3628 1168.1875,434.519 1168.6563,434.769 C1169.1406,435.0503 1169.3125,435.269 1169.4063,435.6753 C1169.4688,436.0815 1169.5,436.2065 1169.6406,436.3315 C1169.7813,436.4722 1170.0156,436.5815 1170.2344,436.5815 C1170.5,436.5815 1170.7656,436.4409 1170.9375,436.2222 C1171.0469,436.0659 1171.0781,435.8784 1171.0781,435.4565 L1171.0781,434.0347 C1171.0781,433.5972 1171.0625,433.4722 1170.9688,433.3159 C1170.8125,433.0503 1170.5313,432.9097 1170.2344,432.9097 C1169.9375,432.9097 1169.7344,433.0034 1169.5156,433.3159 L1169.3438,433.2378 Z " fill="#000000"/><text fill="#000000" font-family="sans-serif" font-size="12" lengthAdjust="spacing" textLength="49" x="1181" y="441.7202">Reserva</text><line style="stroke:#A80036;stroke-width:1.5;" x1="1153" x2="1232" y1="453.5659" y2="453.5659"/><!--MD5=[422caa1b20ead34cd492b75378c11008]
class EmailDeConfirmação--><rect codeLine="17" fill="#FEFECE" filter="url(#fl65iypx01aeo)" height="40" id="EmailDeConfirmação" style="stroke:#A80036;stroke-width:1.5;" width="155" x="256" y="689.5659"/><ellipse cx="271" cy="705.5659" fill="#ADD1B2" rx="11" ry="11" style="stroke:#A80036;stroke-width:1.0;"/><path d="M273.3438,701.2378 C272.4063,700.8003 271.8125,700.6597 270.9375,700.6597 C268.3125,700.6597 266.3125,702.7378 266.3125,705.4565 L266.3125,706.5815 C266.3125,709.1597 268.4219,711.0503 271.3125,711.0503 C272.5313,711.0503 273.6875,710.7534 274.4375,710.2065 C275.0156,709.8003 275.3438,709.3472 275.3438,708.9565 C275.3438,708.5034 274.9531,708.1128 274.4844,708.1128 C274.2656,708.1128 274.0625,708.1909 273.875,708.3784 C273.4219,708.8628 273.4219,708.8628 273.2344,708.9565 C272.8125,709.2222 272.125,709.3472 271.3594,709.3472 C269.3125,709.3472 268.0156,708.2534 268.0156,706.5503 L268.0156,705.4565 C268.0156,703.6753 269.2656,702.3628 271,702.3628 C271.5781,702.3628 272.1875,702.519 272.6563,702.769 C273.1406,703.0503 273.3125,703.269 273.4063,703.6753 C273.4688,704.0815 273.5,704.2065 273.6406,704.3315 C273.7813,704.4722 274.0156,704.5815 274.2344,704.5815 C274.5,704.5815 274.7656,704.4409 274.9375,704.2222 C275.0469,704.0659 275.0781,703.8784 275.0781,703.4565 L275.0781,702.0347 C275.0781,701.5972 275.0625,701.4722 274.9688,701.3159 C274.8125,701.0503 274.5313,700.9097 274.2344,700.9097 C273.9375,700.9097 273.7344,701.0034 273.5156,701.3159 L273.3438,701.2378 Z " fill="#000000"/><text fill="#000000" font-family="sans-serif" font-size="12" lengthAdjust="spacing" textLength="123" x="285" y="709.7202">EmailDeConfirmação</text><line style="stroke:#A80036;stroke-width:1.5;" x1="257" x2="410" y1="721.5659" y2="721.5659"/><!--MD5=[ec8f5e6a0bb5c1192bcc4a64c9a89492]
class Preço--><rect codeLine="33" fill="#FEFECE" filter="url(#fl65iypx01aeo)" height="40" id="Preço" style="stroke:#A80036;stroke-width:1.5;" width="66" x="1393.5" y="349.5659"/><ellipse cx="1408.5" cy="365.5659" fill="#ADD1B2" rx="11" ry="11" style="stroke:#A80036;stroke-width:1.0;"/><path d="M1410.8438,361.2378 C1409.9063,360.8003 1409.3125,360.6597 1408.4375,360.6597 C1405.8125,360.6597 1403.8125,362.7378 1403.8125,365.4565 L1403.8125,366.5815 C1403.8125,369.1597 1405.9219,371.0503 1408.8125,371.0503 C1410.0313,371.0503 1411.1875,370.7534 1411.9375,370.2065 C1412.5156,369.8003 1412.8438,369.3472 1412.8438,368.9565 C1412.8438,368.5034 1412.4531,368.1128 1411.9844,368.1128 C1411.7656,368.1128 1411.5625,368.1909 1411.375,368.3784 C1410.9219,368.8628 1410.9219,368.8628 1410.7344,368.9565 C1410.3125,369.2222 1409.625,369.3472 1408.8594,369.3472 C1406.8125,369.3472 1405.5156,368.2534 1405.5156,366.5503 L1405.5156,365.4565 C1405.5156,363.6753 1406.7656,362.3628 1408.5,362.3628 C1409.0781,362.3628 1409.6875,362.519 1410.1563,362.769 C1410.6406,363.0503 1410.8125,363.269 1410.9063,363.6753 C1410.9688,364.0815 1411,364.2065 1411.1406,364.3315 C1411.2813,364.4722 1411.5156,364.5815 1411.7344,364.5815 C1412,364.5815 1412.2656,364.4409 1412.4375,364.2222 C1412.5469,364.0659 1412.5781,363.8784 1412.5781,363.4565 L1412.5781,362.0347 C1412.5781,361.5972 1412.5625,361.4722 1412.4688,361.3159 C1412.3125,361.0503 1412.0313,360.9097 1411.7344,360.9097 C1411.4375,360.9097 1411.2344,361.0034 1411.0156,361.3159 L1410.8438,361.2378 Z " fill="#000000"/><text fill="#000000" font-family="sans-serif" font-size="12" lengthAdjust="spacing" textLength="34" x="1422.5" y="369.7202">Preço</text><line style="stroke:#A80036;stroke-width:1.5;" x1="1394.5" x2="1458.5" y1="381.5659" y2="381.5659"/><!--MD5=[7cf329db1fa3148e9651c325bfe521df]
class ParqueDeEstacionamento--><rect codeLine="21" fill="#FEFECE" filter="url(#fl65iypx01aeo)" height="40" id="ParqueDeEstacionamento" style="stroke:#A80036;stroke-width:1.5;" width="185" x="1334" y="38.5659"/><ellipse cx="1349" cy="54.5659" fill="#ADD1B2" rx="11" ry="11" style="stroke:#A80036;stroke-width:1.0;"/><path d="M1351.3438,50.2378 C1350.4063,49.8003 1349.8125,49.6597 1348.9375,49.6597 C1346.3125,49.6597 1344.3125,51.7378 1344.3125,54.4565 L1344.3125,55.5815 C1344.3125,58.1597 1346.4219,60.0503 1349.3125,60.0503 C1350.5313,60.0503 1351.6875,59.7534 1352.4375,59.2065 C1353.0156,58.8003 1353.3438,58.3472 1353.3438,57.9565 C1353.3438,57.5034 1352.9531,57.1128 1352.4844,57.1128 C1352.2656,57.1128 1352.0625,57.1909 1351.875,57.3784 C1351.4219,57.8628 1351.4219,57.8628 1351.2344,57.9565 C1350.8125,58.2222 1350.125,58.3472 1349.3594,58.3472 C1347.3125,58.3472 1346.0156,57.2534 1346.0156,55.5503 L1346.0156,54.4565 C1346.0156,52.6753 1347.2656,51.3628 1349,51.3628 C1349.5781,51.3628 1350.1875,51.519 1350.6563,51.769 C1351.1406,52.0503 1351.3125,52.269 1351.4063,52.6753 C1351.4688,53.0815 1351.5,53.2065 1351.6406,53.3315 C1351.7813,53.4722 1352.0156,53.5815 1352.2344,53.5815 C1352.5,53.5815 1352.7656,53.4409 1352.9375,53.2222 C1353.0469,53.0659 1353.0781,52.8784 1353.0781,52.4565 L1353.0781,51.0347 C1353.0781,50.5972 1353.0625,50.4722 1352.9688,50.3159 C1352.8125,50.0503 1352.5313,49.9097 1352.2344,49.9097 C1351.9375,49.9097 1351.7344,50.0034 1351.5156,50.3159 L1351.3438,50.2378 Z " fill="#000000"/><text fill="#000000" font-family="sans-serif" font-size="12" lengthAdjust="spacing" textLength="153" x="1363" y="58.7202">ParqueDeEstacionamento</text><line style="stroke:#A80036;stroke-width:1.5;" x1="1335" x2="1518" y1="70.5659" y2="70.5659"/><!--MD5=[e6daef6bccd51d10bbfc135e668077f3]
class LugarDeEstacionamento--><rect codeLine="23" fill="#FEFECE" filter="url(#fl65iypx01aeo)" height="40" id="LugarDeEstacionamento" style="stroke:#A80036;stroke-width:1.5;" width="177" x="1678" y="146.5659"/><ellipse cx="1693" cy="162.5659" fill="#ADD1B2" rx="11" ry="11" style="stroke:#A80036;stroke-width:1.0;"/><path d="M1695.3438,158.2378 C1694.4063,157.8003 1693.8125,157.6597 1692.9375,157.6597 C1690.3125,157.6597 1688.3125,159.7378 1688.3125,162.4565 L1688.3125,163.5815 C1688.3125,166.1597 1690.4219,168.0503 1693.3125,168.0503 C1694.5313,168.0503 1695.6875,167.7534 1696.4375,167.2065 C1697.0156,166.8003 1697.3438,166.3472 1697.3438,165.9565 C1697.3438,165.5034 1696.9531,165.1128 1696.4844,165.1128 C1696.2656,165.1128 1696.0625,165.1909 1695.875,165.3784 C1695.4219,165.8628 1695.4219,165.8628 1695.2344,165.9565 C1694.8125,166.2222 1694.125,166.3472 1693.3594,166.3472 C1691.3125,166.3472 1690.0156,165.2534 1690.0156,163.5503 L1690.0156,162.4565 C1690.0156,160.6753 1691.2656,159.3628 1693,159.3628 C1693.5781,159.3628 1694.1875,159.519 1694.6563,159.769 C1695.1406,160.0503 1695.3125,160.269 1695.4063,160.6753 C1695.4688,161.0815 1695.5,161.2065 1695.6406,161.3315 C1695.7813,161.4722 1696.0156,161.5815 1696.2344,161.5815 C1696.5,161.5815 1696.7656,161.4409 1696.9375,161.2222 C1697.0469,161.0659 1697.0781,160.8784 1697.0781,160.4565 L1697.0781,159.0347 C1697.0781,158.5972 1697.0625,158.4722 1696.9688,158.3159 C1696.8125,158.0503 1696.5313,157.9097 1696.2344,157.9097 C1695.9375,157.9097 1695.7344,158.0034 1695.5156,158.3159 L1695.3438,158.2378 Z " fill="#000000"/><text fill="#000000" font-family="sans-serif" font-size="12" lengthAdjust="spacing" textLength="145" x="1707" y="166.7202">LugarDeEstacionamento</text><line style="stroke:#A80036;stroke-width:1.5;" x1="1679" x2="1854" y1="178.5659" y2="178.5659"/><!--MD5=[53d7157415ddfdf8a565a9d974d385cc]
class Localização--><rect codeLine="25" fill="#FEFECE" filter="url(#fl65iypx01aeo)" height="40" id="Localização" style="stroke:#A80036;stroke-width:1.5;" width="102" x="1956" y="72.5659"/><ellipse cx="1971" cy="88.5659" fill="#ADD1B2" rx="11" ry="11" style="stroke:#A80036;stroke-width:1.0;"/><path d="M1973.3438,84.2378 C1972.4063,83.8003 1971.8125,83.6597 1970.9375,83.6597 C1968.3125,83.6597 1966.3125,85.7378 1966.3125,88.4565 L1966.3125,89.5815 C1966.3125,92.1597 1968.4219,94.0503 1971.3125,94.0503 C1972.5313,94.0503 1973.6875,93.7534 1974.4375,93.2065 C1975.0156,92.8003 1975.3438,92.3472 1975.3438,91.9565 C1975.3438,91.5034 1974.9531,91.1128 1974.4844,91.1128 C1974.2656,91.1128 1974.0625,91.1909 1973.875,91.3784 C1973.4219,91.8628 1973.4219,91.8628 1973.2344,91.9565 C1972.8125,92.2222 1972.125,92.3472 1971.3594,92.3472 C1969.3125,92.3472 1968.0156,91.2534 1968.0156,89.5503 L1968.0156,88.4565 C1968.0156,86.6753 1969.2656,85.3628 1971,85.3628 C1971.5781,85.3628 1972.1875,85.519 1972.6563,85.769 C1973.1406,86.0503 1973.3125,86.269 1973.4063,86.6753 C1973.4688,87.0815 1973.5,87.2065 1973.6406,87.3315 C1973.7813,87.4722 1974.0156,87.5815 1974.2344,87.5815 C1974.5,87.5815 1974.7656,87.4409 1974.9375,87.2222 C1975.0469,87.0659 1975.0781,86.8784 1975.0781,86.4565 L1975.0781,85.0347 C1975.0781,84.5972 1975.0625,84.4722 1974.9688,84.3159 C1974.8125,84.0503 1974.5313,83.9097 1974.2344,83.9097 C1973.9375,83.9097 1973.7344,84.0034 1973.5156,84.3159 L1973.3438,84.2378 Z " fill="#000000"/><text fill="#000000" font-family="sans-serif" font-size="12" lengthAdjust="spacing" textLength="70" x="1985" y="92.7202">Localização</text><line style="stroke:#A80036;stroke-width:1.5;" x1="1957" x2="2057" y1="104.5659" y2="104.5659"/><!--MD5=[15ae23301f4536208a2daf13431a8a82]
class SubAluguer--><rect codeLine="27" fill="#FEFECE" filter="url(#fl65iypx01aeo)" height="40" id="SubAluguer" style="stroke:#A80036;stroke-width:1.5;" width="101" x="941" y="421.5659"/><ellipse cx="956" cy="437.5659" fill="#ADD1B2" rx="11" ry="11" style="stroke:#A80036;stroke-width:1.0;"/><path d="M958.3438,433.2378 C957.4063,432.8003 956.8125,432.6597 955.9375,432.6597 C953.3125,432.6597 951.3125,434.7378 951.3125,437.4565 L951.3125,438.5815 C951.3125,441.1597 953.4219,443.0503 956.3125,443.0503 C957.5313,443.0503 958.6875,442.7534 959.4375,442.2065 C960.0156,441.8003 960.3438,441.3472 960.3438,440.9565 C960.3438,440.5034 959.9531,440.1128 959.4844,440.1128 C959.2656,440.1128 959.0625,440.1909 958.875,440.3784 C958.4219,440.8628 958.4219,440.8628 958.2344,440.9565 C957.8125,441.2222 957.125,441.3472 956.3594,441.3472 C954.3125,441.3472 953.0156,440.2534 953.0156,438.5503 L953.0156,437.4565 C953.0156,435.6753 954.2656,434.3628 956,434.3628 C956.5781,434.3628 957.1875,434.519 957.6563,434.769 C958.1406,435.0503 958.3125,435.269 958.4063,435.6753 C958.4688,436.0815 958.5,436.2065 958.6406,436.3315 C958.7813,436.4722 959.0156,436.5815 959.2344,436.5815 C959.5,436.5815 959.7656,436.4409 959.9375,436.2222 C960.0469,436.0659 960.0781,435.8784 960.0781,435.4565 L960.0781,434.0347 C960.0781,433.5972 960.0625,433.4722 959.9688,433.3159 C959.8125,433.0503 959.5313,432.9097 959.2344,432.9097 C958.9375,432.9097 958.7344,433.0034 958.5156,433.3159 L958.3438,433.2378 Z " fill="#000000"/><text fill="#000000" font-family="sans-serif" font-size="12" lengthAdjust="spacing" textLength="69" x="970" y="441.7202">SubAluguer</text><line style="stroke:#A80036;stroke-width:1.5;" x1="942" x2="1041" y1="453.5659" y2="453.5659"/><!--MD5=[ec92ce9971d25c6d018a00153947441a]
class MétodoDePagamento--><rect codeLine="29" fill="#FEFECE" filter="url(#fl65iypx01aeo)" height="40" id="MétodoDePagamento" style="stroke:#A80036;stroke-width:1.5;" width="161" x="441" y="317.5659"/><ellipse cx="456" cy="333.5659" fill="#ADD1B2" rx="11" ry="11" style="stroke:#A80036;stroke-width:1.0;"/><path d="M458.3438,329.2378 C457.4063,328.8003 456.8125,328.6597 455.9375,328.6597 C453.3125,328.6597 451.3125,330.7378 451.3125,333.4565 L451.3125,334.5815 C451.3125,337.1597 453.4219,339.0503 456.3125,339.0503 C457.5313,339.0503 458.6875,338.7534 459.4375,338.2065 C460.0156,337.8003 460.3438,337.3472 460.3438,336.9565 C460.3438,336.5034 459.9531,336.1128 459.4844,336.1128 C459.2656,336.1128 459.0625,336.1909 458.875,336.3784 C458.4219,336.8628 458.4219,336.8628 458.2344,336.9565 C457.8125,337.2222 457.125,337.3472 456.3594,337.3472 C454.3125,337.3472 453.0156,336.2534 453.0156,334.5503 L453.0156,333.4565 C453.0156,331.6753 454.2656,330.3628 456,330.3628 C456.5781,330.3628 457.1875,330.519 457.6563,330.769 C458.1406,331.0503 458.3125,331.269 458.4063,331.6753 C458.4688,332.0815 458.5,332.2065 458.6406,332.3315 C458.7813,332.4722 459.0156,332.5815 459.2344,332.5815 C459.5,332.5815 459.7656,332.4409 459.9375,332.2222 C460.0469,332.0659 460.0781,331.8784 460.0781,331.4565 L460.0781,330.0347 C460.0781,329.5972 460.0625,329.4722 459.9688,329.3159 C459.8125,329.0503 459.5313,328.9097 459.2344,328.9097 C458.9375,328.9097 458.7344,329.0034 458.5156,329.3159 L458.3438,329.2378 Z " fill="#000000"/><text fill="#000000" font-family="sans-serif" font-size="12" lengthAdjust="spacing" textLength="129" x="470" y="337.7202">MétodoDePagamento</text><line style="stroke:#A80036;stroke-width:1.5;" x1="442" x2="601" y1="349.5659" y2="349.5659"/><!--MD5=[db710054b49517484ab0764fde030c77]
class APIQRCode--><rect codeLine="31" fill="#FEFECE" filter="url(#fl65iypx01aeo)" height="40" id="APIQRCode" style="stroke:#A80036;stroke-width:1.5;" width="98" x="634" y="748.5659"/><ellipse cx="649" cy="764.5659" fill="#ADD1B2" rx="11" ry="11" style="stroke:#A80036;stroke-width:1.0;"/><path d="M651.3438,760.2378 C650.4063,759.8003 649.8125,759.6597 648.9375,759.6597 C646.3125,759.6597 644.3125,761.7378 644.3125,764.4565 L644.3125,765.5815 C644.3125,768.1597 646.4219,770.0503 649.3125,770.0503 C650.5313,770.0503 651.6875,769.7534 652.4375,769.2065 C653.0156,768.8003 653.3438,768.3472 653.3438,767.9565 C653.3438,767.5034 652.9531,767.1128 652.4844,767.1128 C652.2656,767.1128 652.0625,767.1909 651.875,767.3784 C651.4219,767.8628 651.4219,767.8628 651.2344,767.9565 C650.8125,768.2222 650.125,768.3472 649.3594,768.3472 C647.3125,768.3472 646.0156,767.2534 646.0156,765.5503 L646.0156,764.4565 C646.0156,762.6753 647.2656,761.3628 649,761.3628 C649.5781,761.3628 650.1875,761.519 650.6563,761.769 C651.1406,762.0503 651.3125,762.269 651.4063,762.6753 C651.4688,763.0815 651.5,763.2065 651.6406,763.3315 C651.7813,763.4722 652.0156,763.5815 652.2344,763.5815 C652.5,763.5815 652.7656,763.4409 652.9375,763.2222 C653.0469,763.0659 653.0781,762.8784 653.0781,762.4565 L653.0781,761.0347 C653.0781,760.5972 653.0625,760.4722 652.9688,760.3159 C652.8125,760.0503 652.5313,759.9097 652.2344,759.9097 C651.9375,759.9097 651.7344,760.0034 651.5156,760.3159 L651.3438,760.2378 Z " fill="#000000"/><text fill="#000000" font-family="sans-serif" font-size="12" lengthAdjust="spacing" textLength="66" x="663" y="768.7202">APIQRCode</text><line style="stroke:#A80036;stroke-width:1.5;" x1="635" x2="731" y1="780.5659" y2="780.5659"/><!--MD5=[3008f5efaa3e7cb421914c717b209816]
class Duração--><rect codeLine="35" fill="#FEFECE" filter="url(#fl65iypx01aeo)" height="40" id="Duração" style="stroke:#A80036;stroke-width:1.5;" width="82" x="1725.5" y="388.5659"/><ellipse cx="1740.5" cy="404.5659" fill="#ADD1B2" rx="11" ry="11" style="stroke:#A80036;stroke-width:1.0;"/><path d="M1742.8438,400.2378 C1741.9063,399.8003 1741.3125,399.6597 1740.4375,399.6597 C1737.8125,399.6597 1735.8125,401.7378 1735.8125,404.4565 L1735.8125,405.5815 C1735.8125,408.1597 1737.9219,410.0503 1740.8125,410.0503 C1742.0313,410.0503 1743.1875,409.7534 1743.9375,409.2065 C1744.5156,408.8003 1744.8438,408.3472 1744.8438,407.9565 C1744.8438,407.5034 1744.4531,407.1128 1743.9844,407.1128 C1743.7656,407.1128 1743.5625,407.1909 1743.375,407.3784 C1742.9219,407.8628 1742.9219,407.8628 1742.7344,407.9565 C1742.3125,408.2222 1741.625,408.3472 1740.8594,408.3472 C1738.8125,408.3472 1737.5156,407.2534 1737.5156,405.5503 L1737.5156,404.4565 C1737.5156,402.6753 1738.7656,401.3628 1740.5,401.3628 C1741.0781,401.3628 1741.6875,401.519 1742.1563,401.769 C1742.6406,402.0503 1742.8125,402.269 1742.9063,402.6753 C1742.9688,403.0815 1743,403.2065 1743.1406,403.3315 C1743.2813,403.4722 1743.5156,403.5815 1743.7344,403.5815 C1744,403.5815 1744.2656,403.4409 1744.4375,403.2222 C1744.5469,403.0659 1744.5781,402.8784 1744.5781,402.4565 L1744.5781,401.0347 C1744.5781,400.5972 1744.5625,400.4722 1744.4688,400.3159 C1744.3125,400.0503 1744.0313,399.9097 1743.7344,399.9097 C1743.4375,399.9097 1743.2344,400.0034 1743.0156,400.3159 L1742.8438,400.2378 Z " fill="#000000"/><text fill="#000000" font-family="sans-serif" font-size="12" lengthAdjust="spacing" textLength="50" x="1754.5" y="408.7202">Duração</text><line style="stroke:#A80036;stroke-width:1.5;" x1="1726.5" x2="1806.5" y1="420.5659" y2="420.5659"/><!--MD5=[77c6229b59f71ada4b7bed0495e5baba]
class Morada--><rect codeLine="37" fill="#FEFECE" filter="url(#fl65iypx01aeo)" height="40" id="Morada" style="stroke:#A80036;stroke-width:1.5;" width="77" x="1728" y="48.5659"/><ellipse cx="1743" cy="64.5659" fill="#ADD1B2" rx="11" ry="11" style="stroke:#A80036;stroke-width:1.0;"/><path d="M1745.3438,60.2378 C1744.4063,59.8003 1743.8125,59.6597 1742.9375,59.6597 C1740.3125,59.6597 1738.3125,61.7378 1738.3125,64.4565 L1738.3125,65.5815 C1738.3125,68.1597 1740.4219,70.0503 1743.3125,70.0503 C1744.5313,70.0503 1745.6875,69.7534 1746.4375,69.2065 C1747.0156,68.8003 1747.3438,68.3472 1747.3438,67.9565 C1747.3438,67.5034 1746.9531,67.1128 1746.4844,67.1128 C1746.2656,67.1128 1746.0625,67.1909 1745.875,67.3784 C1745.4219,67.8628 1745.4219,67.8628 1745.2344,67.9565 C1744.8125,68.2222 1744.125,68.3472 1743.3594,68.3472 C1741.3125,68.3472 1740.0156,67.2534 1740.0156,65.5503 L1740.0156,64.4565 C1740.0156,62.6753 1741.2656,61.3628 1743,61.3628 C1743.5781,61.3628 1744.1875,61.519 1744.6563,61.769 C1745.1406,62.0503 1745.3125,62.269 1745.4063,62.6753 C1745.4688,63.0815 1745.5,63.2065 1745.6406,63.3315 C1745.7813,63.4722 1746.0156,63.5815 1746.2344,63.5815 C1746.5,63.5815 1746.7656,63.4409 1746.9375,63.2222 C1747.0469,63.0659 1747.0781,62.8784 1747.0781,62.4565 L1747.0781,61.0347 C1747.0781,60.5972 1747.0625,60.4722 1746.9688,60.3159 C1746.8125,60.0503 1746.5313,59.9097 1746.2344,59.9097 C1745.9375,59.9097 1745.7344,60.0034 1745.5156,60.3159 L1745.3438,60.2378 Z " fill="#000000"/><text fill="#000000" font-family="sans-serif" font-size="12" lengthAdjust="spacing" textLength="45" x="1757" y="68.7202">Morada</text><line style="stroke:#A80036;stroke-width:1.5;" x1="1729" x2="1804" y1="80.5659" y2="80.5659"/><!--MD5=[caebf2ddd0fe15aa1cd7c0f919e7d6a1]
class Layout--><rect codeLine="39" fill="#FEFECE" filter="url(#fl65iypx01aeo)" height="40" id="Layout" style="stroke:#A80036;stroke-width:1.5;" width="71" x="2240" y="9.5659"/><ellipse cx="2255" cy="25.5659" fill="#ADD1B2" rx="11" ry="11" style="stroke:#A80036;stroke-width:1.0;"/><path d="M2257.3438,21.2378 C2256.4063,20.8003 2255.8125,20.6597 2254.9375,20.6597 C2252.3125,20.6597 2250.3125,22.7378 2250.3125,25.4565 L2250.3125,26.5815 C2250.3125,29.1597 2252.4219,31.0503 2255.3125,31.0503 C2256.5313,31.0503 2257.6875,30.7534 2258.4375,30.2065 C2259.0156,29.8003 2259.3438,29.3472 2259.3438,28.9565 C2259.3438,28.5034 2258.9531,28.1128 2258.4844,28.1128 C2258.2656,28.1128 2258.0625,28.1909 2257.875,28.3784 C2257.4219,28.8628 2257.4219,28.8628 2257.2344,28.9565 C2256.8125,29.2222 2256.125,29.3472 2255.3594,29.3472 C2253.3125,29.3472 2252.0156,28.2534 2252.0156,26.5503 L2252.0156,25.4565 C2252.0156,23.6753 2253.2656,22.3628 2255,22.3628 C2255.5781,22.3628 2256.1875,22.519 2256.6563,22.769 C2257.1406,23.0503 2257.3125,23.269 2257.4063,23.6753 C2257.4688,24.0815 2257.5,24.2065 2257.6406,24.3315 C2257.7813,24.4722 2258.0156,24.5815 2258.2344,24.5815 C2258.5,24.5815 2258.7656,24.4409 2258.9375,24.2222 C2259.0469,24.0659 2259.0781,23.8784 2259.0781,23.4565 L2259.0781,22.0347 C2259.0781,21.5972 2259.0625,21.4722 2258.9688,21.3159 C2258.8125,21.0503 2258.5313,20.9097 2258.2344,20.9097 C2257.9375,20.9097 2257.7344,21.0034 2257.5156,21.3159 L2257.3438,21.2378 Z " fill="#000000"/><text fill="#000000" font-family="sans-serif" font-size="12" lengthAdjust="spacing" textLength="39" x="2269" y="29.7202">Layout</text><line style="stroke:#A80036;stroke-width:1.5;" x1="2241" x2="2310" y1="41.5659" y2="41.5659"/><!--MD5=[f4e6cf3ca9090901a1f1006f0c14e10f]
link APISistemaCentral to APIParque--><path codeLine="42" d="M78.1724,560.4769 C81.0459,507.6249 96.1921,363.4299 176,285.5659 C206.004,256.2929 253.387,244.8179 288.162,240.3489 " fill="none" id="APISistemaCentral-APIParque" style="stroke:#A80036;stroke-width:1.0;"/><polygon fill="#000000" points="189.7424,243.9515,182.3239,249.9027,187.2388,253.1266,189.7424,243.9515" style="stroke:#000000;stroke-width:1.0;"/><text fill="#000000" font-family="sans-serif" font-size="13" lengthAdjust="spacing" textLength="23" x="196" y="252.6328">usa</text><text fill="#000000" font-family="sans-serif" font-size="13" lengthAdjust="spacing" textLength="15" x="61.4605" y="549.4591">1*</text><text fill="#000000" font-family="sans-serif" font-size="13" lengthAdjust="spacing" textLength="15" x="265.4014" y="253.9359">1*</text><!--MD5=[91749c56b4c61a039bb52ea243960566]
link APISistemaCentral to APPWeb--><path codeLine="43" d="M146.171,568.4479 C193.375,560.1169 254.359,549.3559 293.459,542.4559 " fill="none" id="APISistemaCentral-APPWeb" style="stroke:#A80036;stroke-width:1.0;"/><polygon fill="#000000" points="191.9239,546.2634,182.5057,544.9411,183.5272,550.7295,191.9239,546.2634" style="stroke:#000000;stroke-width:1.0;"/><text fill="#000000" font-family="sans-serif" font-size="13" lengthAdjust="spacing" textLength="23" x="196" y="551.6328">usa</text><text fill="#000000" font-family="sans-serif" font-size="13" lengthAdjust="spacing" textLength="8" x="154.2288" y="580.017">1</text><text fill="#000000" font-family="sans-serif" font-size="13" lengthAdjust="spacing" textLength="8" x="277.6142" y="557.0979">1</text><!--MD5=[7ebaec570886048606a7307f203d3561]
link APISistemaCentral to Reserva--><path codeLine="44" d="M84.1156,600.8879 C106.9402,666.6699 188.972,869.5659 332.5,869.5659 C332.5,869.5659 332.5,869.5659 992.5,869.5659 C1174.83,869.5659 1190.54,546.2519 1191.54,461.6349 " fill="none" id="APISistemaCentral-Reserva" style="stroke:#A80036;stroke-width:1.0;"/><polygon fill="#000000" points="664.9609,860.5085,655.6199,858.721,656.3532,864.553,664.9609,860.5085" style="stroke:#000000;stroke-width:1.0;"/><text fill="#000000" font-family="sans-serif" font-size="13" lengthAdjust="spacing" textLength="41" x="669" y="865.6328">possui</text><text fill="#000000" font-family="sans-serif" font-size="13" lengthAdjust="spacing" textLength="8" x="77.1325" y="620.7984">1</text><text fill="#000000" font-family="sans-serif" font-size="13" lengthAdjust="spacing" textLength="15" x="1193.3794" y="481.4743">0*</text><!--MD5=[2be4e2485f6429e226a7cf3e69e5d4db]
link APISistemaCentral to Utilizador--><path codeLine="45" d="M146.128,584.8359 C179.304,586.6929 219.708,588.6519 256,589.5659 C324.867,591.3009 342.398,595.8419 411,589.5659 C491.994,582.1569 584.923,562.5389 638.22,550.1939 " fill="none" id="APISistemaCentral-Utilizador" style="stroke:#A80036;stroke-width:1.0;"/><polygon fill="#000000" points="315.4877,580.7812,306.2585,578.4847,306.6713,584.3481,315.4877,580.7812" style="stroke:#000000;stroke-width:1.0;"/><text fill="#000000" font-family="sans-serif" font-size="13" lengthAdjust="spacing" textLength="41" x="319.5" y="585.6328">possui</text><text fill="#000000" font-family="sans-serif" font-size="13" lengthAdjust="spacing" textLength="8" x="154.1811" y="598.1974">1</text><text fill="#000000" font-family="sans-serif" font-size="13" lengthAdjust="spacing" textLength="15" x="615.5414" y="564.9331">0*</text><!--MD5=[76c6aa6dbc5e70634267b8f8c5324695]
link APISistemaCentral to MétodoDePagamento--><path codeLine="46" d="M79.4672,560.2839 C85.0923,514.6719 105.6875,404.2059 176,355.5659 C253.452,301.9869 365.737,307.4389 440.839,319.6179 " fill="none" id="APISistemaCentral-MétodoDePagamento" style="stroke:#A80036;stroke-width:1.0;"/><polygon fill="#000000" points="189.6616,320.3608,180.5042,322.9284,183.7623,327.8206,189.6616,320.3608" style="stroke:#000000;stroke-width:1.0;"/><text fill="#000000" font-family="sans-serif" font-size="13" lengthAdjust="spacing" textLength="26" x="194.5" y="327.6328">tem</text><text fill="#000000" font-family="sans-serif" font-size="13" lengthAdjust="spacing" textLength="8" x="81.4267" y="549.5558">1</text><text fill="#000000" font-family="sans-serif" font-size="13" lengthAdjust="spacing" textLength="15" x="417.9872" y="330.7602">1*</text><!--MD5=[8e96fee9880a4ba3b131d16794c405f4]
link APISistemaCentral to APIQRCode--><path codeLine="47" d="M88.755,600.5799 C112.997,641.2849 174.608,732.5719 256,764.5659 C384.72,815.1644 552.695,793.976 633.893,778.8783 " fill="none" id="APISistemaCentral-APIQRCode" style="stroke:#A80036;stroke-width:1.0;"/><polygon fill="#000000" points="324.2523,757.6867,316.5689,752.0815,314.7417,757.6682,324.2523,757.6867" style="stroke:#000000;stroke-width:1.0;"/><text fill="#000000" font-family="sans-serif" font-size="13" lengthAdjust="spacing" textLength="23" x="328.5" y="760.6328">usa</text><text fill="#000000" font-family="sans-serif" font-size="13" lengthAdjust="spacing" textLength="8" x="83.1799" y="620.7486">1</text><text fill="#000000" font-family="sans-serif" font-size="13" lengthAdjust="spacing" textLength="8" x="618.0929" y="793.5712">1</text><!--MD5=[1e30445b45991c0f6b0377df5c4b1f9b]
link APISistemaCentral to EmailDeConfirmação--><path codeLine="48" d="M96.8502,600.8069 C115.534,619.2819 145.422,646.1379 176,662.5659 C200.616,675.7909 229.458,685.7969 255.63,693.1029 " fill="none" id="APISistemaCentral-EmailDeConfirmação" style="stroke:#A80036;stroke-width:1.0;"/><polygon fill="#000000" points="185.3227,656.6451,178.9798,649.5586,176.0259,654.6403,185.3227,656.6451" style="stroke:#000000;stroke-width:1.0;"/><text fill="#000000" font-family="sans-serif" font-size="13" lengthAdjust="spacing" textLength="35" x="190" y="658.6328">envia</text><text fill="#000000" font-family="sans-serif" font-size="13" lengthAdjust="spacing" textLength="8" x="93.4487" y="620.6946">1</text><text fill="#000000" font-family="sans-serif" font-size="13" lengthAdjust="spacing" textLength="15" x="233.0267" y="704.3775">0*</text><!--MD5=[e5fcc2a48c85fe2f47cefd50ae821e7e]
link APISistemaCentral to SubAluguer--><path codeLine="49" d="M111.735,560.4179 C146.729,540.8569 203.274,512.0589 256,497.5659 C475.589,437.2089 536.501,440.8859 764,430.5659 C829.266,427.6049 845.821,426.0779 911,430.5659 C920.73,431.2359 931.084,432.3619 940.991,433.6449 " fill="none" id="APISistemaCentral-SubAluguer" style="stroke:#A80036;stroke-width:1.0;"/><polygon fill="#000000" points="480.4426,429.3767,471.0572,427.8384,471.9455,433.6488,480.4426,429.3767" style="stroke:#000000;stroke-width:1.0;"/><text fill="#000000" font-family="sans-serif" font-size="13" lengthAdjust="spacing" textLength="87" x="484.5" y="434.6328">permite fazer</text><text fill="#000000" font-family="sans-serif" font-size="13" lengthAdjust="spacing" textLength="8" x="112.9099" y="549.3827">1</text><text fill="#000000" font-family="sans-serif" font-size="13" lengthAdjust="spacing" textLength="15" x="917.8335" y="428.5526">0*</text><!--MD5=[51facb43a456f410b839790b3158776b]
link APIParque to Utilizador--><path codeLine="51" d="M378.733,257.3169 C397.655,265.2689 420.153,274.0749 441,280.5659 C511.007,302.3649 551.496,263.4099 602,316.5659 C656.656,374.0919 594.476,422.6489 632,492.5659 C637.465,502.7479 645.967,511.9619 654.42,519.4799 " fill="none" id="APIParque-Utilizador" style="stroke:#A80036;stroke-width:1.0;"/><polygon fill="#000000" points="502.1233,275.5779,497.5939,267.2151,493.5435,271.4745,502.1233,275.5779" style="stroke:#000000;stroke-width:1.0;"/><text fill="#000000" font-family="sans-serif" font-size="13" lengthAdjust="spacing" textLength="41" x="507.5" y="276.6328">possui</text><text fill="#000000" font-family="sans-serif" font-size="13" lengthAdjust="spacing" textLength="8" x="383.3606" y="277.7498">1</text><text fill="#000000" font-family="sans-serif" font-size="13" lengthAdjust="spacing" textLength="15" x="628.8215" y="508.4629">0*</text><!--MD5=[9bd9b3095b1d58b102f6a358103b53be]
link APIParque to ParqueDeEstacionamento--><path codeLine="52" d="M351.29,217.5279 C370.727,195.5709 404.743,160.7889 441,140.5659 C538.302,86.2929 570.585,71.5659 682,71.5659 C682,71.5659 682,71.5659 1193.5,71.5659 C1239.79,71.5659 1291.2,68.9539 1333.83,66.0719 " fill="none" id="APIParque-ParqueDeEstacionamento" style="stroke:#A80036;stroke-width:1.0;"/><polygon fill="#000000" points="951.9416,62.3706,942.5544,60.844,943.4499,66.6532,951.9416,62.3706" style="stroke:#000000;stroke-width:1.0;"/><text fill="#000000" font-family="sans-serif" font-size="13" lengthAdjust="spacing" textLength="84" x="956" y="67.6328">é referente a</text><text fill="#000000" font-family="sans-serif" font-size="13" lengthAdjust="spacing" textLength="8" x="347.3408" y="206.525">1</text><text fill="#000000" font-family="sans-serif" font-size="13" lengthAdjust="spacing" textLength="8" x="1318.1266" y="79.3399">1</text><!--MD5=[72a1d6bba75ee92fed661f2768de78fb]
link APIParque to Reserva--><path codeLine="53" d="M378.855,239.1509 C492.289,244.3379 800.993,265.6179 1042,348.5659 C1078.53,361.1389 1089.12,362.2779 1122,382.5659 C1139.91,393.6199 1157.97,409.1129 1171.19,421.4489 " fill="none" id="APIParque-Reserva" style="stroke:#A80036;stroke-width:1.0;"/><polygon fill="#000000" points="819.3727,274.2534,811.2169,269.3612,809.8989,275.0894,819.3727,274.2534" style="stroke:#000000;stroke-width:1.0;"/><text fill="#000000" font-family="sans-serif" font-size="13" lengthAdjust="spacing" textLength="41" x="823.5" y="277.6328">possui</text><text fill="#000000" font-family="sans-serif" font-size="13" lengthAdjust="spacing" textLength="8" x="386.4125" y="252.6191">1</text><text fill="#000000" font-family="sans-serif" font-size="13" lengthAdjust="spacing" textLength="15" x="1147.7271" y="410.4228">0*</text><!--MD5=[5d844c2674b822183e2c339c40cf3a98]
link APIParque to LugarDeEstacionamento--><path codeLine="54" d="M378.617,222.5949 C444.04,201.7649 571.009,166.5659 682,166.5659 C682,166.5659 682,166.5659 1427.5,166.5659 C1512.59,166.5659 1609.72,166.5659 1677.96,166.5659 " fill="none" id="APIParque-LugarDeEstacionamento" style="stroke:#A80036;stroke-width:1.0;"/><polygon fill="#000000" points="1081.9954,157.9169,1072.8321,155.3704,1073.0853,161.2428,1081.9954,157.9169" style="stroke:#000000;stroke-width:1.0;"/><text fill="#000000" font-family="sans-serif" font-size="13" lengthAdjust="spacing" textLength="35" x="1086" y="162.6328">aluga</text><text fill="#000000" font-family="sans-serif" font-size="13" lengthAdjust="spacing" textLength="8" x="386.445" y="233.4817">1</text><text fill="#000000" font-family="sans-serif" font-size="13" lengthAdjust="spacing" textLength="15" x="1655.0067" y="179.2594">1*</text><!--MD5=[48e15ec256c0f4ba946937a35aef8489]
link APPWeb to Utilizador--><path codeLine="56" d="M373.687,536.0169 C439.096,536.7699 570.06,538.2769 638.333,539.0629 " fill="none" id="APPWeb-Utilizador" style="stroke:#A80036;stroke-width:1.0;"/><polygon fill="#000000" points="503.4997,529.1899,494.489,526.147,494.4214,532.0245,503.4997,529.1899" style="stroke:#000000;stroke-width:1.0;"/><text fill="#000000" font-family="sans-serif" font-size="13" lengthAdjust="spacing" textLength="41" x="507.5" y="533.6328">possui</text><text fill="#000000" font-family="sans-serif" font-size="13" lengthAdjust="spacing" textLength="8" x="381.5578" y="549.5119">1</text><text fill="#000000" font-family="sans-serif" font-size="13" lengthAdjust="spacing" textLength="15" x="615.3449" y="534.9145">0*</text><!--MD5=[c2153d1492787c3e39d56ea1b153bbf6]
link APPWeb to Reserva--><path codeLine="57" d="M373.783,542.7289 C430.54,552.6789 538.893,570.1799 632,576.5659 C755.888,585.0629 788.825,583.7859 911,561.5659 C1007.67,543.9839 1035.97,543.0319 1122,495.5659 C1138.99,486.1919 1156.23,472.8289 1169.29,461.7409 " fill="none" id="APPWeb-Reserva" style="stroke:#A80036;stroke-width:1.0;"/><polygon fill="#000000" points="773.9743,552.6259,764.6781,550.6182,765.2734,556.4658,773.9743,552.6259" style="stroke:#000000;stroke-width:1.0;"/><text fill="#000000" font-family="sans-serif" font-size="13" lengthAdjust="spacing" textLength="132" x="778" y="557.6328">permite fazer e gerir</text><text fill="#000000" font-family="sans-serif" font-size="13" lengthAdjust="spacing" textLength="8" x="381.3941" y="539.7493">1</text><text fill="#000000" font-family="sans-serif" font-size="13" lengthAdjust="spacing" textLength="15" x="1145.6528" y="481.6101">1*</text><!--MD5=[d133d57abbd20800fb090646d0faeebb]
link APPWeb to SubAluguer--><path codeLine="58" d="M373.833,526.4609 C393.878,521.9759 418.674,516.6659 441,512.5659 C583.81,486.3389 619.911,481.4799 764,463.5659 C824.77,456.0109 894.984,449.5389 940.929,445.6089 " fill="none" id="APPWeb-SubAluguer" style="stroke:#A80036;stroke-width:1.0;"/><polygon fill="#000000" points="641.9499,458.4266,632.5806,456.7938,633.4102,462.6128,641.9499,458.4266" style="stroke:#000000;stroke-width:1.0;"/><text fill="#000000" font-family="sans-serif" font-size="13" lengthAdjust="spacing" textLength="87" x="646" y="463.6328">permite fazer</text><text fill="#000000" font-family="sans-serif" font-size="13" lengthAdjust="spacing" textLength="8" x="381.4527" y="520.6852">1</text><text fill="#000000" font-family="sans-serif" font-size="13" lengthAdjust="spacing" textLength="15" x="918.1257" y="459.2358">1*</text><!--MD5=[1492914144cf663272cc43c5021c3ad7]
link Utilizador to Reserva--><path codeLine="60" d="M727.689,537.9649 C795.844,534.6309 931.154,524.6389 1042,495.5659 C1080.04,485.5889 1122.05,469.9879 1151.83,458.1139 " fill="none" id="Utilizador-Reserva" style="stroke:#A80036;stroke-width:1.0;"/><polygon fill="#000000" points="961.4137,486.2072,951.981,484.9925,953.0685,490.7689,961.4137,486.2072" style="stroke:#000000;stroke-width:1.0;"/><text fill="#000000" font-family="sans-serif" font-size="13" lengthAdjust="spacing" textLength="65" x="965.5" y="491.6328">faz e gere</text><text fill="#000000" font-family="sans-serif" font-size="13" lengthAdjust="spacing" textLength="8" x="735.4488" y="550.9825">1</text><text fill="#000000" font-family="sans-serif" font-size="13" lengthAdjust="spacing" textLength="15" x="1128.8518" y="474.1748">0*</text><!--MD5=[9546632d76aeb95481d4dc97fc6ae240]
link Utilizador to SubAluguer--><path codeLine="61" d="M727.527,529.1689 C792.221,513.6939 906.665,486.2309 911,484.5659 C926.966,478.4329 943.749,469.7269 957.758,461.7509 " fill="none" id="Utilizador-SubAluguer" style="stroke:#A80036;stroke-width:1.0;"/><polygon fill="#000000" points="829.7985,474.7272,820.292,474.4486,821.9438,480.0896,829.7985,474.7272" style="stroke:#000000;stroke-width:1.0;"/><text fill="#000000" font-family="sans-serif" font-size="13" lengthAdjust="spacing" textLength="20" x="834" y="480.6328">faz</text><text fill="#000000" font-family="sans-serif" font-size="13" lengthAdjust="spacing" textLength="8" x="735.5643" y="523.2826">1</text><text fill="#000000" font-family="sans-serif" font-size="13" lengthAdjust="spacing" textLength="15" x="931.1587" y="481.6229">0*</text><!--MD5=[306aecbfd3404c6b984f4f299da791fe]
link Reserva to LugarDeEstacionamento--><path codeLine="63" d="M1214.07,421.4019 C1227.53,408.5889 1245.77,391.9549 1263,378.5659 C1292.88,355.3469 1300.35,348.8729 1334,331.5659 C1458.46,267.5609 1613.74,214.1479 1699.99,186.6259 " fill="none" id="Reserva-LugarDeEstacionamento" style="stroke:#A80036;stroke-width:1.0;"/><polygon fill="#000000" points="1386.5021,241.9571,1377.0792,243.2459,1379.6363,248.5383,1386.5021,241.9571" style="stroke:#000000;stroke-width:1.0;"/><text fill="#000000" font-family="sans-serif" font-size="13" lengthAdjust="spacing" textLength="84" x="1391" y="248.6328">é referente a</text><text fill="#000000" font-family="sans-serif" font-size="13" lengthAdjust="spacing" textLength="8" x="1211.2312" y="410.362">1</text><text fill="#000000" font-family="sans-serif" font-size="13" lengthAdjust="spacing" textLength="8" x="1672.1591" y="206.4627">1</text><!--MD5=[a0c590a1e9ca71e2266c178d24a53465]
link Reserva to Preço--><path codeLine="64" d="M1233.36,426.0139 C1243.01,422.4279 1253.33,418.7379 1263,415.5659 C1307.72,400.8999 1360.24,386.5429 1393.2,377.8719 " fill="none" id="Reserva-Preço" style="stroke:#A80036;stroke-width:1.0;"/><polygon fill="#000000" points="1272.7876,393.6904,1263.2792,393.4848,1264.9743,399.113,1272.7876,393.6904" style="stroke:#000000;stroke-width:1.0;"/><text fill="#000000" font-family="sans-serif" font-size="13" lengthAdjust="spacing" textLength="26" x="1277" y="399.6328">tem</text><text fill="#000000" font-family="sans-serif" font-size="13" lengthAdjust="spacing" textLength="8" x="1241.0703" y="436.7083">1</text><text fill="#000000" font-family="sans-serif" font-size="13" lengthAdjust="spacing" textLength="8" x="1377.5069" y="393.2125">1</text><!--MD5=[3147b653d631aff453645938f05f69e4]
link Reserva to Duração--><path codeLine="65" d="M1233.09,439.4479 C1294.37,436.1529 1415.88,429.5539 1519,423.5659 C1591.76,419.3399 1676.59,414.1119 1725.37,411.0759 " fill="none" id="Reserva-Duração" style="stroke:#A80036;stroke-width:1.0;"/><polygon fill="#000000" points="1415.9917,414.8446,1406.7925,412.431,1407.1307,418.2991,1415.9917,414.8446" style="stroke:#000000;stroke-width:1.0;"/><text fill="#000000" font-family="sans-serif" font-size="13" lengthAdjust="spacing" textLength="26" x="1420" y="419.6328">tem</text><text fill="#000000" font-family="sans-serif" font-size="13" lengthAdjust="spacing" textLength="8" x="1241.0326" y="452.4853">1</text><text fill="#000000" font-family="sans-serif" font-size="13" lengthAdjust="spacing" textLength="8" x="1709.6133" y="424.8747">1</text><!--MD5=[56324d45d85896dd9362f79db6a3f999]
link EmailDeConfirmação to Reserva--><path codeLine="67" d="M411.157,702.1909 C543.533,687.6469 821.94,649.0479 1042,564.5659 C1078.4,550.5919 1091.19,552.4649 1122,528.5659 C1146.13,509.8429 1166.95,481.0909 1179.35,461.8219 " fill="none" id="EmailDeConfirmação-Reserva" style="stroke:#A80036;stroke-width:1.0;"/><polygon fill="#000000" points="797.7719,600.6392,788.2619,600.5355,790.0171,606.1451,797.7719,600.6392" style="stroke:#000000;stroke-width:1.0;"/><text fill="#000000" font-family="sans-serif" font-size="13" lengthAdjust="spacing" textLength="84" x="802" y="606.6328">é referente a</text><text fill="#000000" font-family="sans-serif" font-size="13" lengthAdjust="spacing" textLength="8" x="418.9399" y="714.2761">1</text><text fill="#000000" font-family="sans-serif" font-size="13" lengthAdjust="spacing" textLength="8" x="1166.5266" y="481.7139">1</text><!--MD5=[cbd17db185c6ffbaca35413e67958ed6]
link Preço to LugarDeEstacionamento--><path codeLine="69" d="M1459.77,365.1019 C1504.93,357.6629 1588.16,339.5199 1648,300.5659 C1694.67,270.1799 1733.8,216.2769 1752.92,186.9499 " fill="none" id="Preço-LugarDeEstacionamento" style="stroke:#A80036;stroke-width:1.0;"/><polygon fill="#000000" points="1558.2729,289.5356,1549.0169,291.7216,1552.0695,296.7446,1558.2729,289.5356" style="stroke:#000000;stroke-width:1.0;"/><text fill="#000000" font-family="sans-serif" font-size="13" lengthAdjust="spacing" textLength="84" x="1563" y="296.6328">é referente a</text><text fill="#000000" font-family="sans-serif" font-size="13" lengthAdjust="spacing" textLength="8" x="1467.4569" y="377.8087">1</text><text fill="#000000" font-family="sans-serif" font-size="13" lengthAdjust="spacing" textLength="8" x="1740.1954" y="206.5285">1</text><!--MD5=[8a704ae5edf4951895f9553780ea39f2]
link Preço to Duração--><path codeLine="70" d="M1459.6,373.2699 C1521.56,380.4189 1657.49,396.1029 1725.33,403.9309 " fill="none" id="Preço-Duração" style="stroke:#A80036;stroke-width:1.0;"/><polygon fill="#000000" points="1558.967,376.7054,1550.3184,372.7491,1549.6447,378.5882,1558.967,376.7054" style="stroke:#000000;stroke-width:1.0;"/><text fill="#000000" font-family="sans-serif" font-size="13" lengthAdjust="spacing" textLength="84" x="1563" y="380.6328">é referente a</text><text fill="#000000" font-family="sans-serif" font-size="13" lengthAdjust="spacing" textLength="8" x="1467.7156" y="387.8022">1</text><text fill="#000000" font-family="sans-serif" font-size="13" lengthAdjust="spacing" textLength="8" x="1709.5664" y="398.9235">1</text><!--MD5=[6062724639a544ac33814fabc4cce35c]
link ParqueDeEstacionamento to LugarDeEstacionamento--><path codeLine="72" d="M1490.28,78.6269 C1550.9,97.9949 1642.17,127.1589 1702.77,146.5209 " fill="none" id="ParqueDeEstacionamento-LugarDeEstacionamento" style="stroke:#A80036;stroke-width:1.0;"/><polygon fill="#000000" points="1587.7628,93.6541,1580.0413,88.1017,1578.2523,93.7007,1587.7628,93.6541" style="stroke:#000000;stroke-width:1.0;"/><text fill="#000000" font-family="sans-serif" font-size="13" lengthAdjust="spacing" textLength="26" x="1592" y="96.6328">tem</text><text fill="#000000" font-family="sans-serif" font-size="13" lengthAdjust="spacing" textLength="8" x="1499.0931" y="98.464">1</text><text fill="#000000" font-family="sans-serif" font-size="13" lengthAdjust="spacing" textLength="15" x="1666.8462" y="135.516">1*</text><!--MD5=[c62d4e39679aa444817aba1146864e42]
link ParqueDeEstacionamento to Morada--><path codeLine="73" d="M1519.41,61.2849 C1587.83,63.3099 1677.71,65.9689 1727.73,67.4489 " fill="none" id="ParqueDeEstacionamento-Morada" style="stroke:#A80036;stroke-width:1.0;"/><polygon fill="#000000" points="1587.9978,54.2802,1579.0436,51.075,1578.8698,56.9503,1587.9978,54.2802" style="stroke:#000000;stroke-width:1.0;"/><text fill="#000000" font-family="sans-serif" font-size="13" lengthAdjust="spacing" textLength="26" x="1592" y="58.6328">tem</text><text fill="#000000" font-family="sans-serif" font-size="13" lengthAdjust="spacing" textLength="8" x="1527.1325" y="74.1714">1</text><text fill="#000000" font-family="sans-serif" font-size="13" lengthAdjust="spacing" textLength="8" x="1712.1116" y="80.6646">1</text><!--MD5=[f2b0cde0c85d2f577bdfab003fc2f8d1]
link ParqueDeEstacionamento to Layout--><path codeLine="74" d="M1519.22,41.5419 C1529.25,40.0299 1539.32,38.6609 1549,37.5659 C1678.53,22.9089 1979.51,22.7569 2088,21.5659 C2142.22,20.9709 2155.88,18.2229 2210,21.5659 C2219.69,22.1639 2230.14,23.2639 2239.76,24.4589 " fill="none" id="ParqueDeEstacionamento-Layout" style="stroke:#A80036;stroke-width:1.0;"/><polygon fill="#000000" points="1894.9986,15.0138,1885.8864,12.2901,1886.0257,18.1663,1894.9986,15.0138" style="stroke:#000000;stroke-width:1.0;"/><text fill="#000000" font-family="sans-serif" font-size="13" lengthAdjust="spacing" textLength="26" x="1899" y="19.6328">tem</text><text fill="#000000" font-family="sans-serif" font-size="13" lengthAdjust="spacing" textLength="8" x="1526.9274" y="52.8552">1</text><text fill="#000000" font-family="sans-serif" font-size="13" lengthAdjust="spacing" textLength="8" x="2223.9362" y="37.01">1</text><!--MD5=[f0e67fee9891b27bf57f09a6e7bf89ea]
link LugarDeEstacionamento to Localização--><path codeLine="76" d="M1832.04,146.5409 C1870.94,134.4699 1919.77,119.3219 1955.78,108.1489 " fill="none" id="LugarDeEstacionamento-Localização" style="stroke:#A80036;stroke-width:1.0;"/><polygon fill="#000000" points="1894.7754,109.6507,1885.2657,109.5241,1887.0075,115.1379,1894.7754,109.6507" style="stroke:#000000;stroke-width:1.0;"/><text fill="#000000" font-family="sans-serif" font-size="13" lengthAdjust="spacing" textLength="26" x="1899" y="115.6328">tem</text><text fill="#000000" font-family="sans-serif" font-size="13" lengthAdjust="spacing" textLength="8" x="1842.1174" y="135.5419">1</text><text fill="#000000" font-family="sans-serif" font-size="13" lengthAdjust="spacing" textLength="8" x="1940.0147" y="123.4712">1</text><!--MD5=[ac820846457c4cd516fefdb70d10d0cb]
link Localização to Layout--><path codeLine="78" d="M2058.13,80.7159 C2111.2,68.1699 2193.57,48.6979 2239.86,37.7539 " fill="none" id="Localização-Layout" style="stroke:#A80036;stroke-width:1.0;"/><polygon fill="#000000" points="2097.8659,36.982,2088.3873,36.2029,2089.7396,41.923,2097.8659,36.982" style="stroke:#000000;stroke-width:1.0;"/><text fill="#000000" font-family="sans-serif" font-size="13" lengthAdjust="spacing" textLength="107" x="2102" y="42.6328">está inserida em</text><text fill="#000000" font-family="sans-serif" font-size="13" lengthAdjust="spacing" textLength="8" x="2065.8827" y="92.1804">1</text><text fill="#000000" font-family="sans-serif" font-size="13" lengthAdjust="spacing" textLength="8" x="2224.0559" y="52.9225">1</text><!--MD5=[5d7300fd354e8d9cb95ffaec1da927e3]
link SubAluguer to Reserva--><path codeLine="80" d="M1042.2,441.5659 C1076.05,441.5659 1120.25,441.5659 1151.76,441.5659 " fill="none" id="SubAluguer-Reserva" style="stroke:#A80036;stroke-width:1.0;"/><polygon fill="#000000" points="1095.5,433.1323,1086.4549,430.1934,1086.4549,436.0713,1095.5,433.1323" style="stroke:#000000;stroke-width:1.0;"/><text fill="#000000" font-family="sans-serif" font-size="13" lengthAdjust="spacing" textLength="8" x="1099.5" y="437.6328">é</text><text fill="#000000" font-family="sans-serif" font-size="13" lengthAdjust="spacing" textLength="8" x="1049.8922" y="454.6968">1</text><text fill="#000000" font-family="sans-serif" font-size="13" lengthAdjust="spacing" textLength="8" x="1136.0703" y="454.9333">1</text><!--MD5=[90c33401299c0bea06e4ba599ef86fc3]
link MétodoDePagamento to Reserva--><path codeLine="82" d="M602.338,335.0879 C681.299,333.9869 805.303,335.8949 911,353.5659 C1007.53,369.7049 1029.03,385.9909 1122,416.5659 C1131.74,419.7709 1142.19,423.4139 1151.94,426.9089 " fill="none" id="MétodoDePagamento-Reserva" style="stroke:#A80036;stroke-width:1.0;"/><polygon fill="#000000" points="823.9316,330.9562,815.4945,326.567,814.5259,332.3645,823.9316,330.9562" style="stroke:#000000;stroke-width:1.0;"/><text fill="#000000" font-family="sans-serif" font-size="13" lengthAdjust="spacing" textLength="32" x="828" y="334.6328">paga</text><text fill="#000000" font-family="sans-serif" font-size="13" lengthAdjust="spacing" textLength="8" x="609.8939" y="347.608">1</text><text fill="#000000" font-family="sans-serif" font-size="13" lengthAdjust="spacing" textLength="15" x="1128.9801" y="420.3171">1*</text><!--MD5=[ad8becfcaf113e1d7d13482b49ea52a4]
link EmailDeConfirmação to APIQRCode--><path codeLine="84" d="M411.191,722.5869 C479.147,734.1249 576.27,750.6149 633.856,760.3919 " fill="none" id="EmailDeConfirmação-APIQRCode" style="stroke:#A80036;stroke-width:1.0;"/><text fill="#000000" font-family="sans-serif" font-size="13" lengthAdjust="spacing" textLength="33" x="505" y="724.6328">usa&gt;</text><text fill="#000000" font-family="sans-serif" font-size="13" lengthAdjust="spacing" textLength="15" x="419.0445" y="736.5517">1*</text><text fill="#000000" font-family="sans-serif" font-size="13" lengthAdjust="spacing" textLength="8" x="618.0505" y="772.3696">1</text><!--MD5=[2c8cb637624b1fce2768cf68bd6a2722]
@startuml
skinparam classAttributeIconSize 0
hide methods
left to right direction

class APISistemaCentral {}

class APIParque {}

class APISistemaCentral {}

class APPWeb {}

class Utilizador {}

class Reserva {}

class EmailDeConfirmação {}

class Preço {}

class ParqueDeEstacionamento {}

class LugarDeEstacionamento {}

class Localização {}

class SubAluguer {}

class MétodoDePagamento {}

class APIQRCode {}

class Preço {}

class Duração {}

class Morada {}

class Layout {}


APISistemaCentral "1*" - - "1*" APIParque : usa >
APISistemaCentral "1" - - "1" APPWeb : usa >
APISistemaCentral "1" - - "0*" Reserva : possui >
APISistemaCentral "1" - - "0*" Utilizador : possui >
APISistemaCentral "1" - - "1*" MétodoDePagamento : tem >
APISistemaCentral "1" - - "1" APIQRCode : usa >
APISistemaCentral "1" - - "0*" EmailDeConfirmação : envia >
APISistemaCentral "1" - - "0*" SubAluguer : permite fazer >

APIParque "1" - - "0*" Utilizador : possui >
APIParque "1" - - "1" ParqueDeEstacionamento : é referente a >
APIParque "1" - - "0*" Reserva : possui >
APIParque "1" - - "1*" LugarDeEstacionamento : aluga >

APPWeb "1" - - "0*" Utilizador : possui >
APPWeb "1" - - "1*" Reserva : permite fazer e gerir >
APPWeb "1" - - "1*" SubAluguer : permite fazer >

Utilizador "1" - - "0*" Reserva : faz e gere >
Utilizador "1" - - "0*" SubAluguer : faz >

Reserva "1" - - "1" LugarDeEstacionamento : é referente a >
Reserva "1" - - "1" Preço : tem >
Reserva "1" - - "1" Duração : tem >

EmailDeConfirmação "1" - - "1" Reserva : é referente a >

Preço "1" - - "1" LugarDeEstacionamento : é referente a >
Preço "1" - - "1" Duração : é referente a >

ParqueDeEstacionamento "1" - - "1*" LugarDeEstacionamento : tem >
ParqueDeEstacionamento "1" - - "1" Morada : tem >
ParqueDeEstacionamento "1" - - "1" Layout : tem >

LugarDeEstacionamento "1" - - "1" Localização : tem >

Localização "1" - - "1" Layout : está inserida em >

SubAluguer "1" - - "1" Reserva : é >

MétodoDePagamento "1" - - "1*" Reserva : paga >

EmailDeConfirmação "1*" - - "1" APIQRCode : usa>
@enduml

PlantUML version 1.2021.01beta3(Unknown compile time)
(GPL source distribution)
Java Runtime: Java(TM) SE Runtime Environment
JVM: Java HotSpot(TM) 64-Bit Server VM
Default Encoding: UTF-8
Language: en
Country: US
--></g></svg>