<?xml version="1.0" encoding="UTF-8" standalone="no"?><svg xmlns="http://www.w3.org/2000/svg" xmlns:xlink="http://www.w3.org/1999/xlink" contentScriptType="application/ecmascript" contentStyleType="text/css" height="324px" preserveAspectRatio="none" style="width:363px;height:324px;" version="1.1" viewBox="0 0 363 324" width="363px" zoomAndPan="magnify"><defs><filter height="300%" id="f1b6uv5uekfgv0" width="300%" x="-1" y="-1"><feGaussianBlur result="blurOut" stdDeviation="2.0"/><feColorMatrix in="blurOut" result="blurOut2" type="matrix" values="0 0 0 0 0 0 0 0 0 0 0 0 0 0 0 0 0 0 .4 0"/><feOffset dx="4.0" dy="4.0" in="blurOut2" result="blurOut3"/><feBlend in="SourceGraphic" in2="blurOut3" mode="normal"/></filter></defs><g><rect fill="#FFFFFF" filter="url(#f1b6uv5uekfgv0)" height="123.6641" style="stroke:#A80036;stroke-width:1.0;" width="10" x="29" y="98.2969"/><rect fill="#FFFFFF" filter="url(#f1b6uv5uekfgv0)" height="44.2656" style="stroke:#A80036;stroke-width:1.0;" width="10" x="282" y="119.4297"/><rect fill="#FFFFFF" filter="url(#f1b6uv5uekfgv0)" height="29.1328" style="stroke:#A80036;stroke-width:1.0;" width="10" x="282" y="192.8281"/><line style="stroke:#A80036;stroke-width:1.0;stroke-dasharray:5.0,5.0;" x1="34" x2="34" y1="88.2969" y2="239.9609"/><line style="stroke:#A80036;stroke-width:1.0;stroke-dasharray:5.0,5.0;" x1="287" x2="287" y1="88.2969" y2="239.9609"/><text fill="#000000" font-family="sans-serif" font-size="14" lengthAdjust="spacing" textLength="52" x="5" y="84.9951">Cliente</text><ellipse cx="34" cy="15" fill="#FEFECE" filter="url(#f1b6uv5uekfgv0)" rx="8" ry="8" style="stroke:#A80036;stroke-width:2.0;"/><path d="M34,23 L34,50 M21,31 L47,31 M34,50 L21,65 M34,50 L47,65 " fill="none" filter="url(#f1b6uv5uekfgv0)" style="stroke:#A80036;stroke-width:2.0;"/><text fill="#000000" font-family="sans-serif" font-size="14" lengthAdjust="spacing" textLength="52" x="5" y="251.9561">Cliente</text><ellipse cx="34" cy="265.2578" fill="#FEFECE" filter="url(#f1b6uv5uekfgv0)" rx="8" ry="8" style="stroke:#A80036;stroke-width:2.0;"/><path d="M34,273.2578 L34,300.2578 M21,281.2578 L47,281.2578 M34,300.2578 L21,315.2578 M34,300.2578 L47,315.2578 " fill="none" filter="url(#f1b6uv5uekfgv0)" style="stroke:#A80036;stroke-width:2.0;"/><text fill="#000000" font-family="sans-serif" font-size="14" lengthAdjust="spacing" textLength="144" x="212" y="84.9951">:API.SistemaCentral</text><ellipse cx="287" cy="15" fill="#FEFECE" filter="url(#f1b6uv5uekfgv0)" rx="8" ry="8" style="stroke:#A80036;stroke-width:2.0;"/><path d="M287,23 L287,50 M274,31 L300,31 M287,50 L274,65 M287,50 L300,65 " fill="none" filter="url(#f1b6uv5uekfgv0)" style="stroke:#A80036;stroke-width:2.0;"/><text fill="#000000" font-family="sans-serif" font-size="14" lengthAdjust="spacing" textLength="144" x="212" y="251.9561">:API.SistemaCentral</text><ellipse cx="287" cy="265.2578" fill="#FEFECE" filter="url(#f1b6uv5uekfgv0)" rx="8" ry="8" style="stroke:#A80036;stroke-width:2.0;"/><path d="M287,273.2578 L287,300.2578 M274,281.2578 L300,281.2578 M287,300.2578 L274,315.2578 M287,300.2578 L300,315.2578 " fill="none" filter="url(#f1b6uv5uekfgv0)" style="stroke:#A80036;stroke-width:2.0;"/><rect fill="#FFFFFF" filter="url(#f1b6uv5uekfgv0)" height="123.6641" style="stroke:#A80036;stroke-width:1.0;" width="10" x="29" y="98.2969"/><rect fill="#FFFFFF" filter="url(#f1b6uv5uekfgv0)" height="44.2656" style="stroke:#A80036;stroke-width:1.0;" width="10" x="282" y="119.4297"/><rect fill="#FFFFFF" filter="url(#f1b6uv5uekfgv0)" height="29.1328" style="stroke:#A80036;stroke-width:1.0;" width="10" x="282" y="192.8281"/><polygon fill="#A80036" points="270,115.4297,280,119.4297,270,123.4297,274,119.4297" style="stroke:#A80036;stroke-width:1.0;"/><line style="stroke:#A80036;stroke-width:1.0;" x1="39" x2="276" y1="119.4297" y2="119.4297"/><text fill="#000000" font-family="sans-serif" font-size="13" font-weight="bold" lengthAdjust="spacing" textLength="9" x="46" y="114.3638">1</text><text fill="#000000" font-family="sans-serif" font-size="13" lengthAdjust="spacing" textLength="211" x="59" y="114.3638">inicia pesquisa de disponibilidade</text><polygon fill="#A80036" points="50,159.6953,40,163.6953,50,167.6953,46,163.6953" style="stroke:#A80036;stroke-width:1.0;"/><line style="stroke:#A80036;stroke-width:1.0;stroke-dasharray:2.0,2.0;" x1="44" x2="286" y1="163.6953" y2="163.6953"/><text fill="#000000" font-family="sans-serif" font-size="13" font-weight="bold" lengthAdjust="spacing" textLength="9" x="56" y="151.063">2</text><text fill="#000000" font-family="sans-serif" font-size="13" lengthAdjust="spacing" textLength="133" x="69" y="143.4966">solicita dados cliente</text><text fill="#000000" font-family="sans-serif" font-size="13" lengthAdjust="spacing" textLength="143" x="69" y="158.6294">(localidade, inicio, fim)</text><polygon fill="#A80036" points="270,188.8281,280,192.8281,270,196.8281,274,192.8281" style="stroke:#A80036;stroke-width:1.0;"/><line style="stroke:#A80036;stroke-width:1.0;" x1="39" x2="276" y1="192.8281" y2="192.8281"/><text fill="#000000" font-family="sans-serif" font-size="13" font-weight="bold" lengthAdjust="spacing" textLength="8" x="46" y="187.7622">3</text><text fill="#000000" font-family="sans-serif" font-size="13" lengthAdjust="spacing" textLength="185" x="58" y="187.7622">introduz os dados solicitados</text><polygon fill="#A80036" points="45,217.9609,35,221.9609,45,225.9609,41,221.9609" style="stroke:#A80036;stroke-width:1.0;"/><line style="stroke:#A80036;stroke-width:1.0;stroke-dasharray:2.0,2.0;" x1="39" x2="286" y1="221.9609" y2="221.9609"/><text fill="#000000" font-family="sans-serif" font-size="13" font-weight="bold" lengthAdjust="spacing" textLength="9" x="51" y="216.895">4</text><text fill="#000000" font-family="sans-serif" font-size="13" lengthAdjust="spacing" textLength="154" x="64" y="216.895">operação bem sucedida</text><!--MD5=[6c5bdcbb9aa9a1994f59e90108289add]
@startuml
autonumber
actor "Cliente" as UserNR
actor ":API.SistemaCentral" as API

activate UserNR
UserNR -> "API" : inicia pesquisa de disponibilidade
activate "API"
"API" - -> UserNR : solicita dados cliente \n(localidade, inicio, fim)
deactivate "API"

UserNR -> "API" : introduz os dados solicitados
activate "API"

"API" - -> UserNR : operação bem sucedida
deactivate "API"

deactivate UserNR
@enduml

PlantUML version 1.2021.01(Tue Feb 02 07:55:08 UTC 2021)
(GPL source distribution)
Java Runtime: Java(TM) SE Runtime Environment
JVM: Java HotSpot(TM) 64-Bit Server VM
Default Encoding: UTF-8
Language: en
Country: US
--></g></svg>