<?xml version="1.0" encoding="UTF-8" standalone="no"?><svg xmlns="http://www.w3.org/2000/svg" xmlns:xlink="http://www.w3.org/1999/xlink" contentScriptType="application/ecmascript" contentStyleType="text/css" height="309px" preserveAspectRatio="none" style="width:768px;height:309px;" version="1.1" viewBox="0 0 768 309" width="768px" zoomAndPan="magnify"><defs><filter height="300%" id="fbzy8zmj8140c" width="300%" x="-1" y="-1"><feGaussianBlur result="blurOut" stdDeviation="2.0"/><feColorMatrix in="blurOut" result="blurOut2" type="matrix" values="0 0 0 0 0 0 0 0 0 0 0 0 0 0 0 0 0 0 .4 0"/><feOffset dx="4.0" dy="4.0" in="blurOut2" result="blurOut3"/><feBlend in="SourceGraphic" in2="blurOut3" mode="normal"/></filter></defs><g><rect fill="#FFFFFF" filter="url(#fbzy8zmj8140c)" height="108.5313" style="stroke:#A80036;stroke-width:1.0;" width="10" x="37" y="98.2969"/><rect fill="#FFFFFF" filter="url(#fbzy8zmj8140c)" height="87.3984" style="stroke:#A80036;stroke-width:1.0;" width="10" x="444" y="119.4297"/><rect fill="#FFFFFF" filter="url(#fbzy8zmj8140c)" height="29.1328" style="stroke:#A80036;stroke-width:1.0;" width="10" x="713" y="148.5625"/><line style="stroke:#A80036;stroke-width:1.0;stroke-dasharray:5.0,5.0;" x1="42" x2="42" y1="88.2969" y2="224.8281"/><line style="stroke:#A80036;stroke-width:1.0;stroke-dasharray:5.0,5.0;" x1="449" x2="449" y1="88.2969" y2="224.8281"/><line style="stroke:#A80036;stroke-width:1.0;stroke-dasharray:5.0,5.0;" x1="718" x2="718" y1="88.2969" y2="224.8281"/><text fill="#000000" font-family="sans-serif" font-size="14" lengthAdjust="spacing" textLength="68" x="5" y="84.9951">Utilizador</text><ellipse cx="42" cy="15" fill="#FEFECE" filter="url(#fbzy8zmj8140c)" rx="8" ry="8" style="stroke:#A80036;stroke-width:2.0;"/><path d="M42,23 L42,50 M29,31 L55,31 M42,50 L29,65 M42,50 L55,65 " fill="none" filter="url(#fbzy8zmj8140c)" style="stroke:#A80036;stroke-width:2.0;"/><text fill="#000000" font-family="sans-serif" font-size="14" lengthAdjust="spacing" textLength="68" x="5" y="236.8232">Utilizador</text><ellipse cx="42" cy="250.125" fill="#FEFECE" filter="url(#fbzy8zmj8140c)" rx="8" ry="8" style="stroke:#A80036;stroke-width:2.0;"/><path d="M42,258.125 L42,285.125 M29,266.125 L55,266.125 M42,285.125 L29,300.125 M42,285.125 L55,300.125 " fill="none" filter="url(#fbzy8zmj8140c)" style="stroke:#A80036;stroke-width:2.0;"/><rect fill="#FEFECE" filter="url(#fbzy8zmj8140c)" height="30.2969" style="stroke:#A80036;stroke-width:1.5;" width="174" x="360" y="53"/><text fill="#000000" font-family="sans-serif" font-size="14" lengthAdjust="spacing" textLength="160" x="367" y="72.9951">:api/LugaresController</text><rect fill="#FEFECE" filter="url(#fbzy8zmj8140c)" height="30.2969" style="stroke:#A80036;stroke-width:1.5;" width="174" x="360" y="223.8281"/><text fill="#000000" font-family="sans-serif" font-size="14" lengthAdjust="spacing" textLength="160" x="367" y="243.8232">:api/LugaresController</text><rect fill="#FEFECE" filter="url(#fbzy8zmj8140c)" height="30.2969" style="stroke:#A80036;stroke-width:1.5;" width="76" x="678" y="53"/><text fill="#000000" font-family="sans-serif" font-size="14" lengthAdjust="spacing" textLength="62" x="685" y="72.9951">:context</text><rect fill="#FEFECE" filter="url(#fbzy8zmj8140c)" height="30.2969" style="stroke:#A80036;stroke-width:1.5;" width="76" x="678" y="223.8281"/><text fill="#000000" font-family="sans-serif" font-size="14" lengthAdjust="spacing" textLength="62" x="685" y="243.8232">:context</text><rect fill="#FFFFFF" filter="url(#fbzy8zmj8140c)" height="108.5313" style="stroke:#A80036;stroke-width:1.0;" width="10" x="37" y="98.2969"/><rect fill="#FFFFFF" filter="url(#fbzy8zmj8140c)" height="87.3984" style="stroke:#A80036;stroke-width:1.0;" width="10" x="444" y="119.4297"/><rect fill="#FFFFFF" filter="url(#fbzy8zmj8140c)" height="29.1328" style="stroke:#A80036;stroke-width:1.0;" width="10" x="713" y="148.5625"/><polygon fill="#A80036" points="432,115.4297,442,119.4297,432,123.4297,436,119.4297" style="stroke:#A80036;stroke-width:1.0;"/><line style="stroke:#A80036;stroke-width:1.0;stroke-dasharray:2.0,2.0;" x1="47" x2="438" y1="119.4297" y2="119.4297"/><text fill="#000000" font-family="sans-serif" font-size="13" font-weight="bold" lengthAdjust="spacing" textLength="9" x="54" y="114.3638">1</text><text fill="#000000" font-family="sans-serif" font-size="13" lengthAdjust="spacing" textLength="354" x="67" y="114.3638">inicia pesquisa de disponibilidade(localidade, inicio, fim)</text><polygon fill="#A80036" points="701,144.5625,711,148.5625,701,152.5625,705,148.5625" style="stroke:#A80036;stroke-width:1.0;"/><line style="stroke:#A80036;stroke-width:1.0;stroke-dasharray:2.0,2.0;" x1="454" x2="707" y1="148.5625" y2="148.5625"/><text fill="#000000" font-family="sans-serif" font-size="13" font-weight="bold" lengthAdjust="spacing" textLength="9" x="461" y="143.4966">2</text><text fill="#000000" font-family="sans-serif" font-size="13" lengthAdjust="spacing" textLength="227" x="474" y="143.4966">FindAvailable(localidade, inicio, fim)</text><polygon fill="#A80036" points="465,173.6953,455,177.6953,465,181.6953,461,177.6953" style="stroke:#A80036;stroke-width:1.0;"/><line style="stroke:#A80036;stroke-width:1.0;stroke-dasharray:2.0,2.0;" x1="459" x2="717" y1="177.6953" y2="177.6953"/><text fill="#000000" font-family="sans-serif" font-size="13" font-weight="bold" lengthAdjust="spacing" textLength="8" x="471" y="172.6294">3</text><text fill="#000000" font-family="sans-serif" font-size="13" lengthAdjust="spacing" textLength="153" x="483" y="172.6294">List&lt;Lugar&gt; disponiveis</text><polygon fill="#A80036" points="53,202.8281,43,206.8281,53,210.8281,49,206.8281" style="stroke:#A80036;stroke-width:1.0;"/><line style="stroke:#A80036;stroke-width:1.0;stroke-dasharray:2.0,2.0;" x1="47" x2="448" y1="206.8281" y2="206.8281"/><text fill="#000000" font-family="sans-serif" font-size="13" font-weight="bold" lengthAdjust="spacing" textLength="9" x="59" y="201.7622">4</text><text fill="#000000" font-family="sans-serif" font-size="13" lengthAdjust="spacing" textLength="360" x="72" y="201.7622">return(List&lt;Lugar&gt; disponiveis) operação bem sucedida</text><!--MD5=[c53e57b0ecd537eacd2a380b08a43d07]
@startuml
autonumber
actor "Utilizador" as SC
participant ":api/LugaresController" as RC
participant ":context" as C

activate SC
SC - -> RC : inicia pesquisa de disponibilidade(localidade, inicio, fim)
activate RC

RC - -> C : FindAvailable(localidade, inicio, fim)
activate C

C - -> RC : List<Lugar> disponiveis
deactivate C

RC - -> SC: return(List<Lugar> disponiveis) operação bem sucedida
deactivate RC
deactivate SC
@enduml

PlantUML version 1.2021.01(Tue Feb 02 07:55:08 UTC 2021)
(GPL source distribution)
Java Runtime: Java(TM) SE Runtime Environment
JVM: Java HotSpot(TM) 64-Bit Server VM
Default Encoding: UTF-8
Language: en
Country: US
--></g></svg>