<?xml version="1.0" encoding="UTF-8" standalone="no"?><svg xmlns="http://www.w3.org/2000/svg" xmlns:xlink="http://www.w3.org/1999/xlink" contentScriptType="application/ecmascript" contentStyleType="text/css" height="530px" preserveAspectRatio="none" style="width:993px;height:530px;" version="1.1" viewBox="0 0 993 530" width="993px" zoomAndPan="magnify"><defs><filter height="300%" id="f1wb2xujgbrn1n" width="300%" x="-1" y="-1"><feGaussianBlur result="blurOut" stdDeviation="2.0"/><feColorMatrix in="blurOut" result="blurOut2" type="matrix" values="0 0 0 0 0 0 0 0 0 0 0 0 0 0 0 0 0 0 .4 0"/><feOffset dx="4.0" dy="4.0" in="blurOut2" result="blurOut3"/><feBlend in="SourceGraphic" in2="blurOut3" mode="normal"/></filter></defs><g><rect fill="#FFFFFF" filter="url(#f1wb2xujgbrn1n)" height="329.5938" style="stroke:#A80036;stroke-width:1.0;" width="10" x="37" y="98.2969"/><rect fill="#FFFFFF" filter="url(#f1wb2xujgbrn1n)" height="308.4609" style="stroke:#A80036;stroke-width:1.0;" width="10" x="249" y="119.4297"/><rect fill="#FFFFFF" filter="url(#f1wb2xujgbrn1n)" height="235.0625" style="stroke:#A80036;stroke-width:1.0;" width="10" x="591" y="148.5625"/><rect fill="#FFFFFF" filter="url(#f1wb2xujgbrn1n)" height="29.1328" style="stroke:#A80036;stroke-width:1.0;" width="10" x="770" y="177.6953"/><rect fill="#FFFFFF" filter="url(#f1wb2xujgbrn1n)" height="29.1328" style="stroke:#A80036;stroke-width:1.0;" width="10" x="916.5" y="260.0938"/><rect fill="#FFFFFF" filter="url(#f1wb2xujgbrn1n)" height="29.1328" style="stroke:#A80036;stroke-width:1.0;" width="10" x="916.5" y="318.3594"/><rect fill="#FFFFFF" filter="url(#f1wb2xujgbrn1n)" height="133.6641" style="stroke:#000000;stroke-width:2.0;" width="473" x="506" y="221.8281"/><line style="stroke:#A80036;stroke-width:1.0;stroke-dasharray:5.0,5.0;" x1="42" x2="42" y1="88.2969" y2="445.8906"/><line style="stroke:#A80036;stroke-width:1.0;stroke-dasharray:5.0,5.0;" x1="254" x2="254" y1="88.2969" y2="445.8906"/><line style="stroke:#A80036;stroke-width:1.0;stroke-dasharray:5.0,5.0;" x1="596" x2="596" y1="88.2969" y2="445.8906"/><line style="stroke:#A80036;stroke-width:1.0;stroke-dasharray:5.0,5.0;" x1="775" x2="775" y1="88.2969" y2="445.8906"/><line style="stroke:#A80036;stroke-width:1.0;stroke-dasharray:5.0,5.0;" x1="921" x2="921" y1="88.2969" y2="445.8906"/><text fill="#000000" font-family="sans-serif" font-size="14" lengthAdjust="spacing" textLength="68" x="5" y="84.9951">Utilizador</text><ellipse cx="42" cy="15" fill="#FEFECE" filter="url(#f1wb2xujgbrn1n)" rx="8" ry="8" style="stroke:#A80036;stroke-width:2.0;"/><path d="M42,23 L42,50 M29,31 L55,31 M42,50 L29,65 M42,50 L55,65 " fill="none" filter="url(#f1wb2xujgbrn1n)" style="stroke:#A80036;stroke-width:2.0;"/><text fill="#000000" font-family="sans-serif" font-size="14" lengthAdjust="spacing" textLength="68" x="5" y="457.8857">Utilizador</text><ellipse cx="42" cy="471.1875" fill="#FEFECE" filter="url(#f1wb2xujgbrn1n)" rx="8" ry="8" style="stroke:#A80036;stroke-width:2.0;"/><path d="M42,479.1875 L42,506.1875 M29,487.1875 L55,487.1875 M42,506.1875 L29,521.1875 M42,506.1875 L55,521.1875 " fill="none" filter="url(#f1wb2xujgbrn1n)" style="stroke:#A80036;stroke-width:2.0;"/><rect fill="#FEFECE" filter="url(#f1wb2xujgbrn1n)" height="30.2969" style="stroke:#A80036;stroke-width:1.5;" width="176" x="164" y="53"/><text fill="#000000" font-family="sans-serif" font-size="14" lengthAdjust="spacing" textLength="162" x="171" y="72.9951">:api/ReservaController</text><rect fill="#FEFECE" filter="url(#f1wb2xujgbrn1n)" height="30.2969" style="stroke:#A80036;stroke-width:1.5;" width="176" x="164" y="444.8906"/><text fill="#000000" font-family="sans-serif" font-size="14" lengthAdjust="spacing" textLength="162" x="171" y="464.8857">:api/ReservaController</text><rect fill="#FEFECE" filter="url(#f1wb2xujgbrn1n)" height="30.2969" style="stroke:#A80036;stroke-width:1.5;" width="156" x="516" y="53"/><text fill="#000000" font-family="sans-serif" font-size="14" lengthAdjust="spacing" textLength="142" x="523" y="72.9951">:api/ReservaService</text><rect fill="#FEFECE" filter="url(#f1wb2xujgbrn1n)" height="30.2969" style="stroke:#A80036;stroke-width:1.5;" width="156" x="516" y="444.8906"/><text fill="#000000" font-family="sans-serif" font-size="14" lengthAdjust="spacing" textLength="142" x="523" y="464.8857">:api/ReservaService</text><rect fill="#FEFECE" filter="url(#f1wb2xujgbrn1n)" height="30.2969" style="stroke:#A80036;stroke-width:1.5;" width="174" x="686" y="53"/><text fill="#000000" font-family="sans-serif" font-size="14" lengthAdjust="spacing" textLength="160" x="693" y="72.9951">:api/ParqueRepository</text><rect fill="#FEFECE" filter="url(#f1wb2xujgbrn1n)" height="30.2969" style="stroke:#A80036;stroke-width:1.5;" width="174" x="686" y="444.8906"/><text fill="#000000" font-family="sans-serif" font-size="14" lengthAdjust="spacing" textLength="160" x="693" y="464.8857">:api/ParqueRepository</text><rect fill="#FEFECE" filter="url(#f1wb2xujgbrn1n)" height="30.2969" style="stroke:#A80036;stroke-width:1.5;" width="91" x="874" y="53"/><text fill="#000000" font-family="sans-serif" font-size="14" lengthAdjust="spacing" textLength="77" x="881" y="72.9951">API:Parque</text><rect fill="#FEFECE" filter="url(#f1wb2xujgbrn1n)" height="30.2969" style="stroke:#A80036;stroke-width:1.5;" width="91" x="874" y="444.8906"/><text fill="#000000" font-family="sans-serif" font-size="14" lengthAdjust="spacing" textLength="77" x="881" y="464.8857">API:Parque</text><rect fill="#FFFFFF" filter="url(#f1wb2xujgbrn1n)" height="329.5938" style="stroke:#A80036;stroke-width:1.0;" width="10" x="37" y="98.2969"/><rect fill="#FFFFFF" filter="url(#f1wb2xujgbrn1n)" height="308.4609" style="stroke:#A80036;stroke-width:1.0;" width="10" x="249" y="119.4297"/><rect fill="#FFFFFF" filter="url(#f1wb2xujgbrn1n)" height="235.0625" style="stroke:#A80036;stroke-width:1.0;" width="10" x="591" y="148.5625"/><rect fill="#FFFFFF" filter="url(#f1wb2xujgbrn1n)" height="29.1328" style="stroke:#A80036;stroke-width:1.0;" width="10" x="770" y="177.6953"/><rect fill="#FFFFFF" filter="url(#f1wb2xujgbrn1n)" height="29.1328" style="stroke:#A80036;stroke-width:1.0;" width="10" x="916.5" y="260.0938"/><rect fill="#FFFFFF" filter="url(#f1wb2xujgbrn1n)" height="29.1328" style="stroke:#A80036;stroke-width:1.0;" width="10" x="916.5" y="318.3594"/><polygon fill="#A80036" points="237,115.4297,247,119.4297,237,123.4297,241,119.4297" style="stroke:#A80036;stroke-width:1.0;"/><line style="stroke:#A80036;stroke-width:1.0;stroke-dasharray:2.0,2.0;" x1="47" x2="243" y1="119.4297" y2="119.4297"/><text fill="#000000" font-family="sans-serif" font-size="13" font-weight="bold" lengthAdjust="spacing" textLength="9" x="54" y="114.3638">1</text><text fill="#000000" font-family="sans-serif" font-size="13" lengthAdjust="spacing" textLength="170" x="67" y="114.3638">solicita lugares disponiveis</text><polygon fill="#A80036" points="579,144.5625,589,148.5625,579,152.5625,583,148.5625" style="stroke:#A80036;stroke-width:1.0;"/><line style="stroke:#A80036;stroke-width:1.0;stroke-dasharray:2.0,2.0;" x1="259" x2="585" y1="148.5625" y2="148.5625"/><text fill="#000000" font-family="sans-serif" font-size="13" font-weight="bold" lengthAdjust="spacing" textLength="9" x="266" y="143.4966">2</text><text fill="#000000" font-family="sans-serif" font-size="13" lengthAdjust="spacing" textLength="300" x="279" y="143.4966">FindAvailableAsync(freguesiaNome, inicio, fim)</text><polygon fill="#A80036" points="758,173.6953,768,177.6953,758,181.6953,762,177.6953" style="stroke:#A80036;stroke-width:1.0;"/><line style="stroke:#A80036;stroke-width:1.0;stroke-dasharray:2.0,2.0;" x1="601" x2="764" y1="177.6953" y2="177.6953"/><text fill="#000000" font-family="sans-serif" font-size="13" font-weight="bold" lengthAdjust="spacing" textLength="8" x="608" y="172.6294">3</text><text fill="#000000" font-family="sans-serif" font-size="13" lengthAdjust="spacing" textLength="87" x="620" y="172.6294">GetAllAsync()</text><polygon fill="#A80036" points="612,202.8281,602,206.8281,612,210.8281,608,206.8281" style="stroke:#A80036;stroke-width:1.0;"/><line style="stroke:#A80036;stroke-width:1.0;stroke-dasharray:2.0,2.0;" x1="606" x2="774" y1="206.8281" y2="206.8281"/><text fill="#000000" font-family="sans-serif" font-size="13" font-weight="bold" lengthAdjust="spacing" textLength="9" x="618" y="201.7622">4</text><text fill="#000000" font-family="sans-serif" font-size="13" lengthAdjust="spacing" textLength="121" x="631" y="201.7622">return listaParques</text><path d="M506,221.8281 L584,221.8281 L584,228.8281 L574,238.8281 L506,238.8281 L506,221.8281 " fill="#EEEEEE" style="stroke:#000000;stroke-width:1.0;"/><rect fill="none" height="133.6641" style="stroke:#000000;stroke-width:2.0;" width="473" x="506" y="221.8281"/><text fill="#000000" font-family="sans-serif" font-size="13" font-weight="bold" lengthAdjust="spacing" textLength="33" x="521" y="234.895">loop</text><text fill="#000000" font-family="sans-serif" font-size="11" font-weight="bold" lengthAdjust="spacing" textLength="113" x="599" y="234.0386">[foreach parque]</text><polygon fill="#A80036" points="904.5,256.0938,914.5,260.0938,904.5,264.0938,908.5,260.0938" style="stroke:#A80036;stroke-width:1.0;"/><line style="stroke:#A80036;stroke-width:1.0;stroke-dasharray:2.0,2.0;" x1="601" x2="910.5" y1="260.0938" y2="260.0938"/><text fill="#000000" font-family="sans-serif" font-size="13" font-weight="bold" lengthAdjust="spacing" textLength="9" x="608" y="255.0278">5</text><text fill="#000000" font-family="sans-serif" font-size="13" lengthAdjust="spacing" textLength="149" x="621" y="255.0278">GetFreguesiaByNome()</text><polygon fill="#A80036" points="612,285.2266,602,289.2266,612,293.2266,608,289.2266" style="stroke:#A80036;stroke-width:1.0;"/><line style="stroke:#A80036;stroke-width:1.0;stroke-dasharray:2.0,2.0;" x1="606" x2="920.5" y1="289.2266" y2="289.2266"/><text fill="#000000" font-family="sans-serif" font-size="13" font-weight="bold" lengthAdjust="spacing" textLength="9" x="618" y="284.1606">6</text><text fill="#000000" font-family="sans-serif" font-size="13" lengthAdjust="spacing" textLength="103" x="631" y="284.1606">return freguesia</text><polygon fill="#A80036" points="904.5,314.3594,914.5,318.3594,904.5,322.3594,908.5,318.3594" style="stroke:#A80036;stroke-width:1.0;"/><line style="stroke:#A80036;stroke-width:1.0;stroke-dasharray:2.0,2.0;" x1="601" x2="910.5" y1="318.3594" y2="318.3594"/><text fill="#000000" font-family="sans-serif" font-size="13" font-weight="bold" lengthAdjust="spacing" textLength="9" x="608" y="313.2935">7</text><text fill="#000000" font-family="sans-serif" font-size="13" lengthAdjust="spacing" textLength="94" x="621" y="313.2935">FindAvailable()</text><polygon fill="#A80036" points="612,343.4922,602,347.4922,612,351.4922,608,347.4922" style="stroke:#A80036;stroke-width:1.0;"/><line style="stroke:#A80036;stroke-width:1.0;stroke-dasharray:2.0,2.0;" x1="606" x2="920.5" y1="347.4922" y2="347.4922"/><text fill="#000000" font-family="sans-serif" font-size="13" font-weight="bold" lengthAdjust="spacing" textLength="9" x="618" y="342.4263">8</text><text fill="#000000" font-family="sans-serif" font-size="13" lengthAdjust="spacing" textLength="120" x="631" y="342.4263">return listaLugares</text><polygon fill="#A80036" points="270,379.625,260,383.625,270,387.625,266,383.625" style="stroke:#A80036;stroke-width:1.0;"/><line style="stroke:#A80036;stroke-width:1.0;stroke-dasharray:2.0,2.0;" x1="264" x2="595" y1="383.625" y2="383.625"/><text fill="#000000" font-family="sans-serif" font-size="13" font-weight="bold" lengthAdjust="spacing" textLength="9" x="276" y="378.5591">9</text><text fill="#000000" font-family="sans-serif" font-size="13" lengthAdjust="spacing" textLength="120" x="289" y="378.5591">return listaLugares</text><polygon fill="#A80036" points="53,423.8906,43,427.8906,53,431.8906,49,427.8906" style="stroke:#A80036;stroke-width:1.0;"/><line style="stroke:#A80036;stroke-width:1.0;stroke-dasharray:2.0,2.0;" x1="47" x2="253" y1="427.8906" y2="427.8906"/><text fill="#000000" font-family="sans-serif" font-size="13" font-weight="bold" lengthAdjust="spacing" textLength="19" x="59" y="415.2583">10</text><text fill="#000000" font-family="sans-serif" font-size="13" lengthAdjust="spacing" textLength="120" x="82" y="407.6919">return listaLugares</text><text fill="#000000" font-family="sans-serif" font-size="13" lengthAdjust="spacing" textLength="154" x="82" y="422.8247">operação bem sucedida</text><!--MD5=[f19719bd4d143153e7f269018c4ee27d]
@startuml
autonumber
actor "Utilizador" as U
participant ":api/ReservaController" as RC
participant ":api/ReservaService" as RS
participant ":api/ParqueRepository" as PR
participant "API:Parque" as API

activate U

U - -> RC: solicita lugares disponiveis
activate RC

RC - -> RS: FindAvailableAsync(freguesiaNome, inicio, fim)
activate RS

RS - -> PR: GetAllAsync()
activate PR

PR - -> RS: return listaParques
deactivate PR

loop foreach parque
RS - -> API: GetFreguesiaByNome()
activate API

API - -> RS: return freguesia 
deactivate API

RS - -> API: FindAvailable()
activate API

API - -> RS: return listaLugares
deactivate API
end

RS - -> RC: return listaLugares
deactivate RS

RC - -> U: return listaLugares\noperação bem sucedida
deactivate RC
deactivate U
@enduml

PlantUML version 1.2021.2beta6(Unknown compile time)
(GPL source distribution)
Java Runtime: Java(TM) SE Runtime Environment
JVM: Java HotSpot(TM) 64-Bit Server VM
Default Encoding: UTF-8
Language: en
Country: US
--></g></svg>