<?xml version="1.0" encoding="UTF-8" standalone="no"?><svg xmlns="http://www.w3.org/2000/svg" xmlns:xlink="http://www.w3.org/1999/xlink" contentScriptType="application/ecmascript" contentStyleType="text/css" height="382px" preserveAspectRatio="none" style="width:528px;height:382px;" version="1.1" viewBox="0 0 528 382" width="528px" zoomAndPan="magnify"><defs><filter height="300%" id="fpcjrcihtuq4g" width="300%" x="-1" y="-1"><feGaussianBlur result="blurOut" stdDeviation="2.0"/><feColorMatrix in="blurOut" result="blurOut2" type="matrix" values="0 0 0 0 0 0 0 0 0 0 0 0 0 0 0 0 0 0 .4 0"/><feOffset dx="4.0" dy="4.0" in="blurOut2" result="blurOut3"/><feBlend in="SourceGraphic" in2="blurOut3" mode="normal"/></filter></defs><g><rect fill="#FFFFFF" filter="url(#fpcjrcihtuq4g)" height="181.9297" style="stroke:#A80036;stroke-width:1.0;" width="10" x="37" y="98.2969"/><rect fill="#FFFFFF" filter="url(#fpcjrcihtuq4g)" height="29.1328" style="stroke:#A80036;stroke-width:1.0;" width="10" x="289" y="119.4297"/><rect fill="#FFFFFF" filter="url(#fpcjrcihtuq4g)" height="102.5313" style="stroke:#A80036;stroke-width:1.0;" width="10" x="289" y="177.6953"/><rect fill="#FFFFFF" filter="url(#fpcjrcihtuq4g)" height="29.1328" style="stroke:#A80036;stroke-width:1.0;" width="10" x="473" y="206.8281"/><line style="stroke:#A80036;stroke-width:1.0;stroke-dasharray:5.0,5.0;" x1="42" x2="42" y1="88.2969" y2="298.2266"/><line style="stroke:#A80036;stroke-width:1.0;stroke-dasharray:5.0,5.0;" x1="294" x2="294" y1="88.2969" y2="298.2266"/><line style="stroke:#A80036;stroke-width:1.0;stroke-dasharray:5.0,5.0;" x1="478" x2="478" y1="88.2969" y2="298.2266"/><text fill="#000000" font-family="sans-serif" font-size="14" lengthAdjust="spacing" textLength="68" x="5" y="84.9951">Utilizador</text><ellipse cx="42" cy="15" fill="#FEFECE" filter="url(#fpcjrcihtuq4g)" rx="8" ry="8" style="stroke:#A80036;stroke-width:2.0;"/><path d="M42,23 L42,50 M29,31 L55,31 M42,50 L29,65 M42,50 L55,65 " fill="none" filter="url(#fpcjrcihtuq4g)" style="stroke:#A80036;stroke-width:2.0;"/><text fill="#000000" font-family="sans-serif" font-size="14" lengthAdjust="spacing" textLength="68" x="5" y="310.2217">Utilizador</text><ellipse cx="42" cy="323.5234" fill="#FEFECE" filter="url(#fpcjrcihtuq4g)" rx="8" ry="8" style="stroke:#A80036;stroke-width:2.0;"/><path d="M42,331.5234 L42,358.5234 M29,339.5234 L55,339.5234 M42,358.5234 L29,373.5234 M42,358.5234 L55,373.5234 " fill="none" filter="url(#fpcjrcihtuq4g)" style="stroke:#A80036;stroke-width:2.0;"/><rect fill="#FEFECE" filter="url(#fpcjrcihtuq4g)" height="30.2969" style="stroke:#A80036;stroke-width:1.5;" width="170" x="207" y="53"/><text fill="#000000" font-family="sans-serif" font-size="14" lengthAdjust="spacing" textLength="156" x="214" y="72.9951">:api/lugaresController</text><rect fill="#FEFECE" filter="url(#fpcjrcihtuq4g)" height="30.2969" style="stroke:#A80036;stroke-width:1.5;" width="170" x="207" y="297.2266"/><text fill="#000000" font-family="sans-serif" font-size="14" lengthAdjust="spacing" textLength="156" x="214" y="317.2217">:api/lugaresController</text><rect fill="#FEFECE" filter="url(#fpcjrcihtuq4g)" height="30.2969" style="stroke:#A80036;stroke-width:1.5;" width="76" x="438" y="53"/><text fill="#000000" font-family="sans-serif" font-size="14" lengthAdjust="spacing" textLength="62" x="445" y="72.9951">:context</text><rect fill="#FEFECE" filter="url(#fpcjrcihtuq4g)" height="30.2969" style="stroke:#A80036;stroke-width:1.5;" width="76" x="438" y="297.2266"/><text fill="#000000" font-family="sans-serif" font-size="14" lengthAdjust="spacing" textLength="62" x="445" y="317.2217">:context</text><rect fill="#FFFFFF" filter="url(#fpcjrcihtuq4g)" height="181.9297" style="stroke:#A80036;stroke-width:1.0;" width="10" x="37" y="98.2969"/><rect fill="#FFFFFF" filter="url(#fpcjrcihtuq4g)" height="29.1328" style="stroke:#A80036;stroke-width:1.0;" width="10" x="289" y="119.4297"/><rect fill="#FFFFFF" filter="url(#fpcjrcihtuq4g)" height="102.5313" style="stroke:#A80036;stroke-width:1.0;" width="10" x="289" y="177.6953"/><rect fill="#FFFFFF" filter="url(#fpcjrcihtuq4g)" height="29.1328" style="stroke:#A80036;stroke-width:1.0;" width="10" x="473" y="206.8281"/><polygon fill="#A80036" points="277,115.4297,287,119.4297,277,123.4297,281,119.4297" style="stroke:#A80036;stroke-width:1.0;"/><line style="stroke:#A80036;stroke-width:1.0;stroke-dasharray:2.0,2.0;" x1="47" x2="283" y1="119.4297" y2="119.4297"/><text fill="#000000" font-family="sans-serif" font-size="13" font-weight="bold" lengthAdjust="spacing" textLength="9" x="54" y="114.3638">1</text><text fill="#000000" font-family="sans-serif" font-size="13" lengthAdjust="spacing" textLength="159" x="67" y="114.3638">inicia pedido sub-aluguer</text><polygon fill="#A80036" points="58,144.5625,48,148.5625,58,152.5625,54,148.5625" style="stroke:#A80036;stroke-width:1.0;"/><line style="stroke:#A80036;stroke-width:1.0;stroke-dasharray:2.0,2.0;" x1="52" x2="293" y1="148.5625" y2="148.5625"/><text fill="#000000" font-family="sans-serif" font-size="13" font-weight="bold" lengthAdjust="spacing" textLength="9" x="64" y="143.4966">2</text><text fill="#000000" font-family="sans-serif" font-size="13" lengthAdjust="spacing" textLength="205" x="77" y="143.4966">solicita dados (reservaId, preço)</text><polygon fill="#A80036" points="277,173.6953,287,177.6953,277,181.6953,281,177.6953" style="stroke:#A80036;stroke-width:1.0;"/><line style="stroke:#A80036;stroke-width:1.0;stroke-dasharray:2.0,2.0;" x1="47" x2="283" y1="177.6953" y2="177.6953"/><text fill="#000000" font-family="sans-serif" font-size="13" font-weight="bold" lengthAdjust="spacing" textLength="8" x="54" y="172.6294">3</text><text fill="#000000" font-family="sans-serif" font-size="13" lengthAdjust="spacing" textLength="166" x="66" y="172.6294">introduz dados solicitados</text><polygon fill="#A80036" points="461,202.8281,471,206.8281,461,210.8281,465,206.8281" style="stroke:#A80036;stroke-width:1.0;"/><line style="stroke:#A80036;stroke-width:1.0;stroke-dasharray:2.0,2.0;" x1="299" x2="467" y1="206.8281" y2="206.8281"/><text fill="#000000" font-family="sans-serif" font-size="13" font-weight="bold" lengthAdjust="spacing" textLength="9" x="306" y="201.7622">4</text><text fill="#000000" font-family="sans-serif" font-size="13" lengthAdjust="spacing" textLength="67" x="319" y="201.7622">Add(lugar)</text><polygon fill="#A80036" points="310,231.9609,300,235.9609,310,239.9609,306,235.9609" style="stroke:#A80036;stroke-width:1.0;"/><line style="stroke:#A80036;stroke-width:1.0;stroke-dasharray:2.0,2.0;" x1="304" x2="477" y1="235.9609" y2="235.9609"/><text fill="#000000" font-family="sans-serif" font-size="13" font-weight="bold" lengthAdjust="spacing" textLength="9" x="316" y="230.895">5</text><text fill="#000000" font-family="sans-serif" font-size="13" lengthAdjust="spacing" textLength="137" x="329" y="230.895">SaveChangesAsync()</text><polygon fill="#A80036" points="53,276.2266,43,280.2266,53,284.2266,49,280.2266" style="stroke:#A80036;stroke-width:1.0;"/><line style="stroke:#A80036;stroke-width:1.0;stroke-dasharray:2.0,2.0;" x1="47" x2="293" y1="280.2266" y2="280.2266"/><text fill="#000000" font-family="sans-serif" font-size="13" font-weight="bold" lengthAdjust="spacing" textLength="9" x="59" y="267.5942">6</text><text fill="#000000" font-family="sans-serif" font-size="13" lengthAdjust="spacing" textLength="115" x="72" y="260.0278">CreatedAtAction()</text><text fill="#000000" font-family="sans-serif" font-size="13" lengthAdjust="spacing" textLength="154" x="72" y="275.1606">operação bem sucedida</text><!--MD5=[63e3179d6463e143e10fa4853ce6aeb1]
@startuml
autonumber
actor "Utilizador" as U
participant ":api/lugaresController" as RC
participant ":context" as C

activate U
U - -> RC : inicia pedido sub-aluguer
activate RC

RC - -> U : solicita dados (reservaId, preço)
deactivate RC

U - -> RC : introduz dados solicitados
activate RC

RC - -> C : Add(lugar)
activate C

C - -> RC : SaveChangesAsync()
deactivate C

RC - -> U: CreatedAtAction()\noperação bem sucedida
deactivate RC
deactivate U
@enduml

PlantUML version 1.2021.01(Tue Feb 02 07:55:08 UTC 2021)
(GPL source distribution)
Java Runtime: Java(TM) SE Runtime Environment
JVM: Java HotSpot(TM) 64-Bit Server VM
Default Encoding: UTF-8
Language: en
Country: US
--></g></svg>