<?xml version="1.0" encoding="UTF-8" standalone="no"?><svg xmlns="http://www.w3.org/2000/svg" xmlns:xlink="http://www.w3.org/1999/xlink" contentScriptType="application/ecmascript" contentStyleType="text/css" height="367px" preserveAspectRatio="none" style="width:559px;height:367px;" version="1.1" viewBox="0 0 559 367" width="559px" zoomAndPan="magnify"><defs><filter height="300%" id="fgtn7k6cuz6q6" width="300%" x="-1" y="-1"><feGaussianBlur result="blurOut" stdDeviation="2.0"/><feColorMatrix in="blurOut" result="blurOut2" type="matrix" values="0 0 0 0 0 0 0 0 0 0 0 0 0 0 0 0 0 0 .4 0"/><feOffset dx="4.0" dy="4.0" in="blurOut2" result="blurOut3"/><feBlend in="SourceGraphic" in2="blurOut3" mode="normal"/></filter></defs><g><rect fill="#FFFFFF" filter="url(#fgtn7k6cuz6q6)" height="166.7969" style="stroke:#A80036;stroke-width:1.0;" width="10" x="37" y="98.2969"/><rect fill="#FFFFFF" filter="url(#fgtn7k6cuz6q6)" height="145.6641" style="stroke:#A80036;stroke-width:1.0;" width="10" x="320" y="119.4297"/><rect fill="#FFFFFF" filter="url(#fgtn7k6cuz6q6)" height="29.1328" style="stroke:#A80036;stroke-width:1.0;" width="10" x="504" y="148.5625"/><rect fill="#FFFFFF" filter="url(#fgtn7k6cuz6q6)" height="29.1328" style="stroke:#A80036;stroke-width:1.0;" width="10" x="504" y="206.8281"/><line style="stroke:#A80036;stroke-width:1.0;stroke-dasharray:5.0,5.0;" x1="42" x2="42" y1="88.2969" y2="283.0938"/><line style="stroke:#A80036;stroke-width:1.0;stroke-dasharray:5.0,5.0;" x1="324.5" x2="324.5" y1="88.2969" y2="283.0938"/><line style="stroke:#A80036;stroke-width:1.0;stroke-dasharray:5.0,5.0;" x1="509" x2="509" y1="88.2969" y2="283.0938"/><text fill="#000000" font-family="sans-serif" font-size="14" lengthAdjust="spacing" textLength="68" x="5" y="84.9951">Utilizador</text><ellipse cx="42" cy="15" fill="#FEFECE" filter="url(#fgtn7k6cuz6q6)" rx="8" ry="8" style="stroke:#A80036;stroke-width:2.0;"/><path d="M42,23 L42,50 M29,31 L55,31 M42,50 L29,65 M42,50 L55,65 " fill="none" filter="url(#fgtn7k6cuz6q6)" style="stroke:#A80036;stroke-width:2.0;"/><text fill="#000000" font-family="sans-serif" font-size="14" lengthAdjust="spacing" textLength="68" x="5" y="295.0889">Utilizador</text><ellipse cx="42" cy="308.3906" fill="#FEFECE" filter="url(#fgtn7k6cuz6q6)" rx="8" ry="8" style="stroke:#A80036;stroke-width:2.0;"/><path d="M42,316.3906 L42,343.3906 M29,324.3906 L55,324.3906 M42,343.3906 L29,358.3906 M42,343.3906 L55,358.3906 " fill="none" filter="url(#fgtn7k6cuz6q6)" style="stroke:#A80036;stroke-width:2.0;"/><rect fill="#FEFECE" filter="url(#fgtn7k6cuz6q6)" height="30.2969" style="stroke:#A80036;stroke-width:1.5;" width="179" x="233.5" y="53"/><text fill="#000000" font-family="sans-serif" font-size="14" lengthAdjust="spacing" textLength="165" x="240.5" y="72.9951">:api/reservasController</text><rect fill="#FEFECE" filter="url(#fgtn7k6cuz6q6)" height="30.2969" style="stroke:#A80036;stroke-width:1.5;" width="179" x="233.5" y="282.0938"/><text fill="#000000" font-family="sans-serif" font-size="14" lengthAdjust="spacing" textLength="165" x="240.5" y="302.0889">:api/reservasController</text><rect fill="#FEFECE" filter="url(#fgtn7k6cuz6q6)" height="30.2969" style="stroke:#A80036;stroke-width:1.5;" width="76" x="469" y="53"/><text fill="#000000" font-family="sans-serif" font-size="14" lengthAdjust="spacing" textLength="62" x="476" y="72.9951">:context</text><rect fill="#FEFECE" filter="url(#fgtn7k6cuz6q6)" height="30.2969" style="stroke:#A80036;stroke-width:1.5;" width="76" x="469" y="282.0938"/><text fill="#000000" font-family="sans-serif" font-size="14" lengthAdjust="spacing" textLength="62" x="476" y="302.0889">:context</text><rect fill="#FFFFFF" filter="url(#fgtn7k6cuz6q6)" height="166.7969" style="stroke:#A80036;stroke-width:1.0;" width="10" x="37" y="98.2969"/><rect fill="#FFFFFF" filter="url(#fgtn7k6cuz6q6)" height="145.6641" style="stroke:#A80036;stroke-width:1.0;" width="10" x="320" y="119.4297"/><rect fill="#FFFFFF" filter="url(#fgtn7k6cuz6q6)" height="29.1328" style="stroke:#A80036;stroke-width:1.0;" width="10" x="504" y="148.5625"/><rect fill="#FFFFFF" filter="url(#fgtn7k6cuz6q6)" height="29.1328" style="stroke:#A80036;stroke-width:1.0;" width="10" x="504" y="206.8281"/><polygon fill="#A80036" points="308,115.4297,318,119.4297,308,123.4297,312,119.4297" style="stroke:#A80036;stroke-width:1.0;"/><line style="stroke:#A80036;stroke-width:1.0;stroke-dasharray:2.0,2.0;" x1="47" x2="314" y1="119.4297" y2="119.4297"/><text fill="#000000" font-family="sans-serif" font-size="13" font-weight="bold" lengthAdjust="spacing" textLength="9" x="54" y="114.3638">1</text><text fill="#000000" font-family="sans-serif" font-size="13" lengthAdjust="spacing" textLength="230" x="67" y="114.3638">pede para cancelar uma reserva(id)</text><polygon fill="#A80036" points="492,144.5625,502,148.5625,492,152.5625,496,148.5625" style="stroke:#A80036;stroke-width:1.0;"/><line style="stroke:#A80036;stroke-width:1.0;stroke-dasharray:2.0,2.0;" x1="330" x2="498" y1="148.5625" y2="148.5625"/><text fill="#000000" font-family="sans-serif" font-size="13" font-weight="bold" lengthAdjust="spacing" textLength="9" x="337" y="143.4966">2</text><text fill="#000000" font-family="sans-serif" font-size="13" lengthAdjust="spacing" textLength="86" x="350" y="143.4966">FindAsync(id)</text><polygon fill="#A80036" points="341,173.6953,331,177.6953,341,181.6953,337,177.6953" style="stroke:#A80036;stroke-width:1.0;"/><line style="stroke:#A80036;stroke-width:1.0;stroke-dasharray:2.0,2.0;" x1="335" x2="508" y1="177.6953" y2="177.6953"/><text fill="#000000" font-family="sans-serif" font-size="13" font-weight="bold" lengthAdjust="spacing" textLength="8" x="347" y="172.6294">3</text><text fill="#000000" font-family="sans-serif" font-size="13" lengthAdjust="spacing" textLength="98" x="359" y="172.6294">return(reserva)</text><polygon fill="#A80036" points="492,202.8281,502,206.8281,492,210.8281,496,206.8281" style="stroke:#A80036;stroke-width:1.0;"/><line style="stroke:#A80036;stroke-width:1.0;stroke-dasharray:2.0,2.0;" x1="330" x2="498" y1="206.8281" y2="206.8281"/><text fill="#000000" font-family="sans-serif" font-size="13" font-weight="bold" lengthAdjust="spacing" textLength="9" x="337" y="201.7622">4</text><text fill="#000000" font-family="sans-serif" font-size="13" lengthAdjust="spacing" textLength="113" x="350" y="201.7622">Remove(reserva)</text><polygon fill="#A80036" points="341,231.9609,331,235.9609,341,239.9609,337,235.9609" style="stroke:#A80036;stroke-width:1.0;"/><line style="stroke:#A80036;stroke-width:1.0;stroke-dasharray:2.0,2.0;" x1="335" x2="508" y1="235.9609" y2="235.9609"/><text fill="#000000" font-family="sans-serif" font-size="13" font-weight="bold" lengthAdjust="spacing" textLength="9" x="347" y="230.895">5</text><text fill="#000000" font-family="sans-serif" font-size="13" lengthAdjust="spacing" textLength="137" x="360" y="230.895">SaveChangesAsync()</text><polygon fill="#A80036" points="53,261.0938,43,265.0938,53,269.0938,49,265.0938" style="stroke:#A80036;stroke-width:1.0;"/><line style="stroke:#A80036;stroke-width:1.0;stroke-dasharray:2.0,2.0;" x1="47" x2="324" y1="265.0938" y2="265.0938"/><text fill="#000000" font-family="sans-serif" font-size="13" font-weight="bold" lengthAdjust="spacing" textLength="9" x="59" y="260.0278">6</text><text fill="#000000" font-family="sans-serif" font-size="13" lengthAdjust="spacing" textLength="236" x="72" y="260.0278">NoContent() operação bem sucedida</text><!--MD5=[76e815acf5b639f3401a4f748c423e29]
@startuml
autonumber
actor "Utilizador" as SC
participant ":api/reservasController" as RC
participant ":context" as C

activate SC
SC - -> RC : pede para cancelar uma reserva(id)
activate RC

RC - -> C : FindAsync(id)
activate C

C - -> RC : return(reserva)
deactivate C

RC - -> C : Remove(reserva)
activate C

C - -> RC : SaveChangesAsync()
deactivate C

RC - -> SC: NoContent() operação bem sucedida
deactivate RC
deactivate SC
@enduml

PlantUML version 1.2021.01(Tue Feb 02 07:55:08 UTC 2021)
(GPL source distribution)
Java Runtime: Java(TM) SE Runtime Environment
JVM: Java HotSpot(TM) 64-Bit Server VM
Default Encoding: UTF-8
Language: en
Country: US
--></g></svg>