<?xml version="1.0" encoding="UTF-8" standalone="no"?><svg xmlns="http://www.w3.org/2000/svg" xmlns:xlink="http://www.w3.org/1999/xlink" contentScriptType="application/ecmascript" contentStyleType="text/css" height="833px" preserveAspectRatio="none" style="width:1915px;height:833px;" version="1.1" viewBox="0 0 1915 833" width="1915px" zoomAndPan="magnify"><defs><filter height="300%" id="fb57aj50w86wm" width="300%" x="-1" y="-1"><feGaussianBlur result="blurOut" stdDeviation="2.0"/><feColorMatrix in="blurOut" result="blurOut2" type="matrix" values="0 0 0 0 0 0 0 0 0 0 0 0 0 0 0 0 0 0 .4 0"/><feOffset dx="4.0" dy="4.0" in="blurOut2" result="blurOut3"/><feBlend in="SourceGraphic" in2="blurOut3" mode="normal"/></filter></defs><g><rect fill="#FFFFFF" filter="url(#fb57aj50w86wm)" height="632.9219" style="stroke:#A80036;stroke-width:1.0;" width="10" x="37" y="98.2969"/><rect fill="#FFFFFF" filter="url(#fb57aj50w86wm)" height="611.7891" style="stroke:#A80036;stroke-width:1.0;" width="10" x="247" y="119.4297"/><rect fill="#FFFFFF" filter="url(#fb57aj50w86wm)" height="553.5234" style="stroke:#A80036;stroke-width:1.0;" width="10" x="427" y="148.5625"/><rect fill="#FFFFFF" filter="url(#fb57aj50w86wm)" height="29.1328" style="stroke:#A80036;stroke-width:1.0;" width="10" x="752" y="294.2266"/><rect fill="#FFFFFF" filter="url(#fb57aj50w86wm)" height="29.1328" style="stroke:#A80036;stroke-width:1.0;" width="10" x="933.5" y="235.9609"/><rect fill="#FFFFFF" filter="url(#fb57aj50w86wm)" height="29.1328" style="stroke:#A80036;stroke-width:1.0;" width="10" x="933.5" y="352.4922"/><rect fill="#FFFFFF" filter="url(#fb57aj50w86wm)" height="87.3984" style="stroke:#A80036;stroke-width:1.0;" width="10" x="1136.5" y="410.7578"/><rect fill="#FFFFFF" filter="url(#fb57aj50w86wm)" height="29.1328" style="stroke:#A80036;stroke-width:1.0;" width="10" x="1340.5" y="439.8906"/><rect fill="#FFFFFF" filter="url(#fb57aj50w86wm)" height="29.1328" style="stroke:#A80036;stroke-width:1.0;" width="10" x="1514.5" y="177.6953"/><rect fill="#FFFFFF" filter="url(#fb57aj50w86wm)" height="29.1328" style="stroke:#A80036;stroke-width:1.0;" width="10" x="1514.5" y="527.2891"/><rect fill="#FFFFFF" filter="url(#fb57aj50w86wm)" height="29.1328" style="stroke:#A80036;stroke-width:1.0;" width="10" x="1706.5" y="585.5547"/><rect fill="#FFFFFF" filter="url(#fb57aj50w86wm)" height="29.1328" style="stroke:#A80036;stroke-width:1.0;" width="10" x="1853" y="643.8203"/><line style="stroke:#A80036;stroke-width:1.0;stroke-dasharray:5.0,5.0;" x1="42" x2="42" y1="88.2969" y2="749.2188"/><line style="stroke:#A80036;stroke-width:1.0;stroke-dasharray:5.0,5.0;" x1="252" x2="252" y1="88.2969" y2="749.2188"/><line style="stroke:#A80036;stroke-width:1.0;stroke-dasharray:5.0,5.0;" x1="432" x2="432" y1="88.2969" y2="749.2188"/><line style="stroke:#A80036;stroke-width:1.0;stroke-dasharray:5.0,5.0;" x1="757" x2="757" y1="88.2969" y2="749.2188"/><line style="stroke:#A80036;stroke-width:1.0;stroke-dasharray:5.0,5.0;" x1="938" x2="938" y1="88.2969" y2="749.2188"/><line style="stroke:#A80036;stroke-width:1.0;stroke-dasharray:5.0,5.0;" x1="1141" x2="1141" y1="88.2969" y2="749.2188"/><line style="stroke:#A80036;stroke-width:1.0;stroke-dasharray:5.0,5.0;" x1="1345.5" x2="1345.5" y1="88.2969" y2="749.2188"/><line style="stroke:#A80036;stroke-width:1.0;stroke-dasharray:5.0,5.0;" x1="1519.5" x2="1519.5" y1="88.2969" y2="749.2188"/><line style="stroke:#A80036;stroke-width:1.0;stroke-dasharray:5.0,5.0;" x1="1711.5" x2="1711.5" y1="88.2969" y2="749.2188"/><line style="stroke:#A80036;stroke-width:1.0;stroke-dasharray:5.0,5.0;" x1="1857.5" x2="1857.5" y1="88.2969" y2="749.2188"/><text fill="#000000" font-family="sans-serif" font-size="14" lengthAdjust="spacing" textLength="68" x="5" y="84.9951">Utilizador</text><ellipse cx="42" cy="15" fill="#FEFECE" filter="url(#fb57aj50w86wm)" rx="8" ry="8" style="stroke:#A80036;stroke-width:2.0;"/><path d="M42,23 L42,50 M29,31 L55,31 M42,50 L29,65 M42,50 L55,65 " fill="none" filter="url(#fb57aj50w86wm)" style="stroke:#A80036;stroke-width:2.0;"/><text fill="#000000" font-family="sans-serif" font-size="14" lengthAdjust="spacing" textLength="68" x="5" y="761.2139">Utilizador</text><ellipse cx="42" cy="774.5156" fill="#FEFECE" filter="url(#fb57aj50w86wm)" rx="8" ry="8" style="stroke:#A80036;stroke-width:2.0;"/><path d="M42,782.5156 L42,809.5156 M29,790.5156 L55,790.5156 M42,809.5156 L29,824.5156 M42,809.5156 L55,824.5156 " fill="none" filter="url(#fb57aj50w86wm)" style="stroke:#A80036;stroke-width:2.0;"/><rect fill="#FEFECE" filter="url(#fb57aj50w86wm)" height="30.2969" style="stroke:#A80036;stroke-width:1.5;" width="176" x="162" y="53"/><text fill="#000000" font-family="sans-serif" font-size="14" lengthAdjust="spacing" textLength="162" x="169" y="72.9951">:api/ReservaController</text><rect fill="#FEFECE" filter="url(#fb57aj50w86wm)" height="30.2969" style="stroke:#A80036;stroke-width:1.5;" width="176" x="162" y="748.2188"/><text fill="#000000" font-family="sans-serif" font-size="14" lengthAdjust="spacing" textLength="162" x="169" y="768.2139">:api/ReservaController</text><rect fill="#FEFECE" filter="url(#fb57aj50w86wm)" height="30.2969" style="stroke:#A80036;stroke-width:1.5;" width="156" x="352" y="53"/><text fill="#000000" font-family="sans-serif" font-size="14" lengthAdjust="spacing" textLength="142" x="359" y="72.9951">:api/ReservaService</text><rect fill="#FEFECE" filter="url(#fb57aj50w86wm)" height="30.2969" style="stroke:#A80036;stroke-width:1.5;" width="156" x="352" y="748.2188"/><text fill="#000000" font-family="sans-serif" font-size="14" lengthAdjust="spacing" textLength="142" x="359" y="768.2139">:api/ReservaService</text><rect fill="#FEFECE" filter="url(#fb57aj50w86wm)" height="30.2969" style="stroke:#A80036;stroke-width:1.5;" width="138" x="686" y="53"/><text fill="#000000" font-family="sans-serif" font-size="14" lengthAdjust="spacing" textLength="124" x="693" y="72.9951">:api/EmailService</text><rect fill="#FEFECE" filter="url(#fb57aj50w86wm)" height="30.2969" style="stroke:#A80036;stroke-width:1.5;" width="138" x="686" y="748.2188"/><text fill="#000000" font-family="sans-serif" font-size="14" lengthAdjust="spacing" textLength="124" x="693" y="768.2139">:api/EmailService</text><rect fill="#FEFECE" filter="url(#fb57aj50w86wm)" height="30.2969" style="stroke:#A80036;stroke-width:1.5;" width="197" x="838" y="53"/><text fill="#000000" font-family="sans-serif" font-size="14" lengthAdjust="spacing" textLength="183" x="845" y="72.9951">:api/TransacaoRepository</text><rect fill="#FEFECE" filter="url(#fb57aj50w86wm)" height="30.2969" style="stroke:#A80036;stroke-width:1.5;" width="197" x="838" y="748.2188"/><text fill="#000000" font-family="sans-serif" font-size="14" lengthAdjust="spacing" textLength="183" x="845" y="768.2139">:api/TransacaoRepository</text><rect fill="#FEFECE" filter="url(#fb57aj50w86wm)" height="30.2969" style="stroke:#A80036;stroke-width:1.5;" width="181" x="1049" y="53"/><text fill="#000000" font-family="sans-serif" font-size="14" lengthAdjust="spacing" textLength="167" x="1056" y="72.9951">:api/PagamentoService</text><rect fill="#FEFECE" filter="url(#fb57aj50w86wm)" height="30.2969" style="stroke:#A80036;stroke-width:1.5;" width="181" x="1049" y="748.2188"/><text fill="#000000" font-family="sans-serif" font-size="14" lengthAdjust="spacing" textLength="167" x="1056" y="768.2139">:api/PagamentoService</text><rect fill="#FEFECE" filter="url(#fb57aj50w86wm)" height="30.2969" style="stroke:#A80036;stroke-width:1.5;" width="138" x="1274.5" y="53"/><text fill="#000000" font-family="sans-serif" font-size="14" lengthAdjust="spacing" textLength="124" x="1281.5" y="72.9951">:api/UserManager</text><rect fill="#FEFECE" filter="url(#fb57aj50w86wm)" height="30.2969" style="stroke:#A80036;stroke-width:1.5;" width="138" x="1274.5" y="748.2188"/><text fill="#000000" font-family="sans-serif" font-size="14" lengthAdjust="spacing" textLength="124" x="1281.5" y="768.2139">:api/UserManager</text><rect fill="#FEFECE" filter="url(#fb57aj50w86wm)" height="30.2969" style="stroke:#A80036;stroke-width:1.5;" width="182" x="1426.5" y="53"/><text fill="#000000" font-family="sans-serif" font-size="14" lengthAdjust="spacing" textLength="168" x="1433.5" y="72.9951">:api/ReservaRepository</text><rect fill="#FEFECE" filter="url(#fb57aj50w86wm)" height="30.2969" style="stroke:#A80036;stroke-width:1.5;" width="182" x="1426.5" y="748.2188"/><text fill="#000000" font-family="sans-serif" font-size="14" lengthAdjust="spacing" textLength="168" x="1433.5" y="768.2139">:api/ReservaRepository</text><rect fill="#FEFECE" filter="url(#fb57aj50w86wm)" height="30.2969" style="stroke:#A80036;stroke-width:1.5;" width="174" x="1622.5" y="53"/><text fill="#000000" font-family="sans-serif" font-size="14" lengthAdjust="spacing" textLength="160" x="1629.5" y="72.9951">:api/ParqueRepository</text><rect fill="#FEFECE" filter="url(#fb57aj50w86wm)" height="30.2969" style="stroke:#A80036;stroke-width:1.5;" width="174" x="1622.5" y="748.2188"/><text fill="#000000" font-family="sans-serif" font-size="14" lengthAdjust="spacing" textLength="160" x="1629.5" y="768.2139">:api/ParqueRepository</text><rect fill="#FEFECE" filter="url(#fb57aj50w86wm)" height="30.2969" style="stroke:#A80036;stroke-width:1.5;" width="91" x="1810.5" y="53"/><text fill="#000000" font-family="sans-serif" font-size="14" lengthAdjust="spacing" textLength="77" x="1817.5" y="72.9951">API:Parque</text><rect fill="#FEFECE" filter="url(#fb57aj50w86wm)" height="30.2969" style="stroke:#A80036;stroke-width:1.5;" width="91" x="1810.5" y="748.2188"/><text fill="#000000" font-family="sans-serif" font-size="14" lengthAdjust="spacing" textLength="77" x="1817.5" y="768.2139">API:Parque</text><rect fill="#FFFFFF" filter="url(#fb57aj50w86wm)" height="632.9219" style="stroke:#A80036;stroke-width:1.0;" width="10" x="37" y="98.2969"/><rect fill="#FFFFFF" filter="url(#fb57aj50w86wm)" height="611.7891" style="stroke:#A80036;stroke-width:1.0;" width="10" x="247" y="119.4297"/><rect fill="#FFFFFF" filter="url(#fb57aj50w86wm)" height="553.5234" style="stroke:#A80036;stroke-width:1.0;" width="10" x="427" y="148.5625"/><rect fill="#FFFFFF" filter="url(#fb57aj50w86wm)" height="29.1328" style="stroke:#A80036;stroke-width:1.0;" width="10" x="752" y="294.2266"/><rect fill="#FFFFFF" filter="url(#fb57aj50w86wm)" height="29.1328" style="stroke:#A80036;stroke-width:1.0;" width="10" x="933.5" y="235.9609"/><rect fill="#FFFFFF" filter="url(#fb57aj50w86wm)" height="29.1328" style="stroke:#A80036;stroke-width:1.0;" width="10" x="933.5" y="352.4922"/><rect fill="#FFFFFF" filter="url(#fb57aj50w86wm)" height="87.3984" style="stroke:#A80036;stroke-width:1.0;" width="10" x="1136.5" y="410.7578"/><rect fill="#FFFFFF" filter="url(#fb57aj50w86wm)" height="29.1328" style="stroke:#A80036;stroke-width:1.0;" width="10" x="1340.5" y="439.8906"/><rect fill="#FFFFFF" filter="url(#fb57aj50w86wm)" height="29.1328" style="stroke:#A80036;stroke-width:1.0;" width="10" x="1514.5" y="177.6953"/><rect fill="#FFFFFF" filter="url(#fb57aj50w86wm)" height="29.1328" style="stroke:#A80036;stroke-width:1.0;" width="10" x="1514.5" y="527.2891"/><rect fill="#FFFFFF" filter="url(#fb57aj50w86wm)" height="29.1328" style="stroke:#A80036;stroke-width:1.0;" width="10" x="1706.5" y="585.5547"/><rect fill="#FFFFFF" filter="url(#fb57aj50w86wm)" height="29.1328" style="stroke:#A80036;stroke-width:1.0;" width="10" x="1853" y="643.8203"/><polygon fill="#A80036" points="235,115.4297,245,119.4297,235,123.4297,239,119.4297" style="stroke:#A80036;stroke-width:1.0;"/><line style="stroke:#A80036;stroke-width:1.0;stroke-dasharray:2.0,2.0;" x1="47" x2="241" y1="119.4297" y2="119.4297"/><text fill="#000000" font-family="sans-serif" font-size="13" font-weight="bold" lengthAdjust="spacing" textLength="9" x="54" y="114.3638">1</text><text fill="#000000" font-family="sans-serif" font-size="13" lengthAdjust="spacing" textLength="116" x="67" y="114.3638">DeleteReserva(id)</text><polygon fill="#A80036" points="415,144.5625,425,148.5625,415,152.5625,419,148.5625" style="stroke:#A80036;stroke-width:1.0;"/><line style="stroke:#A80036;stroke-width:1.0;stroke-dasharray:2.0,2.0;" x1="257" x2="421" y1="148.5625" y2="148.5625"/><text fill="#000000" font-family="sans-serif" font-size="13" font-weight="bold" lengthAdjust="spacing" textLength="9" x="264" y="143.4966">2</text><text fill="#000000" font-family="sans-serif" font-size="13" lengthAdjust="spacing" textLength="102" x="277" y="143.4966">DeleteAsync(id)</text><polygon fill="#A80036" points="1502.5,173.6953,1512.5,177.6953,1502.5,181.6953,1506.5,177.6953" style="stroke:#A80036;stroke-width:1.0;"/><line style="stroke:#A80036;stroke-width:1.0;stroke-dasharray:2.0,2.0;" x1="437" x2="1508.5" y1="177.6953" y2="177.6953"/><text fill="#000000" font-family="sans-serif" font-size="13" font-weight="bold" lengthAdjust="spacing" textLength="8" x="444" y="172.6294">3</text><text fill="#000000" font-family="sans-serif" font-size="13" lengthAdjust="spacing" textLength="110" x="456" y="172.6294">GetByIdAsync(id)</text><polygon fill="#A80036" points="448,202.8281,438,206.8281,448,210.8281,444,206.8281" style="stroke:#A80036;stroke-width:1.0;"/><line style="stroke:#A80036;stroke-width:1.0;stroke-dasharray:2.0,2.0;" x1="442" x2="1518.5" y1="206.8281" y2="206.8281"/><text fill="#000000" font-family="sans-serif" font-size="13" font-weight="bold" lengthAdjust="spacing" textLength="9" x="454" y="201.7622">4</text><text fill="#000000" font-family="sans-serif" font-size="13" lengthAdjust="spacing" textLength="92" x="467" y="201.7622">return reserva</text><polygon fill="#A80036" points="921.5,231.9609,931.5,235.9609,921.5,239.9609,925.5,235.9609" style="stroke:#A80036;stroke-width:1.0;"/><line style="stroke:#A80036;stroke-width:1.0;stroke-dasharray:2.0,2.0;" x1="437" x2="927.5" y1="235.9609" y2="235.9609"/><text fill="#000000" font-family="sans-serif" font-size="13" font-weight="bold" lengthAdjust="spacing" textLength="9" x="444" y="230.895">5</text><text fill="#000000" font-family="sans-serif" font-size="13" lengthAdjust="spacing" textLength="230" x="457" y="230.895">GetByIdAsync(reserva.TransacaoId)</text><polygon fill="#A80036" points="448,261.0938,438,265.0938,448,269.0938,444,265.0938" style="stroke:#A80036;stroke-width:1.0;"/><line style="stroke:#A80036;stroke-width:1.0;stroke-dasharray:2.0,2.0;" x1="442" x2="937.5" y1="265.0938" y2="265.0938"/><text fill="#000000" font-family="sans-serif" font-size="13" font-weight="bold" lengthAdjust="spacing" textLength="9" x="454" y="260.0278">6</text><text fill="#000000" font-family="sans-serif" font-size="13" lengthAdjust="spacing" textLength="107" x="467" y="260.0278">return transacao</text><polygon fill="#A80036" points="740,290.2266,750,294.2266,740,298.2266,744,294.2266" style="stroke:#A80036;stroke-width:1.0;"/><line style="stroke:#A80036;stroke-width:1.0;stroke-dasharray:2.0,2.0;" x1="437" x2="746" y1="294.2266" y2="294.2266"/><text fill="#000000" font-family="sans-serif" font-size="13" font-weight="bold" lengthAdjust="spacing" textLength="9" x="444" y="289.1606">7</text><text fill="#000000" font-family="sans-serif" font-size="13" lengthAdjust="spacing" textLength="283" x="457" y="289.1606">EnviarEmailCancelamento(nome, reservaId)</text><polygon fill="#A80036" points="448,319.3594,438,323.3594,448,327.3594,444,323.3594" style="stroke:#A80036;stroke-width:1.0;"/><line style="stroke:#A80036;stroke-width:1.0;stroke-dasharray:2.0,2.0;" x1="442" x2="756" y1="323.3594" y2="323.3594"/><text fill="#000000" font-family="sans-serif" font-size="13" font-weight="bold" lengthAdjust="spacing" textLength="9" x="454" y="318.2935">8</text><text fill="#000000" font-family="sans-serif" font-size="13" lengthAdjust="spacing" textLength="0" x="471" y="318.2935"/><polygon fill="#A80036" points="921.5,348.4922,931.5,352.4922,921.5,356.4922,925.5,352.4922" style="stroke:#A80036;stroke-width:1.0;"/><line style="stroke:#A80036;stroke-width:1.0;stroke-dasharray:2.0,2.0;" x1="437" x2="927.5" y1="352.4922" y2="352.4922"/><text fill="#000000" font-family="sans-serif" font-size="13" font-weight="bold" lengthAdjust="spacing" textLength="9" x="444" y="347.4263">9</text><text fill="#000000" font-family="sans-serif" font-size="13" lengthAdjust="spacing" textLength="213" x="457" y="347.4263">PostAsync(transacaoReembolso)</text><polygon fill="#A80036" points="448,377.625,438,381.625,448,385.625,444,381.625" style="stroke:#A80036;stroke-width:1.0;"/><line style="stroke:#A80036;stroke-width:1.0;stroke-dasharray:2.0,2.0;" x1="442" x2="937.5" y1="381.625" y2="381.625"/><text fill="#000000" font-family="sans-serif" font-size="13" font-weight="bold" lengthAdjust="spacing" textLength="19" x="454" y="376.5591">10</text><text fill="#000000" font-family="sans-serif" font-size="13" lengthAdjust="spacing" textLength="179" x="477" y="376.5591">return transacaoReembolso</text><polygon fill="#A80036" points="1124.5,406.7578,1134.5,410.7578,1124.5,414.7578,1128.5,410.7578" style="stroke:#A80036;stroke-width:1.0;"/><line style="stroke:#A80036;stroke-width:1.0;stroke-dasharray:2.0,2.0;" x1="437" x2="1130.5" y1="410.7578" y2="410.7578"/><text fill="#000000" font-family="sans-serif" font-size="13" font-weight="bold" lengthAdjust="spacing" textLength="18" x="444" y="405.6919">11</text><text fill="#000000" font-family="sans-serif" font-size="13" lengthAdjust="spacing" textLength="146" x="466" y="405.6919">Reembolso(transacao)</text><polygon fill="#A80036" points="1328.5,435.8906,1338.5,439.8906,1328.5,443.8906,1332.5,439.8906" style="stroke:#A80036;stroke-width:1.0;"/><line style="stroke:#A80036;stroke-width:1.0;stroke-dasharray:2.0,2.0;" x1="1146.5" x2="1334.5" y1="439.8906" y2="439.8906"/><text fill="#000000" font-family="sans-serif" font-size="13" font-weight="bold" lengthAdjust="spacing" textLength="18" x="1153.5" y="434.8247">12</text><text fill="#000000" font-family="sans-serif" font-size="13" lengthAdjust="spacing" textLength="153" x="1175.5" y="434.8247">UpdateAsync(utilizador)</text><polygon fill="#A80036" points="1157.5,465.0234,1147.5,469.0234,1157.5,473.0234,1153.5,469.0234" style="stroke:#A80036;stroke-width:1.0;"/><line style="stroke:#A80036;stroke-width:1.0;stroke-dasharray:2.0,2.0;" x1="1151.5" x2="1344.5" y1="469.0234" y2="469.0234"/><text fill="#000000" font-family="sans-serif" font-size="13" font-weight="bold" lengthAdjust="spacing" textLength="17" x="1163.5" y="463.9575">13</text><text fill="#000000" font-family="sans-serif" font-size="13" lengthAdjust="spacing" textLength="0" x="1188.5" y="463.9575"/><polygon fill="#A80036" points="448,494.1563,438,498.1563,448,502.1563,444,498.1563" style="stroke:#A80036;stroke-width:1.0;"/><line style="stroke:#A80036;stroke-width:1.0;stroke-dasharray:2.0,2.0;" x1="442" x2="1140.5" y1="498.1563" y2="498.1563"/><text fill="#000000" font-family="sans-serif" font-size="13" font-weight="bold" lengthAdjust="spacing" textLength="18" x="454" y="493.0903">14</text><text fill="#000000" font-family="sans-serif" font-size="13" lengthAdjust="spacing" textLength="0" x="480" y="493.0903"/><polygon fill="#A80036" points="1502.5,523.2891,1512.5,527.2891,1502.5,531.2891,1506.5,527.2891" style="stroke:#A80036;stroke-width:1.0;"/><line style="stroke:#A80036;stroke-width:1.0;stroke-dasharray:2.0,2.0;" x1="437" x2="1508.5" y1="527.2891" y2="527.2891"/><text fill="#000000" font-family="sans-serif" font-size="13" font-weight="bold" lengthAdjust="spacing" textLength="18" x="444" y="522.2231">15</text><text fill="#000000" font-family="sans-serif" font-size="13" lengthAdjust="spacing" textLength="102" x="466" y="522.2231">DeleteAsync(id)</text><polygon fill="#A80036" points="448,552.4219,438,556.4219,448,560.4219,444,556.4219" style="stroke:#A80036;stroke-width:1.0;"/><line style="stroke:#A80036;stroke-width:1.0;stroke-dasharray:2.0,2.0;" x1="442" x2="1518.5" y1="556.4219" y2="556.4219"/><text fill="#000000" font-family="sans-serif" font-size="13" font-weight="bold" lengthAdjust="spacing" textLength="18" x="454" y="551.356">16</text><text fill="#000000" font-family="sans-serif" font-size="13" lengthAdjust="spacing" textLength="0" x="480" y="551.356"/><polygon fill="#A80036" points="1694.5,581.5547,1704.5,585.5547,1694.5,589.5547,1698.5,585.5547" style="stroke:#A80036;stroke-width:1.0;"/><line style="stroke:#A80036;stroke-width:1.0;stroke-dasharray:2.0,2.0;" x1="437" x2="1700.5" y1="585.5547" y2="585.5547"/><text fill="#000000" font-family="sans-serif" font-size="13" font-weight="bold" lengthAdjust="spacing" textLength="18" x="444" y="580.4888">17</text><text fill="#000000" font-family="sans-serif" font-size="13" lengthAdjust="spacing" textLength="208" x="466" y="580.4888">GetByIdAsync(reserva.ParqueId)</text><polygon fill="#A80036" points="448,610.6875,438,614.6875,448,618.6875,444,614.6875" style="stroke:#A80036;stroke-width:1.0;"/><line style="stroke:#A80036;stroke-width:1.0;stroke-dasharray:2.0,2.0;" x1="442" x2="1710.5" y1="614.6875" y2="614.6875"/><text fill="#000000" font-family="sans-serif" font-size="13" font-weight="bold" lengthAdjust="spacing" textLength="18" x="454" y="609.6216">18</text><text fill="#000000" font-family="sans-serif" font-size="13" lengthAdjust="spacing" textLength="88" x="476" y="609.6216">return parque</text><polygon fill="#A80036" points="1841,639.8203,1851,643.8203,1841,647.8203,1845,643.8203" style="stroke:#A80036;stroke-width:1.0;"/><line style="stroke:#A80036;stroke-width:1.0;stroke-dasharray:2.0,2.0;" x1="437" x2="1847" y1="643.8203" y2="643.8203"/><text fill="#000000" font-family="sans-serif" font-size="13" font-weight="bold" lengthAdjust="spacing" textLength="18" x="444" y="638.7544">19</text><text fill="#000000" font-family="sans-serif" font-size="13" lengthAdjust="spacing" textLength="249" x="466" y="638.7544">DeleteAsync(reserva.reservaParqueId)</text><polygon fill="#A80036" points="448,668.9531,438,672.9531,448,676.9531,444,672.9531" style="stroke:#A80036;stroke-width:1.0;"/><line style="stroke:#A80036;stroke-width:1.0;stroke-dasharray:2.0,2.0;" x1="442" x2="1857" y1="672.9531" y2="672.9531"/><text fill="#000000" font-family="sans-serif" font-size="13" font-weight="bold" lengthAdjust="spacing" textLength="19" x="454" y="667.8872">20</text><text fill="#000000" font-family="sans-serif" font-size="13" lengthAdjust="spacing" textLength="0" x="481" y="667.8872"/><polygon fill="#A80036" points="268,698.0859,258,702.0859,268,706.0859,264,702.0859" style="stroke:#A80036;stroke-width:1.0;"/><line style="stroke:#A80036;stroke-width:1.0;stroke-dasharray:2.0,2.0;" x1="262" x2="431" y1="702.0859" y2="702.0859"/><text fill="#000000" font-family="sans-serif" font-size="13" font-weight="bold" lengthAdjust="spacing" textLength="18" x="274" y="697.02">21</text><text fill="#000000" font-family="sans-serif" font-size="13" lengthAdjust="spacing" textLength="0" x="300" y="697.02"/><polygon fill="#A80036" points="53,727.2188,43,731.2188,53,735.2188,49,731.2188" style="stroke:#A80036;stroke-width:1.0;"/><line style="stroke:#A80036;stroke-width:1.0;stroke-dasharray:2.0,2.0;" x1="47" x2="251" y1="731.2188" y2="731.2188"/><text fill="#000000" font-family="sans-serif" font-size="13" font-weight="bold" lengthAdjust="spacing" textLength="18" x="59" y="726.1528">22</text><text fill="#000000" font-family="sans-serif" font-size="13" lengthAdjust="spacing" textLength="154" x="81" y="726.1528">operacao bem sucedida</text><!--MD5=[6ef1acaf94d8228299da19db619c9436]
@startuml
autonumber
actor "Utilizador" as U
participant ":api/ReservaController" as RC
participant ":api/ReservaService" as RS
participant ":api/EmailService" as ES
participant ":api/TransacaoRepository" as TR
participant ":api/PagamentoService" as PS
participant ":api/UserManager" as UM
participant ":api/ReservaRepository" as RR
participant ":api/ParqueRepository" as PR
participant "API:Parque" as API

activate U

U - -> RC: DeleteReserva(id)
activate RC

RC - -> RS: DeleteAsync(id)
activate RS

RS - -> RR: GetByIdAsync(id)
activate RR

RR - -> RS:return reserva
deactivate RR

RS - -> TR: GetByIdAsync(reserva.TransacaoId)
activate TR

TR - -> RS:return transacao
deactivate TR

RS - -> ES: EnviarEmailCancelamento(nome, reservaId)
activate ES

ES - -> RS:
deactivate ES

RS - -> TR: PostAsync(transacaoReembolso)
activate TR

TR - -> RS: return transacaoReembolso
deactivate TR

RS - -> PS: Reembolso(transacao)
activate PS

PS - -> UM: UpdateAsync(utilizador)
activate UM

UM - -> PS:
deactivate UM

PS - -> RS
deactivate PS

RS - -> RR: DeleteAsync(id)
activate RR

RR - -> RS:
deactivate RR

RS - -> PR: GetByIdAsync(reserva.ParqueId)
activate PR

PR - -> RS: return parque
deactivate PR

RS - -> API: DeleteAsync(reserva.reservaParqueId)
activate API

API - -> RS:
deactivate API

RS - -> RC:
deactivate RS

RC - -> U: operacao bem sucedida
deactivate RC

deactivate U
@enduml

PlantUML version 1.2021.2beta7(Unknown compile time)
(GPL source distribution)
Java Runtime: Java(TM) SE Runtime Environment
JVM: Java HotSpot(TM) 64-Bit Server VM
Default Encoding: UTF-8
Language: en
Country: US
--></g></svg>