<?xml version="1.0" encoding="UTF-8" standalone="no"?><svg xmlns="http://www.w3.org/2000/svg" xmlns:xlink="http://www.w3.org/1999/xlink" contentScriptType="application/ecmascript" contentStyleType="text/css" height="1010px" preserveAspectRatio="none" style="width:1017px;height:1010px;" version="1.1" viewBox="0 0 1017 1010" width="1017px" zoomAndPan="magnify"><defs><filter height="300%" id="f1vsna1s4xi88l" width="300%" x="-1" y="-1"><feGaussianBlur result="blurOut" stdDeviation="2.0"/><feColorMatrix in="blurOut" result="blurOut2" type="matrix" values="0 0 0 0 0 0 0 0 0 0 0 0 0 0 0 0 0 0 .4 0"/><feOffset dx="4.0" dy="4.0" in="blurOut2" result="blurOut3"/><feBlend in="SourceGraphic" in2="blurOut3" mode="normal"/></filter></defs><g><!--MD5=[cfc49acd7e0af0bac14e715bd4a6a084]
class ClientesController--><rect codeLine="3" fill="#FEFECE" filter="url(#f1vsna1s4xi88l)" height="112.0234" id="ClientesController" style="stroke:#A80036;stroke-width:1.5;" width="168" x="407" y="7"/><ellipse cx="435.05" cy="23" fill="#ADD1B2" rx="11" ry="11" style="stroke:#A80036;stroke-width:1.0;"/><path d="M437.3938,18.6719 C436.4563,18.2344 435.8625,18.0938 434.9875,18.0938 C432.3625,18.0938 430.3625,20.1719 430.3625,22.8906 L430.3625,24.0156 C430.3625,26.5938 432.4719,28.4844 435.3625,28.4844 C436.5813,28.4844 437.7375,28.1875 438.4875,27.6406 C439.0656,27.2344 439.3938,26.7813 439.3938,26.3906 C439.3938,25.9375 439.0031,25.5469 438.5344,25.5469 C438.3156,25.5469 438.1125,25.625 437.925,25.8125 C437.4719,26.2969 437.4719,26.2969 437.2844,26.3906 C436.8625,26.6563 436.175,26.7813 435.4094,26.7813 C433.3625,26.7813 432.0656,25.6875 432.0656,23.9844 L432.0656,22.8906 C432.0656,21.1094 433.3156,19.7969 435.05,19.7969 C435.6281,19.7969 436.2375,19.9531 436.7063,20.2031 C437.1906,20.4844 437.3625,20.7031 437.4563,21.1094 C437.5188,21.5156 437.55,21.6406 437.6906,21.7656 C437.8313,21.9063 438.0656,22.0156 438.2844,22.0156 C438.55,22.0156 438.8156,21.875 438.9875,21.6563 C439.0969,21.5 439.1281,21.3125 439.1281,20.8906 L439.1281,19.4688 C439.1281,19.0313 439.1125,18.9063 439.0188,18.75 C438.8625,18.4844 438.5813,18.3438 438.2844,18.3438 C437.9875,18.3438 437.7844,18.4375 437.5656,18.75 L437.3938,18.6719 Z " fill="#000000"/><text fill="#000000" font-family="sans-serif" font-size="12" lengthAdjust="spacing" textLength="107" x="451.95" y="27.1543">ClientesController</text><line style="stroke:#A80036;stroke-width:1.5;" x1="408" x2="574" y1="39" y2="39"/><line style="stroke:#A80036;stroke-width:1.5;" x1="408" x2="574" y1="47" y2="47"/><text fill="#000000" font-family="sans-serif" font-size="11" lengthAdjust="spacing" textLength="104" x="413" y="61.2104">+Get GetCliente()</text><text fill="#000000" font-family="sans-serif" font-size="11" lengthAdjust="spacing" textLength="143" x="413" y="74.0151">+Get GetClienteById(nif)</text><text fill="#000000" font-family="sans-serif" font-size="11" lengthAdjust="spacing" textLength="108" x="413" y="86.8198">+Post PostCliente()</text><text fill="#000000" font-family="sans-serif" font-size="11" lengthAdjust="spacing" textLength="156" x="413" y="99.6245">+Put PutCliente(nif, cliente)</text><text fill="#000000" font-family="sans-serif" font-size="11" lengthAdjust="spacing" textLength="156" x="413" y="112.4292">+Delete DeleteCliente(nif)</text><!--MD5=[20a748d5ee336a9a91751b0a3d4f0beb]
class Cliente--><rect codeLine="11" fill="#FEFECE" filter="url(#f1vsna1s4xi88l)" height="86.4141" id="Cliente" style="stroke:#A80036;stroke-width:1.5;" width="86" x="363" y="577.5"/><ellipse cx="383.85" cy="593.5" fill="#ADD1B2" rx="11" ry="11" style="stroke:#A80036;stroke-width:1.0;"/><path d="M386.1938,589.1719 C385.2563,588.7344 384.6625,588.5938 383.7875,588.5938 C381.1625,588.5938 379.1625,590.6719 379.1625,593.3906 L379.1625,594.5156 C379.1625,597.0938 381.2719,598.9844 384.1625,598.9844 C385.3813,598.9844 386.5375,598.6875 387.2875,598.1406 C387.8656,597.7344 388.1938,597.2813 388.1938,596.8906 C388.1938,596.4375 387.8031,596.0469 387.3344,596.0469 C387.1156,596.0469 386.9125,596.125 386.725,596.3125 C386.2719,596.7969 386.2719,596.7969 386.0844,596.8906 C385.6625,597.1563 384.975,597.2813 384.2094,597.2813 C382.1625,597.2813 380.8656,596.1875 380.8656,594.4844 L380.8656,593.3906 C380.8656,591.6094 382.1156,590.2969 383.85,590.2969 C384.4281,590.2969 385.0375,590.4531 385.5063,590.7031 C385.9906,590.9844 386.1625,591.2031 386.2563,591.6094 C386.3188,592.0156 386.35,592.1406 386.4906,592.2656 C386.6313,592.4063 386.8656,592.5156 387.0844,592.5156 C387.35,592.5156 387.6156,592.375 387.7875,592.1563 C387.8969,592 387.9281,591.8125 387.9281,591.3906 L387.9281,589.9688 C387.9281,589.5313 387.9125,589.4063 387.8188,589.25 C387.6625,588.9844 387.3813,588.8438 387.0844,588.8438 C386.7875,588.8438 386.5844,588.9375 386.3656,589.25 L386.1938,589.1719 Z " fill="#000000"/><text fill="#000000" font-family="sans-serif" font-size="12" lengthAdjust="spacing" textLength="41" x="399.15" y="597.6543">Cliente</text><line style="stroke:#A80036;stroke-width:1.5;" x1="364" x2="448" y1="609.5" y2="609.5"/><text fill="#000000" font-family="sans-serif" font-size="11" lengthAdjust="spacing" textLength="53" x="369" y="623.7104">-Int nif PK</text><text fill="#000000" font-family="sans-serif" font-size="11" lengthAdjust="spacing" textLength="74" x="369" y="636.5151">-String nome</text><text fill="#000000" font-family="sans-serif" font-size="11" lengthAdjust="spacing" textLength="73" x="369" y="649.3198">-String email</text><line style="stroke:#A80036;stroke-width:1.5;" x1="364" x2="448" y1="655.9141" y2="655.9141"/><!--MD5=[884d341d7584b75b159fb4abcbb8e424]
class ReservasController--><rect codeLine="17" fill="#FEFECE" filter="url(#f1vsna1s4xi88l)" height="112.0234" id="ReservasController" style="stroke:#A80036;stroke-width:1.5;" width="175" x="196.5" y="7"/><ellipse cx="224.1" cy="23" fill="#ADD1B2" rx="11" ry="11" style="stroke:#A80036;stroke-width:1.0;"/><path d="M226.4438,18.6719 C225.5063,18.2344 224.9125,18.0938 224.0375,18.0938 C221.4125,18.0938 219.4125,20.1719 219.4125,22.8906 L219.4125,24.0156 C219.4125,26.5938 221.5219,28.4844 224.4125,28.4844 C225.6313,28.4844 226.7875,28.1875 227.5375,27.6406 C228.1156,27.2344 228.4438,26.7813 228.4438,26.3906 C228.4438,25.9375 228.0531,25.5469 227.5844,25.5469 C227.3656,25.5469 227.1625,25.625 226.975,25.8125 C226.5219,26.2969 226.5219,26.2969 226.3344,26.3906 C225.9125,26.6563 225.225,26.7813 224.4594,26.7813 C222.4125,26.7813 221.1156,25.6875 221.1156,23.9844 L221.1156,22.8906 C221.1156,21.1094 222.3656,19.7969 224.1,19.7969 C224.6781,19.7969 225.2875,19.9531 225.7563,20.2031 C226.2406,20.4844 226.4125,20.7031 226.5063,21.1094 C226.5688,21.5156 226.6,21.6406 226.7406,21.7656 C226.8813,21.9063 227.1156,22.0156 227.3344,22.0156 C227.6,22.0156 227.8656,21.875 228.0375,21.6563 C228.1469,21.5 228.1781,21.3125 228.1781,20.8906 L228.1781,19.4688 C228.1781,19.0313 228.1625,18.9063 228.0688,18.75 C227.9125,18.4844 227.6313,18.3438 227.3344,18.3438 C227.0375,18.3438 226.8344,18.4375 226.6156,18.75 L226.4438,18.6719 Z " fill="#000000"/><text fill="#000000" font-family="sans-serif" font-size="12" lengthAdjust="spacing" textLength="115" x="240.9" y="27.1543">ReservasController</text><line style="stroke:#A80036;stroke-width:1.5;" x1="197.5" x2="370.5" y1="39" y2="39"/><line style="stroke:#A80036;stroke-width:1.5;" x1="197.5" x2="370.5" y1="47" y2="47"/><text fill="#000000" font-family="sans-serif" font-size="11" lengthAdjust="spacing" textLength="110" x="202.5" y="61.2104">+Get GetReserva()</text><text fill="#000000" font-family="sans-serif" font-size="11" lengthAdjust="spacing" textLength="145" x="202.5" y="74.0151">+Get GetReservaById(id)</text><text fill="#000000" font-family="sans-serif" font-size="11" lengthAdjust="spacing" textLength="114" x="202.5" y="86.8198">+Post PostReserva()</text><text fill="#000000" font-family="sans-serif" font-size="11" lengthAdjust="spacing" textLength="163" x="202.5" y="99.6245">+Put PutReserva(id, reserva)</text><text fill="#000000" font-family="sans-serif" font-size="11" lengthAdjust="spacing" textLength="158" x="202.5" y="112.4292">+Delete DeleteReserva(id)</text><!--MD5=[6ea9d6598d9760662639554c9857ab6b]
class Reserva--><rect codeLine="25" fill="#FEFECE" filter="url(#f1vsna1s4xi88l)" height="112.0234" id="Reserva" style="stroke:#A80036;stroke-width:1.5;" width="106" x="147" y="369"/><ellipse cx="173.25" cy="385" fill="#ADD1B2" rx="11" ry="11" style="stroke:#A80036;stroke-width:1.0;"/><path d="M175.5938,380.6719 C174.6563,380.2344 174.0625,380.0938 173.1875,380.0938 C170.5625,380.0938 168.5625,382.1719 168.5625,384.8906 L168.5625,386.0156 C168.5625,388.5938 170.6719,390.4844 173.5625,390.4844 C174.7813,390.4844 175.9375,390.1875 176.6875,389.6406 C177.2656,389.2344 177.5938,388.7813 177.5938,388.3906 C177.5938,387.9375 177.2031,387.5469 176.7344,387.5469 C176.5156,387.5469 176.3125,387.625 176.125,387.8125 C175.6719,388.2969 175.6719,388.2969 175.4844,388.3906 C175.0625,388.6563 174.375,388.7813 173.6094,388.7813 C171.5625,388.7813 170.2656,387.6875 170.2656,385.9844 L170.2656,384.8906 C170.2656,383.1094 171.5156,381.7969 173.25,381.7969 C173.8281,381.7969 174.4375,381.9531 174.9063,382.2031 C175.3906,382.4844 175.5625,382.7031 175.6563,383.1094 C175.7188,383.5156 175.75,383.6406 175.8906,383.7656 C176.0313,383.9063 176.2656,384.0156 176.4844,384.0156 C176.75,384.0156 177.0156,383.875 177.1875,383.6563 C177.2969,383.5 177.3281,383.3125 177.3281,382.8906 L177.3281,381.4688 C177.3281,381.0313 177.3125,380.9063 177.2188,380.75 C177.0625,380.4844 176.7813,380.3438 176.4844,380.3438 C176.1875,380.3438 175.9844,380.4375 175.7656,380.75 L175.5938,380.6719 Z " fill="#000000"/><text fill="#000000" font-family="sans-serif" font-size="12" lengthAdjust="spacing" textLength="49" x="189.75" y="389.1543">Reserva</text><line style="stroke:#A80036;stroke-width:1.5;" x1="148" x2="252" y1="401" y2="401"/><text fill="#000000" font-family="sans-serif" font-size="11" lengthAdjust="spacing" textLength="93" x="153" y="415.2104">-Int reservaId PK</text><text fill="#000000" font-family="sans-serif" font-size="11" lengthAdjust="spacing" textLength="94" x="153" y="428.0151">-Int nifCliente FK</text><text fill="#000000" font-family="sans-serif" font-size="11" lengthAdjust="spacing" textLength="77" x="153" y="440.8198">-Int lugarId FK</text><text fill="#000000" font-family="sans-serif" font-size="11" lengthAdjust="spacing" textLength="94" x="153" y="453.6245">-DateTime inicio</text><text fill="#000000" font-family="sans-serif" font-size="11" lengthAdjust="spacing" textLength="83" x="153" y="466.4292">-DateTime fim</text><line style="stroke:#A80036;stroke-width:1.5;" x1="148" x2="252" y1="473.0234" y2="473.0234"/><!--MD5=[a474e7ebf34f725d44cd0720ea114b74]
class LugaresController--><rect codeLine="33" fill="#FEFECE" filter="url(#f1vsna1s4xi88l)" height="112.0234" id="LugaresController" style="stroke:#A80036;stroke-width:1.5;" width="154" x="7" y="7"/><ellipse cx="28.75" cy="23" fill="#ADD1B2" rx="11" ry="11" style="stroke:#A80036;stroke-width:1.0;"/><path d="M31.0938,18.6719 C30.1563,18.2344 29.5625,18.0938 28.6875,18.0938 C26.0625,18.0938 24.0625,20.1719 24.0625,22.8906 L24.0625,24.0156 C24.0625,26.5938 26.1719,28.4844 29.0625,28.4844 C30.2813,28.4844 31.4375,28.1875 32.1875,27.6406 C32.7656,27.2344 33.0938,26.7813 33.0938,26.3906 C33.0938,25.9375 32.7031,25.5469 32.2344,25.5469 C32.0156,25.5469 31.8125,25.625 31.625,25.8125 C31.1719,26.2969 31.1719,26.2969 30.9844,26.3906 C30.5625,26.6563 29.875,26.7813 29.1094,26.7813 C27.0625,26.7813 25.7656,25.6875 25.7656,23.9844 L25.7656,22.8906 C25.7656,21.1094 27.0156,19.7969 28.75,19.7969 C29.3281,19.7969 29.9375,19.9531 30.4063,20.2031 C30.8906,20.4844 31.0625,20.7031 31.1563,21.1094 C31.2188,21.5156 31.25,21.6406 31.3906,21.7656 C31.5313,21.9063 31.7656,22.0156 31.9844,22.0156 C32.25,22.0156 32.5156,21.875 32.6875,21.6563 C32.7969,21.5 32.8281,21.3125 32.8281,20.8906 L32.8281,19.4688 C32.8281,19.0313 32.8125,18.9063 32.7188,18.75 C32.5625,18.4844 32.2813,18.3438 31.9844,18.3438 C31.6875,18.3438 31.4844,18.4375 31.2656,18.75 L31.0938,18.6719 Z " fill="#000000"/><text fill="#000000" font-family="sans-serif" font-size="12" lengthAdjust="spacing" textLength="107" x="44.25" y="27.1543">LugaresController</text><line style="stroke:#A80036;stroke-width:1.5;" x1="8" x2="160" y1="39" y2="39"/><line style="stroke:#A80036;stroke-width:1.5;" x1="8" x2="160" y1="47" y2="47"/><text fill="#000000" font-family="sans-serif" font-size="11" lengthAdjust="spacing" textLength="94" x="13" y="61.2104">+Get GetLugar()</text><text fill="#000000" font-family="sans-serif" font-size="11" lengthAdjust="spacing" textLength="129" x="13" y="74.0151">+Get GetLugarById(id)</text><text fill="#000000" font-family="sans-serif" font-size="11" lengthAdjust="spacing" textLength="98" x="13" y="86.8198">+Post PostLugar()</text><text fill="#000000" font-family="sans-serif" font-size="11" lengthAdjust="spacing" textLength="131" x="13" y="99.6245">+Put PutLugar(id, lugar)</text><text fill="#000000" font-family="sans-serif" font-size="11" lengthAdjust="spacing" textLength="142" x="13" y="112.4292">+Delete DeleteLugar(id)</text><!--MD5=[6129de384f1bcacbc1ea3ec83eb0d64e]
class Lugar--><rect codeLine="41" fill="#FEFECE" filter="url(#f1vsna1s4xi88l)" height="124.8281" id="Lugar" style="stroke:#A80036;stroke-width:1.5;" width="101" x="186.5" y="558"/><ellipse cx="217.7" cy="574" fill="#ADD1B2" rx="11" ry="11" style="stroke:#A80036;stroke-width:1.0;"/><path d="M220.0438,569.6719 C219.1063,569.2344 218.5125,569.0938 217.6375,569.0938 C215.0125,569.0938 213.0125,571.1719 213.0125,573.8906 L213.0125,575.0156 C213.0125,577.5938 215.1219,579.4844 218.0125,579.4844 C219.2313,579.4844 220.3875,579.1875 221.1375,578.6406 C221.7156,578.2344 222.0438,577.7813 222.0438,577.3906 C222.0438,576.9375 221.6531,576.5469 221.1844,576.5469 C220.9656,576.5469 220.7625,576.625 220.575,576.8125 C220.1219,577.2969 220.1219,577.2969 219.9344,577.3906 C219.5125,577.6563 218.825,577.7813 218.0594,577.7813 C216.0125,577.7813 214.7156,576.6875 214.7156,574.9844 L214.7156,573.8906 C214.7156,572.1094 215.9656,570.7969 217.7,570.7969 C218.2781,570.7969 218.8875,570.9531 219.3563,571.2031 C219.8406,571.4844 220.0125,571.7031 220.1063,572.1094 C220.1688,572.5156 220.2,572.6406 220.3406,572.7656 C220.4813,572.9063 220.7156,573.0156 220.9344,573.0156 C221.2,573.0156 221.4656,572.875 221.6375,572.6563 C221.7469,572.5 221.7781,572.3125 221.7781,571.8906 L221.7781,570.4688 C221.7781,570.0313 221.7625,569.9063 221.6688,569.75 C221.5125,569.4844 221.2313,569.3438 220.9344,569.3438 C220.6375,569.3438 220.4344,569.4375 220.2156,569.75 L220.0438,569.6719 Z " fill="#000000"/><text fill="#000000" font-family="sans-serif" font-size="12" lengthAdjust="spacing" textLength="33" x="235.3" y="578.1543">Lugar</text><line style="stroke:#A80036;stroke-width:1.5;" x1="187.5" x2="286.5" y1="590" y2="590"/><text fill="#000000" font-family="sans-serif" font-size="11" lengthAdjust="spacing" textLength="77" x="192.5" y="604.2104">-Int lugarId PK</text><text fill="#000000" font-family="sans-serif" font-size="11" lengthAdjust="spacing" textLength="89" x="192.5" y="617.0151">-Int parqueId FK</text><text fill="#000000" font-family="sans-serif" font-size="11" lengthAdjust="spacing" textLength="66" x="192.5" y="629.8198">-Int numero</text><text fill="#000000" font-family="sans-serif" font-size="11" lengthAdjust="spacing" textLength="58" x="192.5" y="642.6245">-String fila</text><text fill="#000000" font-family="sans-serif" font-size="11" lengthAdjust="spacing" textLength="54" x="192.5" y="655.4292">-Int andar</text><text fill="#000000" font-family="sans-serif" font-size="11" lengthAdjust="spacing" textLength="81" x="192.5" y="668.2339">-Double preco</text><line style="stroke:#A80036;stroke-width:1.5;" x1="187.5" x2="286.5" y1="674.8281" y2="674.8281"/><!--MD5=[0eebc07912bfe174f9973dd50f89fb9e]
class ParquesController--><rect codeLine="50" fill="#FEFECE" filter="url(#f1vsna1s4xi88l)" height="112.0234" id="ParquesController" style="stroke:#A80036;stroke-width:1.5;" width="163" x="610.5" y="7"/><ellipse cx="636.3" cy="23" fill="#ADD1B2" rx="11" ry="11" style="stroke:#A80036;stroke-width:1.0;"/><path d="M638.6438,18.6719 C637.7063,18.2344 637.1125,18.0938 636.2375,18.0938 C633.6125,18.0938 631.6125,20.1719 631.6125,22.8906 L631.6125,24.0156 C631.6125,26.5938 633.7219,28.4844 636.6125,28.4844 C637.8313,28.4844 638.9875,28.1875 639.7375,27.6406 C640.3156,27.2344 640.6438,26.7813 640.6438,26.3906 C640.6438,25.9375 640.2531,25.5469 639.7844,25.5469 C639.5656,25.5469 639.3625,25.625 639.175,25.8125 C638.7219,26.2969 638.7219,26.2969 638.5344,26.3906 C638.1125,26.6563 637.425,26.7813 636.6594,26.7813 C634.6125,26.7813 633.3156,25.6875 633.3156,23.9844 L633.3156,22.8906 C633.3156,21.1094 634.5656,19.7969 636.3,19.7969 C636.8781,19.7969 637.4875,19.9531 637.9563,20.2031 C638.4406,20.4844 638.6125,20.7031 638.7063,21.1094 C638.7688,21.5156 638.8,21.6406 638.9406,21.7656 C639.0813,21.9063 639.3156,22.0156 639.5344,22.0156 C639.8,22.0156 640.0656,21.875 640.2375,21.6563 C640.3469,21.5 640.3781,21.3125 640.3781,20.8906 L640.3781,19.4688 C640.3781,19.0313 640.3625,18.9063 640.2688,18.75 C640.1125,18.4844 639.8313,18.3438 639.5344,18.3438 C639.2375,18.3438 639.0344,18.4375 638.8156,18.75 L638.6438,18.6719 Z " fill="#000000"/><text fill="#000000" font-family="sans-serif" font-size="12" lengthAdjust="spacing" textLength="107" x="652.7" y="27.1543">ParquesController</text><line style="stroke:#A80036;stroke-width:1.5;" x1="611.5" x2="772.5" y1="39" y2="39"/><line style="stroke:#A80036;stroke-width:1.5;" x1="611.5" x2="772.5" y1="47" y2="47"/><text fill="#000000" font-family="sans-serif" font-size="11" lengthAdjust="spacing" textLength="102" x="616.5" y="61.2104">+Get GetParque()</text><text fill="#000000" font-family="sans-serif" font-size="11" lengthAdjust="spacing" textLength="137" x="616.5" y="74.0151">+Get GetParqueById(id)</text><text fill="#000000" font-family="sans-serif" font-size="11" lengthAdjust="spacing" textLength="106" x="616.5" y="86.8198">+Post PostParque()</text><text fill="#000000" font-family="sans-serif" font-size="11" lengthAdjust="spacing" textLength="151" x="616.5" y="99.6245">+Put PutParque(id, parque)</text><text fill="#000000" font-family="sans-serif" font-size="11" lengthAdjust="spacing" textLength="150" x="616.5" y="112.4292">+Delete DeleteParque(id)</text><!--MD5=[1a083dbe42a284ae0ea7f6f701783206]
class Parque--><rect codeLine="58" fill="#FEFECE" filter="url(#f1vsna1s4xi88l)" height="86.4141" id="Parque" style="stroke:#A80036;stroke-width:1.5;" width="115" x="421.5" y="760"/><ellipse cx="455.4" cy="776" fill="#ADD1B2" rx="11" ry="11" style="stroke:#A80036;stroke-width:1.0;"/><path d="M457.7438,771.6719 C456.8063,771.2344 456.2125,771.0938 455.3375,771.0938 C452.7125,771.0938 450.7125,773.1719 450.7125,775.8906 L450.7125,777.0156 C450.7125,779.5938 452.8219,781.4844 455.7125,781.4844 C456.9313,781.4844 458.0875,781.1875 458.8375,780.6406 C459.4156,780.2344 459.7438,779.7813 459.7438,779.3906 C459.7438,778.9375 459.3531,778.5469 458.8844,778.5469 C458.6656,778.5469 458.4625,778.625 458.275,778.8125 C457.8219,779.2969 457.8219,779.2969 457.6344,779.3906 C457.2125,779.6563 456.525,779.7813 455.7594,779.7813 C453.7125,779.7813 452.4156,778.6875 452.4156,776.9844 L452.4156,775.8906 C452.4156,774.1094 453.6656,772.7969 455.4,772.7969 C455.9781,772.7969 456.5875,772.9531 457.0563,773.2031 C457.5406,773.4844 457.7125,773.7031 457.8063,774.1094 C457.8688,774.5156 457.9,774.6406 458.0406,774.7656 C458.1813,774.9063 458.4156,775.0156 458.6344,775.0156 C458.9,775.0156 459.1656,774.875 459.3375,774.6563 C459.4469,774.5 459.4781,774.3125 459.4781,773.8906 L459.4781,772.4688 C459.4781,772.0313 459.4625,771.9063 459.3688,771.75 C459.2125,771.4844 458.9313,771.3438 458.6344,771.3438 C458.3375,771.3438 458.1344,771.4375 457.9156,771.75 L457.7438,771.6719 Z " fill="#000000"/><text fill="#000000" font-family="sans-serif" font-size="12" lengthAdjust="spacing" textLength="41" x="473.6" y="780.1543">Parque</text><line style="stroke:#A80036;stroke-width:1.5;" x1="422.5" x2="535.5" y1="792" y2="792"/><text fill="#000000" font-family="sans-serif" font-size="11" lengthAdjust="spacing" textLength="89" x="427.5" y="806.2104">-Int parqueId PK</text><text fill="#000000" font-family="sans-serif" font-size="11" lengthAdjust="spacing" textLength="59" x="427.5" y="819.0151">-String rua</text><text fill="#000000" font-family="sans-serif" font-size="11" lengthAdjust="spacing" textLength="103" x="427.5" y="831.8198">-Int freguesiaId FK</text><line style="stroke:#A80036;stroke-width:1.5;" x1="422.5" x2="535.5" y1="838.4141" y2="838.4141"/><!--MD5=[1a5d9c6a3e9e309160d2634ac7d42d0e]
class FreguesiasController--><rect codeLine="64" fill="#FEFECE" filter="url(#f1vsna1s4xi88l)" height="112.0234" id="FreguesiasController" style="stroke:#A80036;stroke-width:1.5;" width="194" x="809" y="7"/><ellipse cx="840.2" cy="23" fill="#ADD1B2" rx="11" ry="11" style="stroke:#A80036;stroke-width:1.0;"/><path d="M842.5438,18.6719 C841.6063,18.2344 841.0125,18.0938 840.1375,18.0938 C837.5125,18.0938 835.5125,20.1719 835.5125,22.8906 L835.5125,24.0156 C835.5125,26.5938 837.6219,28.4844 840.5125,28.4844 C841.7313,28.4844 842.8875,28.1875 843.6375,27.6406 C844.2156,27.2344 844.5438,26.7813 844.5438,26.3906 C844.5438,25.9375 844.1531,25.5469 843.6844,25.5469 C843.4656,25.5469 843.2625,25.625 843.075,25.8125 C842.6219,26.2969 842.6219,26.2969 842.4344,26.3906 C842.0125,26.6563 841.325,26.7813 840.5594,26.7813 C838.5125,26.7813 837.2156,25.6875 837.2156,23.9844 L837.2156,22.8906 C837.2156,21.1094 838.4656,19.7969 840.2,19.7969 C840.7781,19.7969 841.3875,19.9531 841.8563,20.2031 C842.3406,20.4844 842.5125,20.7031 842.6063,21.1094 C842.6688,21.5156 842.7,21.6406 842.8406,21.7656 C842.9813,21.9063 843.2156,22.0156 843.4344,22.0156 C843.7,22.0156 843.9656,21.875 844.1375,21.6563 C844.2469,21.5 844.2781,21.3125 844.2781,20.8906 L844.2781,19.4688 C844.2781,19.0313 844.2625,18.9063 844.1688,18.75 C844.0125,18.4844 843.7313,18.3438 843.4344,18.3438 C843.1375,18.3438 842.9344,18.4375 842.7156,18.75 L842.5438,18.6719 Z " fill="#000000"/><text fill="#000000" font-family="sans-serif" font-size="12" lengthAdjust="spacing" textLength="126" x="857.8" y="27.1543">FreguesiasController</text><line style="stroke:#A80036;stroke-width:1.5;" x1="810" x2="1002" y1="39" y2="39"/><line style="stroke:#A80036;stroke-width:1.5;" x1="810" x2="1002" y1="47" y2="47"/><text fill="#000000" font-family="sans-serif" font-size="11" lengthAdjust="spacing" textLength="119" x="815" y="61.2104">+Get GetFreguesia()</text><text fill="#000000" font-family="sans-serif" font-size="11" lengthAdjust="spacing" textLength="154" x="815" y="74.0151">+Get GetFreguesiaById(id)</text><text fill="#000000" font-family="sans-serif" font-size="11" lengthAdjust="spacing" textLength="123" x="815" y="86.8198">+Post PostFreguesia()</text><text fill="#000000" font-family="sans-serif" font-size="11" lengthAdjust="spacing" textLength="182" x="815" y="99.6245">+Put PutFreguesia(id, freguesia)</text><text fill="#000000" font-family="sans-serif" font-size="11" lengthAdjust="spacing" textLength="167" x="815" y="112.4292">+Delete DeleteFreguesia(id)</text><!--MD5=[25ba56bf876b0b5138fdedf7889220de]
class Freguesia--><rect codeLine="72" fill="#FEFECE" filter="url(#f1vsna1s4xi88l)" height="73.6094" id="Freguesia" style="stroke:#A80036;stroke-width:1.5;" width="115" x="532.5" y="923"/><ellipse cx="557.85" cy="939" fill="#ADD1B2" rx="11" ry="11" style="stroke:#A80036;stroke-width:1.0;"/><path d="M560.1938,934.6719 C559.2563,934.2344 558.6625,934.0938 557.7875,934.0938 C555.1625,934.0938 553.1625,936.1719 553.1625,938.8906 L553.1625,940.0156 C553.1625,942.5938 555.2719,944.4844 558.1625,944.4844 C559.3813,944.4844 560.5375,944.1875 561.2875,943.6406 C561.8656,943.2344 562.1938,942.7813 562.1938,942.3906 C562.1938,941.9375 561.8031,941.5469 561.3344,941.5469 C561.1156,941.5469 560.9125,941.625 560.725,941.8125 C560.2719,942.2969 560.2719,942.2969 560.0844,942.3906 C559.6625,942.6563 558.975,942.7813 558.2094,942.7813 C556.1625,942.7813 554.8656,941.6875 554.8656,939.9844 L554.8656,938.8906 C554.8656,937.1094 556.1156,935.7969 557.85,935.7969 C558.4281,935.7969 559.0375,935.9531 559.5063,936.2031 C559.9906,936.4844 560.1625,936.7031 560.2563,937.1094 C560.3188,937.5156 560.35,937.6406 560.4906,937.7656 C560.6313,937.9063 560.8656,938.0156 561.0844,938.0156 C561.35,938.0156 561.6156,937.875 561.7875,937.6563 C561.8969,937.5 561.9281,937.3125 561.9281,936.8906 L561.9281,935.4688 C561.9281,935.0313 561.9125,934.9063 561.8188,934.75 C561.6625,934.4844 561.3813,934.3438 561.0844,934.3438 C560.7875,934.3438 560.5844,934.4375 560.3656,934.75 L560.1938,934.6719 Z " fill="#000000"/><text fill="#000000" font-family="sans-serif" font-size="12" lengthAdjust="spacing" textLength="60" x="574.15" y="943.1543">Freguesia</text><line style="stroke:#A80036;stroke-width:1.5;" x1="533.5" x2="646.5" y1="955" y2="955"/><text fill="#000000" font-family="sans-serif" font-size="11" lengthAdjust="spacing" textLength="103" x="538.5" y="969.2104">-Int freguesiaId PK</text><text fill="#000000" font-family="sans-serif" font-size="11" lengthAdjust="spacing" textLength="74" x="538.5" y="982.0151">-String nome</text><line style="stroke:#A80036;stroke-width:1.5;" x1="533.5" x2="646.5" y1="988.6094" y2="988.6094"/><!--MD5=[6754354365917abf8f1a56af1b7e344c]
class Context--><rect codeLine="77" fill="#FEFECE" filter="url(#f1vsna1s4xi88l)" height="112.0234" id="Context" style="stroke:#A80036;stroke-width:1.5;" width="192" x="362" y="180"/><ellipse cx="430.75" cy="196" fill="#ADD1B2" rx="11" ry="11" style="stroke:#A80036;stroke-width:1.0;"/><path d="M433.0938,191.6719 C432.1563,191.2344 431.5625,191.0938 430.6875,191.0938 C428.0625,191.0938 426.0625,193.1719 426.0625,195.8906 L426.0625,197.0156 C426.0625,199.5938 428.1719,201.4844 431.0625,201.4844 C432.2813,201.4844 433.4375,201.1875 434.1875,200.6406 C434.7656,200.2344 435.0938,199.7813 435.0938,199.3906 C435.0938,198.9375 434.7031,198.5469 434.2344,198.5469 C434.0156,198.5469 433.8125,198.625 433.625,198.8125 C433.1719,199.2969 433.1719,199.2969 432.9844,199.3906 C432.5625,199.6563 431.875,199.7813 431.1094,199.7813 C429.0625,199.7813 427.7656,198.6875 427.7656,196.9844 L427.7656,195.8906 C427.7656,194.1094 429.0156,192.7969 430.75,192.7969 C431.3281,192.7969 431.9375,192.9531 432.4063,193.2031 C432.8906,193.4844 433.0625,193.7031 433.1563,194.1094 C433.2188,194.5156 433.25,194.6406 433.3906,194.7656 C433.5313,194.9063 433.7656,195.0156 433.9844,195.0156 C434.25,195.0156 434.5156,194.875 434.6875,194.6563 C434.7969,194.5 434.8281,194.3125 434.8281,193.8906 L434.8281,192.4688 C434.8281,192.0313 434.8125,191.9063 434.7188,191.75 C434.5625,191.4844 434.2813,191.3438 433.9844,191.3438 C433.6875,191.3438 433.4844,191.4375 433.2656,191.75 L433.0938,191.6719 Z " fill="#000000"/><text fill="#000000" font-family="sans-serif" font-size="12" lengthAdjust="spacing" textLength="46" x="451.25" y="200.1543">Context</text><line style="stroke:#A80036;stroke-width:1.5;" x1="363" x2="553" y1="212" y2="212"/><text fill="#000000" font-family="sans-serif" font-size="11" lengthAdjust="spacing" textLength="150" x="368" y="226.2104">-DbSet&lt;Cliente&gt; Clientes</text><text fill="#000000" font-family="sans-serif" font-size="11" lengthAdjust="spacing" textLength="162" x="368" y="239.0151">-DbSet&lt;Reserva&gt; Reservas</text><text fill="#000000" font-family="sans-serif" font-size="11" lengthAdjust="spacing" textLength="138" x="368" y="251.8198">-DbSet&lt;Lugar&gt; Lugares</text><text fill="#000000" font-family="sans-serif" font-size="11" lengthAdjust="spacing" textLength="146" x="368" y="264.6245">-DbSet&lt;Parque&gt; Parques</text><text fill="#000000" font-family="sans-serif" font-size="11" lengthAdjust="spacing" textLength="180" x="368" y="277.4292">-DbSet&lt;Freguesia&gt; Freguesias</text><line style="stroke:#A80036;stroke-width:1.5;" x1="363" x2="553" y1="284.0234" y2="284.0234"/><!--MD5=[fb04d5da6f9d79f0f79285ab4b4d5c15]
link ClientesController to Cliente--><path codeLine="85" d="M535.824,119.112 C548.901,137.544 562.062,158.812 571,180 C598.891,246.112 613.584,268.744 599,339 C580.389,428.654 572.076,454.851 517,528 C499.537,551.193 475.045,572.19 453.508,588.203 " fill="none" id="ClientesController-to-Cliente" style="stroke:#A80036;stroke-width:1.0;stroke-dasharray:7.0,7.0;"/><polygon fill="#A80036" points="449.243,591.339,458.8637,589.2313,453.2716,588.3775,454.1253,582.7855,449.243,591.339" style="stroke:#A80036;stroke-width:1.0;"/><!--MD5=[d4185c218231faf929f2e53e5b256c3d]
link ClientesController to Context--><path codeLine="86" d="M480.377,119.047 C476.95,136.806 473.133,156.582 469.637,174.7 " fill="none" id="ClientesController-to-Context" style="stroke:#A80036;stroke-width:1.0;stroke-dasharray:7.0,7.0;"/><polygon fill="#A80036" points="468.66,179.763,474.295,171.6854,469.6087,174.8538,466.4403,170.1675,468.66,179.763" style="stroke:#A80036;stroke-width:1.0;"/><!--MD5=[f1d08e710b5be31a4f54b7be44dcfd5f]
link ReservasController to Reserva--><path codeLine="87" d="M271.151,119.068 C255.742,185.104 230.005,295.407 214.073,363.688 " fill="none" id="ReservasController-to-Reserva" style="stroke:#A80036;stroke-width:1.0;stroke-dasharray:7.0,7.0;"/><polygon fill="#A80036" points="212.848,368.938,218.788,361.082,213.9839,364.0687,210.9972,359.2646,212.848,368.938" style="stroke:#A80036;stroke-width:1.0;"/><!--MD5=[4c183a90d865e4921167e44bdbd7527a]
link ReservasController to Context--><path codeLine="88" d="M340.012,119.047 C358.547,137.262 379.24,157.598 398.057,176.091 " fill="none" id="ReservasController-to-Context" style="stroke:#A80036;stroke-width:1.0;stroke-dasharray:7.0,7.0;"/><polygon fill="#A80036" points="401.794,179.763,398.1787,170.6017,398.2279,176.2583,392.5712,176.3075,401.794,179.763" style="stroke:#A80036;stroke-width:1.0;"/><!--MD5=[da1429ffe554da139a9edb6bc6d6323b]
link LugaresController to Lugar--><path codeLine="89" d="M80.5694,119.289 C77.5154,201.406 79.5836,359.014 129,481 C141.337,511.455 162.426,540.813 182.712,564.6 " fill="none" id="LugaresController-to-Lugar" style="stroke:#A80036;stroke-width:1.0;stroke-dasharray:7.0,7.0;"/><polygon fill="#A80036" points="186.223,568.672,183.3748,559.244,182.9578,564.8854,177.3163,564.4683,186.223,568.672" style="stroke:#A80036;stroke-width:1.0;"/><!--MD5=[7f9d9ec3eb946cbea1d6cb8c92db822e]
link LugaresController to Context--><path codeLine="90" d="M161.053,109.725 C167.077,112.956 173.107,116.085 179,119 C236.735,147.563 303.275,175.413 356.89,196.663 " fill="none" id="LugaresController-to-Context" style="stroke:#A80036;stroke-width:1.0;stroke-dasharray:7.0,7.0;"/><polygon fill="#A80036" points="361.708,198.569,354.8092,191.54,357.0583,196.7305,351.8677,198.9795,361.708,198.569" style="stroke:#A80036;stroke-width:1.0;"/><!--MD5=[b25225a33270bdb4508378cc7473fef0]
link ParquesController to Parque--><path codeLine="91" d="M708.701,119.284 C717.3,152.504 726,195.802 726,235 C726,235 726,235 726,621.5 C726,712.656 614.978,762.715 541.8,785.81 " fill="none" id="ParquesController-to-Parque" style="stroke:#A80036;stroke-width:1.0;stroke-dasharray:7.0,7.0;"/><polygon fill="#A80036" points="536.599,787.427,546.3807,788.5748,541.3736,785.9426,544.0057,780.9355,536.599,787.427" style="stroke:#A80036;stroke-width:1.0;"/><!--MD5=[42e6008d20694588b8edd67f6bad3e14]
link ParquesController to Context--><path codeLine="92" d="M616.673,119.047 C591.436,137.489 563.223,158.106 537.665,176.783 " fill="none" id="ParquesController-to-Context" style="stroke:#A80036;stroke-width:1.0;stroke-dasharray:7.0,7.0;"/><polygon fill="#A80036" points="533.587,179.763,543.2137,177.6828,537.6241,176.8131,538.4938,171.2235,533.587,179.763" style="stroke:#A80036;stroke-width:1.0;"/><!--MD5=[8391cd894c1b4f1e68a036f1ae5d0490]
link FreguesiasController to Freguesia--><path codeLine="93" d="M896.234,119.257 C891.157,152.654 886,196.143 886,235 C886,235 886,235 886,804 C886,908.366 739.799,942.594 652.896,953.7206 " fill="none" id="FreguesiasController-to-Freguesia" style="stroke:#A80036;stroke-width:1.0;stroke-dasharray:7.0,7.0;"/><polygon fill="#A80036" points="647.774,954.3584,657.1989,957.2169,652.7358,953.7413,656.2115,949.2781,647.774,954.3584" style="stroke:#A80036;stroke-width:1.0;"/><!--MD5=[1b47d557d33de6518ca30693a022c777]
link FreguesiasController to Context--><path codeLine="94" d="M808.776,111.416 C802.791,114.049 796.832,116.598 791,119 C714.298,150.587 625.502,181.234 558.902,203.087 " fill="none" id="FreguesiasController-to-Context" style="stroke:#A80036;stroke-width:1.0;stroke-dasharray:7.0,7.0;"/><polygon fill="#A80036" points="554.146,204.645,563.9439,205.6459,558.8978,203.0892,561.4545,198.0431,554.146,204.645" style="stroke:#A80036;stroke-width:1.0;"/><!--MD5=[0b7f83bddcea7cf91d21612814682979]
link Context to Cliente--><path codeLine="96" d="M450.494,292.21 C440.249,367.57 422.061,501.359 412.417,572.296 " fill="none" id="Context-to-Cliente" style="stroke:#A80036;stroke-width:1.0;"/><polygon fill="#A80036" points="411.738,577.293,416.9149,568.9144,412.4121,572.3386,408.9879,567.8359,411.738,577.293" style="stroke:#A80036;stroke-width:1.0;"/><text fill="#000000" font-family="sans-serif" font-size="13" lengthAdjust="spacing" textLength="26" x="441" y="429.5669">tem</text><text fill="#000000" font-family="sans-serif" font-size="13" lengthAdjust="spacing" textLength="8" x="441.0917" y="312.0482">1</text><text fill="#000000" font-family="sans-serif" font-size="13" lengthAdjust="spacing" textLength="23" x="387.8557" y="566.5739">0..*</text><!--MD5=[f862fc199df090de7a91527ffbcfeae3]
link Context to Reserva--><path codeLine="97" d="M361.72,268.231 C330.003,281.528 295.982,299.304 269,322 C254.867,333.888 242.416,349.366 232.121,364.658 " fill="none" id="Context-to-Reserva" style="stroke:#A80036;stroke-width:1.0;"/><polygon fill="#A80036" points="229.275,368.963,237.5758,363.6624,232.033,364.7924,230.9029,359.2496,229.275,368.963" style="stroke:#A80036;stroke-width:1.0;"/><text fill="#000000" font-family="sans-serif" font-size="13" lengthAdjust="spacing" textLength="26" x="270" y="335.0669">tem</text><text fill="#000000" font-family="sans-serif" font-size="13" lengthAdjust="spacing" textLength="8" x="346.0423" y="267.1955">1</text><text fill="#000000" font-family="sans-serif" font-size="13" lengthAdjust="spacing" textLength="23" x="208.5524" y="357.8962">0..*</text><!--MD5=[97ad1a2caa718f79461eb8097c17a6fe]
link Context to Lugar--><path codeLine="98" d="M429.194,292.201 C391.596,363.928 327.477,485.063 301,528 C295.841,536.366 290.215,545.008 284.509,553.488 " fill="none" id="Context-to-Lugar" style="stroke:#A80036;stroke-width:1.0;"/><polygon fill="#A80036" points="281.704,557.635,290.0598,552.4215,284.5055,553.4935,283.4334,547.9392,281.704,557.635" style="stroke:#A80036;stroke-width:1.0;"/><text fill="#000000" font-family="sans-serif" font-size="13" lengthAdjust="spacing" textLength="26" x="389" y="429.5669">tem</text><text fill="#000000" font-family="sans-serif" font-size="13" lengthAdjust="spacing" textLength="8" x="417.1958" y="312.0381">1</text><text fill="#000000" font-family="sans-serif" font-size="13" lengthAdjust="spacing" textLength="23" x="262.3357" y="547.0224">0..*</text><!--MD5=[b8a4ba3f14343c93cc8a055f0769f72b]
link Context to Parque--><path codeLine="99" d="M467.742,292.234 C469.302,302.126 470.797,312.353 472,322 C474.594,342.803 475.038,348.058 476,369 C482.44,509.168 481.084,675.123 479.877,754.749 " fill="none" id="Context-to-Parque" style="stroke:#A80036;stroke-width:1.0;"/><polygon fill="#A80036" points="479.797,759.868,483.9379,750.932,479.8756,754.8686,475.9389,750.8063,479.797,759.868" style="stroke:#A80036;stroke-width:1.0;"/><text fill="#000000" font-family="sans-serif" font-size="13" lengthAdjust="spacing" textLength="26" x="482" y="524.0669">tem</text><text fill="#000000" font-family="sans-serif" font-size="13" lengthAdjust="spacing" textLength="8" x="460.4418" y="312.0751">1</text><text fill="#000000" font-family="sans-serif" font-size="13" lengthAdjust="spacing" textLength="23" x="455.0912" y="748.843">0..*</text><!--MD5=[5062c94313ffc0d602cf31c0748ab85f]
link Context to Freguesia--><path codeLine="100" d="M487.645,292.254 C491.982,301.964 495.992,312.126 499,322 C565.421,540.065 583.772,815.215 588.485,917.8978 " fill="none" id="Context-to-Freguesia" style="stroke:#A80036;stroke-width:1.0;"/><polygon fill="#A80036" points="588.712,922.9497,592.3034,913.779,588.4873,917.9548,584.3115,914.1386,588.712,922.9497" style="stroke:#A80036;stroke-width:1.0;"/><text fill="#000000" font-family="sans-serif" font-size="13" lengthAdjust="spacing" textLength="26" x="570" y="625.0669">tem</text><text fill="#000000" font-family="sans-serif" font-size="13" lengthAdjust="spacing" textLength="8" x="482.7705" y="312.0976">1</text><text fill="#000000" font-family="sans-serif" font-size="13" lengthAdjust="spacing" textLength="23" x="563.3542" y="911.8509">0..*</text><!--MD5=[ba72224db1d4c4ddef13248140da60a7]
link Reserva to Cliente--><path codeLine="102" d="M253.05,475.831 C285.813,506.606 327.472,545.737 359.037,575.387 " fill="none" id="Reserva-to-Cliente" style="stroke:#A80036;stroke-width:1.0;"/><polygon fill="#A80036" points="362.835,578.954,359.0133,569.8768,359.1905,575.5309,353.5364,575.7081,362.835,578.954" style="stroke:#A80036;stroke-width:1.0;"/><text fill="#000000" font-family="sans-serif" font-size="13" lengthAdjust="spacing" textLength="26" x="304" y="524.0669">tem</text><text fill="#000000" font-family="sans-serif" font-size="13" lengthAdjust="spacing" textLength="23" x="260.917" y="478.1855">0..*</text><text fill="#000000" font-family="sans-serif" font-size="13" lengthAdjust="spacing" textLength="8" x="347.0233" y="567.8744">1</text><!--MD5=[d75ccf407ddc5af61a41230a97fe5acc]
link Reserva to Lugar--><path codeLine="103" d="M196.153,481.159 C196.127,496.444 197.075,512.964 200,528 C201.599,536.218 203.935,544.632 206.669,552.868 " fill="none" id="Reserva-to-Lugar" style="stroke:#A80036;stroke-width:1.0;"/><polygon fill="#A80036" points="208.42,557.97,209.2801,548.1588,206.7961,553.2411,201.7138,550.757,208.42,557.97" style="stroke:#A80036;stroke-width:1.0;"/><text fill="#000000" font-family="sans-serif" font-size="13" lengthAdjust="spacing" textLength="26" x="201" y="524.0669">tem</text><text fill="#000000" font-family="sans-serif" font-size="13" lengthAdjust="spacing" textLength="23" x="171.2826" y="500.991">0..*</text><text fill="#000000" font-family="sans-serif" font-size="13" lengthAdjust="spacing" textLength="8" x="196.6529" y="546.9573">1</text><!--MD5=[7f383b4f797241af621de99b95919f0f]
link Lugar to Parque--><path codeLine="104" d="M287.731,659.339 C325.709,687.665 377.821,726.534 418.06,756.547 " fill="none" id="Lugar-to-Parque" style="stroke:#A80036;stroke-width:1.0;"/><polygon fill="#A80036" points="422.41,759.791,417.5874,751.2036,418.4021,756.8015,412.8043,757.6162,422.41,759.791" style="stroke:#A80036;stroke-width:1.0;"/><text fill="#000000" font-family="sans-serif" font-size="13" lengthAdjust="spacing" textLength="26" x="381" y="726.0669">tem</text><text fill="#000000" font-family="sans-serif" font-size="13" lengthAdjust="spacing" textLength="23" x="295.3154" y="660.2439">1..*</text><text fill="#000000" font-family="sans-serif" font-size="13" lengthAdjust="spacing" textLength="8" x="405.5108" y="749.3894">1</text><!--MD5=[a4de5ec33b94369bdb098eb7ece038a4]
link Parque to Freguesia--><path codeLine="105" d="M504.698,846.324 C514.17,861.32 525.224,878.149 536,893 C542.202,901.5472 549.139,910.4552 555.922,918.8594 " fill="none" id="Parque-to-Freguesia" style="stroke:#A80036;stroke-width:1.0;"/><polygon fill="#A80036" points="559.235,922.9408,556.6676,913.4325,556.0835,919.0591,550.4569,918.4749,559.235,922.9408" style="stroke:#A80036;stroke-width:1.0;"/><text fill="#000000" font-family="sans-serif" font-size="13" lengthAdjust="spacing" textLength="26" x="537" y="889.0669">tem</text><text fill="#000000" font-family="sans-serif" font-size="13" lengthAdjust="spacing" textLength="23" x="483.9608" y="866.4686">0..*</text><text fill="#000000" font-family="sans-serif" font-size="13" lengthAdjust="spacing" textLength="8" x="544.8252" y="911.8403">1</text><!--MD5=[c430d50316741bd5f355c5132dbc9529]
@startuml
skinparam classAttributeIconSize 0

class ClientesController {
  +Get GetCliente()
  +Get GetClienteById(nif)
  +Post PostCliente()
  +Put PutCliente(nif, cliente)
  +Delete DeleteCliente(nif)
}

class Cliente {
  -Int nif PK
  -String nome
  -String email
}

class ReservasController {
  +Get GetReserva()
  +Get GetReservaById(id)
  +Post PostReserva()
  +Put PutReserva(id, reserva)
  +Delete DeleteReserva(id)
}

class Reserva {
  -Int reservaId PK
  -Int nifCliente FK
  -Int lugarId FK
  -DateTime inicio
  -DateTime fim
}

class LugaresController {
  +Get GetLugar()
  +Get GetLugarById(id)
  +Post PostLugar()
  +Put PutLugar(id, lugar)
  +Delete DeleteLugar(id)
}

class Lugar {
  -Int lugarId PK
  -Int parqueId FK
  -Int numero
  -String fila
  -Int andar
  -Double preco
}

class ParquesController {
  +Get GetParque()
  +Get GetParqueById(id)
  +Post PostParque()
  +Put PutParque(id, parque)
  +Delete DeleteParque(id)
}

class Parque {
  -Int parqueId PK
  -String rua
  -Int freguesiaId FK
}

class FreguesiasController {
  +Get GetFreguesia()
  +Get GetFreguesiaById(id)
  +Post PostFreguesia()
  +Put PutFreguesia(id, freguesia)
  +Delete DeleteFreguesia(id)
}

class Freguesia {
  -Int freguesiaId PK
  -String nome
}

class Context {
  -DbSet<Cliente> Clientes
  -DbSet<Reserva> Reservas
  -DbSet<Lugar> Lugares
  -DbSet<Parque> Parques
  -DbSet<Freguesia> Freguesias
}

ClientesController ..> Cliente
ClientesController ..> Context
ReservasController ..> Reserva
ReservasController ..> Context
LugaresController ..> Lugar
LugaresController ..> Context
ParquesController ..> Parque
ParquesController ..> Context
FreguesiasController ..> Freguesia
FreguesiasController ..> Context

Context "1" - -> "0..*" Cliente: tem
Context "1" - -> "0..*" Reserva: tem
Context "1" - -> "0..*" Lugar: tem
Context "1" - -> "0..*" Parque: tem
Context "1" - -> "0..*" Freguesia: tem

Reserva "0..*" - -> "1" Cliente: tem
Reserva "0..*" - -> "1" Lugar: tem
Lugar "1..*" - -> "1" Parque: tem
Parque "0..*" - -> "1" Freguesia: tem
@enduml

PlantUML version 1.2021.01beta3(Unknown compile time)
(GPL source distribution)
Java Runtime: Java(TM) SE Runtime Environment
JVM: Java HotSpot(TM) 64-Bit Server VM
Default Encoding: UTF-8
Language: en
Country: US
--></g></svg>