<?xml version="1.0" encoding="UTF-8" standalone="no"?><svg xmlns="http://www.w3.org/2000/svg" xmlns:xlink="http://www.w3.org/1999/xlink" contentScriptType="application/ecmascript" contentStyleType="text/css" height="425px" preserveAspectRatio="none" style="width:569px;height:425px;" version="1.1" viewBox="0 0 569 425" width="569px" zoomAndPan="magnify"><defs><filter height="300%" id="f11tww8hdijorx" width="300%" x="-1" y="-1"><feGaussianBlur result="blurOut" stdDeviation="2.0"/><feColorMatrix in="blurOut" result="blurOut2" type="matrix" values="0 0 0 0 0 0 0 0 0 0 0 0 0 0 0 0 0 0 .4 0"/><feOffset dx="4.0" dy="4.0" in="blurOut2" result="blurOut3"/><feBlend in="SourceGraphic" in2="blurOut3" mode="normal"/></filter></defs><g><rect fill="#FFFFFF" filter="url(#f11tww8hdijorx)" height="225.0625" style="stroke:#A80036;stroke-width:1.0;" width="10" x="37" y="98.2969"/><rect fill="#FFFFFF" filter="url(#f11tww8hdijorx)" height="87.3984" style="stroke:#A80036;stroke-width:1.0;" width="10" x="267" y="119.4297"/><rect fill="#FFFFFF" filter="url(#f11tww8hdijorx)" height="87.3984" style="stroke:#A80036;stroke-width:1.0;" width="10" x="267" y="235.9609"/><rect fill="#FFFFFF" filter="url(#f11tww8hdijorx)" height="29.1328" style="stroke:#A80036;stroke-width:1.0;" width="10" x="514" y="148.5625"/><rect fill="#FFFFFF" filter="url(#f11tww8hdijorx)" height="29.1328" style="stroke:#A80036;stroke-width:1.0;" width="10" x="514" y="265.0938"/><line style="stroke:#A80036;stroke-width:1.0;stroke-dasharray:5.0,5.0;" x1="42" x2="42" y1="88.2969" y2="341.3594"/><line style="stroke:#A80036;stroke-width:1.0;stroke-dasharray:5.0,5.0;" x1="272" x2="272" y1="88.2969" y2="341.3594"/><line style="stroke:#A80036;stroke-width:1.0;stroke-dasharray:5.0,5.0;" x1="519" x2="519" y1="88.2969" y2="341.3594"/><text fill="#000000" font-family="sans-serif" font-size="14" lengthAdjust="spacing" textLength="68" x="5" y="84.9951">Utilizador</text><ellipse cx="42" cy="15" fill="#FEFECE" filter="url(#f11tww8hdijorx)" rx="8" ry="8" style="stroke:#A80036;stroke-width:2.0;"/><path d="M42,23 L42,50 M29,31 L55,31 M42,50 L29,65 M42,50 L55,65 " fill="none" filter="url(#f11tww8hdijorx)" style="stroke:#A80036;stroke-width:2.0;"/><text fill="#000000" font-family="sans-serif" font-size="14" lengthAdjust="spacing" textLength="68" x="5" y="353.3545">Utilizador</text><ellipse cx="42" cy="366.6563" fill="#FEFECE" filter="url(#f11tww8hdijorx)" rx="8" ry="8" style="stroke:#A80036;stroke-width:2.0;"/><path d="M42,374.6563 L42,401.6563 M29,382.6563 L55,382.6563 M42,401.6563 L29,416.6563 M42,401.6563 L55,416.6563 " fill="none" filter="url(#f11tww8hdijorx)" style="stroke:#A80036;stroke-width:2.0;"/><rect fill="#FEFECE" filter="url(#f11tww8hdijorx)" height="30.2969" style="stroke:#A80036;stroke-width:1.5;" width="176" x="182" y="53"/><text fill="#000000" font-family="sans-serif" font-size="14" lengthAdjust="spacing" textLength="162" x="189" y="72.9951">:api/ReservaController</text><rect fill="#FEFECE" filter="url(#f11tww8hdijorx)" height="30.2969" style="stroke:#A80036;stroke-width:1.5;" width="176" x="182" y="340.3594"/><text fill="#000000" font-family="sans-serif" font-size="14" lengthAdjust="spacing" textLength="162" x="189" y="360.3545">:api/ReservaController</text><rect fill="#FEFECE" filter="url(#f11tww8hdijorx)" height="30.2969" style="stroke:#A80036;stroke-width:1.5;" width="76" x="479" y="53"/><text fill="#000000" font-family="sans-serif" font-size="14" lengthAdjust="spacing" textLength="62" x="486" y="72.9951">:context</text><rect fill="#FEFECE" filter="url(#f11tww8hdijorx)" height="30.2969" style="stroke:#A80036;stroke-width:1.5;" width="76" x="479" y="340.3594"/><text fill="#000000" font-family="sans-serif" font-size="14" lengthAdjust="spacing" textLength="62" x="486" y="360.3545">:context</text><rect fill="#FFFFFF" filter="url(#f11tww8hdijorx)" height="225.0625" style="stroke:#A80036;stroke-width:1.0;" width="10" x="37" y="98.2969"/><rect fill="#FFFFFF" filter="url(#f11tww8hdijorx)" height="87.3984" style="stroke:#A80036;stroke-width:1.0;" width="10" x="267" y="119.4297"/><rect fill="#FFFFFF" filter="url(#f11tww8hdijorx)" height="87.3984" style="stroke:#A80036;stroke-width:1.0;" width="10" x="267" y="235.9609"/><rect fill="#FFFFFF" filter="url(#f11tww8hdijorx)" height="29.1328" style="stroke:#A80036;stroke-width:1.0;" width="10" x="514" y="148.5625"/><rect fill="#FFFFFF" filter="url(#f11tww8hdijorx)" height="29.1328" style="stroke:#A80036;stroke-width:1.0;" width="10" x="514" y="265.0938"/><polygon fill="#A80036" points="255,115.4297,265,119.4297,255,123.4297,259,119.4297" style="stroke:#A80036;stroke-width:1.0;"/><line style="stroke:#A80036;stroke-width:1.0;stroke-dasharray:2.0,2.0;" x1="47" x2="261" y1="119.4297" y2="119.4297"/><text fill="#000000" font-family="sans-serif" font-size="13" font-weight="bold" lengthAdjust="spacing" textLength="9" x="54" y="114.3638">1</text><text fill="#000000" font-family="sans-serif" font-size="13" lengthAdjust="spacing" textLength="170" x="67" y="114.3638">solicita lugares disponiveis</text><polygon fill="#A80036" points="502,144.5625,512,148.5625,502,152.5625,506,148.5625" style="stroke:#A80036;stroke-width:1.0;"/><line style="stroke:#A80036;stroke-width:1.0;stroke-dasharray:2.0,2.0;" x1="277" x2="508" y1="148.5625" y2="148.5625"/><text fill="#000000" font-family="sans-serif" font-size="13" font-weight="bold" lengthAdjust="spacing" textLength="9" x="284" y="143.4966">2</text><text fill="#000000" font-family="sans-serif" font-size="13" lengthAdjust="spacing" textLength="205" x="297" y="143.4966">findAvaiable(lugarId, Data/Hora)</text><polygon fill="#A80036" points="288,173.6953,278,177.6953,288,181.6953,284,177.6953" style="stroke:#A80036;stroke-width:1.0;"/><line style="stroke:#A80036;stroke-width:1.0;stroke-dasharray:2.0,2.0;" x1="282" x2="518" y1="177.6953" y2="177.6953"/><text fill="#000000" font-family="sans-serif" font-size="13" font-weight="bold" lengthAdjust="spacing" textLength="8" x="294" y="172.6294">3</text><text fill="#000000" font-family="sans-serif" font-size="13" lengthAdjust="spacing" textLength="94" x="306" y="172.6294">returnAvaiable</text><polygon fill="#A80036" points="58,202.8281,48,206.8281,58,210.8281,54,206.8281" style="stroke:#A80036;stroke-width:1.0;"/><line style="stroke:#A80036;stroke-width:1.0;stroke-dasharray:2.0,2.0;" x1="52" x2="271" y1="206.8281" y2="206.8281"/><text fill="#000000" font-family="sans-serif" font-size="13" font-weight="bold" lengthAdjust="spacing" textLength="9" x="64" y="201.7622">4</text><text fill="#000000" font-family="sans-serif" font-size="13" lengthAdjust="spacing" textLength="183" x="77" y="201.7622">Retorna Lugares Disponiveis</text><polygon fill="#A80036" points="255,231.9609,265,235.9609,255,239.9609,259,235.9609" style="stroke:#A80036;stroke-width:1.0;"/><line style="stroke:#A80036;stroke-width:1.0;stroke-dasharray:2.0,2.0;" x1="47" x2="261" y1="235.9609" y2="235.9609"/><text fill="#000000" font-family="sans-serif" font-size="13" font-weight="bold" lengthAdjust="spacing" textLength="9" x="54" y="230.895">5</text><text fill="#000000" font-family="sans-serif" font-size="13" lengthAdjust="spacing" textLength="155" x="67" y="230.895">Escolhe lugar a reservar</text><polygon fill="#A80036" points="502,261.0938,512,265.0938,502,269.0938,506,265.0938" style="stroke:#A80036;stroke-width:1.0;"/><line style="stroke:#A80036;stroke-width:1.0;stroke-dasharray:2.0,2.0;" x1="277" x2="508" y1="265.0938" y2="265.0938"/><text fill="#000000" font-family="sans-serif" font-size="13" font-weight="bold" lengthAdjust="spacing" textLength="9" x="284" y="260.0278">6</text><text fill="#000000" font-family="sans-serif" font-size="13" lengthAdjust="spacing" textLength="88" x="297" y="260.0278">Add(Reserva)</text><polygon fill="#A80036" points="288,290.2266,278,294.2266,288,298.2266,284,294.2266" style="stroke:#A80036;stroke-width:1.0;"/><line style="stroke:#A80036;stroke-width:1.0;stroke-dasharray:2.0,2.0;" x1="282" x2="518" y1="294.2266" y2="294.2266"/><text fill="#000000" font-family="sans-serif" font-size="13" font-weight="bold" lengthAdjust="spacing" textLength="9" x="294" y="289.1606">7</text><text fill="#000000" font-family="sans-serif" font-size="13" lengthAdjust="spacing" textLength="137" x="307" y="289.1606">SaveChangesAsync()</text><polygon fill="#A80036" points="53,319.3594,43,323.3594,53,327.3594,49,323.3594" style="stroke:#A80036;stroke-width:1.0;"/><line style="stroke:#A80036;stroke-width:1.0;stroke-dasharray:2.0,2.0;" x1="47" x2="271" y1="323.3594" y2="323.3594"/><text fill="#000000" font-family="sans-serif" font-size="13" font-weight="bold" lengthAdjust="spacing" textLength="9" x="59" y="318.2935">8</text><text fill="#000000" font-family="sans-serif" font-size="13" lengthAdjust="spacing" textLength="142" x="72" y="318.2935">Criação bem sucedida</text><!--MD5=[428bbc1bc3c91fc25a5a53eb259b4f9e]
@startuml
autonumber
actor "Utilizador" as U
participant ":api/ReservaController" as RC
participant ":context" as C

activate U
U - -> RC: solicita lugares disponiveis

activate RC
RC - -> C : findAvaiable(lugarId, Data/Hora)

activate C
C - -> RC : returnAvaiable

deactivate C
RC - -> U : Retorna Lugares Disponiveis
deactivate RC

U - -> RC: Escolhe lugar a reservar
activate RC


RC - -> C : Add(Reserva)
activate C

C - -> RC : SaveChangesAsync()
deactivate C


RC - -> U : Criação bem sucedida
deactivate RC

deactivate U
@enduml

PlantUML version 1.2021.01(Tue Feb 02 07:55:08 UTC 2021)
(GPL source distribution)
Java Runtime: Java(TM) SE Runtime Environment
JVM: Java HotSpot(TM) 64-Bit Server VM
Default Encoding: UTF-8
Language: en
Country: US
--></g></svg>