<?xml version="1.0" encoding="UTF-8" standalone="no"?><svg xmlns="http://www.w3.org/2000/svg" xmlns:xlink="http://www.w3.org/1999/xlink" contentScriptType="application/ecmascript" contentStyleType="text/css" height="339px" preserveAspectRatio="none" style="width:392px;height:339px;" version="1.1" viewBox="0 0 392 339" width="392px" zoomAndPan="magnify"><defs><filter height="300%" id="f18j5z4bb8nh1v" width="300%" x="-1" y="-1"><feGaussianBlur result="blurOut" stdDeviation="2.0"/><feColorMatrix in="blurOut" result="blurOut2" type="matrix" values="0 0 0 0 0 0 0 0 0 0 0 0 0 0 0 0 0 0 .4 0"/><feOffset dx="4.0" dy="4.0" in="blurOut2" result="blurOut3"/><feBlend in="SourceGraphic" in2="blurOut3" mode="normal"/></filter></defs><g><rect fill="#FFFFFF" filter="url(#f18j5z4bb8nh1v)" height="138.7969" style="stroke:#A80036;stroke-width:1.0;" width="10" x="37" y="98.2969"/><rect fill="#FFFFFF" filter="url(#f18j5z4bb8nh1v)" height="44.2656" style="stroke:#A80036;stroke-width:1.0;" width="10" x="337" y="119.4297"/><rect fill="#FFFFFF" filter="url(#f18j5z4bb8nh1v)" height="44.2656" style="stroke:#A80036;stroke-width:1.0;" width="10" x="337" y="192.8281"/><line style="stroke:#A80036;stroke-width:1.0;stroke-dasharray:5.0,5.0;" x1="42" x2="42" y1="88.2969" y2="255.0938"/><line style="stroke:#A80036;stroke-width:1.0;stroke-dasharray:5.0,5.0;" x1="341.5" x2="341.5" y1="88.2969" y2="255.0938"/><text fill="#000000" font-family="sans-serif" font-size="14" lengthAdjust="spacing" textLength="68" x="5" y="84.9951">Utilizador</text><ellipse cx="42" cy="15" fill="#FEFECE" filter="url(#f18j5z4bb8nh1v)" rx="8" ry="8" style="stroke:#A80036;stroke-width:2.0;"/><path d="M42,23 L42,50 M29,31 L55,31 M42,50 L29,65 M42,50 L55,65 " fill="none" filter="url(#f18j5z4bb8nh1v)" style="stroke:#A80036;stroke-width:2.0;"/><text fill="#000000" font-family="sans-serif" font-size="14" lengthAdjust="spacing" textLength="68" x="5" y="267.0889">Utilizador</text><ellipse cx="42" cy="280.3906" fill="#FEFECE" filter="url(#f18j5z4bb8nh1v)" rx="8" ry="8" style="stroke:#A80036;stroke-width:2.0;"/><path d="M42,288.3906 L42,315.3906 M29,296.3906 L55,296.3906 M42,315.3906 L29,330.3906 M42,315.3906 L55,330.3906 " fill="none" filter="url(#f18j5z4bb8nh1v)" style="stroke:#A80036;stroke-width:2.0;"/><rect fill="#FEFECE" filter="url(#f18j5z4bb8nh1v)" height="30.2969" style="stroke:#A80036;stroke-width:1.5;" width="77" x="301.5" y="53"/><text fill="#000000" font-family="sans-serif" font-size="14" lengthAdjust="spacing" textLength="63" x="308.5" y="72.9951">:Sistema</text><rect fill="#FEFECE" filter="url(#f18j5z4bb8nh1v)" height="30.2969" style="stroke:#A80036;stroke-width:1.5;" width="77" x="301.5" y="254.0938"/><text fill="#000000" font-family="sans-serif" font-size="14" lengthAdjust="spacing" textLength="63" x="308.5" y="274.0889">:Sistema</text><rect fill="#FFFFFF" filter="url(#f18j5z4bb8nh1v)" height="138.7969" style="stroke:#A80036;stroke-width:1.0;" width="10" x="37" y="98.2969"/><rect fill="#FFFFFF" filter="url(#f18j5z4bb8nh1v)" height="44.2656" style="stroke:#A80036;stroke-width:1.0;" width="10" x="337" y="119.4297"/><rect fill="#FFFFFF" filter="url(#f18j5z4bb8nh1v)" height="44.2656" style="stroke:#A80036;stroke-width:1.0;" width="10" x="337" y="192.8281"/><polygon fill="#A80036" points="325,115.4297,335,119.4297,325,123.4297,329,119.4297" style="stroke:#A80036;stroke-width:1.0;"/><line style="stroke:#A80036;stroke-width:1.0;" x1="47" x2="331" y1="119.4297" y2="119.4297"/><text fill="#000000" font-family="sans-serif" font-size="13" font-weight="bold" lengthAdjust="spacing" textLength="9" x="54" y="114.3638">1</text><text fill="#000000" font-family="sans-serif" font-size="13" lengthAdjust="spacing" textLength="111" x="67" y="114.3638">Efetua a Reserva</text><polygon fill="#A80036" points="58,159.6953,48,163.6953,58,167.6953,54,163.6953" style="stroke:#A80036;stroke-width:1.0;"/><line style="stroke:#A80036;stroke-width:1.0;stroke-dasharray:2.0,2.0;" x1="52" x2="341" y1="163.6953" y2="163.6953"/><text fill="#000000" font-family="sans-serif" font-size="13" font-weight="bold" lengthAdjust="spacing" textLength="9" x="64" y="151.063">2</text><text fill="#000000" font-family="sans-serif" font-size="13" lengthAdjust="spacing" textLength="160" x="77" y="143.4966">solicita dados da reserva</text><text fill="#000000" font-family="sans-serif" font-size="13" lengthAdjust="spacing" textLength="207" x="77" y="158.6294">(lugar, parque, janela de tempo)</text><polygon fill="#A80036" points="325,188.8281,335,192.8281,325,196.8281,329,192.8281" style="stroke:#A80036;stroke-width:1.0;"/><line style="stroke:#A80036;stroke-width:1.0;" x1="47" x2="331" y1="192.8281" y2="192.8281"/><text fill="#000000" font-family="sans-serif" font-size="13" font-weight="bold" lengthAdjust="spacing" textLength="8" x="54" y="187.7622">3</text><text fill="#000000" font-family="sans-serif" font-size="13" lengthAdjust="spacing" textLength="185" x="66" y="187.7622">introduz os dados solicitados</text><polygon fill="#A80036" points="53,233.0938,43,237.0938,53,241.0938,49,237.0938" style="stroke:#A80036;stroke-width:1.0;"/><line style="stroke:#A80036;stroke-width:1.0;stroke-dasharray:2.0,2.0;" x1="47" x2="341" y1="237.0938" y2="237.0938"/><text fill="#000000" font-family="sans-serif" font-size="13" font-weight="bold" lengthAdjust="spacing" textLength="9" x="59" y="224.4614">4</text><text fill="#000000" font-family="sans-serif" font-size="13" lengthAdjust="spacing" textLength="154" x="72" y="216.895">operação bem sucedida</text><text fill="#000000" font-family="sans-serif" font-size="13" lengthAdjust="spacing" textLength="253" x="72" y="232.0278">sistema confirma o sucesso da mesma</text><!--MD5=[47ce1515c479b7dbd0166df4c9c1bb24]
@startuml
autonumber
actor "Utilizador" as U

activate U
U -> ":Sistema" : Efetua a Reserva
activate ":Sistema"
":Sistema" - -> U : solicita dados da reserva \n(lugar, parque, janela de tempo)
deactivate ":Sistema"

U -> ":Sistema" : introduz os dados solicitados
activate ":Sistema"

":Sistema" - -> U : operação bem sucedida \nsistema confirma o sucesso da mesma
deactivate ":Sistema"

deactivate U
@enduml

PlantUML version 1.2021.01(Tue Feb 02 07:55:08 UTC 2021)
(GPL source distribution)
Java Runtime: Java(TM) SE Runtime Environment
JVM: Java HotSpot(TM) 64-Bit Server VM
Default Encoding: UTF-8
Language: en
Country: US
--></g></svg>