<?xml version="1.0" encoding="UTF-8" standalone="no"?><svg xmlns="http://www.w3.org/2000/svg" xmlns:xlink="http://www.w3.org/1999/xlink" contentScriptType="application/ecmascript" contentStyleType="text/css" height="396px" preserveAspectRatio="none" style="width:738px;height:396px;" version="1.1" viewBox="0 0 738 396" width="738px" zoomAndPan="magnify"><defs><filter height="300%" id="f5bf9882bpb1s" width="300%" x="-1" y="-1"><feGaussianBlur result="blurOut" stdDeviation="2.0"/><feColorMatrix in="blurOut" result="blurOut2" type="matrix" values="0 0 0 0 0 0 0 0 0 0 0 0 0 0 0 0 0 0 .4 0"/><feOffset dx="4.0" dy="4.0" in="blurOut2" result="blurOut3"/><feBlend in="SourceGraphic" in2="blurOut3" mode="normal"/></filter></defs><g><rect fill="#FFFFFF" filter="url(#f5bf9882bpb1s)" height="195.9297" style="stroke:#A80036;stroke-width:1.0;" width="10" x="60.5" y="98.2969"/><rect fill="#FFFFFF" filter="url(#f5bf9882bpb1s)" height="174.7969" style="stroke:#A80036;stroke-width:1.0;" width="10" x="389.5" y="119.4297"/><rect fill="#FFFFFF" filter="url(#f5bf9882bpb1s)" height="29.1328" style="stroke:#A80036;stroke-width:1.0;" width="10" x="542.5" y="177.6953"/><rect fill="#FFFFFF" filter="url(#f5bf9882bpb1s)" height="29.1328" style="stroke:#A80036;stroke-width:1.0;" width="10" x="683.5" y="148.5625"/><rect fill="#FFFFFF" filter="url(#f5bf9882bpb1s)" height="29.1328" style="stroke:#A80036;stroke-width:1.0;" width="10" x="683.5" y="235.9609"/><line style="stroke:#A80036;stroke-width:1.0;stroke-dasharray:5.0,5.0;" x1="65" x2="65" y1="88.2969" y2="312.2266"/><line style="stroke:#A80036;stroke-width:1.0;stroke-dasharray:5.0,5.0;" x1="394" x2="394" y1="88.2969" y2="312.2266"/><line style="stroke:#A80036;stroke-width:1.0;stroke-dasharray:5.0,5.0;" x1="547" x2="547" y1="88.2969" y2="312.2266"/><line style="stroke:#A80036;stroke-width:1.0;stroke-dasharray:5.0,5.0;" x1="688.5" x2="688.5" y1="88.2969" y2="312.2266"/><text fill="#000000" font-family="sans-serif" font-size="14" lengthAdjust="spacing" textLength="115" x="5" y="84.9951">Sistema Central</text><ellipse cx="65.5" cy="15" fill="#FEFECE" filter="url(#f5bf9882bpb1s)" rx="8" ry="8" style="stroke:#A80036;stroke-width:2.0;"/><path d="M65.5,23 L65.5,50 M52.5,31 L78.5,31 M65.5,50 L52.5,65 M65.5,50 L78.5,65 " fill="none" filter="url(#f5bf9882bpb1s)" style="stroke:#A80036;stroke-width:2.0;"/><text fill="#000000" font-family="sans-serif" font-size="14" lengthAdjust="spacing" textLength="115" x="5" y="324.2217">Sistema Central</text><ellipse cx="65.5" cy="337.5234" fill="#FEFECE" filter="url(#f5bf9882bpb1s)" rx="8" ry="8" style="stroke:#A80036;stroke-width:2.0;"/><path d="M65.5,345.5234 L65.5,372.5234 M52.5,353.5234 L78.5,353.5234 M65.5,372.5234 L52.5,387.5234 M65.5,372.5234 L78.5,387.5234 " fill="none" filter="url(#f5bf9882bpb1s)" style="stroke:#A80036;stroke-width:2.0;"/><rect fill="#FEFECE" filter="url(#f5bf9882bpb1s)" height="30.2969" style="stroke:#A80036;stroke-width:1.5;" width="179" x="303" y="53"/><text fill="#000000" font-family="sans-serif" font-size="14" lengthAdjust="spacing" textLength="165" x="310" y="72.9951">:api/reservasController</text><rect fill="#FEFECE" filter="url(#f5bf9882bpb1s)" height="30.2969" style="stroke:#A80036;stroke-width:1.5;" width="179" x="303" y="311.2266"/><text fill="#000000" font-family="sans-serif" font-size="14" lengthAdjust="spacing" textLength="165" x="310" y="331.2217">:api/reservasController</text><rect fill="#FEFECE" filter="url(#f5bf9882bpb1s)" height="30.2969" style="stroke:#A80036;stroke-width:1.5;" width="99" x="496" y="53"/><text fill="#000000" font-family="sans-serif" font-size="14" lengthAdjust="spacing" textLength="85" x="503" y="72.9951">:api/reserva</text><rect fill="#FEFECE" filter="url(#f5bf9882bpb1s)" height="30.2969" style="stroke:#A80036;stroke-width:1.5;" width="99" x="496" y="311.2266"/><text fill="#000000" font-family="sans-serif" font-size="14" lengthAdjust="spacing" textLength="85" x="503" y="331.2217">:api/reserva</text><rect fill="#FEFECE" filter="url(#f5bf9882bpb1s)" height="30.2969" style="stroke:#A80036;stroke-width:1.5;" width="76" x="648.5" y="53"/><text fill="#000000" font-family="sans-serif" font-size="14" lengthAdjust="spacing" textLength="62" x="655.5" y="72.9951">:context</text><rect fill="#FEFECE" filter="url(#f5bf9882bpb1s)" height="30.2969" style="stroke:#A80036;stroke-width:1.5;" width="76" x="648.5" y="311.2266"/><text fill="#000000" font-family="sans-serif" font-size="14" lengthAdjust="spacing" textLength="62" x="655.5" y="331.2217">:context</text><rect fill="#FFFFFF" filter="url(#f5bf9882bpb1s)" height="195.9297" style="stroke:#A80036;stroke-width:1.0;" width="10" x="60.5" y="98.2969"/><rect fill="#FFFFFF" filter="url(#f5bf9882bpb1s)" height="174.7969" style="stroke:#A80036;stroke-width:1.0;" width="10" x="389.5" y="119.4297"/><rect fill="#FFFFFF" filter="url(#f5bf9882bpb1s)" height="29.1328" style="stroke:#A80036;stroke-width:1.0;" width="10" x="542.5" y="177.6953"/><rect fill="#FFFFFF" filter="url(#f5bf9882bpb1s)" height="29.1328" style="stroke:#A80036;stroke-width:1.0;" width="10" x="683.5" y="148.5625"/><rect fill="#FFFFFF" filter="url(#f5bf9882bpb1s)" height="29.1328" style="stroke:#A80036;stroke-width:1.0;" width="10" x="683.5" y="235.9609"/><polygon fill="#A80036" points="377.5,115.4297,387.5,119.4297,377.5,123.4297,381.5,119.4297" style="stroke:#A80036;stroke-width:1.0;"/><line style="stroke:#A80036;stroke-width:1.0;stroke-dasharray:2.0,2.0;" x1="70.5" x2="383.5" y1="119.4297" y2="119.4297"/><text fill="#000000" font-family="sans-serif" font-size="13" font-weight="bold" lengthAdjust="spacing" textLength="9" x="77.5" y="114.3638">1</text><text fill="#000000" font-family="sans-serif" font-size="13" lengthAdjust="spacing" textLength="287" x="90.5" y="114.3638">pede para editar uma reserva(id, reservaAlt)</text><polygon fill="#A80036" points="671.5,144.5625,681.5,148.5625,671.5,152.5625,675.5,148.5625" style="stroke:#A80036;stroke-width:1.0;"/><line style="stroke:#A80036;stroke-width:1.0;stroke-dasharray:2.0,2.0;" x1="399.5" x2="677.5" y1="148.5625" y2="148.5625"/><text fill="#000000" font-family="sans-serif" font-size="13" font-weight="bold" lengthAdjust="spacing" textLength="9" x="406.5" y="143.4966">2</text><text fill="#000000" font-family="sans-serif" font-size="13" lengthAdjust="spacing" textLength="84" x="419.5" y="143.4966">findAsync(id)</text><polygon fill="#A80036" points="563.5,173.6953,553.5,177.6953,563.5,181.6953,559.5,177.6953" style="stroke:#A80036;stroke-width:1.0;"/><line style="stroke:#A80036;stroke-width:1.0;stroke-dasharray:2.0,2.0;" x1="557.5" x2="687.5" y1="177.6953" y2="177.6953"/><text fill="#000000" font-family="sans-serif" font-size="13" font-weight="bold" lengthAdjust="spacing" textLength="8" x="569.5" y="172.6294">3</text><text fill="#000000" font-family="sans-serif" font-size="13" lengthAdjust="spacing" textLength="100" x="581.5" y="172.6294">retorna reserva</text><polygon fill="#A80036" points="410.5,202.8281,400.5,206.8281,410.5,210.8281,406.5,206.8281" style="stroke:#A80036;stroke-width:1.0;"/><line style="stroke:#A80036;stroke-width:1.0;stroke-dasharray:2.0,2.0;" x1="404.5" x2="546.5" y1="206.8281" y2="206.8281"/><text fill="#000000" font-family="sans-serif" font-size="13" font-weight="bold" lengthAdjust="spacing" textLength="9" x="416.5" y="201.7622">4</text><text fill="#000000" font-family="sans-serif" font-size="13" lengthAdjust="spacing" textLength="97" x="429.5" y="201.7622">recebe reserva</text><polygon fill="#A80036" points="671.5,231.9609,681.5,235.9609,671.5,239.9609,675.5,235.9609" style="stroke:#A80036;stroke-width:1.0;"/><line style="stroke:#A80036;stroke-width:1.0;stroke-dasharray:2.0,2.0;" x1="399.5" x2="677.5" y1="235.9609" y2="235.9609"/><text fill="#000000" font-family="sans-serif" font-size="13" font-weight="bold" lengthAdjust="spacing" textLength="9" x="406.5" y="230.895">5</text><text fill="#000000" font-family="sans-serif" font-size="13" lengthAdjust="spacing" textLength="157" x="419.5" y="230.895">edit(reserva, reservaAlt)</text><polygon fill="#A80036" points="410.5,261.0938,400.5,265.0938,410.5,269.0938,406.5,265.0938" style="stroke:#A80036;stroke-width:1.0;"/><line style="stroke:#A80036;stroke-width:1.0;stroke-dasharray:2.0,2.0;" x1="404.5" x2="687.5" y1="265.0938" y2="265.0938"/><text fill="#000000" font-family="sans-serif" font-size="13" font-weight="bold" lengthAdjust="spacing" textLength="9" x="416.5" y="260.0278">6</text><text fill="#000000" font-family="sans-serif" font-size="13" lengthAdjust="spacing" textLength="136" x="429.5" y="260.0278">saveChangesAsync()</text><polygon fill="#A80036" points="76.5,290.2266,66.5,294.2266,76.5,298.2266,72.5,294.2266" style="stroke:#A80036;stroke-width:1.0;"/><line style="stroke:#A80036;stroke-width:1.0;stroke-dasharray:2.0,2.0;" x1="70.5" x2="393.5" y1="294.2266" y2="294.2266"/><text fill="#000000" font-family="sans-serif" font-size="13" font-weight="bold" lengthAdjust="spacing" textLength="9" x="82.5" y="289.1606">7</text><text fill="#000000" font-family="sans-serif" font-size="13" lengthAdjust="spacing" textLength="236" x="95.5" y="289.1606">NoContent() operação bem sucedida</text><!--MD5=[284810ee6ba617d237b6da8fd7c90a8a]
@startuml
autonumber
actor "Sistema Central" as SC
participant ":api/reservasController" as RC
participant ":api/reserva" as R
participant ":context" as C

activate SC
SC - -> RC : pede para editar uma reserva(id, reservaAlt)
activate RC

RC - -> C : findAsync(id)
activate C


C - -> R : retorna reserva
deactivate C
activate R


R - -> RC : recebe reserva
deactivate R

RC - -> C : edit(reserva, reservaAlt)
activate C

C - -> RC : saveChangesAsync()
deactivate C

RC - -> SC: NoContent() operação bem sucedida
deactivate RC
deactivate SC
@enduml

PlantUML version 1.2021.01beta3(Unknown compile time)
(GPL source distribution)
Java Runtime: Java(TM) SE Runtime Environment
JVM: Java HotSpot(TM) 64-Bit Server VM
Default Encoding: UTF-8
Language: en
Country: US
--></g></svg>