<?xml version="1.0" encoding="UTF-8" standalone="no"?><svg xmlns="http://www.w3.org/2000/svg" xmlns:xlink="http://www.w3.org/1999/xlink" contentScriptType="application/ecmascript" contentStyleType="text/css" height="324px" preserveAspectRatio="none" style="width:306px;height:324px;" version="1.1" viewBox="0 0 306 324" width="306px" zoomAndPan="magnify"><defs><filter height="300%" id="f1lyez3frgxkfy" width="300%" x="-1" y="-1"><feGaussianBlur result="blurOut" stdDeviation="2.0"/><feColorMatrix in="blurOut" result="blurOut2" type="matrix" values="0 0 0 0 0 0 0 0 0 0 0 0 0 0 0 0 0 0 .4 0"/><feOffset dx="4.0" dy="4.0" in="blurOut2" result="blurOut3"/><feBlend in="SourceGraphic" in2="blurOut3" mode="normal"/></filter></defs><g><rect fill="#FFFFFF" filter="url(#f1lyez3frgxkfy)" height="123.6641" style="stroke:#A80036;stroke-width:1.0;" width="10" x="29" y="98.2969"/><rect fill="#FFFFFF" filter="url(#f1lyez3frgxkfy)" height="44.2656" style="stroke:#A80036;stroke-width:1.0;" width="10" x="256" y="119.4297"/><rect fill="#FFFFFF" filter="url(#f1lyez3frgxkfy)" height="29.1328" style="stroke:#A80036;stroke-width:1.0;" width="10" x="256" y="192.8281"/><line style="stroke:#A80036;stroke-width:1.0;stroke-dasharray:5.0,5.0;" x1="34" x2="34" y1="88.2969" y2="239.9609"/><line style="stroke:#A80036;stroke-width:1.0;stroke-dasharray:5.0,5.0;" x1="261" x2="261" y1="88.2969" y2="239.9609"/><text fill="#000000" font-family="sans-serif" font-size="14" lengthAdjust="spacing" textLength="52" x="5" y="84.9951">Cliente</text><ellipse cx="34" cy="15" fill="#FEFECE" filter="url(#f1lyez3frgxkfy)" rx="8" ry="8" style="stroke:#A80036;stroke-width:2.0;"/><path d="M34,23 L34,50 M21,31 L47,31 M34,50 L21,65 M34,50 L47,65 " fill="none" filter="url(#f1lyez3frgxkfy)" style="stroke:#A80036;stroke-width:2.0;"/><text fill="#000000" font-family="sans-serif" font-size="14" lengthAdjust="spacing" textLength="52" x="5" y="251.9561">Cliente</text><ellipse cx="34" cy="265.2578" fill="#FEFECE" filter="url(#f1lyez3frgxkfy)" rx="8" ry="8" style="stroke:#A80036;stroke-width:2.0;"/><path d="M34,273.2578 L34,300.2578 M21,281.2578 L47,281.2578 M34,300.2578 L21,315.2578 M34,300.2578 L47,315.2578 " fill="none" filter="url(#f1lyez3frgxkfy)" style="stroke:#A80036;stroke-width:2.0;"/><text fill="#000000" font-family="sans-serif" font-size="14" lengthAdjust="spacing" textLength="82" x="217" y="84.9951">:API.Parque</text><ellipse cx="261" cy="15" fill="#FEFECE" filter="url(#f1lyez3frgxkfy)" rx="8" ry="8" style="stroke:#A80036;stroke-width:2.0;"/><path d="M261,23 L261,50 M248,31 L274,31 M261,50 L248,65 M261,50 L274,65 " fill="none" filter="url(#f1lyez3frgxkfy)" style="stroke:#A80036;stroke-width:2.0;"/><text fill="#000000" font-family="sans-serif" font-size="14" lengthAdjust="spacing" textLength="82" x="217" y="251.9561">:API.Parque</text><ellipse cx="261" cy="265.2578" fill="#FEFECE" filter="url(#f1lyez3frgxkfy)" rx="8" ry="8" style="stroke:#A80036;stroke-width:2.0;"/><path d="M261,273.2578 L261,300.2578 M248,281.2578 L274,281.2578 M261,300.2578 L248,315.2578 M261,300.2578 L274,315.2578 " fill="none" filter="url(#f1lyez3frgxkfy)" style="stroke:#A80036;stroke-width:2.0;"/><rect fill="#FFFFFF" filter="url(#f1lyez3frgxkfy)" height="123.6641" style="stroke:#A80036;stroke-width:1.0;" width="10" x="29" y="98.2969"/><rect fill="#FFFFFF" filter="url(#f1lyez3frgxkfy)" height="44.2656" style="stroke:#A80036;stroke-width:1.0;" width="10" x="256" y="119.4297"/><rect fill="#FFFFFF" filter="url(#f1lyez3frgxkfy)" height="29.1328" style="stroke:#A80036;stroke-width:1.0;" width="10" x="256" y="192.8281"/><polygon fill="#A80036" points="244,115.4297,254,119.4297,244,123.4297,248,119.4297" style="stroke:#A80036;stroke-width:1.0;"/><line style="stroke:#A80036;stroke-width:1.0;" x1="39" x2="250" y1="119.4297" y2="119.4297"/><text fill="#000000" font-family="sans-serif" font-size="13" font-weight="bold" lengthAdjust="spacing" textLength="9" x="46" y="114.3638">1</text><text fill="#000000" font-family="sans-serif" font-size="13" lengthAdjust="spacing" textLength="169" x="59" y="114.3638">inicia alteracao de reserva</text><polygon fill="#A80036" points="50,159.6953,40,163.6953,50,167.6953,46,163.6953" style="stroke:#A80036;stroke-width:1.0;"/><line style="stroke:#A80036;stroke-width:1.0;stroke-dasharray:2.0,2.0;" x1="44" x2="260" y1="163.6953" y2="163.6953"/><text fill="#000000" font-family="sans-serif" font-size="13" font-weight="bold" lengthAdjust="spacing" textLength="9" x="56" y="151.063">2</text><text fill="#000000" font-family="sans-serif" font-size="13" lengthAdjust="spacing" textLength="176" x="69" y="143.4966">solicita dados novos cliente</text><text fill="#000000" font-family="sans-serif" font-size="13" lengthAdjust="spacing" textLength="146" x="69" y="158.6294">(nif, lugarId, inicio, fim)</text><polygon fill="#A80036" points="244,188.8281,254,192.8281,244,196.8281,248,192.8281" style="stroke:#A80036;stroke-width:1.0;"/><line style="stroke:#A80036;stroke-width:1.0;" x1="39" x2="250" y1="192.8281" y2="192.8281"/><text fill="#000000" font-family="sans-serif" font-size="13" font-weight="bold" lengthAdjust="spacing" textLength="8" x="46" y="187.7622">3</text><text fill="#000000" font-family="sans-serif" font-size="13" lengthAdjust="spacing" textLength="185" x="58" y="187.7622">introduz os dados solicitados</text><polygon fill="#A80036" points="45,217.9609,35,221.9609,45,225.9609,41,221.9609" style="stroke:#A80036;stroke-width:1.0;"/><line style="stroke:#A80036;stroke-width:1.0;stroke-dasharray:2.0,2.0;" x1="39" x2="260" y1="221.9609" y2="221.9609"/><text fill="#000000" font-family="sans-serif" font-size="13" font-weight="bold" lengthAdjust="spacing" textLength="9" x="51" y="216.895">4</text><text fill="#000000" font-family="sans-serif" font-size="13" lengthAdjust="spacing" textLength="154" x="64" y="216.895">operação bem sucedida</text><!--MD5=[db55047a28e2fde90df58f581736b1b0]
@startuml
autonumber
actor "Cliente" as UserNR
actor ":API.Parque" as API

activate UserNR
UserNR -> "API" : inicia alteracao de reserva
activate "API"
"API" - -> UserNR : solicita dados novos cliente \n(nif, lugarId, inicio, fim)
deactivate "API"

UserNR -> "API" : introduz os dados solicitados
activate "API"

"API" - -> UserNR : operação bem sucedida
deactivate "API"

deactivate UserNR
@enduml

PlantUML version 1.2021.01beta3(Unknown compile time)
(GPL source distribution)
Java Runtime: Java(TM) SE Runtime Environment
JVM: Java HotSpot(TM) 64-Bit Server VM
Default Encoding: UTF-8
Language: en
Country: US
--></g></svg>