<?xml version="1.0" encoding="UTF-8" standalone="no"?><svg xmlns="http://www.w3.org/2000/svg" xmlns:xlink="http://www.w3.org/1999/xlink" contentScriptType="application/ecmascript" contentStyleType="text/css" height="654px" preserveAspectRatio="none" style="width:391px;height:654px;" version="1.1" viewBox="0 0 391 654" width="391px" zoomAndPan="magnify"><defs><filter height="300%" id="f18fnybjugmnx4" width="300%" x="-1" y="-1"><feGaussianBlur result="blurOut" stdDeviation="2.0"/><feColorMatrix in="blurOut" result="blurOut2" type="matrix" values="0 0 0 0 0 0 0 0 0 0 0 0 0 0 0 0 0 0 .4 0"/><feOffset dx="4.0" dy="4.0" in="blurOut2" result="blurOut3"/><feBlend in="SourceGraphic" in2="blurOut3" mode="normal"/></filter></defs><g><!--MD5=[884d341d7584b75b159fb4abcbb8e424]
class ReservasController--><rect codeLine="3" fill="#FEFECE" filter="url(#f18fnybjugmnx4)" height="99.2188" id="ReservasController" style="stroke:#A80036;stroke-width:1.5;" width="214" x="7" y="7"/><ellipse cx="52.25" cy="23" fill="#ADD1B2" rx="11" ry="11" style="stroke:#A80036;stroke-width:1.0;"/><path d="M54.5938,18.6719 C53.6563,18.2344 53.0625,18.0938 52.1875,18.0938 C49.5625,18.0938 47.5625,20.1719 47.5625,22.8906 L47.5625,24.0156 C47.5625,26.5938 49.6719,28.4844 52.5625,28.4844 C53.7813,28.4844 54.9375,28.1875 55.6875,27.6406 C56.2656,27.2344 56.5938,26.7813 56.5938,26.3906 C56.5938,25.9375 56.2031,25.5469 55.7344,25.5469 C55.5156,25.5469 55.3125,25.625 55.125,25.8125 C54.6719,26.2969 54.6719,26.2969 54.4844,26.3906 C54.0625,26.6563 53.375,26.7813 52.6094,26.7813 C50.5625,26.7813 49.2656,25.6875 49.2656,23.9844 L49.2656,22.8906 C49.2656,21.1094 50.5156,19.7969 52.25,19.7969 C52.8281,19.7969 53.4375,19.9531 53.9063,20.2031 C54.3906,20.4844 54.5625,20.7031 54.6563,21.1094 C54.7188,21.5156 54.75,21.6406 54.8906,21.7656 C55.0313,21.9063 55.2656,22.0156 55.4844,22.0156 C55.75,22.0156 56.0156,21.875 56.1875,21.6563 C56.2969,21.5 56.3281,21.3125 56.3281,20.8906 L56.3281,19.4688 C56.3281,19.0313 56.3125,18.9063 56.2188,18.75 C56.0625,18.4844 55.7813,18.3438 55.4844,18.3438 C55.1875,18.3438 54.9844,18.4375 54.7656,18.75 L54.5938,18.6719 Z " fill="#000000"/><text fill="#000000" font-family="sans-serif" font-size="12" lengthAdjust="spacing" textLength="115" x="72.75" y="27.1543">ReservasController</text><line style="stroke:#A80036;stroke-width:1.5;" x1="8" x2="220" y1="39" y2="39"/><line style="stroke:#A80036;stroke-width:1.5;" x1="8" x2="220" y1="47" y2="47"/><text fill="#000000" font-family="sans-serif" font-size="11" lengthAdjust="spacing" textLength="130" x="13" y="61.2104">+Get GetAllReservas()</text><text fill="#000000" font-family="sans-serif" font-size="11" lengthAdjust="spacing" textLength="158" x="13" y="74.0151">+Post PostReserva(reserva)</text><text fill="#000000" font-family="sans-serif" font-size="11" lengthAdjust="spacing" textLength="202" x="13" y="86.8198">+Delete DeleteReserva(reservaId)</text><text fill="#000000" font-family="sans-serif" font-size="11" lengthAdjust="spacing" textLength="99" x="13" y="99.6245">+Put Put(reserva)</text><!--MD5=[6ea9d6598d9760662639554c9857ab6b]
class Reserva--><rect codeLine="10" fill="#FEFECE" filter="url(#f18fnybjugmnx4)" height="112.0234" id="Reserva" style="stroke:#A80036;stroke-width:1.5;" width="105" x="169.5" y="330"/><ellipse cx="195.3" cy="346" fill="#ADD1B2" rx="11" ry="11" style="stroke:#A80036;stroke-width:1.0;"/><path d="M197.6438,341.6719 C196.7063,341.2344 196.1125,341.0938 195.2375,341.0938 C192.6125,341.0938 190.6125,343.1719 190.6125,345.8906 L190.6125,347.0156 C190.6125,349.5938 192.7219,351.4844 195.6125,351.4844 C196.8313,351.4844 197.9875,351.1875 198.7375,350.6406 C199.3156,350.2344 199.6438,349.7813 199.6438,349.3906 C199.6438,348.9375 199.2531,348.5469 198.7844,348.5469 C198.5656,348.5469 198.3625,348.625 198.175,348.8125 C197.7219,349.2969 197.7219,349.2969 197.5344,349.3906 C197.1125,349.6563 196.425,349.7813 195.6594,349.7813 C193.6125,349.7813 192.3156,348.6875 192.3156,346.9844 L192.3156,345.8906 C192.3156,344.1094 193.5656,342.7969 195.3,342.7969 C195.8781,342.7969 196.4875,342.9531 196.9563,343.2031 C197.4406,343.4844 197.6125,343.7031 197.7063,344.1094 C197.7688,344.5156 197.8,344.6406 197.9406,344.7656 C198.0813,344.9063 198.3156,345.0156 198.5344,345.0156 C198.8,345.0156 199.0656,344.875 199.2375,344.6563 C199.3469,344.5 199.3781,344.3125 199.3781,343.8906 L199.3781,342.4688 C199.3781,342.0313 199.3625,341.9063 199.2688,341.75 C199.1125,341.4844 198.8313,341.3438 198.5344,341.3438 C198.2375,341.3438 198.0344,341.4375 197.8156,341.75 L197.6438,341.6719 Z " fill="#000000"/><text fill="#000000" font-family="sans-serif" font-size="12" lengthAdjust="spacing" textLength="49" x="211.7" y="350.1543">Reserva</text><line style="stroke:#A80036;stroke-width:1.5;" x1="170.5" x2="273.5" y1="362" y2="362"/><text fill="#000000" font-family="sans-serif" font-size="11" lengthAdjust="spacing" textLength="93" x="175.5" y="376.2104">-Int reservaId PK</text><text fill="#000000" font-family="sans-serif" font-size="11" lengthAdjust="spacing" textLength="53" x="175.5" y="389.0151">-Int nif FK</text><text fill="#000000" font-family="sans-serif" font-size="11" lengthAdjust="spacing" textLength="77" x="175.5" y="401.8198">-Int lugarId FK</text><text fill="#000000" font-family="sans-serif" font-size="11" lengthAdjust="spacing" textLength="91" x="175.5" y="414.6245">-Datetime inicio</text><text fill="#000000" font-family="sans-serif" font-size="11" lengthAdjust="spacing" textLength="67" x="175.5" y="427.4292">-Int duracao</text><line style="stroke:#A80036;stroke-width:1.5;" x1="170.5" x2="273.5" y1="434.0234" y2="434.0234"/><!--MD5=[3fd616f346a44cd59a91eb10b19e157c]
class User--><rect codeLine="18" fill="#FEFECE" filter="url(#f18fnybjugmnx4)" height="99.2188" id="User" style="stroke:#A80036;stroke-width:1.5;" width="139" x="75.5" y="522.5"/><ellipse cx="126.25" cy="538.5" fill="#ADD1B2" rx="11" ry="11" style="stroke:#A80036;stroke-width:1.0;"/><path d="M128.5938,534.1719 C127.6563,533.7344 127.0625,533.5938 126.1875,533.5938 C123.5625,533.5938 121.5625,535.6719 121.5625,538.3906 L121.5625,539.5156 C121.5625,542.0938 123.6719,543.9844 126.5625,543.9844 C127.7813,543.9844 128.9375,543.6875 129.6875,543.1406 C130.2656,542.7344 130.5938,542.2813 130.5938,541.8906 C130.5938,541.4375 130.2031,541.0469 129.7344,541.0469 C129.5156,541.0469 129.3125,541.125 129.125,541.3125 C128.6719,541.7969 128.6719,541.7969 128.4844,541.8906 C128.0625,542.1563 127.375,542.2813 126.6094,542.2813 C124.5625,542.2813 123.2656,541.1875 123.2656,539.4844 L123.2656,538.3906 C123.2656,536.6094 124.5156,535.2969 126.25,535.2969 C126.8281,535.2969 127.4375,535.4531 127.9063,535.7031 C128.3906,535.9844 128.5625,536.2031 128.6563,536.6094 C128.7188,537.0156 128.75,537.1406 128.8906,537.2656 C129.0313,537.4063 129.2656,537.5156 129.4844,537.5156 C129.75,537.5156 130.0156,537.375 130.1875,537.1563 C130.2969,537 130.3281,536.8125 130.3281,536.3906 L130.3281,534.9688 C130.3281,534.5313 130.3125,534.4063 130.2188,534.25 C130.0625,533.9844 129.7813,533.8438 129.4844,533.8438 C129.1875,533.8438 128.9844,533.9375 128.7656,534.25 L128.5938,534.1719 Z " fill="#000000"/><text fill="#000000" font-family="sans-serif" font-size="12" lengthAdjust="spacing" textLength="29" x="146.75" y="542.6543">User</text><line style="stroke:#A80036;stroke-width:1.5;" x1="76.5" x2="213.5" y1="554.5" y2="554.5"/><text fill="#000000" font-family="sans-serif" font-size="11" lengthAdjust="spacing" textLength="53" x="81.5" y="568.7104">-Int nif PK</text><text fill="#000000" font-family="sans-serif" font-size="11" lengthAdjust="spacing" textLength="127" x="81.5" y="581.5151">-String companyName</text><text fill="#000000" font-family="sans-serif" font-size="11" lengthAdjust="spacing" textLength="73" x="81.5" y="594.3198">-String email</text><text fill="#000000" font-family="sans-serif" font-size="11" lengthAdjust="spacing" textLength="94" x="81.5" y="607.1245">-String password</text><line style="stroke:#A80036;stroke-width:1.5;" x1="76.5" x2="213.5" y1="613.7188" y2="613.7188"/><!--MD5=[6129de384f1bcacbc1ea3ec83eb0d64e]
class Lugar--><rect codeLine="25" fill="#FEFECE" filter="url(#f18fnybjugmnx4)" height="137.6328" id="Lugar" style="stroke:#A80036;stroke-width:1.5;" width="107" x="270.5" y="503"/><ellipse cx="304.4" cy="519" fill="#ADD1B2" rx="11" ry="11" style="stroke:#A80036;stroke-width:1.0;"/><path d="M306.7438,514.6719 C305.8063,514.2344 305.2125,514.0938 304.3375,514.0938 C301.7125,514.0938 299.7125,516.1719 299.7125,518.8906 L299.7125,520.0156 C299.7125,522.5938 301.8219,524.4844 304.7125,524.4844 C305.9313,524.4844 307.0875,524.1875 307.8375,523.6406 C308.4156,523.2344 308.7438,522.7813 308.7438,522.3906 C308.7438,521.9375 308.3531,521.5469 307.8844,521.5469 C307.6656,521.5469 307.4625,521.625 307.275,521.8125 C306.8219,522.2969 306.8219,522.2969 306.6344,522.3906 C306.2125,522.6563 305.525,522.7813 304.7594,522.7813 C302.7125,522.7813 301.4156,521.6875 301.4156,519.9844 L301.4156,518.8906 C301.4156,517.1094 302.6656,515.7969 304.4,515.7969 C304.9781,515.7969 305.5875,515.9531 306.0563,516.2031 C306.5406,516.4844 306.7125,516.7031 306.8063,517.1094 C306.8688,517.5156 306.9,517.6406 307.0406,517.7656 C307.1813,517.9063 307.4156,518.0156 307.6344,518.0156 C307.9,518.0156 308.1656,517.875 308.3375,517.6563 C308.4469,517.5 308.4781,517.3125 308.4781,516.8906 L308.4781,515.4688 C308.4781,515.0313 308.4625,514.9063 308.3688,514.75 C308.2125,514.4844 307.9313,514.3438 307.6344,514.3438 C307.3375,514.3438 307.1344,514.4375 306.9156,514.75 L306.7438,514.6719 Z " fill="#000000"/><text fill="#000000" font-family="sans-serif" font-size="12" lengthAdjust="spacing" textLength="33" x="322.6" y="523.1543">Lugar</text><line style="stroke:#A80036;stroke-width:1.5;" x1="271.5" x2="376.5" y1="535" y2="535"/><text fill="#000000" font-family="sans-serif" font-size="11" lengthAdjust="spacing" textLength="77" x="276.5" y="549.2104">-Int lugarId PK</text><text fill="#000000" font-family="sans-serif" font-size="11" lengthAdjust="spacing" textLength="66" x="276.5" y="562.0151">-Int numero</text><text fill="#000000" font-family="sans-serif" font-size="11" lengthAdjust="spacing" textLength="58" x="276.5" y="574.8198">-String fila</text><text fill="#000000" font-family="sans-serif" font-size="11" lengthAdjust="spacing" textLength="54" x="276.5" y="587.6245">-Int andar</text><text fill="#000000" font-family="sans-serif" font-size="11" lengthAdjust="spacing" textLength="59" x="276.5" y="600.4292">-String rua</text><text fill="#000000" font-family="sans-serif" font-size="11" lengthAdjust="spacing" textLength="95" x="276.5" y="613.2339">-String freguesia</text><text fill="#000000" font-family="sans-serif" font-size="11" lengthAdjust="spacing" textLength="81" x="276.5" y="626.0386">-Double preco</text><line style="stroke:#A80036;stroke-width:1.5;" x1="271.5" x2="376.5" y1="632.6328" y2="632.6328"/><!--MD5=[6754354365917abf8f1a56af1b7e344c]
class Context--><rect codeLine="35" fill="#FEFECE" filter="url(#f18fnybjugmnx4)" height="86.4141" id="Context" style="stroke:#A80036;stroke-width:1.5;" width="174" x="123" y="167"/><ellipse cx="182.75" cy="183" fill="#ADD1B2" rx="11" ry="11" style="stroke:#A80036;stroke-width:1.0;"/><path d="M185.0938,178.6719 C184.1563,178.2344 183.5625,178.0938 182.6875,178.0938 C180.0625,178.0938 178.0625,180.1719 178.0625,182.8906 L178.0625,184.0156 C178.0625,186.5938 180.1719,188.4844 183.0625,188.4844 C184.2813,188.4844 185.4375,188.1875 186.1875,187.6406 C186.7656,187.2344 187.0938,186.7813 187.0938,186.3906 C187.0938,185.9375 186.7031,185.5469 186.2344,185.5469 C186.0156,185.5469 185.8125,185.625 185.625,185.8125 C185.1719,186.2969 185.1719,186.2969 184.9844,186.3906 C184.5625,186.6563 183.875,186.7813 183.1094,186.7813 C181.0625,186.7813 179.7656,185.6875 179.7656,183.9844 L179.7656,182.8906 C179.7656,181.1094 181.0156,179.7969 182.75,179.7969 C183.3281,179.7969 183.9375,179.9531 184.4063,180.2031 C184.8906,180.4844 185.0625,180.7031 185.1563,181.1094 C185.2188,181.5156 185.25,181.6406 185.3906,181.7656 C185.5313,181.9063 185.7656,182.0156 185.9844,182.0156 C186.25,182.0156 186.5156,181.875 186.6875,181.6563 C186.7969,181.5 186.8281,181.3125 186.8281,180.8906 L186.8281,179.4688 C186.8281,179.0313 186.8125,178.9063 186.7188,178.75 C186.5625,178.4844 186.2813,178.3438 185.9844,178.3438 C185.6875,178.3438 185.4844,178.4375 185.2656,178.75 L185.0938,178.6719 Z " fill="#000000"/><text fill="#000000" font-family="sans-serif" font-size="12" lengthAdjust="spacing" textLength="46" x="203.25" y="187.1543">Context</text><line style="stroke:#A80036;stroke-width:1.5;" x1="124" x2="296" y1="199" y2="199"/><text fill="#000000" font-family="sans-serif" font-size="11" lengthAdjust="spacing" textLength="120" x="129" y="213.2104">-DbSet&lt;User&gt; Users</text><text fill="#000000" font-family="sans-serif" font-size="11" lengthAdjust="spacing" textLength="162" x="129" y="226.0151">-DbSet&lt;Reserva&gt; Reservas</text><text fill="#000000" font-family="sans-serif" font-size="11" lengthAdjust="spacing" textLength="138" x="129" y="238.8198">-DbSet&lt;Lugar&gt; Lugares</text><line style="stroke:#A80036;stroke-width:1.5;" x1="124" x2="296" y1="245.4141" y2="245.4141"/><!--MD5=[f1d08e710b5be31a4f54b7be44dcfd5f]
link ReservasController to Reserva--><path codeLine="41" d="M101.268,106.195 C93.0776,146.812 86.9818,205.508 105,253 C111.705,270.674 139.154,302 165.779,329.701 " fill="none" id="ReservasController-to-Reserva" style="stroke:#A80036;stroke-width:1.0;stroke-dasharray:7.0,7.0;"/><polygon fill="#A80036" points="169.359,333.408,165.9856,324.1549,165.8862,329.8109,160.2302,329.7114,169.359,333.408" style="stroke:#A80036;stroke-width:1.0;"/><!--MD5=[4c183a90d865e4921167e44bdbd7527a]
link ReservasController to Context--><path codeLine="42" d="M144.903,106.269 C156.323,124.291 169.228,144.657 180.519,162.475 " fill="none" id="ReservasController-to-Context" style="stroke:#A80036;stroke-width:1.0;stroke-dasharray:7.0,7.0;"/><polygon fill="#A80036" points="183.352,166.947,181.9114,157.2041,180.6748,162.7241,175.1548,161.4875,183.352,166.947" style="stroke:#A80036;stroke-width:1.0;"/><!--MD5=[03e4429385bac5b629230ad390637611]
link Reserva to User--><path codeLine="43" d="M198.897,442.206 C188.889,466.123 177.218,494.012 167.301,517.71 " fill="none" id="Reserva-to-User" style="stroke:#A80036;stroke-width:1.0;stroke-dasharray:7.0,7.0;"/><polygon fill="#A80036" points="165.342,522.391,172.5066,515.6331,167.2724,517.7787,165.1268,512.5445,165.342,522.391" style="stroke:#A80036;stroke-width:1.0;"/><!--MD5=[d75ccf407ddc5af61a41230a97fe5acc]
link Reserva to Lugar--><path codeLine="44" d="M252.603,442.206 C262.341,459.772 273.266,479.48 283.586,498.096 " fill="none" id="Reserva-to-Lugar" style="stroke:#A80036;stroke-width:1.0;stroke-dasharray:7.0,7.0;"/><polygon fill="#A80036" points="286.196,502.804,285.3306,492.9932,283.7717,498.4311,278.3338,496.8722,286.196,502.804" style="stroke:#A80036;stroke-width:1.0;"/><!--MD5=[f862fc199df090de7a91527ffbcfeae3]
link Context to Reserva--><path codeLine="46" d="M212.905,253.121 C214.388,274.623 216.218,301.163 217.847,324.784 " fill="none" id="Context-to-Reserva" style="stroke:#A80036;stroke-width:1.0;"/><polygon fill="#A80036" points="218.192,329.777,221.5627,320.5229,217.8476,324.7889,213.5817,321.0739,218.192,329.777" style="stroke:#A80036;stroke-width:1.0;"/><text fill="#000000" font-family="sans-serif" font-size="13" lengthAdjust="spacing" textLength="26" x="217" y="296.0669">tem</text><text fill="#000000" font-family="sans-serif" font-size="13" lengthAdjust="spacing" textLength="8" x="204.7236" y="273.5487">1</text><text fill="#000000" font-family="sans-serif" font-size="13" lengthAdjust="spacing" textLength="23" x="193.3263" y="319.0843">0..*</text><!--MD5=[9ffd9ab4100d6389137b12948d44f5a7]
link Context to User--><path codeLine="47" d="M169.59,253.055 C151.932,274.33 133.18,301.625 124,330 C103.9397,392.006 115.913,467.387 128.457,517.149 " fill="none" id="Context-to-User" style="stroke:#A80036;stroke-width:1.0;"/><polygon fill="#A80036" points="129.75,522.183,131.3838,512.4706,128.5054,517.3404,123.6356,514.462,129.75,522.183" style="stroke:#A80036;stroke-width:1.0;"/><text fill="#000000" font-family="sans-serif" font-size="13" lengthAdjust="spacing" textLength="26" x="125" y="390.5669">tem</text><text fill="#000000" font-family="sans-serif" font-size="13" lengthAdjust="spacing" textLength="8" x="154.2346" y="273.4718">1</text><text fill="#000000" font-family="sans-serif" font-size="13" lengthAdjust="spacing" textLength="23" x="103.1559" y="511.5421">0..*</text><!--MD5=[97ad1a2caa718f79461eb8097c17a6fe]
link Context to Lugar--><path codeLine="48" d="M246.307,253.1 C262.95,274.699 281.313,302.256 292,330 C312.713,383.773 320.435,448.734 323.131,497.657 " fill="none" id="Context-to-Lugar" style="stroke:#A80036;stroke-width:1.0;"/><polygon fill="#A80036" points="323.406,502.94,326.9326,493.7442,323.146,497.9468,318.9434,494.1602,323.406,502.94" style="stroke:#A80036;stroke-width:1.0;"/><text fill="#000000" font-family="sans-serif" font-size="13" lengthAdjust="spacing" textLength="26" x="319" y="390.5669">tem</text><text fill="#000000" font-family="sans-serif" font-size="13" lengthAdjust="spacing" textLength="8" x="243.6578" y="273.5242">1</text><text fill="#000000" font-family="sans-serif" font-size="13" lengthAdjust="spacing" textLength="23" x="299.1588" y="492.1374">0..*</text><!--MD5=[18755159cbe977f0489feb1f97d280d2]
@startuml
skinparam classAttributeIconSize 0

class ReservasController {
  +Get GetAllReservas()
  +Post PostReserva(reserva)
  +Delete DeleteReserva(reservaId)
  +Put Put(reserva)
}

class Reserva {
  -Int reservaId PK
  -Int nif FK
  -Int lugarId FK
  -Datetime inicio
  -Int duracao
}

class User {
  -Int nif PK
  -String companyName
  -String email
  -String password
}

class Lugar {
  -Int lugarId PK
  -Int numero
  -String fila
  -Int andar
  -String rua
  -String freguesia
  -Double preco
}

class Context {
  -DbSet<User> Users
  -DbSet<Reserva> Reservas
  -DbSet<Lugar> Lugares
}

ReservasController ..> Reserva
ReservasController ..> Context
Reserva ..> User
Reserva ..> Lugar

Context "1" - -> "0..*" Reserva: tem
Context "1" - -> "0..*" User: tem
Context "1" - -> "0..*" Lugar: tem
@enduml

PlantUML version 1.2021.01beta3(Unknown compile time)
(GPL source distribution)
Java Runtime: Java(TM) SE Runtime Environment
JVM: Java HotSpot(TM) 64-Bit Server VM
Default Encoding: UTF-8
Language: en
Country: US
--></g></svg>