<?xml version="1.0" encoding="UTF-8" standalone="no"?><svg xmlns="http://www.w3.org/2000/svg" xmlns:xlink="http://www.w3.org/1999/xlink" contentScriptType="application/ecmascript" contentStyleType="text/css" height="250px" preserveAspectRatio="none" style="width:388px;height:250px;" version="1.1" viewBox="0 0 388 250" width="388px" zoomAndPan="magnify"><defs><filter height="300%" id="f4f089sq6vi5j" width="300%" x="-1" y="-1"><feGaussianBlur result="blurOut" stdDeviation="2.0"/><feColorMatrix in="blurOut" result="blurOut2" type="matrix" values="0 0 0 0 0 0 0 0 0 0 0 0 0 0 0 0 0 0 .4 0"/><feOffset dx="4.0" dy="4.0" in="blurOut2" result="blurOut3"/><feBlend in="SourceGraphic" in2="blurOut3" mode="normal"/></filter></defs><g><line style="stroke:#A80036;stroke-width:1.0;stroke-dasharray:5.0,5.0;" x1="34" x2="34" y1="88.2969" y2="166.5625"/><line style="stroke:#A80036;stroke-width:1.0;stroke-dasharray:5.0,5.0;" x1="328" x2="328" y1="88.2969" y2="166.5625"/><text fill="#000000" font-family="sans-serif" font-size="14" lengthAdjust="spacing" textLength="52" x="5" y="84.9951">Cliente</text><ellipse cx="34" cy="15" fill="#FEFECE" filter="url(#f4f089sq6vi5j)" rx="8" ry="8" style="stroke:#A80036;stroke-width:2.0;"/><path d="M34,23 L34,50 M21,31 L47,31 M34,50 L21,65 M34,50 L47,65 " fill="none" filter="url(#f4f089sq6vi5j)" style="stroke:#A80036;stroke-width:2.0;"/><text fill="#000000" font-family="sans-serif" font-size="14" lengthAdjust="spacing" textLength="52" x="5" y="178.5576">Cliente</text><ellipse cx="34" cy="191.8594" fill="#FEFECE" filter="url(#f4f089sq6vi5j)" rx="8" ry="8" style="stroke:#A80036;stroke-width:2.0;"/><path d="M34,199.8594 L34,226.8594 M21,207.8594 L47,207.8594 M34,226.8594 L21,241.8594 M34,226.8594 L47,241.8594 " fill="none" filter="url(#f4f089sq6vi5j)" style="stroke:#A80036;stroke-width:2.0;"/><rect fill="#FEFECE" filter="url(#f4f089sq6vi5j)" height="30.2969" style="stroke:#A80036;stroke-width:1.5;" width="96" x="278" y="53"/><text fill="#000000" font-family="sans-serif" font-size="14" lengthAdjust="spacing" textLength="82" x="285" y="72.9951">:API.Parque</text><rect fill="#FEFECE" filter="url(#f4f089sq6vi5j)" height="30.2969" style="stroke:#A80036;stroke-width:1.5;" width="96" x="278" y="165.5625"/><text fill="#000000" font-family="sans-serif" font-size="14" lengthAdjust="spacing" textLength="82" x="285" y="185.5576">:API.Parque</text><polygon fill="#A80036" points="316,115.4297,326,119.4297,316,123.4297,320,119.4297" style="stroke:#A80036;stroke-width:1.0;"/><line style="stroke:#A80036;stroke-width:1.0;" x1="34" x2="322" y1="119.4297" y2="119.4297"/><text fill="#000000" font-family="sans-serif" font-size="13" font-weight="bold" lengthAdjust="spacing" textLength="9" x="41" y="114.3638">1</text><text fill="#000000" font-family="sans-serif" font-size="13" lengthAdjust="spacing" textLength="125" x="54" y="114.3638">Envia as alterações</text><polygon fill="#A80036" points="45,144.5625,35,148.5625,45,152.5625,41,148.5625" style="stroke:#A80036;stroke-width:1.0;"/><line style="stroke:#A80036;stroke-width:1.0;" x1="39" x2="327" y1="148.5625" y2="148.5625"/><text fill="#000000" font-family="sans-serif" font-size="13" font-weight="bold" lengthAdjust="spacing" textLength="9" x="51" y="143.4966">2</text><text fill="#000000" font-family="sans-serif" font-size="13" lengthAdjust="spacing" textLength="257" x="64" y="143.4966">Valida e informa o sucesso da operação</text><!--MD5=[4b308007212ac867bb771a8ff6360fa6]
@startuml
autonumber
    Actor "Cliente" as CL
    participant ":API.Parque" as api
    CL -> api : Envia as alterações
    api -> CL : Valida e informa o sucesso da operação
@enduml

PlantUML version 1.2021.01beta3(Unknown compile time)
(GPL source distribution)
Java Runtime: Java(TM) SE Runtime Environment
JVM: Java HotSpot(TM) 64-Bit Server VM
Default Encoding: UTF-8
Language: en
Country: US
--></g></svg>