<?xml version="1.0" encoding="UTF-8" standalone="no"?><svg xmlns="http://www.w3.org/2000/svg" xmlns:xlink="http://www.w3.org/1999/xlink" contentScriptType="application/ecmascript" contentStyleType="text/css" height="309px" preserveAspectRatio="none" style="width:670px;height:309px;" version="1.1" viewBox="0 0 670 309" width="670px" zoomAndPan="magnify"><defs><filter height="300%" id="f135f3830bt1a4" width="300%" x="-1" y="-1"><feGaussianBlur result="blurOut" stdDeviation="2.0"/><feColorMatrix in="blurOut" result="blurOut2" type="matrix" values="0 0 0 0 0 0 0 0 0 0 0 0 0 0 0 0 0 0 .4 0"/><feOffset dx="4.0" dy="4.0" in="blurOut2" result="blurOut3"/><feBlend in="SourceGraphic" in2="blurOut3" mode="normal"/></filter></defs><g><rect fill="#FFFFFF" filter="url(#f135f3830bt1a4)" height="108.5313" style="stroke:#A80036;stroke-width:1.0;" width="10" x="29" y="98.2969"/><rect fill="#FFFFFF" filter="url(#f135f3830bt1a4)" height="87.3984" style="stroke:#A80036;stroke-width:1.0;" width="10" x="309" y="119.4297"/><rect fill="#FFFFFF" filter="url(#f135f3830bt1a4)" height="29.1328" style="stroke:#A80036;stroke-width:1.0;" width="10" x="615" y="148.5625"/><line style="stroke:#A80036;stroke-width:1.0;stroke-dasharray:5.0,5.0;" x1="34" x2="34" y1="88.2969" y2="224.8281"/><line style="stroke:#A80036;stroke-width:1.0;stroke-dasharray:5.0,5.0;" x1="313.5" x2="313.5" y1="88.2969" y2="224.8281"/><line style="stroke:#A80036;stroke-width:1.0;stroke-dasharray:5.0,5.0;" x1="620" x2="620" y1="88.2969" y2="224.8281"/><text fill="#000000" font-family="sans-serif" font-size="14" lengthAdjust="spacing" textLength="52" x="5" y="84.9951">Cliente</text><ellipse cx="34" cy="15" fill="#FEFECE" filter="url(#f135f3830bt1a4)" rx="8" ry="8" style="stroke:#A80036;stroke-width:2.0;"/><path d="M34,23 L34,50 M21,31 L47,31 M34,50 L21,65 M34,50 L47,65 " fill="none" filter="url(#f135f3830bt1a4)" style="stroke:#A80036;stroke-width:2.0;"/><text fill="#000000" font-family="sans-serif" font-size="14" lengthAdjust="spacing" textLength="52" x="5" y="236.8232">Cliente</text><ellipse cx="34" cy="250.125" fill="#FEFECE" filter="url(#f135f3830bt1a4)" rx="8" ry="8" style="stroke:#A80036;stroke-width:2.0;"/><path d="M34,258.125 L34,285.125 M21,266.125 L47,266.125 M34,285.125 L21,300.125 M34,285.125 L47,300.125 " fill="none" filter="url(#f135f3830bt1a4)" style="stroke:#A80036;stroke-width:2.0;"/><rect fill="#FEFECE" filter="url(#f135f3830bt1a4)" height="30.2969" style="stroke:#A80036;stroke-width:1.5;" width="179" x="222.5" y="53"/><text fill="#000000" font-family="sans-serif" font-size="14" lengthAdjust="spacing" textLength="165" x="229.5" y="72.9951">:api/reservasController</text><rect fill="#FEFECE" filter="url(#f135f3830bt1a4)" height="30.2969" style="stroke:#A80036;stroke-width:1.5;" width="179" x="222.5" y="223.8281"/><text fill="#000000" font-family="sans-serif" font-size="14" lengthAdjust="spacing" textLength="165" x="229.5" y="243.8232">:api/reservasController</text><rect fill="#FEFECE" filter="url(#f135f3830bt1a4)" height="30.2969" style="stroke:#A80036;stroke-width:1.5;" width="76" x="580" y="53"/><text fill="#000000" font-family="sans-serif" font-size="14" lengthAdjust="spacing" textLength="62" x="587" y="72.9951">:context</text><rect fill="#FEFECE" filter="url(#f135f3830bt1a4)" height="30.2969" style="stroke:#A80036;stroke-width:1.5;" width="76" x="580" y="223.8281"/><text fill="#000000" font-family="sans-serif" font-size="14" lengthAdjust="spacing" textLength="62" x="587" y="243.8232">:context</text><rect fill="#FFFFFF" filter="url(#f135f3830bt1a4)" height="108.5313" style="stroke:#A80036;stroke-width:1.0;" width="10" x="29" y="98.2969"/><rect fill="#FFFFFF" filter="url(#f135f3830bt1a4)" height="87.3984" style="stroke:#A80036;stroke-width:1.0;" width="10" x="309" y="119.4297"/><rect fill="#FFFFFF" filter="url(#f135f3830bt1a4)" height="29.1328" style="stroke:#A80036;stroke-width:1.0;" width="10" x="615" y="148.5625"/><polygon fill="#A80036" points="297,115.4297,307,119.4297,297,123.4297,301,119.4297" style="stroke:#A80036;stroke-width:1.0;"/><line style="stroke:#A80036;stroke-width:1.0;stroke-dasharray:2.0,2.0;" x1="39" x2="303" y1="119.4297" y2="119.4297"/><text fill="#000000" font-family="sans-serif" font-size="13" lengthAdjust="spacing" textLength="251" x="46" y="114.3638">pede para editar uma reserva(reserva)</text><polygon fill="#A80036" points="603,144.5625,613,148.5625,603,152.5625,607,148.5625" style="stroke:#A80036;stroke-width:1.0;"/><line style="stroke:#A80036;stroke-width:1.0;stroke-dasharray:2.0,2.0;" x1="319" x2="609" y1="148.5625" y2="148.5625"/><text fill="#000000" font-family="sans-serif" font-size="13" lengthAdjust="spacing" textLength="277" x="326" y="143.4966">Entry(reserva).State = EntityState.Modified</text><polygon fill="#A80036" points="330,173.6953,320,177.6953,330,181.6953,326,177.6953" style="stroke:#A80036;stroke-width:1.0;"/><line style="stroke:#A80036;stroke-width:1.0;stroke-dasharray:2.0,2.0;" x1="324" x2="619" y1="177.6953" y2="177.6953"/><text fill="#000000" font-family="sans-serif" font-size="13" lengthAdjust="spacing" textLength="137" x="336" y="172.6294">SaveChangesAsync()</text><polygon fill="#A80036" points="45,202.8281,35,206.8281,45,210.8281,41,206.8281" style="stroke:#A80036;stroke-width:1.0;"/><line style="stroke:#A80036;stroke-width:1.0;stroke-dasharray:2.0,2.0;" x1="39" x2="313" y1="206.8281" y2="206.8281"/><text fill="#000000" font-family="sans-serif" font-size="13" lengthAdjust="spacing" textLength="236" x="51" y="201.7622">NoContent() operação bem sucedida</text><!--MD5=[47ef9772856d14d1e61df4f0adefef2b]
@startuml
actor "Cliente" as CL
    participant ":api/reservasController" as RC
    participant ":context" as C

    activate CL
    CL - -> RC : pede para editar uma reserva(reserva)
    activate RC

    RC - -> C : Entry(reserva).State = EntityState.Modified
    activate C

    C - -> RC : SaveChangesAsync()
    deactivate C

    RC - -> CL: NoContent() operação bem sucedida
    deactivate RC
    deactivate CL
@enduml

PlantUML version 1.2021.01beta3(Unknown compile time)
(GPL source distribution)
Java Runtime: Java(TM) SE Runtime Environment
JVM: Java HotSpot(TM) 64-Bit Server VM
Default Encoding: UTF-8
Language: en
Country: US
--></g></svg>