<?xml version="1.0" encoding="UTF-8" standalone="no"?><svg xmlns="http://www.w3.org/2000/svg" xmlns:xlink="http://www.w3.org/1999/xlink" contentScriptType="application/ecmascript" contentStyleType="text/css" height="309px" preserveAspectRatio="none" style="width:456px;height:309px;" version="1.1" viewBox="0 0 456 309" width="456px" zoomAndPan="magnify"><defs><filter height="300%" id="f85ay9ijjcp9o" width="300%" x="-1" y="-1"><feGaussianBlur result="blurOut" stdDeviation="2.0"/><feColorMatrix in="blurOut" result="blurOut2" type="matrix" values="0 0 0 0 0 0 0 0 0 0 0 0 0 0 0 0 0 0 .4 0"/><feOffset dx="4.0" dy="4.0" in="blurOut2" result="blurOut3"/><feBlend in="SourceGraphic" in2="blurOut3" mode="normal"/></filter></defs><g><line style="stroke:#A80036;stroke-width:1.0;stroke-dasharray:5.0,5.0;" x1="102" x2="102" y1="88.2969" y2="224.8281"/><line style="stroke:#A80036;stroke-width:1.0;stroke-dasharray:5.0,5.0;" x1="396.5" x2="396.5" y1="88.2969" y2="224.8281"/><text fill="#000000" font-family="sans-serif" font-size="14" lengthAdjust="spacing" textLength="189" x="5" y="84.9951">Sistema Central J.d.Coives</text><ellipse cx="102.5" cy="15" fill="#FEFECE" filter="url(#f85ay9ijjcp9o)" rx="8" ry="8" style="stroke:#A80036;stroke-width:2.0;"/><path d="M102.5,23 L102.5,50 M89.5,31 L115.5,31 M102.5,50 L89.5,65 M102.5,50 L115.5,65 " fill="none" filter="url(#f85ay9ijjcp9o)" style="stroke:#A80036;stroke-width:2.0;"/><text fill="#000000" font-family="sans-serif" font-size="14" lengthAdjust="spacing" textLength="189" x="5" y="236.8232">Sistema Central J.d.Coives</text><ellipse cx="102.5" cy="250.125" fill="#FEFECE" filter="url(#f85ay9ijjcp9o)" rx="8" ry="8" style="stroke:#A80036;stroke-width:2.0;"/><path d="M102.5,258.125 L102.5,285.125 M89.5,266.125 L115.5,266.125 M102.5,285.125 L89.5,300.125 M102.5,285.125 L115.5,300.125 " fill="none" filter="url(#f85ay9ijjcp9o)" style="stroke:#A80036;stroke-width:2.0;"/><rect fill="#FEFECE" filter="url(#f85ay9ijjcp9o)" height="30.2969" style="stroke:#A80036;stroke-width:1.5;" width="96" x="346.5" y="53"/><text fill="#000000" font-family="sans-serif" font-size="14" lengthAdjust="spacing" textLength="82" x="353.5" y="72.9951">:API.Parque</text><rect fill="#FEFECE" filter="url(#f85ay9ijjcp9o)" height="30.2969" style="stroke:#A80036;stroke-width:1.5;" width="96" x="346.5" y="223.8281"/><text fill="#000000" font-family="sans-serif" font-size="14" lengthAdjust="spacing" textLength="82" x="353.5" y="243.8232">:API.Parque</text><polygon fill="#A80036" points="384.5,115.4297,394.5,119.4297,384.5,123.4297,388.5,119.4297" style="stroke:#A80036;stroke-width:1.0;"/><line style="stroke:#A80036;stroke-width:1.0;" x1="102.5" x2="390.5" y1="119.4297" y2="119.4297"/><text fill="#000000" font-family="sans-serif" font-size="13" font-weight="bold" lengthAdjust="spacing" textLength="9" x="109.5" y="114.3638">1</text><text fill="#000000" font-family="sans-serif" font-size="13" lengthAdjust="spacing" textLength="204" x="122.5" y="114.3638">Pede uma determinada reserva</text><polygon fill="#A80036" points="113.5,144.5625,103.5,148.5625,113.5,152.5625,109.5,148.5625" style="stroke:#A80036;stroke-width:1.0;"/><line style="stroke:#A80036;stroke-width:1.0;" x1="107.5" x2="395.5" y1="148.5625" y2="148.5625"/><text fill="#000000" font-family="sans-serif" font-size="13" font-weight="bold" lengthAdjust="spacing" textLength="9" x="119.5" y="143.4966">2</text><text fill="#000000" font-family="sans-serif" font-size="13" lengthAdjust="spacing" textLength="216" x="132.5" y="143.4966">Entrega dados ao sistema central</text><polygon fill="#A80036" points="384.5,173.6953,394.5,177.6953,384.5,181.6953,388.5,177.6953" style="stroke:#A80036;stroke-width:1.0;"/><line style="stroke:#A80036;stroke-width:1.0;" x1="102.5" x2="390.5" y1="177.6953" y2="177.6953"/><text fill="#000000" font-family="sans-serif" font-size="13" font-weight="bold" lengthAdjust="spacing" textLength="8" x="109.5" y="172.6294">3</text><text fill="#000000" font-family="sans-serif" font-size="13" lengthAdjust="spacing" textLength="125" x="121.5" y="172.6294">Envia as alterações</text><polygon fill="#A80036" points="113.5,202.8281,103.5,206.8281,113.5,210.8281,109.5,206.8281" style="stroke:#A80036;stroke-width:1.0;"/><line style="stroke:#A80036;stroke-width:1.0;" x1="107.5" x2="395.5" y1="206.8281" y2="206.8281"/><text fill="#000000" font-family="sans-serif" font-size="13" font-weight="bold" lengthAdjust="spacing" textLength="9" x="119.5" y="201.7622">4</text><text fill="#000000" font-family="sans-serif" font-size="13" lengthAdjust="spacing" textLength="257" x="132.5" y="201.7622">Valida e informa o sucesso da operação</text><!--MD5=[fec71287ca51e9c6d2b8e33449c30786]
@startuml
autonumber

    Actor "Sistema Central J.d.Coives" as jdc
    participant ":API.Parque" as api

    jdc -> api : Pede uma determinada reserva
    api -> jdc : Entrega dados ao sistema central
    jdc -> api : Envia as alterações
    api -> jdc : Valida e informa o sucesso da operação
@enduml

PlantUML version 1.2021.01beta3(Unknown compile time)
(GPL source distribution)
Java Runtime: Java(TM) SE Runtime Environment
JVM: Java HotSpot(TM) 64-Bit Server VM
Default Encoding: UTF-8
Language: en
Country: US
--></g></svg>