<?xml version="1.0" encoding="UTF-8" standalone="no"?><svg xmlns="http://www.w3.org/2000/svg" xmlns:xlink="http://www.w3.org/1999/xlink" contentScriptType="application/ecmascript" contentStyleType="text/css" height="440px" preserveAspectRatio="none" style="width:930px;height:440px;" version="1.1" viewBox="0 0 930 440" width="930px" zoomAndPan="magnify"><defs><filter height="300%" id="f1b4ku775hocfy" width="300%" x="-1" y="-1"><feGaussianBlur result="blurOut" stdDeviation="2.0"/><feColorMatrix in="blurOut" result="blurOut2" type="matrix" values="0 0 0 0 0 0 0 0 0 0 0 0 0 0 0 0 0 0 .4 0"/><feOffset dx="4.0" dy="4.0" in="blurOut2" result="blurOut3"/><feBlend in="SourceGraphic" in2="blurOut3" mode="normal"/></filter></defs><g><rect fill="#FFFFFF" filter="url(#f1b4ku775hocfy)" height="240.1953" style="stroke:#A80036;stroke-width:1.0;" width="10" x="37" y="98.2969"/><rect fill="#FFFFFF" filter="url(#f1b4ku775hocfy)" height="219.0625" style="stroke:#A80036;stroke-width:1.0;" width="10" x="238" y="119.4297"/><rect fill="#FFFFFF" filter="url(#f1b4ku775hocfy)" height="145.6641" style="stroke:#A80036;stroke-width:1.0;" width="10" x="438.5" y="148.5625"/><rect fill="#FFFFFF" filter="url(#f1b4ku775hocfy)" height="87.3984" style="stroke:#A80036;stroke-width:1.0;" width="10" x="648.5" y="177.6953"/><rect fill="#FFFFFF" filter="url(#f1b4ku775hocfy)" height="29.1328" style="stroke:#A80036;stroke-width:1.0;" width="10" x="834.5" y="206.8281"/><line style="stroke:#A80036;stroke-width:1.0;stroke-dasharray:5.0,5.0;" x1="42" x2="42" y1="88.2969" y2="356.4922"/><line style="stroke:#A80036;stroke-width:1.0;stroke-dasharray:5.0,5.0;" x1="242.5" x2="242.5" y1="88.2969" y2="356.4922"/><line style="stroke:#A80036;stroke-width:1.0;stroke-dasharray:5.0,5.0;" x1="443.5" x2="443.5" y1="88.2969" y2="356.4922"/><line style="stroke:#A80036;stroke-width:1.0;stroke-dasharray:5.0,5.0;" x1="653.5" x2="653.5" y1="88.2969" y2="356.4922"/><line style="stroke:#A80036;stroke-width:1.0;stroke-dasharray:5.0,5.0;" x1="839.5" x2="839.5" y1="88.2969" y2="356.4922"/><text fill="#000000" font-family="sans-serif" font-size="14" lengthAdjust="spacing" textLength="68" x="5" y="84.9951">Utilizador</text><ellipse cx="42" cy="15" fill="#FEFECE" filter="url(#f1b4ku775hocfy)" rx="8" ry="8" style="stroke:#A80036;stroke-width:2.0;"/><path d="M42,23 L42,50 M29,31 L55,31 M42,50 L29,65 M42,50 L55,65 " fill="none" filter="url(#f1b4ku775hocfy)" style="stroke:#A80036;stroke-width:2.0;"/><text fill="#000000" font-family="sans-serif" font-size="14" lengthAdjust="spacing" textLength="68" x="5" y="368.4873">Utilizador</text><ellipse cx="42" cy="381.7891" fill="#FEFECE" filter="url(#f1b4ku775hocfy)" rx="8" ry="8" style="stroke:#A80036;stroke-width:2.0;"/><path d="M42,389.7891 L42,416.7891 M29,397.7891 L55,397.7891 M42,416.7891 L29,431.7891 M42,416.7891 L55,431.7891 " fill="none" filter="url(#f1b4ku775hocfy)" style="stroke:#A80036;stroke-width:2.0;"/><rect fill="#FEFECE" filter="url(#f1b4ku775hocfy)" height="30.2969" style="stroke:#A80036;stroke-width:1.5;" width="167" x="157.5" y="53"/><text fill="#000000" font-family="sans-serif" font-size="14" lengthAdjust="spacing" textLength="153" x="164.5" y="72.9951">:app/SubAluguerView</text><rect fill="#FEFECE" filter="url(#f1b4ku775hocfy)" height="30.2969" style="stroke:#A80036;stroke-width:1.5;" width="167" x="157.5" y="355.4922"/><text fill="#000000" font-family="sans-serif" font-size="14" lengthAdjust="spacing" textLength="153" x="164.5" y="375.4873">:app/SubAluguerView</text><rect fill="#FEFECE" filter="url(#f1b4ku775hocfy)" height="30.2969" style="stroke:#A80036;stroke-width:1.5;" width="206" x="338.5" y="53"/><text fill="#000000" font-family="sans-serif" font-size="14" lengthAdjust="spacing" textLength="192" x="345.5" y="72.9951">:app/SubAluguerController</text><rect fill="#FEFECE" filter="url(#f1b4ku775hocfy)" height="30.2969" style="stroke:#A80036;stroke-width:1.5;" width="206" x="338.5" y="355.4922"/><text fill="#000000" font-family="sans-serif" font-size="14" lengthAdjust="spacing" textLength="192" x="345.5" y="375.4873">:app/SubAluguerController</text><rect fill="#FEFECE" filter="url(#f1b4ku775hocfy)" height="30.2969" style="stroke:#A80036;stroke-width:1.5;" width="186" x="558.5" y="53"/><text fill="#000000" font-family="sans-serif" font-size="14" lengthAdjust="spacing" textLength="172" x="565.5" y="72.9951">:app/SubAluguerService</text><rect fill="#FEFECE" filter="url(#f1b4ku775hocfy)" height="30.2969" style="stroke:#A80036;stroke-width:1.5;" width="186" x="558.5" y="355.4922"/><text fill="#000000" font-family="sans-serif" font-size="14" lengthAdjust="spacing" textLength="172" x="565.5" y="375.4873">:app/SubAluguerService</text><rect fill="#FEFECE" filter="url(#f1b4ku775hocfy)" height="30.2969" style="stroke:#A80036;stroke-width:1.5;" width="158" x="758.5" y="53"/><text fill="#000000" font-family="sans-serif" font-size="14" lengthAdjust="spacing" textLength="144" x="765.5" y="72.9951">app.SistemaCentral</text><rect fill="#FEFECE" filter="url(#f1b4ku775hocfy)" height="30.2969" style="stroke:#A80036;stroke-width:1.5;" width="158" x="758.5" y="355.4922"/><text fill="#000000" font-family="sans-serif" font-size="14" lengthAdjust="spacing" textLength="144" x="765.5" y="375.4873">app.SistemaCentral</text><rect fill="#FFFFFF" filter="url(#f1b4ku775hocfy)" height="240.1953" style="stroke:#A80036;stroke-width:1.0;" width="10" x="37" y="98.2969"/><rect fill="#FFFFFF" filter="url(#f1b4ku775hocfy)" height="219.0625" style="stroke:#A80036;stroke-width:1.0;" width="10" x="238" y="119.4297"/><rect fill="#FFFFFF" filter="url(#f1b4ku775hocfy)" height="145.6641" style="stroke:#A80036;stroke-width:1.0;" width="10" x="438.5" y="148.5625"/><rect fill="#FFFFFF" filter="url(#f1b4ku775hocfy)" height="87.3984" style="stroke:#A80036;stroke-width:1.0;" width="10" x="648.5" y="177.6953"/><rect fill="#FFFFFF" filter="url(#f1b4ku775hocfy)" height="29.1328" style="stroke:#A80036;stroke-width:1.0;" width="10" x="834.5" y="206.8281"/><polygon fill="#A80036" points="226,115.4297,236,119.4297,226,123.4297,230,119.4297" style="stroke:#A80036;stroke-width:1.0;"/><line style="stroke:#A80036;stroke-width:1.0;stroke-dasharray:2.0,2.0;" x1="47" x2="232" y1="119.4297" y2="119.4297"/><text fill="#000000" font-family="sans-serif" font-size="13" font-weight="bold" lengthAdjust="spacing" textLength="9" x="54" y="114.3638">1</text><text fill="#000000" font-family="sans-serif" font-size="13" lengthAdjust="spacing" textLength="139" x="67" y="114.3638">Inicia o cancelamento</text><polygon fill="#A80036" points="426.5,144.5625,436.5,148.5625,426.5,152.5625,430.5,148.5625" style="stroke:#A80036;stroke-width:1.0;"/><line style="stroke:#A80036;stroke-width:1.0;stroke-dasharray:2.0,2.0;" x1="248" x2="432.5" y1="148.5625" y2="148.5625"/><text fill="#000000" font-family="sans-serif" font-size="13" font-weight="bold" lengthAdjust="spacing" textLength="9" x="255" y="143.4966">2</text><text fill="#000000" font-family="sans-serif" font-size="13" lengthAdjust="spacing" textLength="136" x="268" y="143.4966">DeleteSubAluguer(id)</text><polygon fill="#A80036" points="636.5,173.6953,646.5,177.6953,636.5,181.6953,640.5,177.6953" style="stroke:#A80036;stroke-width:1.0;"/><line style="stroke:#A80036;stroke-width:1.0;stroke-dasharray:2.0,2.0;" x1="448.5" x2="642.5" y1="177.6953" y2="177.6953"/><text fill="#000000" font-family="sans-serif" font-size="13" font-weight="bold" lengthAdjust="spacing" textLength="8" x="455.5" y="172.6294">3</text><text fill="#000000" font-family="sans-serif" font-size="13" lengthAdjust="spacing" textLength="102" x="467.5" y="172.6294">DeleteAsync(id)</text><polygon fill="#A80036" points="822.5,202.8281,832.5,206.8281,822.5,210.8281,826.5,206.8281" style="stroke:#A80036;stroke-width:1.0;"/><line style="stroke:#A80036;stroke-width:1.0;stroke-dasharray:2.0,2.0;" x1="658.5" x2="828.5" y1="206.8281" y2="206.8281"/><text fill="#000000" font-family="sans-serif" font-size="13" font-weight="bold" lengthAdjust="spacing" textLength="9" x="665.5" y="201.7622">4</text><text fill="#000000" font-family="sans-serif" font-size="13" lengthAdjust="spacing" textLength="136" x="678.5" y="201.7622">DeleteSubAluguer(id)</text><polygon fill="#A80036" points="669.5,231.9609,659.5,235.9609,669.5,239.9609,665.5,235.9609" style="stroke:#A80036;stroke-width:1.0;"/><line style="stroke:#A80036;stroke-width:1.0;stroke-dasharray:2.0,2.0;" x1="663.5" x2="838.5" y1="235.9609" y2="235.9609"/><text fill="#000000" font-family="sans-serif" font-size="13" font-weight="bold" lengthAdjust="spacing" textLength="9" x="675.5" y="230.895">5</text><text fill="#000000" font-family="sans-serif" font-size="13" lengthAdjust="spacing" textLength="72" x="688.5" y="230.895">No Content</text><polygon fill="#A80036" points="459.5,261.0938,449.5,265.0938,459.5,269.0938,455.5,265.0938" style="stroke:#A80036;stroke-width:1.0;"/><line style="stroke:#A80036;stroke-width:1.0;stroke-dasharray:2.0,2.0;" x1="453.5" x2="652.5" y1="265.0938" y2="265.0938"/><text fill="#000000" font-family="sans-serif" font-size="13" font-weight="bold" lengthAdjust="spacing" textLength="9" x="465.5" y="260.0278">6</text><text fill="#000000" font-family="sans-serif" font-size="13" lengthAdjust="spacing" textLength="72" x="478.5" y="260.0278">No Content</text><polygon fill="#A80036" points="259,290.2266,249,294.2266,259,298.2266,255,294.2266" style="stroke:#A80036;stroke-width:1.0;"/><line style="stroke:#A80036;stroke-width:1.0;stroke-dasharray:2.0,2.0;" x1="253" x2="442.5" y1="294.2266" y2="294.2266"/><text fill="#000000" font-family="sans-serif" font-size="13" font-weight="bold" lengthAdjust="spacing" textLength="9" x="265" y="289.1606">7</text><text fill="#000000" font-family="sans-serif" font-size="13" lengthAdjust="spacing" textLength="72" x="278" y="289.1606">No Content</text><polygon fill="#A80036" points="53,334.4922,43,338.4922,53,342.4922,49,338.4922" style="stroke:#A80036;stroke-width:1.0;"/><line style="stroke:#A80036;stroke-width:1.0;stroke-dasharray:2.0,2.0;" x1="47" x2="242" y1="338.4922" y2="338.4922"/><text fill="#000000" font-family="sans-serif" font-size="13" font-weight="bold" lengthAdjust="spacing" textLength="9" x="59" y="325.8599">8</text><text fill="#000000" font-family="sans-serif" font-size="13" lengthAdjust="spacing" textLength="72" x="72" y="318.2935">No Content</text><text fill="#000000" font-family="sans-serif" font-size="13" lengthAdjust="spacing" textLength="154" x="72" y="333.4263">operacao bem sucedida</text><!--MD5=[b71edd4c9e4d64e735ae4de1869d3fe0]
@startuml
autonumber
actor "Utilizador" as U
participant ":app/SubAluguerView" as SAV
participant ":app/SubAluguerController" as SAC
participant ":app/SubAluguerService" as SAS
participant "app.SistemaCentral" as API

activate U

U - -> SAV: Inicia o cancelamento
activate SAV

SAV - -> SAC: DeleteSubAluguer(id)
activate SAC

SAC - -> SAS: DeleteAsync(id)
activate SAS

SAS - -> API: DeleteSubAluguer(id)
activate API

API - -> SAS:No Content
deactivate API

SAS - -> SAC: No Content
deactivate SAS

SAC - -> SAV: No Content
deactivate SAC

SAV - -> U: No Content\noperacao bem sucedida
deactivate SAV

deactivate U
@enduml

PlantUML version 1.2021.2beta9(Unknown compile time)
(GPL source distribution)
Java Runtime: Java(TM) SE Runtime Environment
JVM: Java HotSpot(TM) 64-Bit Server VM
Default Encoding: UTF-8
Language: en
Country: US
--></g></svg>