<?xml version="1.0" encoding="UTF-8" standalone="no"?><svg xmlns="http://www.w3.org/2000/svg" xmlns:xlink="http://www.w3.org/1999/xlink" contentScriptType="application/ecmascript" contentStyleType="text/css" height="700px" preserveAspectRatio="none" style="width:1331px;height:700px;" version="1.1" viewBox="0 0 1331 700" width="1331px" zoomAndPan="magnify"><defs><filter height="300%" id="f1ac5xtulps4s0" width="300%" x="-1" y="-1"><feGaussianBlur result="blurOut" stdDeviation="2.0"/><feColorMatrix in="blurOut" result="blurOut2" type="matrix" values="0 0 0 0 0 0 0 0 0 0 0 0 0 0 0 0 0 0 .4 0"/><feOffset dx="4.0" dy="4.0" in="blurOut2" result="blurOut3"/><feBlend in="SourceGraphic" in2="blurOut3" mode="normal"/></filter></defs><g><rect fill="#FFFFFF" filter="url(#f1ac5xtulps4s0)" height="500.2578" style="stroke:#A80036;stroke-width:1.0;" width="10" x="37" y="98.2969"/><rect fill="#FFFFFF" filter="url(#f1ac5xtulps4s0)" height="29.1328" style="stroke:#A80036;stroke-width:1.0;" width="10" x="247" y="119.4297"/><rect fill="#FFFFFF" filter="url(#f1ac5xtulps4s0)" height="29.1328" style="stroke:#A80036;stroke-width:1.0;" width="10" x="247" y="569.4219"/><rect fill="#FFFFFF" filter="url(#f1ac5xtulps4s0)" height="87.3984" style="stroke:#A80036;stroke-width:1.0;" width="10" x="503" y="177.6953"/><rect fill="#FFFFFF" filter="url(#f1ac5xtulps4s0)" height="420.8594" style="stroke:#A80036;stroke-width:1.0;" width="10" x="750.5" y="148.5625"/><rect fill="#FFFFFF" filter="url(#f1ac5xtulps4s0)" height="87.3984" style="stroke:#A80036;stroke-width:1.0;" width="10" x="1028.5" y="294.2266"/><rect fill="#FFFFFF" filter="url(#f1ac5xtulps4s0)" height="87.3984" style="stroke:#A80036;stroke-width:1.0;" width="10" x="1028.5" y="452.8906"/><rect fill="#FFFFFF" filter="url(#f1ac5xtulps4s0)" height="29.1328" style="stroke:#A80036;stroke-width:1.0;" width="10" x="1237.5" y="323.3594"/><rect fill="#FFFFFF" filter="url(#f1ac5xtulps4s0)" height="29.1328" style="stroke:#A80036;stroke-width:1.0;" width="10" x="1237.5" y="482.0234"/><line style="stroke:#A80036;stroke-width:1.0;stroke-dasharray:5.0,5.0;" x1="42" x2="42" y1="88.2969" y2="616.5547"/><line style="stroke:#A80036;stroke-width:1.0;stroke-dasharray:5.0,5.0;" x1="252" x2="252" y1="88.2969" y2="616.5547"/><line style="stroke:#A80036;stroke-width:1.0;stroke-dasharray:5.0,5.0;" x1="508" x2="508" y1="88.2969" y2="616.5547"/><line style="stroke:#A80036;stroke-width:1.0;stroke-dasharray:5.0,5.0;" x1="755" x2="755" y1="88.2969" y2="616.5547"/><line style="stroke:#A80036;stroke-width:1.0;stroke-dasharray:5.0,5.0;" x1="1033" x2="1033" y1="88.2969" y2="616.5547"/><line style="stroke:#A80036;stroke-width:1.0;stroke-dasharray:5.0,5.0;" x1="1242" x2="1242" y1="88.2969" y2="616.5547"/><text fill="#000000" font-family="sans-serif" font-size="14" lengthAdjust="spacing" textLength="68" x="5" y="84.9951">Utilizador</text><ellipse cx="42" cy="15" fill="#FEFECE" filter="url(#f1ac5xtulps4s0)" rx="8" ry="8" style="stroke:#A80036;stroke-width:2.0;"/><path d="M42,23 L42,50 M29,31 L55,31 M42,50 L29,65 M42,50 L55,65 " fill="none" filter="url(#f1ac5xtulps4s0)" style="stroke:#A80036;stroke-width:2.0;"/><text fill="#000000" font-family="sans-serif" font-size="14" lengthAdjust="spacing" textLength="68" x="5" y="628.5498">Utilizador</text><ellipse cx="42" cy="641.8516" fill="#FEFECE" filter="url(#f1ac5xtulps4s0)" rx="8" ry="8" style="stroke:#A80036;stroke-width:2.0;"/><path d="M42,649.8516 L42,676.8516 M29,657.8516 L55,657.8516 M42,676.8516 L29,691.8516 M42,676.8516 L55,691.8516 " fill="none" filter="url(#f1ac5xtulps4s0)" style="stroke:#A80036;stroke-width:2.0;"/><rect fill="#FEFECE" filter="url(#f1ac5xtulps4s0)" height="30.2969" style="stroke:#A80036;stroke-width:1.5;" width="226" x="137" y="53"/><text fill="#000000" font-family="sans-serif" font-size="14" lengthAdjust="spacing" textLength="212" x="144" y="72.9951">:app/Views/Utilizadores/Saldo</text><rect fill="#FEFECE" filter="url(#f1ac5xtulps4s0)" height="30.2969" style="stroke:#A80036;stroke-width:1.5;" width="226" x="137" y="615.5547"/><text fill="#000000" font-family="sans-serif" font-size="14" lengthAdjust="spacing" textLength="212" x="144" y="635.5498">:app/Views/Utilizadores/Saldo</text><rect fill="#FEFECE" filter="url(#f1ac5xtulps4s0)" height="30.2969" style="stroke:#A80036;stroke-width:1.5;" width="258" x="377" y="53"/><text fill="#000000" font-family="sans-serif" font-size="14" lengthAdjust="spacing" textLength="244" x="384" y="72.9951">:app/Views/Utilizadores/Depositar</text><rect fill="#FEFECE" filter="url(#f1ac5xtulps4s0)" height="30.2969" style="stroke:#A80036;stroke-width:1.5;" width="258" x="377" y="615.5547"/><text fill="#000000" font-family="sans-serif" font-size="14" lengthAdjust="spacing" textLength="244" x="384" y="635.5498">:app/Views/Utilizadores/Depositar</text><rect fill="#FEFECE" filter="url(#f1ac5xtulps4s0)" height="30.2969" style="stroke:#A80036;stroke-width:1.5;" width="209" x="649" y="53"/><text fill="#000000" font-family="sans-serif" font-size="14" lengthAdjust="spacing" textLength="195" x="656" y="72.9951">:app/UtilizadoresController</text><rect fill="#FEFECE" filter="url(#f1ac5xtulps4s0)" height="30.2969" style="stroke:#A80036;stroke-width:1.5;" width="209" x="649" y="615.5547"/><text fill="#000000" font-family="sans-serif" font-size="14" lengthAdjust="spacing" textLength="195" x="656" y="635.5498">:app/UtilizadoresController</text><rect fill="#FEFECE" filter="url(#f1ac5xtulps4s0)" height="30.2969" style="stroke:#A80036;stroke-width:1.5;" width="173" x="945" y="53"/><text fill="#000000" font-family="sans-serif" font-size="14" lengthAdjust="spacing" textLength="159" x="952" y="72.9951">:app/UtilizadorService</text><rect fill="#FEFECE" filter="url(#f1ac5xtulps4s0)" height="30.2969" style="stroke:#A80036;stroke-width:1.5;" width="173" x="945" y="615.5547"/><text fill="#000000" font-family="sans-serif" font-size="14" lengthAdjust="spacing" textLength="159" x="952" y="635.5498">:app/UtilizadorService</text><rect fill="#FEFECE" filter="url(#f1ac5xtulps4s0)" height="30.2969" style="stroke:#A80036;stroke-width:1.5;" width="153" x="1164" y="53"/><text fill="#000000" font-family="sans-serif" font-size="14" lengthAdjust="spacing" textLength="139" x="1171" y="72.9951">API:SistemaCentral</text><rect fill="#FEFECE" filter="url(#f1ac5xtulps4s0)" height="30.2969" style="stroke:#A80036;stroke-width:1.5;" width="153" x="1164" y="615.5547"/><text fill="#000000" font-family="sans-serif" font-size="14" lengthAdjust="spacing" textLength="139" x="1171" y="635.5498">API:SistemaCentral</text><rect fill="#FFFFFF" filter="url(#f1ac5xtulps4s0)" height="500.2578" style="stroke:#A80036;stroke-width:1.0;" width="10" x="37" y="98.2969"/><rect fill="#FFFFFF" filter="url(#f1ac5xtulps4s0)" height="29.1328" style="stroke:#A80036;stroke-width:1.0;" width="10" x="247" y="119.4297"/><rect fill="#FFFFFF" filter="url(#f1ac5xtulps4s0)" height="29.1328" style="stroke:#A80036;stroke-width:1.0;" width="10" x="247" y="569.4219"/><rect fill="#FFFFFF" filter="url(#f1ac5xtulps4s0)" height="87.3984" style="stroke:#A80036;stroke-width:1.0;" width="10" x="503" y="177.6953"/><rect fill="#FFFFFF" filter="url(#f1ac5xtulps4s0)" height="420.8594" style="stroke:#A80036;stroke-width:1.0;" width="10" x="750.5" y="148.5625"/><rect fill="#FFFFFF" filter="url(#f1ac5xtulps4s0)" height="87.3984" style="stroke:#A80036;stroke-width:1.0;" width="10" x="1028.5" y="294.2266"/><rect fill="#FFFFFF" filter="url(#f1ac5xtulps4s0)" height="87.3984" style="stroke:#A80036;stroke-width:1.0;" width="10" x="1028.5" y="452.8906"/><rect fill="#FFFFFF" filter="url(#f1ac5xtulps4s0)" height="29.1328" style="stroke:#A80036;stroke-width:1.0;" width="10" x="1237.5" y="323.3594"/><rect fill="#FFFFFF" filter="url(#f1ac5xtulps4s0)" height="29.1328" style="stroke:#A80036;stroke-width:1.0;" width="10" x="1237.5" y="482.0234"/><polygon fill="#A80036" points="235,115.4297,245,119.4297,235,123.4297,239,119.4297" style="stroke:#A80036;stroke-width:1.0;"/><line style="stroke:#A80036;stroke-width:1.0;stroke-dasharray:2.0,2.0;" x1="47" x2="241" y1="119.4297" y2="119.4297"/><text fill="#000000" font-family="sans-serif" font-size="13" font-weight="bold" lengthAdjust="spacing" textLength="9" x="54" y="114.3638">1</text><text fill="#000000" font-family="sans-serif" font-size="13" lengthAdjust="spacing" textLength="103" x="67" y="114.3638">inicia o depósito</text><polygon fill="#A80036" points="738.5,144.5625,748.5,148.5625,738.5,152.5625,742.5,148.5625" style="stroke:#A80036;stroke-width:1.0;"/><line style="stroke:#A80036;stroke-width:1.0;stroke-dasharray:2.0,2.0;" x1="252" x2="744.5" y1="148.5625" y2="148.5625"/><text fill="#000000" font-family="sans-serif" font-size="13" font-weight="bold" lengthAdjust="spacing" textLength="9" x="259" y="143.4966">2</text><text fill="#000000" font-family="sans-serif" font-size="13" lengthAdjust="spacing" textLength="72" x="272" y="143.4966">Depositar()</text><polygon fill="#A80036" points="524,173.6953,514,177.6953,524,181.6953,520,177.6953" style="stroke:#A80036;stroke-width:1.0;"/><line style="stroke:#A80036;stroke-width:1.0;stroke-dasharray:2.0,2.0;" x1="518" x2="749.5" y1="177.6953" y2="177.6953"/><text fill="#000000" font-family="sans-serif" font-size="13" font-weight="bold" lengthAdjust="spacing" textLength="8" x="530" y="172.6294">3</text><text fill="#000000" font-family="sans-serif" font-size="13" lengthAdjust="spacing" textLength="84" x="542" y="172.6294">return View()</text><polygon fill="#A80036" points="58,202.8281,48,206.8281,58,210.8281,54,206.8281" style="stroke:#A80036;stroke-width:1.0;"/><line style="stroke:#A80036;stroke-width:1.0;stroke-dasharray:2.0,2.0;" x1="52" x2="502" y1="206.8281" y2="206.8281"/><text fill="#000000" font-family="sans-serif" font-size="13" font-weight="bold" lengthAdjust="spacing" textLength="9" x="64" y="201.7622">4</text><text fill="#000000" font-family="sans-serif" font-size="13" lengthAdjust="spacing" textLength="68" x="77" y="201.7622">pede valor</text><polygon fill="#A80036" points="491,231.9609,501,235.9609,491,239.9609,495,235.9609" style="stroke:#A80036;stroke-width:1.0;"/><line style="stroke:#A80036;stroke-width:1.0;stroke-dasharray:2.0,2.0;" x1="47" x2="497" y1="235.9609" y2="235.9609"/><text fill="#000000" font-family="sans-serif" font-size="13" font-weight="bold" lengthAdjust="spacing" textLength="9" x="54" y="230.895">5</text><text fill="#000000" font-family="sans-serif" font-size="13" lengthAdjust="spacing" textLength="75" x="67" y="230.895">insere valor</text><polygon fill="#A80036" points="738.5,261.0938,748.5,265.0938,738.5,269.0938,742.5,265.0938" style="stroke:#A80036;stroke-width:1.0;"/><line style="stroke:#A80036;stroke-width:1.0;stroke-dasharray:2.0,2.0;" x1="508" x2="744.5" y1="265.0938" y2="265.0938"/><text fill="#000000" font-family="sans-serif" font-size="13" font-weight="bold" lengthAdjust="spacing" textLength="9" x="515" y="260.0278">6</text><text fill="#000000" font-family="sans-serif" font-size="13" lengthAdjust="spacing" textLength="162" x="528" y="260.0278">Depositar(DepositarDTO)</text><polygon fill="#A80036" points="1016.5,290.2266,1026.5,294.2266,1016.5,298.2266,1020.5,294.2266" style="stroke:#A80036;stroke-width:1.0;"/><line style="stroke:#A80036;stroke-width:1.0;stroke-dasharray:2.0,2.0;" x1="760.5" x2="1022.5" y1="294.2266" y2="294.2266"/><text fill="#000000" font-family="sans-serif" font-size="13" font-weight="bold" lengthAdjust="spacing" textLength="9" x="767.5" y="289.1606">7</text><text fill="#000000" font-family="sans-serif" font-size="13" lengthAdjust="spacing" textLength="236" x="780.5" y="289.1606">DepositarSaldoAsync(DepositarDTO)</text><polygon fill="#A80036" points="1225.5,319.3594,1235.5,323.3594,1225.5,327.3594,1229.5,323.3594" style="stroke:#A80036;stroke-width:1.0;"/><line style="stroke:#A80036;stroke-width:1.0;stroke-dasharray:2.0,2.0;" x1="1038.5" x2="1231.5" y1="323.3594" y2="323.3594"/><text fill="#000000" font-family="sans-serif" font-size="13" font-weight="bold" lengthAdjust="spacing" textLength="9" x="1045.5" y="318.2935">8</text><text fill="#000000" font-family="sans-serif" font-size="13" lengthAdjust="spacing" textLength="167" x="1058.5" y="318.2935">PostAsync(DepositarDTO)</text><polygon fill="#A80036" points="1049.5,348.4922,1039.5,352.4922,1049.5,356.4922,1045.5,352.4922" style="stroke:#A80036;stroke-width:1.0;"/><line style="stroke:#A80036;stroke-width:1.0;stroke-dasharray:2.0,2.0;" x1="1043.5" x2="1241.5" y1="352.4922" y2="352.4922"/><text fill="#000000" font-family="sans-serif" font-size="13" font-weight="bold" lengthAdjust="spacing" textLength="9" x="1055.5" y="347.4263">9</text><text fill="#000000" font-family="sans-serif" font-size="13" lengthAdjust="spacing" textLength="78" x="1068.5" y="347.4263">NoContent()</text><polygon fill="#A80036" points="771.5,377.625,761.5,381.625,771.5,385.625,767.5,381.625" style="stroke:#A80036;stroke-width:1.0;"/><line style="stroke:#A80036;stroke-width:1.0;stroke-dasharray:2.0,2.0;" x1="765.5" x2="1032.5" y1="381.625" y2="381.625"/><text fill="#000000" font-family="sans-serif" font-size="13" font-weight="bold" lengthAdjust="spacing" textLength="19" x="777.5" y="376.5591">10</text><text fill="#000000" font-family="sans-serif" font-size="13" lengthAdjust="spacing" textLength="49" x="800.5" y="376.5591">Task ok</text><line style="stroke:#A80036;stroke-width:1.0;stroke-dasharray:2.0,2.0;" x1="760.5" x2="802.5" y1="410.7578" y2="410.7578"/><line style="stroke:#A80036;stroke-width:1.0;stroke-dasharray:2.0,2.0;" x1="802.5" x2="802.5" y1="410.7578" y2="423.7578"/><line style="stroke:#A80036;stroke-width:1.0;stroke-dasharray:2.0,2.0;" x1="761.5" x2="802.5" y1="423.7578" y2="423.7578"/><polygon fill="#A80036" points="771.5,419.7578,761.5,423.7578,771.5,427.7578,767.5,423.7578" style="stroke:#A80036;stroke-width:1.0;"/><text fill="#000000" font-family="sans-serif" font-size="13" font-weight="bold" lengthAdjust="spacing" textLength="18" x="767.5" y="405.6919">11</text><text fill="#000000" font-family="sans-serif" font-size="13" lengthAdjust="spacing" textLength="214" x="789.5" y="405.6919">RedirectToAction(nameof(Saldo))</text><polygon fill="#A80036" points="1016.5,448.8906,1026.5,452.8906,1016.5,456.8906,1020.5,452.8906" style="stroke:#A80036;stroke-width:1.0;"/><line style="stroke:#A80036;stroke-width:1.0;stroke-dasharray:2.0,2.0;" x1="760.5" x2="1022.5" y1="452.8906" y2="452.8906"/><text fill="#000000" font-family="sans-serif" font-size="13" font-weight="bold" lengthAdjust="spacing" textLength="18" x="767.5" y="447.8247">12</text><text fill="#000000" font-family="sans-serif" font-size="13" lengthAdjust="spacing" textLength="107" x="789.5" y="447.8247">GetSaldoAsync()</text><polygon fill="#A80036" points="1225.5,478.0234,1235.5,482.0234,1225.5,486.0234,1229.5,482.0234" style="stroke:#A80036;stroke-width:1.0;"/><line style="stroke:#A80036;stroke-width:1.0;stroke-dasharray:2.0,2.0;" x1="1038.5" x2="1231.5" y1="482.0234" y2="482.0234"/><text fill="#000000" font-family="sans-serif" font-size="13" font-weight="bold" lengthAdjust="spacing" textLength="17" x="1045.5" y="476.9575">13</text><text fill="#000000" font-family="sans-serif" font-size="13" lengthAdjust="spacing" textLength="88" x="1066.5" y="476.9575">GetAsync(nif)</text><polygon fill="#A80036" points="1049.5,507.1563,1039.5,511.1563,1049.5,515.1563,1045.5,511.1563" style="stroke:#A80036;stroke-width:1.0;"/><line style="stroke:#A80036;stroke-width:1.0;stroke-dasharray:2.0,2.0;" x1="1043.5" x2="1241.5" y1="511.1563" y2="511.1563"/><text fill="#000000" font-family="sans-serif" font-size="13" font-weight="bold" lengthAdjust="spacing" textLength="18" x="1055.5" y="506.0903">14</text><text fill="#000000" font-family="sans-serif" font-size="13" lengthAdjust="spacing" textLength="81" x="1077.5" y="506.0903">return(valor)</text><polygon fill="#A80036" points="771.5,536.2891,761.5,540.2891,771.5,544.2891,767.5,540.2891" style="stroke:#A80036;stroke-width:1.0;"/><line style="stroke:#A80036;stroke-width:1.0;stroke-dasharray:2.0,2.0;" x1="765.5" x2="1032.5" y1="540.2891" y2="540.2891"/><text fill="#000000" font-family="sans-serif" font-size="13" font-weight="bold" lengthAdjust="spacing" textLength="18" x="777.5" y="535.2231">15</text><text fill="#000000" font-family="sans-serif" font-size="13" lengthAdjust="spacing" textLength="112" x="799.5" y="535.2231">return(SaldoDTO)</text><polygon fill="#A80036" points="268,565.4219,258,569.4219,268,573.4219,264,569.4219" style="stroke:#A80036;stroke-width:1.0;"/><line style="stroke:#A80036;stroke-width:1.0;stroke-dasharray:2.0,2.0;" x1="262" x2="754.5" y1="569.4219" y2="569.4219"/><text fill="#000000" font-family="sans-serif" font-size="13" font-weight="bold" lengthAdjust="spacing" textLength="18" x="274" y="564.356">16</text><text fill="#000000" font-family="sans-serif" font-size="13" lengthAdjust="spacing" textLength="147" x="296" y="564.356">return View(SaldoDTO)</text><polygon fill="#A80036" points="53,594.5547,43,598.5547,53,602.5547,49,598.5547" style="stroke:#A80036;stroke-width:1.0;"/><line style="stroke:#A80036;stroke-width:1.0;stroke-dasharray:2.0,2.0;" x1="47" x2="251" y1="598.5547" y2="598.5547"/><text fill="#000000" font-family="sans-serif" font-size="13" font-weight="bold" lengthAdjust="spacing" textLength="18" x="59" y="593.4888">17</text><text fill="#000000" font-family="sans-serif" font-size="13" lengthAdjust="spacing" textLength="154" x="81" y="593.4888">operação bem sucedida</text><!--MD5=[0d9a410349ae812cdf7c8781a3ff6a0f]
@startuml
autonumber
actor "Utilizador" as U
participant ":app/Views/Utilizadores/Saldo" as USV
participant ":app/Views/Utilizadores/Depositar" as UDV
participant ":app/UtilizadoresController" as UC
participant ":app/UtilizadorService" as US
participant "API:SistemaCentral" as API

activate U

U - -> USV: inicia o depósito
activate USV

USV - -> UC: Depositar()
deactivate USV
activate UC

UC - -> UDV: return View()
activate UDV

UDV - -> U: pede valor

U - -> UDV: insere valor

UDV - -> UC: Depositar(DepositarDTO)
deactivate UDV

UC - -> US: DepositarSaldoAsync(DepositarDTO)
activate US

US - -> API: PostAsync(DepositarDTO)
activate API

API - -> US: NoContent()
deactivate API

US - -> UC: Task ok
deactivate US

UC - -> UC: RedirectToAction(nameof(Saldo))

UC - -> US: GetSaldoAsync()
activate US

US - -> API: GetAsync(nif)
activate API

API - -> US: return(valor)
deactivate API

US - -> UC: return(SaldoDTO)
deactivate US

UC - -> USV: return View(SaldoDTO)
deactivate UC
activate USV

USV - -> U: operação bem sucedida
deactivate USV

deactivate U
@enduml

PlantUML version 1.2021.2beta9(Unknown compile time)
(GPL source distribution)
Java Runtime: Java(TM) SE Runtime Environment
JVM: Java HotSpot(TM) 64-Bit Server VM
Default Encoding: UTF-8
Language: en
Country: US
--></g></svg>