<?xml version="1.0" encoding="UTF-8" standalone="no"?><svg xmlns="http://www.w3.org/2000/svg" xmlns:xlink="http://www.w3.org/1999/xlink" contentScriptType="application/ecmascript" contentStyleType="text/css" height="440px" preserveAspectRatio="none" style="width:1353px;height:440px;" version="1.1" viewBox="0 0 1353 440" width="1353px" zoomAndPan="magnify"><defs><filter height="300%" id="fcevvj1ge65kt" width="300%" x="-1" y="-1"><feGaussianBlur result="blurOut" stdDeviation="2.0"/><feColorMatrix in="blurOut" result="blurOut2" type="matrix" values="0 0 0 0 0 0 0 0 0 0 0 0 0 0 0 0 0 0 .4 0"/><feOffset dx="4.0" dy="4.0" in="blurOut2" result="blurOut3"/><feBlend in="SourceGraphic" in2="blurOut3" mode="normal"/></filter></defs><g><rect fill="#FFFFFF" filter="url(#fcevvj1ge65kt)" height="240.1953" style="stroke:#A80036;stroke-width:1.0;" width="10" x="37" y="98.2969"/><rect fill="#FFFFFF" filter="url(#fcevvj1ge65kt)" height="219.0625" style="stroke:#A80036;stroke-width:1.0;" width="10" x="238" y="119.4297"/><rect fill="#FFFFFF" filter="url(#fcevvj1ge65kt)" height="145.6641" style="stroke:#A80036;stroke-width:1.0;" width="10" x="578" y="148.5625"/><rect fill="#FFFFFF" filter="url(#fcevvj1ge65kt)" height="87.3984" style="stroke:#A80036;stroke-width:1.0;" width="10" x="917" y="177.6953"/><rect fill="#FFFFFF" filter="url(#fcevvj1ge65kt)" height="29.1328" style="stroke:#A80036;stroke-width:1.0;" width="10" x="1257" y="206.8281"/><line style="stroke:#A80036;stroke-width:1.0;stroke-dasharray:5.0,5.0;" x1="42" x2="42" y1="88.2969" y2="356.4922"/><line style="stroke:#A80036;stroke-width:1.0;stroke-dasharray:5.0,5.0;" x1="242.5" x2="242.5" y1="88.2969" y2="356.4922"/><line style="stroke:#A80036;stroke-width:1.0;stroke-dasharray:5.0,5.0;" x1="583" x2="583" y1="88.2969" y2="356.4922"/><line style="stroke:#A80036;stroke-width:1.0;stroke-dasharray:5.0,5.0;" x1="922" x2="922" y1="88.2969" y2="356.4922"/><line style="stroke:#A80036;stroke-width:1.0;stroke-dasharray:5.0,5.0;" x1="1262" x2="1262" y1="88.2969" y2="356.4922"/><text fill="#000000" font-family="sans-serif" font-size="14" lengthAdjust="spacing" textLength="68" x="5" y="84.9951">Utilizador</text><ellipse cx="42" cy="15" fill="#FEFECE" filter="url(#fcevvj1ge65kt)" rx="8" ry="8" style="stroke:#A80036;stroke-width:2.0;"/><path d="M42,23 L42,50 M29,31 L55,31 M42,50 L29,65 M42,50 L55,65 " fill="none" filter="url(#fcevvj1ge65kt)" style="stroke:#A80036;stroke-width:2.0;"/><text fill="#000000" font-family="sans-serif" font-size="14" lengthAdjust="spacing" textLength="68" x="5" y="368.4873">Utilizador</text><ellipse cx="42" cy="381.7891" fill="#FEFECE" filter="url(#fcevvj1ge65kt)" rx="8" ry="8" style="stroke:#A80036;stroke-width:2.0;"/><path d="M42,389.7891 L42,416.7891 M29,397.7891 L55,397.7891 M42,416.7891 L29,431.7891 M42,416.7891 L55,431.7891 " fill="none" filter="url(#fcevvj1ge65kt)" style="stroke:#A80036;stroke-width:2.0;"/><rect fill="#FEFECE" filter="url(#fcevvj1ge65kt)" height="30.2969" style="stroke:#A80036;stroke-width:1.5;" width="143" x="169.5" y="53"/><text fill="#000000" font-family="sans-serif" font-size="14" lengthAdjust="spacing" textLength="129" x="176.5" y="72.9951">:app/ReservaView</text><rect fill="#FEFECE" filter="url(#fcevvj1ge65kt)" height="30.2969" style="stroke:#A80036;stroke-width:1.5;" width="143" x="169.5" y="355.4922"/><text fill="#000000" font-family="sans-serif" font-size="14" lengthAdjust="spacing" textLength="129" x="176.5" y="375.4873">:app/ReservaView</text><rect fill="#FEFECE" filter="url(#fcevvj1ge65kt)" height="30.2969" style="stroke:#A80036;stroke-width:1.5;" width="182" x="490" y="53"/><text fill="#000000" font-family="sans-serif" font-size="14" lengthAdjust="spacing" textLength="168" x="497" y="72.9951">:app/ReservaController</text><rect fill="#FEFECE" filter="url(#fcevvj1ge65kt)" height="30.2969" style="stroke:#A80036;stroke-width:1.5;" width="182" x="490" y="355.4922"/><text fill="#000000" font-family="sans-serif" font-size="14" lengthAdjust="spacing" textLength="168" x="497" y="375.4873">:app/ReservaController</text><rect fill="#FEFECE" filter="url(#fcevvj1ge65kt)" height="30.2969" style="stroke:#A80036;stroke-width:1.5;" width="162" x="839" y="53"/><text fill="#000000" font-family="sans-serif" font-size="14" lengthAdjust="spacing" textLength="148" x="846" y="72.9951">:app/ReservaService</text><rect fill="#FEFECE" filter="url(#fcevvj1ge65kt)" height="30.2969" style="stroke:#A80036;stroke-width:1.5;" width="162" x="839" y="355.4922"/><text fill="#000000" font-family="sans-serif" font-size="14" lengthAdjust="spacing" textLength="148" x="846" y="375.4873">:app/ReservaService</text><rect fill="#FEFECE" filter="url(#fcevvj1ge65kt)" height="30.2969" style="stroke:#A80036;stroke-width:1.5;" width="158" x="1181" y="53"/><text fill="#000000" font-family="sans-serif" font-size="14" lengthAdjust="spacing" textLength="144" x="1188" y="72.9951">app.SistemaCentral</text><rect fill="#FEFECE" filter="url(#fcevvj1ge65kt)" height="30.2969" style="stroke:#A80036;stroke-width:1.5;" width="158" x="1181" y="355.4922"/><text fill="#000000" font-family="sans-serif" font-size="14" lengthAdjust="spacing" textLength="144" x="1188" y="375.4873">app.SistemaCentral</text><rect fill="#FFFFFF" filter="url(#fcevvj1ge65kt)" height="240.1953" style="stroke:#A80036;stroke-width:1.0;" width="10" x="37" y="98.2969"/><rect fill="#FFFFFF" filter="url(#fcevvj1ge65kt)" height="219.0625" style="stroke:#A80036;stroke-width:1.0;" width="10" x="238" y="119.4297"/><rect fill="#FFFFFF" filter="url(#fcevvj1ge65kt)" height="145.6641" style="stroke:#A80036;stroke-width:1.0;" width="10" x="578" y="148.5625"/><rect fill="#FFFFFF" filter="url(#fcevvj1ge65kt)" height="87.3984" style="stroke:#A80036;stroke-width:1.0;" width="10" x="917" y="177.6953"/><rect fill="#FFFFFF" filter="url(#fcevvj1ge65kt)" height="29.1328" style="stroke:#A80036;stroke-width:1.0;" width="10" x="1257" y="206.8281"/><polygon fill="#A80036" points="226,115.4297,236,119.4297,226,123.4297,230,119.4297" style="stroke:#A80036;stroke-width:1.0;"/><line style="stroke:#A80036;stroke-width:1.0;stroke-dasharray:2.0,2.0;" x1="47" x2="232" y1="119.4297" y2="119.4297"/><text fill="#000000" font-family="sans-serif" font-size="13" font-weight="bold" lengthAdjust="spacing" textLength="9" x="54" y="114.3638">1</text><text fill="#000000" font-family="sans-serif" font-size="13" lengthAdjust="spacing" textLength="157" x="67" y="114.3638">Pesquisa Disponibilidade</text><polygon fill="#A80036" points="566,144.5625,576,148.5625,566,152.5625,570,148.5625" style="stroke:#A80036;stroke-width:1.0;"/><line style="stroke:#A80036;stroke-width:1.0;stroke-dasharray:2.0,2.0;" x1="248" x2="572" y1="148.5625" y2="148.5625"/><text fill="#000000" font-family="sans-serif" font-size="13" font-weight="bold" lengthAdjust="spacing" textLength="9" x="255" y="143.4966">2</text><text fill="#000000" font-family="sans-serif" font-size="13" lengthAdjust="spacing" textLength="298" x="268" y="143.4966">findAvailableAsync(freguesiaNome, inicio, fim)</text><polygon fill="#A80036" points="905,173.6953,915,177.6953,905,181.6953,909,177.6953" style="stroke:#A80036;stroke-width:1.0;"/><line style="stroke:#A80036;stroke-width:1.0;stroke-dasharray:2.0,2.0;" x1="588" x2="911" y1="177.6953" y2="177.6953"/><text fill="#000000" font-family="sans-serif" font-size="13" font-weight="bold" lengthAdjust="spacing" textLength="8" x="595" y="172.6294">3</text><text fill="#000000" font-family="sans-serif" font-size="13" lengthAdjust="spacing" textLength="298" x="607" y="172.6294">findAvailableAsync(freguesiaNome, inicio, fim)</text><polygon fill="#A80036" points="1245,202.8281,1255,206.8281,1245,210.8281,1249,206.8281" style="stroke:#A80036;stroke-width:1.0;"/><line style="stroke:#A80036;stroke-width:1.0;stroke-dasharray:2.0,2.0;" x1="927" x2="1251" y1="206.8281" y2="206.8281"/><text fill="#000000" font-family="sans-serif" font-size="13" font-weight="bold" lengthAdjust="spacing" textLength="9" x="934" y="201.7622">4</text><text fill="#000000" font-family="sans-serif" font-size="13" lengthAdjust="spacing" textLength="298" x="947" y="201.7622">findAvailableAsync(freguesiaNome, inicio, fim)</text><polygon fill="#A80036" points="938,231.9609,928,235.9609,938,239.9609,934,235.9609" style="stroke:#A80036;stroke-width:1.0;"/><line style="stroke:#A80036;stroke-width:1.0;stroke-dasharray:2.0,2.0;" x1="932" x2="1261" y1="235.9609" y2="235.9609"/><text fill="#000000" font-family="sans-serif" font-size="13" font-weight="bold" lengthAdjust="spacing" textLength="9" x="944" y="230.895">5</text><text fill="#000000" font-family="sans-serif" font-size="13" lengthAdjust="spacing" textLength="124" x="957" y="230.895">Return listaLugares</text><polygon fill="#A80036" points="599,261.0938,589,265.0938,599,269.0938,595,265.0938" style="stroke:#A80036;stroke-width:1.0;"/><line style="stroke:#A80036;stroke-width:1.0;stroke-dasharray:2.0,2.0;" x1="593" x2="921" y1="265.0938" y2="265.0938"/><text fill="#000000" font-family="sans-serif" font-size="13" font-weight="bold" lengthAdjust="spacing" textLength="9" x="605" y="260.0278">6</text><text fill="#000000" font-family="sans-serif" font-size="13" lengthAdjust="spacing" textLength="124" x="618" y="260.0278">Return listaLugares</text><polygon fill="#A80036" points="259,290.2266,249,294.2266,259,298.2266,255,294.2266" style="stroke:#A80036;stroke-width:1.0;"/><line style="stroke:#A80036;stroke-width:1.0;stroke-dasharray:2.0,2.0;" x1="253" x2="582" y1="294.2266" y2="294.2266"/><text fill="#000000" font-family="sans-serif" font-size="13" font-weight="bold" lengthAdjust="spacing" textLength="9" x="265" y="289.1606">7</text><text fill="#000000" font-family="sans-serif" font-size="13" lengthAdjust="spacing" textLength="124" x="278" y="289.1606">Return listaLugares</text><polygon fill="#A80036" points="53,334.4922,43,338.4922,53,342.4922,49,338.4922" style="stroke:#A80036;stroke-width:1.0;"/><line style="stroke:#A80036;stroke-width:1.0;stroke-dasharray:2.0,2.0;" x1="47" x2="242" y1="338.4922" y2="338.4922"/><text fill="#000000" font-family="sans-serif" font-size="13" font-weight="bold" lengthAdjust="spacing" textLength="9" x="59" y="325.8599">8</text><text fill="#000000" font-family="sans-serif" font-size="13" lengthAdjust="spacing" textLength="124" x="72" y="318.2935">Return listaLugares</text><text fill="#000000" font-family="sans-serif" font-size="13" lengthAdjust="spacing" textLength="154" x="72" y="333.4263">operacao bem sucedida</text><!--MD5=[21361d098cf3fc0cf023a1fb21d88a04]
@startuml
autonumber
actor "Utilizador" as U
participant ":app/ReservaView" as RV
participant ":app/ReservaController" as RC
participant ":app/ReservaService" as RS
participant "app.SistemaCentral" as API

activate U

U - -> RV: Pesquisa Disponibilidade
activate RV

RV - -> RC: findAvailableAsync(freguesiaNome, inicio, fim)
activate RC

RC - -> RS: findAvailableAsync(freguesiaNome, inicio, fim)
activate RS

RS - -> API: findAvailableAsync(freguesiaNome, inicio, fim)
activate API

API - -> RS:Return listaLugares
deactivate API

RS - -> RC: Return listaLugares
deactivate RS

RC - -> RV: Return listaLugares
deactivate RC

RV - -> U: Return listaLugares\noperacao bem sucedida
deactivate RV

deactivate U
@enduml

PlantUML version 1.2021.2beta9(Unknown compile time)
(GPL source distribution)
Java Runtime: Java(TM) SE Runtime Environment
JVM: Java HotSpot(TM) 64-Bit Server VM
Default Encoding: UTF-8
Language: en
Country: US
--></g></svg>