<?xml version="1.0" encoding="UTF-8" standalone="no"?><svg xmlns="http://www.w3.org/2000/svg" xmlns:xlink="http://www.w3.org/1999/xlink" contentScriptType="application/ecmascript" contentStyleType="text/css" height="324px" preserveAspectRatio="none" style="width:358px;height:324px;" version="1.1" viewBox="0 0 358 324" width="358px" zoomAndPan="magnify"><defs><filter height="300%" id="f1pe9xyshlze65" width="300%" x="-1" y="-1"><feGaussianBlur result="blurOut" stdDeviation="2.0"/><feColorMatrix in="blurOut" result="blurOut2" type="matrix" values="0 0 0 0 0 0 0 0 0 0 0 0 0 0 0 0 0 0 .4 0"/><feOffset dx="4.0" dy="4.0" in="blurOut2" result="blurOut3"/><feBlend in="SourceGraphic" in2="blurOut3" mode="normal"/></filter></defs><g><rect fill="#FFFFFF" filter="url(#f1pe9xyshlze65)" height="123.6641" style="stroke:#A80036;stroke-width:1.0;" width="10" x="29" y="98.2969"/><rect fill="#FFFFFF" filter="url(#f1pe9xyshlze65)" height="44.2656" style="stroke:#A80036;stroke-width:1.0;" width="10" x="282" y="119.4297"/><rect fill="#FFFFFF" filter="url(#f1pe9xyshlze65)" height="29.1328" style="stroke:#A80036;stroke-width:1.0;" width="10" x="282" y="192.8281"/><line style="stroke:#A80036;stroke-width:1.0;stroke-dasharray:5.0,5.0;" x1="34" x2="34" y1="88.2969" y2="239.9609"/><line style="stroke:#A80036;stroke-width:1.0;stroke-dasharray:5.0,5.0;" x1="287" x2="287" y1="88.2969" y2="239.9609"/><text fill="#000000" font-family="sans-serif" font-size="14" lengthAdjust="spacing" textLength="52" x="5" y="84.9951">Cliente</text><ellipse cx="34" cy="15" fill="#FEFECE" filter="url(#f1pe9xyshlze65)" rx="8" ry="8" style="stroke:#A80036;stroke-width:2.0;"/><path d="M34,23 L34,50 M21,31 L47,31 M34,50 L21,65 M34,50 L47,65 " fill="none" filter="url(#f1pe9xyshlze65)" style="stroke:#A80036;stroke-width:2.0;"/><text fill="#000000" font-family="sans-serif" font-size="14" lengthAdjust="spacing" textLength="52" x="5" y="251.9561">Cliente</text><ellipse cx="34" cy="265.2578" fill="#FEFECE" filter="url(#f1pe9xyshlze65)" rx="8" ry="8" style="stroke:#A80036;stroke-width:2.0;"/><path d="M34,273.2578 L34,300.2578 M21,281.2578 L47,281.2578 M34,300.2578 L21,315.2578 M34,300.2578 L47,315.2578 " fill="none" filter="url(#f1pe9xyshlze65)" style="stroke:#A80036;stroke-width:2.0;"/><rect fill="#FEFECE" filter="url(#f1pe9xyshlze65)" height="30.2969" style="stroke:#A80036;stroke-width:1.5;" width="118" x="226" y="53"/><text fill="#000000" font-family="sans-serif" font-size="14" lengthAdjust="spacing" textLength="104" x="233" y="72.9951">:app.FrontEnd</text><rect fill="#FEFECE" filter="url(#f1pe9xyshlze65)" height="30.2969" style="stroke:#A80036;stroke-width:1.5;" width="118" x="226" y="238.9609"/><text fill="#000000" font-family="sans-serif" font-size="14" lengthAdjust="spacing" textLength="104" x="233" y="258.9561">:app.FrontEnd</text><rect fill="#FFFFFF" filter="url(#f1pe9xyshlze65)" height="123.6641" style="stroke:#A80036;stroke-width:1.0;" width="10" x="29" y="98.2969"/><rect fill="#FFFFFF" filter="url(#f1pe9xyshlze65)" height="44.2656" style="stroke:#A80036;stroke-width:1.0;" width="10" x="282" y="119.4297"/><rect fill="#FFFFFF" filter="url(#f1pe9xyshlze65)" height="29.1328" style="stroke:#A80036;stroke-width:1.0;" width="10" x="282" y="192.8281"/><polygon fill="#A80036" points="270,115.4297,280,119.4297,270,123.4297,274,119.4297" style="stroke:#A80036;stroke-width:1.0;"/><line style="stroke:#A80036;stroke-width:1.0;" x1="39" x2="276" y1="119.4297" y2="119.4297"/><text fill="#000000" font-family="sans-serif" font-size="13" font-weight="bold" lengthAdjust="spacing" textLength="9" x="46" y="114.3638">1</text><text fill="#000000" font-family="sans-serif" font-size="13" lengthAdjust="spacing" textLength="211" x="59" y="114.3638">inicia pesquisa de disponibilidade</text><polygon fill="#A80036" points="50,159.6953,40,163.6953,50,167.6953,46,163.6953" style="stroke:#A80036;stroke-width:1.0;"/><line style="stroke:#A80036;stroke-width:1.0;stroke-dasharray:2.0,2.0;" x1="44" x2="286" y1="163.6953" y2="163.6953"/><text fill="#000000" font-family="sans-serif" font-size="13" font-weight="bold" lengthAdjust="spacing" textLength="9" x="56" y="151.063">2</text><text fill="#000000" font-family="sans-serif" font-size="13" lengthAdjust="spacing" textLength="133" x="69" y="143.4966">solicita dados cliente</text><text fill="#000000" font-family="sans-serif" font-size="13" lengthAdjust="spacing" textLength="143" x="69" y="158.6294">(localidade, inicio, fim)</text><polygon fill="#A80036" points="270,188.8281,280,192.8281,270,196.8281,274,192.8281" style="stroke:#A80036;stroke-width:1.0;"/><line style="stroke:#A80036;stroke-width:1.0;" x1="39" x2="276" y1="192.8281" y2="192.8281"/><text fill="#000000" font-family="sans-serif" font-size="13" font-weight="bold" lengthAdjust="spacing" textLength="8" x="46" y="187.7622">3</text><text fill="#000000" font-family="sans-serif" font-size="13" lengthAdjust="spacing" textLength="185" x="58" y="187.7622">introduz os dados solicitados</text><polygon fill="#A80036" points="45,217.9609,35,221.9609,45,225.9609,41,221.9609" style="stroke:#A80036;stroke-width:1.0;"/><line style="stroke:#A80036;stroke-width:1.0;stroke-dasharray:2.0,2.0;" x1="39" x2="286" y1="221.9609" y2="221.9609"/><text fill="#000000" font-family="sans-serif" font-size="13" font-weight="bold" lengthAdjust="spacing" textLength="9" x="51" y="216.895">4</text><text fill="#000000" font-family="sans-serif" font-size="13" lengthAdjust="spacing" textLength="154" x="64" y="216.895">operação bem sucedida</text><!--MD5=[959ca325aea1373c3b7ba39b384f4ce3]
@startuml
autonumber
actor "Cliente" as UserNR
participant ":app.FrontEnd" as APP

activate UserNR
UserNR -> "APP" : inicia pesquisa de disponibilidade
activate "APP"
"APP" - -> UserNR : solicita dados cliente \n(localidade, inicio, fim)
deactivate "APP"

UserNR -> "APP" : introduz os dados solicitados
activate "APP"

"APP" - -> UserNR : operação bem sucedida
deactivate "APP"

deactivate UserNR
@enduml

PlantUML version 1.2021.2beta9(Unknown compile time)
(GPL source distribution)
Java Runtime: Java(TM) SE Runtime Environment
JVM: Java HotSpot(TM) 64-Bit Server VM
Default Encoding: UTF-8
Language: en
Country: US
--></g></svg>