<?xml version="1.0" encoding="UTF-8" standalone="no"?><svg xmlns="http://www.w3.org/2000/svg" xmlns:xlink="http://www.w3.org/1999/xlink" contentScriptType="application/ecmascript" contentStyleType="text/css" height="281px" preserveAspectRatio="none" style="width:370px;height:281px;" version="1.1" viewBox="0 0 370 281" width="370px" zoomAndPan="magnify"><defs><filter height="300%" id="fzxxiiqlzj5qj" width="300%" x="-1" y="-1"><feGaussianBlur result="blurOut" stdDeviation="2.0"/><feColorMatrix in="blurOut" result="blurOut2" type="matrix" values="0 0 0 0 0 0 0 0 0 0 0 0 0 0 0 0 0 0 .4 0"/><feOffset dx="4.0" dy="4.0" in="blurOut2" result="blurOut3"/><feBlend in="SourceGraphic" in2="blurOut3" mode="normal"/></filter></defs><g><rect fill="#FFFFFF" filter="url(#fzxxiiqlzj5qj)" height="80.5313" style="stroke:#A80036;stroke-width:1.0;" width="10" x="37" y="98.2969"/><rect fill="#FFFFFF" filter="url(#fzxxiiqlzj5qj)" height="44.2656" style="stroke:#A80036;stroke-width:1.0;" width="10" x="294" y="134.5625"/><line style="stroke:#A80036;stroke-width:1.0;stroke-dasharray:5.0,5.0;" x1="42" x2="42" y1="88.2969" y2="196.8281"/><line style="stroke:#A80036;stroke-width:1.0;stroke-dasharray:5.0,5.0;" x1="299" x2="299" y1="88.2969" y2="196.8281"/><text fill="#000000" font-family="sans-serif" font-size="14" lengthAdjust="spacing" textLength="68" x="5" y="84.9951">Utilizador</text><ellipse cx="42" cy="15" fill="#FEFECE" filter="url(#fzxxiiqlzj5qj)" rx="8" ry="8" style="stroke:#A80036;stroke-width:2.0;"/><path d="M42,23 L42,50 M29,31 L55,31 M42,50 L29,65 M42,50 L55,65 " fill="none" filter="url(#fzxxiiqlzj5qj)" style="stroke:#A80036;stroke-width:2.0;"/><text fill="#000000" font-family="sans-serif" font-size="14" lengthAdjust="spacing" textLength="68" x="5" y="208.8232">Utilizador</text><ellipse cx="42" cy="222.125" fill="#FEFECE" filter="url(#fzxxiiqlzj5qj)" rx="8" ry="8" style="stroke:#A80036;stroke-width:2.0;"/><path d="M42,230.125 L42,257.125 M29,238.125 L55,238.125 M42,257.125 L29,272.125 M42,257.125 L55,272.125 " fill="none" filter="url(#fzxxiiqlzj5qj)" style="stroke:#A80036;stroke-width:2.0;"/><rect fill="#FEFECE" filter="url(#fzxxiiqlzj5qj)" height="30.2969" style="stroke:#A80036;stroke-width:1.5;" width="118" x="238" y="53"/><text fill="#000000" font-family="sans-serif" font-size="14" lengthAdjust="spacing" textLength="104" x="245" y="72.9951">:APP.FrontEnd</text><rect fill="#FEFECE" filter="url(#fzxxiiqlzj5qj)" height="30.2969" style="stroke:#A80036;stroke-width:1.5;" width="118" x="238" y="195.8281"/><text fill="#000000" font-family="sans-serif" font-size="14" lengthAdjust="spacing" textLength="104" x="245" y="215.8232">:APP.FrontEnd</text><rect fill="#FFFFFF" filter="url(#fzxxiiqlzj5qj)" height="80.5313" style="stroke:#A80036;stroke-width:1.0;" width="10" x="37" y="98.2969"/><rect fill="#FFFFFF" filter="url(#fzxxiiqlzj5qj)" height="44.2656" style="stroke:#A80036;stroke-width:1.0;" width="10" x="294" y="134.5625"/><polygon fill="#A80036" points="282,130.5625,292,134.5625,282,138.5625,286,134.5625" style="stroke:#A80036;stroke-width:1.0;"/><line style="stroke:#A80036;stroke-width:1.0;" x1="47" x2="288" y1="134.5625" y2="134.5625"/><text fill="#000000" font-family="sans-serif" font-size="13" font-weight="bold" lengthAdjust="spacing" textLength="9" x="54" y="121.9302">1</text><text fill="#000000" font-family="sans-serif" font-size="13" lengthAdjust="spacing" textLength="211" x="67" y="114.3638">inicia pesquisa de disponibilidade</text><text fill="#000000" font-family="sans-serif" font-size="13" lengthAdjust="spacing" textLength="143" x="67" y="129.4966">(localidade, inicio, fim)</text><polygon fill="#A80036" points="53,174.8281,43,178.8281,53,182.8281,49,178.8281" style="stroke:#A80036;stroke-width:1.0;"/><line style="stroke:#A80036;stroke-width:1.0;stroke-dasharray:2.0,2.0;" x1="47" x2="298" y1="178.8281" y2="178.8281"/><text fill="#000000" font-family="sans-serif" font-size="13" font-weight="bold" lengthAdjust="spacing" textLength="9" x="59" y="166.1958">2</text><text fill="#000000" font-family="sans-serif" font-size="13" lengthAdjust="spacing" textLength="69" x="72" y="158.6294">return lista</text><text fill="#000000" font-family="sans-serif" font-size="13" lengthAdjust="spacing" textLength="154" x="72" y="173.7622">operaçao bem sucedida</text><!--MD5=[83a2c3167e7a57b5c19ad5b0d0c353fb]
@startuml
autonumber
actor "Utilizador" as UserNR
participant ":APP.FrontEnd" as API

activate UserNR
UserNR -> "API" : inicia pesquisa de disponibilidade \n(localidade, inicio, fim)
activate "API"
"API" - -> UserNR : return lista \noperaçao bem sucedida
deactivate "API"

deactivate UserNR
@enduml

PlantUML version 1.2021.2beta9(Unknown compile time)
(GPL source distribution)
Java Runtime: Java(TM) SE Runtime Environment
JVM: Java HotSpot(TM) 64-Bit Server VM
Default Encoding: UTF-8
Language: en
Country: US
--></g></svg>